<?xml version="1.0" encoding="utf-8"?>
<!-- Generator: Adobe Illustrator 24.0.1, SVG Export Plug-In . SVG Version: 6.00 Build 0)  -->
<svg version="1.1" id="Capa_1" xmlns="http://www.w3.org/2000/svg" xmlns:xlink="http://www.w3.org/1999/xlink" x="0px" y="0px"
	 viewBox="0 0 293 242" style="enable-background:new 0 0 293 242;" xml:space="preserve">
<style type="text/css">
	.st0{fill:#F3F0EC;}
</style>
<path class="st0" d="M-2.2,149.3c2.5,4.2,12.3,13.8,22.4,14.2S38.1,152,40.8,146V56c-0.3-4.3,2.3-12.8,15.3-12s15,7.3,14.4,10.5V107
	c-0.1,2.2,1.6,6.3,9.9,5.5s9.4-5.7,9-8v-36c0-2.2,1-6.3,4.9-5.5s5.2,4,5.4,5.5V130c-0.1,2,0.4,5.9,4,5.5s3.9,0.5,3.6,1V190
	c0.1,2,2.2,5.9,9.4,5.5c7.2-0.4,9.9-5.2,10.3-7.5V98c-0.2-2.5,1.2-7.4,7.6-7c6.5,0.4,7.8,4.2,7.6,6v55.5c0,3.7,2.7,11,13.5,11
	s13.2-7.3,13-11v-72c0.1-6.3,4.7-18.9,21.5-18.5c16.9,0.4,20.5,12.5,20.2,18.5V228c0.4,4.8,5.4,14.4,21.5,14
	c16.2-0.4,21.1-9.5,21.5-14V39c0.3-6.2,4.8-18.4,20.2-18S295,33.6,295,39.4V0H-1.1L-2.2,149.3z"/>
</svg>
