<?xml version="1.0" encoding="utf-8"?>
<!-- Generator: Adobe Illustrator 24.0.1, SVG Export Plug-In . SVG Version: 6.00 Build 0)  -->
<svg version="1.1" xmlns="http://www.w3.org/2000/svg" xmlns:xlink="http://www.w3.org/1999/xlink" x="0px" y="0px"
	 viewBox="0 0 512 460.8" style="enable-background:new 0 0 512 460.8;" xml:space="preserve">
<style type="text/css">
	.st0{display:none;}
	.st1{display:inline;}
	.st2{fill:#5F4A33;}
	.st3{fill:#A8947E;}
</style>
<g id="archive" class="st0">
	<g class="st1">
		<path class="st2" d="M76.8,25.6v25.6h358.4c14.1,0,25.6,11.5,25.6,25.6s-11.5,25.6-25.6,25.6H76.8c-14.1,0-25.6-11.5-25.6-25.6
			s11.5-25.6,25.6-25.6V25.6V0C34.4,0,0,34.4,0,76.8s34.4,76.8,76.8,76.8h358.4c42.4,0,76.8-34.4,76.8-76.8S477.6,0,435.2,0H76.8
			V25.6z"/>
		<path class="st2" d="M51.2,128v256c0,42.4,34.4,76.8,76.8,76.8h256c42.4,0,76.8-34.4,76.8-76.8V128c0-14.1-11.5-25.6-25.6-25.6
			s-25.6,11.5-25.6,25.6v256c0,14.1-11.5,25.6-25.6,25.6H128c-14.1,0-25.6-11.5-25.6-25.6V128c0-14.1-11.5-25.6-25.6-25.6
			S51.2,113.9,51.2,128L51.2,128z"/>
		<path class="st2" d="M204.8,256h102.4c14.1,0,25.6-11.5,25.6-25.6s-11.5-25.6-25.6-25.6H204.8c-14.1,0-25.6,11.5-25.6,25.6
			S190.7,256,204.8,256"/>
	</g>
</g>
<g id="archive_hover">
	<g>
		<path class="st3" d="M76.8,25.6v25.6h358.4c14.1,0,25.6,11.5,25.6,25.6s-11.5,25.6-25.6,25.6H76.8c-14.1,0-25.6-11.5-25.6-25.6
			s11.5-25.6,25.6-25.6V25.6V0C34.4,0,0,34.4,0,76.8s34.4,76.8,76.8,76.8h358.4c42.4,0,76.8-34.4,76.8-76.8S477.6,0,435.2,0H76.8
			V25.6z"/>
		<path class="st3" d="M51.2,128v256c0,42.4,34.4,76.8,76.8,76.8h256c42.4,0,76.8-34.4,76.8-76.8V128c0-14.1-11.5-25.6-25.6-25.6
			s-25.6,11.5-25.6,25.6v256c0,14.1-11.5,25.6-25.6,25.6H128c-14.1,0-25.6-11.5-25.6-25.6V128c0-14.1-11.5-25.6-25.6-25.6
			S51.2,113.9,51.2,128L51.2,128z"/>
		<path class="st3" d="M204.8,256h102.4c14.1,0,25.6-11.5,25.6-25.6s-11.5-25.6-25.6-25.6H204.8c-14.1,0-25.6,11.5-25.6,25.6
			S190.7,256,204.8,256"/>
	</g>
</g>
</svg>
