<svg version="1.1" id="Layer_1" xmlns="http://www.w3.org/2000/svg" x="0" y="0" viewBox="0 0 512 460.8" style="enable-background:new 0 0 512 460.8" xml:space="preserve"><style>.st0{fill:#5f4a33}</style><path class="st0" d="M76.8 25.6v25.6h358.4c14.1 0 25.6 11.5 25.6 25.6s-11.5 25.6-25.6 25.6H76.8c-14.1 0-25.6-11.5-25.6-25.6s11.5-25.6 25.6-25.6V0C34.4 0 0 34.4 0 76.8s34.4 76.8 76.8 76.8h358.4c42.4 0 76.8-34.4 76.8-76.8S477.6 0 435.2 0H76.8v25.6z"/><path class="st0" d="M51.2 128v256c0 42.4 34.4 76.8 76.8 76.8h256c42.4 0 76.8-34.4 76.8-76.8V128c0-14.1-11.5-25.6-25.6-25.6s-25.6 11.5-25.6 25.6v256c0 14.1-11.5 25.6-25.6 25.6H128c-14.1 0-25.6-11.5-25.6-25.6V128c0-14.1-11.5-25.6-25.6-25.6S51.2 113.9 51.2 128z"/><path class="st0" d="M204.8 256h102.4c14.1 0 25.6-11.5 25.6-25.6s-11.5-25.6-25.6-25.6H204.8c-14.1 0-25.6 11.5-25.6 25.6s11.5 25.6 25.6 25.6"/></svg>