<?xml version="1.0" encoding="utf-8"?>
<!-- Generator: Adobe Illustrator 24.0.1, SVG Export Plug-In . SVG Version: 6.00 Build 0)  -->
<svg version="1.1" id="Capa_1" xmlns="http://www.w3.org/2000/svg" xmlns:xlink="http://www.w3.org/1999/xlink" x="0px" y="0px"
	 viewBox="0 0 48.1 31.4" style="enable-background:new 0 0 48.1 31.4;" xml:space="preserve">
<style type="text/css">
	.st0{fill:#5F4A33;}
</style>
<g>
	<g>
		<path class="st0" d="M11.5,0.1c-0.6,0.1-1.1,0.4-1.6,0.9C9.1,1.8,9.1,2.1,9.1,7.1v4H7.9c-1.1,0-1.2,0-1.7,0.3
			c-0.3,0.2-0.6,0.4-0.8,0.7l-0.3,0.4l0,3.5l0,3.5H3.2c-1.6,0-1.9,0-2.2,0.2c-0.4,0.2-0.9,0.7-0.9,1.1c-0.1,0.3,0.3,3.6,0.5,4.9
			c0.2,1.1,0.9,2,1.8,2.4l0.5,0.2l0,0.8c0,0.7,0.1,0.8,0.3,1.2c0.4,0.5,0.8,0.8,1.4,0.9c0.7,0.1,38.2,0.1,38.9,0
			c0.6-0.1,1-0.4,1.4-0.9c0.2-0.3,0.3-0.5,0.3-1.2l0-0.8l0.4-0.2c0.8-0.3,1.6-1.3,1.8-2.1c0.2-0.7,0.6-4.9,0.6-5.2
			c-0.1-0.5-0.5-1-0.9-1.2c-0.3-0.1-0.7-0.2-2.2-0.2H43v-8.6c0-9.7,0-9.1-0.7-9.9c-0.2-0.3-0.6-0.6-1-0.7L40.8,0h-9.2h-9.3l-0.2,0.3
			c-0.3,0.3-0.3,0.5,0,0.9l0.2,0.2h6.8h6.8v0.4c0,0.5-0.2,0.8-0.6,1.1C35,3,34.9,3.1,34,3.1c-1.1,0-1.6,0.2-2.2,0.6
			c-0.2,0.2-0.5,0.6-0.6,0.9C31,5,31,5.2,30.9,6.1l0,1l0.3,0.3c0.3,0.3,0.6,0.4,0.9,0.1c0.2-0.2,0.2-0.2,0.3-1.2
			c0.1-1.6,0.3-1.8,1.8-1.8c1.1,0,1.7-0.2,2.3-0.7c0.6-0.5,0.8-1,0.9-1.8l0.1-0.6h1.6c1.8,0,2,0.1,2.5,0.7l0.2,0.3V11v8.5H40
			c-1.5,0-1.7,0-1.9,0.2c-0.3,0.2-0.3,0.8,0,1.1c0.2,0.2,0.5,0.2,4.3,0.2c3.3,0,4.1,0,4.2,0.1c0.1,0.2-0.5,4.6-0.6,4.9
			c-0.1,0.3-0.5,0.7-0.8,0.9C45.1,27,41,27,29.1,27l-15.9,0L13,27.3c-0.2,0.3-0.2,0.7,0,0.9c0.2,0.2,0.3,0.2,15.5,0.2h15.3v0.5
			c0,0.6-0.1,0.8-0.5,0.9C42.9,30,5.2,30,4.8,29.8c-0.4-0.1-0.5-0.3-0.5-0.9v-0.5h3.1h3.1l0.2-0.2c0.3-0.3,0.2-0.5,0-0.9l-0.2-0.3
			l-3.8,0C4.2,27,3,27,2.8,26.9C2.5,26.7,2.1,26.3,2,26c-0.1-0.3-0.7-4.8-0.6-4.9c0-0.1,3-0.1,17.1-0.1h17l0.3-0.2
			c0.3-0.3,0.3-0.8,0-1c-0.3-0.2-0.3-0.2-10.6-0.2H14.7v-3.4v-3.4l-0.3-0.5c-0.2-0.4-0.4-0.6-0.7-0.8c-0.4-0.3-0.5-0.3-1.9-0.3
			l-1.4,0V7.1c0-2.2,0-4.2,0.1-4.4c0.1-0.5,0.3-0.8,0.8-1c0.3-0.2,0.5-0.2,1.9-0.2h1.6L14.9,2c0.1,0.7,0.3,1.3,0.9,1.8
			c0.5,0.5,1.2,0.7,2.3,0.7c0.7,0,0.9,0,1.2,0.2c0.5,0.3,0.5,0.4,0.6,2.9c0,2.2,0,2.3,0.3,2.7c0.3,0.6,0.7,0.9,1.3,1.2
			c1.2,0.5,2.5,0,3.2-1.1c0.3-0.4,0.3-0.4,0.3-2.7c0-2.5,0.1-2.6,0.6-2.9c0.4-0.2,0.7-0.2,1.1,0c0.6,0.3,0.6,0.1,0.6,5.4
			c0,4.6,0.1,4.8,0.2,5.2c0.4,0.9,1.3,1.5,2.3,1.5c1,0,1.9-0.5,2.3-1.5c0.2-0.5,0.2-0.5,0.2-2.9c0-2.3,0-2.4-0.2-2.6
			c-0.2-0.2-0.7-0.2-0.9,0c-0.2,0.2-0.2,0.2-0.3,2.5l0,2.4L30.6,15c-0.3,0.3-0.4,0.3-0.7,0.3c-0.5,0-1-0.3-1.1-0.8
			c-0.1-0.2-0.1-2.1-0.1-4.9c0-3.2,0-4.6-0.1-4.8c-0.5-1.3-1.9-2-3.3-1.6c-0.4,0.1-0.6,0.3-1,0.7c-0.7,0.7-0.8,1-0.8,3.5
			c0,1.8,0,2.1-0.2,2.3c-0.2,0.4-0.5,0.5-0.9,0.5c-0.4,0-0.7-0.2-0.9-0.5c-0.2-0.2-0.2-0.6-0.2-2.5c-0.1-2.6-0.1-2.6-0.7-3.3
			c-0.6-0.6-0.9-0.8-2.2-0.8C17.6,3,17,3,16.9,2.9c-0.4-0.2-0.6-0.6-0.6-1.1V1.4H18c1.5,0,1.7,0,1.8-0.2C20,1,20,0.5,19.8,0.2
			L19.6,0l-3.8,0C13.7,0,11.8,0,11.5,0.1z M13.1,12.8l0.2,0.2v3.3v3.3H9.9H6.5v-3.3c0-3.2,0-3.3,0.2-3.5l0.2-0.2h3
			C12.7,12.6,12.8,12.6,13.1,12.8z"/>
	</g>
</g>
</svg>
