<svg xmlns="http://www.w3.org/2000/svg" viewBox="0 0 48.1 31.4" style="enable-background:new 0 0 48.1 31.4" xml:space="preserve"><path d="M11.5.1c-.6.1-1.1.4-1.6.9-.8.8-.8 1.1-.8 6.1v4H7.9c-1.1 0-1.2 0-1.7.3-.3.2-.6.4-.8.7l-.3.4v7H3.2c-1.6 0-1.9 0-2.2.2-.4.2-.9.7-.9 1.1-.1.3.3 3.6.5 4.9.2 1.1.9 2 1.8 2.4l.5.2v.8c0 .7.1.8.3 1.2.4.5.8.8 1.4.9.7.1 38.2.1 38.9 0 .6-.1 1-.4 1.4-.9.2-.3.3-.5.3-1.2v-.8l.4-.2c.8-.3 1.6-1.3 1.8-2.1.2-.7.6-4.9.6-5.2-.1-.5-.5-1-.9-1.2-.3-.1-.7-.2-2.2-.2H43v-8.6c0-9.7 0-9.1-.7-9.9-.2-.3-.6-.6-1-.7l-.5-.2H22.3l-.2.3c-.3.3-.3.5 0 .9l.2.2h13.6v.4c0 .5-.2.8-.6 1.1-.3.1-.4.2-1.3.2-1.1 0-1.6.2-2.2.6-.2.2-.5.6-.6.9-.2.4-.2.6-.3 1.5v1l.3.3c.3.3.6.4.9.1.2-.2.2-.2.3-1.2.1-1.6.3-1.8 1.8-1.8 1.1 0 1.7-.2 2.3-.7.6-.5.8-1 .9-1.8l.1-.6h1.6c1.8 0 2 .1 2.5.7l.2.3v17.1H40c-1.5 0-1.7 0-1.9.2-.3.2-.3.8 0 1.1.2.2.5.2 4.3.2 3.3 0 4.1 0 4.2.1.1.2-.5 4.6-.6 4.9-.1.3-.5.7-.8.9-.1.1-4.2.1-16.1.1H13.2l-.2.3c-.2.3-.2.7 0 .9.2.2.3.2 15.5.2h15.3v.5c0 .6-.1.8-.5.9-.4.2-38.1.2-38.5 0-.4-.1-.5-.3-.5-.9v-.5h6.2l.2-.2c.3-.3.2-.5 0-.9l-.2-.3H6.7c-2.5 0-3.7 0-3.9-.1-.3-.2-.7-.6-.8-.9-.1-.3-.7-4.8-.6-4.9 0-.1 3-.1 17.1-.1h17l.3-.2c.3-.3.3-.8 0-1-.3-.2-.3-.2-10.6-.2H14.7v-6.8l-.3-.5c-.2-.4-.4-.6-.7-.8-.4-.3-.5-.3-1.9-.3h-1.4V7.1c0-2.2 0-4.2.1-4.4.1-.5.3-.8.8-1 .3-.2.5-.2 1.9-.2h1.6l.1.5c.1.7.3 1.3.9 1.8.5.5 1.2.7 2.3.7.7 0 .9 0 1.2.2.5.3.5.4.6 2.9 0 2.2 0 2.3.3 2.7.3.6.7.9 1.3 1.2 1.2.5 2.5 0 3.2-1.1.3-.4.3-.4.3-2.7 0-2.5.1-2.6.6-2.9.4-.2.7-.2 1.1 0 .6.3.6.1.6 5.4 0 4.6.1 4.8.2 5.2.4.9 1.3 1.5 2.3 1.5 1 0 1.9-.5 2.3-1.5.2-.5.2-.5.2-2.9 0-2.3 0-2.4-.2-2.6-.2-.2-.7-.2-.9 0-.2.2-.2.2-.3 2.5v2.4l-.3.2c-.3.3-.4.3-.7.3-.5 0-1-.3-1.1-.8-.1-.2-.1-2.1-.1-4.9 0-3.2 0-4.6-.1-4.8-.5-1.3-1.9-2-3.3-1.6-.4.1-.6.3-1 .7-.7.7-.8 1-.8 3.5 0 1.8 0 2.1-.2 2.3-.2.4-.5.5-.9.5s-.7-.2-.9-.5c-.2-.2-.2-.6-.2-2.5-.1-2.6-.1-2.6-.7-3.3-.6-.6-.9-.8-2.2-.8-.8-.1-1.4-.1-1.5-.2-.4-.2-.6-.6-.6-1.1v-.4H18c1.5 0 1.7 0 1.8-.2.2-.2.2-.7 0-1l-.2-.2h-3.8c-2.1 0-4 0-4.3.1zm1.6 12.7.2.2v6.6H6.5v-3.3c0-3.2 0-3.3.2-3.5l.2-.2h3c2.8 0 2.9 0 3.2.2z" style="fill:#5f4a33"/></svg>