<svg version="1.1" id="Capa_1" xmlns="http://www.w3.org/2000/svg" x="0" y="0" viewBox="0 0 146 135.5" style="enable-background:new 0 0 146 135.5" xml:space="preserve"><style>.st1{fill:#dea647}.st2{fill:#dea648}.st3{fill:#dea84a}.st4{fill:#843725}.st5{fill:#f7d3ad}.st6{fill:#a84430}.st7{fill:#a84530}.st8{fill:#843826}.st9{fill:#c97348}.st10{fill:#dfb875}.st11{fill:#5a2619}</style><path d="M139.9 40.9c1.1 1.4 2.2 2.8 3 4.4 2.7 5.2 3.5 10.6 2.6 16.4 0 .3-.1.6-.1.8-.1.1-.1.3-.1.4-.5 2.2-1.2 4.3-2.3 6.2-.8 1.4-1 2.9-.5 4.5.7 2.1 1.5 4.2 2.3 6.3.4 1.3.9 2.6 1.1 3.9.5 3.2-.3 6-2.2 8.6-1.1 1.6-2.5 2.9-3.9 4.3l-.5.5c-.1 0-.1.1-.1.2-.2 0-.3.2-.4.3-2.2 2.2-4.2 4.5-6.2 6.9-.9 1.2-1.7 2.4-2.7 3.5-1.7 1.9-3.6 3.4-5.5 5.1-1.9 1.6-3.7 3.4-5.1 5.4-1 1.5-1.5 3.2-2.3 4.8-.1 0-.1.1-.1.2-1.8 3.3-4.3 5.9-7.7 7.7-2.6 1.4-5.4 2.1-8.3 2.4-2.2.3-4.4.3-6.5.2-.2-.1-.4-.1-.6-.1-1.2 0-2.4-.1-3.5-.3-3.6-.5-7.3-1-10.9-1.2-3.6-.2-7.2-.2-10.7 0-2.4.1-4.7.1-7.1-.2-5.7-.7-10.3-3.4-14.1-7.7-2.6-2.9-4.6-6.1-6.4-9.5-1.6-3.1-3.1-6.3-4.7-9.5-1.8-3.7-4-7.2-5.9-10.8-1.5-2.8-3-5.7-4-8.7-.3-1-.5-1.9-.5-2.9 0-.6.2-1 .8-1.3.9-.5 1.6-1.2 2.2-2 1.4-1.8 1.9-4 1.9-6.2.1-2.4-.4-4.7-1-7-.3-1.2-.6-2.4-1.7-3.3 1 0 1.9-.1 2.8-.3 3.6-.8 6.8-2.3 9.2-5.1 1.1-1.3 1.9-2.7 2.2-4.4.4-2.6.2-5.2-.5-7.8-.4-1.8-1-3.6-2.1-5.2-.4-.5-.4-.5.2-.8 1.7-.8 3.4-1.7 4.7-3.1 3.2-3.3 3.9-7.1 2.7-11.4-.4-1.3-1.1-2.4-1.6-3.7-.4-.9-.6-1.8-.4-2.7.2-1.3 1.1-2 2.2-2.6 1-.6 2.1-.9 3.2-1.3 6.2-2.3 12.6-4.2 19.1-5.6C76 7.9 81.8 7 87.7 6.5c1.6-.1 3.1.1 4.5 1.1 1 .7 1.9 1.6 2.8 2.4 1.2 1.1 2.6 1.7 4.2 1.6 1.1-.1 2.1-.4 3.1-.7 2.3-.9 4.5-2.1 7-2.7 1.8-.4 3.7-.7 5.6-.6 3.9.2 7.4 1.4 10.2 4.3 1.3 1.4 2.2 3 2.8 4.8.9 3.1 1.9 6.1 2.9 9.1.1.2.1.4.2.5l1.5 4.8c.5 1.6 1.3 3 2.2 4.3 1 1.3 2.1 2.5 3.3 3.7.6.6 1.1 1.3 1.7 1.8h.2zm-16.3 64.8.1-.1h.2c2.2-.8 4.3-2 6-3.6 3.4-3.2 5.7-6.9 6.3-11.6.1 0 .1-.1.1-.2v-.6c.2 0 .2-.2.2-.3.7-1.7 1.2-3.4 1.5-5.2 0-.2.2-.4 0-.6.7-1.4.8-2.9.3-4.5.2-.1.1-.3.1-.4-.1-.8-.1-1.6-.2-2.3-.1-.7-.1-1.3-.4-2 0-.2.1-.3.2-.5.9-1.9 2.2-3.6 3.1-5.6 1.2-2.7 1.1-5.4-.2-8-1-1.9-2.3-3.5-3.8-5-1.2-1.2-2.5-2.5-3.6-3.7-.1-.1-.2-.2-.3-.4v-.2c-.4-1.1-1-2.2-1.7-3.2-.4-.5-.7-1.1-1.3-1.4v-.1l-.1-.1c-.4-.9-.5-1.8-.6-2.8-.1-1.8.6-3.6.9-5.3.3-1.2.5-2.4.3-3.6-.3-2.2-2.2-3.8-4.4-3.8-.8 0-1.6.1-2.4.2 0-.9-.1-1.7-.3-2.5-.2-1-.5-2-.8-3-.5-1.5-1.1-2.9-2-4.1-1-1.3-2.2-2.4-3.7-3-1.6-.6-3.2-.7-4.8-.5-.8.1-1.6.3-2.4.4 0-.4-.1-.7-.1-1.1-.1-.9-.3-1.9-.6-2.7-.1-.4-.4-.4-.7-.2-1 .8-1.8 1.6-2.3 2.8-.3.6-.6 1.3-1 1.9-.1.2-.2.4-.4.5-.7.2-1.4.2-2.1.2-.2 0-.4.2-.6 0 .9-1.3.8-2.7-.3-3.8-.5-.5-1.2-.9-1.9-1.2-3.1-1.4-6.4-1.5-9.7-1.4l-5.4.3c-.5-.4-1.2-.5-1.8-.7-2-.6-4.1-1-6.3-1.1h-3c-.7 0-1.4.1-2.2.2-2.1.4-4.2.9-6.2 1.8-2.1.9-4 2.1-5.5 3.8-.6.7-1.1 1.4-1.3 2.3-.2.1-.3.2-.5.2-1.3.5-2.7 1.1-4 1.7-.5.1-.9.4-1.3.6-.2.1-.5.1-.7.4 0 0-.1 0-.1.1 0 0 .1 0 .1-.1.2 0 .5-.1.7-.2.5-.2.9-.3 1.4-.5.2-.1.4-.1.5-.2 1.2-.4 2.5-.9 3.7-1.3v.5c-.8.2-1.5.4-2.3.7-1.7.5-3.4 1.1-4.9 2.2-.7.5-1.1 1.1-1 1.9.1.5.3.9.5 1.3.6 1.3 1 2.7 1.2 4.2.1.3-.1.7.3 1-.2.2-.4.5-.6.7-.7.9-.9 1.9-.8 3 .1.5.3.9.4 1.4-.1 0-.2.1-.2.2-.7 1.4-1.7 2.6-2.9 3.7-1.4 1.3-3.1 2.1-4.9 2.8-.4.1-.4.2-.2.5.9 1.3 1.7 2.7 2.3 4.1.5 1.3.9 2.6 1.1 4 .2 1.1.2 2.3 0 3.4-.2 1.4-.7 2.8-1.4 4.1-1 1.6-2.3 2.9-3.9 3.9-.9.6-1.9 1.1-3 1.5-1.1.4-2.2.8-3.3 1-.3.1-.4.2-.4.4-.2.8-.3 1.6-.5 2.3-.2.6-.2 1.1 0 1.6.2.4.3.8.4 1.2.4 1.7.6 3.5.5 5.2-.1 1.1-.3 2.2-.7 3.3-.3.7-.5 1.3-.2 2.1.5 1.4 1.1 2.6 1.8 3.9-.3 3.7.5 7.1 2.3 10.2v.3c.3 1.2.4 2.5.7 3.7.4 1.5.9 2.9 1.8 4.3.1.1.1.3.3.4 0 .2 0 .4-.1.5v.1c.1.4.2.7.4 1.1.7 1.1 1.4 2.2 2.2 3.2.3.4.5.9 1 1.1.1.2.2.4.2.7 1 3.5 3.2 5.8 6.7 6.8 1.7.5 3.4.4 5.1.1.2.6.7.8 1.2 1.2.6.5 1.3 1 1.9 1.4 0 .2-.1.3-.2.5-.8 1.7-.4 2.9 1.2 3.5 1.2.5 2.6.7 3.9.8 1.7.1 3.4 0 5.1-.2 2.2-.2 4.3-.6 6.5-.8 2.4-.2 4.7-.3 7.1-.4 1-.1 1.9-.1 2.9-.2 1.5-.3 3-.4 4.5-.6l3.3-.6c.1.6.1 1.2.2 1.7.1-.2.1-.4.2-.7.1-.4 0-.8.2-1.1 1.4-.2 2.9-.6 4.3-.9 3.1-.8 6.1-1.8 9-3.1.6-.3 1.2-.5 1.7-1 .1 0 .2 0 .3.1 1.3.3 2.6.3 3.9-.2 2.4-.8 3.9-2.6 5-4.9.5-1.1.8-2.2 1.1-3.3.3-.1.5-.4.7-.6.6-.7 1.1-1.4 1.7-2 .5-.6 1.1-1.2 1.7-1.9-.1 0-.1 0 0 0z" style="fill:#592519"/><path class="st1" d="M109.3 8.1c-2.4.6-4.6 1.8-7 2.7-1 .4-2 .7-3.1.7-1.6.1-3-.5-4.2-1.6-.9-.8-1.8-1.7-2.8-2.4-1.4-1-2.9-1.3-4.5-1.1C81.8 7 76 7.9 70.2 9.2c-6.5 1.4-12.9 3.3-19.1 5.6-1.1.4-2.2.8-3.2 1.3-1.1.6-2 1.4-2.2 2.6-.2 1 .1 1.9.4 2.7.5 1.2 1.2 2.4 1.6 3.7 1.2 4.3.5 8.2-2.7 11.4-1.3 1.4-3 2.2-4.7 3.1-.6.3-.6.3-.2.8 1.1 1.6 1.7 3.3 2.1 5.2.6 2.6.9 5.2.5 7.8-.3 1.7-1.1 3.1-2.2 4.4-2.5 2.8-5.7 4.3-9.2 5.1-.9.2-1.8.3-2.8.3 1.1.9 1.4 2.1 1.7 3.3.6 2.3 1 4.6 1 7-.1 2.2-.5 4.4-1.9 6.2-.6.8-1.4 1.5-2.2 2-.8.3-1 .8-1.1 1.3 0 1 .2 1.9.4 2.7 1 3.1 2.5 5.9 4 8.7 1.9 3.6 4.2 7.1 5.9 10.8 1.5 3.2 3 6.4 4.7 9.5 1.8 3.4 3.8 6.7 6.4 9.5 3.8 4.3 8.4 7 14.1 7.7 2.4.3 4.7.3 7.1.2 3.6-.1 7.1-.2 10.7 0 3.7.2 7.3.7 10.9 1.2 1.2.2 2.4.3 3.5.3.2 0 .4 0 .6.1-1.5-.1-2.9.4-4.3.7-1.8.3-3.6.5-5.4.7-1.9.2-3.9.3-5.8.3-3.1 0-6.2-.2-9.3-.6-2.5-.3-5-.8-7.5-1.4-3.1-.8-6.1-1.7-9-2.9-5.3-2.1-10.3-4.9-15-8.2-4.9-3.6-9.3-7.7-13.1-12.4-3.4-4.2-6.2-8.7-8.6-13.6-1.5-3.1-2.7-6.3-3.7-9.6-.5-1.5-.8-3-1.2-4.5-.1-.4.1-.5.4-.5 1.7-.1 3.4-.2 5.1-.4 2.2-.2 4.5-.6 6.5-1.7 2-1 3.2-2.7 3.9-4.8.9-2.7.6-5.5-.1-8.2-.5-1.9-1.3-3.7-2.4-5.4-.3-.4-.3-.5.3-.5 3.4-.3 6.7-1.1 9.6-3 2.1-1.4 3.6-3.2 4.4-5.6.6-1.7.6-3.5.4-5.2-.5-3.3-1.9-6.2-3.8-8.9-.1-.1-.1-.2-.2-.3-.1-.2-.1-.3.2-.4 1.3-.3 2.5-.8 3.6-1.5 2.8-1.7 4.7-4.1 5.4-7.4.3-1.3.2-2.7 0-4-.6-3.5-2.4-6.5-4.4-9.3-.6-.9-1.2-1.7-1.9-2.5-.2-.2-.1-.4.1-.5 3.9-2.7 8-4.9 12.3-6.8C53.7 4 56.9 3 60.1 2.1c2.6-.7 5.2-1.2 7.8-1.5C71.3.1 74.7 0 78.1 0c2.7 0 5.3.2 7.9.6 1.9.3 3.9.6 5.8 1 2 .4 4 1 6 1.6 3.3 1 6.5 2.3 9.6 3.9.6.3 1.3.7 1.9 1zM34.2 111.9c.1-1.2-.1-2.3-.3-3.4-.1-1.1-.4-2.2-.8-3.2l-.6-1.2c-.5-1.4-1.3-2.6-2.1-3.8-.8-1.2-1.8-2.2-2.8-3.3-1.1-1.1-2.5-2.1-3.6-3.3-.8-1-1.2-2-1.3-3.2-.1-1.2-.8-2.7-2.6-2.6-1.1.1-2 .6-2.5 1.5-.8 1.5-.5 3.1.3 4.5.7 1.3 1.7 2.3 2.8 3.3 1.3 1.1 2.4 2.4 3.5 3.8 1 1.3 1.9 2.7 2.7 4.1.7 1.4 1.4 2.9 1.9 4.4.3 1.1.7 2.3 1.2 3.3s1.2 1.8 2.2 2.3c.5.3 1.3-.1 1.4-.6.5-.8.8-1.7.6-2.6zM70.5 3.6c-1.1 0-1.8.1-2.5.1-2.1 0-4.1.1-6.1.6-1 .2-2 .4-3 .7-1.1.3-2.3.5-3.5.9-1.7.5-3.4.8-5.1 1.4-1.1.4-2 .9-2.5 2-.4.8-.6 1.7-.1 2.5.4.8 1.8 1.3 2.7 1.2 1.4-.3 2.7-.7 4-1.4 1.7-.8 3.3-1.7 4.9-2.7 1.4-.8 2.8-1.5 4.4-1.9 1.1-.3 2.3-.6 3.4-.5.9 0 1.8 0 2.7.1 1.4.1 2.8-.1 4.1-.7.5-.2 1-.4 1.4-.8.3-.3.2-.6-.1-.8-.2-.1-.3-.2-.5-.2-1.5-.5-3-.4-4.2-.5z"/><path class="st2" d="M117 123.4c.8-1.6 1.2-3.3 2.3-4.8 1.4-2.1 3.2-3.8 5.1-5.4 1.9-1.6 3.8-3.2 5.5-5.1 1-1.1 1.8-2.4 2.7-3.5 1.9-2.4 3.9-4.8 6.2-6.9.1-.1.2-.2.4-.3-.1.6-.4 1.1-.7 1.6-2.4 4.8-5.4 9.2-8.9 13.3-3.6 4.2-7.7 7.8-12.2 11-.1 0-.2.2-.4.1zM144.8 79.9c-.8-2.1-1.7-4.1-2.3-6.3-.5-1.6-.3-3 .5-4.5 1.1-1.9 1.8-4 2.3-6.2 0-.1 0-.3.1-.4.2.1.1.3.1.4.2 2.5.3 4.9.2 7.4-.1 2.6-.3 5.2-.7 7.7 0 .7-.1 1.3-.2 1.9zM25.1 32c-1.5 0-2.7-1.2-2.8-2.7 0-1.5 1.2-2.7 2.8-2.7 1.5 0 2.7 1.2 2.7 2.8 0 1.4-1.3 2.7-2.7 2.6zM139.8 40.8c-.6-.5-1.1-1.2-1.7-1.8-1.1-1.2-2.3-2.4-3.3-3.7-1-1.3-1.7-2.7-2.2-4.3l-1.5-4.8c.5.4.8.9 1.2 1.4 2.9 3.9 5.4 8 7.4 12.4-.1.3.1.5.1.8z"/><path class="st3" d="M12.4 61.5c-1.4 0-2.7-1.2-2.6-2.7.1-1.4 1-2.5 2.6-2.5 1.5 0 2.7 1.2 2.7 2.6-.1 1.4-1.3 2.6-2.7 2.6zM0 66.5c-.1-.9.7-1.9 1.9-1.9 1.1 0 1.9.8 1.9 2 0 1.1-.9 1.9-1.9 1.9-1.1 0-1.9-.9-1.9-2zM20.7 48.4c1 0 1.8.8 1.8 1.8s-.8 1.7-1.8 1.8c-.9 0-1.8-.8-1.8-1.8 0-1.1.8-1.8 1.8-1.8zM34.4 25.4c0-1 .8-1.7 1.8-1.7.9 0 1.8.7 1.8 1.8 0 1-.8 1.8-1.8 1.8-1-.1-1.8-.9-1.8-1.9zM33.1 45c0 .8-.7 1.5-1.5 1.5s-1.5-.7-1.5-1.6c0-.8.7-1.5 1.5-1.5.9 0 1.5.7 1.5 1.6zM21 67c.8 0 1.6.7 1.5 1.5 0 .8-.7 1.5-1.5 1.5s-1.5-.7-1.5-1.6c0-.8.7-1.4 1.5-1.4zM11.5 69.8c.9 0 1.5.7 1.5 1.5s-.7 1.5-1.5 1.5-1.5-.7-1.5-1.6c0-.8.7-1.4 1.5-1.4zM13 43.7c0 .8-.6 1.4-1.4 1.4-.7 0-1.4-.7-1.4-1.4 0-.8.6-1.4 1.4-1.4.8 0 1.4.6 1.4 1.4zM29.4 14.9c0 .7-.6 1.2-1.2 1.2-.7 0-1.2-.6-1.2-1.3 0-.7.5-1.2 1.2-1.2.6.1 1.2.6 1.2 1.3zM21.3 37.1c0 .5-.5 1-1 1s-1-.5-.9-1c0-.5.5-.9 1-.9.4-.1.9.4.9.9z"/><path class="st2" d="M139.9 40.9c-.1 0-.1-.1-.1-.2.1.1.1.2.1.2zM139.2 97.4c0-.1 0-.1.1-.2 0 .1 0 .2-.1.2zM116.9 123.6c0-.1 0-.1.1-.2 0 .1 0 .2-.1.2z"/><path class="st4" d="M109.9 17.9c.8-.1 1.6-.3 2.4-.4 1.6-.2 3.2-.1 4.8.5 1.6.6 2.8 1.7 3.7 3 .9 1.2 1.6 2.6 2 4.1.3 1 .6 2 .8 3 .1.8.3 1.7.3 2.5-.1.1-.1.1-.3.2-.8.3-1.5.7-2.1 1.3-1.3 1.4-1.9 3.1-2 5.1-.1 1.1.1 2.2.3 3.2-.1.1-.2.1-.4.2-2.1 1.1-3.7 2.7-4.7 4.9-1 2.3-1.2 4.6.1 6.9.8 1.4 2 2.3 3.4 3 0 .4-.2.8-.2 1.2-.1 1.6.4 3 1.1 4.4.6 1.3 1.3 2.5 1.8 3.7.3.8.4 1.6.7 2.4-.1.1-.1.3-.2.4-.6 1.2-.7 2.4-.3 3.6.7 2.2 2.2 3.7 4.2 4.7 1.1.5 2.3.7 3.5 1-.1.4-.2.9-.3 1.3-.4 1.7-.8 3.4-1.3 5.1-.5 1.9-1 3.7-1.8 5.5-.1.2-.1.3 0 .4-.3.2-.5.4-.8.6-2.1 1.4-4.3 2.8-6.4 4.2-.5.3-.9.6-1.3 1h-.1.1v-.1c.2.1.3-.1.5-.1 1.8-.8 3.6-1.7 5.4-2.5.1.1 0 .2-.1.2-.3.2-.6.5-.9.7-1.6 1.2-3.4 2-4.9 3.3-.9.8-1.8 1.7-2.3 2.8-.5 1-.7 2.1-.4 3.1.6 2 2.1 3.1 4 3.6-.7 1.3-1.1 2.6-1.5 4-.5 1.4-1.1 2.7-2.1 3.7-.2 0-.3 0-.4.1-.8.5-1.6.8-2.5 1.1.1-.9-.2-1.5-1-1.9-.7-.3-1.5-.6-2.3-.4-.2-.8-.2-1.6-.3-2.4-.1-1.7-.5-3.4-1.4-4.9-1.8-2.8-5-3.2-7.5-1-1.2 1.1-1.9 2.5-2.6 3.9-.8 1.6-1.4 3.3-1.9 4.9h-.4c-2.1-.4-4.1-.7-6.2-1.2-.6-.1-1.1-.2-1.7-.3V111.2c.3-1.4.5-2.7.7-4.1v-.1c0-.2 0-.3.1-.5.1-.4.1-.7.1-1.1-.1.4-.2.8-.2 1.1 0 .2-.1.4-.1.5-.3 1.4-.7 2.8-1.2 4.2h-.5c-1.2-.2-2.5-.3-3.8-.3-.9 0-1.9 0-2.8.1-2.1.1-4.2.5-6.2 1 0-.1 0-.2.1-.4.3-.9.7-1.9 1-2.8.8-2.6 1.1-5.1-.5-7.5 2 0 4 .2 6 .5 1.7.2 3.4.6 5.1 1 .6.2 1.3.3 1.9.4 2.2.2 4.4-.1 6.4-1 1.8-.8 3.6-1.8 5.2-3 1.8-1.3 3.6-2.7 5.4-4 1.4-1 2.8-2 4.1-3.1 1.6-1.3 3-2.7 4.3-4.3 1.6-2 2.9-4.1 3.9-6.4 1.2-2.8 1.7-5.8 1.8-8.8 0-.6 0-1.2-.1-1.7-.1-.9-.2-1.9-.3-2.8-.3-1.5-.8-3-1.3-4.5-1-3.1-2.7-5.7-4.7-8.1-1.6-2-3.4-3.8-4.6-6.1-.8-1.6-2.1-2.9-3.3-4.2-1.4-1.5-3-2.7-4.7-3.7-1-.6-2.1-1-3.3-1.2-1.4-.3-2.8-.2-4.2-.6-.5-.1-1-.1-1.4-.3.1 0 .2-.1.3-.1 1.7-.2 3.4-.5 5.1-.7 4.5-.6 9.1-1 13.6-1.3 2.8-.2 5.5-.9 8-2.4.8-.5 1.6-1.1 2.1-1.9.8-1.3 1.2-2.7.3-4.1-.7-1.2-1.8-1.7-3.1-1.9-2-.3-4-.4-6-.5-1.7-.1-3.3-.1-5-.1 0-.1.1-.1.2-.1 1.3-.4 2.4-1.1 3.2-2.2.7-1.1 1.2-2.3 1.4-3.6.3-.7.5-1.6.5-2.6z"/><path class="st4" d="M35.6 86.3c-.6-1.3-1.3-2.5-1.8-3.9-.3-.8-.1-1.4.2-2.1.4-1 .6-2.1.7-3.3.2-1.8-.1-3.5-.5-5.2-.1-.4-.2-.8-.4-1.2-.2-.6-.2-1.1 0-1.6.2-.7.4-1.5.5-2.3.1-.2.1-.4.4-.4 1.1-.2 2.2-.6 3.3-1 1-.4 2-.9 3-1.5 1.6-1 2.9-2.3 3.9-3.9.8-1.3 1.2-2.6 1.4-4.1.2-1.1.1-2.2 0-3.4-.2-1.4-.6-2.7-1.1-4-.6-1.5-1.3-2.8-2.3-4.1-.2-.3-.2-.4.2-.5 1.8-.6 3.5-1.5 4.9-2.8 1.2-1.1 2.2-2.3 2.9-3.7 0-.1.1-.1.2-.2 1.3 2.3 3.4 3.1 5.9 3.2 1.5 0 2.9-.1 4.4-.4 3.5-.7 6.9-2 10.2-3.3 3.1-1.3 6.2-2.5 9.5-3.3 7-1.6 13.9-2.9 20.9-3.3 4.1-.3 8.2-.3 12.2.1.5 0 1.1.1 1.6.3.5.2.6.4.3.9-.3.6-.9 1-1.5 1.4-2 1.1-4.3 1.8-6.6 2-3.3.3-6.5.7-9.8 1.1-4.9.7-9.9 1.5-14.7 2.5-4.2.9-8.4 1.9-12.6 3.1-3 .9-6 1.9-9 2.7-2.4.6-4.9 1-7.3 1.7-2.3.6-4.3 1.6-5.9 3.3-.6.7-1.1 1.4-1.3 2.3-.2.8-.2 1.6.2 2.3v-.2c-.3-1.4 0-2.7 1-3.7 1.6-1.8 3.7-2.7 6-3.2 2.1-.5 4.3-.7 6.4-1.1 3.5-.7 6.8-1.7 10.2-2.6 1.3-.3 2.5-.7 3.8-.9 0 .2-.1.2-.3.3-1.8.7-3.6 1.5-5.3 2.5-1.8 1-3.6 2.2-5.2 3.5-1.6 1.2-3.1 2.4-4.5 3.8-1.3 1.2-2.5 2.5-3.7 3.8-1.4 1.5-2.2 3.2-2.7 5.1-.5 1.9-.7 3.9-.9 5.9-.2 1.9-.5 3.7-1.1 5.5-.4 1.2-.6 2.3-.5 3.6.2 1.6.8 2.9 1.7 4.2 1.4 2 3.1 3.8 4.8 5.7 1.1 1.2 1.5 2.6 1.7 4.1-.4-.4-.8-.7-1.2-1-1.8-1.2-3.9-1.7-6.1-1.8-1.6-.1-3.2 0-4.7 0-1.1 0-2.2-.2-3.3-.6-2.1-.8-3.1-2.5-2.8-4.7.3-1.8 1.2-3.2 2.2-4.6 1.2-1.5 2.5-3 3.4-4.7 1-1.7 1.5-3.5 1.3-5.5-.3-2.1-1.6-3.6-3.6-3.9-1.2-.2-2.3 0-3.1.9l-.1.1c-.1 0-.2.1-.2.2 0 0-.1.1 0 .1 0 0 .1 0 .1-.1.1 0 .2-.1.2-.2l.1-.1h.1c2.3-1.5 5.1-.2 5.5 2.4.3 1.7-.2 3.2-1 4.6-.7 1.2-1.7 2.3-2.6 3.3-1.3 1.5-2.7 2.9-3.5 4.7-1.2-.3-1.7-.1-2.2 1l-.6 1.5c-.5 1.6-1 3.1-1.3 4.7zm12.2-32.4zm.1.2s-.1 0 0 0c-.1 0 0 0 0 0z"/><path class="st5" d="M75.1 42.1c-1.3.2-2.6.6-3.8.9-3.4.9-6.8 1.9-10.2 2.6-2.1.4-4.3.6-6.4 1.1-2.3.5-4.3 1.5-6 3.2-1 1.1-1.4 2.3-1 3.7v.2c-.4-.8-.4-1.5-.2-2.3.2-.9.7-1.6 1.3-2.3 1.6-1.8 3.7-2.7 5.9-3.3 2.4-.7 4.9-1 7.3-1.7 3-.8 6-1.8 9-2.7 4.1-1.3 8.3-2.2 12.6-3.1 4.9-1 9.8-1.9 14.7-2.5 3.2-.4 6.5-.8 9.8-1.1 2.3-.2 4.5-.9 6.6-2 .6-.3 1.2-.7 1.5-1.4.2-.5.2-.7-.3-.9-.5-.2-1-.3-1.6-.3-4.1-.3-8.2-.3-12.2-.1-7 .5-13.9 1.7-20.7 3.3-3.3.8-6.4 2-9.5 3.3-3.3 1.3-6.7 2.6-10.2 3.3-1.4.3-2.9.5-4.4.4-2.5-.1-4.6-.9-5.9-3.2-.1-.5-.4-.9-.4-1.4-.1-1.1.1-2.1.8-3 .2-.2.4-.5.6-.7.6-.4 1.2-.9 1.8-1.2 1.3-.7 2.6-1.1 3.9-1.7 4.4-2 9-3.8 13.7-5.2 4.6-1.4 9.3-2.6 14-3.3.7-.1 1.5-.2 2.2-.2.5 0 1-.1 1.5-.1 1.8-.2 3.7-.3 5.5-.7 1-.1 2-.3 2.9-.6.7-.1 1.4-.4 2-.7.9-.5.9-.8.1-1.4-.7-.5-1.6-.8-2.4-1.1-2.8-.9-5.8-.9-8.7-.8h-1.1c-3.2.1-6.4.4-9.6.8-4.7.6-9.3 1.6-13.9 2.8-1.9.5-3.9 1.1-5.8 1.8-1.3.3-2.5.8-3.7 1.3-.2.1-.4.1-.5.2v-.2c1.3-.6 2.6-1.2 4-1.7.2-.1.3-.2.5-.2.1 0 .2-.1.3-.1 3.9-1.5 8-2.8 12.1-3.8 3.7-.9 7.4-1.7 11.2-2.1.9-.1 1.7-.2 2.6-.3 1.8-.1 3.6-.3 5.4-.3 3.3-.2 6.6 0 9.7 1.4.7.3 1.4.7 1.9 1.2 1.1 1.1 1.3 2.5.3 3.8-.3.3-.7.7-1.1.9-.7.4-1.4.7-2.2 1-1.2.4-2.4.7-3.6.9-.9.2-1.9.3-2.8.5-.2 0-.5.1-.7.1-2.7.3-5.3.5-8 1.1-9.8 2-19 5.6-27.9 9.9-.5.2-1 .5-1.4.9-.3.3-.4.7-.2 1.1.4.8 1.2 1.1 2 1.2 1.5.2 2.9.1 4.4-.2 3.2-.7 6.3-1.8 9.4-3 3.7-1.5 7.3-2.9 11.2-3.8 4.4-1 8.8-1.8 13.3-2.4 2.2-.3 4.3-.4 6.5-.7 1.3-.1 2.5-.1 3.8-.2 1.7 0 3.3 0 5 .1 2 .1 4 .2 6 .5 1.3.2 2.4.7 3.1 1.9.8 1.4.5 2.8-.3 4.1-.5.8-1.3 1.4-2.1 1.9-2.5 1.4-5.2 2.2-8 2.4-4.5.3-9.1.7-13.6 1.3-1.7.2-3.4.5-5.1.7-.1 0-.2 0-.3.1h-.6c-2.7.4-5.4.8-8 1.4-2.2-.1-4.1.2-6 .7z"/><path class="st6" d="M119.8 40.5c-.1-1.1-.4-2.1-.3-3.2.1-1.9.7-3.7 2-5.1.6-.6 1.3-1 2.1-1.3.1 0 .2-.1.3-.2.8-.1 1.6-.2 2.4-.2 2.2 0 4.1 1.6 4.4 3.8.2 1.3 0 2.4-.3 3.6-.4 1.8-1 3.5-.9 5.3 0 1 .1 1.9.6 2.8l.1.1v.1c0 .1 0 .2.1.4.4 1 .9 1.9 1.5 2.7.4.6.9 1.2 1.4 1.7 0 .2.2.3.3.4 1.2 1.3 2.4 2.5 3.6 3.7 1.5 1.5 2.8 3.1 3.8 5 1.3 2.6 1.5 5.3.2 8-.9 1.9-2.2 3.6-3.1 5.6-.1.2-.2.3-.2.5 0 .1-.1.1-.1.2l-.9 2.4c-1.4-1.2-2.9-2-4.7-2.4-.8-.2-1.7-.4-2.5-.6l.3-2.4c.2-1.2.2-2.5.3-3.7 0-.2.1-.5-.1-.7.4-.2.7-.3 1.1-.5 1.8-1.1 2.8-2.6 2.6-4.7-.1-2.4-1.3-4.3-3.4-5.6-.9-.6-1.8-.9-2.8-1.2-.4-1.1-1-2.1-1.6-3.1-1-1.5-1.9-3.1-3-4.6-.9-1.3-1.8-2.7-2.4-4.2-.2-.4-.2-.9-.5-1.2.1-.1.2-.2.3-.2 2-1.2 4.2-1.9 6.4-2.5.2-.1.5-.1.7-.2.2-.1.5-.1.7-.2-1.9-.1-5.7.3-8.4 1.7z"/><path class="st5" d="M39.7 79.3c.9-1.8 2.2-3.3 3.5-4.7 1-1.1 1.9-2.1 2.6-3.3.8-1.4 1.3-3 1-4.6-.4-2.7-3.2-3.9-5.5-2.4h-.1s-.1 0-.1-.1c.9-.9 2-1.1 3.1-.9 2 .3 3.3 1.8 3.6 3.9.2 2-.3 3.8-1.3 5.5-1 1.7-2.3 3.1-3.4 4.7-1.1 1.4-1.9 2.9-2.2 4.6-.4 2.2.7 4 2.8 4.7 1.1.4 2.2.5 3.3.6h4.7c2.2.1 4.3.6 6.1 1.8.4.3.8.7 1.2 1 1.1 1.5 1.6 3.1 1.3 4.9-.5 2-1.7 3.5-3.2 4.8-1.3 1-2.8 1.7-4.2 2.4-1.3.7-2.6 1.3-3.7 2.4-.8.9-1.3 1.9-1.5 3-.5 2.5-.1 4.8 1.8 6.6 1.8 1.7 4 2 6.4 1.4 2.4-.6 3.9-2.1 4.8-4.4.4-1 .7-2.1.9-3.2.7-2.7 1.7-5.2 4.1-6.9.1-.1.3-.2.4-.2.9-.6 2-1 3.1-1 1.6 0 3 .7 4 1.9 1.6 2.4 1.3 4.9.5 7.5-.3.9-.7 1.9-1 2.8 0 .1-.1.2-.1.4-.2.4-.3.8-.3 1.2-.5 2.5.5 4.5 2.9 5.4 1.7.7 3.5.6 5.1-.3 2.9-1.5 4.5-4 5.5-7 .5-1.4.9-2.8 1.2-4.2 0-.2.1-.4.1-.5h.1c0 .2 0 .3-.1.5v.1c-.1 1.4-.4 2.7-.7 4.1V112.1c0 .1-.1.2-.1.3-.7 2.6-2 5-4.1 6.8-2.1 1.8-4.5 2.6-7.2 1.9-2.7-.7-4.6-2.4-5.1-5.3-.1-.7 0-1.4 0-2.1.3-1.8.9-3.4 1.4-5.2.3-1 .4-2 .3-3-.2-2.3-2-3.2-4-1.9-1.2.8-1.9 1.8-2.4 3.1-.6 1.6-.9 3.3-1.3 4.9-.7 2.4-1.9 4.6-4 6-1.1.8-2.4 1.3-3.7 1.6-1.7.3-3.4.4-5.1-.1-3.5-1-5.7-3.3-6.7-6.8-.1-.2-.1-.5-.2-.7 0-.7-.1-1.3-.2-2 0-1.2.2-2.5.6-3.7 1.1-3.1 3.4-5 6.2-6.3 1-.5 2-1 3.1-1.5 1.1-.6 2.1-1.4 2.8-2.5 1.1-1.6.7-3.3-1-4.3-.9-.6-2-.9-3-1.1-1.6-.3-3.2-.2-4.8-.3-2.1-.1-4.3-.4-6.2-1.5-2-1.3-3.1-3.1-3-5.5.1-1.4.5-2.5 1-3.6z"/><path class="st6" d="M70 113.3c0 .7-.1 1.4 0 2.1.5 2.9 2.4 4.5 5.1 5.3 2.7.7 5.1-.1 7.2-1.9 2.1-1.8 3.3-4.1 4.1-6.8 0-.1.1-.2.1-.3.6.1 1.2.1 1.7.3 2 .4 4.1.8 6.2 1.2h.4c0 .1 0 .2-.1.3-.6 2.1-1 4.2-1.1 6.3-.1 1.2 0 2.4-.1 3.6l-3.3.6c-1.5.2-3 .3-4.5.6-1 .2-1.9.2-2.9.2-2.4.2-4.7.2-7.1.4-2.2.2-4.3.6-6.5.8-1.7.2-3.4.3-5.1.2-1.3-.1-2.6-.3-3.9-.8-1.6-.6-2-1.9-1.2-3.5.1-.2.2-.3.2-.5.2 0 .2-.3.3-.4.8-1.1 1.8-2.1 2.8-3 .6-.5 1.2-1.1 1.9-1.5 1.1-.8 2.1-1.6 3.3-2.2.9-.4 1.7-.8 2.5-1z"/><path class="st5" d="M129.5 73.8c.8.2 1.7.4 2.5.6 1.8.4 3.3 1.2 4.7 2.4.6.7 1.1 1.4 1.5 2.2.6 1.5.5 3-.3 4.5-.5.7-1.1 1.3-1.7 1.9-.4.3-.9.6-1.3.9-2.1 1.2-4.3 2.3-6.5 3.4-1.8.9-3.7 1.8-5.6 2.8-1.8.8-3.6 1.7-5.4 2.5-.2.1-.3.2-.5.1.4-.4.9-.7 1.3-1 2.1-1.4 4.3-2.8 6.4-4.2.3-.2.5-.4.8-.6.1 0 .2-.1.3-.1 2.2-1.4 4.5-2.8 6.7-4.2.9-.6 1.8-1.1 2.6-1.9 1.1-1.2 1.1-2.4.1-3.6-.7-.8-1.5-1.3-2.5-1.7-1.2-.4-2.5-.6-3.8-.8-1.2-.3-2.4-.5-3.5-1-2.1-.9-3.6-2.5-4.2-4.7-.4-1.2-.3-2.5.3-3.6.1-.1.1-.3.2-.4.6-.8 1.3-1.4 2.2-1.9.7-.4 1.5-.6 2.3-.8.9-.2 1.8-.4 2.6-.6.5-.2.9-.3 1.3-.7.1 0 .1-.1.1-.2 0 0 .1 0 .1-.1.3-.3.4-.6.4-1 0-1-.4-1.9-1.1-2.6-.1-.3-.4-.4-.6-.6-1.2-.8-2.6-1.3-4.1-1.5-.1-.1-.2-.1-.3-.1-2.1-.4-4.2-.7-6.2-1.7-1.4-.7-2.6-1.6-3.4-3-1.3-2.3-1.1-4.6-.1-6.9 1-2.2 2.6-3.8 4.7-4.9.1-.1.2-.1.4-.2 2.7-1.3 6.5-1.8 8.5-1.9-.2.2-.5.2-.7.2-.2.1-.5.1-.7.2-2.2.6-4.4 1.3-6.4 2.5-.1.1-.2.1-.3.2-2.4 1.5-3.8 3.6-4 6.5-.2 2.5 1.9 4.9 4.3 5.1.7.3 1.4.4 2.1.5.3.1.5.1.8.2 1.4.2 2.9.4 4.3.8.9.3 1.9.7 2.8 1.2 2 1.3 3.2 3.2 3.4 5.6.1 2.1-.9 3.7-2.6 4.7-.3.2-.7.4-1.1.5-1 .3-2 .6-3 .8-.6.2-1.3.3-1.8.6-.9.5-1.2 1.3-.8 2.2.3 1 1 1.7 1.9 2.1.8.8 1.8 1.1 2.9 1.3z"/><path class="st6" d="M122.9 92.3c1.9-.9 3.7-1.8 5.6-2.8 2.2-1.1 4.4-2.2 6.5-3.4.5-.3.9-.6 1.3-.9V90c0 .1-.1.1-.1.2-.6 4.7-2.8 8.5-6.3 11.6-1.8 1.6-3.8 2.8-6 3.6h-.2l-.1.1-.1.1c-.6 0-1.2.3-1.8.3-.3 0-.6.2-.8-.1.1-.2.3-.3.4-.5.6-.5 1.3-.6 2.1-.7 1-.1 2.1-.2 3-.7.7-.3 1.4-.7 1.6-1.6.1 0 .1-.1 0-.1s-.1.1-.1.1c-1 1-2.2 1.2-3.5 1.1-.8-.1-1.6-.1-2.5 0-1 .1-1.9.5-2.7 1.3-.4.4-.6.8-.9 1.2-2-.5-3.5-1.6-4-3.6-.3-1.1-.1-2.1.4-3.1.5-1.1 1.4-2 2.3-2.8 1.5-1.3 3.3-2.1 4.9-3.3.3-.2.6-.5.9-.7.1.1.2.1.1-.1z"/><path class="st4" d="M41.8 88.2c1.9 1.1 4 1.4 6.2 1.5 1.6.1 3.2 0 4.8.3 1.1.2 2.1.5 3 1.1 1.7 1 2.1 2.7 1 4.3-.7 1.1-1.7 1.9-2.8 2.5-1 .5-2 1-3.1 1.5-2.9 1.3-5.1 3.2-6.2 6.3-.5-.4-1-.9-1.6-1.1-.9-.4-2-.2-2.4.7-.2 0-.3-.2-.3-.4-.8-1.3-1.4-2.7-1.8-4.3-.3-1.2-.4-2.5-.7-3.7v-.3c.4.3.7.7 1.2.7 1.4.1 2.6-.6 3.2-1.8.7-1.5.7-3 .3-4.5-.2-.9-.6-1.8-.8-2.8z"/><path class="st5" d="m118.4 106 .9-1.2c.7-.8 1.7-1.2 2.7-1.3.8-.1 1.6 0 2.5 0 1.3.1 2.5-.1 3.5-1.1-.2.9-.9 1.3-1.6 1.6-1 .5-2 .5-3 .7-.7.1-1.5.2-2.1.7-.2.1-.4.2-.4.5-.3.2-.4.5-.5.8-.5 1.1-.7 2.2-.9 3.4-.3 1.1-.6 2.2-1.1 3.3-1 2.2-2.5 4-5 4.9-1.3.4-2.6.5-3.9.2-.1 0-.2 0-.3-.1-.1 0-.2-.1-.2-.1-1.5-.6-2.5-1.6-3.2-3-.3-.6-.4-1.3-.6-1.9-.2-1.4-.2-2.7-.4-4.1-.1-.9-.4-1.8-1-2.5s-1.2-.8-1.9-.4c-.4.3-.8.6-1.1 1-1.4 1.8-2.5 3.9-3.5 6-.3.6-.6 1.3-.9 2-1 2.6-1.7 5.2-2.2 8-.2.4-.1.8-.2 1.1-.1.2-.1.5-.2.7-.1-.6-.1-1.2-.2-1.7 0-1.2 0-2.4.1-3.6.1-2.2.5-4.3 1.1-6.3 0-.1 0-.2.1-.3.6-1.7 1.1-3.3 1.9-4.9.7-1.4 1.4-2.8 2.6-3.9 2.5-2.3 5.7-1.8 7.5 1 1 1.5 1.3 3.2 1.4 4.9.1.8.1 1.6.3 2.4 0 .4.1.7.3 1 .5 1.2 1.7 1.9 3 1.6 1.3-.1 2.2-.7 3.1-1.6 1-1.1 1.6-2.4 2.1-3.7.2-1.4.6-2.8 1.3-4.1z"/><path class="st4" d="M87.8 20.3c-.7.1-1.5.1-2.2.2-4.8.7-9.4 1.9-14 3.3-4.7 1.4-9.2 3.2-13.7 5.2-1.3.6-2.7 1.1-3.9 1.7-.6.3-1.2.8-1.8 1.2-.4-.3-.2-.7-.3-1-.2-1.4-.6-2.8-1.2-4.2-.2-.4-.4-.9-.5-1.3-.2-.9.3-1.5 1-1.9 1.5-1 3.2-1.6 4.9-2.2.8-.2 1.5-.5 2.3-.7 0 .9.1 1.7.5 2.5 1 1.7 2.3 2.2 4.1 1.8.9-.2 1.6-.7 2.3-1.3 1.3-1 2.7-2.1 4.2-2.8.6-.3 1.3-.6 1.9-.9 1.3-.6 2.7-.9 4.1-1.2 1.7-.3 3.4-.4 5-.3.6 0 1.3.1 1.9.2 1.1.1 2.3.4 3.4.7.7.4 1.4.6 2 1z"/><path class="st7" d="M87.8 20.3c-.6-.5-1.4-.7-2.1-.9-1.1-.3-2.2-.6-3.4-.7-.6-.1-1.3-.2-1.9-.2-1.7 0-3.4 0-5 .3-1.4.3-2.8.6-4.1 1.2-.6.3-1.3.5-1.9.9-1.5.8-2.8 1.8-4.2 2.8-.7.5-1.5 1.1-2.3 1.3-1.8.4-3.1-.1-4.1-1.8-.4-.8-.6-1.6-.5-2.5v-.5c1.9-.7 3.8-1.2 5.8-1.8 4.6-1.3 9.2-2.2 13.9-2.8 3.2-.4 6.4-.7 9.6-.8h1.1l-.1.1c.8.4 1.5 1.1 2.3 1.5 0 0 0 .1.1.1 1.3 1 2.5 2.1 3.9 3-1.8.4-3.7.5-5.5.7-.6.1-1.1.1-1.6.1z"/><path class="st6" d="M92.4 22.6c.9-.2 1.9-.3 2.8-.5 1.2-.2 2.4-.5 3.6-.9 0 .1.1.1.1.2 1.1.2 2.2.2 3.3-.2.5-.2 1-.5 1.5-.8.5-.3.9-.7 1.1-1.3.2-.1.3-.3.4-.5.3-.6.7-1.3 1-1.9.5-1.1 1.4-2 2.3-2.8.3-.2.5-.2.7.2.3.9.5 1.8.6 2.7 0 .4.1.7.1 1.1 0 .9-.2 1.9-.4 2.8-.2 1.3-.7 2.5-1.4 3.6-.8 1.1-1.9 1.8-3.2 2.2-.1 0-.2 0-.2.1-1.3.1-2.5.1-3.8.2l-.1-.1c-1.5-.1-2.8-.7-4.1-1.3-1.4-.7-2.8-1.6-4.1-2.5-.1-.1-.2-.2-.2-.3z"/><path class="st8" d="M70 113.3c-.8.2-1.5.7-2.3 1-1.2.6-2.3 1.4-3.3 2.2-.7.5-1.3 1-1.9 1.5-1 .9-2 1.9-2.8 3-.1.1-.1.4-.3.4-.6-.5-1.3-.9-1.9-1.4-.4-.4-1-.6-1.2-1.2 1.3-.3 2.5-.8 3.7-1.6 2.2-1.5 3.3-3.6 4-6 .5-1.6.8-3.3 1.3-4.9.5-1.3 1.2-2.4 2.4-3.1 2-1.3 3.8-.4 4 1.9.1 1 0 2-.3 3-.5 1.7-1.1 3.4-1.4 5.2z"/><path class="st7" d="M94.1 123.3c.4-2.7 1.2-5.4 2.2-8 .3-.7.5-1.4.9-2 0 .2.1.2.3.2.3 0 .7.1 1 .1 2 .1 4 0 6-.5.3-.1.5-.1.7.2.2.6.3 1.3.6 1.9.7 1.4 1.7 2.4 3.2 3 .1 0 .2.1.2.1-.5.5-1.1.7-1.7 1-2.9 1.3-5.9 2.3-9 3.1-1.5.4-2.9.7-4.4.9z"/><path class="st9" d="M41.8 88.2c.2.9.6 1.8.8 2.8.3 1.5.4 3-.3 4.4-.6 1.3-1.8 1.9-3.2 1.8-.6 0-.8-.5-1.2-.7-1.8-3.2-2.6-6.6-2.3-10.2.3-1.5.8-3 1.3-4.5l.6-1.5c.5-1.1 1-1.2 2.2-1-.5 1.1-.8 2.3-.9 3.5 0 2.3 1 4.2 3 5.4z"/><path class="st7" d="M84.8 13.2c-.9.1-1.7.2-2.6.3-3.8.5-7.5 1.2-11.2 2.1-4.1 1-8.1 2.3-12.1 3.8-.1 0-.2.1-.3.1.2-.9.7-1.7 1.3-2.3 1.5-1.7 3.4-2.8 5.5-3.8 2-.9 4.1-1.5 6.2-1.8.7-.1 1.4-.2 2.2-.2 1-.1 2-.1 3 0 2.1.1 4.2.5 6.3 1.1.5.2 1.1.3 1.7.7z"/><path class="st9" d="M40.7 105.2c.4-.8 1.5-1.1 2.4-.7.6.3 1.1.7 1.6 1.1-.3 1.2-.6 2.4-.6 3.7 0 .7.2 1.3.2 2-.5-.2-.7-.7-1-1.1-.8-1-1.5-2.1-2.2-3.2-.2-.3-.3-.7-.4-1.1v-.1c-.1-.2 0-.4 0-.6z"/><path class="st8" d="M104.9 19.1c-.2.6-.7 1-1.1 1.3-.5.3-.9.6-1.5.8-1.1.4-2.2.4-3.3.2 0 0-.1-.1-.1-.2.7-.3 1.5-.6 2.2-1 .4-.3.8-.6 1.1-.9.2.2.4 0 .6 0 .7 0 1.4 0 2.1-.2zM119.4 110.1c.2-1.1.4-2.3.9-3.4.1-.3.3-.6.5-.8.2.3.5.1.8.1.6-.1 1.2-.4 1.8-.3-.5.7-1.1 1.2-1.7 1.8-.6.6-1.1 1.3-1.7 2-.1.3-.3.5-.6.6zM136.3 89.5v-4.2c.7-.6 1.2-1.2 1.7-1.9.2.2 0 .4 0 .6-.3 1.8-.8 3.5-1.5 5.2 0 .2 0 .3-.2.3zM138.3 79c-.4-.8-.9-1.5-1.5-2.2l.9-2.4c0-.1.1-.1.1-.2.3.6.3 1.3.4 2 .1.8.2 1.6.2 2.3 0 .2 0 .3-.1.5z"/><path class="st4" d="M133.1 51c-.6-.5-1-1.1-1.4-1.7-.6-.8-1.2-1.7-1.5-2.7 0-.1-.1-.2-.1-.4.6.3.9.9 1.3 1.4.7 1 1.3 2 1.7 3.2-.1.1 0 .2 0 .2z"/><path class="st10" d="M54.1 21.6v.2c-.5.2-.9.3-1.4.5v-.1c.5-.3.9-.5 1.4-.6z"/><path class="st9" d="M52.8 22.1v.1c-.2.2-.4.2-.7.2.2-.1.4-.2.7-.3zM52.1 22.5s-.1 0 0 0c-.1 0 0 0 0 0z"/><path class="st8" d="M136.2 90.3c0-.1.1-.1.1-.2 0 .1 0 .1-.1.2zM123.6 105.7c0-.1 0-.1 0 0 0-.1 0-.1 0 0zM123.5 105.8c0-.1 0-.1 0 0 0-.1 0-.1 0 0z"/><path class="st4" d="M40.6 105.7v.1-.1zM130 46.2c0-.1 0-.1 0 0 0-.1 0-.1 0 0z"/><path class="st10" d="M34.2 111.9c.1.9-.1 1.8-.4 2.7-.1.5-.9.8-1.4.6-1-.5-1.7-1.4-2.2-2.3-.6-1-.9-2.2-1.2-3.3-.5-1.6-1.1-3-1.9-4.4-.8-1.5-1.7-2.8-2.7-4.1-1.1-1.4-2.2-2.7-3.5-3.8-1.1-1-2.1-2-2.8-3.3-.8-1.4-1.2-2.9-.3-4.5.5-1 1.4-1.4 2.5-1.5 1.7-.2 2.4 1.4 2.6 2.6.1 1.2.5 2.3 1.3 3.2 1.1 1.2 2.4 2.2 3.6 3.3 1 1 2 2.1 2.8 3.3.8 1.2 1.6 2.4 2.1 3.8.1.4.4.8.6 1.2.4 1 .7 2.1.8 3.2 0 1 .2 2.1.1 3.3zM70.5 3.6c1.2.1 2.7 0 4.2.3.2 0 .4.1.5.2.3.2.3.5.1.8-.4.4-.9.6-1.4.8-1.3.6-2.7.8-4.1.7-.9-.1-1.8 0-2.7-.1-1.2 0-2.3.2-3.4.5-1.6.4-3 1.1-4.4 1.9-1.6.9-3.3 1.8-4.9 2.7-1.3.6-2.6 1.1-4 1.4-.9.2-2.3-.4-2.7-1.2-.4-.8-.3-1.7.1-2.5.6-1 1.5-1.6 2.5-2 1.7-.6 3.4-.9 5.1-1.4 1.1-.3 2.3-.5 3.5-.9 1-.3 2-.4 3-.7 2-.5 4.1-.5 6.1-.6.7.2 1.4.1 2.5.1z"/><path class="st11" d="M60.4 94.8c.3-1.8-.1-3.5-1.3-4.9-.2-1.5-.7-2.9-1.7-4.1-1.7-1.8-3.4-3.6-4.8-5.7-.9-1.3-1.5-2.6-1.7-4.2-.2-1.3.1-2.4.5-3.6.6-1.8.9-3.6 1.1-5.5.2-2 .4-3.9.9-5.9.5-1.9 1.3-3.6 2.7-5.1 1.2-1.3 2.4-2.6 3.7-3.8 1.4-1.3 2.9-2.6 4.5-3.8 1.7-1.3 3.4-2.4 5.2-3.5 1.7-1 3.4-1.8 5.3-2.5.2-.1.3-.1.3-.3 1.9-.5 3.8-.8 5.7-1.2 2.7-.5 5.3-1 8-1.4h.6c.4.2.9.2 1.4.3 1.4.4 2.8.3 4.2.6 1.2.2 2.3.6 3.3 1.2 1.8 1 3.3 2.3 4.7 3.7 1.2 1.3 2.5 2.6 3.3 4.2 1.2 2.3 3 4.1 4.6 6.1 2 2.5 3.7 5.1 4.7 8.1.5 1.5 1 3 1.3 4.5.2.9.3 1.9.3 2.8 0 .6.1 1.2.1 1.7-.1 3-.7 6-1.8 8.8-1 2.4-2.3 4.5-3.9 6.4-1.3 1.6-2.7 3-4.3 4.3-1.3 1.1-2.7 2.1-4.1 3.1-1.8 1.3-3.6 2.7-5.4 4-1.6 1.2-3.3 2.2-5.2 3-2 .9-4.2 1.2-6.4 1-.6-.1-1.3-.2-1.9-.4-1.7-.5-3.4-.8-5.1-1-2-.3-4-.4-6-.5-1-1.2-2.4-1.9-4-1.9-1.1 0-2.1.4-3.1 1-.1.1-.3.2-.4.2-.1-.1-.3-.1-.4-.2-1.7-1.1-3.1-2.6-4.1-4.5-.2 0-.4-.6-.8-1zm-.4-8.6c.2.8.3 1.6.4 2.5.3 1.9 1.4 2.8 3.3 3 .7.1 1.3.1 2 .1 2.1.1 3.6 1 4.4 2.9.4.9.7 1.7 1.1 2.6.7 1.7 2 2.8 3.9 3.1 1.3.2 2.5 0 3.7-.4 1.7-.4 3.3-.7 5.1-.5 2.5.3 4.9.6 7.4.4 2.6-.2 5.1-1 7.2-2.5 1.7-1.3 3.2-2.8 4.7-4.4 2.8-3 5.2-6.4 6.9-10.2 1.5-3.5 2.4-7 2.2-10.9-.2-3-1-5.8-2.4-8.4-2.3-4.4-5.7-7.7-9.8-10.2-.2-.1-.3-.2-.4-.4-.9-1.1-1.9-2.1-3-3.1-.5-.4-.9-.8-1.4-1.1 0-.2-.2-.2-.3-.2-.4-.3-.7-.6-1.1-.9-5.1-3.2-10.6-4.5-16.6-3.6-8.6 1.3-15 6-19.3 13.4-2.7 4.7-3.7 9.9-3.1 15.3.3 3 1.1 5.9 2.8 8.5l1.2 2.1c.3.9.7 1.8 1.1 2.9-.1 0-.1 0 0 0z"/><path class="st7" d="M85.8 111.6c-1 3-2.7 5.5-5.5 7-1.6.9-3.3 1-5.1.3-2.4-.9-3.5-2.9-2.9-5.4l.3-1.2c2-.5 4.1-.9 6.2-1 .9 0 1.9-.1 2.8-.1 1.3 0 2.5.1 3.8.3.1.1.3 0 .4.1zM128.9 76.9c1.3.2 2.6.4 3.8.8 1 .3 1.9.9 2.5 1.7 1 1.2 1 2.4-.1 3.6-.7.8-1.7 1.4-2.6 1.9-2.2 1.4-4.5 2.8-6.7 4.2-.1.1-.2.1-.3.1-.1-.1-.1-.3 0-.4.9-1.7 1.3-3.6 1.8-5.5.4-1.7.9-3.4 1.3-5.1.1-.4.2-.8.3-1.3z"/><path class="st9" d="M126 64.5c-.8.2-1.5.5-2.3.8-.9.4-1.6 1.1-2.2 1.9-.2-.8-.3-1.6-.7-2.4-.5-1.3-1.2-2.5-1.8-3.7-.7-1.4-1.1-2.8-1.1-4.4 0-.4.2-.8.2-1.2 2 1 4.1 1.3 6.2 1.7.1 0 .2 0 .3.1 1 2.3 1.7 4.7 1.4 7.2z"/><path class="st7" d="M111.7 115.4c-1.3.2-2.5-.4-3-1.6-.1-.3-.3-.7-.3-1 .8-.2 1.6 0 2.3.4.8.4 1.2 1 1 1.9.1 0 0 .1 0 .3z"/><path class="st11" d="M111.7 115.4c0-.1.1-.3.1-.4.9-.3 1.7-.6 2.5-1.1.1-.1.3-.1.4-.1-.8.9-1.7 1.5-3 1.6z"/><path class="st10" d="M87.3 106.8h-.1c0-.4.1-.7.2-1.1.1.4 0 .7-.1 1.1zM87.3 107.4c-.1-.1-.1-.1 0 0 0-.1 0-.1 0 0 0-.1 0-.1 0 0z"/><path class="st6" d="M86.5 111.5v-.1c.1.1.1.1 0 .1z"/><path class="st5" d="M117 95s0 .1 0 0c0 .1 0 .1 0 0zM41.2 64.2c0 .1-.1.2-.2.2 0-.1 0-.2.2-.2-.1 0 0 0 0 0zM47.8 53.9zM47.9 54.1s-.1 0 0 0c-.1 0 0 0 0 0zM41.1 64.2c0-.1.1-.1 0 0 .1-.1.1 0 .2 0h-.2c.1 0 0 0 0 0zM41 64.4c0 .1 0 .1 0 0-.1 0-.1 0 0 0z"/><path class="st8" d="M92.4 22.6c0 .2.1.2.2.3 1.3.9 2.7 1.8 4.1 2.5 1.3.6 2.6 1.2 4.1 1.3 0 0 .1 0 .1.1-2.2.2-4.3.4-6.5.7-4.5.6-8.9 1.5-13.3 2.4-3.9.8-7.5 2.3-11.2 3.8-3.1 1.2-6.1 2.4-9.4 3-1.4.3-2.9.5-4.4.2-.8-.1-1.5-.4-2-1.2-.2-.4-.2-.7.2-1.1.4-.4.9-.7 1.4-.9 9-4.3 18.2-7.9 27.9-9.9 2.6-.5 5.3-.8 8-1.1.3 0 .6-.2.8-.1z"/><path class="st11" d="M90.9 16.4c-.8-.4-1.5-1-2.3-1.5l.1-.1c2.9-.1 5.8-.1 8.7.8.8.3 1.7.6 2.4 1.1.9.6.8.9-.1 1.4-.6.3-1.3.6-2 .7-.1-.3-.4-.3-.7-.3-.8-.2-1.5-.4-2.3-.7-1.2-.4-2.5-1-3.8-1.4z"/><path class="st8" d="M90.9 16.4c1.3.4 2.6.9 3.9 1.4.8.3 1.5.5 2.3.7.2 0 .6 0 .7.3-.9.3-1.9.5-2.9.6-1.4-.9-2.6-1.9-3.9-3-.1.1-.1.1-.1 0zM120.4 53.4c-2.5-.2-4.5-2.6-4.3-5.1.2-2.8 1.7-5 4-6.5.3.3.3.8.5 1.2.7 1.5 1.5 2.9 2.4 4.2 1 1.5 2 3 3 4.6.6 1 1.1 2 1.6 3.1-1.4-.4-2.9-.6-4.3-.8-.3 0-.6 0-.8-.2-.4-.8-1.4-1-2.1-.5zM129.5 73.8c-1.1-.2-2.2-.5-3.1-1-.9-.5-1.6-1.2-1.9-2.1.5-.6.6-1.4.8-2.2.6-.4 1.2-.5 1.8-.6 1-.3 2-.5 3-.8.2.2.1.5.1.7-.2 1.2-.2 2.5-.3 3.7-.1.7-.3 1.5-.4 2.3z"/><path class="st4" d="M60.4 94.8c.4.4.6 1 .8 1.4.9 1.9 2.3 3.3 4.1 4.5.1.1.3.1.4.2-2.4 1.7-3.4 4.2-4.1 6.9-.3 1.1-.6 2.1-.9 3.2-.8 2.3-2.4 3.8-4.8 4.4 0-.1 0-.2.1-.2.7-1.3.5-2.5-.3-3.7-.9-1.3-2.2-2.1-3.6-2.6-1.4-.6-2.9-.9-4.4-1.4.2-1.2.7-2.2 1.5-3 1-1.1 2.4-1.7 3.7-2.4 1.5-.7 2.9-1.4 4.2-2.4 1.6-1.4 2.8-2.9 3.3-4.9z"/><path class="st9" d="M47.7 107.5c1.4.5 2.9.8 4.4 1.4 1.4.6 2.7 1.3 3.6 2.6.8 1.2.9 2.4.3 3.7 0 .1 0 .1-.1.2-2.4.6-4.6.3-6.4-1.4-1.8-1.7-2.3-4-1.8-6.5z"/><path class="st8" d="M126 64.5c.3-2.5-.4-4.9-1.3-7.2 1.5.2 2.8.6 4.1 1.5.2.2.5.3.6.6-.3.3 0 .5.1.7.1.9.3 1.7.5 2.6 0 .1.1.2.2.2 0 0 0 .1-.1.1s-.1.1-.1.2c-.4.4-.8.5-1.3.7-.9.3-1.8.4-2.7.6z"/><path class="st7" d="M130.1 62.9c-.1 0-.2-.1-.2-.2-.2-.9-.3-1.7-.5-2.6 0-.2-.4-.4-.1-.7.7.7 1.1 1.6 1.1 2.6.1.3 0 .7-.3.9z"/><path class="st9" d="M125.3 68.4c-.1.8-.2 1.6-.8 2.2-.5-.9-.2-1.7.8-2.2zM120.4 53.4c.7-.5 1.7-.2 2.1.5-.7-.1-1.4-.2-2.1-.5z"/><path class="st7" d="M129.9 63.2c0-.1 0-.1.1-.2 0 .1 0 .1-.1.2z"/><path class="st5" d="M127.9 102.5s0-.1.1-.1 0 .1-.1.1c.1 0 0 0 0 0z"/><path class="st8" d="M105.1 113.4c-.2-.3-.4-.3-.7-.2-2 .5-4 .5-6 .5-.3 0-.7-.1-1-.1-.1 0-.2 0-.3-.2.9-2.1 2-4.2 3.5-6 .3-.4.7-.7 1.1-1 .7-.4 1.4-.3 1.9.4.6.7.8 1.6 1 2.5.2 1.3.3 2.7.5 4.1z"/><path class="st1" d="M60 86.2c.2 0 .3.2.4.3 2.8 2.5 5.9 4.4 9.4 5.6 3.1 1.1 6.3 1.6 9.5 1.4 5.6-.3 10.6-2.2 15-5.7 3.5-2.9 6.1-6.4 7.7-10.7 1-2.5 1.5-5.1 1.6-7.8.1-2.7-.1-5.3-.8-7.8-1-3.9-2.9-7.3-5.5-10.4-.6-.7-1.2-1.3-1.9-1.9-.1-.1-.3-.2-.3-.4.6.2 1 .7 1.4 1.1 1.1.9 2.1 2 3 3.1.1.2.3.3.4.4 4.2 2.5 7.6 5.9 9.8 10.2 1.4 2.6 2.2 5.4 2.4 8.4.2 3.8-.6 7.4-2.2 10.9-1.7 3.8-4.1 7.1-6.9 10.2-1.5 1.6-3 3.1-4.7 4.4-2.1 1.6-4.6 2.4-7.2 2.5-2.5.2-5-.1-7.4-.4-1.7-.2-3.4 0-5.1.5-1.2.3-2.5.6-3.7.4-1.9-.3-3.1-1.4-3.9-3.1-.4-.9-.7-1.7-1.1-2.6-.8-1.9-2.3-2.9-4.4-2.9-.7 0-1.3 0-2-.1-1.9-.2-3-1.1-3.3-3 .1-1 0-1.8-.2-2.6zm48.2-19.5c.1-.9-.1-2.1-.3-3.3-.1-.4-.3-.7-.5-.9-.4-.4-.9-.3-1.2.2-.3.6-.5 1.3-.5 2 .1 1 0 2.1.1 3.1.1 1.2 0 2.5 0 3.7-.1 1.7-.2 3.4-.6 5-.3 1.2-.6 2.4-1 3.6-.9 2.4-2.3 4.5-4 6.4-1.3 1.5-2.7 2.9-4.3 4.2-1.5 1.3-3.1 2.3-4.8 3.3-1.2.7-2.5 1-3.9 1.4-.9.3-1.9.4-2.9.6-.9.2-1.7.4-2.6.5-1 .1-2 .2-3 .5-.3.1-.2.3-.1.4.3.3.6.4 1 .6.9.4 1.8.1 2.6-.1 1.3-.3 2.6-.6 3.9-.8 1.2-.2 2.3-.3 3.5-.7 1.3-.4 2.6-.7 3.9-1 1.6-.4 3.2-.8 4.7-1.5.8-.4 1.6-.9 2.1-1.6.8-1 .9-2.3 1.1-3.5.2-.9.5-1.7 1.1-2.4.8-1 2-1.6 3-2.5.4-.3.8-.7 1.1-1.1.6-.9 1.1-1.7 1.4-2.8.2-.8.5-1.6.5-2.5v-.8c.2-1.4 0-2.8 0-4.2-.1-1.9-.4-3.7-.3-5.8zM95.2 48.7c-.2 0-.2-.1-.3-.2.1 0 .3.1.3.2zM59.9 86.1s.1.1 0 0c0 .1 0 .1 0 0z"/><path class="st10" d="M108.2 66.7c0 2.1.2 3.9.3 5.8.1 1.4.3 2.8 0 4.2v.8c0 .9-.3 1.7-.5 2.5-.3 1-.8 1.9-1.4 2.8-.3.5-.7.8-1.1 1.1-1 .8-2.1 1.5-3 2.5-.6.7-.9 1.5-1.1 2.4-.3 1.2-.4 2.4-1.1 3.5-.5.7-1.3 1.2-2.1 1.6-1.5.7-3.1 1.1-4.7 1.5-1.3.3-2.6.6-3.9 1-1.1.4-2.3.5-3.5.7-1.3.2-2.6.5-3.9.8-.9.2-1.7.5-2.6.1-.4-.1-.7-.3-1-.6-.1-.1-.2-.3.1-.4 1-.3 2-.4 3-.5.9-.1 1.7-.3 2.6-.5 1-.2 1.9-.4 2.9-.6 1.3-.4 2.7-.7 3.9-1.4 1.7-.9 3.3-2 4.8-3.3 1.5-1.3 2.9-2.7 4.3-4.2 1.7-1.9 3.1-4 4-6.4.4-1.2.8-2.3 1-3.6.3-1.7.5-3.3.6-5 0-1.2.1-2.5 0-3.7-.1-1 0-2.1-.1-3.1 0-.7.2-1.4.5-2 .2-.5.8-.6 1.2-.2.3.3.5.6.5.9.2 1.2.4 2.4.3 3.3z"/></svg>