<?xml version="1.0" encoding="utf-8"?>
<!-- Generator: Adobe Illustrator 24.0.1, SVG Export Plug-In . SVG Version: 6.00 Build 0)  -->
<svg version="1.1" id="Capa_1" xmlns="http://www.w3.org/2000/svg" xmlns:xlink="http://www.w3.org/1999/xlink" x="0px" y="0px"
	 viewBox="0 0 146 135.5" style="enable-background:new 0 0 146 135.5;" xml:space="preserve">
<style type="text/css">
	.st0{fill:#592519;}
	.st1{fill:#DEA647;}
	.st2{fill:#DEA648;}
	.st3{fill:#DEA84A;}
	.st4{fill:#843725;}
	.st5{fill:#F7D3AD;}
	.st6{fill:#A84430;}
	.st7{fill:#A84530;}
	.st8{fill:#843826;}
	.st9{fill:#C97348;}
	.st10{fill:#DFB875;}
	.st11{fill:#5A2619;}
</style>
<g>
	<path class="st0" d="M139.9,40.9c1.1,1.4,2.2,2.8,3,4.4c2.7,5.2,3.5,10.6,2.6,16.4c0,0.3-0.1,0.6-0.1,0.8c-0.1,0.1-0.1,0.3-0.1,0.4
		c-0.5,2.2-1.2,4.3-2.3,6.2c-0.8,1.4-1,2.9-0.5,4.5c0.7,2.1,1.5,4.2,2.3,6.3c0.4,1.3,0.9,2.6,1.1,3.9c0.5,3.2-0.3,6-2.2,8.6
		c-1.1,1.6-2.5,2.9-3.9,4.3c-0.2,0.2-0.3,0.3-0.5,0.5c-0.1,0-0.1,0.1-0.1,0.2l0,0c0,0,0,0,0,0c-0.2,0-0.3,0.2-0.4,0.3
		c-2.2,2.2-4.2,4.5-6.2,6.9c-0.9,1.2-1.7,2.4-2.7,3.5c-1.7,1.9-3.6,3.4-5.5,5.1c-1.9,1.6-3.7,3.4-5.1,5.4c-1,1.5-1.5,3.2-2.3,4.8
		c0,0,0,0,0,0c-0.1,0-0.1,0.1-0.1,0.2c-1.8,3.3-4.3,5.9-7.7,7.7c-2.6,1.4-5.4,2.1-8.3,2.4c-2.2,0.3-4.4,0.3-6.5,0.2
		c-0.2-0.1-0.4-0.1-0.6-0.1c-1.2,0-2.4-0.1-3.5-0.3c-3.6-0.5-7.3-1-10.9-1.2c-3.6-0.2-7.2-0.2-10.7,0c-2.4,0.1-4.7,0.1-7.1-0.2
		c-5.7-0.7-10.3-3.4-14.1-7.7c-2.6-2.9-4.6-6.1-6.4-9.5c-1.6-3.1-3.1-6.3-4.7-9.5c-1.8-3.7-4-7.2-5.9-10.8c-1.5-2.8-3-5.7-4-8.7
		C26.2,84.9,26,84,26,83c0-0.6,0.2-1,0.8-1.3c0.9-0.5,1.6-1.2,2.2-2c1.4-1.8,1.9-4,1.9-6.2c0.1-2.4-0.4-4.7-1-7
		c-0.3-1.2-0.6-2.4-1.7-3.3c1,0,1.9-0.1,2.8-0.3c3.6-0.8,6.8-2.3,9.2-5.1c1.1-1.3,1.9-2.7,2.2-4.4c0.4-2.6,0.2-5.2-0.5-7.8
		c-0.4-1.8-1-3.6-2.1-5.2c-0.4-0.5-0.4-0.5,0.2-0.8c1.7-0.8,3.4-1.7,4.7-3.1c3.2-3.3,3.9-7.1,2.7-11.4c-0.4-1.3-1.1-2.4-1.6-3.7
		c-0.4-0.9-0.6-1.8-0.4-2.7c0.2-1.3,1.1-2,2.2-2.6c1-0.6,2.1-0.9,3.2-1.3c6.2-2.3,12.6-4.2,19.1-5.6C76,7.9,81.8,7,87.7,6.5
		c1.6-0.1,3.1,0.1,4.5,1.1c1,0.7,1.9,1.6,2.8,2.4c1.2,1.1,2.6,1.7,4.2,1.6c1.1-0.1,2.1-0.4,3.1-0.7c2.3-0.9,4.5-2.1,7-2.7
		c1.8-0.4,3.7-0.7,5.6-0.6c3.9,0.2,7.4,1.4,10.2,4.3c1.3,1.4,2.2,3,2.8,4.8c0.9,3.1,1.9,6.1,2.9,9.1c0.1,0.2,0.1,0.4,0.2,0.5
		c0.5,1.6,1,3.2,1.5,4.8c0.5,1.6,1.3,3,2.2,4.3c1,1.3,2.1,2.5,3.3,3.7c0.6,0.6,1.1,1.3,1.7,1.8c0,0,0,0,0,0
		C139.8,40.9,139.8,40.9,139.9,40.9z M123.6,105.7L123.6,105.7c0,0,0.1-0.1,0.1-0.1c0.1,0,0.2,0,0.2,0c2.2-0.8,4.3-2,6-3.6
		c3.4-3.2,5.7-6.9,6.3-11.6c0.1,0,0.1-0.1,0.1-0.2c0-0.2,0-0.4,0-0.6c0.2,0,0.2-0.2,0.2-0.3c0.7-1.7,1.2-3.4,1.5-5.2
		c0-0.2,0.2-0.4,0-0.6c0.7-1.4,0.8-2.9,0.3-4.5c0.2-0.1,0.1-0.3,0.1-0.4c-0.1-0.8-0.1-1.6-0.2-2.3c-0.1-0.7-0.1-1.3-0.4-2
		c0-0.2,0.1-0.3,0.2-0.5c0.9-1.9,2.2-3.6,3.1-5.6c1.2-2.7,1.1-5.4-0.2-8c-1-1.9-2.3-3.5-3.8-5c-1.2-1.2-2.5-2.5-3.6-3.7
		c-0.1-0.1-0.2-0.2-0.3-0.4c0-0.1,0-0.1,0-0.2c-0.4-1.1-1-2.2-1.7-3.2c-0.4-0.5-0.7-1.1-1.3-1.4c0,0,0-0.1,0-0.1
		c0,0-0.1-0.1-0.1-0.1c-0.4-0.9-0.5-1.8-0.6-2.8c-0.1-1.8,0.6-3.6,0.9-5.3c0.3-1.2,0.5-2.4,0.3-3.6c-0.3-2.2-2.2-3.8-4.4-3.8
		c-0.8,0-1.6,0.1-2.4,0.2c0-0.9-0.1-1.7-0.3-2.5c-0.2-1-0.5-2-0.8-3c-0.5-1.5-1.1-2.9-2-4.1c-1-1.3-2.2-2.4-3.7-3
		c-1.6-0.6-3.2-0.7-4.8-0.5c-0.8,0.1-1.6,0.3-2.4,0.4c0-0.4-0.1-0.7-0.1-1.1c-0.1-0.9-0.3-1.9-0.6-2.7c-0.1-0.4-0.4-0.4-0.7-0.2
		c-1,0.8-1.8,1.6-2.3,2.8c-0.3,0.6-0.6,1.3-1,1.9c-0.1,0.2-0.2,0.4-0.4,0.5c-0.7,0.2-1.4,0.2-2.1,0.2c-0.2,0-0.4,0.2-0.6,0
		c0.9-1.3,0.8-2.7-0.3-3.8c-0.5-0.5-1.2-0.9-1.9-1.2c-3.1-1.4-6.4-1.5-9.7-1.4c-1.8,0.1-3.6,0.2-5.4,0.3c-0.5-0.4-1.2-0.5-1.8-0.7
		c-2-0.6-4.1-1-6.3-1.1c-1,0-2,0-3,0c-0.7,0-1.4,0.1-2.2,0.2c-2.1,0.4-4.2,0.9-6.2,1.8c-2.1,0.9-4,2.1-5.5,3.8
		c-0.6,0.7-1.1,1.4-1.3,2.3c-0.2,0.1-0.3,0.2-0.5,0.2c-1.3,0.5-2.7,1.1-4,1.7c-0.5,0.1-0.9,0.4-1.3,0.6c-0.2,0.1-0.5,0.1-0.7,0.4
		c0,0-0.1,0-0.1,0.1c0,0,0.1,0,0.1-0.1c0.2,0,0.5-0.1,0.7-0.2c0.5-0.2,0.9-0.3,1.4-0.5c0.2-0.1,0.4-0.1,0.5-0.2
		c1.2-0.4,2.5-0.9,3.7-1.3c0,0.2,0,0.3,0,0.5c-0.8,0.2-1.5,0.4-2.3,0.7c-1.7,0.5-3.4,1.1-4.9,2.2c-0.7,0.5-1.1,1.1-1,1.9
		c0.1,0.5,0.3,0.9,0.5,1.3c0.6,1.3,1,2.7,1.2,4.2c0.1,0.3-0.1,0.7,0.3,1c-0.2,0.2-0.4,0.5-0.6,0.7c-0.7,0.9-0.9,1.9-0.8,3
		c0.1,0.5,0.3,0.9,0.4,1.4c-0.1,0-0.2,0.1-0.2,0.2c-0.7,1.4-1.7,2.6-2.9,3.7c-1.4,1.3-3.1,2.1-4.9,2.8c-0.4,0.1-0.4,0.2-0.2,0.5
		c0.9,1.3,1.7,2.7,2.3,4.1c0.5,1.3,0.9,2.6,1.1,4c0.2,1.1,0.2,2.3,0,3.4c-0.2,1.4-0.7,2.8-1.4,4.1c-1,1.6-2.3,2.9-3.9,3.9
		c-0.9,0.6-1.9,1.1-3,1.5c-1.1,0.4-2.2,0.8-3.3,1c-0.3,0.1-0.4,0.2-0.4,0.4c-0.2,0.8-0.3,1.6-0.5,2.3c-0.2,0.6-0.2,1.1,0,1.6
		c0.2,0.4,0.3,0.8,0.4,1.2c0.4,1.7,0.6,3.5,0.5,5.2c-0.1,1.1-0.3,2.2-0.7,3.3c-0.3,0.7-0.5,1.3-0.2,2.1c0.5,1.4,1.1,2.6,1.8,3.9
		c-0.3,3.7,0.5,7.1,2.3,10.2c0,0.1,0,0.2,0,0.3c0.3,1.2,0.4,2.5,0.7,3.7c0.4,1.5,0.9,2.9,1.8,4.3c0.1,0.1,0.1,0.3,0.3,0.4
		c0,0.2,0,0.4-0.1,0.5c0,0,0,0.1,0,0.1c0.1,0.4,0.2,0.7,0.4,1.1c0.7,1.1,1.4,2.2,2.2,3.2c0.3,0.4,0.5,0.9,1,1.1
		c0.1,0.2,0.2,0.4,0.2,0.7c1,3.5,3.2,5.8,6.7,6.8c1.7,0.5,3.4,0.4,5.1,0.1c0.2,0.6,0.7,0.8,1.2,1.2c0.6,0.5,1.3,1,1.9,1.4
		c0,0.2-0.1,0.3-0.2,0.5c-0.8,1.7-0.4,2.9,1.2,3.5c1.2,0.5,2.6,0.7,3.9,0.8c1.7,0.1,3.4,0,5.1-0.2c2.2-0.2,4.3-0.6,6.5-0.8
		c2.4-0.2,4.7-0.3,7.1-0.4c1-0.1,1.9-0.1,2.9-0.2c1.5-0.3,3-0.4,4.5-0.6c1.1-0.2,2.2-0.4,3.3-0.6c0.1,0.6,0.1,1.2,0.2,1.7
		c0.1-0.2,0.1-0.4,0.2-0.7c0.1-0.4,0-0.8,0.2-1.1c1.4-0.2,2.9-0.6,4.3-0.9c3.1-0.8,6.1-1.8,9-3.1c0.6-0.3,1.2-0.5,1.7-1
		c0.1,0,0.2,0,0.3,0.1c1.3,0.3,2.6,0.3,3.9-0.2c2.4-0.8,3.9-2.6,5-4.9c0.5-1.1,0.8-2.2,1.1-3.3c0.3-0.1,0.5-0.4,0.7-0.6
		c0.6-0.7,1.1-1.4,1.7-2C122.4,107,123,106.4,123.6,105.7L123.6,105.7C123.5,105.7,123.5,105.7,123.6,105.7z"/>
	<path class="st1" d="M109.3,8.1c-2.4,0.6-4.6,1.8-7,2.7c-1,0.4-2,0.7-3.1,0.7c-1.6,0.1-3-0.5-4.2-1.6c-0.9-0.8-1.8-1.7-2.8-2.4
		c-1.4-1-2.9-1.3-4.5-1.1C81.8,7,76,7.9,70.2,9.2c-6.5,1.4-12.9,3.3-19.1,5.6c-1.1,0.4-2.2,0.8-3.2,1.3c-1.1,0.6-2,1.4-2.2,2.6
		c-0.2,1,0.1,1.9,0.4,2.7c0.5,1.2,1.2,2.4,1.6,3.7c1.2,4.3,0.5,8.2-2.7,11.4c-1.3,1.4-3,2.2-4.7,3.1c-0.6,0.3-0.6,0.3-0.2,0.8
		c1.1,1.6,1.7,3.3,2.1,5.2c0.6,2.6,0.9,5.2,0.5,7.8c-0.3,1.7-1.1,3.1-2.2,4.4c-2.5,2.8-5.7,4.3-9.2,5.1c-0.9,0.2-1.8,0.3-2.8,0.3
		c1.1,0.9,1.4,2.1,1.7,3.3c0.6,2.3,1,4.6,1,7c-0.1,2.2-0.5,4.4-1.9,6.2c-0.6,0.8-1.4,1.5-2.2,2C26.3,82,26.1,82.5,26,83
		c0,1,0.2,1.9,0.4,2.7c1,3.1,2.5,5.9,4,8.7c1.9,3.6,4.2,7.1,5.9,10.8c1.5,3.2,3,6.4,4.7,9.5c1.8,3.4,3.8,6.7,6.4,9.5
		c3.8,4.3,8.4,7,14.1,7.7c2.4,0.3,4.7,0.3,7.1,0.2c3.6-0.1,7.1-0.2,10.7,0c3.7,0.2,7.3,0.7,10.9,1.2c1.2,0.2,2.4,0.3,3.5,0.3
		c0.2,0,0.4,0,0.6,0.1c-1.5-0.1-2.9,0.4-4.3,0.7c-1.8,0.3-3.6,0.5-5.4,0.7c-1.9,0.2-3.9,0.3-5.8,0.3c-3.1,0-6.2-0.2-9.3-0.6
		c-2.5-0.3-5-0.8-7.5-1.4c-3.1-0.8-6.1-1.7-9-2.9c-5.3-2.1-10.3-4.9-15-8.2c-4.9-3.6-9.3-7.7-13.1-12.4c-3.4-4.2-6.2-8.7-8.6-13.6
		c-1.5-3.1-2.7-6.3-3.7-9.6c-0.5-1.5-0.8-3-1.2-4.5c-0.1-0.4,0.1-0.5,0.4-0.5c1.7-0.1,3.4-0.2,5.1-0.4c2.2-0.2,4.5-0.6,6.5-1.7
		c2-1,3.2-2.7,3.9-4.8c0.9-2.7,0.6-5.5-0.1-8.2c-0.5-1.9-1.3-3.7-2.4-5.4c-0.3-0.4-0.3-0.5,0.3-0.5c3.4-0.3,6.7-1.1,9.6-3
		c2.1-1.4,3.6-3.2,4.4-5.6c0.6-1.7,0.6-3.5,0.4-5.2c-0.5-3.3-1.9-6.2-3.8-8.9c-0.1-0.1-0.1-0.2-0.2-0.3c-0.1-0.2-0.1-0.3,0.2-0.4
		c1.3-0.3,2.5-0.8,3.6-1.5c2.8-1.7,4.7-4.1,5.4-7.4c0.3-1.3,0.2-2.7,0-4c-0.6-3.5-2.4-6.5-4.4-9.3c-0.6-0.9-1.2-1.7-1.9-2.5
		c-0.2-0.2-0.1-0.4,0.1-0.5c3.9-2.7,8-4.9,12.3-6.8C53.7,4,56.9,3,60.1,2.1c2.6-0.7,5.2-1.2,7.8-1.5C71.3,0.1,74.7,0,78.1,0
		c2.7,0,5.3,0.2,7.9,0.6c1.9,0.3,3.9,0.6,5.8,1c2,0.4,4,1,6,1.6c3.3,1,6.5,2.3,9.6,3.9C108,7.4,108.7,7.8,109.3,8.1z M34.2,111.9
		c0.1-1.2-0.1-2.3-0.3-3.4c-0.1-1.1-0.4-2.2-0.8-3.2c-0.2-0.4-0.4-0.8-0.6-1.2c-0.5-1.4-1.3-2.6-2.1-3.8c-0.8-1.2-1.8-2.2-2.8-3.3
		c-1.1-1.1-2.5-2.1-3.6-3.3c-0.8-1-1.2-2-1.3-3.2c-0.1-1.2-0.8-2.7-2.6-2.6c-1.1,0.1-2,0.6-2.5,1.5c-0.8,1.5-0.5,3.1,0.3,4.5
		c0.7,1.3,1.7,2.3,2.8,3.3c1.3,1.1,2.4,2.4,3.5,3.8c1,1.3,1.9,2.7,2.7,4.1c0.7,1.4,1.4,2.9,1.9,4.4c0.3,1.1,0.7,2.3,1.2,3.3
		c0.5,1,1.2,1.8,2.2,2.3c0.5,0.3,1.3-0.1,1.4-0.6C34.1,113.7,34.4,112.8,34.2,111.9z M70.5,3.6c-1.1,0-1.8,0.1-2.5,0.1
		c-2.1,0-4.1,0.1-6.1,0.6c-1,0.2-2,0.4-3,0.7c-1.1,0.3-2.3,0.5-3.5,0.9c-1.7,0.5-3.4,0.8-5.1,1.4c-1.1,0.4-2,0.9-2.5,2
		c-0.4,0.8-0.6,1.7-0.1,2.5c0.4,0.8,1.8,1.3,2.7,1.2c1.4-0.3,2.7-0.7,4-1.4c1.7-0.8,3.3-1.7,4.9-2.7c1.4-0.8,2.8-1.5,4.4-1.9
		c1.1-0.3,2.3-0.6,3.4-0.5c0.9,0,1.8,0,2.7,0.1c1.4,0.1,2.8-0.1,4.1-0.7c0.5-0.2,1-0.4,1.4-0.8c0.3-0.3,0.2-0.6-0.1-0.8
		c-0.2-0.1-0.3-0.2-0.5-0.2C73.2,3.6,71.7,3.7,70.5,3.6z"/>
	<path class="st2" d="M117,123.4c0.8-1.6,1.2-3.3,2.3-4.8c1.4-2.1,3.2-3.8,5.1-5.4c1.9-1.6,3.8-3.2,5.5-5.1c1-1.1,1.8-2.4,2.7-3.5
		c1.9-2.4,3.9-4.8,6.2-6.9c0.1-0.1,0.2-0.2,0.4-0.3c-0.1,0.6-0.4,1.1-0.7,1.6c-2.4,4.8-5.4,9.2-8.9,13.3c-3.6,4.2-7.7,7.8-12.2,11
		C117.3,123.3,117.2,123.5,117,123.4z"/>
	<path class="st2" d="M144.8,79.9c-0.8-2.1-1.7-4.1-2.3-6.3c-0.5-1.6-0.3-3,0.5-4.5c1.1-1.9,1.8-4,2.3-6.2c0-0.1,0-0.3,0.1-0.4
		c0.2,0.1,0.1,0.3,0.1,0.4c0.2,2.5,0.3,4.9,0.2,7.4c-0.1,2.6-0.3,5.2-0.7,7.7C145,78.7,144.9,79.3,144.8,79.9z"/>
	<path class="st2" d="M25.1,32c-1.5,0-2.7-1.2-2.8-2.7c0-1.5,1.2-2.7,2.8-2.7c1.5,0,2.7,1.2,2.7,2.8C27.8,30.8,26.5,32.1,25.1,32z"
		/>
	<path class="st2" d="M139.8,40.8c-0.6-0.5-1.1-1.2-1.7-1.8c-1.1-1.2-2.3-2.4-3.3-3.7c-1-1.3-1.7-2.7-2.2-4.3
		c-0.5-1.6-1-3.2-1.5-4.8c0.5,0.4,0.8,0.9,1.2,1.4c2.9,3.9,5.4,8,7.4,12.4C139.6,40.3,139.8,40.5,139.8,40.8z"/>
	<path class="st3" d="M12.4,61.5c-1.4,0-2.7-1.2-2.6-2.7c0.1-1.4,1-2.5,2.6-2.5c1.5,0,2.7,1.2,2.7,2.6C15,60.3,13.8,61.5,12.4,61.5z
		"/>
	<path class="st3" d="M0,66.5c-0.1-0.9,0.7-1.9,1.9-1.9c1.1,0,1.9,0.8,1.9,2c0,1.1-0.9,1.9-1.9,1.9C0.8,68.5,0,67.6,0,66.5z"/>
	<path class="st3" d="M20.7,48.4c1,0,1.8,0.8,1.8,1.8c0,1-0.8,1.7-1.8,1.8c-0.9,0-1.8-0.8-1.8-1.8C18.9,49.1,19.7,48.4,20.7,48.4z"
		/>
	<path class="st3" d="M34.4,25.4c0-1,0.8-1.7,1.8-1.7c0.9,0,1.8,0.7,1.8,1.8c0,1-0.8,1.8-1.8,1.8C35.2,27.2,34.4,26.4,34.4,25.4z"/>
	<path class="st3" d="M33.1,45c0,0.8-0.7,1.5-1.5,1.5c-0.8,0-1.5-0.7-1.5-1.6c0-0.8,0.7-1.5,1.5-1.5C32.5,43.4,33.1,44.1,33.1,45z"
		/>
	<path class="st3" d="M21,67c0.8,0,1.6,0.7,1.5,1.5c0,0.8-0.7,1.5-1.5,1.5c-0.8,0-1.5-0.7-1.5-1.6C19.5,67.6,20.2,67,21,67z"/>
	<path class="st3" d="M11.5,69.8c0.9,0,1.5,0.7,1.5,1.5c0,0.8-0.7,1.5-1.5,1.5c-0.8,0-1.5-0.7-1.5-1.6C10,70.4,10.7,69.8,11.5,69.8z
		"/>
	<path class="st3" d="M13,43.7c0,0.8-0.6,1.4-1.4,1.4c-0.7,0-1.4-0.7-1.4-1.4c0-0.8,0.6-1.4,1.4-1.4C12.4,42.3,13,42.9,13,43.7z"/>
	<path class="st3" d="M29.4,14.9c0,0.7-0.6,1.2-1.2,1.2c-0.7,0-1.2-0.6-1.2-1.3c0-0.7,0.5-1.2,1.2-1.2
		C28.8,13.7,29.4,14.2,29.4,14.9z"/>
	<path class="st3" d="M21.3,37.1c0,0.5-0.5,1-1,1c-0.5,0-1-0.5-0.9-1c0-0.5,0.5-0.9,1-0.9C20.8,36.1,21.3,36.6,21.3,37.1z"/>
	<path class="st2" d="M139.9,40.9c-0.1,0-0.1-0.1-0.1-0.2C139.9,40.8,139.9,40.9,139.9,40.9z"/>
	<path class="st2" d="M139.2,97.4c0-0.1,0-0.1,0.1-0.2C139.3,97.3,139.3,97.4,139.2,97.4z"/>
	<path class="st2" d="M116.9,123.6c0-0.1,0-0.1,0.1-0.2C117,123.5,117,123.6,116.9,123.6z"/>
	<path class="st4" d="M109.9,17.9c0.8-0.1,1.6-0.3,2.4-0.4c1.6-0.2,3.2-0.1,4.8,0.5c1.6,0.6,2.8,1.7,3.7,3c0.9,1.2,1.6,2.6,2,4.1
		c0.3,1,0.6,2,0.8,3c0.1,0.8,0.3,1.7,0.3,2.5c-0.1,0.1-0.1,0.1-0.3,0.2c-0.8,0.3-1.5,0.7-2.1,1.3c-1.3,1.4-1.9,3.1-2,5.1
		c-0.1,1.1,0.1,2.2,0.3,3.2c-0.1,0.1-0.2,0.1-0.4,0.2c-2.1,1.1-3.7,2.7-4.7,4.9c-1,2.3-1.2,4.6,0.1,6.9c0.8,1.4,2,2.3,3.4,3
		c0,0.4-0.2,0.8-0.2,1.2c-0.1,1.6,0.4,3,1.1,4.4c0.6,1.3,1.3,2.5,1.8,3.7c0.3,0.8,0.4,1.6,0.7,2.4c-0.1,0.1-0.1,0.3-0.2,0.4
		c-0.6,1.2-0.7,2.4-0.3,3.6c0.7,2.2,2.2,3.7,4.2,4.7c1.1,0.5,2.3,0.7,3.5,1c-0.1,0.4-0.2,0.9-0.3,1.3c-0.4,1.7-0.8,3.4-1.3,5.1
		c-0.5,1.9-1,3.7-1.8,5.5c-0.1,0.2-0.1,0.3,0,0.4c-0.3,0.2-0.5,0.4-0.8,0.6c-2.1,1.4-4.3,2.8-6.4,4.2c-0.5,0.3-0.9,0.6-1.3,1
		c0,0,0,0-0.1,0c0,0,0,0,0.1,0c0,0,0,0,0-0.1c0.2,0.1,0.3-0.1,0.5-0.1c1.8-0.8,3.6-1.7,5.4-2.5c0.1,0.1,0,0.2-0.1,0.2
		c-0.3,0.2-0.6,0.5-0.9,0.7c-1.6,1.2-3.4,2-4.9,3.3c-0.9,0.8-1.8,1.7-2.3,2.8c-0.5,1-0.7,2.1-0.4,3.1c0.6,2,2.1,3.1,4,3.6
		c-0.7,1.3-1.1,2.6-1.5,4c-0.5,1.4-1.1,2.7-2.1,3.7c-0.2,0-0.3,0-0.4,0.1c-0.8,0.5-1.6,0.8-2.5,1.1c0.1-0.9-0.2-1.5-1-1.9
		c-0.7-0.3-1.5-0.6-2.3-0.4c-0.2-0.8-0.2-1.6-0.3-2.4c-0.1-1.7-0.5-3.4-1.4-4.9c-1.8-2.8-5-3.2-7.5-1c-1.2,1.1-1.9,2.5-2.6,3.9
		c-0.8,1.6-1.4,3.3-1.9,4.9c-0.1,0-0.3,0-0.4,0c-2.1-0.4-4.1-0.7-6.2-1.2c-0.6-0.1-1.1-0.2-1.7-0.3c0-0.1,0-0.1,0-0.2
		c0,0,0-0.1,0-0.1c0.3-1.4,0.5-2.7,0.7-4.1c0,0,0,0,0,0c0,0,0,0,0-0.1c0-0.2,0-0.3,0.1-0.5c0.1-0.4,0.1-0.7,0.1-1.1
		c-0.1,0.4-0.2,0.8-0.2,1.1c0,0.2-0.1,0.4-0.1,0.5c-0.3,1.4-0.7,2.8-1.2,4.2c-0.2,0-0.3,0-0.5,0c-1.2-0.2-2.5-0.3-3.8-0.3
		c-0.9,0-1.9,0-2.8,0.1c-2.1,0.1-4.2,0.5-6.2,1c0-0.1,0-0.2,0.1-0.4c0.3-0.9,0.7-1.9,1-2.8c0.8-2.6,1.1-5.1-0.5-7.5c2,0,4,0.2,6,0.5
		c1.7,0.2,3.4,0.6,5.1,1c0.6,0.2,1.3,0.3,1.9,0.4c2.2,0.2,4.4-0.1,6.4-1c1.8-0.8,3.6-1.8,5.2-3c1.8-1.3,3.6-2.7,5.4-4
		c1.4-1,2.8-2,4.1-3.1c1.6-1.3,3-2.7,4.3-4.3c1.6-2,2.9-4.1,3.9-6.4c1.2-2.8,1.7-5.8,1.8-8.8c0-0.6,0-1.2-0.1-1.7
		c-0.1-0.9-0.2-1.9-0.3-2.8c-0.3-1.5-0.8-3-1.3-4.5c-1-3.1-2.7-5.7-4.7-8.1c-1.6-2-3.4-3.8-4.6-6.1c-0.8-1.6-2.1-2.9-3.3-4.2
		c-1.4-1.5-3-2.7-4.7-3.7c-1-0.6-2.1-1-3.3-1.2c-1.4-0.3-2.8-0.2-4.2-0.6c-0.5-0.1-1-0.1-1.4-0.3c0.1,0,0.2-0.1,0.3-0.1
		c1.7-0.2,3.4-0.5,5.1-0.7c4.5-0.6,9.1-1,13.6-1.3c2.8-0.2,5.5-0.9,8-2.4c0.8-0.5,1.6-1.1,2.1-1.9c0.8-1.3,1.2-2.7,0.3-4.1
		c-0.7-1.2-1.8-1.7-3.1-1.9c-2-0.3-4-0.4-6-0.5c-1.7-0.1-3.3-0.1-5-0.1c0-0.1,0.1-0.1,0.2-0.1c1.3-0.4,2.4-1.1,3.2-2.2
		c0.7-1.1,1.2-2.3,1.4-3.6C109.7,19.8,109.9,18.9,109.9,17.9z"/>
	<path class="st4" d="M35.6,86.3c-0.6-1.3-1.3-2.5-1.8-3.9c-0.3-0.8-0.1-1.4,0.2-2.1c0.4-1,0.6-2.1,0.7-3.3c0.2-1.8-0.1-3.5-0.5-5.2
		c-0.1-0.4-0.2-0.8-0.4-1.2c-0.2-0.6-0.2-1.1,0-1.6c0.2-0.7,0.4-1.5,0.5-2.3c0.1-0.2,0.1-0.4,0.4-0.4c1.1-0.2,2.2-0.6,3.3-1
		c1-0.4,2-0.9,3-1.5c1.6-1,2.9-2.3,3.9-3.9c0.8-1.3,1.2-2.6,1.4-4.1c0.2-1.1,0.1-2.2,0-3.4c-0.2-1.4-0.6-2.7-1.1-4
		c-0.6-1.5-1.3-2.8-2.3-4.1c-0.2-0.3-0.2-0.4,0.2-0.5c1.8-0.6,3.5-1.5,4.9-2.8c1.2-1.1,2.2-2.3,2.9-3.7c0-0.1,0.1-0.1,0.2-0.2
		c1.3,2.3,3.4,3.1,5.9,3.2c1.5,0,2.9-0.1,4.4-0.4c3.5-0.7,6.9-2,10.2-3.3c3.1-1.3,6.2-2.5,9.5-3.3C88.1,31.7,95,30.4,102,30
		c4.1-0.3,8.2-0.3,12.2,0.1c0.5,0,1.1,0.1,1.6,0.3c0.5,0.2,0.6,0.4,0.3,0.9c-0.3,0.6-0.9,1-1.5,1.4c-2,1.1-4.3,1.8-6.6,2
		c-3.3,0.3-6.5,0.7-9.8,1.1c-4.9,0.7-9.9,1.5-14.7,2.5c-4.2,0.9-8.4,1.9-12.6,3.1c-3,0.9-6,1.9-9,2.7c-2.4,0.6-4.9,1-7.3,1.7
		c-2.3,0.6-4.3,1.6-5.9,3.3c-0.6,0.7-1.1,1.4-1.3,2.3c-0.2,0.8-0.2,1.6,0.2,2.3c0-0.1,0-0.1,0-0.2c-0.3-1.4,0-2.7,1-3.7
		c1.6-1.8,3.7-2.7,6-3.2c2.1-0.5,4.3-0.7,6.4-1.1c3.5-0.7,6.8-1.7,10.2-2.6c1.3-0.3,2.5-0.7,3.8-0.9c0,0.2-0.1,0.2-0.3,0.3
		c-1.8,0.7-3.6,1.5-5.3,2.5c-1.8,1-3.6,2.2-5.2,3.5c-1.6,1.2-3.1,2.4-4.5,3.8c-1.3,1.2-2.5,2.5-3.7,3.8c-1.4,1.5-2.2,3.2-2.7,5.1
		c-0.5,1.9-0.7,3.9-0.9,5.9c-0.2,1.9-0.5,3.7-1.1,5.5c-0.4,1.2-0.6,2.3-0.5,3.6c0.2,1.6,0.8,2.9,1.7,4.2c1.4,2,3.1,3.8,4.8,5.7
		c1.1,1.2,1.5,2.6,1.7,4.1c-0.4-0.4-0.8-0.7-1.2-1c-1.8-1.2-3.9-1.7-6.1-1.8c-1.6-0.1-3.2,0-4.7,0c-1.1,0-2.2-0.2-3.3-0.6
		c-2.1-0.8-3.1-2.5-2.8-4.7c0.3-1.8,1.2-3.2,2.2-4.6c1.2-1.5,2.5-3,3.4-4.7c1-1.7,1.5-3.5,1.3-5.5c-0.3-2.1-1.6-3.6-3.6-3.9
		c-1.2-0.2-2.3,0-3.1,0.9c0,0-0.1,0.1-0.1,0.1c-0.1,0-0.2,0.1-0.2,0.2c0,0-0.1,0.1,0,0.1c0,0,0.1,0,0.1-0.1c0.1,0,0.2-0.1,0.2-0.2
		c0,0,0.1-0.1,0.1-0.1c0,0,0.1,0,0.1,0c2.3-1.5,5.1-0.2,5.5,2.4c0.3,1.7-0.2,3.2-1,4.6c-0.7,1.2-1.7,2.3-2.6,3.3
		c-1.3,1.5-2.7,2.9-3.5,4.7c-1.2-0.3-1.7-0.1-2.2,1c-0.2,0.5-0.4,1-0.6,1.5C36.4,83.2,35.9,84.7,35.6,86.3z M47.8,53.9
		C47.8,53.9,47.8,53.9,47.8,53.9C47.8,53.9,47.8,53.9,47.8,53.9C47.8,53.9,47.8,53.9,47.8,53.9C47.8,53.9,47.8,53.9,47.8,53.9z
		 M47.9,54.1C47.9,54.1,47.9,54.1,47.9,54.1C47.9,54.1,47.8,54.1,47.9,54.1C47.8,54.1,47.9,54.1,47.9,54.1
		C47.9,54.1,47.9,54.1,47.9,54.1z"/>
	<path class="st5" d="M75.1,42.1c-1.3,0.2-2.6,0.6-3.8,0.9c-3.4,0.9-6.8,1.9-10.2,2.6c-2.1,0.4-4.3,0.6-6.4,1.1
		c-2.3,0.5-4.3,1.5-6,3.2c-1,1.1-1.4,2.3-1,3.7c0,0.1,0,0.1,0,0.2c-0.4-0.8-0.4-1.5-0.2-2.3c0.2-0.9,0.7-1.6,1.3-2.3
		c1.6-1.8,3.7-2.7,5.9-3.3c2.4-0.7,4.9-1,7.3-1.7c3-0.8,6-1.8,9-2.7c4.1-1.3,8.3-2.2,12.6-3.1c4.9-1,9.8-1.9,14.7-2.5
		c3.2-0.4,6.5-0.8,9.8-1.1c2.3-0.2,4.5-0.9,6.6-2c0.6-0.3,1.2-0.7,1.5-1.4c0.2-0.5,0.2-0.7-0.3-0.9c-0.5-0.2-1-0.3-1.6-0.3
		c-4.1-0.3-8.2-0.3-12.2-0.1c-7,0.5-13.9,1.7-20.7,3.3c-3.3,0.8-6.4,2-9.5,3.3c-3.3,1.3-6.7,2.6-10.2,3.3c-1.4,0.3-2.9,0.5-4.4,0.4
		c-2.5-0.1-4.6-0.9-5.9-3.2c-0.1-0.5-0.4-0.9-0.4-1.4c-0.1-1.1,0.1-2.1,0.8-3c0.2-0.2,0.4-0.5,0.6-0.7c0.6-0.4,1.2-0.9,1.8-1.2
		c1.3-0.7,2.6-1.1,3.9-1.7c4.4-2,9-3.8,13.7-5.2c4.6-1.4,9.3-2.6,14-3.3c0.7-0.1,1.5-0.2,2.2-0.2c0.5,0,1-0.1,1.5-0.1
		c1.8-0.2,3.7-0.3,5.5-0.7c1-0.1,2-0.3,2.9-0.6c0.7-0.1,1.4-0.4,2-0.7c0.9-0.5,0.9-0.8,0.1-1.4c-0.7-0.5-1.6-0.8-2.4-1.1
		c-2.8-0.9-5.8-0.9-8.7-0.8c-0.4,0-0.7,0-1.1,0c-3.2,0.1-6.4,0.4-9.6,0.8c-4.7,0.6-9.3,1.6-13.9,2.8c-1.9,0.5-3.9,1.1-5.8,1.8
		c-1.3,0.3-2.5,0.8-3.7,1.3c-0.2,0.1-0.4,0.1-0.5,0.2c0-0.1,0-0.1,0-0.2c1.3-0.6,2.6-1.2,4-1.7c0.2-0.1,0.3-0.2,0.5-0.2
		c0.1,0,0.2-0.1,0.3-0.1c3.9-1.5,8-2.8,12.1-3.8c3.7-0.9,7.4-1.7,11.2-2.1c0.9-0.1,1.7-0.2,2.6-0.3c1.8-0.1,3.6-0.3,5.4-0.3
		c3.3-0.2,6.6,0,9.7,1.4c0.7,0.3,1.4,0.7,1.9,1.2c1.1,1.1,1.3,2.5,0.3,3.8c-0.3,0.3-0.7,0.7-1.1,0.9c-0.7,0.4-1.4,0.7-2.2,1
		c-1.2,0.4-2.4,0.7-3.6,0.9c-0.9,0.2-1.9,0.3-2.8,0.5c-0.2,0-0.5,0.1-0.7,0.1c-2.7,0.3-5.3,0.5-8,1.1c-9.8,2-19,5.6-27.9,9.9
		c-0.5,0.2-1,0.5-1.4,0.9c-0.3,0.3-0.4,0.7-0.2,1.1c0.4,0.8,1.2,1.1,2,1.2c1.5,0.2,2.9,0.1,4.4-0.2c3.2-0.7,6.3-1.8,9.4-3
		c3.7-1.5,7.3-2.9,11.2-3.8c4.4-1,8.8-1.8,13.3-2.4c2.2-0.3,4.3-0.4,6.5-0.7c1.3-0.1,2.5-0.1,3.8-0.2c1.7,0,3.3,0,5,0.1
		c2,0.1,4,0.2,6,0.5c1.3,0.2,2.4,0.7,3.1,1.9c0.8,1.4,0.5,2.8-0.3,4.1c-0.5,0.8-1.3,1.4-2.1,1.9c-2.5,1.4-5.2,2.2-8,2.4
		c-4.5,0.3-9.1,0.7-13.6,1.3c-1.7,0.2-3.4,0.5-5.1,0.7c-0.1,0-0.2,0-0.3,0.1c-0.2,0-0.4,0-0.6,0c-2.7,0.4-5.4,0.8-8,1.4
		C78.9,41.3,77,41.6,75.1,42.1z"/>
	<path class="st6" d="M119.8,40.5c-0.1-1.1-0.4-2.1-0.3-3.2c0.1-1.9,0.7-3.7,2-5.1c0.6-0.6,1.3-1,2.1-1.3c0.1,0,0.2-0.1,0.3-0.2
		c0.8-0.1,1.6-0.2,2.4-0.2c2.2,0,4.1,1.6,4.4,3.8c0.2,1.3,0,2.4-0.3,3.6c-0.4,1.8-1,3.5-0.9,5.3c0,1,0.1,1.9,0.6,2.8
		c0,0,0.1,0.1,0.1,0.1c0,0,0,0.1,0,0.1c0,0.1,0,0.2,0.1,0.4c0.4,1,0.9,1.9,1.5,2.7c0.4,0.6,0.9,1.2,1.4,1.7c0,0.2,0.2,0.3,0.3,0.4
		c1.2,1.3,2.4,2.5,3.6,3.7c1.5,1.5,2.8,3.1,3.8,5c1.3,2.6,1.5,5.3,0.2,8c-0.9,1.9-2.2,3.6-3.1,5.6c-0.1,0.2-0.2,0.3-0.2,0.5
		c0,0.1-0.1,0.1-0.1,0.2c-0.3,0.8-0.6,1.6-0.9,2.4c-1.4-1.2-2.9-2-4.7-2.4c-0.8-0.2-1.7-0.4-2.5-0.6c0.1-0.8,0.2-1.6,0.3-2.4
		c0.2-1.2,0.2-2.5,0.3-3.7c0-0.2,0.1-0.5-0.1-0.7c0.4-0.2,0.7-0.3,1.1-0.5c1.8-1.1,2.8-2.6,2.6-4.7c-0.1-2.4-1.3-4.3-3.4-5.6
		c-0.9-0.6-1.8-0.9-2.8-1.2c-0.4-1.1-1-2.1-1.6-3.1c-1-1.5-1.9-3.1-3-4.6c-0.9-1.3-1.8-2.7-2.4-4.2c-0.2-0.4-0.2-0.9-0.5-1.2
		c0.1-0.1,0.2-0.2,0.3-0.2c2-1.2,4.2-1.9,6.4-2.5c0.2-0.1,0.5-0.1,0.7-0.2c0.2-0.1,0.5-0.1,0.7-0.2
		C126.3,38.7,122.5,39.1,119.8,40.5z"/>
	<path class="st5" d="M39.7,79.3c0.9-1.8,2.2-3.3,3.5-4.7c1-1.1,1.9-2.1,2.6-3.3c0.8-1.4,1.3-3,1-4.6c-0.4-2.7-3.2-3.9-5.5-2.4
		c0,0-0.1,0-0.1,0c0,0-0.1,0-0.1-0.1c0.9-0.9,2-1.1,3.1-0.9c2,0.3,3.3,1.8,3.6,3.9c0.2,2-0.3,3.8-1.3,5.5c-1,1.7-2.3,3.1-3.4,4.7
		c-1.1,1.4-1.9,2.9-2.2,4.6c-0.4,2.2,0.7,4,2.8,4.7c1.1,0.4,2.2,0.5,3.3,0.6c1.6,0,3.2,0,4.7,0c2.2,0.1,4.3,0.6,6.1,1.8
		c0.4,0.3,0.8,0.7,1.2,1c1.1,1.5,1.6,3.1,1.3,4.9c-0.5,2-1.7,3.5-3.2,4.8c-1.3,1-2.8,1.7-4.2,2.4c-1.3,0.7-2.6,1.3-3.7,2.4
		c-0.8,0.9-1.3,1.9-1.5,3c-0.5,2.5-0.1,4.8,1.8,6.6c1.8,1.7,4,2,6.4,1.4c2.4-0.6,3.9-2.1,4.8-4.4c0.4-1,0.7-2.1,0.9-3.2
		c0.7-2.7,1.7-5.2,4.1-6.9c0.1-0.1,0.3-0.2,0.4-0.2c0.9-0.6,2-1,3.1-1c1.6,0,3,0.7,4,1.9c1.6,2.4,1.3,4.9,0.5,7.5
		c-0.3,0.9-0.7,1.9-1,2.8c0,0.1-0.1,0.2-0.1,0.4c-0.2,0.4-0.3,0.8-0.3,1.2c-0.5,2.5,0.5,4.5,2.9,5.4c1.7,0.7,3.5,0.6,5.1-0.3
		c2.9-1.5,4.5-4,5.5-7c0.5-1.4,0.9-2.8,1.2-4.2c0-0.2,0.1-0.4,0.1-0.5c0,0,0.1,0,0.1,0c0,0.2,0,0.3-0.1,0.5c0,0,0,0,0,0.1
		c-0.1,1.4-0.4,2.7-0.7,4.1c0,0,0,0.1,0,0.1c0,0.1,0,0.1,0,0.2c0,0.1-0.1,0.2-0.1,0.3c-0.7,2.6-2,5-4.1,6.8
		c-2.1,1.8-4.5,2.6-7.2,1.9c-2.7-0.7-4.6-2.4-5.1-5.3c-0.1-0.7,0-1.4,0-2.1c0.3-1.8,0.9-3.4,1.4-5.2c0.3-1,0.4-2,0.3-3
		c-0.2-2.3-2-3.2-4-1.9c-1.2,0.8-1.9,1.8-2.4,3.1c-0.6,1.6-0.9,3.3-1.3,4.9c-0.7,2.4-1.9,4.6-4,6c-1.1,0.8-2.4,1.3-3.7,1.6
		c-1.7,0.3-3.4,0.4-5.1-0.1c-3.5-1-5.7-3.3-6.7-6.8c-0.1-0.2-0.1-0.5-0.2-0.7c0-0.7-0.1-1.3-0.2-2c0-1.2,0.2-2.5,0.6-3.7
		c1.1-3.1,3.4-5,6.2-6.3c1-0.5,2-1,3.1-1.5c1.1-0.6,2.1-1.4,2.8-2.5c1.1-1.6,0.7-3.3-1-4.3c-0.9-0.6-2-0.9-3-1.1
		c-1.6-0.3-3.2-0.2-4.8-0.3c-2.1-0.1-4.3-0.4-6.2-1.5c-2-1.3-3.1-3.1-3-5.5C38.8,81.5,39.2,80.4,39.7,79.3z"/>
	<path class="st6" d="M70,113.3c0,0.7-0.1,1.4,0,2.1c0.5,2.9,2.4,4.5,5.1,5.3c2.7,0.7,5.1-0.1,7.2-1.9c2.1-1.8,3.3-4.1,4.1-6.8
		c0-0.1,0.1-0.2,0.1-0.3c0.6,0.1,1.2,0.1,1.7,0.3c2,0.4,4.1,0.8,6.2,1.2c0.1,0,0.3,0,0.4,0c0,0.1,0,0.2-0.1,0.3
		c-0.6,2.1-1,4.2-1.1,6.3c-0.1,1.2,0,2.4-0.1,3.6c-1.1,0.2-2.2,0.4-3.3,0.6c-1.5,0.2-3,0.3-4.5,0.6c-1,0.2-1.9,0.2-2.9,0.2
		c-2.4,0.2-4.7,0.2-7.1,0.4c-2.2,0.2-4.3,0.6-6.5,0.8c-1.7,0.2-3.4,0.3-5.1,0.2c-1.3-0.1-2.6-0.3-3.9-0.8c-1.6-0.6-2-1.9-1.2-3.5
		c0.1-0.2,0.2-0.3,0.2-0.5c0.2,0,0.2-0.3,0.3-0.4c0.8-1.1,1.8-2.1,2.8-3c0.6-0.5,1.2-1.1,1.9-1.5c1.1-0.8,2.1-1.6,3.3-2.2
		C68.4,113.9,69.2,113.5,70,113.3z"/>
	<path class="st5" d="M129.5,73.8c0.8,0.2,1.7,0.4,2.5,0.6c1.8,0.4,3.3,1.2,4.7,2.4c0.6,0.7,1.1,1.4,1.5,2.2c0.6,1.5,0.5,3-0.3,4.5
		c-0.5,0.7-1.1,1.3-1.7,1.9c-0.4,0.3-0.9,0.6-1.3,0.9c-2.1,1.2-4.3,2.3-6.5,3.4c-1.8,0.9-3.7,1.8-5.6,2.8c-1.8,0.8-3.6,1.7-5.4,2.5
		c-0.2,0.1-0.3,0.2-0.5,0.1l0,0c0.4-0.4,0.9-0.7,1.3-1c2.1-1.4,4.3-2.8,6.4-4.2c0.3-0.2,0.5-0.4,0.8-0.6c0.1,0,0.2-0.1,0.3-0.1
		c2.2-1.4,4.5-2.8,6.7-4.2c0.9-0.6,1.8-1.1,2.6-1.9c1.1-1.2,1.1-2.4,0.1-3.6c-0.7-0.8-1.5-1.3-2.5-1.7c-1.2-0.4-2.5-0.6-3.8-0.8
		c-1.2-0.3-2.4-0.5-3.5-1c-2.1-0.9-3.6-2.5-4.2-4.7c-0.4-1.2-0.3-2.5,0.3-3.6c0.1-0.1,0.1-0.3,0.2-0.4c0.6-0.8,1.3-1.4,2.2-1.9
		c0.7-0.4,1.5-0.6,2.3-0.8c0.9-0.2,1.8-0.4,2.6-0.6c0.5-0.2,0.9-0.3,1.3-0.7c0.1,0,0.1-0.1,0.1-0.2c0,0,0.1,0,0.1-0.1
		c0.3-0.3,0.4-0.6,0.4-1c0-1-0.4-1.9-1.1-2.6c-0.1-0.3-0.4-0.4-0.6-0.6c-1.2-0.8-2.6-1.3-4.1-1.5c-0.1-0.1-0.2-0.1-0.3-0.1
		c-2.1-0.4-4.2-0.7-6.2-1.7c-1.4-0.7-2.6-1.6-3.4-3c-1.3-2.3-1.1-4.6-0.1-6.9c1-2.2,2.6-3.8,4.7-4.9c0.1-0.1,0.2-0.1,0.4-0.2
		c2.7-1.3,6.5-1.8,8.5-1.9c-0.2,0.2-0.5,0.2-0.7,0.2c-0.2,0.1-0.5,0.1-0.7,0.2c-2.2,0.6-4.4,1.3-6.4,2.5c-0.1,0.1-0.2,0.1-0.3,0.2
		c-2.4,1.5-3.8,3.6-4,6.5c-0.2,2.5,1.9,4.9,4.3,5.1c0.7,0.3,1.4,0.4,2.1,0.5c0.3,0.1,0.5,0.1,0.8,0.2c1.4,0.2,2.9,0.4,4.3,0.8
		c0.9,0.3,1.9,0.7,2.8,1.2c2,1.3,3.2,3.2,3.4,5.6c0.1,2.1-0.9,3.7-2.6,4.7c-0.3,0.2-0.7,0.4-1.1,0.5c-1,0.3-2,0.6-3,0.8
		c-0.6,0.2-1.3,0.3-1.8,0.6c-0.9,0.5-1.2,1.3-0.8,2.2c0.3,1,1,1.7,1.9,2.1C127.4,73.3,128.4,73.6,129.5,73.8z"/>
	<path class="st6" d="M122.9,92.3c1.9-0.9,3.7-1.8,5.6-2.8c2.2-1.1,4.4-2.2,6.5-3.4c0.5-0.3,0.9-0.6,1.3-0.9c0,1.4,0,2.8,0,4.2
		c0,0.2,0,0.4,0,0.6c0,0.1-0.1,0.1-0.1,0.2c-0.6,4.7-2.8,8.5-6.3,11.6c-1.8,1.6-3.8,2.8-6,3.6c-0.1,0-0.2,0-0.2,0
		c0,0-0.1,0.1-0.1,0.1c0,0,0,0,0,0c0,0-0.1,0.1-0.1,0.1c0,0,0,0,0,0c-0.6,0-1.2,0.3-1.8,0.3c-0.3,0-0.6,0.2-0.8-0.1
		c0.1-0.2,0.3-0.3,0.4-0.5c0.6-0.5,1.3-0.6,2.1-0.7c1-0.1,2.1-0.2,3-0.7c0.7-0.3,1.4-0.7,1.6-1.6c0.1,0,0.1-0.1,0-0.1
		c-0.1,0-0.1,0.1-0.1,0.1c-1,1-2.2,1.2-3.5,1.1c-0.8-0.1-1.6-0.1-2.5,0c-1,0.1-1.9,0.5-2.7,1.3c-0.4,0.4-0.6,0.8-0.9,1.2
		c-2-0.5-3.5-1.6-4-3.6c-0.3-1.1-0.1-2.1,0.4-3.1c0.5-1.1,1.4-2,2.3-2.8c1.5-1.3,3.3-2.1,4.9-3.3c0.3-0.2,0.6-0.5,0.9-0.7
		C122.9,92.5,123,92.5,122.9,92.3z"/>
	<path class="st4" d="M41.8,88.2c1.9,1.1,4,1.4,6.2,1.5c1.6,0.1,3.2,0,4.8,0.3c1.1,0.2,2.1,0.5,3,1.1c1.7,1,2.1,2.7,1,4.3
		c-0.7,1.1-1.7,1.9-2.8,2.5c-1,0.5-2,1-3.1,1.5c-2.9,1.3-5.1,3.2-6.2,6.3c-0.5-0.4-1-0.9-1.6-1.1c-0.9-0.4-2-0.2-2.4,0.7
		c-0.2,0-0.3-0.2-0.3-0.4c-0.8-1.3-1.4-2.7-1.8-4.3c-0.3-1.2-0.4-2.5-0.7-3.7c0-0.1,0-0.2,0-0.3c0.4,0.3,0.7,0.7,1.2,0.7
		c1.4,0.1,2.6-0.6,3.2-1.8C43,94,43,92.5,42.6,91C42.4,90.1,42,89.2,41.8,88.2z"/>
	<path class="st5" d="M118.4,106c0.3-0.4,0.6-0.8,0.9-1.2c0.7-0.8,1.7-1.2,2.7-1.3c0.8-0.1,1.6,0,2.5,0c1.3,0.1,2.5-0.1,3.5-1.1l0,0
		c-0.2,0.9-0.9,1.3-1.6,1.6c-1,0.5-2,0.5-3,0.7c-0.7,0.1-1.5,0.2-2.1,0.7c-0.2,0.1-0.4,0.2-0.4,0.5c-0.3,0.2-0.4,0.5-0.5,0.8
		c-0.5,1.1-0.7,2.2-0.9,3.4c-0.3,1.1-0.6,2.2-1.1,3.3c-1,2.2-2.5,4-5,4.9c-1.3,0.4-2.6,0.5-3.9,0.2c-0.1,0-0.2,0-0.3-0.1
		c-0.1,0-0.2-0.1-0.2-0.1c-1.5-0.6-2.5-1.6-3.2-3c-0.3-0.6-0.4-1.3-0.6-1.9c-0.2-1.4-0.2-2.7-0.4-4.1c-0.1-0.9-0.4-1.8-1-2.5
		c-0.6-0.7-1.2-0.8-1.9-0.4c-0.4,0.3-0.8,0.6-1.1,1c-1.4,1.8-2.5,3.9-3.5,6c-0.3,0.6-0.6,1.3-0.9,2c-1,2.6-1.7,5.2-2.2,8
		c-0.2,0.4-0.1,0.8-0.2,1.1c-0.1,0.2-0.1,0.5-0.2,0.7c-0.1-0.6-0.1-1.2-0.2-1.7c0-1.2,0-2.4,0.1-3.6c0.1-2.2,0.5-4.3,1.1-6.3
		c0-0.1,0-0.2,0.1-0.3c0.6-1.7,1.1-3.3,1.9-4.9c0.7-1.4,1.4-2.8,2.6-3.9c2.5-2.3,5.7-1.8,7.5,1c1,1.5,1.3,3.2,1.4,4.9
		c0.1,0.8,0.1,1.6,0.3,2.4c0,0.4,0.1,0.7,0.3,1c0.5,1.2,1.7,1.9,3,1.6c1.3-0.1,2.2-0.7,3.1-1.6c1-1.1,1.6-2.4,2.1-3.7
		C117.3,108.7,117.7,107.3,118.4,106z"/>
	<path class="st4" d="M87.8,20.3c-0.7,0.1-1.5,0.1-2.2,0.2c-4.8,0.7-9.4,1.9-14,3.3c-4.7,1.4-9.2,3.2-13.7,5.2
		c-1.3,0.6-2.7,1.1-3.9,1.7c-0.6,0.3-1.2,0.8-1.8,1.2c-0.4-0.3-0.2-0.7-0.3-1c-0.2-1.4-0.6-2.8-1.2-4.2c-0.2-0.4-0.4-0.9-0.5-1.3
		c-0.2-0.9,0.3-1.5,1-1.9c1.5-1,3.2-1.6,4.9-2.2c0.8-0.2,1.5-0.5,2.3-0.7c0,0.9,0.1,1.7,0.5,2.5c1,1.7,2.3,2.2,4.1,1.8
		c0.9-0.2,1.6-0.7,2.3-1.3c1.3-1,2.7-2.1,4.2-2.8c0.6-0.3,1.3-0.6,1.9-0.9c1.3-0.6,2.7-0.9,4.1-1.2c1.7-0.3,3.4-0.4,5-0.3
		c0.6,0,1.3,0.1,1.9,0.2c1.1,0.1,2.3,0.4,3.4,0.7C86.5,19.7,87.2,19.9,87.8,20.3z"/>
	<path class="st7" d="M87.8,20.3c-0.6-0.5-1.4-0.7-2.1-0.9c-1.1-0.3-2.2-0.6-3.4-0.7c-0.6-0.1-1.3-0.2-1.9-0.2c-1.7,0-3.4,0-5,0.3
		c-1.4,0.3-2.8,0.6-4.1,1.2c-0.6,0.3-1.3,0.5-1.9,0.9c-1.5,0.8-2.8,1.8-4.2,2.8c-0.7,0.5-1.5,1.1-2.3,1.3c-1.8,0.4-3.1-0.1-4.1-1.8
		c-0.4-0.8-0.6-1.6-0.5-2.5c0-0.2,0-0.3,0-0.5c1.9-0.7,3.8-1.2,5.8-1.8c4.6-1.3,9.2-2.2,13.9-2.8c3.2-0.4,6.4-0.7,9.6-0.8
		c0.4,0,0.7,0,1.1,0c0,0-0.1,0.1-0.1,0.1c0.8,0.4,1.5,1.1,2.3,1.5c0,0,0,0.1,0.1,0.1c1.3,1,2.5,2.1,3.9,3c-1.8,0.4-3.7,0.5-5.5,0.7
		C88.8,20.3,88.3,20.3,87.8,20.3z"/>
	<path class="st6" d="M92.4,22.6c0.9-0.2,1.9-0.3,2.8-0.5c1.2-0.2,2.4-0.5,3.6-0.9c0,0.1,0.1,0.1,0.1,0.2c1.1,0.2,2.2,0.2,3.3-0.2
		c0.5-0.2,1-0.5,1.5-0.8c0.5-0.3,0.9-0.7,1.1-1.3c0.2-0.1,0.3-0.3,0.4-0.5c0.3-0.6,0.7-1.3,1-1.9c0.5-1.1,1.4-2,2.3-2.8
		c0.3-0.2,0.5-0.2,0.7,0.2c0.3,0.9,0.5,1.8,0.6,2.7c0,0.4,0.1,0.7,0.1,1.1c0,0.9-0.2,1.9-0.4,2.8c-0.2,1.3-0.7,2.5-1.4,3.6
		c-0.8,1.1-1.9,1.8-3.2,2.2c-0.1,0-0.2,0-0.2,0.1c-1.3,0.1-2.5,0.1-3.8,0.2c0,0-0.1-0.1-0.1-0.1c-1.5-0.1-2.8-0.7-4.1-1.3
		c-1.4-0.7-2.8-1.6-4.1-2.5C92.5,22.8,92.4,22.7,92.4,22.6z"/>
	<path class="st8" d="M70,113.3c-0.8,0.2-1.5,0.7-2.3,1c-1.2,0.6-2.3,1.4-3.3,2.2c-0.7,0.5-1.3,1-1.9,1.5c-1,0.9-2,1.9-2.8,3
		c-0.1,0.1-0.1,0.4-0.3,0.4c-0.6-0.5-1.3-0.9-1.9-1.4c-0.4-0.4-1-0.6-1.2-1.2c1.3-0.3,2.5-0.8,3.7-1.6c2.2-1.5,3.3-3.6,4-6
		c0.5-1.6,0.8-3.3,1.3-4.9c0.5-1.3,1.2-2.4,2.4-3.1c2-1.3,3.8-0.4,4,1.9c0.1,1,0,2-0.3,3C70.9,109.8,70.3,111.5,70,113.3z"/>
	<path class="st7" d="M94.1,123.3c0.4-2.7,1.2-5.4,2.2-8c0.3-0.7,0.5-1.4,0.9-2c0,0.2,0.1,0.2,0.3,0.2c0.3,0,0.7,0.1,1,0.1
		c2,0.1,4,0,6-0.5c0.3-0.1,0.5-0.1,0.7,0.2c0.2,0.6,0.3,1.3,0.6,1.9c0.7,1.4,1.7,2.4,3.2,3c0.1,0,0.2,0.1,0.2,0.1
		c-0.5,0.5-1.1,0.7-1.7,1c-2.9,1.3-5.9,2.3-9,3.1C97,122.8,95.6,123.1,94.1,123.3z"/>
	<path class="st9" d="M41.8,88.2c0.2,0.9,0.6,1.8,0.8,2.8c0.3,1.5,0.4,3-0.3,4.4c-0.6,1.3-1.8,1.9-3.2,1.8c-0.6,0-0.8-0.5-1.2-0.7
		c-1.8-3.2-2.6-6.6-2.3-10.2c0.3-1.5,0.8-3,1.3-4.5c0.2-0.5,0.4-1,0.6-1.5c0.5-1.1,1-1.2,2.2-1c-0.5,1.1-0.8,2.3-0.9,3.5
		C38.8,85.1,39.8,87,41.8,88.2z"/>
	<path class="st7" d="M84.8,13.2c-0.9,0.1-1.7,0.2-2.6,0.3c-3.8,0.5-7.5,1.2-11.2,2.1c-4.1,1-8.1,2.3-12.1,3.8
		c-0.1,0-0.2,0.1-0.3,0.1c0.2-0.9,0.7-1.7,1.3-2.3c1.5-1.7,3.4-2.8,5.5-3.8c2-0.9,4.1-1.5,6.2-1.8c0.7-0.1,1.4-0.2,2.2-0.2
		c1-0.1,2-0.1,3,0c2.1,0.1,4.2,0.5,6.3,1.1C83.6,12.7,84.2,12.8,84.8,13.2z"/>
	<path class="st9" d="M40.7,105.2c0.4-0.8,1.5-1.1,2.4-0.7c0.6,0.3,1.1,0.7,1.6,1.1c-0.3,1.2-0.6,2.4-0.6,3.7c0,0.7,0.2,1.3,0.2,2
		c-0.5-0.2-0.7-0.7-1-1.1c-0.8-1-1.5-2.1-2.2-3.2c-0.2-0.3-0.3-0.7-0.4-1.1c0,0,0-0.1,0-0.1C40.6,105.6,40.7,105.4,40.7,105.2z"/>
	<path class="st8" d="M104.9,19.1c-0.2,0.6-0.7,1-1.1,1.3c-0.5,0.3-0.9,0.6-1.5,0.8c-1.1,0.4-2.2,0.4-3.3,0.2c0,0-0.1-0.1-0.1-0.2
		c0.7-0.3,1.5-0.6,2.2-1c0.4-0.3,0.8-0.6,1.1-0.9c0.2,0.2,0.4,0,0.6,0C103.5,19.3,104.2,19.3,104.9,19.1z"/>
	<path class="st8" d="M119.4,110.1c0.2-1.1,0.4-2.3,0.9-3.4c0.1-0.3,0.3-0.6,0.5-0.8c0.2,0.3,0.5,0.1,0.8,0.1
		c0.6-0.1,1.2-0.4,1.8-0.3c-0.5,0.7-1.1,1.2-1.7,1.8c-0.6,0.6-1.1,1.3-1.7,2C119.9,109.8,119.7,110,119.4,110.1z"/>
	<path class="st8" d="M136.3,89.5c0-1.4,0-2.8,0-4.2c0.7-0.6,1.2-1.2,1.7-1.9c0.2,0.2,0,0.4,0,0.6c-0.3,1.8-0.8,3.5-1.5,5.2
		C136.5,89.4,136.5,89.5,136.3,89.5z"/>
	<path class="st8" d="M138.3,79c-0.4-0.8-0.9-1.5-1.5-2.2c0.3-0.8,0.6-1.6,0.9-2.4c0-0.1,0.1-0.1,0.1-0.2c0.3,0.6,0.3,1.3,0.4,2
		c0.1,0.8,0.2,1.6,0.2,2.3C138.4,78.7,138.4,78.8,138.3,79z"/>
	<path class="st4" d="M133.1,51c-0.6-0.5-1-1.1-1.4-1.7c-0.6-0.8-1.2-1.7-1.5-2.7c0-0.1-0.1-0.2-0.1-0.4c0.6,0.3,0.9,0.9,1.3,1.4
		c0.7,1,1.3,2,1.7,3.2C133,50.9,133.1,51,133.1,51z"/>
	<path class="st10" d="M54.1,21.6c0,0.1,0,0.1,0,0.2c-0.5,0.2-0.9,0.3-1.4,0.5c0,0,0-0.1,0-0.1C53.2,21.9,53.6,21.7,54.1,21.6z"/>
	<path class="st9" d="M52.8,22.1c0,0,0,0.1,0,0.1c-0.2,0.2-0.4,0.2-0.7,0.2l0,0C52.3,22.3,52.5,22.2,52.8,22.1z"/>
	<path class="st9" d="M52.1,22.5C52.1,22.5,52,22.5,52.1,22.5C52,22.5,52.1,22.5,52.1,22.5C52.1,22.5,52.1,22.5,52.1,22.5z"/>
	<path class="st8" d="M136.2,90.3c0-0.1,0.1-0.1,0.1-0.2C136.3,90.2,136.3,90.2,136.2,90.3z"/>
	<path class="st8" d="M123.6,105.7C123.6,105.6,123.6,105.6,123.6,105.7C123.6,105.6,123.6,105.6,123.6,105.7z"/>
	<path class="st8" d="M123.5,105.8C123.5,105.7,123.5,105.7,123.5,105.8C123.5,105.7,123.5,105.7,123.5,105.8z"/>
	<path class="st4" d="M40.6,105.7c0,0,0,0.1,0,0.1C40.6,105.8,40.6,105.8,40.6,105.7z"/>
	<path class="st4" d="M130,46.2C130,46.1,130,46.1,130,46.2C130,46.1,130,46.1,130,46.2z"/>
	<path class="st10" d="M34.2,111.9c0.1,0.9-0.1,1.8-0.4,2.7c-0.1,0.5-0.9,0.8-1.4,0.6c-1-0.5-1.7-1.4-2.2-2.3
		c-0.6-1-0.9-2.2-1.2-3.3c-0.5-1.6-1.1-3-1.9-4.4c-0.8-1.5-1.7-2.8-2.7-4.1c-1.1-1.4-2.2-2.7-3.5-3.8c-1.1-1-2.1-2-2.8-3.3
		c-0.8-1.4-1.2-2.9-0.3-4.5c0.5-1,1.4-1.4,2.5-1.5c1.7-0.2,2.4,1.4,2.6,2.6c0.1,1.2,0.5,2.3,1.3,3.2c1.1,1.2,2.4,2.2,3.6,3.3
		c1,1,2,2.1,2.8,3.3c0.8,1.2,1.6,2.4,2.1,3.8c0.1,0.4,0.4,0.8,0.6,1.2c0.4,1,0.7,2.1,0.8,3.2C34.1,109.6,34.3,110.7,34.2,111.9z"/>
	<path class="st10" d="M70.5,3.6c1.2,0.1,2.7,0,4.2,0.3c0.2,0,0.4,0.1,0.5,0.2c0.3,0.2,0.3,0.5,0.1,0.8c-0.4,0.4-0.9,0.6-1.4,0.8
		c-1.3,0.6-2.7,0.8-4.1,0.7c-0.9-0.1-1.8,0-2.7-0.1c-1.2,0-2.3,0.2-3.4,0.5c-1.6,0.4-3,1.1-4.4,1.9c-1.6,0.9-3.3,1.8-4.9,2.7
		c-1.3,0.6-2.6,1.1-4,1.4c-0.9,0.2-2.3-0.4-2.7-1.2c-0.4-0.8-0.3-1.7,0.1-2.5c0.6-1,1.5-1.6,2.5-2c1.7-0.6,3.4-0.9,5.1-1.4
		c1.1-0.3,2.3-0.5,3.5-0.9c1-0.3,2-0.4,3-0.7c2-0.5,4.1-0.5,6.1-0.6C68.7,3.7,69.4,3.6,70.5,3.6z"/>
	<path class="st11" d="M60.4,94.8c0.3-1.8-0.1-3.5-1.3-4.9c-0.2-1.5-0.7-2.9-1.7-4.1c-1.7-1.8-3.4-3.6-4.8-5.7
		c-0.9-1.3-1.5-2.6-1.7-4.2c-0.2-1.3,0.1-2.4,0.5-3.6c0.6-1.8,0.9-3.6,1.1-5.5c0.2-2,0.4-3.9,0.9-5.9c0.5-1.9,1.3-3.6,2.7-5.1
		c1.2-1.3,2.4-2.6,3.7-3.8c1.4-1.3,2.9-2.6,4.5-3.8c1.7-1.3,3.4-2.4,5.2-3.5c1.7-1,3.4-1.8,5.3-2.5c0.2-0.1,0.3-0.1,0.3-0.3
		c1.9-0.5,3.8-0.8,5.7-1.2c2.7-0.5,5.3-1,8-1.4c0.2,0,0.4,0,0.6,0c0.4,0.2,0.9,0.2,1.4,0.3c1.4,0.4,2.8,0.3,4.2,0.6
		c1.2,0.2,2.3,0.6,3.3,1.2c1.8,1,3.3,2.3,4.7,3.7c1.2,1.3,2.5,2.6,3.3,4.2c1.2,2.3,3,4.1,4.6,6.1c2,2.5,3.7,5.1,4.7,8.1
		c0.5,1.5,1,3,1.3,4.5c0.2,0.9,0.3,1.9,0.3,2.8c0,0.6,0.1,1.2,0.1,1.7c-0.1,3-0.7,6-1.8,8.8c-1,2.4-2.3,4.5-3.9,6.4
		c-1.3,1.6-2.7,3-4.3,4.3c-1.3,1.1-2.7,2.1-4.1,3.1c-1.8,1.3-3.6,2.7-5.4,4c-1.6,1.2-3.3,2.2-5.2,3c-2,0.9-4.2,1.2-6.4,1
		c-0.6-0.1-1.3-0.2-1.9-0.4c-1.7-0.5-3.4-0.8-5.1-1c-2-0.3-4-0.4-6-0.5c-1-1.2-2.4-1.9-4-1.9c-1.1,0-2.1,0.4-3.1,1
		c-0.1,0.1-0.3,0.2-0.4,0.2c-0.1-0.1-0.3-0.1-0.4-0.2c-1.7-1.1-3.1-2.6-4.1-4.5C61,95.8,60.8,95.2,60.4,94.8z M60,86.2L60,86.2
		c0.2,0.8,0.3,1.6,0.4,2.5c0.3,1.9,1.4,2.8,3.3,3c0.7,0.1,1.3,0.1,2,0.1c2.1,0.1,3.6,1,4.4,2.9c0.4,0.9,0.7,1.7,1.1,2.6
		c0.7,1.7,2,2.8,3.9,3.1c1.3,0.2,2.5,0,3.7-0.4c1.7-0.4,3.3-0.7,5.1-0.5c2.5,0.3,4.9,0.6,7.4,0.4c2.6-0.2,5.1-1,7.2-2.5
		c1.7-1.3,3.2-2.8,4.7-4.4c2.8-3,5.2-6.4,6.9-10.2c1.5-3.5,2.4-7,2.2-10.9c-0.2-3-1-5.8-2.4-8.4c-2.3-4.4-5.7-7.7-9.8-10.2
		c-0.2-0.1-0.3-0.2-0.4-0.4c-0.9-1.1-1.9-2.1-3-3.1c-0.5-0.4-0.9-0.8-1.4-1.1l0,0c0-0.2-0.2-0.2-0.3-0.2c-0.4-0.3-0.7-0.6-1.1-0.9
		c-5.1-3.2-10.6-4.5-16.6-3.6c-8.6,1.3-15,6-19.3,13.4c-2.7,4.7-3.7,9.9-3.1,15.3c0.3,3,1.1,5.9,2.8,8.5c0.4,0.7,0.8,1.4,1.2,2.1
		C59.2,84.2,59.6,85.1,60,86.2C59.9,86.2,59.9,86.2,60,86.2z"/>
	<path class="st7" d="M85.8,111.6c-1,3-2.7,5.5-5.5,7c-1.6,0.9-3.3,1-5.1,0.3c-2.4-0.9-3.5-2.9-2.9-5.4c0.1-0.4,0.2-0.8,0.3-1.2
		c2-0.5,4.1-0.9,6.2-1c0.9,0,1.9-0.1,2.8-0.1c1.3,0,2.5,0.1,3.8,0.3C85.5,111.6,85.7,111.5,85.8,111.6z"/>
	<path class="st7" d="M128.9,76.9c1.3,0.2,2.6,0.4,3.8,0.8c1,0.3,1.9,0.9,2.5,1.7c1,1.2,1,2.4-0.1,3.6c-0.7,0.8-1.7,1.4-2.6,1.9
		c-2.2,1.4-4.5,2.8-6.7,4.2c-0.1,0.1-0.2,0.1-0.3,0.1c-0.1-0.1-0.1-0.3,0-0.4c0.9-1.7,1.3-3.6,1.8-5.5c0.4-1.7,0.9-3.4,1.3-5.1
		C128.7,77.8,128.8,77.4,128.9,76.9z"/>
	<path class="st9" d="M126,64.5c-0.8,0.2-1.5,0.5-2.3,0.8c-0.9,0.4-1.6,1.1-2.2,1.9c-0.2-0.8-0.3-1.6-0.7-2.4
		c-0.5-1.3-1.2-2.5-1.8-3.7c-0.7-1.4-1.1-2.8-1.1-4.4c0-0.4,0.2-0.8,0.2-1.2c2,1,4.1,1.3,6.2,1.7c0.1,0,0.2,0,0.3,0.1
		C125.6,59.6,126.3,62,126,64.5z"/>
	<path class="st7" d="M111.7,115.4c-1.3,0.2-2.5-0.4-3-1.6c-0.1-0.3-0.3-0.7-0.3-1c0.8-0.2,1.6,0,2.3,0.4c0.8,0.4,1.2,1,1,1.9
		C111.8,115.1,111.7,115.2,111.7,115.4z"/>
	<path class="st11" d="M111.7,115.4c0-0.1,0.1-0.3,0.1-0.4c0.9-0.3,1.7-0.6,2.5-1.1c0.1-0.1,0.3-0.1,0.4-0.1
		C113.9,114.7,113,115.3,111.7,115.4z"/>
	<path class="st10" d="M87.3,106.8c0,0-0.1,0-0.1,0c0-0.4,0.1-0.7,0.2-1.1C87.5,106.1,87.4,106.4,87.3,106.8z"/>
	<path class="st10" d="M87.3,107.4C87.2,107.3,87.2,107.3,87.3,107.4C87.3,107.3,87.3,107.3,87.3,107.4
		C87.3,107.3,87.3,107.3,87.3,107.4z"/>
	<path class="st6" d="M86.5,111.5c0,0,0-0.1,0-0.1C86.6,111.5,86.6,111.5,86.5,111.5z"/>
	<path class="st5" d="M117,95C117,95,117,95.1,117,95C117,95.1,117,95.1,117,95C117,95,117,95,117,95C117,95,117,95,117,95z"/>
	<path class="st5" d="M41.2,64.2c0,0.1-0.1,0.2-0.2,0.2c0,0,0,0,0,0C41,64.3,41,64.2,41.2,64.2C41.1,64.2,41.2,64.2,41.2,64.2z"/>
	<path class="st5" d="M47.8,53.9C47.8,53.9,47.8,53.9,47.8,53.9C47.8,53.9,47.8,53.9,47.8,53.9C47.8,53.9,47.8,53.9,47.8,53.9
		C47.8,53.9,47.8,53.9,47.8,53.9z"/>
	<path class="st5" d="M47.9,54.1C47.9,54.1,47.9,54.1,47.9,54.1C47.9,54.1,47.8,54.1,47.9,54.1C47.8,54.1,47.9,54.1,47.9,54.1
		C47.9,54.1,47.9,54.1,47.9,54.1z"/>
	<path class="st5" d="M41.1,64.2C41.1,64.1,41.2,64.1,41.1,64.2c0.1-0.1,0.1,0,0.2,0C41.3,64.2,41.2,64.2,41.1,64.2
		C41.2,64.2,41.1,64.2,41.1,64.2z"/>
	<path class="st5" d="M41,64.4C41,64.5,41,64.5,41,64.4C40.9,64.4,40.9,64.4,41,64.4C41,64.4,41,64.4,41,64.4z"/>
	<path class="st8" d="M92.4,22.6c0,0.2,0.1,0.2,0.2,0.3c1.3,0.9,2.7,1.8,4.1,2.5c1.3,0.6,2.6,1.2,4.1,1.3c0,0,0.1,0,0.1,0.1
		c-2.2,0.2-4.3,0.4-6.5,0.7c-4.5,0.6-8.9,1.5-13.3,2.4c-3.9,0.8-7.5,2.3-11.2,3.8c-3.1,1.2-6.1,2.4-9.4,3c-1.4,0.3-2.9,0.5-4.4,0.2
		c-0.8-0.1-1.5-0.4-2-1.2c-0.2-0.4-0.2-0.7,0.2-1.1c0.4-0.4,0.9-0.7,1.4-0.9c9-4.3,18.2-7.9,27.9-9.9c2.6-0.5,5.3-0.8,8-1.1
		C91.9,22.7,92.2,22.5,92.4,22.6z"/>
	<path class="st11" d="M90.9,16.4c-0.8-0.4-1.5-1-2.3-1.5c0,0,0.1-0.1,0.1-0.1c2.9-0.1,5.8-0.1,8.7,0.8c0.8,0.3,1.7,0.6,2.4,1.1
		c0.9,0.6,0.8,0.9-0.1,1.4c-0.6,0.3-1.3,0.6-2,0.7c-0.1-0.3-0.4-0.3-0.7-0.3c-0.8-0.2-1.5-0.4-2.3-0.7
		C93.5,17.4,92.2,16.8,90.9,16.4z"/>
	<path class="st8" d="M90.9,16.4c1.3,0.4,2.6,0.9,3.9,1.4c0.8,0.3,1.5,0.5,2.3,0.7c0.2,0,0.6,0,0.7,0.3c-0.9,0.3-1.9,0.5-2.9,0.6
		c-1.4-0.9-2.6-1.9-3.9-3C90.9,16.5,90.9,16.5,90.9,16.4z"/>
	<path class="st8" d="M120.4,53.4c-2.5-0.2-4.5-2.6-4.3-5.1c0.2-2.8,1.7-5,4-6.5c0.3,0.3,0.3,0.8,0.5,1.2c0.7,1.5,1.5,2.9,2.4,4.2
		c1,1.5,2,3,3,4.6c0.6,1,1.1,2,1.6,3.1c-1.4-0.4-2.9-0.6-4.3-0.8c-0.3,0-0.6,0-0.8-0.2C122.1,53.1,121.1,52.9,120.4,53.4z"/>
	<path class="st8" d="M129.5,73.8c-1.1-0.2-2.2-0.5-3.1-1c-0.9-0.5-1.6-1.2-1.9-2.1c0.5-0.6,0.6-1.4,0.8-2.2
		c0.6-0.4,1.2-0.5,1.8-0.6c1-0.3,2-0.5,3-0.8c0.2,0.2,0.1,0.5,0.1,0.7c-0.2,1.2-0.2,2.5-0.3,3.7C129.8,72.2,129.6,73,129.5,73.8z"/>
	<path class="st4" d="M60.4,94.8c0.4,0.4,0.6,1,0.8,1.4c0.9,1.9,2.3,3.3,4.1,4.5c0.1,0.1,0.3,0.1,0.4,0.2c-2.4,1.7-3.4,4.2-4.1,6.9
		c-0.3,1.1-0.6,2.1-0.9,3.2c-0.8,2.3-2.4,3.8-4.8,4.4c0-0.1,0-0.2,0.1-0.2c0.7-1.3,0.5-2.5-0.3-3.7c-0.9-1.3-2.2-2.1-3.6-2.6
		c-1.4-0.6-2.9-0.9-4.4-1.4c0.2-1.2,0.7-2.2,1.5-3c1-1.1,2.4-1.7,3.7-2.4c1.5-0.7,2.9-1.4,4.2-2.4C58.7,98.3,59.9,96.8,60.4,94.8z"
		/>
	<path class="st9" d="M47.7,107.5c1.4,0.5,2.9,0.8,4.4,1.4c1.4,0.6,2.7,1.3,3.6,2.6c0.8,1.2,0.9,2.4,0.3,3.7c0,0.1,0,0.1-0.1,0.2
		c-2.4,0.6-4.6,0.3-6.4-1.4C47.7,112.3,47.2,110,47.7,107.5z"/>
	<path class="st8" d="M126,64.5c0.3-2.5-0.4-4.9-1.3-7.2c1.5,0.2,2.8,0.6,4.1,1.5c0.2,0.2,0.5,0.3,0.6,0.6c-0.3,0.3,0,0.5,0.1,0.7
		c0.1,0.9,0.3,1.7,0.5,2.6c0,0.1,0.1,0.2,0.2,0.2c0,0,0,0.1-0.1,0.1c-0.1,0-0.1,0.1-0.1,0.2c-0.4,0.4-0.8,0.5-1.3,0.7
		C127.8,64.2,126.9,64.3,126,64.5z"/>
	<path class="st7" d="M130.1,62.9c-0.1,0-0.2-0.1-0.2-0.2c-0.2-0.9-0.3-1.7-0.5-2.6c0-0.2-0.4-0.4-0.1-0.7c0.7,0.7,1.1,1.6,1.1,2.6
		C130.5,62.3,130.4,62.7,130.1,62.9z"/>
	<path class="st9" d="M125.3,68.4c-0.1,0.8-0.2,1.6-0.8,2.2C124,69.7,124.3,68.9,125.3,68.4z"/>
	<path class="st9" d="M120.4,53.4c0.7-0.5,1.7-0.2,2.1,0.5C121.8,53.8,121.1,53.7,120.4,53.4z"/>
	<path class="st7" d="M129.9,63.2c0-0.1,0-0.1,0.1-0.2C130,63.1,130,63.1,129.9,63.2z"/>
	<path class="st5" d="M127.9,102.5c0,0,0-0.1,0.1-0.1C128.1,102.4,128,102.5,127.9,102.5C128,102.5,127.9,102.5,127.9,102.5z"/>
	<path class="st8" d="M105.1,113.4c-0.2-0.3-0.4-0.3-0.7-0.2c-2,0.5-4,0.5-6,0.5c-0.3,0-0.7-0.1-1-0.1c-0.1,0-0.2,0-0.3-0.2
		c0.9-2.1,2-4.2,3.5-6c0.3-0.4,0.7-0.7,1.1-1c0.7-0.4,1.4-0.3,1.9,0.4c0.6,0.7,0.8,1.6,1,2.5C104.8,110.6,104.9,112,105.1,113.4z"/>
	<path class="st1" d="M60,86.2c0.2,0,0.3,0.2,0.4,0.3c2.8,2.5,5.9,4.4,9.4,5.6c3.1,1.1,6.3,1.6,9.5,1.4c5.6-0.3,10.6-2.2,15-5.7
		c3.5-2.9,6.1-6.4,7.7-10.7c1-2.5,1.5-5.1,1.6-7.8c0.1-2.7-0.1-5.3-0.8-7.8c-1-3.9-2.9-7.3-5.5-10.4c-0.6-0.7-1.2-1.3-1.9-1.9
		c-0.1-0.1-0.3-0.2-0.3-0.4c0.6,0.2,1,0.7,1.4,1.1c1.1,0.9,2.1,2,3,3.1c0.1,0.2,0.3,0.3,0.4,0.4c4.2,2.5,7.6,5.9,9.8,10.2
		c1.4,2.6,2.2,5.4,2.4,8.4c0.2,3.8-0.6,7.4-2.2,10.9c-1.7,3.8-4.1,7.1-6.9,10.2c-1.5,1.6-3,3.1-4.7,4.4c-2.1,1.6-4.6,2.4-7.2,2.5
		c-2.5,0.2-5-0.1-7.4-0.4c-1.7-0.2-3.4,0-5.1,0.5c-1.2,0.3-2.5,0.6-3.7,0.4c-1.9-0.3-3.1-1.4-3.9-3.1c-0.4-0.9-0.7-1.7-1.1-2.6
		c-0.8-1.9-2.3-2.9-4.4-2.9c-0.7,0-1.3,0-2-0.1c-1.9-0.2-3-1.1-3.3-3C60.3,87.8,60.2,87,60,86.2z M108.2,66.7
		c0.1-0.9-0.1-2.1-0.3-3.3c-0.1-0.4-0.3-0.7-0.5-0.9c-0.4-0.4-0.9-0.3-1.2,0.2c-0.3,0.6-0.5,1.3-0.5,2c0.1,1,0,2.1,0.1,3.1
		c0.1,1.2,0,2.5,0,3.7c-0.1,1.7-0.2,3.4-0.6,5c-0.3,1.2-0.6,2.4-1,3.6c-0.9,2.4-2.3,4.5-4,6.4c-1.3,1.5-2.7,2.9-4.3,4.2
		c-1.5,1.3-3.1,2.3-4.8,3.3c-1.2,0.7-2.5,1-3.9,1.4c-0.9,0.3-1.9,0.4-2.9,0.6c-0.9,0.2-1.7,0.4-2.6,0.5c-1,0.1-2,0.2-3,0.5
		c-0.3,0.1-0.2,0.3-0.1,0.4c0.3,0.3,0.6,0.4,1,0.6c0.9,0.4,1.8,0.1,2.6-0.1c1.3-0.3,2.6-0.6,3.9-0.8c1.2-0.2,2.3-0.3,3.5-0.7
		c1.3-0.4,2.6-0.7,3.9-1c1.6-0.4,3.2-0.8,4.7-1.5c0.8-0.4,1.6-0.9,2.1-1.6c0.8-1,0.9-2.3,1.1-3.5c0.2-0.9,0.5-1.7,1.1-2.4
		c0.8-1,2-1.6,3-2.5c0.4-0.3,0.8-0.7,1.1-1.1c0.6-0.9,1.1-1.7,1.4-2.8c0.2-0.8,0.5-1.6,0.5-2.5c0-0.3,0-0.5,0-0.8
		c0.2-1.4,0-2.8,0-4.2C108.4,70.6,108.1,68.8,108.2,66.7z"/>
	<path class="st1" d="M95.2,48.7c-0.2,0-0.2-0.1-0.3-0.2C95,48.5,95.2,48.6,95.2,48.7z"/>
	<path class="st1" d="M59.9,86.1C59.9,86.1,60,86.2,59.9,86.1C59.9,86.2,59.9,86.2,59.9,86.1z"/>
	<path class="st10" d="M108.2,66.7c0,2.1,0.2,3.9,0.3,5.8c0.1,1.4,0.3,2.8,0,4.2c0,0.3,0,0.5,0,0.8c0,0.9-0.3,1.7-0.5,2.5
		c-0.3,1-0.8,1.9-1.4,2.8c-0.3,0.5-0.7,0.8-1.1,1.1c-1,0.8-2.1,1.5-3,2.5c-0.6,0.7-0.9,1.5-1.1,2.4c-0.3,1.2-0.4,2.4-1.1,3.5
		c-0.5,0.7-1.3,1.2-2.1,1.6c-1.5,0.7-3.1,1.1-4.7,1.5c-1.3,0.3-2.6,0.6-3.9,1c-1.1,0.4-2.3,0.5-3.5,0.7c-1.3,0.2-2.6,0.5-3.9,0.8
		c-0.9,0.2-1.7,0.5-2.6,0.1c-0.4-0.1-0.7-0.3-1-0.6c-0.1-0.1-0.2-0.3,0.1-0.4c1-0.3,2-0.4,3-0.5c0.9-0.1,1.7-0.3,2.6-0.5
		c1-0.2,1.9-0.4,2.9-0.6c1.3-0.4,2.7-0.7,3.9-1.4c1.7-0.9,3.3-2,4.8-3.3c1.5-1.3,2.9-2.7,4.3-4.2c1.7-1.9,3.1-4,4-6.4
		c0.4-1.2,0.8-2.3,1-3.6c0.3-1.7,0.5-3.3,0.6-5c0-1.2,0.1-2.5,0-3.7c-0.1-1,0-2.1-0.1-3.1c0-0.7,0.2-1.4,0.5-2
		c0.2-0.5,0.8-0.6,1.2-0.2c0.3,0.3,0.5,0.6,0.5,0.9C108.1,64.6,108.3,65.8,108.2,66.7z"/>
</g>
</svg>
