<svg width="106" height="115" fill="none" xmlns="http://www.w3.org/2000/svg"><g clip-path="url(#a)" fill="#5F4A33"><path d="M88.384 12.512c-2.822.683-5.4 2.434-6.865 4.69l-.868 1.306-5.075.208c-2.794.119-5.78.326-6.648.445l-1.546.208-.57-1.247c-2.361-5.373-10.936-7.124-15.63-3.206-1.113.92-2.252 3.384-2.252 4.898v1.069l-2.497.208c-1.383.089-4.341.445-6.566.771-2.198.327-4.477.594-5.047.594h-1.032l.218-1.098c1.058-5.017-4.722-9.47-10.936-8.4-4.314.712-7.516 3.888-7.516 7.42 0 .505-.109.623-.462.475-1.248-.534-6.865-1.365-9.714-1.425l-3.175-.089-.65.831-.652.831v29.001c0 32.03-.054 30.93 1.71 34.166 1.628 2.969 4.748 5.284 8.031 5.967 1.981.415 82.68.415 84.716 0 3.364-.683 6.485-3.058 8.195-6.264 1.573-2.938 1.546-2.344 1.546-32.562V23.614l-.678-.713c-.543-.623-.896-.742-2.388-.742-.95 0-2.496-.089-3.419-.178-1.411-.178-1.655-.297-1.493-.683.082-.267.218-1.276.299-2.285.163-2.019-.353-3.503-1.737-4.928-1.573-1.632-4.45-2.256-7.299-1.573zm4.26 4.927c.651.386.679 1.782.027 2.642l-.488.683-2.578-.653-3.175-.801c-.787-.178-.57-.564.841-1.366 2.036-1.128 4.016-1.306 5.373-.505zm-64.69.861c2.198 1.069 2.415 2.613.543 3.86-.922.623-3.093.741-5.807.326-1.52-.238-2.795-1.217-2.795-2.137 0-.772 1.764-2.286 2.904-2.494.57-.119 1.167-.237 1.302-.297.516-.237 2.714.208 3.854.742zm31.776-.445c.76.267 1.763.802 2.225 1.247.76.683.814.801.407 1.068-.272.149-2.388.297-4.722.327-3.88.03-4.233 0-4.314-.505-.136-.801.678-1.662 2.09-2.137 1.654-.534 2.631-.534 4.314 0zm23.336 5.788c1.438.178 4.341.772 6.43 1.306 3.962 1.04 6.35 1.514 9.444 1.811l1.818.208v6.471H5.243v-9.291l2.387.178c2.443.208 3.908.505 9.145 1.84 1.655.446 4.26.92 5.834 1.099 3.907.415 12.862.089 17.502-.653 2.144-.327 6.73-.713 10.583-.89 8.873-.357 10.69-.505 14.924-1.218 6.702-1.128 12.618-1.425 17.448-.86zm17.692 35.027c0 19.621-.028 20.215-.57 21.788-.624 1.87-2.605 4.037-4.26 4.69-1.493.564-84.363.564-85.855 0-1.656-.653-3.637-2.82-4.26-4.69-.543-1.573-.57-2.167-.57-21.788V38.485h95.515V58.67z"/><path d="M53.542 49.32c-3.066 1.365-5.67 2.553-5.806 2.612-.272.089 1.14 4.363 1.438 4.363.271 0 11.26-4.808 11.505-5.046.217-.208-1.167-4.482-1.438-4.423-.082 0-2.632 1.128-5.699 2.494zM17.29 51.576c-.678.98-1.14 1.9-1.031 2.018.841.832 9.09 7.451 9.253 7.451.407-.03 2.605-3.592 2.36-3.83-.57-.563-9.062-7.45-9.171-7.45-.081 0-.706.802-1.411 1.811zM79.538 50.863c-.38.624-.869 1.484-1.113 1.9l-.461.772 3.555 2.582c1.953 1.425 3.581 2.553 3.608 2.494.57-.802 2.361-3.86 2.28-3.919-.651-.593-6.784-4.927-6.947-4.927-.135 0-.542.505-.922 1.098zM40.98 62.677l-3.447 2.553 1.113 1.84c.624 1.01 1.194 1.9 1.248 1.96.027.059 1.682-1.04 3.636-2.464l3.527-2.612-.46-.772c-1.466-2.494-1.819-3.028-1.982-3.028-.081 0-1.736 1.128-3.636 2.523zM72.808 65.646l-2.279 2.523 1.465 1.632 1.466 1.633 2.388-2.582 2.387-2.583-1.41-1.573c-.788-.861-1.493-1.573-1.575-1.573-.08 0-1.166 1.128-2.442 2.523zM60.136 67.22l-1.926 1.098 1.194 2.612 1.194 2.582 1.9-1.039c1.058-.564 1.899-1.157 1.872-1.276 0-.119-.516-1.306-1.14-2.642l-1.14-2.404-1.954 1.068z"/></g><defs><clipPath id="a"><path fill="#fff" transform="translate(.9 .84)" d="M0 0h104.198v113.986H0z"/></clipPath></defs></svg>