<?xml version="1.0" standalone="no"?>
<!DOCTYPE svg PUBLIC "-//W3C//DTD SVG 20010904//EN"
 "http://www.w3.org/TR/2001/REC-SVG-20010904/DTD/svg10.dtd">
<svg version="1.0" xmlns="http://www.w3.org/2000/svg"
 width="512.000000pt" height="512.000000pt" viewBox="0 0 512.000000 512.000000"
 preserveAspectRatio="xMidYMid meet">

<g transform="translate(0.000000,512.000000) scale(0.100000,-0.100000)"
fill="#000000" stroke="none">
<path d="M3864 3865 c-104 -23 -199 -82 -253 -158 l-32 -44 -187 -7 c-103 -4
-213 -11 -245 -15 l-57 -7 -21 42 c-87 181 -403 240 -576 108 -41 -31 -83
-114 -83 -165 l0 -36 -92 -7 c-51 -3 -160 -15 -242 -26 -81 -11 -165 -20 -186
-20 l-38 0 8 37 c39 169 -174 319 -403 283 -159 -24 -277 -131 -277 -250 0
-17 -4 -21 -17 -16 -46 18 -253 46 -358 48 l-117 3 -24 -28 -24 -28 0 -977 c0
-1079 -2 -1042 63 -1151 60 -100 175 -178 296 -201 73 -14 3047 -14 3122 0
124 23 239 103 302 211 58 99 57 79 57 1097 l0 933 -25 24 c-20 21 -33 25 -88
25 -35 0 -92 3 -126 6 -52 6 -61 10 -55 23 3 9 8 43 11 77 6 68 -13 118 -64
166 -58 55 -164 76 -269 53z m157 -166 c24 -13 25 -60 1 -89 l-18 -23 -95 22
c-52 12 -104 24 -117 27 -29 6 -21 19 31 46 75 38 148 44 198 17z m-2384 -29
c81 -36 89 -88 20 -130 -34 -21 -114 -25 -214 -11 -56 8 -103 41 -103 72 0 26
65 77 107 84 21 4 43 8 48 10 19 8 100 -7 142 -25z m1171 15 c28 -9 65 -27 82
-42 28 -23 30 -27 15 -36 -10 -5 -88 -10 -174 -11 -143 -1 -156 0 -159 17 -5
27 25 56 77 72 61 18 97 18 159 0z m860 -195 c53 -6 160 -26 237 -44 146 -35
234 -51 348 -61 l67 -7 0 -109 0 -109 -1760 0 -1760 0 0 156 0 157 88 -6 c90
-7 144 -17 337 -62 61 -15 157 -31 215 -37 144 -14 474 -3 645 22 79 11 248
24 390 30 327 12 394 17 550 41 247 38 465 48 643 29z m652 -1180 c0 -661 -1
-681 -21 -734 -23 -63 -96 -136 -157 -158 -55 -19 -3109 -19 -3164 0 -61 22
-134 95 -157 158 -20 53 -21 73 -21 734 l0 680 1760 0 1760 0 0 -680z"/>
<path d="M2580 2625 c-113 -46 -209 -86 -214 -88 -10 -3 42 -147 53 -147 10 0
415 162 424 170 8 7 -43 151 -53 149 -3 0 -97 -38 -210 -84z"/>
<path d="M1244 2549 c-25 -33 -42 -64 -38 -68 31 -28 335 -251 341 -251 15 1
96 121 87 129 -21 19 -334 251 -338 251 -3 0 -26 -27 -52 -61z"/>
<path d="M3538 2573 c-14 -21 -32 -50 -41 -64 l-17 -26 131 -87 c72 -48 132
-86 133 -84 21 27 87 130 84 132 -24 20 -250 166 -256 166 -5 0 -20 -17 -34
-37z"/>
<path d="M2117 2175 l-127 -86 41 -62 c23 -34 44 -64 46 -66 1 -2 62 35 134
83 l130 88 -17 26 c-54 84 -67 102 -73 102 -3 0 -64 -38 -134 -85z"/>
<path d="M3290 2075 l-84 -85 54 -55 54 -55 88 87 88 87 -52 53 c-29 29 -55
53 -58 53 -3 0 -43 -38 -90 -85z"/>
<path d="M2823 2022 l-71 -37 44 -88 44 -87 70 35 c39 19 70 39 69 43 0 4 -19
44 -42 89 l-42 81 -72 -36z"/>
</g>
</svg>
