<svg width="49" height="49" viewBox="0 0 49 49" fill="none" xmlns="http://www.w3.org/2000/svg">
<g clip-path="url(#clip0_128_994)">
<path d="M11.553 8.46046C10.9608 8.56387 10.4532 8.84588 10.002 9.3253C9.15594 10.1995 9.11833 10.4815 9.11833 15.5296V19.5529H7.90568C6.76824 19.5529 6.66483 19.5717 6.19481 19.8161C5.8752 19.9759 5.58379 20.2298 5.40518 20.4836L5.12317 20.8878L5.09497 24.4035L5.06677 27.9193H3.18669C1.63562 27.9193 1.24081 27.9475 0.977597 28.0697C0.554579 28.2671 0.112761 28.8123 0.0375579 29.2165C-0.0188445 29.4985 0.347771 32.8357 0.57338 34.1611C0.761388 35.2516 1.45702 36.1634 2.39706 36.5864L2.89528 36.8026L2.93288 37.5829C2.97048 38.2503 3.00808 38.4101 3.25249 38.7579C3.60971 39.2561 4.02332 39.5382 4.61555 39.6604C5.27358 39.8014 42.8563 39.8014 43.5144 39.6604C44.1066 39.5382 44.5202 39.2561 44.8774 38.7579C45.1218 38.4101 45.1594 38.2503 45.197 37.5735L45.2346 36.7932L45.6765 36.6146C46.4661 36.2856 47.3027 35.3174 47.5001 34.4995C47.6599 33.8227 48.13 29.6113 48.083 29.2729C48.0172 28.8217 47.6035 28.2859 47.1523 28.0697C46.8891 27.9475 46.4943 27.9193 44.9432 27.9193H43.0537V19.3367C43.0537 9.67311 43.0913 10.2465 42.3393 9.4099C42.0949 9.13729 41.6907 8.82708 41.3805 8.67667L40.8447 8.41346H31.6041H22.3541L22.1285 8.67667C21.8559 8.99628 21.8465 9.20309 22.1003 9.53211L22.2883 9.77652H29.1036H35.9094V10.1713C35.9094 10.6884 35.7496 10.9892 35.3548 11.2524C35.0728 11.4404 34.9224 11.4686 34.0764 11.4686C32.9577 11.4686 32.4313 11.619 31.8861 12.089C31.6699 12.2676 31.3879 12.653 31.2469 12.9444C31.0212 13.3863 30.9836 13.6213 30.946 14.4861L30.899 15.5014L31.1905 15.7928C31.5195 16.1218 31.7451 16.15 32.0835 15.8868C32.2997 15.7176 32.3185 15.6424 32.3561 14.6929C32.4125 13.1325 32.6663 12.8786 34.1516 12.8786C35.2702 12.8786 35.853 12.7094 36.4171 12.2112C36.9811 11.713 37.2255 11.2242 37.3007 10.4439L37.3665 9.82352H38.9646C40.76 9.82352 41.0045 9.89872 41.4275 10.5285L41.6437 10.8388V19.3743V27.9193H40.008C38.551 27.9193 38.3535 27.9381 38.1561 28.0979C37.8553 28.3423 37.8553 28.9063 38.1561 29.1507C38.3629 29.3199 38.6074 29.3293 42.4991 29.3293C45.8457 29.3293 46.6447 29.3575 46.6823 29.4515C46.7387 29.6207 46.1841 34.0483 46.0525 34.3773C45.9491 34.6688 45.5542 35.1106 45.2628 35.2798C45.1218 35.3644 41.0233 35.402 29.16 35.4396L13.2357 35.4866L13.0571 35.7122C12.8221 35.9942 12.8315 36.4266 13.0665 36.6616C13.2545 36.8496 13.3767 36.8496 28.5301 36.8496H43.8058V37.3291C43.8058 37.9213 43.7024 38.1187 43.3264 38.2503C42.9033 38.4007 5.22657 38.4007 4.80356 38.2503C4.42754 38.1187 4.32414 37.9213 4.32414 37.3291V36.8496H7.46387H10.613L10.801 36.6052C11.0548 36.2762 11.0454 36.0694 10.7728 35.7498L10.5472 35.4866L6.79644 35.4396C4.20193 35.4114 2.99868 35.355 2.86708 35.2798C2.57566 35.1106 2.18085 34.6688 2.07744 34.3773C1.94584 34.0483 1.39121 29.6207 1.44762 29.4515C1.48522 29.3481 4.47454 29.3293 18.4999 29.3293H35.5052L35.759 29.1319C36.0975 28.8687 36.0975 28.3799 35.759 28.1167C35.5052 27.9193 35.4864 27.9193 25.1366 27.9193H14.7586V24.5445V21.1698L14.4954 20.6716C14.3074 20.305 14.1099 20.0887 13.7715 19.8819C13.3297 19.6093 13.2827 19.5999 11.9197 19.5717L10.5284 19.5435V15.4826C10.5284 13.2453 10.5754 11.2524 10.6224 11.055C10.7258 10.5943 10.9702 10.2559 11.3838 10.0115C11.6658 9.84232 11.8726 9.82352 13.3015 9.82352H14.8996L14.956 10.4345C15.0218 11.1772 15.2662 11.6848 15.8208 12.1924C16.366 12.6906 16.9771 12.8786 18.0863 12.8786C18.7631 12.8786 19.0075 12.9162 19.2426 13.0667C19.7596 13.3769 19.7878 13.4803 19.8348 15.9338C19.8818 18.1523 19.8818 18.1993 20.1356 18.6599C20.4458 19.2615 20.7936 19.5811 21.3858 19.8443C22.5515 20.3614 23.924 19.8819 24.6102 18.7163C24.864 18.2839 24.864 18.2839 24.911 15.9808C24.958 13.4803 24.9862 13.3769 25.5032 13.0667C25.8604 12.841 26.2364 12.8316 26.6407 13.0197C27.2329 13.3017 27.2141 13.1231 27.2611 18.3779C27.3081 23.0123 27.3175 23.1909 27.5055 23.6045C27.9473 24.5539 28.784 25.0992 29.7992 25.0992C30.8426 25.0992 31.6699 24.5727 32.1117 23.6421C32.3279 23.1815 32.3373 23.0969 32.3373 20.7468C32.3373 18.4531 32.3279 18.3215 32.1493 18.1429C31.9143 17.9079 31.4819 17.8985 31.1999 18.1335C30.9742 18.3121 30.9742 18.3215 30.946 20.6716L30.9178 23.0311L30.6076 23.3601C30.335 23.6421 30.2316 23.6891 29.865 23.6891C29.3386 23.6891 28.9062 23.3695 28.7652 22.8619C28.7087 22.6457 28.6711 20.7656 28.6617 18.0019C28.6617 14.7963 28.6241 13.4051 28.5489 13.1889C28.0601 11.8822 26.6031 11.1772 25.2776 11.6096C24.9204 11.7318 24.629 11.9198 24.2906 12.2676C23.5667 12.982 23.5009 13.2923 23.5009 15.7834C23.5009 17.6258 23.4821 17.8421 23.3129 18.1147C23.0967 18.4719 22.8335 18.6317 22.4105 18.6411C22.0251 18.6505 21.6773 18.4719 21.461 18.1523C21.3106 17.9361 21.2824 17.5976 21.2448 15.6048C21.1884 13.0479 21.179 12.9914 20.5022 12.2864C19.9194 11.666 19.5622 11.5344 18.2837 11.478C17.6633 11.4404 17.0617 11.3652 16.9489 11.2994C16.554 11.0832 16.3566 10.7166 16.3566 10.2371V9.77652H18.0017C19.5246 9.77652 19.6656 9.75772 19.8348 9.58851C20.0698 9.3535 20.0792 8.92108 19.8442 8.63907L19.6656 8.41346L15.8208 8.40406C13.7151 8.39466 11.788 8.42286 11.553 8.46046ZM13.1041 21.1604L13.3485 21.3484V24.6385V27.9193H9.91737H6.48623V24.6573C6.48623 21.4424 6.48623 21.3954 6.69303 21.1792L6.89044 20.963H9.87037C12.7469 20.963 12.8597 20.9724 13.1041 21.1604Z" fill="#5F4A33"/>
</g>
<defs>
<clipPath id="clip0_128_994">
<rect width="48.13" height="48.13" fill="white"/>
</clipPath>
</defs>
</svg>
