<svg width="49" height="49" viewBox="0 0 49 49" fill="none" xmlns="http://www.w3.org/2000/svg">
<g clip-path="url(#clip0_128_997)">
<path d="M33.3902 0.808205C32.8638 1.07141 32.61 1.36283 32.4501 1.87985C32.3937 2.05846 32.0647 4.07014 31.7169 6.34503C31.3785 8.61993 31.0871 10.4812 31.0777 10.4812C31.0683 10.4812 30.5325 11.0076 29.8744 11.6469L28.69 12.8125L28.0978 12.5963C27.0449 12.2297 26.1237 12.2485 22.5609 12.6809C19.1016 13.1039 18.594 13.1885 17.9265 13.4517C16.8267 13.8841 15.5576 14.9558 15.003 15.9146C14.2698 17.1931 3.54394 37.5261 3.43114 37.8551C3.35593 38.0808 3.29013 38.6072 3.29013 39.0208V39.7728L1.80487 42.0947C0.987034 43.3732 0.263204 44.5576 0.188001 44.7362C0.122198 44.9148 0.0657959 45.3191 0.0657959 45.6293C0.0751963 46.9829 1.14684 48.0546 2.5005 48.064C2.81071 48.064 3.21493 48.0076 3.39353 47.9418C3.57214 47.8666 4.72839 47.1521 5.96924 46.3531L8.22534 44.896L9.22178 44.8396L10.2088 44.7832L11.6659 44.0218C12.4555 43.6082 15.144 42.1887 17.6257 40.8727C20.1074 39.5472 24.3564 37.3005 27.0731 35.8623C29.7898 34.424 32.2715 33.0609 32.6005 32.8353C33.6158 32.1115 34.4524 30.9459 34.819 29.705C34.9036 29.423 35.1669 27.6463 35.4019 25.7568C35.8719 21.9967 35.9001 21.0848 35.5617 20.0978L35.3831 19.562L36.5393 18.4057C37.1785 17.7759 37.6956 17.2025 37.6956 17.1461C37.6956 17.0803 38.0152 16.9863 38.4758 16.9205C38.8988 16.8641 40.8447 16.5633 42.8094 16.2624C46.1277 15.7548 46.3909 15.6984 46.7481 15.454C47.472 14.937 47.754 13.9876 47.425 13.1885C47.3404 12.9911 46.7669 12.3237 46.0995 11.6469L44.9151 10.453L45.2065 10.0582C45.7141 9.35316 45.7987 8.58232 45.4415 7.8585C45.2253 7.44488 40.8353 3.0455 40.3277 2.74469C39.5944 2.30286 38.5698 2.43447 37.9118 3.03609L37.6956 3.22411L36.4453 2.00205C35.4865 1.05261 35.1105 0.751801 34.8284 0.667198C34.255 0.507393 33.926 0.544994 33.3902 0.808205ZM35.9283 2.88569L37.2255 4.18295L35.6651 7.45428C34.5558 9.77618 34.1328 10.7726 34.1704 10.9136C34.255 11.1768 34.6592 11.3178 34.8942 11.1674C34.9882 11.1016 35.8437 9.41896 36.7931 7.42608C38.1938 4.49316 38.5698 3.77873 38.786 3.64712C39.0962 3.45911 39.491 3.43091 39.7918 3.58132C40.0833 3.73172 44.351 7.9901 44.5202 8.29091C44.8117 8.85494 44.5766 9.47536 43.9468 9.77618C43.74 9.87018 42.1137 10.6504 40.3277 11.5058C38.5228 12.3707 37.0281 13.1415 36.9623 13.2449C36.8025 13.4799 36.8965 13.7995 37.1691 13.9217C37.3477 14.0064 37.7802 13.8277 40.0081 12.7843C41.4463 12.0981 42.9128 11.4024 43.2512 11.2332L43.8716 10.9136L45.2065 12.2579C46.3627 13.4329 46.5319 13.6397 46.5319 13.9029C46.5319 14.2226 46.1089 14.7584 45.8551 14.7584C45.7893 14.7584 43.834 15.0592 41.5027 15.4164L37.2725 16.065L34.6592 13.4611L32.0459 10.8478L32.7134 6.49544C33.08 4.09834 33.4184 2.05846 33.4654 1.96445C33.6064 1.71064 33.8414 1.60724 34.255 1.59784C34.6122 1.59784 34.6968 1.66364 35.9283 2.88569ZM35.8155 17.7195L34.9694 18.5655L32.3185 15.9146L29.6582 13.2543L30.5043 12.4083L31.3503 11.5622L34.0012 14.2132L36.6615 16.8735L35.8155 17.7195ZM27.6371 13.4987C28.3046 13.6961 28.7182 13.9029 29.3198 14.3824L29.818 14.7772L29.1788 15.0404C28.596 15.2754 27.1577 16.0274 24.394 17.5503C23.0968 18.2647 22.1097 18.9886 21.1603 19.9286C20.6715 20.4174 18.0487 23.6418 14.4296 28.2009C8.23474 36.0315 8.16893 36.1255 8.64835 36.3793C8.76116 36.4357 8.94917 36.4639 9.05257 36.4357C9.18418 36.3981 11.5343 33.4934 15.1346 28.9342C18.3684 24.845 21.3295 21.1694 21.7337 20.7652C22.8147 19.6654 23.6232 19.1108 26.0861 17.7665C29.3386 15.9898 29.63 15.8582 30.2505 15.8112L30.7863 15.7736L31.5759 16.5727C32.7134 17.7289 32.7228 17.6819 30.8145 21.2447C29.254 24.1682 28.5866 25.1834 27.5055 26.2645C26.9509 26.8285 24.3752 28.9154 20.1638 32.2337C16.6011 35.035 13.6306 37.4133 13.5742 37.5261C13.3297 37.9397 13.8092 38.4286 14.204 38.1748C14.8902 37.7517 27.5431 27.6463 28.126 27.0635C29.019 26.1705 29.8274 25.0894 30.4949 23.8956C31.7639 21.6207 32.939 19.3834 33.1364 18.8664L33.3432 18.3023L33.738 18.8006C34.3678 19.5902 34.6216 20.1824 34.7814 21.2071C34.866 21.7335 34.819 22.2975 34.4524 25.362C34.2174 27.3079 33.9636 29.1222 33.8884 29.376C33.6064 30.3818 32.9484 31.3313 32.1117 31.9517C31.7451 32.2337 13.6118 41.9067 10.4344 43.5236C9.62599 43.9372 8.83636 43.9654 8.13133 43.6176C7.87752 43.486 7.66131 43.3356 7.64251 43.2886C7.62371 43.2322 7.79292 43.1006 8.01853 42.9784C8.70475 42.6211 10.4814 41.1453 10.5096 40.9197C10.5378 40.6941 10.237 40.3274 10.0208 40.3274C9.94561 40.3274 9.45679 40.6659 8.92096 41.0889C7.88692 41.8973 7.3323 42.2451 6.94688 42.3391C6.73067 42.3861 6.58027 42.2639 5.61203 41.2769C4.64379 40.2898 4.51218 40.1112 4.37117 39.6318C4.16437 38.9268 4.23957 38.4192 4.67199 37.5543C5.64023 35.646 15.8397 16.4693 16.0653 16.1308C16.6857 15.2472 17.7197 14.514 18.735 14.2508C19.6468 14.0064 25.8981 13.2543 26.5561 13.3107C26.8663 13.3389 27.3551 13.4235 27.6371 13.4987ZM5.52742 42.6023C6.46746 43.5424 7.23829 44.3226 7.23829 44.332C7.23829 44.3414 6.30766 44.9524 5.16081 45.6857C2.82011 47.1991 2.6227 47.2743 1.88007 46.8889C1.56986 46.7291 1.40065 46.5599 1.24084 46.2497C0.87423 45.5353 0.958833 45.2626 2.08688 43.5048C2.6321 42.6587 3.23373 41.7281 3.42174 41.4273C3.60974 41.1359 3.77895 40.8915 3.78835 40.8915C3.79775 40.8915 4.58738 41.6623 5.52742 42.6023Z" fill="#5F4A33"/>
<path d="M24.5538 22.9647C22.3259 25.1926 22.1661 25.4182 22.4857 25.7378C22.8147 26.0668 23.0309 25.907 25.2682 23.6603C26.6876 22.2315 27.4491 21.4042 27.4491 21.282C27.4491 21.047 27.1671 20.7744 26.9227 20.7744C26.8099 20.7744 25.898 21.6205 24.5538 22.9647Z" fill="#5F4A33"/>
</g>
<defs>
<clipPath id="clip0_128_997">
<rect width="48.13" height="48.13" fill="white"/>
</clipPath>
</defs>
</svg>
