<svg width="49" height="49" viewBox="0 0 49 49" fill="none" xmlns="http://www.w3.org/2000/svg">
<g clip-path="url(#clip0_128_1001)">
<path d="M12.0607 1.739C11.1019 2.03041 10.284 2.78244 10.0396 3.59088L9.93621 3.94809H8.55435C6.45806 3.94809 5.80944 4.1267 4.8882 4.94453C4.18317 5.58376 3.82595 6.38279 3.77895 7.42624L3.74135 8.24407L3.20553 8.30048C2.03988 8.40388 0.893032 9.24992 0.34781 10.4062L0.0469971 11.0454V22.4669V33.8883L0.272606 34.4524C0.582819 35.2326 1.52286 36.1726 2.30309 36.4828C2.85771 36.7085 2.92352 36.7085 6.32646 36.7367L9.7764 36.7649V39.9328C9.7764 43.2981 9.8516 44.1442 10.1618 44.7552C10.4626 45.3474 11.0549 45.9396 11.6471 46.2217L12.1735 46.4849H24.065H35.9565L36.4829 46.2217C37.0751 45.9396 37.6674 45.3474 37.9682 44.7552C38.2784 44.1442 38.3536 43.2981 38.3536 39.9234V36.7555H41.6249C45.1407 36.7555 45.4885 36.7179 46.2875 36.2478C46.8797 35.9 47.613 35.054 47.8668 34.4242L48.083 33.8883V22.4669V11.0454L47.7822 10.4062C47.237 9.24992 46.0901 8.40388 44.9245 8.30048L44.3886 8.24407L44.351 7.42624C44.304 6.38279 43.9468 5.58376 43.2418 4.94453C42.3206 4.1267 41.6719 3.94809 39.5756 3.94809H38.1938L38.081 3.58148C37.893 2.94225 37.3101 2.31243 36.5957 1.95521L35.9565 1.645L27.5807 1.6168C19.4776 1.598 19.1956 1.598 18.9794 1.7766C18.6786 2.02102 18.6786 2.58504 18.9794 2.82945C19.1862 2.99865 19.5246 3.00806 27.3833 3.00806C35.5053 3.00806 35.5711 3.00806 35.9753 3.20546C36.2479 3.33707 36.4641 3.53448 36.6145 3.79769L36.8495 4.2019V9.0055V13.8185H24.065H11.2805V9.0055V4.2019L11.5155 3.79769C11.6659 3.53448 11.8821 3.33707 12.1547 3.20546C12.5307 3.02686 12.7187 3.00806 14.6834 3.00806C16.6857 3.00806 16.8173 2.99865 17.0523 2.81065C17.3907 2.54744 17.3907 2.05862 17.0523 1.7954C16.8173 1.6074 16.6857 1.598 14.627 1.6074C13.1135 1.6074 12.3333 1.645 12.0607 1.739ZM9.7764 6.81521V8.27227H7.47331H5.17021V7.74585C5.17021 6.5332 5.76243 5.70597 6.81528 5.44276C6.97509 5.40516 7.69892 5.37695 8.44155 5.36755L9.7764 5.35815V6.81521ZM41.7847 5.61196C42.5462 6.01618 42.9504 6.73061 42.9598 7.68005V8.27227H40.6567H38.3536V6.80581V5.33935L39.8859 5.37695C41.2113 5.40516 41.4557 5.43336 41.7847 5.61196ZM9.7952 12.2298L9.8234 14.7773L10.0866 15.003L10.3498 15.2286H24.065H37.7802L38.0434 15.003L38.3066 14.7773L38.3348 12.2298L38.363 9.68233H41.6719C45.3851 9.68233 45.4133 9.69173 46.0901 10.3874C46.7575 11.0736 46.7199 10.3686 46.7199 22.5515C46.7199 33.3713 46.7105 33.5217 46.5225 33.9353C46.2687 34.4994 45.9209 34.8566 45.3569 35.1198C44.8869 35.3454 44.8587 35.3454 41.6249 35.3454H38.3536V29.2821V23.2189H40.6943C42.9128 23.2189 43.0444 23.2095 43.2794 23.0215C43.5896 22.7771 43.6178 22.2789 43.3358 21.9968C43.1478 21.8088 43.0256 21.8088 24.065 21.8088C5.10441 21.8088 4.9822 21.8088 4.79419 21.9968C4.51218 22.2789 4.54038 22.7771 4.8506 23.0215C5.08561 23.2095 5.21721 23.2189 7.4357 23.2189H9.7764V29.2821V35.3454H6.51447C3.43114 35.3454 3.21493 35.3266 2.82011 35.148C2.25609 34.8942 1.89887 34.5464 1.63566 33.9823L1.41005 33.5123V22.5515C1.41005 10.3686 1.37245 11.0736 2.03988 10.3874C2.71671 9.69173 2.74491 9.68233 6.45806 9.68233H9.767L9.7952 12.2298ZM36.8495 28.7275V34.2362L36.3701 33.8225C35.5053 33.0893 34.9694 32.7321 34.2644 32.4407C32.4877 31.698 30.4009 31.6698 28.6712 32.3655C27.5619 32.8167 27.0637 33.2021 25.099 35.1292L23.172 37.0187L21.9405 35.8154C20.8501 34.7532 20.6151 34.5652 19.8254 34.1798C18.4342 33.4935 17.1557 33.3149 15.7268 33.6157C14.345 33.8977 13.405 34.443 12.1077 35.712L11.2805 36.511V29.865V23.2189H24.065H36.8495V28.7275ZM32.8356 33.4277C33.926 33.7097 34.6404 34.1516 35.7873 35.2796L36.8589 36.323L36.8307 40.1866L36.8025 44.0596L36.5299 44.4074C36.3795 44.6048 36.0881 44.8492 35.8719 44.9432C35.5053 45.1124 35.0729 45.1218 26.3305 45.1218H17.1651L18.5 43.7682C19.8818 42.3769 19.9852 42.1983 19.7408 41.7377C19.5998 41.4745 19.1674 41.3616 18.8384 41.5027C18.688 41.5685 17.7855 42.4145 16.8267 43.3733L15.0876 45.1218H13.8656C12.4461 45.1218 12.0419 44.9902 11.6001 44.4074L11.3275 44.0596L11.2993 41.2676L11.2711 38.4851L12.5213 37.2631C13.2075 36.5957 13.9596 35.9188 14.1946 35.759C15.8021 34.678 17.8607 34.6122 19.5434 35.5992C19.7784 35.7402 20.474 36.3324 21.0757 36.9247L22.1849 38.0057L21.2919 38.9269C20.3236 39.9234 20.2484 40.1114 20.5963 40.5532C20.7373 40.7318 20.8689 40.7976 21.1227 40.7976C21.4423 40.7976 21.6585 40.6002 24.8076 37.4793C28.3986 33.9165 28.5584 33.7849 29.9026 33.4277C30.5889 33.2397 32.1211 33.2397 32.8356 33.4277Z" fill="#5F4A33"/>
<path d="M41.6531 11.3276C41.1361 11.4874 40.5626 12.0421 40.3652 12.5685C39.8952 13.7999 40.7506 15.1912 42.0573 15.304C42.7153 15.3604 43.1853 15.1912 43.6836 14.7306C45.2628 13.2735 43.7024 10.6602 41.6531 11.3276ZM42.7435 12.8129C43.1195 13.1983 42.8281 13.9127 42.2923 13.9127C41.6813 13.9127 41.4181 13.1607 41.8975 12.7847C42.1607 12.5779 42.5179 12.5873 42.7435 12.8129Z" fill="#5F4A33"/>
<path d="M41.3993 16.3001C40.3371 16.7983 39.9422 17.9921 40.4781 19.0732C41.0609 20.2294 42.5556 20.549 43.5614 19.7218C44.5296 18.9228 44.5954 17.6255 43.7212 16.7325C43.0538 16.0369 42.2641 15.8958 41.3993 16.3001ZM42.7342 17.7289C43.0162 18.0015 42.988 18.3587 42.659 18.6314C42.4051 18.8476 42.1983 18.8476 41.8881 18.6032C41.5873 18.3681 41.5591 17.9451 41.8317 17.6725C42.0855 17.4187 42.4521 17.4375 42.7342 17.7289Z" fill="#5F4A33"/>
<path d="M18.1616 25.4561C17.4848 25.7006 16.8361 26.274 16.4977 26.932C16.2533 27.4208 16.2157 27.5806 16.2157 28.2857C16.2157 28.9813 16.2533 29.1693 16.4789 29.6299C17.3813 31.4724 19.8442 31.8766 21.3013 30.4195C22.749 28.9625 22.3542 26.4996 20.5305 25.6065C19.8348 25.2681 18.8666 25.2023 18.1616 25.4561ZM19.9759 26.9132C21.0287 27.5054 21.0287 29.0847 19.9759 29.6769C18.9042 30.2785 17.5788 29.5171 17.5788 28.2951C17.5788 27.073 18.9042 26.3116 19.9759 26.9132Z" fill="#5F4A33"/>
</g>
<defs>
<clipPath id="clip0_128_1001">
<rect width="48.13" height="48.13" fill="white"/>
</clipPath>
</defs>
</svg>
