<svg width="49" height="49" viewBox="0 0 49 49" fill="none" xmlns="http://www.w3.org/2000/svg">
<g clip-path="url(#clip0_128_573)">
<path d="M31.7733 7.74586C24.0932 9.10892 17.6821 10.284 17.5317 10.3592C17.0053 10.6412 16.6387 11.2522 16.6387 11.882V12.2016L15.5388 12.2392C14.5706 12.2675 14.3544 12.3051 13.875 12.5307C11.9761 13.4143 11.0455 15.4636 11.6565 17.4095C11.7599 17.7291 11.8445 18.0111 11.8445 18.0205C11.8445 18.0393 11.4873 18.0487 11.0455 18.0487C9.87041 18.0487 9.35339 18.3025 9.01497 19.0357C8.79877 19.4964 8.78937 20.0134 8.97737 20.4646C9.27819 21.179 9.7106 21.4422 10.707 21.5174L11.4027 21.5738L12.6247 26.1988C13.3016 28.7463 13.8374 30.8426 13.8092 30.8614C13.7904 30.8896 12.8221 30.7674 11.6565 30.6076L9.5414 30.3068L9.47559 29.771C9.25939 28.0601 7.65192 27.0073 5.99745 27.4867C5.30182 27.6841 4.61559 28.3045 4.31478 29.0001C4.19257 29.2822 4.05157 29.5172 3.99517 29.5172C3.94816 29.5172 3.13973 29.4138 2.21849 29.2822C1.28785 29.1506 0.498221 29.0471 0.451219 29.0471C0.413617 29.0471 0.291412 29.1318 0.188008 29.2352C0 29.4232 0 29.5454 0 35.9564C0 42.3675 0 42.4897 0.188008 42.6777C0.376016 42.8657 0.498221 42.8657 11.1771 42.8657C21.3201 42.8657 21.9875 42.8563 22.1755 42.6965C22.3635 42.5461 22.3729 42.4427 22.3917 40.4686L22.4199 38.4005L31.2093 38.3535L39.9893 38.3065L40.1115 38.0715C40.1773 37.9399 41.1455 34.3866 42.2642 30.1752C43.3734 25.9638 44.351 22.2883 44.4262 22.0157L44.5673 21.5268H45.1313C46.0431 21.5268 46.6071 21.2166 46.9174 20.5398C47.2276 19.8724 47.0584 18.9417 46.5695 18.4999C46.1841 18.1615 45.7235 18.0487 44.6613 18.0487H43.6366L43.4016 17.6445C43.0726 17.0805 42.1984 16.2908 41.6249 16.0276C41.3523 15.9054 40.8541 15.755 40.5157 15.708C40.1209 15.6422 36.7837 15.6046 31.1623 15.6046C23.7548 15.6046 22.4481 15.5858 22.5609 15.473C22.6455 15.3978 24.6478 15.003 27.5713 14.4953C31.4255 13.8185 32.5066 13.6023 32.7792 13.4331C33.174 13.1887 33.456 12.6153 33.4654 12.0606C33.4654 11.7692 33.503 11.6564 33.6346 11.6188C33.8132 11.5718 39.6697 10.5284 43.9938 9.77635C45.5167 9.51313 46.861 9.27813 46.9738 9.25932C47.519 9.13712 48.1206 8.28168 48.13 7.61426C48.13 6.51441 47.2088 5.49917 46.0619 5.32996C45.8551 5.30176 40.5251 6.2042 31.7733 7.74586ZM46.3251 6.61781C46.7011 6.81522 46.908 7.07843 46.9644 7.43565C47.0772 8.09368 47.19 8.06548 41.7377 9.01492C39.021 9.48494 36.7555 9.87035 36.6991 9.87035C36.6051 9.87035 36.2291 8.19708 36.3043 8.13128C36.3701 8.07487 45.3945 6.50501 45.7141 6.49561C45.9115 6.48621 46.1841 6.54261 46.3251 6.61781ZM35.2045 8.5731C35.2797 8.93971 35.4395 9.89855 35.4395 10.0114C35.4395 10.0866 35.0447 10.19 34.4336 10.3028C33.879 10.3968 33.2586 10.5566 33.0518 10.66C32.5724 10.9044 32.2057 11.5436 32.2809 12.0042C32.3091 12.1922 32.2809 12.3615 32.2057 12.4273C32.0835 12.5589 23.6326 14.0723 23.5386 13.9877C23.5104 13.9595 23.5386 13.6493 23.6044 13.3109C23.6984 12.7751 23.689 12.6529 23.5574 12.4555L23.407 12.2204H20.6809C18.0017 12.2204 17.9641 12.2204 17.8513 12.023C17.7103 11.7598 17.8701 11.4026 18.1616 11.3274C18.5658 11.224 34.7344 8.38509 34.9413 8.37569C35.0917 8.36629 35.1669 8.43209 35.2045 8.5731ZM22.3729 13.6305C22.2507 14.0629 21.9405 14.5141 21.5175 14.8996C21.0475 15.3226 20.6245 15.5106 19.9006 15.6046C19.205 15.708 19.064 15.8208 19.1016 16.2532C19.1204 16.4976 19.1956 16.6198 19.3648 16.7044C19.5528 16.7984 21.8371 16.8266 30.0436 16.8266C41.8411 16.8266 40.9857 16.7702 41.8599 17.5881L42.3488 18.0393L27.8064 18.0487H13.264L13.0759 17.8043C12.8221 17.4847 12.5965 16.7232 12.5965 16.2156C12.5965 15.3038 13.1511 14.2603 13.875 13.8091C14.5988 13.3673 14.6834 13.3579 18.6786 13.3485H22.4575L22.3729 13.6305ZM45.7799 19.3647C45.8833 19.4681 45.9679 19.6562 45.9679 19.7878C45.9679 19.9194 45.8833 20.1074 45.7799 20.2108C45.5919 20.3988 45.4697 20.3988 27.9662 20.3988C10.4626 20.3988 10.3404 20.3988 10.1524 20.2108C10.049 20.1074 9.96441 19.9194 9.96441 19.7878C9.96441 19.6562 10.049 19.4681 10.1524 19.3647C10.3404 19.1767 10.4626 19.1767 27.9662 19.1767C45.4697 19.1767 45.5919 19.1767 45.7799 19.3647ZM43.2982 21.7712C43.2606 21.9123 43.2042 22.1379 43.176 22.2883L43.129 22.5609H27.9662H12.8127L12.7563 22.2883C12.7281 22.1379 12.6717 21.9123 12.6341 21.7712L12.5777 21.5268H27.9662H43.3546L43.2982 21.7712ZM42.7718 23.8017C42.7718 23.8205 42.095 26.3492 41.2771 29.4232L39.7919 35.0164H31.1059H22.4199L22.3729 33.6251C22.3353 32.5535 22.2977 32.2151 22.1943 32.1493C22.0157 32.0459 21.9875 32.0365 18.3308 31.5383C16.6011 31.2938 15.1534 31.0682 15.1252 31.04C15.0876 31.0024 14.6552 29.4044 14.1476 27.4961C13.64 25.5784 13.2075 23.9615 13.1793 23.8957C13.1511 23.8111 16.1405 23.7829 27.9568 23.7829C36.1069 23.7829 42.7718 23.7923 42.7718 23.8017ZM7.52031 28.6993C7.99973 28.9531 8.36635 29.5454 8.36635 30.0812C8.36635 30.617 7.99973 31.2092 7.52031 31.463C7.03149 31.7263 6.66488 31.7357 6.14786 31.5006C5.18902 31.0588 4.9164 29.8744 5.59323 29.0659C6.09145 28.4737 6.82468 28.3327 7.52031 28.6993ZM2.80132 30.5136L4.06097 30.6828L4.32418 31.2186C5.29242 33.1175 7.84933 33.3337 9.03378 31.6135L9.17478 31.4066L15.1816 32.2433C18.4812 32.7133 21.1979 33.0893 21.2167 33.0893C21.2355 33.0893 21.2449 34.5088 21.2449 36.2384V39.3876H11.1865H1.12805V34.819V30.2504L1.34426 30.2974C1.45706 30.3256 2.11509 30.4196 2.80132 30.5136ZM39.4816 36.2196C39.4816 36.2384 39.4158 36.4735 39.3406 36.7367L39.1902 37.2255H30.7863H22.3729V36.7085V36.1914H30.9273C35.6369 36.1914 39.4816 36.2008 39.4816 36.2196ZM21.2449 41.1267V41.7377H11.1865H1.12805V41.1267V40.5156H11.1865H21.2449V41.1267Z" fill="#5F4A33"/>
<path d="M26.4245 24.7699C23.2566 25.3433 21.0945 27.6276 21.5175 29.9495C22.1756 33.5122 27.5996 35.2701 31.6794 33.2584C33.597 32.309 34.7063 30.5041 34.4149 28.8214C33.9167 25.9919 30.1659 24.093 26.4245 24.7699ZM29.9873 26.0389C31.3973 26.4337 32.5818 27.2892 33.0518 28.2668C33.9261 30.0529 32.5818 31.98 29.9403 32.7226C28.9626 33.0046 27.0732 33.0234 26.1331 32.7696C24.6479 32.3654 23.36 31.4724 22.89 30.5135C22.5422 29.8085 22.5422 28.9436 22.89 28.2386C23.454 27.0918 25.0051 26.1423 26.8382 25.8415C27.5902 25.7193 29.1977 25.8227 29.9873 26.0389Z" fill="#5F4A33"/>
</g>
<defs>
<clipPath id="clip0_128_573">
<rect width="48.13" height="48.13" fill="white"/>
</clipPath>
</defs>
</svg>
