<svg width="48" height="48" viewBox="0 0 48 48" fill="none" xmlns="http://www.w3.org/2000/svg">
<g clip-path="url(#clip0_128_988)">
<path d="M23.9998 8.24415L21.8488 6.03315C16.7998 0.843146 7.54181 2.63415 4.19981 9.15915C2.63081 12.2281 2.27681 16.6591 5.14181 22.3141C7.90181 27.7591 13.6438 34.2811 23.9998 41.3851C34.3558 34.2811 40.0948 27.7591 42.8578 22.3141C45.7228 16.6561 45.3718 12.2281 43.7998 9.15915C40.4578 2.63415 31.1998 0.840146 26.1508 6.03015L23.9998 8.24415ZM23.9998 45.0001C-21.9992 14.6041 9.83681 -9.11985 23.4718 3.42915C23.6518 3.59415 23.8288 3.76515 23.9998 3.94215C24.1691 3.76531 24.3452 3.59518 24.5278 3.43215C38.1598 -9.12585 69.9988 14.6011 23.9998 45.0001Z" fill="#5F4A33"/>
</g>
<defs>
<clipPath id="clip0_128_988">
<rect width="48" height="48" fill="white"/>
</clipPath>
</defs>
</svg>
