<?xml version="1.0" encoding="utf-8"?>
<!-- Generator: Adobe Illustrator 24.0.1, SVG Export Plug-In . SVG Version: 6.00 Build 0)  -->
<svg version="1.1" id="Capa_1" xmlns="http://www.w3.org/2000/svg" xmlns:xlink="http://www.w3.org/1999/xlink" x="0px" y="0px"
	 viewBox="0 0 452 490" style="enable-background:new 0 0 452 490;" xml:space="preserve">
<style type="text/css">
	.st0{fill:#5F4A33;}
</style>
<g transform="translate(0.000000,512.000000) scale(0.100000,-0.100000)">
	<path class="st0" d="M2780.5,5083c-20-21-64-73-99-115c-72-87-54-81-265-93c-316-19-527-74-778-202c-510-261-986-768-1296-1382
		c-351-695-437-1391-236-1896c43-107,42-103,60-325c19-242,35-309,89-368c34-38,71-52,139-52c81,0,135,16,336,102
		c147,63,173,71,260,79c119,11,142,15,266,46c238,59,504,195,731,374l60,48l96-108c229-257,517-481,792-615c207-102,367-148,575-166
		c88-8,119-16,215-56c337-139,411-156,496-112c37,19,51,34,77,88c38,74,48,134,63,363c6,106,16,174,29,210c107,299,121,364,128,604
		c6,203-5,344-42,528c-100,497-356,1030-703,1464c-103,128-335,365-449,458c-79,64-94,81-103,117c-26,102-94,299-150,429l-60,143
		l55,129c32,73,55,139,53,154c-2,21-27,41-138,108c-74,46-141,83-150,83S2799.5,5103,2780.5,5083z M2934.5,4950l77-50l-16-37
		c-8-21-22-55-31-75c-8-21-18-38-21-38s-22,15-42,34c-33,33-126,86-149,86c-6,0-11,3-11,6c0,11,95,123,105,123
		C2852.5,4999,2891.5,4977,2934.5,4950z M2665.5,4783c3-4-55-37-131-73c-547-263-1032-654-1411-1138c-102-130-288-408-373-557
		c-209-366-421-884-552-1349c-19-66-37-115-40-109c-10,16-35,130-47,213c-14,97-14,353,0,471c56,471,269,999,583,1444
		c229,325,533,624,813,801c301,190,549,267,944,293C2625.5,4790,2657.5,4791,2665.5,4783z M2672.5,4635c-11-19-327-533-702-1141
		s-683-1113-686-1124c-5-18,28-60,47-60c6,0,21,10,33,23c12,12,335,529,717,1150c551,895,696,1124,704,1110c13-23,0-427-19-588
		c-104-888-479-1676-1155-2430c-124-138-421-432-561-556c-84-74-103-86-160-101c-35-9-129-44-209-78c-144-61-264-100-275-89
		c-3,4,76,139,177,300c218,353,223,361,209,387c-16,30-48,34-76,9c-13-12-103-151-199-310c-230-376-208-344-218-318
		c-15,40-28,146-38,301c-5,85-16,178-23,207c-13,50-12,56,35,234c354,1326,1025,2303,1978,2882c110,68,415,227,433,227
		C2689.5,4670,2684.5,4654,2672.5,4635z M2966.5,4496c70-161,149-395,170-506c25-132,30-360,11-524c-65-555-310-1116-716-1638
		c-92-119-387-410-507-501c-234-178-471-298-704-357c-45-12-83-19-85-18c-2,2,61,64,139,137c916,860,1436,1780,1577,2789
		c27,195,43,463,38,630C2883.5,4681,2887.5,4681,2966.5,4496z M3445.5,3708c95-95,212-222,260-283c373-471,632-1052,702-1575
		c16-121,18-393,4-495c-14-97-42-225-49-225c-3,0-32,87-63,192c-223,761-567,1434-986,1930l-80,94l15,125c9,76,13,179,11,267
		c-2,78,0,142,4,142C3268.5,3880,3349.5,3802,3445.5,3708z M3365.5,3025c378-498,681-1146,884-1890c48-174,49-181,36-230
		c-8-27-19-122-24-210c-11-159-24-256-39-298c-10-25,17-65-246,362c-144,233-175,276-196,279c-15,2-32-5-43-16c-15-18-16-23-3-53
		c8-19,96-166,196-328c186-298,199-321,186-321c-31,0-148,41-277,96c-84,36-179,71-211,79c-65,15-85,31-332,261
		c-269,251-513,525-733,823c-91,122-102,144-82,156c35,21,253,337,350,505c29,50,57,87,61,83s64-100,133-213c70-112,133-208,142-213
		c25-14,63,1,70,28c5,19-24,73-146,269l-151,246l50,109c84,183,211,563,211,631C3201.5,3232,3224.5,3210,3365.5,3025z M2498.5,1498
		c233-312,533-640,827-906c38-34,67-64,65-66c-7-7-190,44-273,76c-187,74-380,190-570,342c-105,84-312,285-380,369l-39,48l134,135
		c73,74,135,134,136,134S2444.5,1570,2498.5,1498z"/>
	<path class="st0" d="M1134.5,2138c-78-125-153-253-153-263c0-19,34-45,58-45c23,0,28,6,139,189c35,57,63,110,63,117
		c0,21-30,44-56,44C1168.5,2180,1154.5,2168,1134.5,2138z"/>
	<path class="st0" d="M3301.5,1740c-11-11-20-25-20-32c0-18,150-261,176-285c28-26,61-20,76,13c9,20,0,40-67,151
		c-73,121-114,173-136,173C3325.5,1760,3312.5,1751,3301.5,1740z"/>
</g>
</svg>
