<svg version="1.1" id="Capa_1" xmlns="http://www.w3.org/2000/svg" x="0" y="0" viewBox="0 0 452 490" style="enable-background:new 0 0 452 490" xml:space="preserve"><style>.st0{fill:#5f4a33}</style><path class="st0" d="M2780.5 5083c-20-21-64-73-99-115-72-87-54-81-265-93-316-19-527-74-778-202-510-261-986-768-1296-1382-351-695-437-1391-236-1896 43-107 42-103 60-325 19-242 35-309 89-368 34-38 71-52 139-52 81 0 135 16 336 102 147 63 173 71 260 79 119 11 142 15 266 46 238 59 504 195 731 374l60 48 96-108c229-257 517-481 792-615 207-102 367-148 575-166 88-8 119-16 215-56 337-139 411-156 496-112 37 19 51 34 77 88 38 74 48 134 63 363 6 106 16 174 29 210 107 299 121 364 128 604 6 203-5 344-42 528-100 497-356 1030-703 1464-103 128-335 365-449 458-79 64-94 81-103 117-26 102-94 299-150 429l-60 143 55 129c32 73 55 139 53 154-2 21-27 41-138 108-74 46-141 83-150 83s-32-17-51-37zm154-133 77-50-16-37c-8-21-22-55-31-75-8-21-18-38-21-38s-22 15-42 34c-33 33-126 86-149 86-6 0-11 3-11 6 0 11 95 123 105 123 6 0 45-22 88-49zm-269-167c3-4-55-37-131-73-547-263-1032-654-1411-1138-102-130-288-408-373-557-209-366-421-884-552-1349-19-66-37-115-40-109-10 16-35 130-47 213-14 97-14 353 0 471 56 471 269 999 583 1444 229 325 533 624 813 801 301 190 549 267 944 293 174 11 206 12 214 4zm7-148c-11-19-327-533-702-1141s-683-1113-686-1124c-5-18 28-60 47-60 6 0 21 10 33 23 12 12 335 529 717 1150 551 895 696 1124 704 1110 13-23 0-427-19-588-104-888-479-1676-1155-2430-124-138-421-432-561-556-84-74-103-86-160-101-35-9-129-44-209-78-144-61-264-100-275-89-3 4 76 139 177 300 218 353 223 361 209 387-16 30-48 34-76 9-13-12-103-151-199-310-230-376-208-344-218-318-15 40-28 146-38 301-5 85-16 178-23 207-13 50-12 56 35 234 354 1326 1025 2303 1978 2882 110 68 415 227 433 227 5 0 0-16-12-35zm294-139c70-161 149-395 170-506 25-132 30-360 11-524-65-555-310-1116-716-1638-92-119-387-410-507-501-234-178-471-298-704-357-45-12-83-19-85-18-2 2 61 64 139 137 916 860 1436 1780 1577 2789 27 195 43 463 38 630-6 173-2 173 77-12zm479-788c95-95 212-222 260-283 373-471 632-1052 702-1575 16-121 18-393 4-495-14-97-42-225-49-225-3 0-32 87-63 192-223 761-567 1434-986 1930l-80 94 15 125c9 76 13 179 11 267-2 78 0 142 4 142 5 0 86-78 182-172zm-80-683c378-498 681-1146 884-1890 48-174 49-181 36-230-8-27-19-122-24-210-11-159-24-256-39-298-10-25 17-65-246 362-144 233-175 276-196 279-15 2-32-5-43-16-15-18-16-23-3-53 8-19 96-166 196-328 186-298 199-321 186-321-31 0-148 41-277 96-84 36-179 71-211 79-65 15-85 31-332 261-269 251-513 525-733 823-91 122-102 144-82 156 35 21 253 337 350 505 29 50 57 87 61 83s64-100 133-213c70-112 133-208 142-213 25-14 63 1 70 28 5 19-24 73-146 269l-151 246 50 109c84 183 211 563 211 631 0 52 23 30 164-155zm-867-1527c233-312 533-640 827-906 38-34 67-64 65-66-7-7-190 44-273 76-187 74-380 190-570 342-105 84-312 285-380 369l-39 48 134 135c73 74 135 134 136 134s46-60 100-132z" transform="matrix(.1 0 0 -.1 0 512)"/><path class="st0" d="M1134.5 2138c-78-125-153-253-153-263 0-19 34-45 58-45 23 0 28 6 139 189 35 57 63 110 63 117 0 21-30 44-56 44-17 0-31-12-51-42zM3301.5 1740c-11-11-20-25-20-32 0-18 150-261 176-285 28-26 61-20 76 13 9 20 0 40-67 151-73 121-114 173-136 173-5 0-18-9-29-20z" transform="matrix(.1 0 0 -.1 0 512)"/></svg>