<?xml version="1.0" encoding="utf-8"?>
<!-- Generator: Adobe Illustrator 24.0.1, SVG Export Plug-In . SVG Version: 6.00 Build 0)  -->
<svg version="1.1" id="Capa_1" xmlns="http://www.w3.org/2000/svg" xmlns:xlink="http://www.w3.org/1999/xlink" x="0px" y="0px"
	 viewBox="0 0 47.4 30.6" style="enable-background:new 0 0 47.4 30.6;" xml:space="preserve">
<style type="text/css">
	.st0{fill:#5F4A33;}
</style>
<g>
	<g>
		<path class="st0" d="M0.7,26.4c0.8,2,1.5,3.7,1.6,3.8c0.5,0.5-0.9,0.5,21.2,0.5c19.8,0,20.5,0,20.8-0.2c0.2-0.1,0.4-0.3,0.5-0.4
			c0.3-0.5,2.6-6.9,2.7-7.3c0-0.5-0.2-1-0.6-1.2c-0.3-0.2-0.4-0.2-2.2-0.2c-1.1,0-1.9,0-1.9-0.1c0,0-1.2-4.6-2.6-10.2
			c-1.7-6.6-2.6-10.2-2.8-10.4c-0.1-0.1-0.3-0.3-0.5-0.4C36.5,0,35.7,0,23.4,0S10.2,0,9.9,0.2C9.8,0.3,9.5,0.5,9.4,0.6
			c-0.1,0.2-1.2,4-2.8,10.1c-1.4,5.4-2.7,10-2.7,10.2l-0.1,0.4H2.1c-1.6,0-1.8,0-2.1,0.2 M35.6,4.8c0.3,1.1,0.5,2,0.5,2.1
			c0,0.1-0.1,0.2-2,0.2c-2,0-2,0-2.6,0.3C30.9,7.7,30.3,8.3,30,9c-0.3,0.5-0.3,0.6-0.3,3c0,2.4-0.1,2.5-0.2,2.8
			c-0.4,0.5-0.8,0.7-1.4,0.7c-0.6,0-1-0.2-1.4-0.7c-0.2-0.3-0.2-0.4-0.2-2.8l0-2.5L26.2,9c-0.3-0.7-0.9-1.3-1.6-1.6L24,7.1l-6.7,0
			c-5.3,0-6.7,0-6.7-0.1c0-0.1,0.3-0.9,0.5-1.9c0.3-1,0.5-1.9,0.5-2c0-0.2,0.7-0.2,11.8-0.2h11.7L35.6,4.8z M23.5,10
			c0.1,0.1,0.2,0.6,0.2,2.5c0,2.7,0.1,3.1,0.9,4.1c1.3,1.8,4.2,2.2,6.1,0.9c0.6-0.4,1.3-1.3,1.5-2c0.2-0.6,0.2-0.8,0.3-3
			c0-2,0.1-2.4,0.2-2.5c0.1-0.1,0.4-0.2,2.2-0.2c1.1,0,2,0,2,0.1s0.6,2.5,1.4,5.6c0.8,3,1.4,5.6,1.4,5.6c0,0.1-32.9,0.1-32.9,0
			c0,0,0.6-2.5,1.4-5.4c0.8-3,1.5-5.5,1.5-5.6l0.1-0.3h6.8C22.9,9.9,23.4,9.9,23.5,10z M43.9,24.2c0,0.1-0.3,0.9-0.7,1.9l-0.6,1.8
			H23.4H4.2l-0.6-1.6c-0.3-0.9-0.7-1.7-0.7-1.9l-0.1-0.3h20.6C39.8,24.1,44,24.1,43.9,24.2z"/>
	</g>
</g>
</svg>
