<?xml version="1.0" standalone="no"?>
<!DOCTYPE svg PUBLIC "-//W3C//DTD SVG 20010904//EN"
 "http://www.w3.org/TR/2001/REC-SVG-20010904/DTD/svg10.dtd">
<svg version="1.0" xmlns="http://www.w3.org/2000/svg"
 width="512.000000pt" height="512.000000pt" viewBox="0 0 512.000000 512.000000"
 preserveAspectRatio="xMidYMid meet">

<g transform="translate(0.000000,512.000000) scale(0.100000,-0.100000)"
fill="#000000" stroke="none">
<path d="M1130 4172 c-19 -9 -44 -31 -55 -48 -13 -19 -125 -425 -298 -1075
-152 -574 -282 -1061 -288 -1081 l-10 -38 -187 0 c-168 0 -190 -2 -219 -20
-41 -25 -63 -59 -70 -108 -4 -32 18 -97 142 -418 81 -208 157 -390 168 -402
51 -55 -100 -52 2254 -52 2106 0 2179 1 2213 19 19 10 43 31 52 47 29 49 280
737 285 779 5 51 -20 102 -66 132 -32 22 -43 23 -232 23 -121 0 -200 4 -204
10 -3 5 -129 494 -279 1086 -178 698 -281 1086 -293 1103 -11 14 -35 34 -54
43 -32 17 -121 18 -1429 18 -1308 0 -1397 -1 -1430 -18z m2729 -489 c29 -115
54 -215 57 -225 4 -15 -15 -17 -208 -20 -212 -3 -213 -3 -272 -32 -76 -37
-140 -101 -174 -174 -27 -56 -27 -61 -32 -324 -5 -251 -6 -268 -26 -295 -38
-51 -81 -73 -144 -73 -63 0 -106 22 -144 73 -20 27 -21 44 -26 295 l-5 267
-29 59 c-37 76 -101 140 -174 174 l-57 27 -718 3 c-562 2 -718 5 -714 15 2 7
28 100 56 207 29 107 54 203 57 213 5 16 73 17 1253 17 l1249 0 51 -207z
m-1286 -560 c13 -15 16 -59 19 -268 5 -287 14 -326 94 -436 143 -193 443 -237
651 -95 63 43 135 138 163 217 22 59 24 84 28 314 3 209 6 253 19 268 14 15
39 17 235 17 120 0 218 -3 218 -6 0 -3 68 -271 150 -595 82 -324 150 -593 150
-599 0 -12 -3496 -14 -3503 -2 -2 4 64 264 148 577 83 314 155 582 159 598 l6
27 724 0 c676 0 724 -1 739 -17z m2175 -1505 c-3 -7 -36 -97 -74 -200 l-68
-188 -2041 0 -2040 0 -64 168 c-36 92 -70 182 -78 200 l-13 32 2191 0 c1749 0
2190 -3 2187 -12z"/>
</g>
</svg>
