<svg xmlns="http://www.w3.org/2000/svg" viewBox="0 0 47.4 30.6" style="enable-background:new 0 0 47.4 30.6" xml:space="preserve"><path d="M.7 26.4c.8 2 1.5 3.7 1.6 3.8.5.5-.9.5 21.2.5 19.8 0 20.5 0 20.8-.2.2-.1.4-.3.5-.4.3-.5 2.6-6.9 2.7-7.3 0-.5-.2-1-.6-1.2-.3-.2-.4-.2-2.2-.2-1.1 0-1.9 0-1.9-.1 0 0-1.2-4.6-2.6-10.2C38.5 4.5 37.6.9 37.4.7c-.1-.1-.3-.3-.5-.4-.4-.3-1.2-.3-13.5-.3S10.2 0 9.9.2c-.1.1-.4.3-.5.4-.1.2-1.2 4-2.8 10.1-1.4 5.4-2.7 10-2.7 10.2l-.1.4H2.1c-1.6 0-1.8 0-2.1.2M35.6 4.8c.3 1.1.5 2 .5 2.1 0 .1-.1.2-2 .2-2 0-2 0-2.6.3-.6.3-1.2.9-1.5 1.6-.3.5-.3.6-.3 3s-.1 2.5-.2 2.8c-.4.5-.8.7-1.4.7-.6 0-1-.2-1.4-.7-.2-.3-.2-.4-.2-2.8V9.5l-.3-.5c-.3-.7-.9-1.3-1.6-1.6l-.6-.3h-6.7c-5.3 0-6.7 0-6.7-.1s.3-.9.5-1.9c.3-1 .5-1.9.5-2 0-.2.7-.2 11.8-.2h11.7l.5 1.9zM23.5 10c.1.1.2.6.2 2.5 0 2.7.1 3.1.9 4.1 1.3 1.8 4.2 2.2 6.1.9.6-.4 1.3-1.3 1.5-2 .2-.6.2-.8.3-3 0-2 .1-2.4.2-2.5.1-.1.4-.2 2.2-.2 1.1 0 2 0 2 .1s.6 2.5 1.4 5.6c.8 3 1.4 5.6 1.4 5.6 0 .1-32.9.1-32.9 0 0 0 .6-2.5 1.4-5.4.8-3 1.5-5.5 1.5-5.6l.1-.3h6.8c6.3.1 6.8.1 6.9.2zm20.4 14.2c0 .1-.3.9-.7 1.9l-.6 1.8H4.2l-.6-1.6c-.3-.9-.7-1.7-.7-1.9l-.1-.3h20.6c16.4 0 20.6 0 20.5.1z" style="fill:#5f4a33"/></svg>