<?xml version="1.0" encoding="utf-8"?>
<!-- Generator: Adobe Illustrator 24.0.1, SVG Export Plug-In . SVG Version: 6.00 Build 0)  -->
<svg version="1.1" id="Capa_1" xmlns="http://www.w3.org/2000/svg" xmlns:xlink="http://www.w3.org/1999/xlink" x="0px" y="0px"
	 viewBox="0 0 115 123" style="enable-background:new 0 0 115 123;" xml:space="preserve">
<style type="text/css">
	.st0{fill:none;stroke:#5F4A33;stroke-width:4.5;stroke-linecap:round;stroke-linejoin:round;}
</style>
<path class="st0" d="M9.9,112.6h94.8 M15.2,112.6v-46c0-8.5,7.1-15.3,15.8-15.3h52.7c8.7,0,15.8,6.9,15.8,15.3v46 M26.8,51.2V36.7
	c0-6.1,5.1-11.1,11.5-11.1h38.2c6.3,0,11.4,5,11.4,11.1v14.5"/>
<path class="st0" d="M17.1,71.6l1.8,0.1c3.5,0.1,6.3,3.1,6.3,6.9v1.7c0,1.8,0.7,3.6,1.9,4.9c1.2,1.3,2.8,2,4.5,2
	c1.7,0,3.3-0.7,4.5-2c1.2-1.3,1.9-3.1,1.9-4.9v-1.6c0-1.8,0.7-3.6,1.9-4.9c1.2-1.3,2.8-2,4.5-2c1.7,0,3.3,0.7,4.5,2
	c1.2,1.3,1.9,3.1,1.9,4.9v1.6c0,1.8,0.7,3.6,1.9,4.9c1.2,1.3,2.8,2,4.5,2c1.7,0,3.3-0.7,4.5-2c1.2-1.3,1.9-3.1,1.9-4.9v-1.6
	c0-1.8,0.7-3.6,1.9-4.9c1.2-1.3,2.8-2,4.5-2c1.7,0,3.3,0.7,4.5,2c1.2,1.3,1.9,3.1,1.9,4.9v1.6c0,1.8,0.7,3.6,1.9,4.9
	c1.2,1.3,2.8,2,4.5,2c1.7,0,3.3-0.7,4.5-2c1.2-1.3,1.9-3.1,1.9-4.9v-1.6c0-3.8,2.8-6.9,6.4-6.9h2.1 M38.3,25.6V15.4 M76.3,25.6V15.4
	 M57.3,25.6V10.3"/>
</svg>
