<?xml version="1.0" encoding="utf-8"?>
<!-- Generator: Adobe Illustrator 24.0.1, SVG Export Plug-In . SVG Version: 6.00 Build 0)  -->
<svg version="1.1" id="Capa_1" xmlns="http://www.w3.org/2000/svg" xmlns:xlink="http://www.w3.org/1999/xlink" x="0px" y="0px"
	 viewBox="0 0 48.1 48" style="enable-background:new 0 0 48.1 48;" xml:space="preserve">
<style type="text/css">
	.st0{fill:#5F4A33;}
</style>
<g>
	<g>
		<path class="st0" d="M32.3,0c-1,0.2-2,0.6-2.9,1.3c-0.5,0.3-0.6,0.4-1,0.4c-1.6,0-4.1,0.8-5.8,1.8c-4.4,2.6-7.2,7.7-8.5,15.3
			c-0.2,1.4-0.5,3.9-0.5,4.5c0,0.2,0,0.3-0.1,0.3s-0.4-0.2-0.8-0.3c-3.6-1.7-7.9-0.6-10.5,2.7c-2.2,2.7-2.8,5.9-2,9.9
			c1.1,5.4,4.9,9.8,9.7,11.6c1.5,0.5,2.6,0.7,4.3,0.7c1.9,0,2.8-0.2,4.5-0.8c3-1,5.9-3.5,7.6-6.4c0.6-1.1,0.5-1.1,1.4-0.7
			c3.5,1.6,7.9,1.8,11.3,0.6c4-1.5,7-4.5,8.3-8.4c1.2-3.7,0.9-7.6-0.8-11.2c-0.6-1.4-1-2-1.9-3.2c-1.7-2.3-3.7-3.7-6.2-4.3
			c-0.8-0.2-1.1-0.3-2.5-0.2c-1.5,0-1.7,0-2.4,0.3c-2.2,0.6-3.8,1.9-5,3.7c-0.4,0.6-0.9,1.7-1.1,2.4c0,0.1-0.1,0.3-0.2,0.3
			c-0.2,0-1.5-1.4-1.9-2c-1.8-2.7-1.7-5.6,0.2-9.3c0.6-1.1,1.7-2.8,1.8-2.8c0,0,0.1,0.2,0.1,0.3c0,0.5,0.4,1.7,0.8,2.4
			c0.9,1.5,2.2,2.4,4.3,3c2.9,0.8,6.4,0.4,9.6-1c1-0.5,1.4-0.7,1.4-1.1c0-0.6-3.2-4.7-5.3-6.8c-1.5-1.5-2.2-2-3.3-2.3
			C34.3,0.1,32.9-0.1,32.3,0z M34.1,1.7C34.5,1.8,35,2,35.2,2.1c1,0.6,3.4,3,5.4,5.8c0.4,0.5,0.8,1,0.8,1.1c0.1,0.1-0.2,0.2-0.8,0.4
			c-1.9,0.7-2.8,0.9-5,0.9c-1.9,0-2.8-0.2-3.9-0.7C30,8.8,29,7.4,29,5.6c0-1.2,0.3-1.9,1.2-2.8C31.3,1.7,32.6,1.4,34.1,1.7z
			 M27.1,3.6c0,0.1-0.4,0.5-0.7,0.9c-2,2.6-3.4,5.5-3.8,7.8c-0.2,1.2-0.1,2.8,0.2,3.9c0.4,1.5,1.5,3.3,2.6,4.4
			c0.3,0.2,0.5,0.5,0.5,0.5s-0.3,0.1-0.7,0.3c-0.7,0.3-1.6,0.8-2.2,1.3L22.6,23l-0.9-0.2c-0.8-0.2-1.1-0.2-2.2-0.2
			c-1.5,0-2.3,0.2-3.5,0.7l-0.7,0.3l0.1-0.8c0.6-7.2,2.6-12.9,5.9-16.1c1.5-1.5,2.9-2.4,4.9-2.9C27,3.4,27.2,3.4,27.1,3.6z
			 M38.1,15.3c0.9,0.2,2.1,0.8,2.9,1.4c0.3,0.2,0.9,0.7,1.3,1.1c3.9,4.1,5.2,9.6,3.4,14.5c-1.3,3.5-4.3,6.3-8,7.3
			C36.3,40,35.5,40,33.8,40c-2.1-0.1-3.6-0.4-5.5-1.2l-0.7-0.3l0.3-0.9c1.8-5.6,0.5-10.6-3.5-13.5l-0.4-0.3l0.4-0.3
			c0.6-0.4,1.1-0.6,1.8-0.8c1.1-0.4,1.2-0.4,2.2,0.1c0.6,0.3,1,0.4,1.2,0.4c0.6,0,0.9-0.7,0.6-1.2c-0.1-0.1-0.5-0.4-0.9-0.5
			c-0.7-0.3-0.7-0.3-0.6-0.6c0.5-2.5,2.3-4.6,4.7-5.4c0.4-0.1,0.9-0.3,1.2-0.3C35.4,15,37.2,15.1,38.1,15.3z M10.3,24.1
			c0.9,0.1,1.9,0.5,2.6,1l0.6,0.4V26c0,0.8,0.3,1.2,0.8,1.2c0.2,0,0.4-0.1,0.5-0.2c0.2-0.2,0.2-0.3,0.2-0.8c0-0.6,0-0.6,0.3-0.8
			c0.4-0.3,1.6-0.9,2.3-1.1c0.9-0.2,2.6-0.2,3.5,0c3.1,0.9,5.4,3.6,5.8,7.1c0.2,1.6-0.1,3.9-0.7,5.9c-1.4,4.4-5,7.8-9.1,8.9
			c-4.5,1.1-9.2-0.5-12.3-4.3c-1.5-1.8-2.5-4-3.1-6.5c-0.2-1.1-0.3-3.1-0.2-4c0.4-2.8,1.9-5.2,4.2-6.4C7.3,24.2,8.8,23.9,10.3,24.1z
			"/>
		<path class="st0" d="M34.6,16.8c-0.8,0.2-1.4,0.5-2.1,0.9c-0.7,0.5-0.9,0.7-0.9,1.1c0,0.3,0.1,0.5,0.5,0.7
			c0.3,0.2,0.6,0.1,1.1-0.3c0.5-0.5,1.3-0.8,2.1-0.9c1-0.2,1-0.2,1.2-0.4c0.3-0.3,0.2-0.7-0.1-1.1c-0.2-0.2-0.3-0.2-0.8-0.2
			C35.4,16.6,34.9,16.7,34.6,16.8z"/>
		<path class="st0" d="M43.8,27.6c-0.4,0.1-0.5,0.4-0.6,1.3c-0.1,0.5-0.2,1.1-0.2,1.4c-0.3,1.2-1.1,2.7-1.9,3.6
			c-0.7,0.7-0.7,1.1-0.3,1.5c0.4,0.4,0.7,0.3,1.1-0.1c1.5-1.3,2.6-3.8,2.9-6.2c0.1-1,0-1.4-0.4-1.6C44.1,27.5,44.1,27.5,43.8,27.6z"
			/>
		<path class="st0" d="M8.1,25.8c-2.6,0.6-4.5,2.9-4.9,6c-0.1,1,0,1.4,0.4,1.6c0.6,0.3,1-0.1,1.1-1.1c0.2-1.6,0.7-2.7,1.6-3.7
			c0.8-0.8,1.4-1.1,2.5-1.3c0.9-0.1,1.2-0.3,1.2-0.9C10.1,25.7,9.4,25.5,8.1,25.8z"/>
		<path class="st0" d="M24.3,31.7c-0.2,0.2-0.3,0.3-0.4,1.5c-0.1,0.7-0.1,1.3,0,1.5c0.2,0.5,0.8,0.6,1.2,0.4
			c0.3-0.2,0.4-0.6,0.5-1.9l0.1-1.1l-0.3-0.3C25,31.4,24.7,31.4,24.3,31.7z"/>
	</g>
</g>
</svg>
