<svg version="1.1" id="Capa_1" xmlns="http://www.w3.org/2000/svg" x="0" y="0" viewBox="0 0 48.1 48" style="enable-background:new 0 0 48.1 48" xml:space="preserve"><style>.st0{fill:#5f4a33}</style><path class="st0" d="M32.3 0c-1 .2-2 .6-2.9 1.3-.5.3-.6.4-1 .4-1.6 0-4.1.8-5.8 1.8-4.4 2.6-7.2 7.7-8.5 15.3-.2 1.4-.5 3.9-.5 4.5 0 .2 0 .3-.1.3s-.4-.2-.8-.3c-3.6-1.7-7.9-.6-10.5 2.7-2.2 2.7-2.8 5.9-2 9.9 1.1 5.4 4.9 9.8 9.7 11.6 1.5.5 2.6.7 4.3.7 1.9 0 2.8-.2 4.5-.8 3-1 5.9-3.5 7.6-6.4.6-1.1.5-1.1 1.4-.7 3.5 1.6 7.9 1.8 11.3.6 4-1.5 7-4.5 8.3-8.4 1.2-3.7.9-7.6-.8-11.2-.6-1.4-1-2-1.9-3.2-1.7-2.3-3.7-3.7-6.2-4.3-.8-.2-1.1-.3-2.5-.2-1.5 0-1.7 0-2.4.3-2.2.6-3.8 1.9-5 3.7-.4.6-.9 1.7-1.1 2.4 0 .1-.1.3-.2.3-.2 0-1.5-1.4-1.9-2-1.8-2.7-1.7-5.6.2-9.3.6-1.1 1.7-2.8 1.8-2.8 0 0 .1.2.1.3 0 .5.4 1.7.8 2.4.9 1.5 2.2 2.4 4.3 3 2.9.8 6.4.4 9.6-1 1-.5 1.4-.7 1.4-1.1 0-.6-3.2-4.7-5.3-6.8C36.7 1.5 36 1 34.9.7c-.6-.6-2-.8-2.6-.7zm1.8 1.7c.4.1.9.3 1.1.4 1 .6 3.4 3 5.4 5.8.4.5.8 1 .8 1.1.1.1-.2.2-.8.4-1.9.7-2.8.9-5 .9-1.9 0-2.8-.2-3.9-.7-1.7-.8-2.7-2.2-2.7-4 0-1.2.3-1.9 1.2-2.8 1.1-1.1 2.4-1.4 3.9-1.1zm-7 1.9c0 .1-.4.5-.7.9-2 2.6-3.4 5.5-3.8 7.8-.2 1.2-.1 2.8.2 3.9.4 1.5 1.5 3.3 2.6 4.4.3.2.5.5.5.5s-.3.1-.7.3c-.7.3-1.6.8-2.2 1.3l-.4.3-.9-.2c-.8-.2-1.1-.2-2.2-.2-1.5 0-2.3.2-3.5.7l-.7.3.1-.8C16 15.6 18 9.9 21.3 6.7c1.5-1.5 2.9-2.4 4.9-2.9.8-.4 1-.4.9-.2zm11 11.7c.9.2 2.1.8 2.9 1.4.3.2.9.7 1.3 1.1 3.9 4.1 5.2 9.6 3.4 14.5-1.3 3.5-4.3 6.3-8 7.3-1.4.4-2.2.4-3.9.4-2.1-.1-3.6-.4-5.5-1.2l-.7-.3.3-.9c1.8-5.6.5-10.6-3.5-13.5l-.4-.3.4-.3c.6-.4 1.1-.6 1.8-.8 1.1-.4 1.2-.4 2.2.1.6.3 1 .4 1.2.4.6 0 .9-.7.6-1.2-.1-.1-.5-.4-.9-.5-.7-.3-.7-.3-.6-.6.5-2.5 2.3-4.6 4.7-5.4.4-.1.9-.3 1.2-.3.8-.2 2.6-.1 3.5.1zm-27.8 8.8c.9.1 1.9.5 2.6 1l.6.4v.5c0 .8.3 1.2.8 1.2.2 0 .4-.1.5-.2.2-.2.2-.3.2-.8 0-.6 0-.6.3-.8.4-.3 1.6-.9 2.3-1.1.9-.2 2.6-.2 3.5 0 3.1.9 5.4 3.6 5.8 7.1.2 1.6-.1 3.9-.7 5.9-1.4 4.4-5 7.8-9.1 8.9-4.5 1.1-9.2-.5-12.3-4.3-1.5-1.8-2.5-4-3.1-6.5-.2-1.1-.3-3.1-.2-4 .4-2.8 1.9-5.2 4.2-6.4 1.6-.8 3.1-1.1 4.6-.9z"/><path class="st0" d="M34.6 16.8c-.8.2-1.4.5-2.1.9-.7.5-.9.7-.9 1.1 0 .3.1.5.5.7.3.2.6.1 1.1-.3.5-.5 1.3-.8 2.1-.9 1-.2 1-.2 1.2-.4.3-.3.2-.7-.1-1.1-.2-.2-.3-.2-.8-.2-.2 0-.7.1-1 .2zM43.8 27.6c-.4.1-.5.4-.6 1.3-.1.5-.2 1.1-.2 1.4-.3 1.2-1.1 2.7-1.9 3.6-.7.7-.7 1.1-.3 1.5.4.4.7.3 1.1-.1 1.5-1.3 2.6-3.8 2.9-6.2.1-1 0-1.4-.4-1.6-.3 0-.3 0-.6.1zM8.1 25.8c-2.6.6-4.5 2.9-4.9 6-.1 1 0 1.4.4 1.6.6.3 1-.1 1.1-1.1.2-1.6.7-2.7 1.6-3.7.8-.8 1.4-1.1 2.5-1.3.9-.1 1.2-.3 1.2-.9.1-.7-.6-.9-1.9-.6zM24.3 31.7c-.2.2-.3.3-.4 1.5-.1.7-.1 1.3 0 1.5.2.5.8.6 1.2.4.3-.2.4-.6.5-1.9l.1-1.1-.3-.3c-.4-.4-.7-.4-1.1-.1z"/></svg>