<?xml version="1.0" standalone="no"?>
<!DOCTYPE svg PUBLIC "-//W3C//DTD SVG 20010904//EN"
 "http://www.w3.org/TR/2001/REC-SVG-20010904/DTD/svg10.dtd">
<svg version="1.0" xmlns="http://www.w3.org/2000/svg"
 width="512.000000pt" height="512.000000pt" viewBox="0 0 512.000000 512.000000"
 preserveAspectRatio="xMidYMid meet">

<g transform="translate(0.000000,512.000000) scale(0.100000,-0.100000)"
fill="#000000" stroke="none">
<path d="M3445 5114 c-103 -16 -214 -65 -305 -133 -48 -36 -61 -41 -110 -41
-170 0 -437 -82 -613 -188 -464 -279 -766 -824 -901 -1627 -25 -149 -56 -412
-56 -480 0 -19 -4 -35 -9 -35 -5 0 -42 16 -82 35 -378 179 -842 61 -1118 -283
-230 -286 -297 -624 -210 -1052 116 -570 516 -1047 1032 -1229 156 -55 272
-74 457 -75 199 -1 301 16 484 80 314 111 624 373 804 679 69 118 55 112 144
70 368 -170 839 -196 1198 -65 426 156 740 475 879 895 128 389 99 810 -85
1194 -69 144 -109 212 -203 336 -181 241 -395 392 -658 462 -88 24 -115 27
-268 26 -155 0 -178 -2 -260 -27 -234 -69 -407 -197 -536 -394 -44 -66 -97
-185 -114 -255 -4 -15 -11 -27 -16 -27 -18 0 -157 149 -202 216 -189 286 -181
601 24 993 61 116 178 300 192 301 4 0 7 -16 7 -34 0 -52 45 -183 85 -250 99
-164 231 -255 457 -315 313 -84 682 -45 1023 106 108 48 145 79 145 122 0 65
-340 503 -564 726 -162 161 -231 210 -346 246 -64 20 -212 32 -275 23z m188
-179 c37 -8 91 -27 119 -42 109 -59 357 -324 573 -613 43 -58 82 -110 87 -116
6 -8 -22 -23 -89 -47 -206 -75 -302 -92 -528 -92 -197 0 -293 17 -419 72 -179
79 -286 238 -286 422 0 128 33 206 124 297 116 115 254 154 419 119z m-750
-197 c-5 -7 -39 -51 -75 -98 -216 -280 -362 -584 -404 -835 -20 -126 -14 -296
16 -410 41 -160 158 -355 280 -469 28 -26 50 -49 48 -50 -2 -1 -34 -15 -71
-30 -72 -30 -165 -87 -232 -141 l-40 -33 -95 26 c-80 21 -117 25 -235 25 -160
0 -247 -18 -373 -78 l-73 -35 6 83 c62 770 281 1374 625 1718 159 159 312 251
520 313 99 29 116 31 103 14z m1172 -1247 c97 -26 228 -87 309 -145 34 -24 95
-79 136 -122 414 -435 552 -1021 364 -1546 -135 -375 -456 -668 -847 -772
-153 -41 -231 -49 -414 -43 -225 7 -385 44 -580 132 l-71 33 30 94 c193 600
58 1126 -370 1435 l-43 31 43 30 c59 40 112 66 188 90 122 39 127 39 234 -14
59 -29 108 -47 128 -46 62 2 99 78 63 129 -8 12 -49 38 -91 57 -75 36 -75 37
-69 69 56 267 248 489 497 573 39 14 95 29 123 34 82 15 280 5 370 -19z
m-2952 -942 c96 -15 197 -52 280 -102 l67 -42 0 -58 c0 -86 27 -126 86 -127
21 0 40 9 58 26 23 23 26 35 26 90 0 59 2 64 33 88 47 36 172 93 247 113 100
26 273 24 374 -5 329 -95 570 -388 617 -750 22 -170 -9 -418 -78 -627 -152
-463 -532 -832 -973 -945 -474 -121 -980 55 -1310 455 -160 195 -270 428 -325
692 -24 112 -36 332 -24 423 40 297 207 551 449 683 153 83 308 111 473 86z"/>
<path d="M3685 3335 c-82 -18 -147 -48 -221 -101 -74 -52 -94 -78 -94 -119 1
-34 15 -56 48 -74 32 -17 68 -6 119 35 58 48 142 84 221 96 107 16 110 17 132
40 29 31 26 79 -6 112 -23 22 -35 26 -83 25 -31 0 -83 -7 -116 -14z"/>
<path d="M4660 2179 c-38 -14 -49 -39 -60 -141 -6 -51 -17 -118 -25 -149 -34
-129 -119 -289 -203 -382 -71 -77 -78 -112 -33 -158 40 -39 72 -37 122 8 158
143 279 401 308 657 12 103 0 149 -44 166 -30 12 -32 12 -65 -1z"/>
<path d="M871 2375 c-278 -63 -480 -308 -522 -635 -14 -106 -3 -145 44 -165
69 -29 111 10 122 112 17 167 72 292 174 394 81 81 154 118 261 133 94 13 124
35 124 91 0 74 -73 99 -203 70z"/>
<path d="M2594 1747 c-26 -23 -28 -32 -40 -157 -7 -76 -8 -143 -4 -156 19 -49
84 -69 127 -39 30 21 42 69 49 202 l7 112 -31 30 c-37 37 -71 40 -108 8z"/>
</g>
</svg>
