<?xml version="1.0" encoding="utf-8"?>
<!-- Generator: Adobe Illustrator 24.0.1, SVG Export Plug-In . SVG Version: 6.00 Build 0)  -->
<svg version="1.1" id="Capa_1" xmlns="http://www.w3.org/2000/svg" xmlns:xlink="http://www.w3.org/1999/xlink" x="0px" y="0px"
	 viewBox="0 0 48 45" style="enable-background:new 0 0 48 45;" xml:space="preserve">
<style type="text/css">
	.st0{fill:#5F4A33;}
</style>
<g>
	<g>
		<path class="st0" d="M24,8.2L21.8,6c-5-5.2-14.3-3.4-17.6,3.1c-1.6,3.1-1.9,7.5,0.9,13.2c2.8,5.4,8.5,12,18.9,19.1
			c10.4-7.1,16.1-13.6,18.9-19.1c2.9-5.7,2.5-10.1,0.9-13.2C40.5,2.6,31.2,0.8,26.2,6L24,8.2z M24,45C-22,14.6,9.8-9.1,23.5,3.4
			c0.2,0.2,0.4,0.3,0.5,0.5c0.2-0.2,0.3-0.3,0.5-0.5C38.2-9.1,70,14.6,24,45z"/>
	</g>
</g>
</svg>
