<?xml version="1.0" standalone="no"?>
<!DOCTYPE svg PUBLIC "-//W3C//DTD SVG 20010904//EN"
 "http://www.w3.org/TR/2001/REC-SVG-20010904/DTD/svg10.dtd">
<svg version="1.0" xmlns="http://www.w3.org/2000/svg"
 width="512.000000pt" height="512.000000pt" viewBox="0 0 512.000000 512.000000"
 preserveAspectRatio="xMidYMid meet">

<g transform="translate(0.000000,512.000000) scale(0.100000,-0.100000)"
fill="#000000" stroke="none">
<path d="M3380 4296 c-817 -145 -1499 -270 -1515 -278 -56 -30 -95 -95 -95
-162 l0 -34 -117 -4 c-103 -3 -126 -7 -177 -31 -202 -94 -301 -312 -236 -519
11 -34 20 -64 20 -65 0 -2 -38 -3 -85 -3 -125 0 -180 -27 -216 -105 -23 -49
-24 -104 -4 -152 32 -76 78 -104 184 -112 l74 -6 130 -492 c72 -271 129 -494
126 -496 -2 -3 -105 10 -229 27 l-225 32 -7 57 c-23 182 -194 294 -370 243
-74 -21 -147 -87 -179 -161 -13 -30 -28 -55 -34 -55 -5 0 -91 11 -189 25 -99
14 -183 25 -188 25 -4 0 -17 -9 -28 -20 -20 -20 -20 -33 -20 -715 0 -682 0
-695 20 -715 20 -20 33 -20 1169 -20 1079 0 1150 1 1170 18 20 16 21 27 23
237 l3 220 935 5 934 5 13 25 c7 14 110 392 229 840 118 448 222 839 230 868
l15 52 60 0 c97 0 157 33 190 105 33 71 15 170 -37 217 -41 36 -90 48 -203 48
l-109 0 -25 43 c-35 60 -128 144 -189 172 -29 13 -82 29 -118 34 -42 7 -397
11 -995 11 -788 0 -927 2 -915 14 9 8 222 50 533 104 410 72 525 95 554 113
42 26 72 87 73 146 0 31 4 43 18 47 19 5 642 116 1102 196 162 28 305 53 317
55 58 13 122 104 123 175 0 117 -98 225 -220 243 -22 3 -589 -93 -1520 -257z
m1548 120 c40 -21 62 -49 68 -87 12 -70 24 -67 -556 -168 -289 -50 -530 -91
-536 -91 -10 0 -50 178 -42 185 7 6 967 173 1001 174 21 1 50 -5 65 -13z
m-1183 -208 c8 -39 25 -141 25 -153 0 -8 -42 -19 -107 -31 -59 -10 -125 -27
-147 -38 -51 -26 -90 -94 -82 -143 3 -20 0 -38 -8 -45 -13 -14 -912 -175 -922
-166 -3 3 0 36 7 72 10 57 9 70 -5 91 l-16 25 -290 0 c-285 0 -289 0 -301 21
-15 28 2 66 33 74 43 11 1763 313 1785 314 16 1 24 -6 28 -21z m-1365 -538
c-13 -46 -46 -94 -91 -135 -50 -45 -95 -65 -172 -75 -74 -11 -89 -23 -85 -69
2 -26 10 -39 28 -48 20 -10 263 -13 1136 -13 1255 0 1164 6 1257 -81 l52 -48
-1547 -1 -1547 0 -20 26 c-27 34 -51 115 -51 169 0 97 59 208 136 256 77 47
86 48 511 49 l402 0 -9 -30z m2490 -610 c11 -11 20 -31 20 -45 0 -14 -9 -34
-20 -45 -20 -20 -33 -20 -1895 -20 -1862 0 -1875 0 -1895 20 -11 11 -20 31
-20 45 0 14 9 34 20 45 20 20 33 20 1895 20 1862 0 1875 0 1895 -20z m-264
-256 c-4 -15 -10 -39 -13 -55 l-5 -29 -1613 0 -1612 0 -6 29 c-3 16 -9 40 -13
55 l-6 26 1637 0 1637 0 -6 -26z m-56 -216 c0 -2 -72 -271 -159 -598 l-158
-595 -924 0 -924 0 -5 148 c-4 114 -8 150 -19 157 -19 11 -22 12 -411 65 -184
26 -338 50 -341 53 -4 4 -50 174 -104 377 -54 204 -100 376 -103 383 -3 9 315
12 1572 12 867 0 1576 -1 1576 -2z m-3750 -521 c51 -27 90 -90 90 -147 0 -57
-39 -120 -90 -147 -52 -28 -91 -29 -146 -4 -102 47 -131 173 -59 259 53 63
131 78 205 39z m-502 -193 l134 -18 28 -57 c103 -202 375 -225 501 -42 l15 22
639 -89 c351 -50 640 -90 642 -90 2 0 3 -151 3 -335 l0 -335 -1070 0 -1070 0
0 486 0 486 23 -5 c12 -3 82 -13 155 -23z m3902 -607 c0 -2 -7 -27 -15 -55
l-16 -52 -894 0 -895 0 0 55 0 55 910 0 c501 0 910 -1 910 -3z m-1940 -522 l0
-65 -1070 0 -1070 0 0 65 0 65 1070 0 1070 0 0 -65z"/>
<path d="M2811 2485 c-337 -61 -567 -304 -522 -551 70 -379 647 -566 1081
-352 204 101 322 293 291 472 -53 301 -452 503 -850 431z m379 -135 c150 -42
276 -133 326 -237 93 -190 -50 -395 -331 -474 -104 -30 -305 -32 -405 -5 -158
43 -295 138 -345 240 -37 75 -37 167 0 242 60 122 225 223 420 255 80 13 251
2 335 -21z"/>
</g>
</svg>
