<svg width="43" height="47" viewBox="0 0 43 47" fill="none" xmlns="http://www.w3.org/2000/svg">
<path d="M26.3788 1.15297C26.1908 1.35038 25.7772 1.8392 25.4481 2.23401C24.7713 3.05184 24.9405 2.99544 22.9571 3.10824C19.9865 3.28685 18.0031 3.80387 15.6436 5.00711C10.8494 7.4606 6.37484 12.2266 3.46073 17.9984C0.161212 24.5316 -0.647218 31.0743 1.24225 35.8214C1.64647 36.8273 1.63707 36.7897 1.80627 38.8766C1.98488 41.1514 2.13528 41.7813 2.6429 42.3359C2.96252 42.6931 3.31033 42.8247 3.94955 42.8247C4.71098 42.8247 5.2186 42.6743 7.10807 41.8659C8.48992 41.2736 8.73433 41.1984 9.55216 41.1232C10.6708 41.0198 10.887 40.9822 12.0527 40.6908C14.2899 40.1362 16.7904 38.8577 18.9243 37.1751L19.4883 36.7239L20.3908 37.7391C22.5434 40.155 25.2507 42.2607 27.8358 43.5203C29.7817 44.4792 31.2858 44.9116 33.241 45.0808C34.0683 45.156 34.3597 45.2312 35.2621 45.6072C38.43 46.9138 39.1256 47.0736 39.9247 46.66C40.2725 46.4814 40.4041 46.3404 40.6485 45.8328C41.0057 45.1372 41.0997 44.5732 41.2407 42.4205C41.2971 41.424 41.3911 40.7848 41.5133 40.4464C42.5192 37.6357 42.6508 37.0247 42.7166 34.7686C42.773 32.8603 42.6696 31.5349 42.3218 29.8052C41.3817 25.1332 38.9752 20.1229 35.7133 16.0431C34.7451 14.8399 32.5642 12.612 31.4926 11.7378C30.7499 11.1361 30.6089 10.9763 30.5243 10.6379C30.2799 9.67909 29.6407 7.82722 29.1143 6.60517L28.5503 5.26092L29.0673 4.04828C29.3681 3.36205 29.5843 2.74163 29.5655 2.60063C29.5467 2.40322 29.3117 2.21521 28.2683 1.58539C27.5726 1.15297 26.9428 0.805161 26.8582 0.805161C26.7736 0.805161 26.5574 0.964967 26.3788 1.15297ZM27.8264 2.40322L28.5503 2.87324L28.3999 3.22105C28.3247 3.41846 28.193 3.73807 28.1084 3.92607C28.0332 4.12348 27.9392 4.28329 27.911 4.28329C27.8828 4.28329 27.7042 4.14228 27.5162 3.96368C27.206 3.65346 26.3318 3.15525 26.1156 3.15525C26.0592 3.15525 26.0122 3.12705 26.0122 3.09884C26.0122 2.99544 26.9052 1.9426 26.9992 1.9426C27.0556 1.9426 27.4222 2.14941 27.8264 2.40322ZM25.2977 3.97308C25.3259 4.01068 24.7807 4.32089 24.0663 4.6593C18.9243 7.13159 14.3651 10.8071 10.8024 15.3569C9.84357 16.5789 8.09511 19.1922 7.29608 20.5929C5.3314 24.0334 3.33853 28.9028 2.10708 33.2739C1.92848 33.8944 1.75927 34.355 1.73107 34.2986C1.63707 34.1482 1.40206 33.0765 1.28925 32.2963C1.15765 31.3845 1.15765 28.978 1.28925 27.8687C1.81567 23.4412 3.81795 18.4778 6.76966 14.2947C8.92234 11.2395 11.78 8.42884 14.4121 6.76498C17.2416 4.97891 19.5729 4.25509 23.2861 4.01068C24.9217 3.90727 25.2225 3.89787 25.2977 3.97308ZM25.3635 5.36433C25.2601 5.54293 22.2896 10.3747 18.7645 16.0901C15.2394 21.8055 12.3441 26.5527 12.3159 26.6561C12.2689 26.8253 12.5791 27.2201 12.7577 27.2201C12.8141 27.2201 12.9551 27.1261 13.0679 27.0039C13.1807 26.8911 16.217 22.0311 19.8079 16.1935C24.9875 7.78022 26.3506 5.62754 26.4258 5.75914C26.548 5.97535 26.4258 9.77309 26.2472 11.2865C25.2695 19.634 21.7444 27.0415 15.3898 34.1294C14.2241 35.4266 11.4322 38.1903 10.1162 39.356C9.32655 40.0516 9.14794 40.1644 8.61212 40.3054C8.28311 40.39 7.39948 40.719 6.64745 41.0386C5.2938 41.612 4.16576 41.9787 4.06236 41.8753C4.03415 41.8377 4.77678 40.5686 5.72622 39.0552C7.77549 35.7368 7.8225 35.6616 7.69089 35.4172C7.54048 35.1352 7.23967 35.0976 6.97646 35.3326C6.85426 35.4454 6.00823 36.7521 5.10579 38.2467C2.94371 41.7813 3.15052 41.4804 3.05652 41.236C2.91551 40.86 2.79331 39.8636 2.69931 38.4065C2.6523 37.6075 2.5489 36.7333 2.4831 36.4607C2.36089 35.9906 2.37029 35.9342 2.81211 34.261C6.13983 21.7961 12.4475 12.612 21.406 7.16919C22.44 6.52997 25.3071 5.03532 25.4763 5.03532C25.5233 5.03532 25.4763 5.18572 25.3635 5.36433ZM28.1272 6.67097C28.7853 8.18443 29.5279 10.3841 29.7253 11.4276C29.9603 12.6684 30.0073 14.8117 29.8287 16.3533C29.2177 21.5705 26.9146 26.8441 23.0981 31.7511C22.2332 32.8697 19.4601 35.6052 18.3321 36.4607C16.1324 38.1339 13.9045 39.262 11.7142 39.8166C11.2912 39.9294 10.934 39.9952 10.9152 39.9858C10.8964 39.967 11.4886 39.3842 12.2219 38.6979C20.8326 30.6136 25.7208 21.9653 27.0462 12.4804C27.3 10.6473 27.4504 8.12803 27.4034 6.55817C27.347 4.93191 27.3846 4.93191 28.1272 6.67097ZM32.63 14.0784C33.523 14.9715 34.6229 16.1653 35.0741 16.7387C38.5804 21.1663 41.0151 26.6279 41.6731 31.5443C41.8235 32.6817 41.8423 35.2386 41.7107 36.1975C41.5791 37.1093 41.3159 38.3125 41.2501 38.3125C41.2219 38.3125 40.9493 37.4947 40.6579 36.5077C38.5616 29.354 35.3279 23.0276 31.3892 18.365L30.6371 17.4814L30.7781 16.3063C30.8627 15.5919 30.9003 14.6237 30.8815 13.7964C30.8627 13.0632 30.8815 12.4616 30.9191 12.4616C30.9662 12.4616 31.7276 13.1948 32.63 14.0784ZM31.878 20.4989C35.4313 25.1803 38.2796 31.2717 40.1879 38.2655C40.6391 39.9012 40.6485 39.967 40.5263 40.4276C40.4511 40.6814 40.3477 41.5744 40.3007 42.4017C40.1973 43.8963 40.0751 44.8082 39.9341 45.203C39.8401 45.438 40.0939 45.814 37.6216 41.8001C36.2679 39.6098 35.9765 39.2056 35.7791 39.1774C35.6381 39.1586 35.4783 39.2244 35.3749 39.3278C35.2339 39.497 35.2245 39.544 35.3467 39.826C35.4219 40.0046 36.2491 41.3864 37.1892 42.9093C38.9376 45.7106 39.0598 45.9268 38.9376 45.9268C38.6462 45.9268 37.5464 45.5414 36.3337 45.0244C35.5441 44.686 34.6511 44.3569 34.3503 44.2817C33.7393 44.1407 33.5512 43.9903 31.2294 41.8283C28.7007 39.4688 26.407 36.8931 24.3389 34.0918C23.4835 32.9449 23.3801 32.7381 23.5681 32.6253C23.8971 32.4279 25.9464 29.4574 26.8582 27.8781C27.1308 27.4081 27.394 27.0603 27.4316 27.0979C27.4692 27.1355 28.0332 28.038 28.6819 29.1002C29.3399 30.153 29.9321 31.0555 30.0167 31.1025C30.2517 31.2341 30.6089 31.0931 30.6747 30.8393C30.7217 30.6607 30.4491 30.153 29.3023 28.3106L27.8828 25.9981L28.3529 24.9734C29.1425 23.2532 30.3363 19.6811 30.3363 19.0418C30.3363 18.553 30.5525 18.7598 31.878 20.4989ZM23.7279 34.8532C25.9182 37.7861 28.7383 40.8694 31.502 43.3699C31.8592 43.6895 32.1318 43.9715 32.113 43.9903C32.0472 44.0561 30.3269 43.5767 29.5467 43.2759C27.7888 42.5803 25.9746 41.4898 24.1885 40.061C23.2015 39.2714 21.2556 37.3819 20.6164 36.5923L20.2498 36.141L21.5094 34.872C22.1956 34.1764 22.7784 33.6124 22.7878 33.6124C22.7972 33.6124 23.2203 34.1764 23.7279 34.8532Z" fill="#5F4A33"/>
<path d="M10.9058 28.8371C10.1726 30.0122 9.46753 31.2154 9.46753 31.3094C9.46753 31.488 9.78714 31.7324 10.0127 31.7324C10.229 31.7324 10.276 31.676 11.3194 29.9558C11.6484 29.4199 11.9116 28.9217 11.9116 28.8559C11.9116 28.6585 11.6296 28.4423 11.3852 28.4423C11.2254 28.4423 11.0938 28.5551 10.9058 28.8371Z" fill="#5F4A33"/>
<path d="M31.2764 32.5783C31.173 32.6817 31.0884 32.8133 31.0884 32.8791C31.0884 33.0483 32.4984 35.3326 32.7428 35.5582C33.006 35.8026 33.3163 35.7462 33.4573 35.436C33.5419 35.248 33.4573 35.06 32.8274 34.0165C32.1412 32.8791 31.7558 32.3903 31.549 32.3903C31.502 32.3903 31.3798 32.4749 31.2764 32.5783Z" fill="#5F4A33"/>
</svg>
