<svg width="49" height="49" viewBox="0 0 49 49" fill="none" xmlns="http://www.w3.org/2000/svg">
<path d="M41.5554 0.661812C40.3709 0.953222 38.6695 2.16587 38.2935 3.0025C37.7012 4.29034 38.6131 5.8226 40.0325 5.94481C40.7093 6.00121 41.1136 5.8508 41.8092 5.29618C42.1194 5.04237 42.4766 4.80736 42.5988 4.77916C43.0312 4.66636 43.5294 5.22098 43.4072 5.6816C43.379 5.8038 41.0854 7.78727 37.7012 10.6262L32.0516 15.3734L31.9388 14.3863C31.7978 13.0891 31.6662 12.478 31.3278 11.5098C30.7732 9.92115 30.181 8.95292 28.5735 6.97884C28.2539 6.59343 27.4549 5.39959 26.7968 4.31855C26.1294 3.22811 25.4996 2.24107 25.3868 2.12827C24.851 1.52664 23.8545 1.44204 23.1495 1.93086C23.0179 2.03426 22.3505 3.0119 21.683 4.11174C20.4516 6.10461 20.0192 6.73443 19.2107 7.66507C18.2519 8.77431 18.0827 9.22553 18.4963 9.61094C18.8159 9.91175 19.1919 9.87415 19.5116 9.50754C21.1566 7.58987 21.4104 7.23265 22.7923 4.97657C23.4315 3.94253 23.9861 3.0683 24.0425 3.0307C24.0989 3.0025 24.1929 2.9931 24.2587 3.0213C24.3151 3.0401 24.9356 3.97073 25.6218 5.08937C26.308 6.20802 27.1258 7.43006 27.4361 7.81547C28.7333 9.40413 29.0153 9.81775 29.4665 10.7108C30.651 13.0985 30.886 15.7306 30.1716 18.6541C29.9553 19.5283 29.3537 21.2298 29.1939 21.399C29.1657 21.4366 28.9589 21.4366 28.7333 21.4084L28.3291 21.352L27.8215 20.3555C27.2574 19.2181 26.2892 17.7234 25.4432 16.6612L24.8604 15.928V13.7189C24.8604 11.632 24.851 11.5004 24.6723 11.3218C24.5689 11.2184 24.3621 11.1338 24.2023 11.1338C24.0425 11.1338 23.8357 11.2184 23.7323 11.3218C23.5537 11.5004 23.5443 11.632 23.5443 13.6813V15.8622L22.9333 16.6142C22.0873 17.6482 21.2224 18.9643 20.5362 20.2709C20.2166 20.882 19.9064 21.3802 19.8312 21.3802C19.7654 21.3802 19.5868 21.4084 19.427 21.4366L19.1449 21.493L18.7501 20.4871C17.7443 17.9114 17.5093 15.1571 18.0827 12.7789C18.2895 11.914 18.2237 11.6226 17.7819 11.4722C17.3495 11.3124 17.0393 11.491 16.8513 12.0174C16.5975 12.6849 16.3906 14.0197 16.3718 15.0819C16.3624 15.74 16.3248 16.0126 16.2496 15.9844C15.1028 15.5426 13.5141 15.2699 12.1229 15.2699C10.412 15.2699 9.30278 15.505 7.34751 16.2758C6.46388 16.6236 5.30764 16.962 3.62497 17.3756C1.97991 17.7704 1.09628 18.0336 0.898873 18.1747C0.306651 18.5977 0.0434417 19.6223 0.372454 20.2521C0.447657 20.4025 1.19028 21.3144 2.01751 22.292C2.84474 23.2602 3.67198 24.2661 3.84118 24.5293C4.01039 24.7831 4.4428 25.4411 4.79062 25.9769C5.53324 27.1144 6.71769 28.3458 7.75173 29.0791C8.57896 29.6619 10.0454 30.4139 10.9478 30.6959L11.5777 30.9027L11.07 31.6359C10.788 32.0402 10.3838 32.764 10.1582 33.234L9.7446 34.0988L5.75885 37.436C3.57797 39.269 1.7073 40.8859 1.6227 41.0175C1.5287 41.1491 1.45349 41.4311 1.45349 41.6473C1.45349 42.0421 1.5569 42.2113 2.37473 43.1702L2.76954 43.6402L1.79191 44.458C0.776669 45.3135 0.607462 45.5391 0.607462 46.0373C0.607462 46.4227 0.795469 46.7141 1.6791 47.7199C2.42173 48.5754 2.73194 48.7446 3.28656 48.6036C3.54977 48.5378 5.63665 46.8363 5.77765 46.5731C5.92806 46.2817 5.89046 46.0185 5.63665 45.7741C5.26063 45.3887 5.03503 45.4639 3.97279 46.3381L3.00455 47.1371L2.74134 46.8363C2.60034 46.6671 2.40293 46.4133 2.29952 46.2817L2.11152 46.0279L5.55204 43.142C7.44151 41.5533 9.01137 40.2749 9.03017 40.3031C9.08657 40.3595 9.10538 40.8765 9.08657 41.5157L9.06777 42.0515L8.10894 42.86C7.57312 43.3112 7.1031 43.7718 7.0561 43.8846C6.9245 44.2324 7.0655 44.599 7.39451 44.7306C7.76113 44.8904 7.93973 44.8434 8.39095 44.4486C8.59776 44.27 8.79516 44.129 8.83277 44.129C8.86097 44.129 8.86097 44.5614 8.82337 45.0972C8.76696 45.9715 8.78576 46.1031 8.96437 46.4509C9.24638 47.0149 9.7258 47.3533 10.318 47.4003C10.7598 47.4285 11.0042 47.3533 13.1099 46.4791C14.7926 45.7929 15.8078 45.4263 16.8701 45.1536C18.0357 44.8622 18.5715 44.6648 19.5492 44.176C20.226 43.847 21.025 43.377 21.3352 43.142C22.1061 42.5592 23.2811 41.3841 23.8075 40.6697C24.0425 40.3501 24.2587 40.0869 24.2869 40.0869C24.3151 40.0869 24.4937 40.3125 24.6723 40.5851C25.4902 41.8071 27.3514 43.3582 28.9495 44.1572C29.5981 44.4768 31.2338 45.069 31.4782 45.069C31.8448 45.069 33.5181 45.6519 35.4357 46.4415C37.7764 47.4097 38.1524 47.4943 38.8105 47.1841C39.2523 46.9679 39.6283 46.4227 39.6847 45.8963C39.7129 45.6707 39.6565 44.5802 39.5719 43.471C39.4497 41.9293 39.4215 40.9799 39.4779 39.4758C39.5249 37.8496 39.5155 37.3232 39.3839 36.5147C39.0925 34.6911 38.4345 33.046 37.4192 31.5513L36.9116 30.7993L37.626 30.5455C40.0889 29.6713 42.2416 27.998 43.614 25.8923C43.9619 25.3471 44.3943 24.6891 44.5635 24.4353C44.7421 24.1721 45.5599 23.1662 46.3871 22.198C47.2144 21.2204 47.957 20.3085 48.0322 20.1581C48.3612 19.5283 48.098 18.5037 47.5152 18.0901C47.3272 17.9584 46.3777 17.6764 44.7985 17.291C43.4542 16.9526 42.2322 16.633 42.0724 16.5672L41.781 16.445L44.1217 14.4803C45.4095 13.4087 46.5094 12.4216 46.5658 12.29C46.8196 11.726 46.6786 11.3406 45.8419 10.3442L45.3719 9.78015L46.0957 9.07512C46.9324 8.24789 47.346 7.49586 47.5716 6.43362C48.3048 2.9649 45.0335 -0.18422 41.5554 0.661812ZM44.1593 2.23167C45.9265 3.0401 46.7538 5.17398 45.9641 6.89424C45.6069 7.66507 45.3813 7.89068 43.2944 9.62974C41.1982 11.3876 41.0196 11.5944 41.264 12.0738C41.405 12.3464 41.5742 12.4498 41.9126 12.4498C42.0348 12.4498 42.5518 12.0832 43.191 11.5568L44.2721 10.6544L44.5353 10.9646C44.6763 11.1338 44.8737 11.3876 44.9771 11.5192L45.1651 11.773L42.8808 13.6813C41.6306 14.7247 40.5401 15.646 40.4555 15.7118C40.3145 15.8246 40.1923 15.8152 39.5155 15.6366C39.0831 15.5238 38.7071 15.411 38.6883 15.4016C38.6695 15.3828 38.8011 15.2511 38.9703 15.1101C39.8351 14.3957 40.0231 14.1701 40.0231 13.8787C40.0231 13.4745 39.7599 13.2019 39.3745 13.2019C39.1207 13.2019 38.8575 13.3711 37.8892 14.1701L36.7142 15.1477L35.605 15.2041C34.9939 15.2323 34.4863 15.2417 34.4675 15.2323C34.4581 15.2135 36.5074 13.4745 39.0267 11.3594C44.3473 6.90364 44.3755 6.87544 44.5917 6.43362C45.1087 5.40899 44.7515 4.21514 43.7645 3.63232C43.4166 3.42551 43.2192 3.37851 42.721 3.37851C42.0442 3.37851 41.7246 3.51952 40.9443 4.17754C40.2299 4.77916 39.5249 4.61936 39.5249 3.85793C39.5249 3.58532 39.6001 3.46311 40.0231 3.0965C41.0478 2.19407 41.781 1.90266 42.9278 1.95906C43.4354 1.98726 43.8021 2.06246 44.1593 2.23167ZM38.0302 16.727C38.9985 16.9056 39.4779 17.056 40.7563 17.5824C41.358 17.8268 42.5988 18.1935 43.9055 18.5131C46.9512 19.2557 46.7632 19.1993 46.7632 19.4061C46.7632 19.5001 46.1051 20.3555 45.2967 21.305C44.3943 22.3578 43.4448 23.6081 42.8432 24.5105C41.7152 26.2308 40.8221 27.1802 39.6095 27.9792C38.237 28.891 37.2594 29.2953 35.5109 29.6619C34.5239 29.8687 32.155 30.0097 31.4124 29.8969C31.0552 29.8405 30.9894 29.7935 30.9424 29.5773C30.8954 29.3517 31.0082 29.1919 31.873 28.2988C32.9259 27.199 34.1949 25.5821 34.7871 24.5575L35.1537 23.9183L36.9398 23.3448C37.9268 23.0346 38.8011 22.7056 38.8951 22.621C39.2429 22.3108 39.0549 21.6152 38.5567 21.446C38.4627 21.4084 37.4756 21.6904 36.2536 22.0852L34.1197 22.7808L32.8977 22.3766C32.2302 22.151 31.4312 21.916 31.1398 21.8502L30.604 21.728L30.7544 21.3896C31.0364 20.7315 31.5252 19.1617 31.6944 18.3251L31.8636 17.479L32.7566 17.1782C33.2549 17.009 33.9881 16.8116 34.4017 16.7364C35.4075 16.5578 37.0714 16.5484 38.0302 16.727ZM14.1534 16.868C14.8678 17.0184 16.3342 17.4508 16.4658 17.5636C16.4752 17.573 16.5787 18.0054 16.6915 18.5131C16.8513 19.2839 17.3495 20.8256 17.6691 21.587C17.7161 21.7092 17.6973 21.7562 17.5939 21.7562C17.4059 21.7562 15.7326 22.2544 14.943 22.5458L14.285 22.7808L12.1511 22.0852C10.9008 21.6716 9.95141 21.4084 9.848 21.446C9.754 21.4742 9.60359 21.5682 9.51899 21.6434C9.30278 21.822 9.29338 22.433 9.50019 22.6116C9.58479 22.6868 10.4402 22.997 11.3991 23.3072L13.1475 23.8807L13.5611 24.5763C13.7867 24.9617 14.3132 25.7325 14.7268 26.2872C15.1404 26.8324 15.4882 27.3024 15.4976 27.3306C15.4976 27.3588 15.1592 27.6314 14.7268 27.9322C14.3038 28.2424 13.6551 28.7594 13.2885 29.0885L12.6211 29.6807L11.9819 29.5303C11.0512 29.3047 9.7634 28.7218 8.82337 28.1014C7.71412 27.3588 6.69889 26.3154 5.91866 25.1309C5.57085 24.5951 5.13843 23.9371 4.96922 23.6833C4.80002 23.42 3.97279 22.4142 3.14556 21.446C2.31833 20.4777 1.6415 19.5941 1.6415 19.5001C1.6415 19.2933 1.5287 19.3309 4.2736 18.6635C5.33584 18.4097 6.53908 18.0713 6.9527 17.9208C7.36631 17.7704 8.11834 17.4884 8.63536 17.3004C9.14298 17.1124 9.8856 16.8962 10.2804 16.8304C11.3803 16.6236 13.0535 16.6424 14.1534 16.868ZM25.4432 19.0677C25.8568 19.6881 26.4396 20.7033 26.7498 21.3332C27.0506 21.963 27.3514 22.527 27.4267 22.5834C27.4925 22.6398 27.9437 22.7338 28.4325 22.7902C28.9213 22.856 29.7297 22.9876 30.2186 23.091C31.121 23.279 33.4147 23.9841 33.4147 24.0687C33.4147 24.1627 32.672 25.2155 32.0892 25.9487C31.7602 26.3624 31.0364 27.1426 30.4724 27.7066C29.6545 28.4962 29.4383 28.7688 29.4383 28.9757C29.4383 29.1167 29.5323 29.7371 29.6451 30.3575C29.7861 31.1189 29.8707 32.0402 29.9083 33.1964C29.9647 34.8415 29.9553 34.9167 29.7861 34.9167C29.3537 34.9167 27.1352 34.0706 25.8004 33.3938C25.0014 32.9896 24.2493 32.6606 24.1271 32.6606C24.0143 32.6606 23.5725 32.8486 23.1683 33.0836C22.1907 33.6382 20.9592 34.174 19.7372 34.5877C18.3553 35.0483 18.3741 35.0483 18.3741 34.2962C18.3741 33.9578 18.3271 33.6006 18.2707 33.4972C18.1297 33.2246 17.7349 33.1024 17.4247 33.2246C17.0393 33.3844 16.9265 33.7604 17.0017 34.6347L17.0581 35.3773L15.883 36.9941C15.1498 38.0094 14.708 38.6862 14.708 38.8366C14.708 39.1186 15.1028 39.5228 15.3848 39.5228C15.742 39.5228 15.93 39.3348 16.9641 37.8966L17.9511 36.5335L18.7971 36.3267C19.4928 36.1575 21.2882 35.5465 21.965 35.2551C22.0967 35.1987 22.1531 35.2927 22.3223 35.8661C22.4351 36.2421 22.7359 37.0317 22.9897 37.6334L23.4503 38.7144L23.0555 39.3348C22.8299 39.6732 22.2095 40.3971 21.6642 40.9423C20.1132 42.5027 18.8911 43.1702 16.3248 43.847C15.4224 44.082 14.1816 44.5238 12.7527 45.1066C11.5495 45.6049 10.4966 46.0091 10.4214 46.0091C10.3462 46.0091 10.2616 45.9433 10.2334 45.8681C10.2052 45.8023 10.2522 44.8622 10.3368 43.8C10.4214 42.7284 10.4778 41.2807 10.459 40.5757C10.4026 37.765 10.4496 36.8061 10.694 35.8473C11.0136 34.6253 11.4085 33.704 12.0571 32.7076C13.0441 31.1753 14.332 29.8781 15.9112 28.8158L16.494 28.421L16.9735 28.8252C17.3589 29.1637 17.4341 29.2671 17.3965 29.4645C17.3683 29.5961 17.3119 29.9533 17.2837 30.2729C17.2273 30.7899 17.2461 30.8651 17.4435 31.0437C17.8477 31.4291 18.4869 31.2129 18.5997 30.6677C18.6279 30.5455 18.7125 30.1225 18.7971 29.7277C18.8817 29.3235 18.9287 28.9192 18.9005 28.8346C18.8723 28.7406 18.4023 28.233 17.8665 27.7066C17.3307 27.1802 16.6445 26.4376 16.3342 26.0615C15.7326 25.3189 14.896 24.1627 14.896 24.0781C14.896 23.9747 17.2367 23.2696 18.1861 23.0722C18.6937 22.9782 19.4834 22.8466 19.944 22.7902C20.4892 22.7244 20.8276 22.6304 20.931 22.527C21.0156 22.4424 21.3446 21.8596 21.6454 21.2392C22.2565 19.9983 22.8205 19.0771 23.6195 18.0054L24.1459 17.3098L24.4185 17.6294C24.5689 17.808 25.0296 18.4567 25.4432 19.0677ZM35.9904 31.9744C37.062 33.4032 37.7764 35.1141 38.0208 36.8531C38.0866 37.3326 38.096 38.3384 38.0584 39.6638C38.0208 41.1867 38.0396 42.2019 38.1524 43.518C38.3311 45.6801 38.3405 45.8775 38.1806 45.9433C38.1148 45.9715 37.5978 45.8023 37.0338 45.5673C33.7437 44.2324 33.1421 44.0068 32.2584 43.8C31.7226 43.6778 30.9706 43.4616 30.5852 43.3206C27.5395 42.2395 25.1236 39.6262 23.8921 36.0823C23.3751 34.6065 23.3751 34.5971 23.7887 34.362L24.1459 34.1458L24.945 34.5689C26.4396 35.3585 28.8931 36.2609 30.0775 36.4583C30.4348 36.5241 30.51 36.5993 31.4406 37.8966C32.4746 39.3348 32.6626 39.5228 33.0199 39.5228C33.3019 39.5228 33.6967 39.1186 33.6967 38.8366C33.6967 38.6862 33.2643 38.0094 32.5216 36.9941L31.3466 35.3867L31.3184 33.3374L31.2902 31.2975L32.4652 31.3257C33.1139 31.3351 33.9505 31.3163 34.3077 31.2693C34.6743 31.2223 35.0597 31.1753 35.1725 31.1659C35.3229 31.1565 35.5297 31.3633 35.9904 31.9744ZM9.10538 36.6745C9.07717 36.7685 9.03017 37.2104 8.99257 37.6616L8.92677 38.4794L6.38868 40.6039L3.85058 42.7378L3.40877 42.2301C3.16436 41.9575 2.97635 41.7037 2.98575 41.6567C3.01395 41.5721 8.99257 36.5241 9.08657 36.5147C9.11478 36.5147 9.12418 36.5899 9.10538 36.6745Z" fill="#5F4A33"/>
<path d="M23.1682 23.0346C21.025 23.608 19.7747 25.8829 20.4327 28.0356C20.8652 29.4833 22.059 30.5079 23.6289 30.7993C24.7287 31.0061 25.9977 30.6113 26.919 29.7841C27.5112 29.2482 28.0282 28.2518 28.1504 27.4058C28.5452 24.6139 25.9131 22.3014 23.1682 23.0346ZM25.0671 24.4447C26.2421 24.8395 26.9942 26.1461 26.7404 27.3588C26.3362 29.3047 23.9767 30.1037 22.5384 28.7782C21.0438 27.4058 21.5138 25.1121 23.4408 24.4259C23.9015 24.2567 24.5501 24.2661 25.0671 24.4447Z" fill="#5F4A33"/>
</svg>
