<svg width="48" height="49" viewBox="0 0 48 49" fill="none" xmlns="http://www.w3.org/2000/svg">
<path d="M29.0379 0.460632C28.6525 0.714443 28.1825 1.09046 27.9757 1.29727L27.609 1.68268L26.9886 1.62628C25.1649 1.47587 23.2567 2.55692 22.4576 4.18319L22.1568 4.79421L21.8372 4.5968C20.2767 3.62856 18.3121 3.17735 16.5354 3.37475C15.5859 3.47816 15.3133 3.60976 15.1347 4.03278C15.0407 4.26779 15.0407 4.437 15.1723 4.98222C15.5107 6.51448 16.2252 7.82114 17.3626 9.02439L18.1428 9.84222L14.8245 9.79522C12.465 9.76702 11.3182 9.78582 10.8387 9.86102C9.05267 10.1712 7.52981 11.4873 6.92818 13.2452L6.72137 13.8656L6.69317 27.2799L6.66497 40.7037H4.17387C1.41955 40.7037 1.25975 40.7319 1.03414 41.2677C0.86493 41.6813 0.968334 42.7436 1.25975 43.6742C1.86137 45.5543 3.42184 47.1148 5.40532 47.8198L6.15735 48.083H24.0651H41.9728L42.7249 47.8198C44.7084 47.1148 46.2218 45.6107 46.8516 43.7024C47.1619 42.7624 47.2747 41.6907 47.0961 41.2677C46.8704 40.7319 46.7106 40.7037 43.9469 40.7037H41.4558V27.515C41.4558 16.2251 41.437 14.251 41.3148 13.7434C40.9106 12.0231 39.6321 10.6601 37.8837 10.096C37.4325 9.95502 36.8872 9.92682 33.6253 9.88922L29.8839 9.85162L30.26 9.4474C31.8674 7.70833 31.7358 4.74721 29.9873 2.98934L29.4327 2.44411L30.0155 2.0587C30.7488 1.56048 30.9274 1.35367 30.9274 0.940052C30.9274 0.43243 30.4856 1.14441e-05 29.9591 1.14441e-05C29.8369 1.14441e-05 29.4139 0.206821 29.0379 0.460632ZM27.8817 3.76017C28.4551 4.04218 28.9533 4.5404 29.2447 5.13263C29.4327 5.50864 29.4703 5.73425 29.4703 6.39228C29.4703 7.06911 29.4327 7.25711 29.2165 7.67073C28.9157 8.23475 28.3329 8.78938 27.7594 9.04319C27.2236 9.2782 26.3306 9.297 25.6914 9.08079C25.0709 8.87398 24.3377 8.19715 24.0557 7.56733C23.7549 6.8999 23.7549 5.86586 24.0463 5.21723C24.3941 4.4558 25.0991 3.83537 25.9452 3.56276C26.3682 3.42175 27.3928 3.52516 27.8817 3.76017ZM19.0359 5.41464C19.7973 5.61205 20.8032 6.11027 21.433 6.60849C21.8748 6.9657 21.9688 7.08791 22.0628 7.50152C22.2132 8.13135 22.608 8.93979 23.0217 9.4192L23.3507 9.80462L22.843 9.73882C20.4553 9.4286 18.5471 8.10315 17.5412 6.06326C17.3532 5.69665 17.2028 5.33944 17.2028 5.27363C17.2028 5.12323 18.1616 5.19843 19.0359 5.41464ZM37.0282 11.8539C38.0341 12.0231 38.8895 12.6811 39.3219 13.6118C39.5193 14.0254 39.5287 14.2228 39.5569 16.6105L39.5851 19.1768H38.5605C37.4043 19.1768 37.376 19.158 37.282 18.5282C37.1692 17.7761 36.7274 17.1557 36.0506 16.7985C35.7404 16.6293 35.4678 16.5917 34.4713 16.5635C32.9109 16.5165 32.5442 16.6105 31.9144 17.2403C31.4538 17.7009 31.2094 18.2086 31.2094 18.688C31.2094 19.158 31.153 19.1768 30.0907 19.1768C28.9627 19.1768 28.8593 19.1298 28.8593 18.6128C28.8593 18.1522 28.4551 17.3625 28.0603 17.0617C27.5244 16.6575 27.0544 16.5447 25.917 16.5447C24.5821 16.5447 24.2343 16.6575 23.6421 17.2497C23.1721 17.7103 22.937 18.2086 22.937 18.7162C22.937 19.158 22.8524 19.1862 21.7526 19.158L20.728 19.1298L20.6528 18.6222C20.5305 17.7573 20.0323 17.0805 19.2803 16.7703C18.8197 16.5823 16.4696 16.5917 15.9996 16.7891C15.2757 17.0899 14.6741 17.9172 14.6647 18.6222C14.6647 18.8008 14.6177 18.9982 14.5519 19.064C14.3921 19.2238 12.6342 19.2144 12.5402 19.064C12.4932 18.9982 12.4368 18.7162 12.3992 18.4342C12.3052 17.7856 11.948 17.2591 11.337 16.8831C10.9139 16.6199 10.8199 16.6011 9.7107 16.5635L8.52625 16.5165L8.57325 15.285C8.61085 14.2886 8.66725 13.9502 8.82706 13.5836C9.09967 12.9632 9.41929 12.5589 9.91751 12.2205C10.7353 11.6565 10.1619 11.6753 23.9241 11.7223C30.8992 11.7505 36.7462 11.8069 37.0282 11.8539ZM10.4063 18.5C10.4721 18.547 10.5567 18.782 10.5849 19.0452C10.6601 19.6186 10.8951 20.0792 11.2994 20.4647C11.8258 20.9723 12.1642 21.0569 13.5743 21.0569C14.7681 21.0569 14.8527 21.0475 15.3227 20.7937C15.962 20.4647 16.3286 19.957 16.4884 19.1768L16.6106 18.5658L17.6258 18.5376C18.7351 18.5094 18.7915 18.5376 18.8009 19.0358C18.8009 19.4494 19.1957 20.2297 19.5623 20.5305C20.1075 20.9911 20.3801 21.0569 21.809 21.0569C23.2379 21.0569 23.5105 20.9911 24.0463 20.5399C24.4317 20.2109 24.7137 19.6844 24.7889 19.111C24.8171 18.8572 24.8829 18.6034 24.9393 18.5376C25.0615 18.3872 26.7066 18.3778 26.8664 18.5376C26.9322 18.6034 26.9792 18.7632 26.9792 18.9042C26.9792 19.2614 27.2236 19.91 27.5056 20.2767C27.6372 20.4459 27.9475 20.6903 28.2013 20.8219C28.6337 21.0381 28.7653 21.0569 30.0343 21.0569C31.5102 21.0569 31.7828 21.0005 32.3186 20.5399C32.7041 20.2109 32.9861 19.6844 33.0613 19.111C33.0895 18.8572 33.1553 18.6034 33.2117 18.5376C33.3339 18.3872 35.167 18.3778 35.3268 18.5376C35.3926 18.6034 35.4396 18.8008 35.4396 18.9888C35.449 19.675 36.013 20.4835 36.7462 20.8407C37 20.9629 37.3854 21.0099 38.3349 21.0381L39.5757 21.0757L39.5569 23.6702L39.5287 26.2741H24.0651H8.60145L8.57325 22.4669C8.56385 20.3707 8.57325 18.6034 8.60145 18.547C8.64845 18.406 10.2089 18.3778 10.4063 18.5ZM39.5757 34.4524V40.7037H24.0651H8.55445V34.4524V28.2012H24.0651H39.5757V34.4524ZM45.1784 42.8376C45.1408 42.988 44.981 43.3734 44.8212 43.7118C44.2477 44.8963 42.9881 45.8739 41.6626 46.1465C40.9576 46.2969 7.17259 46.2969 6.46756 46.1465C5.14211 45.8739 3.88246 44.8963 3.30903 43.7118C3.14922 43.3734 2.98942 42.988 2.95182 42.8376L2.89541 42.5838H24.0651H45.2348L45.1784 42.8376Z" fill="#5F4A33"/>
<path d="M10.6978 29.1976C10.3688 29.3668 10.2466 29.6018 10.2466 30.0249C10.2466 30.4761 10.444 30.6735 12.0327 31.7733C13.2171 32.5912 13.4427 32.7134 13.7811 32.7134C14.3264 32.7134 14.6648 32.3656 14.6648 31.8203C14.6648 31.5289 14.6084 31.3597 14.4392 31.1905C14.0161 30.7769 11.3746 29.0472 11.1584 29.0472C11.0456 29.0566 10.8388 29.113 10.6978 29.1976Z" fill="#5F4A33"/>
<path d="M26.2083 29.1975C25.8793 29.3667 25.7571 29.6017 25.7571 30.0435C25.7571 30.4383 26.0109 30.7203 27.8628 32.3842C28.643 33.0892 28.7276 33.1362 29.113 33.1362C29.6488 33.1362 29.9873 32.7978 29.9873 32.2526C29.9873 31.792 29.8745 31.651 28.4174 30.3443C26.8757 28.9531 26.7535 28.8967 26.2083 29.1975Z" fill="#5F4A33"/>
<path d="M20.3426 29.5362C20.1076 29.5926 19.8067 29.9311 18.8103 31.2377C17.7387 32.6572 17.5789 32.911 17.5789 33.2212C17.5789 33.945 18.5001 34.4056 19.0453 33.9544C19.1487 33.8698 19.7597 33.1178 20.3802 32.2812C21.4048 30.9275 21.527 30.7395 21.527 30.3917C21.527 29.7525 20.9912 29.367 20.3426 29.5362Z" fill="#5F4A33"/>
<path d="M36.7557 29.611C36.4173 29.705 33.851 31.4911 33.6723 31.7543C33.1835 32.5064 34.0108 33.4464 34.8192 33.061C35.2516 32.8636 37.6111 31.2279 37.7615 31.0399C37.8273 30.9459 37.8837 30.7015 37.8837 30.4947C37.8837 29.8743 37.3479 29.4512 36.7557 29.611Z" fill="#5F4A33"/>
<path d="M32.4315 36.2008C31.3693 36.6614 30.6079 37.0374 30.4856 37.1878C30.2506 37.4416 30.1942 37.9493 30.3634 38.2689C30.4762 38.4663 30.9275 38.7295 31.1625 38.7295C31.4351 38.7295 34.9132 37.1878 35.1388 36.9716C35.6465 36.464 35.2046 35.43 34.4808 35.4488C34.3116 35.4488 33.3904 35.7872 32.4315 36.2008Z" fill="#5F4A33"/>
<path d="M25.9453 35.8811C25.6727 35.9939 22.7961 38.015 22.6363 38.203C22.1851 38.7482 22.6457 39.6694 23.3602 39.6694C23.6516 39.6694 23.9712 39.4908 25.2309 38.626C26.9793 37.4227 27.1673 37.2441 27.1673 36.8023C27.1673 36.2195 26.4435 35.6743 25.9453 35.8811Z" fill="#5F4A33"/>
<path d="M13.8658 36.8496C12.8129 37.2726 11.8917 37.705 11.7695 37.8272C11.5251 38.0716 11.4687 38.5699 11.6473 38.9083C11.7601 39.1151 12.2113 39.3877 12.4463 39.3877C12.5215 39.3877 13.4427 39.0493 14.4956 38.6357C16.5637 37.8178 16.8269 37.6486 16.8269 37.0846C16.8269 36.6804 16.4227 36.2104 16.0279 36.1446C15.821 36.1164 15.2288 36.3044 13.8658 36.8496Z" fill="#5F4A33"/>
</svg>
