<svg width="49" height="42" viewBox="0 0 49 42" fill="none" xmlns="http://www.w3.org/2000/svg">
<path d="M16.0277 0.459213C15.3039 0.543819 14.9843 0.750626 14.7305 1.30525C14.5518 1.70007 14.533 1.92567 14.533 3.43914C14.5236 5.32862 14.6834 6.19345 15.2287 7.3967C15.5577 8.12993 16.2439 9.12638 16.6105 9.39899L16.8737 9.58699L11.1865 9.59639C6.68372 9.6058 5.42407 9.634 5.14205 9.728C4.60623 9.92541 4.17381 10.3014 3.9388 10.7902C3.71319 11.2415 3.71319 11.2697 3.68499 15.0486C3.66619 17.1355 3.67559 18.9874 3.71319 19.166C3.826 19.7582 4.39942 20.0402 4.85064 19.7112C5.01985 19.5796 5.02925 19.401 5.07625 15.5186L5.12325 11.4577L5.38646 11.2321L5.64967 11.0065H12.794H19.9289V23.462V35.9175H12.5026H5.07625V29.0082C5.07625 22.2211 5.07625 22.0989 4.88824 21.9109C4.51223 21.5349 3.92 21.7135 3.7602 22.2681C3.70379 22.4937 3.66619 24.9566 3.66619 29.262V35.8987L2.31254 35.9363C0.808473 35.9645 0.658067 36.0209 0.197448 36.6789C0.00944014 36.9609 -0.00936064 37.0737 0.0282409 37.6566C0.159846 39.3862 1.3255 40.9091 2.97996 41.4731L3.61919 41.6987H24.065H44.5109L45.1501 41.4825C46.8516 40.8903 48.0548 39.2922 48.0736 37.5908C48.083 36.8105 47.9702 36.5567 47.4344 36.1619C47.2088 35.9833 47.0114 35.9645 45.7705 35.9363L44.3699 35.8987V23.5748C44.3699 11.7961 44.3605 11.2227 44.1913 10.856C43.9751 10.3954 43.364 9.85021 42.8752 9.7092C42.6214 9.6246 40.8823 9.59639 36.8872 9.59639L31.2563 9.58699L31.5196 9.39899C31.8862 9.12638 32.5724 8.12993 32.9014 7.3967C33.4466 6.19345 33.6064 5.32862 33.6064 3.43914C33.6064 1.83167 33.5876 1.72827 33.3714 1.27705C32.9766 0.496815 32.798 0.431015 30.7393 0.440414C28.6618 0.449814 27.8628 0.59082 26.716 1.14544C25.8511 1.56846 24.8265 2.4521 24.3753 3.16653C24.2342 3.39214 24.0932 3.58015 24.065 3.58015C24.0368 3.58015 23.8958 3.39214 23.7548 3.16653C23.0122 1.99148 21.3765 0.910435 19.9007 0.619022C19.0734 0.459213 16.8831 0.365211 16.0277 0.459213ZM19.8819 2.07608C20.2955 2.17949 20.8595 2.40509 21.1321 2.5743C22.2414 3.24173 23.172 4.67059 23.454 6.14645C23.595 6.88908 23.642 8.97597 23.5292 9.39899L23.4728 9.6246L21.8183 9.5682C20.0793 9.52119 19.4682 9.40839 18.547 8.98537C17.9642 8.72216 17.231 8.05473 16.8267 7.43431C16.0935 6.28746 15.7269 4.20997 15.9431 2.3863C16.0183 1.78467 15.9995 1.79407 17.8138 1.84107C18.735 1.86927 19.3554 1.94448 19.8819 2.07608ZM32.1024 1.90688C32.234 2.02908 32.2622 4.13477 32.1588 4.8774C31.7922 7.3779 30.6547 8.78796 28.5302 9.36139C28.1824 9.46479 27.4022 9.53999 26.4621 9.5682L24.9581 9.6246L24.9957 8.42134C25.0145 7.76332 24.9769 6.82328 24.9111 6.33446L24.7983 5.44142L25.1743 4.67999C25.9733 3.00672 27.2236 2.13248 29.1413 1.89748C29.8933 1.80347 32.0084 1.81287 32.1024 1.90688ZM42.7342 11.2415L42.9692 11.4859L42.941 13.4788L42.9128 15.4716L42.6214 16.0827C41.9728 17.4551 40.9763 18.1602 39.4065 18.3482C38.5886 18.4422 38.2032 18.6396 37.9682 19.0908C37.799 19.3916 37.7896 19.6736 37.7896 22.7193C37.7896 25.9437 37.7896 26.0283 37.5922 26.2727C37.3102 26.6299 36.9906 26.7333 36.6052 26.6111C36.0505 26.4231 36.0505 26.4701 36.0035 23.227C35.9565 20.4538 35.9471 20.2282 35.7779 20.0402C35.5523 19.7864 35.0353 19.777 34.8003 20.012C34.6969 20.1154 34.5935 20.3692 34.5559 20.5949C34.4619 21.1683 34.0765 21.5349 33.5406 21.5349C32.7322 21.5349 32.4314 21.0649 32.4314 19.7958C32.4314 18.6114 32.3186 18.4704 31.1811 18.3294C30.3445 18.226 29.5267 17.8405 28.8968 17.2765C28.032 16.4963 27.6654 16.4869 26.81 17.2201C26.5185 17.4739 26.0015 17.8217 25.6725 17.9815C25.1743 18.2354 24.9393 18.2918 24.2436 18.32C23.266 18.367 22.514 18.1508 21.7807 17.6243L21.3389 17.3047V14.1556V11.0065H31.9144H42.4992L42.7342 11.2415ZM42.9598 21.3469V24.543H41.0798H39.1997V22.1459V19.7488H39.5381C40.4217 19.7488 41.7754 19.1848 42.518 18.5174C42.7342 18.32 42.9222 18.1602 42.941 18.1508C42.9504 18.1508 42.9598 19.589 42.9598 21.3469ZM28.4268 18.7054C29.0472 19.1754 29.7523 19.495 30.5701 19.6642L31.0213 19.7676V20.2564C31.0213 21.3939 31.6042 22.3527 32.5348 22.7569C32.9296 22.9261 33.1458 22.9544 33.644 22.9261C33.9825 22.8979 34.3397 22.8509 34.4337 22.8039C34.5841 22.7381 34.6029 22.7945 34.5747 23.6124L34.5465 24.496L33.7192 24.543C32.8168 24.59 32.6194 24.7122 32.6194 25.1822C32.6194 25.7275 33.0142 25.9531 33.9731 25.9531H34.5559L34.6687 26.3479C35.0541 27.7486 36.577 28.4724 37.8366 27.8614C38.4382 27.5605 38.9835 26.8743 39.1433 26.2069L39.1997 25.9531H41.0798H42.9598V27.8802V29.8072H32.1494H21.3389V27.8802V25.9625L25.8605 25.9343L30.3821 25.9061L30.5607 25.6805C30.7957 25.3985 30.7863 24.966 30.5513 24.731C30.3727 24.5524 30.2411 24.543 25.8511 24.543H21.3389V21.8169C21.3389 20.3128 21.3577 19.0908 21.3765 19.0908C21.3953 19.0908 21.6397 19.1942 21.9124 19.3164C22.7396 19.6736 23.3412 19.777 24.3377 19.7206C25.4657 19.6642 26.3117 19.3634 27.1672 18.7148C27.5056 18.4704 27.7876 18.2542 27.797 18.2542C27.8064 18.2448 28.0884 18.4516 28.4268 18.7054ZM42.9598 33.5674V35.9175H32.1494H21.3389V33.5674V31.2173H32.1494H42.9598V33.5674ZM46.6918 37.7506C46.5508 38.7188 45.8927 39.6024 44.9433 40.0443L44.4169 40.2887H24.065H3.71319L3.18677 40.0443C2.23733 39.6024 1.57931 38.7188 1.4383 37.7506L1.3819 37.3275H24.065H46.7482L46.6918 37.7506Z" fill="#5F4A33"/>
<path d="M17.5318 3.06321C17.1182 3.46743 17.2028 3.67424 18.2932 4.83989C18.8385 5.43211 19.3461 5.93973 19.4307 5.96793C19.9101 6.15594 20.3989 5.80813 20.3989 5.28171C20.3989 5.01849 20.2485 4.83049 19.3461 3.89985C18.1804 2.7154 17.9642 2.6214 17.5318 3.06321Z" fill="#5F4A33"/>
<path d="M28.7934 3.89988C27.8628 4.84932 27.7312 5.01853 27.7312 5.30054C27.7312 5.81756 28.22 6.15598 28.6994 5.96797C28.784 5.93977 29.2917 5.43215 29.8369 4.83992C30.9273 3.67427 31.0119 3.46746 30.5983 3.06325C30.1659 2.62143 29.9497 2.71543 28.7934 3.89988Z" fill="#5F4A33"/>
<path d="M7.3511 13.0086C6.92808 13.4598 7.19129 14.1084 7.79292 14.1084C8.22534 14.1084 8.46035 13.8828 8.46035 13.4692C8.46035 12.8675 7.75532 12.5761 7.3511 13.0086Z" fill="#5F4A33"/>
<path d="M16.7797 13.0274C16.5165 13.2812 16.4883 13.4504 16.6481 13.7606C16.7985 14.0426 16.9113 14.1084 17.2685 14.1084C17.6539 14.1084 17.9923 13.7136 17.9077 13.3564C17.7761 12.8111 17.1745 12.6231 16.7797 13.0274Z" fill="#5F4A33"/>
<path d="M12.0419 15.1989C11.7881 15.5185 11.7881 15.8005 12.0325 16.0637C12.4555 16.5149 13.1887 16.2141 13.1887 15.5937C13.1887 14.9921 12.4085 14.7289 12.0419 15.1989Z" fill="#5F4A33"/>
<path d="M7.37935 18.0095C7.05974 18.3197 7.06914 18.7334 7.38875 18.9872C7.52975 19.1 7.70836 19.1846 7.80237 19.1846C8.12198 19.1846 8.46039 18.818 8.46039 18.4795C8.46039 18.2539 8.39459 18.1129 8.21598 17.9719C7.88697 17.7181 7.66136 17.7275 7.37935 18.0095Z" fill="#5F4A33"/>
<path d="M16.9207 17.8969C16.1781 18.273 16.6951 19.4198 17.4659 19.1002C18.0206 18.8652 18.0582 18.1225 17.5223 17.8781C17.2309 17.7465 17.2121 17.7465 16.9207 17.8969Z" fill="#5F4A33"/>
<path d="M12.0795 20.172C11.6471 20.595 11.9009 21.2812 12.4837 21.2812C12.8879 21.2812 13.1605 21.018 13.1605 20.6232C13.1605 19.9934 12.5213 19.7208 12.0795 20.172Z" fill="#5F4A33"/>
<path d="M7.3323 23.0389C6.93748 23.4338 7.2571 24.167 7.83052 24.167C8.37574 24.167 8.68596 23.368 8.29114 23.0107C8.05613 22.7945 7.55791 22.8133 7.3323 23.0389Z" fill="#5F4A33"/>
<path d="M16.7328 23.039C16.4789 23.2928 16.4977 23.6595 16.7798 23.9321C17.0524 24.2141 17.3814 24.2329 17.6822 23.9979C17.9454 23.7817 17.9642 23.3116 17.7198 23.039C17.4942 22.7946 16.9772 22.7946 16.7328 23.039Z" fill="#5F4A33"/>
<path d="M12.2393 25.0131C11.7787 25.2011 11.7317 25.9062 12.1735 26.1976C12.8598 26.6488 13.5554 25.6242 12.9162 25.1165C12.6436 24.9003 12.5589 24.8909 12.2393 25.0131Z" fill="#5F4A33"/>
<path d="M7.3512 28.0496C6.93758 28.482 7.2196 29.1494 7.80242 29.1494C8.15963 29.1494 8.46045 28.8486 8.46045 28.4914C8.46045 27.8992 7.75542 27.6172 7.3512 28.0496Z" fill="#5F4A33"/>
<path d="M16.7421 28.0777C16.6293 28.2187 16.5447 28.3973 16.5447 28.4913C16.5447 28.5853 16.6293 28.764 16.7421 28.905C17.1275 29.3938 17.8889 29.1212 17.8889 28.4913C17.8889 27.8615 17.1275 27.5889 16.7421 28.0777Z" fill="#5F4A33"/>
<path d="M12.0325 30.2023C11.7881 30.4655 11.7881 30.7475 12.0419 31.0671C12.4085 31.5371 13.1887 31.2739 13.1887 30.6723C13.1887 30.0518 12.4555 29.751 12.0325 30.2023Z" fill="#5F4A33"/>
<path d="M7.3511 33.0315C6.92808 33.4827 7.19129 34.1313 7.79292 34.1313C8.43215 34.1313 8.70476 33.4545 8.24414 33.0221C7.96213 32.7589 7.60491 32.7589 7.3511 33.0315Z" fill="#5F4A33"/>
<path d="M16.7797 33.0501C16.6481 33.1723 16.5447 33.3415 16.5447 33.4167C16.5447 33.6988 16.7609 34.0278 17.0053 34.1124C17.7197 34.3662 18.2649 33.3885 17.6445 32.9561C17.3531 32.7493 17.0335 32.7869 16.7797 33.0501Z" fill="#5F4A33"/>
</svg>
