<svg width="49" height="49" viewBox="0 0 49 49" fill="none" xmlns="http://www.w3.org/2000/svg">
<path d="M21.7619 0.0940018C16.1217 0.601624 11.9197 2.62271 10.2088 5.66843L9.89862 6.21366L9.203 6.24186C8.01855 6.28886 7.0127 6.95629 6.47688 8.07494C6.30768 8.41335 6.26067 8.67656 6.26067 9.30639C6.25127 9.99261 6.28887 10.1806 6.51448 10.6318C6.8153 11.2523 7.44512 11.8727 8.06555 12.1547C8.41336 12.3145 8.68597 12.3615 9.3252 12.3615H10.143L10.4908 12.9725C10.6789 13.311 11.0267 13.828 11.2523 14.1288C11.4779 14.4296 11.6377 14.7116 11.6095 14.7492C11.5907 14.7962 11.2899 14.9372 10.9609 15.0688L10.3686 15.3132L9.89862 14.862C8.33816 13.358 5.64965 13.922 4.90702 15.9149C4.65321 16.5729 4.63441 17.6069 4.84121 18.124L4.99162 18.4624L4.4464 18.9324C1.13746 21.7431 -0.451205 25.0896 0.131619 28.0132C0.780246 31.2657 3.73197 33.7286 8.42276 34.9506L9.43801 35.2045L9.64481 35.8907C11.2711 41.2113 18.7256 46.0713 27.656 47.613C29.8651 47.989 30.9461 48.083 33.3714 48.0736C35.8625 48.0736 37.1316 47.942 39.1056 47.5096C44.0972 46.3909 47.3028 43.834 47.9984 40.4217C48.5812 37.5452 47.1618 34.49 43.8716 31.5289L43.1384 30.8709L43.2982 30.5043C43.5238 29.959 43.4486 28.7652 43.1478 28.1542C42.8564 27.5619 42.283 26.9885 41.6907 26.6877C41.2959 26.4997 41.0797 26.4621 40.3747 26.4621C39.6415 26.4621 39.4629 26.4997 38.9928 26.7253C38.7014 26.8663 38.3066 27.1577 38.1186 27.3645L37.7802 27.7406L37.1316 27.4773C36.7649 27.3363 36.4735 27.1859 36.4735 27.1483C36.4735 27.1107 36.6897 26.7911 36.9529 26.4433C37.4982 25.7101 38.3724 23.9616 38.551 23.266L38.6638 22.7865L39.7073 22.5233C44.0126 21.4423 46.9362 19.1674 47.8668 16.1687C48.1676 15.1816 48.1676 13.5366 47.8668 12.4649C47.2746 10.4062 45.7611 8.25354 43.646 6.47687L43.1478 6.06325L43.2888 5.68724C43.6272 4.7284 43.364 3.39354 42.6872 2.61331C42.1044 1.95528 41.4651 1.66387 40.5063 1.61687C39.7825 1.57927 39.6321 1.60747 39.1338 1.83308C38.8236 1.96468 38.3912 2.2655 38.1656 2.4911L37.7708 2.89532L36.8683 2.52871C34.1704 1.42886 31.0589 0.639225 27.8722 0.225609C26.5091 0.0564003 23.0592 -0.0188026 21.7619 0.0940018ZM26.9885 1.69207C28.5208 1.84248 28.4926 1.82368 27.844 2.25609C25.9357 3.53455 25.9357 5.83764 27.8252 7.05029C29.2446 7.96213 31.2939 7.96213 32.7134 7.05029C34.0106 6.22306 34.4806 4.7754 33.8602 3.53455C33.7098 3.24313 33.597 3.00813 33.6064 3.00813C33.7474 3.00813 36.0505 3.86356 36.9153 4.23018C40.9951 5.97865 44.3793 8.70476 45.7705 11.3745C46.5319 12.8221 46.7482 14.5142 46.3439 15.8021C45.4791 18.6222 42.0386 20.7279 37.0846 21.4799C35.6651 21.6961 32.5912 21.7713 30.9179 21.6303C22.8054 20.9441 15.191 17.3155 12.1359 12.6811C11.1019 11.1113 10.6883 9.35339 10.9985 7.86813C11.2053 6.83408 11.9103 5.69664 12.8691 4.8412L13.2828 4.46518L13.2264 4.9164C13.0384 6.26066 13.9408 7.44511 15.3226 7.68952C17.5881 8.09373 20.1357 6.16666 20.1451 4.05157C20.1451 3.31834 19.9852 2.89532 19.5152 2.3689L19.1768 1.99288L20.2297 1.84248C21.7901 1.61687 21.6867 1.62627 23.9334 1.60747C25.0803 1.60747 26.4527 1.64507 26.9885 1.69207ZM18.0958 3.23373C18.8948 3.57215 18.7632 4.59679 17.8044 5.43343C17.0241 6.12906 15.9243 6.38287 15.2286 6.03505C14.1946 5.51803 15.0312 3.80716 16.5729 3.28074C17.1651 3.07393 17.6633 3.05513 18.0958 3.23373ZM31.6229 3.42174C32.2622 3.73195 32.5724 4.13617 32.5724 4.65319C32.5724 5.17022 32.2622 5.57443 31.6041 5.89404C31.1435 6.11965 30.9555 6.15725 30.2693 6.15725C29.583 6.15725 29.395 6.11965 28.9344 5.89404C28.0414 5.45222 27.7312 4.8224 28.0978 4.16437C28.6712 3.15853 30.3539 2.80132 31.6229 3.42174ZM41.0797 3.31834C41.3617 3.46874 41.5591 3.66615 41.7095 3.94816C41.9258 4.36178 42.001 4.9258 41.8412 5.02921C41.7847 5.05741 41.4557 4.8976 41.1079 4.67199C40.7601 4.44638 40.2055 4.12677 39.8859 3.94816C39.5569 3.77896 39.2936 3.60035 39.2936 3.55335C39.2936 3.42174 40.0551 3.10213 40.3841 3.10213C40.5439 3.10213 40.8541 3.19613 41.0797 3.31834ZM9.3534 8.94917C9.3628 9.5884 9.4098 10.2652 9.46621 10.4532C9.55081 10.7352 9.54141 10.8104 9.42861 10.848C9.06199 10.9891 8.34756 10.6412 8.02795 10.1524C7.81174 9.83281 7.78354 9.7012 7.82114 9.23118C7.87754 8.40395 8.42276 7.81173 9.11839 7.80232H9.3534V8.94917ZM8.44156 15.6987C8.65777 15.7927 8.83638 15.9149 8.83638 15.9713C8.83638 16.0183 8.50737 16.2345 8.11255 16.4601C7.70833 16.6763 7.15371 16.9959 6.8811 17.1745C6.60849 17.3437 6.34528 17.4659 6.28887 17.4377C6.12907 17.3343 6.20427 16.7703 6.42048 16.3567C6.57089 16.0747 6.76829 15.8773 7.05031 15.7269C7.53913 15.4636 7.90574 15.4542 8.44156 15.6987ZM13.3298 16.3849L13.7246 16.7797L13.5366 17.1557C12.5401 19.1768 13.9878 21.1697 16.2815 20.9253C16.9771 20.8595 17.8044 20.5681 18.3026 20.2202L18.6974 19.9382L19.7126 20.3894C20.2673 20.6433 21.0005 20.9441 21.3295 21.0663C21.8371 21.2449 21.9123 21.3013 21.7619 21.3765C20.2861 22.2507 19.4494 23.4352 19.44 24.6666C19.4306 26.8099 21.7619 27.8346 24.0556 26.6877C25.5785 25.9263 26.5937 24.3 26.3493 23.0404C26.2929 22.7677 26.2929 22.5609 26.3399 22.5609C26.3869 22.5609 27.0261 22.6643 27.7594 22.7865C28.9908 23.0028 30.1377 23.125 32.2904 23.2754L33.1364 23.3318L32.1964 24.2436C30.4479 25.9263 27.985 27.6089 25.7195 28.6712C23.6702 29.63 20.9911 30.4385 18.7068 30.7957C17.3625 30.9931 14.0724 31.0777 12.5025 30.9367C10.4438 30.7487 7.94334 30.2599 6.10087 29.677L5.67785 29.536L5.43344 30.2787L5.18903 31.0119L5.96926 31.2563C11.2241 32.8544 16.8267 33.0236 21.7713 31.7263C26.5373 30.4761 30.5513 28.1448 34.0858 24.5726L35.4113 23.2378L36.1539 23.1438C36.5581 23.0968 36.9153 23.0686 36.9341 23.0874C37.0282 23.172 36.4735 24.3564 35.9847 25.099C34.5276 27.3175 32.1117 29.2634 28.8122 30.8803C25.6537 32.4313 22.5139 33.3714 18.7068 33.9072C17.2027 34.114 12.6247 34.1422 11.3275 33.9542C5.99746 33.1552 2.64152 31.1059 1.74849 28.1166C1.55108 27.4585 1.55108 26.0673 1.73909 25.3341C2.0869 23.9898 2.90473 22.6831 4.27719 21.2637C5.74365 19.7314 7.52033 18.4718 9.87982 17.2873C10.8763 16.7891 12.7187 15.9901 12.8785 15.9807C12.9067 15.9807 13.1136 16.1593 13.3298 16.3849ZM16.1123 18.4718L17.1275 19.1204L16.7609 19.252C16.5447 19.3272 16.1593 19.3648 15.8021 19.346C15.285 19.3084 15.1722 19.2708 14.9842 19.0452C14.862 18.9042 14.7586 18.6692 14.7586 18.5188C14.7586 18.1898 14.9184 17.7385 15.0218 17.7855C15.0594 17.8043 15.5577 18.1052 16.1123 18.4718ZM24.5256 22.8053C24.7512 22.9934 24.817 23.125 24.817 23.3882C24.817 24.4974 23.5198 25.5597 22.1567 25.5691C21.5645 25.5691 21.4893 25.5409 21.2355 25.2964C20.9065 24.9674 20.8783 24.5914 21.1509 24.0838C21.6585 23.1156 22.5422 22.5797 23.6608 22.5703C24.1496 22.5609 24.2812 22.5985 24.5256 22.8053ZM40.7977 28.0132C41.1831 28.1166 41.6813 28.5866 41.8223 28.9814C41.954 29.3104 41.954 29.771 41.8412 29.8462C41.7659 29.8838 40.4593 29.1694 39.3876 28.4926C39.2654 28.4174 39.2748 28.3892 39.4347 28.2576C39.8107 27.9568 40.2995 27.8722 40.7977 28.0132ZM36.8965 29.0566C40.3935 30.5419 43.6648 32.9954 45.2159 35.2985C46.1559 36.6803 46.5319 37.8084 46.5319 39.1714C46.5319 41.5685 45.0279 43.4956 42.095 44.8869C39.7825 45.9773 37.5264 46.4285 34.0952 46.5037C30.8709 46.5789 28.4362 46.3063 25.3905 45.5355C18.7914 43.881 13.217 40.1961 11.4685 36.3419C11.0643 35.4489 11.0549 35.4583 11.9667 35.5617L12.7375 35.6369L13.5272 36.4923C17.1651 40.3841 21.8371 43.1008 26.9885 44.3134C31.6793 45.4227 37.3948 45.1783 42.2266 43.6554L42.941 43.4298L42.706 42.7248C42.5838 42.3394 42.4334 42.0197 42.377 42.0197C42.33 42.0197 41.8506 42.1419 41.3241 42.2924C38.7578 43.0444 36.8025 43.3358 33.926 43.4016C31.3973 43.458 30.1565 43.364 28.1072 42.9598C23.4728 42.0291 19.3554 39.8859 15.6517 36.4453L14.8996 35.7497L16.0747 35.6839C17.6539 35.5899 19.581 35.3737 20.7279 35.1481C21.9687 34.913 21.9029 34.9036 21.7901 35.3173C21.5457 36.2009 22.0251 37.4512 22.9464 38.3066C25.2965 40.4687 28.6994 39.7448 28.6806 37.0751C28.6712 35.9377 27.9286 34.772 26.8099 34.1234C26.4903 33.9448 26.2271 33.7662 26.2271 33.738C26.2271 33.7098 26.5937 33.55 27.0543 33.3714C27.5056 33.2022 28.22 32.9014 28.643 32.7134L29.4044 32.3561L29.8181 32.6288C30.7769 33.2774 32.1305 33.5312 33.0894 33.2492C34.6499 32.798 35.3361 31.2469 34.6499 29.7428L34.396 29.1882L34.8191 28.784L35.2421 28.3892L35.7403 28.5866C36.0129 28.69 36.5393 28.9062 36.8965 29.0566ZM33.2586 30.4103C33.55 31.0495 33.1552 31.7639 32.5066 31.7827C31.9331 31.8015 31.5383 31.7545 31.2657 31.6417L30.9931 31.5289L31.7357 31.0683C32.1399 30.8145 32.61 30.5137 32.7604 30.3915C33.1176 30.1188 33.127 30.1188 33.2586 30.4103ZM25.6913 35.2515C26.6125 35.7121 27.3269 36.7931 27.1107 37.3854C26.8099 38.2408 25.3153 38.222 24.1778 37.3477C23.3976 36.7555 23.0686 35.6933 23.5292 35.2797C23.83 34.9977 23.9522 34.9694 24.629 34.9977C25.0521 35.0165 25.3811 35.0917 25.6913 35.2515Z" fill="#5F4A33"/>
<path d="M23.3224 8.7614C22.6267 9.02461 22.0533 9.61684 21.8653 10.2561C21.6679 10.9047 21.6773 11.1397 21.9029 11.8541C22.5703 13.988 25.287 15.3135 27.2423 14.4768C28.5678 13.9034 29.0566 12.4558 28.408 11.0551C28.0602 10.3125 27.5713 9.75785 26.8475 9.28783C25.7383 8.5734 24.3564 8.36659 23.3224 8.7614ZM25.6255 10.3877C26.4715 10.7637 27.1671 11.6285 27.1671 12.296C27.1671 12.4652 27.0731 12.6908 26.9509 12.8412C26.7629 13.0574 26.6313 13.1044 26.1519 13.142C25.4844 13.189 24.9298 13.0292 24.3188 12.6156C23.2848 11.9011 22.9745 10.5663 23.7736 10.2561C24.3846 10.0211 24.8922 10.0587 25.6255 10.3877Z" fill="#5F4A33"/>
<path d="M38.645 9.40989C38.0434 9.5227 37.1222 9.98332 36.6804 10.3875C36.4641 10.5755 36.1633 10.9892 36.0035 11.2994C35.5053 12.3146 35.6651 13.3393 36.4735 14.2229C38.7014 16.6576 43.4204 15.4167 43.4298 12.3992C43.4298 10.4063 41.0797 8.93047 38.645 9.40989ZM40.7413 11.0926C41.5404 11.3934 42.0292 12.0608 41.8882 12.6436C41.7942 13.0196 41.3053 13.4991 40.7789 13.7247C39.1903 14.4203 37.0376 13.4803 37.2914 12.2112C37.3666 11.8164 37.9494 11.243 38.457 11.0644C39.0681 10.8482 40.1209 10.867 40.7413 11.0926Z" fill="#5F4A33"/>
<path d="M13.5272 9.81399C13.405 9.91739 13.1324 10.143 12.9444 10.3028L12.5872 10.5942L13.4708 11.5719C17.0523 15.5388 22.2038 18.4812 27.5244 19.5904C29.5455 20.0134 30.9085 20.145 33.1834 20.145C36.2667 20.145 39.1621 19.7314 41.7942 18.9324C42.3864 18.7632 42.8846 18.6128 42.9034 18.6128C42.9222 18.6128 42.8282 18.2743 42.6966 17.8607C42.5086 17.2779 42.4146 17.1181 42.3018 17.1557C41.3242 17.5411 38.692 18.1427 36.9436 18.3777C35.3925 18.594 32.3468 18.6598 30.8803 18.5282C26.4903 18.1145 22.608 16.7327 18.9888 14.2792C17.513 13.2827 16.3285 12.2769 14.9373 10.8292L13.7622 9.61658L13.5272 9.81399Z" fill="#5F4A33"/>
<path d="M7.55793 21.8559C5.28304 22.3541 4.10799 24.253 4.99163 26.0203C5.91287 27.8627 8.81759 28.5114 10.8387 27.3175C11.0737 27.1859 11.4497 26.8663 11.6847 26.6031C13.2546 24.864 12.1265 22.4011 9.50381 21.8465C8.75178 21.6867 8.30996 21.6867 7.55793 21.8559ZM9.97383 23.6514C10.6319 24.018 10.9797 24.629 10.8199 25.1272C10.3781 26.4621 7.76474 26.8193 6.6367 25.6912C6.03507 25.0896 6.10087 24.3658 6.8059 23.83C7.31352 23.4445 7.83995 23.3129 8.70478 23.3411C9.34401 23.3693 9.54142 23.4163 9.97383 23.6514Z" fill="#5F4A33"/>
<path d="M38.8237 34.2173C36.8872 34.5558 35.6087 35.9282 35.7497 37.5169C35.8343 38.5321 36.5206 39.3782 37.6768 39.9328C38.2878 40.2242 38.4853 40.2712 39.3031 40.3088C40.0175 40.3464 40.3935 40.3088 40.8541 40.1866C41.9728 39.8858 42.9692 39.0491 43.3077 38.1373C43.5051 37.5827 43.4581 36.6614 43.1948 36.1256C42.7248 35.1762 41.578 34.4242 40.3277 34.2267C39.6415 34.1139 39.4347 34.1139 38.8237 34.2173ZM40.9858 36.0598C41.625 36.4076 41.8788 36.746 41.8788 37.2537C41.8788 37.7895 41.578 38.1843 40.9106 38.5133C40.4405 38.7389 40.2713 38.7765 39.5757 38.7671C38.6827 38.7577 38.2784 38.6261 37.752 38.1655C37.2726 37.7425 37.1692 37.3383 37.3948 36.8213C37.7144 36.1068 38.5981 35.7026 39.7637 35.7496C40.3371 35.7778 40.5721 35.8342 40.9858 36.0598Z" fill="#5F4A33"/>
</svg>
