<svg width="46" height="45" viewBox="0 0 46 45" fill="none" xmlns="http://www.w3.org/2000/svg">
<path d="M33.2739 0.645065C27.7089 1.5569 22.2566 5.95628 19.3049 11.9255L18.7315 13.1006L18.1769 12.7246C16.9266 11.8785 15.2816 11.1923 13.7681 10.8915C12.5742 10.6471 10.431 10.7317 9.2935 11.0701C4.80012 12.4049 1.66039 16.6069 0.720346 22.5386C0.513537 23.8452 0.494736 27.2106 0.682744 28.4702C1.47238 33.8566 3.83188 38.632 7.14081 41.5462C9.73532 43.8399 12.3486 44.9209 15.2628 44.9021C17.2838 44.8927 18.8819 44.3851 20.6304 43.2288C22.7549 41.8094 24.5973 39.2525 25.5562 36.3853C25.8852 35.4077 26.3552 33.4054 26.3552 33.0012C26.3552 32.7756 26.3646 32.7756 27.7465 32.7192C29.3351 32.6628 30.1812 32.503 31.7228 31.9954C36.4512 30.4255 40.7284 26.4679 43.3135 21.2789C44.7894 18.3084 45.4192 15.8831 45.5038 12.8186C45.579 10.1301 45.25 8.33458 44.31 6.3699C43.7553 5.19485 43.2571 4.44282 42.4581 3.59679C41.0574 2.11153 39.3936 1.19029 37.3067 0.729668C36.376 0.522858 34.3079 0.475857 33.2739 0.645065ZM37.2503 2.24313C37.5793 2.31833 37.8895 2.41234 37.9365 2.44054C37.9835 2.46874 37.6733 2.86356 37.2409 3.30537C35.6616 4.95984 34.778 6.08789 33.8097 7.69535C32.3245 10.1489 31.563 12.1887 30.905 15.4507C30.2752 18.534 29.2129 21.2037 27.7371 23.4128C27.0602 24.4281 26.2612 25.4903 26.1672 25.4997C26.139 25.5091 25.9886 24.9733 25.8288 24.3058C24.9546 20.7807 23.1309 17.3872 20.7432 14.8867L19.9629 14.0594L20.386 13.1476C23.1873 7.10313 28.4139 2.86356 34.0165 2.06452C34.5712 1.97992 36.658 2.10212 37.2503 2.24313ZM40.578 3.8694C40.7284 4.001 40.6532 4.09501 39.5346 5.24186C37.2597 7.55435 35.671 10.0361 34.5336 13.0536C34.0823 14.238 33.7815 15.3473 33.3679 17.359C32.4467 21.7677 30.5854 25.3117 27.6243 28.2822L26.5996 29.3163L26.515 28.4044L26.4304 27.4926L27.1542 26.6653C29.3069 24.2024 30.9708 21.1473 31.845 18.0076C31.9766 17.5564 32.2023 16.5505 32.3621 15.7703C32.8509 13.3638 33.3773 11.7469 34.2703 9.96085C35.3232 7.86456 36.47 6.2759 38.3219 4.38642L39.544 3.14557L39.9764 3.43698C40.2114 3.59679 40.484 3.79419 40.578 3.8694ZM42.2137 5.69307C43.4169 7.48855 44.0279 9.68824 44.0279 12.2921C44.0279 20.6585 37.5135 29.2411 29.8428 30.9707C28.9591 31.1681 26.7312 31.3279 26.7312 31.1869C26.7406 31.1399 26.9286 30.9519 27.1636 30.7733C27.9533 30.1623 29.9838 28.0096 30.7452 26.9756C32.6723 24.3811 34.0165 21.4575 34.6746 18.4118C34.8062 17.7914 35.0036 16.8795 35.1164 16.3907C35.7274 13.5612 37.0435 10.7035 38.8671 8.27818C39.5252 7.39454 41.612 5.11025 41.7625 5.11025C41.7907 5.11025 41.9975 5.37346 42.2137 5.69307ZM11.2488 13.9654C11.4086 18.769 12.5742 22.4164 15.244 26.4773C16.936 29.0342 17.7445 30.7075 18.4025 33.0012C19.1263 35.5299 19.3801 38.5662 19.0793 41.1419C18.9947 41.8564 18.9101 42.4768 18.8819 42.5238C18.8255 42.6178 17.6034 43.1066 17.547 43.0596C17.5282 43.0314 17.5658 42.6366 17.6316 42.1854C17.8103 40.9445 17.7821 37.6544 17.5752 36.3195C17.03 32.7192 15.8832 29.8239 13.6647 26.4491C12.0008 23.911 11.089 21.9463 10.478 19.5586C10.0361 17.8854 9.89513 16.7009 9.83873 14.5012L9.78232 12.4708L10.2429 12.3673C10.4968 12.3203 10.8164 12.2733 10.948 12.2639L11.1924 12.2545L11.2488 13.9654ZM14.3979 12.593C16.0148 13.063 17.7821 14.1346 19.2297 15.5259C20.7714 17.0111 21.7584 18.393 22.8301 20.5457C24.2965 23.5068 25.0392 26.6935 25.0392 30.0589C25.0392 34.2327 23.8453 37.786 21.5704 40.4369C20.6116 41.5556 20.668 41.6496 20.668 38.9235C20.668 37.081 20.6304 36.3289 20.4988 35.5205C19.8783 31.7698 18.7127 28.912 16.419 25.5185C15.9772 24.8699 15.3098 23.6948 14.9243 22.924C13.4767 19.9723 12.8751 17.4718 12.7528 13.9654L12.6964 12.2357L13.1571 12.3015C13.4109 12.3391 13.9655 12.4708 14.3979 12.593ZM8.33466 14.8585C8.47567 19.6433 9.68832 23.2436 12.593 27.549C15.5542 31.9484 16.7292 36.8648 16.0994 42.27C15.949 43.539 15.9678 43.5296 14.4449 43.3792C7.93985 42.7212 2.41242 35.1915 2.0458 26.4585C1.79199 20.6961 4.03868 15.5447 7.74244 13.3544C7.97745 13.2134 8.19366 13.1006 8.22186 13.1006C8.25006 13.1006 8.30646 13.8902 8.33466 14.8585Z" fill="#5F4A33"/>
<path d="M26.9663 7.6012C26.8065 7.6858 26.4117 7.98662 26.0921 8.28743C25.6503 8.70105 25.5093 8.88905 25.5093 9.09586C25.5093 9.39668 25.9605 9.9043 26.2331 9.9043C26.4775 9.9043 26.8817 9.62229 27.5116 9.03946C27.9346 8.64464 28.0474 8.47544 28.0474 8.25923C28.038 7.93962 27.9064 7.73281 27.6056 7.573C27.3518 7.43199 27.3142 7.43199 26.9663 7.6012Z" fill="#5F4A33"/>
<path d="M24.1085 10.4308C23.5257 10.9197 22.031 13.392 22.031 13.8526C22.031 14.1628 22.1814 14.379 22.4916 14.5106C22.9052 14.6798 23.2249 14.4824 23.6103 13.8056C23.7889 13.4954 24.2495 12.7715 24.6255 12.1981C25.4621 10.9573 25.4997 10.6283 24.8793 10.2992C24.5785 10.13 24.4281 10.1582 24.1085 10.4308Z" fill="#5F4A33"/>
<path d="M7.10311 35.7836C6.76469 36.1408 6.8399 36.4886 7.36632 37.1936C8.09015 38.1525 8.43796 38.3029 8.92678 37.8893C9.3404 37.5321 9.2746 37.203 8.64477 36.3852C8.34396 35.9904 8.04315 35.652 7.95854 35.6238C7.65773 35.5016 7.30052 35.5768 7.10311 35.7836Z" fill="#5F4A33"/>
<path d="M9.77297 38.5852C9.58497 38.7356 9.52856 38.8578 9.52856 39.1398C9.52856 39.4782 9.57557 39.5534 10.0926 39.9859C10.7224 40.5029 11.4932 41.0387 12.2453 41.4899C12.8657 41.8471 13.2981 41.8659 13.5613 41.5275C13.9749 41.0105 13.7869 40.6721 12.7529 40.0235C12.3487 39.7791 11.6719 39.309 11.2394 38.98C10.807 38.651 10.3558 38.3878 10.243 38.3878C10.1208 38.3878 9.91398 38.4724 9.77297 38.5852Z" fill="#5F4A33"/>
</svg>
