<svg width="49" height="49" viewBox="0 0 49 49" fill="none" xmlns="http://www.w3.org/2000/svg">
<g clip-path="url(#clip0_126_507)">
<path d="M32.3843 0.0566368C31.4161 0.207043 30.3727 0.66766 29.5172 1.30689C29.066 1.6453 28.9438 1.6923 28.4832 1.6923C26.8851 1.6923 24.3752 2.46313 22.7207 3.45958C18.359 6.08229 15.52 11.2055 14.251 18.754C14.016 20.1547 13.7246 22.627 13.7246 23.2662C13.7246 23.4448 13.687 23.5952 13.64 23.5952C13.593 23.5952 13.2451 23.4448 12.8691 23.2662C9.31578 21.5835 4.954 22.6928 2.35949 25.9265C0.197398 28.615 -0.432429 31.7924 0.385405 35.8157C1.47585 41.1739 5.23601 45.6579 10.0866 47.3688C11.5531 47.8858 12.6435 48.0644 14.3826 48.0738C16.2533 48.0832 17.2121 47.9234 18.9324 47.3218C21.8841 46.2784 24.7982 43.8155 26.4903 40.9389C27.1389 39.8297 27.0073 39.8861 27.8439 40.2809C31.3033 41.879 35.7309 42.1234 39.1056 40.8919C43.1102 39.4255 46.0619 36.4267 47.3686 32.4786C48.5718 28.8218 48.2992 24.8643 46.5695 21.2545C45.9209 19.9009 45.5449 19.2616 44.6612 18.096C42.9598 15.8305 40.9481 14.411 38.4758 13.753C37.6486 13.5274 37.3947 13.4992 35.9565 13.5086C34.4994 13.5086 34.2832 13.5274 33.5124 13.7624C31.3127 14.411 29.6864 15.6143 28.4738 17.4662C28.0602 18.0866 27.5619 19.2052 27.4021 19.8633C27.3645 20.0043 27.2987 20.1171 27.2517 20.1171C27.0825 20.1171 25.7759 18.7164 25.3528 18.0866C23.5762 15.3981 23.6514 12.437 25.5785 8.752C26.1519 7.66155 27.2517 5.93188 27.3833 5.92248C27.4209 5.92248 27.4491 6.07289 27.4491 6.24209C27.4491 6.73092 27.8721 7.96236 28.2482 8.59219C29.1788 10.1339 30.4197 10.9893 32.5441 11.5533C35.4865 12.3429 38.9552 11.9763 42.1607 10.5569C43.176 10.1057 43.5238 9.81424 43.5238 9.41003C43.5238 8.799 40.3277 4.68163 38.222 2.58534C36.6991 1.07188 36.0505 0.611259 34.9694 0.272846C34.3678 0.0848389 32.9766 -0.0279694 32.3843 0.0566368ZM34.1516 1.73931C34.4994 1.81451 35.007 1.99312 35.2703 2.13412C36.2949 2.68874 38.6262 5.17985 40.6567 7.89656C41.0609 8.44178 41.4275 8.93061 41.4745 8.98701C41.5309 9.06221 41.2677 9.20322 40.6379 9.42883C38.7014 10.1339 37.799 10.2937 35.6745 10.2937C33.8226 10.2937 32.9202 10.1339 31.7357 9.61683C30.053 8.8742 29.0472 7.37954 29.0472 5.64987C29.0472 4.44662 29.3574 3.71339 30.2128 2.85795C31.3033 1.77691 32.6005 1.41029 34.1516 1.73931ZM27.1013 3.59118C27.0543 3.65699 26.7347 4.0706 26.3963 4.51242C24.3658 7.14453 22.9933 10.0023 22.5985 12.3617C22.4105 13.5462 22.4669 15.1443 22.7489 16.2159C23.1344 17.72 24.2342 19.553 25.381 20.6247C25.6443 20.8691 25.8511 21.0853 25.8323 21.0947C25.8135 21.1041 25.5126 21.2357 25.1648 21.3767C24.488 21.6587 23.6138 22.1946 22.9839 22.7022L22.6079 23.0124L21.7149 22.768C20.9629 22.5706 20.615 22.533 19.5058 22.533C18.0017 22.533 17.1839 22.7022 15.9995 23.2662L15.3132 23.5952L15.3696 22.815C15.9525 15.5767 18.0111 9.89885 21.2449 6.66511C22.7395 5.17045 24.1778 4.30561 26.1331 3.72279C27.0637 3.45018 27.2235 3.43138 27.1013 3.59118ZM38.1186 15.3135C39.0304 15.5579 40.2619 16.1313 41.0233 16.6765C41.3429 16.9021 41.9163 17.4192 42.3018 17.8234C46.1935 21.9125 47.4908 27.4212 45.7235 32.3564C44.4544 35.8815 41.4369 38.6358 37.7614 39.6135C36.3231 39.9989 35.5899 40.0741 33.8696 40.0177C31.7545 39.9519 30.2504 39.6041 28.4174 38.7768L27.7499 38.4666L28.032 37.583C29.8462 31.9428 28.5772 26.9982 24.5538 24.0934L24.1496 23.802L24.5538 23.52C25.1084 23.144 25.6067 22.8996 26.3211 22.674C27.4679 22.3074 27.5149 22.3074 28.5208 22.8056C29.0754 23.0782 29.536 23.2474 29.724 23.238C30.3069 23.2192 30.6547 22.5048 30.3162 22.0254C30.241 21.9125 29.8556 21.6681 29.4608 21.4895C28.7558 21.1511 28.7558 21.1417 28.8122 20.8409C29.3386 18.331 31.1435 16.2441 33.4842 15.4545C33.8508 15.3229 34.3772 15.1819 34.6404 15.1349C35.4113 14.9939 37.2725 15.0879 38.1186 15.3135ZM10.3686 24.1686C11.2711 24.3096 12.2205 24.6575 13.0007 25.1275L13.6306 25.5223V26.0675C13.6306 26.876 13.8844 27.252 14.439 27.2614C14.6364 27.2614 14.815 27.1768 14.9842 27.017C15.2004 26.8007 15.2286 26.6879 15.2286 26.1709C15.2286 25.6163 15.2474 25.5693 15.5388 25.3437C15.9807 25.0053 17.1557 24.4695 17.8607 24.2814C18.8008 24.037 20.427 24.0558 21.3765 24.3284C24.4692 25.2215 26.7347 27.9758 27.1765 31.3787C27.3833 32.9768 27.0919 35.3081 26.4433 37.2728C25.0144 41.6252 21.4423 45.0939 17.2967 46.1562C12.8409 47.2936 8.08432 45.6391 4.9822 41.879C3.47813 40.0459 2.44409 37.8556 1.92707 35.3739C1.70146 34.3211 1.58866 32.253 1.70146 31.3975C2.07748 28.6056 3.64734 26.2179 5.92224 24.9771C7.3605 24.1968 8.81756 23.9336 10.3686 24.1686Z" fill="#5F4A33"/>
<path d="M34.6403 16.7798C33.8695 16.949 33.2585 17.231 32.5628 17.7292C31.8672 18.218 31.6792 18.4624 31.6792 18.8478C31.6886 19.1675 31.8202 19.3743 32.1304 19.5435C32.4312 19.7033 32.7696 19.5999 33.2491 19.2145C33.7943 18.7632 34.5839 18.4248 35.3266 18.312C36.3324 18.1616 36.3606 18.1522 36.5674 17.936C36.84 17.6446 36.8118 17.1934 36.511 16.8832C36.2948 16.6764 36.182 16.6388 35.7308 16.6482C35.4394 16.6482 34.9505 16.714 34.6403 16.7798Z" fill="#5F4A33"/>
<path d="M43.8058 27.6466C43.4486 27.7782 43.3452 28.0132 43.2418 28.9721C43.1854 29.4515 43.082 30.0813 43.0067 30.3727C42.6871 31.5854 41.8881 33.0894 41.0985 33.9637C40.431 34.6875 40.3652 35.0165 40.7883 35.4489C41.1643 35.8156 41.4651 35.7968 41.9351 35.3737C43.4204 34.0295 44.5578 31.6042 44.8304 29.1977C44.9432 28.2294 44.8304 27.797 44.4168 27.6372C44.1348 27.5244 44.116 27.5244 43.8058 27.6466Z" fill="#5F4A33"/>
<path d="M8.18773 25.8041C5.57443 26.3964 3.67555 28.6995 3.28073 31.7734C3.14913 32.7698 3.25253 33.1364 3.69435 33.3245C4.34297 33.5971 4.73779 33.2304 4.8412 32.2716C5.001 30.7017 5.51802 29.5267 6.47686 28.5679C7.2383 27.8064 7.92452 27.4586 8.93037 27.3176C9.814 27.1954 10.096 26.9886 10.096 26.4622C10.096 25.7665 9.40979 25.5315 8.18773 25.8041Z" fill="#5F4A33"/>
<path d="M24.3846 31.7077C24.1402 31.9239 24.1214 32.0085 24.0086 33.1835C23.9428 33.898 23.9334 34.5278 23.971 34.65C24.1496 35.1106 24.7606 35.2986 25.1648 35.0166C25.4468 34.8192 25.5596 34.368 25.6254 33.1177L25.6912 32.0649L25.3998 31.7829C25.052 31.4351 24.7324 31.4069 24.3846 31.7077Z" fill="#5F4A33"/>
</g>
<defs>
<clipPath id="clip0_126_507">
<rect width="48.13" height="48.13" fill="white"/>
</clipPath>
</defs>
</svg>
