<svg width="49" height="49" viewBox="0 0 49 49" fill="none" xmlns="http://www.w3.org/2000/svg">
<path d="M34.2739 1.64507C28.7089 2.5569 23.2566 6.95628 20.3049 12.9255L19.7315 14.1006L19.1769 13.7246C17.9266 12.8785 16.2816 12.1923 14.7681 11.8915C13.5742 11.6471 11.431 11.7317 10.2935 12.0701C5.80012 13.4049 2.66039 17.6069 1.72035 23.5386C1.51354 24.8452 1.49474 28.2106 1.68274 29.4702C2.47238 34.8566 4.83188 39.632 8.14081 42.5462C10.7353 44.8399 13.3486 45.9209 16.2628 45.9021C18.2838 45.8927 19.8819 45.3851 21.6304 44.2288C23.7549 42.8094 25.5973 40.2525 26.5562 37.3853C26.8852 36.4077 27.3552 34.4054 27.3552 34.0012C27.3552 33.7756 27.3646 33.7756 28.7465 33.7192C30.3351 33.6628 31.1812 33.503 32.7228 32.9954C37.4512 31.4255 41.7284 27.4679 44.3135 22.2789C45.7894 19.3084 46.4192 16.8831 46.5038 13.8186C46.579 11.1301 46.25 9.33458 45.31 7.3699C44.7553 6.19485 44.2571 5.44282 43.4581 4.59679C42.0574 3.11153 40.3936 2.19029 38.3067 1.72967C37.376 1.52286 35.3079 1.47586 34.2739 1.64507ZM38.2503 3.24313C38.5793 3.31833 38.8895 3.41234 38.9365 3.44054C38.9835 3.46874 38.6733 3.86356 38.2409 4.30537C36.6616 5.95984 35.778 7.08789 34.8097 8.69535C33.3245 11.1489 32.563 13.1887 31.905 16.4507C31.2752 19.534 30.2129 22.2037 28.7371 24.4128C28.0602 25.4281 27.2612 26.4903 27.1672 26.4997C27.139 26.5091 26.9886 25.9733 26.8288 25.3058C25.9546 21.7807 24.1309 18.3872 21.7432 15.8867L20.9629 15.0594L21.386 14.1476C24.1873 8.10313 29.4139 3.86356 35.0165 3.06452C35.5712 2.97992 37.658 3.10212 38.2503 3.24313ZM41.578 4.8694C41.7284 5.001 41.6532 5.09501 40.5346 6.24186C38.2597 8.55435 36.671 11.0361 35.5336 14.0536C35.0823 15.238 34.7815 16.3473 34.3679 18.359C33.4467 22.7677 31.5854 26.3117 28.6243 29.2822L27.5996 30.3163L27.515 29.4044L27.4304 28.4926L28.1542 27.6653C30.3069 25.2024 31.9708 22.1473 32.845 19.0076C32.9766 18.5564 33.2023 17.5505 33.3621 16.7703C33.8509 14.3638 34.3773 12.7469 35.2703 10.9608C36.3232 8.86456 37.47 7.2759 39.3219 5.38642L40.544 4.14557L40.9764 4.43698C41.2114 4.59679 41.484 4.79419 41.578 4.8694ZM43.2137 6.69307C44.4169 8.48855 45.0279 10.6882 45.0279 13.2921C45.0279 21.6585 38.5135 30.2411 30.8428 31.9707C29.9591 32.1681 27.7312 32.3279 27.7312 32.1869C27.7406 32.1399 27.9286 31.9519 28.1636 31.7733C28.9533 31.1623 30.9838 29.0096 31.7452 27.9756C33.6723 25.3811 35.0165 22.4575 35.6746 19.4118C35.8062 18.7914 36.0036 17.8795 36.1164 17.3907C36.7274 14.5612 38.0435 11.7035 39.8671 9.27818C40.5252 8.39454 42.612 6.11025 42.7625 6.11025C42.7907 6.11025 42.9975 6.37346 43.2137 6.69307ZM12.2488 14.9654C12.4086 19.769 13.5742 23.4164 16.244 27.4773C17.936 30.0342 18.7445 31.7075 19.4025 34.0012C20.1263 36.5299 20.3801 39.5662 20.0793 42.1419C19.9947 42.8564 19.9101 43.4768 19.8819 43.5238C19.8255 43.6178 18.6034 44.1066 18.547 44.0596C18.5282 44.0314 18.5658 43.6366 18.6316 43.1854C18.8103 41.9445 18.7821 38.6544 18.5752 37.3195C18.03 33.7192 16.8832 30.8239 14.6647 27.4491C13.0008 24.911 12.089 22.9463 11.478 20.5586C11.0361 18.8854 10.8951 17.7009 10.8387 15.5012L10.7823 13.4708L11.2429 13.3673C11.4968 13.3203 11.8164 13.2733 11.948 13.2639L12.1924 13.2545L12.2488 14.9654ZM15.3979 13.593C17.0148 14.063 18.7821 15.1346 20.2297 16.5259C21.7714 18.0111 22.7584 19.393 23.8301 21.5457C25.2965 24.5068 26.0392 27.6935 26.0392 31.0589C26.0392 35.2327 24.8453 38.786 22.5704 41.4369C21.6116 42.5556 21.668 42.6496 21.668 39.9235C21.668 38.081 21.6304 37.3289 21.4988 36.5205C20.8783 32.7698 19.7127 29.912 17.419 26.5185C16.9772 25.8699 16.3098 24.6948 15.9243 23.924C14.4767 20.9723 13.8751 18.4718 13.7528 14.9654L13.6964 13.2357L14.1571 13.3015C14.4109 13.3391 14.9655 13.4708 15.3979 13.593ZM9.33466 15.8585C9.47567 20.6433 10.6883 24.2436 13.593 28.549C16.5542 32.9484 17.7292 37.8648 17.0994 43.27C16.949 44.539 16.9678 44.5296 15.4449 44.3792C8.93985 43.7212 3.41242 36.1915 3.0458 27.4585C2.79199 21.6961 5.03868 16.5447 8.74244 14.3544C8.97745 14.2134 9.19366 14.1006 9.22186 14.1006C9.25006 14.1006 9.30646 14.8902 9.33466 15.8585Z" fill="#5F4A33"/>
<path d="M27.9663 8.6012C27.8065 8.6858 27.4117 8.98662 27.0921 9.28743C26.6503 9.70105 26.5093 9.88905 26.5093 10.0959C26.5093 10.3967 26.9605 10.9043 27.2331 10.9043C27.4775 10.9043 27.8817 10.6223 28.5116 10.0395C28.9346 9.64464 29.0474 9.47544 29.0474 9.25923C29.038 8.93962 28.9064 8.73281 28.6056 8.573C28.3518 8.43199 28.3142 8.43199 27.9663 8.6012Z" fill="#5F4A33"/>
<path d="M25.1085 11.4308C24.5257 11.9197 23.031 14.392 23.031 14.8526C23.031 15.1628 23.1814 15.379 23.4916 15.5106C23.9052 15.6798 24.2249 15.4824 24.6103 14.8056C24.7889 14.4954 25.2495 13.7715 25.6255 13.1981C26.4621 11.9573 26.4997 11.6283 25.8793 11.2992C25.5785 11.13 25.4281 11.1582 25.1085 11.4308Z" fill="#5F4A33"/>
<path d="M8.10311 36.7836C7.76469 37.1408 7.8399 37.4886 8.36632 38.1936C9.09015 39.1525 9.43796 39.3029 9.92678 38.8893C10.3404 38.5321 10.2746 38.203 9.64477 37.3852C9.34396 36.9904 9.04315 36.652 8.95854 36.6238C8.65773 36.5016 8.30052 36.5768 8.10311 36.7836Z" fill="#5F4A33"/>
<path d="M10.773 39.5852C10.585 39.7356 10.5286 39.8578 10.5286 40.1398C10.5286 40.4782 10.5756 40.5534 11.0926 40.9859C11.7224 41.5029 12.4932 42.0387 13.2453 42.4899C13.8657 42.8471 14.2981 42.8659 14.5613 42.5275C14.9749 42.0105 14.7869 41.6721 13.7529 41.0235C13.3487 40.7791 12.6719 40.309 12.2394 39.98C11.807 39.651 11.3558 39.3878 11.243 39.3878C11.1208 39.3878 10.914 39.4724 10.773 39.5852Z" fill="#5F4A33"/>
</svg>
