<svg width="38" height="49" viewBox="0 0 38 49" fill="none" xmlns="http://www.w3.org/2000/svg">
<path d="M4.83276 0.188057C4.29694 0.394867 3.72352 0.921288 3.4321 1.45711C3.2441 1.79552 3.2253 2.01173 3.19709 3.44999C3.16889 4.79425 3.18769 5.16087 3.3287 5.56508C3.51671 6.13851 4.19354 6.87174 4.71056 7.05974L5.05837 7.18195V8.27239V9.35344L3.87392 10.5285C3.2253 11.1771 2.63307 11.8351 2.55787 12.0043C2.29466 12.6154 2.46386 13.264 3.00909 13.734L3.3005 13.9784L2.84928 14.5801C2.00324 15.7269 1.34522 17.2686 1.06321 18.735C0.856397 19.8161 0.865798 23.5574 1.07261 23.8582C1.27001 24.1403 1.85284 24.1497 2.10665 23.8676C2.26646 23.689 2.29466 23.454 2.34166 21.3013C2.38866 19.2615 2.42626 18.8478 2.60487 18.2368C3.01849 16.8362 3.89272 15.3603 5.03017 14.1194C5.50959 13.6118 5.6412 13.6118 8.1605 14.1006C9.21334 14.3074 10.2098 14.4767 10.3696 14.4767C10.5294 14.4767 11.507 14.3074 12.5317 14.1006C13.5563 13.8938 14.5246 13.7246 14.6844 13.7246C14.8442 13.7246 15.8406 13.8938 16.8841 14.1006C17.9369 14.3074 18.9333 14.4767 19.1026 14.4767C19.2718 14.4767 20.2494 14.3074 21.274 14.1006C22.2987 13.8938 23.2669 13.7246 23.4267 13.7246C23.5865 13.7246 24.583 13.8938 25.6264 14.1006C26.6793 14.3074 27.6757 14.4767 27.8449 14.4767C28.0141 14.4767 28.9918 14.3074 30.0164 14.1006C31.041 13.8938 32.0751 13.7246 32.3007 13.7246C32.6767 13.7246 32.7613 13.7716 33.0997 14.1194C34.2278 15.3509 35.102 16.8174 35.5344 18.2368C35.7412 18.9418 35.7412 18.9606 35.7976 26.9416C35.8447 34.6499 35.854 34.9601 36.0233 35.1481C36.2771 35.4301 36.8599 35.4207 37.0573 35.1387C37.2829 34.8285 37.2829 19.8725 37.0667 18.735C36.7847 17.2686 36.1267 15.7269 35.2806 14.5801L34.8294 13.9784L35.1208 13.734C35.666 13.264 35.8353 12.6154 35.572 12.0043C35.4968 11.8351 34.9046 11.1771 34.256 10.5285L33.0715 9.35344V8.27239V7.18195L33.4193 7.05974C33.9364 6.87174 34.6132 6.13851 34.8012 5.56508C34.9422 5.16087 34.961 4.79425 34.9328 3.44999C34.9046 1.63572 34.8576 1.49471 34.1714 0.770882C33.4946 0.0752525 33.1373 4.95911e-05 30.5898 4.95911e-05C28.5781 4.95911e-05 28.3713 0.0188522 28.1739 0.178658C27.8731 0.423069 27.8731 0.987091 28.1739 1.2315C28.3713 1.39131 28.5781 1.41011 30.524 1.41011C33.504 1.41011 33.5416 1.43831 33.5416 3.6662C33.5416 5.11386 33.4757 5.37707 33.0057 5.69669C32.7519 5.86589 32.3477 5.87529 19.065 5.87529C5.7822 5.87529 5.37799 5.86589 5.12417 5.69669C4.65416 5.37707 4.58835 5.12326 4.58835 3.6474C4.58835 2.48175 4.61655 2.26554 4.77636 2.00233C5.15238 1.37251 4.47555 1.41011 15.521 1.41011C25.5042 1.41011 25.523 1.41011 25.7768 1.2127C26.1152 0.94949 26.1152 0.46067 25.7768 0.19746C25.523 4.95911e-05 25.5042 4.95911e-05 15.4082 4.95911e-05C5.6506 0.00944901 5.27458 0.0188522 4.83276 0.188057ZM31.6615 8.13139V8.93042H19.065H6.46843V8.13139V7.33236H19.065H31.6615V8.13139ZM33.2125 11.4685C34.021 12.277 34.2842 12.5966 34.1526 12.5966C34.0492 12.5966 33.5604 12.512 33.0715 12.418L32.1785 12.23L29.9882 12.6624L27.8073 13.0854L25.6264 12.6624L23.4361 12.2394L21.2552 12.6624L19.065 13.0854L16.8841 12.6624L14.7126 12.2394L12.5223 12.6624L10.3226 13.0854L8.1323 12.6624L5.95141 12.23L5.10537 12.4086C3.64831 12.7188 3.64831 12.7376 4.91737 11.4685L6.04541 10.3405H19.065H32.0845L33.2125 11.4685Z" fill="#5F4A33"/>
<path d="M7.07943 20.2017C6.318 20.3897 5.71637 20.8785 5.33096 21.6211L5.10535 22.0441V31.2565C5.10535 40.4501 5.10535 40.4689 5.30275 40.8919C5.56597 41.4466 6.02658 41.9072 6.60941 42.1704L7.07943 42.396H19.0649H31.0504L31.5204 42.1704C32.1033 41.9072 32.5639 41.4466 32.8271 40.8919C33.0245 40.4689 33.0245 40.4501 33.0245 31.2565V22.0441L32.7707 21.5741C32.4793 21.0195 32.1409 20.6905 31.5674 20.3897L31.1444 20.1641L19.2529 20.1453C12.7103 20.1453 7.23924 20.1641 7.07943 20.2017ZM31.0034 21.6963C31.6991 22.0441 31.6615 21.4801 31.6615 31.2847C31.6615 40.8355 31.6897 40.3561 31.135 40.7885L30.8812 40.9859H19.0649H7.24864L6.99483 40.7885C6.4402 40.3561 6.4684 40.8355 6.4684 31.2847C6.4684 21.4801 6.4308 22.0441 7.12643 21.6963C7.43664 21.5365 8.19808 21.5271 19.0649 21.5271C29.9318 21.5271 30.6932 21.5365 31.0034 21.6963Z" fill="#5F4A33"/>
<path d="M21.744 23.8018C21.5372 23.9052 21.133 24.2436 20.8416 24.535C20.3716 25.0144 20.2399 25.2212 20.0613 25.7852C20.0143 25.9357 19.9485 25.9451 19.5631 25.8886C18.4163 25.7006 17.1848 25.9263 16.3106 26.4809C14.5715 27.5807 13.1709 30.4666 12.8512 33.597C12.6538 35.5429 12.9828 36.7931 13.8101 37.2067C15.1543 37.8741 18.5667 37.4981 20.7852 36.4453C21.9226 35.9095 22.6464 35.4112 23.3045 34.7156C24.2633 33.7098 24.5735 32.8261 24.4889 31.2845C24.4419 30.429 24.4607 30.2692 24.5735 30.2692C25.241 30.2692 26.6792 28.8028 26.6792 28.1165C26.6792 27.5149 25.5888 26.3305 24.7427 26.0203C24.5077 25.9357 24.4043 25.8134 24.2821 25.5126C24.0189 24.8076 22.9473 23.783 22.3456 23.6514C22.214 23.6232 21.9696 23.6796 21.744 23.8018ZM22.6746 25.5878C22.8721 25.8134 23.0131 26.0767 23.0131 26.2271C23.0131 26.4903 22.5054 27.1671 22.308 27.1671C22.1012 27.1671 21.415 26.4715 21.415 26.2647C21.415 25.9545 22.026 25.2024 22.2798 25.193C22.308 25.193 22.496 25.3716 22.6746 25.5878ZM20.3152 27.6277C21.2834 28.0883 22.167 28.972 22.6558 29.959C22.9943 30.6452 23.0507 30.8427 23.0883 31.5289C23.1259 32.2245 23.0977 32.3843 22.8909 32.8355C22.2892 34.1516 20.6442 35.2326 18.3223 35.8249C16.79 36.2197 14.6749 36.2385 14.4023 35.8625C14.0733 35.4112 14.1673 33.4184 14.5997 31.7545C15.1637 29.63 16.4986 27.7405 17.73 27.3457C17.871 27.3081 18.3693 27.2799 18.8299 27.2893C19.5631 27.3175 19.7605 27.3551 20.3152 27.6277ZM24.8273 27.7405L25.2128 28.1259L24.7803 28.5396C24.5359 28.7652 24.2539 28.9532 24.1411 28.9532C24.0377 28.9532 23.7933 28.8122 23.6053 28.6336L23.2575 28.3233L23.6805 27.8439C23.9061 27.5807 24.1693 27.3645 24.2727 27.3551C24.3667 27.3551 24.6205 27.5243 24.8273 27.7405Z" fill="#5F4A33"/>
<path d="M17.6455 29.32C17.1284 29.8276 17.0438 30.2224 17.3729 30.5515C17.7113 30.8899 18.1155 30.8053 18.6231 30.2882C19.1213 29.7806 19.2059 29.3764 18.8769 29.0474C18.5479 28.7184 18.1531 28.803 17.6455 29.32Z" fill="#5F4A33"/>
<path d="M20.5126 31.3505C20.1742 31.5009 19.77 31.9239 19.6383 32.2718C19.5631 32.4786 19.5631 32.6008 19.676 32.7982C19.8264 33.0896 19.9862 33.1836 20.3528 33.1836C20.7006 33.1836 21.509 32.3564 21.509 32.0179C21.509 31.4445 21.0296 31.1249 20.5126 31.3505Z" fill="#5F4A33"/>
<path d="M16.6867 32.6944C16.1884 33.202 16.1038 33.6062 16.4329 33.9353C16.7619 34.2643 17.1567 34.1797 17.6643 33.6626C18.1813 33.155 18.2659 32.7602 17.9369 32.4312C17.5985 32.0928 17.1943 32.1774 16.6867 32.6944Z" fill="#5F4A33"/>
<path d="M8.33911 35.1385C8.02889 35.3924 8.0571 35.8718 8.38611 36.1632C8.61172 36.3606 8.73392 36.3794 9.57056 36.3794C10.4072 36.3794 10.5294 36.3606 10.755 36.1632C11.0746 35.8812 11.0934 35.383 10.7832 35.1385C10.4824 34.8847 8.64932 34.8941 8.33911 35.1385Z" fill="#5F4A33"/>
<path d="M27.3467 35.1385C27.0365 35.383 27.0553 35.8812 27.3749 36.1632C27.6005 36.3606 27.7227 36.3794 28.5593 36.3794C29.396 36.3794 29.5182 36.3606 29.7438 36.1632C30.0728 35.8718 30.101 35.3924 29.7908 35.1385C29.4806 34.8941 27.6475 34.8847 27.3467 35.1385Z" fill="#5F4A33"/>
<path d="M8.42375 38.1092C8.14173 38.3161 8.04773 38.7015 8.20754 39.0023C8.38614 39.3595 8.48955 39.3877 9.57059 39.3877C10.661 39.3877 10.7738 39.3501 10.9337 38.9835C11.0841 38.6169 10.9619 38.2314 10.6422 38.081C10.3132 37.9306 8.63055 37.9494 8.42375 38.1092Z" fill="#5F4A33"/>
<path d="M27.4595 38.0904C27.0271 38.2972 27.0365 39.1621 27.4783 39.3313C27.6851 39.4065 29.4336 39.4065 29.6404 39.3313C30.054 39.1715 30.0916 38.4007 29.7062 38.1092C29.5088 37.9588 27.7603 37.94 27.4595 38.0904Z" fill="#5F4A33"/>
<path d="M1.11018 26.2271C0.922177 26.4151 0.922177 26.5374 0.922177 34.5183C0.922177 43.4957 0.903376 43.1948 1.5426 44.5109C2.19123 45.8364 3.15007 46.7952 4.54133 47.472C5.94199 48.1583 5.30276 48.1301 19.0649 48.1301C32.9305 48.1301 32.1785 48.1677 33.6825 47.425C35.1772 46.6918 36.2394 45.5073 36.8599 43.8811L37.1607 43.1008L37.1889 40.4029C37.2171 37.7802 37.2171 37.705 37.0291 37.517C36.7659 37.2538 36.2582 37.2538 36.0232 37.517C35.8634 37.6956 35.8446 37.9306 35.7882 40.3183C35.7318 43.0068 35.7224 43.1384 35.2806 44.0033C34.7448 45.0561 33.5791 46.062 32.4323 46.4568L31.8025 46.673H19.0649H6.3274L5.71638 46.4568C4.28752 45.968 3.19707 44.9057 2.58605 43.4017C2.37924 42.9128 2.37924 42.8376 2.33224 34.6781C2.28523 26.7348 2.27583 26.4245 2.10663 26.2365C1.87162 25.9827 1.364 25.9733 1.11018 26.2271Z" fill="#5F4A33"/>
</svg>
