<svg width="49" height="49" viewBox="0 0 49 49" fill="none" xmlns="http://www.w3.org/2000/svg">
<g clip-path="url(#clip0_128_528)">
<path d="M10.6225 8.91136C10.4439 8.99596 10.2089 9.20277 10.1054 9.36258C9.98324 9.54118 8.9304 13.3577 7.30413 19.468C5.87527 24.8638 4.65322 29.4418 4.59682 29.6298L4.50281 29.987H2.74494C1.16568 29.987 0.958867 30.0058 0.686256 30.175C0.30084 30.41 0.0940311 30.7297 0.0282284 31.1903C-0.00937316 31.4911 0.197435 32.1021 1.36308 35.1196C2.12452 37.0749 2.83895 38.7858 2.94235 38.8986C3.42177 39.4156 2.00231 39.3874 24.1308 39.3874C43.9281 39.3874 44.6143 39.378 44.9339 39.2088C45.1125 39.1148 45.3381 38.9174 45.4227 38.767C45.6953 38.3064 48.0548 31.8389 48.1018 31.4441C48.1488 30.9647 47.9138 30.4853 47.4814 30.2032C47.1806 29.9964 47.0772 29.987 45.3005 29.987C44.1631 29.987 43.4204 29.9494 43.3828 29.893C43.3546 29.846 42.1702 25.2492 40.7601 19.6842C39.0869 13.1227 38.1186 9.47538 38.0058 9.31557C37.9024 9.18397 37.6768 8.99596 37.4982 8.91136C37.1974 8.75155 36.3607 8.74215 24.065 8.74215C11.7693 8.74215 10.9327 8.75155 10.6225 8.91136ZM36.2761 13.5081C36.5487 14.5892 36.7838 15.5292 36.812 15.6232C36.8496 15.7642 36.671 15.783 34.8567 15.8112C32.8638 15.8394 32.8544 15.8394 32.2998 16.1121C31.5853 16.4599 30.9837 17.0615 30.6641 17.7477C30.4103 18.2741 30.4103 18.3211 30.3633 20.7935C30.3163 23.1529 30.3069 23.3128 30.1189 23.5666C29.7617 24.046 29.3574 24.2528 28.7652 24.2528C28.173 24.2528 27.7688 24.046 27.4116 23.5666C27.2236 23.3128 27.2142 23.1529 27.1672 20.7935L27.1202 18.2835L26.8475 17.7289C26.4997 17.0145 25.8981 16.4129 25.2119 16.0933L24.6761 15.8394L17.9266 15.8112C12.6436 15.7924 11.1771 15.7642 11.2147 15.6702C11.2335 15.6044 11.4779 14.7302 11.7411 13.7244C12.0137 12.7185 12.2487 11.8161 12.2769 11.7221C12.3239 11.5717 12.9632 11.5623 24.0556 11.5623H35.7967L36.2761 13.5081ZM24.1872 18.7724C24.3094 18.9134 24.3376 19.327 24.3658 21.2917C24.4128 23.9896 24.4974 24.3562 25.2495 25.3902C26.5937 27.2045 29.4139 27.6181 31.3691 26.2833C31.9614 25.8791 32.6382 24.986 32.9014 24.2434C33.1082 23.6888 33.127 23.4538 33.1646 21.2917C33.1928 19.327 33.221 18.9134 33.3432 18.7724C33.4748 18.6314 33.7098 18.6126 35.5523 18.6126C36.6804 18.6126 37.6016 18.6408 37.6016 18.669C37.6016 18.6972 38.2408 21.2165 39.0117 24.2622C39.7825 27.3079 40.4217 29.8366 40.4217 29.893C40.4217 30.0058 7.55794 30.0246 7.49214 29.9118C7.47334 29.8742 8.09376 27.4301 8.8834 24.4878C9.66363 21.5361 10.3405 19.0168 10.3781 18.8664L10.4345 18.6126H17.2403C23.595 18.6126 24.0462 18.622 24.1872 18.7724ZM44.6331 32.92C44.6049 32.9858 44.2947 33.8318 43.9375 34.8L43.2982 36.5673H24.112H4.93523L4.33361 34.988C3.99519 34.1232 3.67558 33.2772 3.60038 33.108L3.47817 32.8071H24.0744C40.5157 32.8071 44.6613 32.8354 44.6331 32.92Z" fill="#5F4A33"/>
</g>
<defs>
<clipPath id="clip0_128_528">
<rect width="48.13" height="48.13" fill="white"/>
</clipPath>
</defs>
</svg>
