<svg width="49" height="49" viewBox="0 0 49 49" fill="none" xmlns="http://www.w3.org/2000/svg">
<path d="M29.3788 2.15297C29.1908 2.35038 28.7772 2.8392 28.4481 3.23401C27.7713 4.05184 27.9405 3.99544 25.9571 4.10824C22.9865 4.28685 21.0031 4.80387 18.6436 6.00711C13.8494 8.4606 9.37484 13.2266 6.46073 18.9984C3.16121 25.5316 2.35278 32.0743 4.24225 36.8214C4.64647 37.8273 4.63707 37.7897 4.80627 39.8766C4.98488 42.1514 5.13528 42.7813 5.6429 43.3359C5.96252 43.6931 6.31033 43.8247 6.94955 43.8247C7.71098 43.8247 8.2186 43.6743 10.1081 42.8659C11.4899 42.2736 11.7343 42.1984 12.5522 42.1232C13.6708 42.0198 13.887 41.9822 15.0527 41.6908C17.2899 41.1362 19.7904 39.8577 21.9243 38.1751L22.4883 37.7239L23.3908 38.7391C25.5434 41.155 28.2507 43.2607 30.8358 44.5203C32.7817 45.4792 34.2858 45.9116 36.241 46.0808C37.0683 46.156 37.3597 46.2312 38.2621 46.6072C41.43 47.9138 42.1256 48.0736 42.9247 47.66C43.2725 47.4814 43.4041 47.3404 43.6485 46.8328C44.0057 46.1372 44.0997 45.5732 44.2407 43.4205C44.2971 42.424 44.3911 41.7848 44.5133 41.4464C45.5192 38.6357 45.6508 38.0247 45.7166 35.7686C45.773 33.8603 45.6696 32.5349 45.3218 30.8052C44.3817 26.1332 41.9752 21.1229 38.7133 17.0431C37.7451 15.8399 35.5642 13.612 34.4926 12.7378C33.7499 12.1361 33.6089 11.9763 33.5243 11.6379C33.2799 10.6791 32.6407 8.82722 32.1143 7.60517L31.5503 6.26092L32.0673 5.04828C32.3681 4.36205 32.5843 3.74163 32.5655 3.60063C32.5467 3.40322 32.3117 3.21521 31.2683 2.58539C30.5726 2.15297 29.9428 1.80516 29.8582 1.80516C29.7736 1.80516 29.5574 1.96497 29.3788 2.15297ZM30.8264 3.40322L31.5503 3.87324L31.3999 4.22105C31.3247 4.41846 31.193 4.73807 31.1084 4.92607C31.0332 5.12348 30.9392 5.28329 30.911 5.28329C30.8828 5.28329 30.7042 5.14228 30.5162 4.96368C30.206 4.65346 29.3318 4.15525 29.1156 4.15525C29.0592 4.15525 29.0122 4.12705 29.0122 4.09884C29.0122 3.99544 29.9052 2.9426 29.9992 2.9426C30.0556 2.9426 30.4222 3.14941 30.8264 3.40322ZM28.2977 4.97308C28.3259 5.01068 27.7807 5.32089 27.0663 5.6593C21.9243 8.13159 17.3651 11.8071 13.8024 16.3569C12.8436 17.5789 11.0951 20.1922 10.2961 21.5929C8.3314 25.0334 6.33853 29.9028 5.10708 34.2739C4.92848 34.8944 4.75927 35.355 4.73107 35.2986C4.63707 35.1482 4.40206 34.0765 4.28925 33.2963C4.15765 32.3845 4.15765 29.978 4.28925 28.8687C4.81567 24.4412 6.81795 19.4778 9.76966 15.2947C11.9223 12.2395 14.78 9.42884 17.4121 7.76498C20.2416 5.97891 22.5729 5.25509 26.2861 5.01068C27.9217 4.90727 28.2225 4.89787 28.2977 4.97308ZM28.3635 6.36433C28.2601 6.54293 25.2896 11.3747 21.7645 17.0901C18.2394 22.8055 15.3441 27.5527 15.3159 27.6561C15.2689 27.8253 15.5791 28.2201 15.7577 28.2201C15.8141 28.2201 15.9551 28.1261 16.0679 28.0039C16.1807 27.8911 19.217 23.0311 22.8079 17.1935C27.9875 8.78022 29.3506 6.62754 29.4258 6.75914C29.548 6.97535 29.4258 10.7731 29.2472 12.2865C28.2695 20.634 24.7444 28.0415 18.3898 35.1294C17.2241 36.4266 14.4322 39.1903 13.1162 40.356C12.3266 41.0516 12.1479 41.1644 11.6121 41.3054C11.2831 41.39 10.3995 41.719 9.64745 42.0386C8.2938 42.612 7.16576 42.9787 7.06236 42.8753C7.03415 42.8377 7.77678 41.5686 8.72622 40.0552C10.7755 36.7368 10.8225 36.6616 10.6909 36.4172C10.5405 36.1352 10.2397 36.0976 9.97646 36.3326C9.85426 36.4454 9.00823 37.7521 8.10579 39.2467C5.94371 42.7813 6.15052 42.4804 6.05652 42.236C5.91551 41.86 5.79331 40.8636 5.69931 39.4065C5.6523 38.6075 5.5489 37.7333 5.4831 37.4607C5.36089 36.9906 5.37029 36.9342 5.81211 35.261C9.13983 22.7961 15.4475 13.612 24.406 8.16919C25.44 7.52997 28.3071 6.03532 28.4763 6.03532C28.5233 6.03532 28.4763 6.18572 28.3635 6.36433ZM31.1272 7.67097C31.7853 9.18443 32.5279 11.3841 32.7253 12.4276C32.9603 13.6684 33.0073 15.8117 32.8287 17.3533C32.2177 22.5705 29.9146 27.8441 26.0981 32.7511C25.2332 33.8697 22.4601 36.6052 21.3321 37.4607C19.1324 39.1339 16.9045 40.262 14.7142 40.8166C14.2912 40.9294 13.934 40.9952 13.9152 40.9858C13.8964 40.967 14.4886 40.3842 15.2219 39.6979C23.8326 31.6136 28.7208 22.9653 30.0462 13.4804C30.3 11.6473 30.4504 9.12803 30.4034 7.55817C30.347 5.93191 30.3846 5.93191 31.1272 7.67097ZM35.63 15.0784C36.523 15.9715 37.6229 17.1653 38.0741 17.7387C41.5804 22.1663 44.0151 27.6279 44.6731 32.5443C44.8235 33.6817 44.8423 36.2386 44.7107 37.1975C44.5791 38.1093 44.3159 39.3125 44.2501 39.3125C44.2219 39.3125 43.9493 38.4947 43.6579 37.5077C41.5616 30.354 38.3279 24.0276 34.3892 19.365L33.6371 18.4814L33.7781 17.3063C33.8627 16.5919 33.9003 15.6237 33.8815 14.7964C33.8627 14.0632 33.8815 13.4616 33.9191 13.4616C33.9662 13.4616 34.7276 14.1948 35.63 15.0784ZM34.878 21.4989C38.4313 26.1803 41.2796 32.2717 43.1879 39.2655C43.6391 40.9012 43.6485 40.967 43.5263 41.4276C43.4511 41.6814 43.3477 42.5744 43.3007 43.4017C43.1973 44.8963 43.0751 45.8082 42.9341 46.203C42.8401 46.438 43.0939 46.814 40.6216 42.8001C39.2679 40.6098 38.9765 40.2056 38.7791 40.1774C38.6381 40.1586 38.4783 40.2244 38.3749 40.3278C38.2339 40.497 38.2245 40.544 38.3467 40.826C38.4219 41.0046 39.2491 42.3864 40.1892 43.9093C41.9376 46.7106 42.0598 46.9268 41.9376 46.9268C41.6462 46.9268 40.5464 46.5414 39.3337 46.0244C38.5441 45.686 37.6511 45.3569 37.3503 45.2817C36.7393 45.1407 36.5512 44.9903 34.2294 42.8283C31.7007 40.4688 29.407 37.8931 27.3389 35.0918C26.4835 33.9449 26.3801 33.7381 26.5681 33.6253C26.8971 33.4279 28.9464 30.4574 29.8582 28.8781C30.1308 28.4081 30.394 28.0603 30.4316 28.0979C30.4692 28.1355 31.0332 29.038 31.6819 30.1002C32.3399 31.153 32.9321 32.0555 33.0167 32.1025C33.2517 32.2341 33.6089 32.0931 33.6747 31.8393C33.7217 31.6607 33.4491 31.153 32.3023 29.3106L30.8828 26.9981L31.3529 25.9734C32.1425 24.2532 33.3363 20.6811 33.3363 20.0418C33.3363 19.553 33.5525 19.7598 34.878 21.4989ZM26.7279 35.8532C28.9182 38.7861 31.7383 41.8694 34.502 44.3699C34.8592 44.6895 35.1318 44.9715 35.113 44.9903C35.0472 45.0561 33.3269 44.5767 32.5467 44.2759C30.7888 43.5803 28.9746 42.4898 27.1885 41.061C26.2015 40.2714 24.2556 38.3819 23.6164 37.5923L23.2498 37.141L24.5094 35.872C25.1956 35.1764 25.7784 34.6124 25.7878 34.6124C25.7972 34.6124 26.2203 35.1764 26.7279 35.8532Z" fill="#5F4A33"/>
<path d="M13.9058 29.8371C13.1726 31.0122 12.4675 32.2154 12.4675 32.3094C12.4675 32.488 12.7871 32.7324 13.0127 32.7324C13.229 32.7324 13.276 32.676 14.3194 30.9558C14.6484 30.4199 14.9116 29.9217 14.9116 29.8559C14.9116 29.6585 14.6296 29.4423 14.3852 29.4423C14.2254 29.4423 14.0938 29.5551 13.9058 29.8371Z" fill="#5F4A33"/>
<path d="M34.2764 33.5783C34.173 33.6817 34.0884 33.8133 34.0884 33.8791C34.0884 34.0483 35.4984 36.3326 35.7428 36.5582C36.006 36.8026 36.3163 36.7462 36.4573 36.436C36.5419 36.248 36.4573 36.06 35.8274 35.0165C35.1412 33.8791 34.7558 33.3903 34.549 33.3903C34.502 33.3903 34.3798 33.4749 34.2764 33.5783Z" fill="#5F4A33"/>
</svg>
