<svg width="55" height="55" viewBox="0 0 55 55" fill="none" xmlns="http://www.w3.org/2000/svg">
<path fill-rule="evenodd" clip-rule="evenodd" d="M2.42651 19.2299V35.7913H4.70805V27.764H5.86737V35.7913H8.1489V19.2299H5.86737V26.0936H4.70805V19.2299H2.42651ZM13.5329 19.2299H9.28939V35.7913H13.5329V34.1209H11.5709V27.764H13.5329V26.0936H11.5709V20.9005H13.5329V19.2299ZM16.8097 26.0936H17.4012C17.7284 26.0936 17.8977 25.8522 17.8977 25.5463V21.395C17.8977 21.1062 17.7356 20.9002 17.4754 20.9002H16.8097V26.0936ZM18.9434 26.8346C19.1548 26.9667 20.2374 27.3311 20.232 28.6405V33.8373C20.232 34.739 20.4326 35.5799 20.5701 35.7913H18.2886C18.0563 35.4112 17.866 34.5558 17.866 33.6156V28.6514C17.866 28.0633 17.7427 27.7642 17.4226 27.7642H16.81V35.7916H14.5287V19.2299H17.9504C19.4188 19.2299 20.2634 20.0713 20.2634 21.5006V24.6587C20.2636 26.5707 19.0279 26.7185 18.9434 26.8346ZM23.3584 29.6018H21.056V33.2567C21.056 35.5236 22.2952 35.876 24.0343 35.876C25.9144 35.876 26.8863 35.0172 26.8863 33.0033V29.8558C26.8863 27.2575 23.4428 25.9267 23.4428 24.4903V21.2894C23.4428 20.8668 23.6805 20.7664 23.9445 20.7664C24.1981 20.7664 24.4144 20.8454 24.4144 21.2894V24.8068H26.6957V21.49C26.6957 19.7438 25.7452 19.124 23.9285 19.124C21.9428 19.124 21.0769 20.0111 21.0769 21.6589V24.4686C21.0769 27.3673 24.52 28.398 24.52 30.0452V33.5517C24.52 33.996 24.2561 34.1224 23.9918 34.1224C23.7065 34.1224 23.3581 34.0587 23.3581 33.5417V29.6018H23.3584ZM27.607 19.2299V35.7913H29.8883V27.764H31.0476V35.7913H33.3291V19.2299H31.0476V26.0936H29.8883V19.2299H27.607ZM38.7137 19.2299H34.4699V35.7913H38.7137V34.1209H36.7514V27.764H38.7137V26.0936H36.7514V20.9005H38.7137V19.2299ZM42.9857 27.764V35.7913H40.7042V27.764L38.7793 19.2299H41.0608L42.0324 24.849L43.1307 19.2299H44.821L42.9857 27.764ZM46.8914 19.2299L46.0037 22.5252H44.631L45.3489 19.2299H46.8914ZM49.0459 29.6018H46.7433V33.2567C46.7433 35.5236 47.9828 35.876 49.7219 35.876C51.6017 35.876 52.5735 35.0172 52.5735 33.0033V29.8558C52.5735 27.2575 49.1301 25.9267 49.1301 24.4903V21.2894C49.1301 20.8668 49.3681 20.7664 49.6323 20.7664C49.886 20.7664 50.102 20.8454 50.102 21.2894V24.8068H52.3835V21.49C52.3835 19.7438 51.4328 19.124 49.616 19.124C47.6304 19.124 46.7644 20.0111 46.7644 21.6589V24.4686C46.7644 27.3673 50.2078 28.398 50.2078 30.0452V33.5517C50.2078 33.996 49.9436 34.1224 49.6794 34.1224C49.394 34.1224 49.0457 34.0587 49.0457 33.5417V29.6018H49.0459ZM45.0912 34.408C45.445 34.408 45.7198 34.6905 45.7198 35.0565C45.7198 35.4309 45.445 35.7137 45.0912 35.7137C44.7328 35.7137 44.4586 35.4312 44.4586 35.0565C44.4586 34.6905 44.7328 34.408 45.0912 34.408V34.2953C44.6715 34.2953 44.3194 34.6246 44.3194 35.0565C44.3194 35.4968 44.6715 35.8261 45.0912 35.8261C45.1923 35.8267 45.2926 35.8072 45.3861 35.7687C45.4796 35.7302 45.5645 35.6735 45.6359 35.6019C45.7073 35.5303 45.7637 35.4452 45.802 35.3516C45.8402 35.258 45.8594 35.1577 45.8585 35.0565C45.8585 34.6246 45.5084 34.2953 45.0912 34.2953V34.408Z" fill="#5F4A33"/>
<path fill-rule="evenodd" clip-rule="evenodd" d="M44.9314 34.7252H45.1158C45.2099 34.7252 45.3124 34.7435 45.3124 34.8622C45.3124 35.0037 45.1997 35.01 45.0767 35.01H44.9312V35.1227H45.079L45.3226 35.5073H45.4719L45.2162 35.1121C45.3495 35.0981 45.4513 35.0302 45.4513 34.8685C45.4513 34.6967 45.3509 34.6128 45.1386 34.6128H44.7925V35.5073H44.9312V34.7252H44.9314Z" fill="#5F4A33"/>
</svg>
