<svg xmlns="http://www.w3.org/2000/svg" viewBox="0 0 166.4 166.4" style="enable-background:new 0 0 166.4 166.4" xml:space="preserve"><style>.st2{fill:#020203}.st3{display:none}.st4{display:inline}</style><g id="facebook"><path d="M166.4 78.4v1.2c-.1.2-.1.3 0 .5v6.3c-.1.2-.1.3 0 .5v1.2c-.2 0-.1.2-.1.3 0 .7-.1 1.5-.2 2.2-.2 2.2-.5 4.3-.8 6.5-.5 3-1.2 6-2 8.9-1.9 6.7-4.6 13.1-8.2 19.2-3.3 5.6-7.2 10.8-11.7 15.6-3.3 3.5-6.9 6.6-10.8 9.5-5.1 3.8-10.6 6.9-16.4 9.5-4.6 2-9.4 3.6-14.3 4.7-1.9.4-3.7.8-5.6 1.1V108c0-.6-.1-.5.5-.5h18.4c.3 0 .4-.1.5-.4.4-2.6.8-5.2 1.2-7.9.8-5.1 1.6-10.2 2.4-15.4.1-.4-.1-.4-.4-.4H96.7c-.3 0-.4-.1-.4-.4V67.8c0-1.3.1-2.5.4-3.8.7-3.2 2.4-5.8 5.4-7.5 2.2-1.2 4.6-1.7 7.1-1.7 3.6-.1 7.2 0 10.8 0 .4 0 .4-.1.4-.4V34.8c0-.4-.1-.5-.4-.5-.9-.1-1.7-.2-2.6-.4-2.3-.3-4.7-.6-7-.8-2.1-.2-4.1-.3-6.2-.4-3.7-.1-7.4.1-11 .8-4 .9-7.7 2.4-11.1 4.8-4.8 3.5-7.9 8.1-9.8 13.7-1.4 4.2-1.9 8.6-1.9 13.1v17.8c0 .4-.1.5-.5.5H49.7c-.4 0-.5.1-.5.5V107c0 .4.1.5.5.5h20.1c.6 0 .5-.1.5.5v57.6c-1.9-.3-3.8-.6-5.6-1.1-5.7-1.3-11.2-3.2-16.4-5.6-8.4-3.9-16-9.1-22.7-15.5-3.4-3.2-6.4-6.7-9.2-10.5-4.6-6.2-8.2-12.8-10.9-20-1.6-4.3-2.9-8.6-3.8-13.1-.4-2.1-.8-4.2-1-6.4-.2-1.7-.4-3.4-.4-5 0-.1.1-.3-.1-.3v-1.3h.1l-.1-.1v-5.9c.1-.2.1-.4 0-.6V79c.2 0 .1-.2.1-.3 0-1.1.2-2.2.2-3.2.2-1.9.4-3.7.7-5.6.5-3.9 1.3-7.5 2.4-10.9 3.6-11.9 9.7-22.4 18-31.7 2.3-2.6 4.8-5 7.5-7.3 3-2.5 6.1-4.9 9.4-7C45 8.8 52 5.7 59.4 3.4c3.1-.9 6.3-1.7 9.6-2.3 1.7-.3 3.4-.5 5.2-.7 1.5-.2 3-.3 4.4-.4.1 0 .3.1.3-.1h1.3c.1.1.3.1.4 0h5c.2.1.5.1.7 0h1.3c0 .2.2.1.3.1 1.1 0 2.2.2 3.3.2 2.2.2 4.4.5 6.6.9 3.2.6 6.4 1.3 9.5 2.3 5.9 1.8 11.5 4.2 16.8 7.2 5.8 3.3 11.1 7.2 15.9 11.7 2.9 2.7 5.6 5.6 8 8.7 3.4 4.2 6.3 8.7 8.8 13.5 3.2 6.2 5.7 12.6 7.3 19.4.7 3 1.3 6.1 1.6 9.2.2 1.6.4 3.3.4 5 .1.1 0 .3.3.3z" style="fill:#396db4"/><path d="M70.2 165.4v-57.6c0-.6.1-.5-.5-.5H49.6c-.4 0-.5-.1-.5-.5V83.7c0-.4.1-.5.5-.5h20.2c.4 0 .5-.1.5-.5V64.9c0-4.4.5-8.8 1.9-13.1 1.9-5.6 5-10.2 9.8-13.7 3.3-2.4 7.1-3.9 11.1-4.8 3.6-.8 7.3-1 11-.8 2.1.1 4.1.2 6.2.4 2.3.2 4.7.5 7 .8.9.1 1.7.3 2.6.4.3 0 .4.1.4.5v19.6c0 .3-.1.5-.4.4h-10.8c-2.5 0-4.9.5-7.1 1.7-3 1.6-4.6 4.2-5.4 7.5-.3 1.2-.4 2.5-.4 3.8v15.2c0 .4.1.4.4.4h22.2c.3 0 .5 0 .4.4-.8 5.1-1.6 10.2-2.4 15.4-.4 2.6-.8 5.2-1.2 7.9 0 .3-.2.4-.5.4H96.7c-.6 0-.5-.1-.5.5v57.6c-1.2.2-2.4.4-3.6.5-1.4.2-2.7.3-4.1.4-.1 0-.3-.1-.2.1h-1c-.2-.1-.3-.1-.5 0h-7.5c-.1-.1-.2-.1-.3 0h-1c0-.2-.2-.1-.3-.1-.8-.1-1.5-.1-2.3-.2-1.6-.2-3.4-.4-5.2-.7z" style="fill:#fff"/><path class="st2" d="M86.3 0c-.2.1-.5.1-.7 0h.7zM0 79.9c.1.2.1.4 0 .6v-.6zM166.4 80.1c-.1-.2-.1-.3 0-.5v.5zM166.4 86.8c-.1-.2-.1-.3 0-.5v.5zM86.8 166.4c.2-.1.3-.1.5 0h-.5zM80.5 0c-.1.1-.3.1-.4 0h.4zM79 166.4c.1-.1.2-.1.3 0H79zM0 86.4c0 .1 0 .1 0 0 0 .1 0 .1 0 0 0 .1 0 .1 0 0z"/></g></svg>