<svg version="1.1" id="Capa_1" xmlns="http://www.w3.org/2000/svg" x="0" y="0" viewBox="0 0 491.8 511.5" style="enable-background:new 0 0 491.8 511.5" xml:space="preserve"><style>.st0{fill:#5f4a33}</style><path class="st0" d="M2987.7 5071c-41-27-91-67-113-89l-39-41-66 6c-194 16-397-99-482-272l-32-65-34 21c-166 103-375 151-564 130-101-11-130-25-149-70-10-25-10-43 4-101 36-163 112-302 233-430l83-87-353 5c-251 3-373 1-424-7-190-33-352-173-416-360l-22-66-3-1427-3-1428h-265c-293 0-310-3-334-60-18-44-7-157 24-256 64-200 230-366 441-441l80-28h3810l80 28c211 75 372 235 439 438 33 100 45 214 26 259-24 57-41 60-335 60h-265v1403c0 1201-2 1411-15 1465-43 183-179 328-365 388-48 15-106 18-453 22l-398 4 40 43c171 185 157 500-29 687l-59 58 62 41c78 53 97 75 97 119 0 54-47 100-103 100-13 0-58-22-98-49zm-123-351c61-30 114-83 145-146 20-40 24-64 24-134 0-72-4-92-27-136-32-60-94-119-155-146-57-25-152-27-220-4-66 22-144 94-174 161-32 71-32 181-1 250 37 81 112 147 202 176 45 15 154 4 206-21zm-941-176c81-21 188-74 255-127 47-38 57-51 67-95 16-67 58-153 102-204l35-41-54 7c-254 33-457 174-564 391-20 39-36 77-36 84 0 16 102 8 195-15zm1914-685c107-18 198-88 244-187 21-44 22-65 25-319l3-273h-109c-123 0-126 2-136 69-12 80-59 146-131 184-33 18-62 22-168 25-166 5-205-5-272-72-49-49-75-103-75-154 0-50-6-52-119-52-120 0-131 5-131 60 0 49-43 133-85 165-57 43-107 55-228 55-142 0-179-12-242-75-50-49-75-102-75-156 0-47-9-50-126-47l-109 3-8 54c-13 92-66 164-146 197-49 20-299 19-349-2-77-32-141-120-142-195 0-19-5-40-12-47-17-17-204-16-214 0-5 7-11 37-15 67-10 69-48 125-113 165-45 28-55 30-173 34l-126 5 5 131c4 106 10 142 27 181 29 66 63 109 116 145 87 60 26 58 1490 53 742-3 1364-9 1394-14zm-2832-707c7-5 16-30 19-58 8-61 33-110 76-151 56-54 92-63 242-63 127 0 136 1 186 28 68 35 107 89 124 172l13 65 108 3c118 3 124 0 125-53 0-44 42-127 81-159 58-49 87-56 239-56s181 7 238 55c41 35 71 91 79 152 3 27 10 54 16 61 13 16 188 17 205 0 7-7 12-24 12-39 0-38 26-107 56-146 14-18 47-44 74-58 46-23 60-25 195-25 157 0 186 6 243 55 41 35 71 91 79 152 3 27 10 54 16 61 13 16 208 17 225 0 7-7 12-28 12-48 1-73 61-159 139-197 27-13 68-18 169-21l132-4-2-276-3-277h-3290l-3 405c-1 223 0 411 3 417 5 15 171 18 192 5zm3103-1697V790h-3300v1330h3300v-665zm596-892c-4-16-21-57-38-93-61-126-195-230-336-259-75-16-3669-16-3744 0-141 29-275 133-336 259-17 36-34 77-38 93l-6 27h4504l-6-27z" transform="matrix(.1 0 0 -.1 0 512)"/><path class="st0" d="M1036.7 2014c-35-18-48-43-48-88 0-48 21-69 190-186 126-87 150-100 186-100 58 0 94 37 94 95 0 31-6 49-24 67-45 44-326 228-349 228-12-1-34-7-49-16zM2686.7 2014c-35-18-48-43-48-90 0-42 27-72 224-249 83-75 92-80 133-80 57 0 93 36 93 94 0 49-12 64-167 203-164 148-177 154-235 122zM2062.7 1978c-25-6-57-42-163-181-114-151-131-178-131-211 0-77 98-126 156-78 11 9 76 89 142 178 109 144 122 164 122 201 0 68-57 109-126 91zM3808.7 1970c-36-10-309-200-328-228-52-80 36-180 122-139 46 21 297 195 313 215 7 10 13 36 13 58 0 66-57 111-120 94zM3348.7 1269c-113-49-194-89-207-105-25-27-31-81-13-115 12-21 60-49 85-49 29 0 399 164 423 187 54 54 7 164-70 162-18 0-116-36-218-80zM2658.7 1303c-29-12-335-227-352-247-48-58 1-156 77-156 31 0 65 19 199 111 186 128 206 147 206 194 0 62-77 120-130 98zM1373.7 1200c-112-45-210-91-223-104-26-26-32-79-13-115 12-22 60-51 85-51 8 0 106 36 218 80 220 87 248 105 248 165 0 43-43 93-85 100-22 3-85-17-230-75z" transform="matrix(.1 0 0 -.1 0 512)"/></svg>