<?xml version="1.0" encoding="utf-8"?>
<!-- Generator: Adobe Illustrator 24.0.1, SVG Export Plug-In . SVG Version: 6.00 Build 0)  -->
<svg version="1.1" id="Capa_1" xmlns="http://www.w3.org/2000/svg" xmlns:xlink="http://www.w3.org/1999/xlink" x="0px" y="0px"
	 viewBox="0 0 491.8 511.5" style="enable-background:new 0 0 491.8 511.5;" xml:space="preserve">
<style type="text/css">
	.st0{fill:#5F4A33;}
</style>
<g transform="translate(0.000000,512.000000) scale(0.100000,-0.100000)">
	<path class="st0" d="M2987.7,5071c-41-27-91-67-113-89l-39-41l-66,6c-194,16-397-99-482-272l-32-65l-34,21
		c-166,103-375,151-564,130c-101-11-130-25-149-70c-10-25-10-43,4-101c36-163,112-302,233-430l83-87l-353,5c-251,3-373,1-424-7
		c-190-33-352-173-416-360l-22-66l-3-1427l-3-1428h-265c-293,0-310-3-334-60c-18-44-7-157,24-256c64-200,230-366,441-441l80-28h1905
		h1905l80,28c211,75,372,235,439,438c33,100,45,214,26,259c-24,57-41,60-335,60h-265v1403c0,1201-2,1411-15,1465
		c-43,183-179,328-365,388c-48,15-106,18-453,22l-398,4l40,43c171,185,157,500-29,687l-59,58l62,41c78,53,97,75,97,119
		c0,54-47,100-103,100C3072.7,5120,3027.7,5098,2987.7,5071z M2864.7,4720c61-30,114-83,145-146c20-40,24-64,24-134
		c0-72-4-92-27-136c-32-60-94-119-155-146c-57-25-152-27-220-4c-66,22-144,94-174,161c-32,71-32,181-1,250c37,81,112,147,202,176
		C2703.7,4756,2812.7,4745,2864.7,4720z M1923.7,4544c81-21,188-74,255-127c47-38,57-51,67-95c16-67,58-153,102-204l35-41l-54,7
		c-254,33-457,174-564,391c-20,39-36,77-36,84C1728.7,4575,1830.7,4567,1923.7,4544z M3837.7,3859c107-18,198-88,244-187
		c21-44,22-65,25-319l3-273h-109c-123,0-126,2-136,69c-12,80-59,146-131,184c-33,18-62,22-168,25c-166,5-205-5-272-72
		c-49-49-75-103-75-154c0-50-6-52-119-52c-120,0-131,5-131,60c0,49-43,133-85,165c-57,43-107,55-228,55c-142,0-179-12-242-75
		c-50-49-75-102-75-156c0-47-9-50-126-47l-109,3l-8,54c-13,92-66,164-146,197c-49,20-299,19-349-2c-77-32-141-120-142-195
		c0-19-5-40-12-47c-17-17-204-16-214,0c-5,7-11,37-15,67c-10,69-48,125-113,165c-45,28-55,30-173,34l-126,5l5,131
		c4,106,10,142,27,181c29,66,63,109,116,145c87,60,26,58,1490,53C3185.7,3870,3807.7,3864,3837.7,3859z M1005.7,3152
		c7-5,16-30,19-58c8-61,33-110,76-151c56-54,92-63,242-63c127,0,136,1,186,28c68,35,107,89,124,172l13,65l108,3c118,3,124,0,125-53
		c0-44,42-127,81-159c58-49,87-56,239-56s181,7,238,55c41,35,71,91,79,152c3,27,10,54,16,61c13,16,188,17,205,0c7-7,12-24,12-39
		c0-38,26-107,56-146c14-18,47-44,74-58c46-23,60-25,195-25c157,0,186,6,243,55c41,35,71,91,79,152c3,27,10,54,16,61
		c13,16,208,17,225,0c7-7,12-28,12-48c1-73,61-159,139-197c27-13,68-18,169-21l132-4l-2-276l-3-277h-1645h-1645l-3,405
		c-1,223,0,411,3,417C818.7,3162,984.7,3165,1005.7,3152z M4108.7,1455V790h-1650h-1650v665v665h1650h1650V1455z M4704.7,563
		c-4-16-21-57-38-93c-61-126-195-230-336-259c-75-16-3669-16-3744,0c-141,29-275,133-336,259c-17,36-34,77-38,93l-6,27h2252h2252
		L4704.7,563z"/>
	<path class="st0" d="M1036.7,2014c-35-18-48-43-48-88c0-48,21-69,190-186c126-87,150-100,186-100c58,0,94,37,94,95c0,31-6,49-24,67
		c-45,44-326,228-349,228C1073.7,2029,1051.7,2023,1036.7,2014z"/>
	<path class="st0" d="M2686.7,2014c-35-18-48-43-48-90c0-42,27-72,224-249c83-75,92-80,133-80c57,0,93,36,93,94c0,49-12,64-167,203
		C2757.7,2040,2744.7,2046,2686.7,2014z"/>
	<path class="st0" d="M2062.7,1978c-25-6-57-42-163-181c-114-151-131-178-131-211c0-77,98-126,156-78c11,9,76,89,142,178
		c109,144,122,164,122,201C2188.7,1955,2131.7,1996,2062.7,1978z"/>
	<path class="st0" d="M3808.7,1970c-36-10-309-200-328-228c-52-80,36-180,122-139c46,21,297,195,313,215c7,10,13,36,13,58
		C3928.7,1942,3871.7,1987,3808.7,1970z"/>
	<path class="st0" d="M3348.7,1269c-113-49-194-89-207-105c-25-27-31-81-13-115c12-21,60-49,85-49c29,0,399,164,423,187
		c54,54,7,164-70,162C3548.7,1349,3450.7,1313,3348.7,1269z"/>
	<path class="st0" d="M2658.7,1303c-29-12-335-227-352-247c-48-58,1-156,77-156c31,0,65,19,199,111c186,128,206,147,206,194
		C2788.7,1267,2711.7,1325,2658.7,1303z"/>
	<path class="st0" d="M1373.7,1200c-112-45-210-91-223-104c-26-26-32-79-13-115c12-22,60-51,85-51c8,0,106,36,218,80
		c220,87,248,105,248,165c0,43-43,93-85,100C1581.7,1278,1518.7,1258,1373.7,1200z"/>
</g>
</svg>
