<?xml version="1.0" standalone="no"?>
<!DOCTYPE svg PUBLIC "-//W3C//DTD SVG 20010904//EN"
 "http://www.w3.org/TR/2001/REC-SVG-20010904/DTD/svg10.dtd">
<svg version="1.0" xmlns="http://www.w3.org/2000/svg"
 width="512.000000pt" height="512.000000pt" viewBox="0 0 512.000000 512.000000"
 preserveAspectRatio="xMidYMid meet">

<g transform="translate(0.000000,512.000000) scale(0.100000,-0.100000)"
fill="#000000" stroke="none">
<path d="M3180 5109 c-412 -48 -805 -249 -1082 -555 -56 -61 -68 -81 -68 -109
0 -37 37 -75 73 -75 12 0 65 45 136 115 134 132 237 213 367 285 256 142 539
209 834 197 346 -14 653 -130 929 -351 74 -59 102 -76 127 -76 36 0 74 37 74
74 0 52 -253 241 -450 335 -293 140 -624 196 -940 160z"/>
<path d="M3103 4774 c-23 -9 -62 -33 -87 -56 -94 -82 -131 -194 -102 -307 74
-287 453 -328 583 -63 37 76 39 181 4 260 -30 66 -113 144 -177 166 -58 20
-165 20 -221 0z m206 -161 c49 -38 66 -71 66 -132 0 -48 -5 -64 -29 -95 -78
-102 -236 -81 -281 38 -20 51 -15 94 15 143 47 78 156 100 229 46z"/>
<path d="M4673 4440 c-24 -10 -43 -39 -43 -67 0 -11 25 -57 56 -103 111 -168
192 -360 236 -564 19 -86 22 -132 22 -311 0 -179 -3 -225 -22 -311 -32 -150
-66 -245 -136 -389 -80 -162 -162 -278 -293 -414 -110 -114 -123 -141 -83
-181 37 -37 81 -27 149 35 225 209 410 522 486 824 122 481 39 977 -232 1389
-63 95 -89 112 -140 92z"/>
<path d="M4037 4379 c-230 -38 -312 -335 -136 -493 114 -103 283 -100 390 7
61 61 84 116 84 207 0 62 -5 84 -27 126 -60 115 -181 175 -311 153z m95 -149
c65 -18 111 -99 94 -165 -4 -14 -21 -42 -39 -62 -28 -29 -42 -36 -83 -40 -154
-15 -210 194 -69 258 47 22 49 22 97 9z"/>
<path d="M1850 4204 c-468 -62 -903 -283 -1238 -627 -91 -94 -102 -110 -102
-141 0 -45 29 -76 70 -76 25 0 45 16 117 91 174 181 353 314 567 419 264 130
500 188 802 197 265 8 450 -18 683 -96 690 -231 1196 -825 1318 -1546 27 -164
25 -498 -5 -655 -29 -158 -73 -298 -137 -448 -30 -70 -55 -132 -55 -138 0 -6
9 -23 21 -38 27 -34 77 -36 107 -3 43 45 133 273 176 445 50 195 60 282 60
522 0 240 -10 327 -59 521 -37 144 -79 259 -150 404 -317 652 -948 1096 -1667
1174 -131 15 -380 12 -508 -5z"/>
<path d="M1823 3650 c-46 -19 -57 -83 -20 -118 19 -18 35 -22 86 -22 52 0 66
4 86 25 14 13 25 31 25 39 0 28 -22 64 -47 75 -28 13 -99 13 -130 1z"/>
<path d="M2541 3554 c-26 -33 -27 -65 -2 -95 14 -18 31 -23 80 -27 73 -5 115
10 131 47 13 33 0 75 -29 90 -11 6 -51 11 -90 11 -63 0 -71 -2 -90 -26z"/>
<path d="M4315 3501 c-73 -18 -142 -78 -172 -150 -54 -129 27 -296 162 -332
50 -14 142 -6 182 15 44 22 93 74 114 121 26 57 25 156 -2 212 -49 101 -174
160 -284 134z m122 -163 c24 -20 42 -70 36 -101 -8 -40 -57 -77 -102 -77 -43
0 -85 33 -95 76 -9 33 21 95 54 112 28 14 84 9 107 -10z"/>
<path d="M1203 3310 c-67 -27 -141 -94 -178 -162 -28 -49 -30 -61 -30 -153 0
-89 3 -106 27 -150 130 -247 483 -245 605 3 24 50 28 69 28 147 0 78 -4 97
-28 146 -32 67 -100 132 -165 162 -69 30 -191 34 -259 7z m200 -146 c69 -35
107 -95 107 -169 0 -122 -107 -205 -235 -181 -40 8 -99 55 -121 97 -17 33 -19
116 -3 156 14 37 57 82 94 99 41 18 120 17 158 -2z"/>
<path d="M348 3231 c-28 -23 -130 -214 -183 -346 -147 -365 -184 -806 -100
-1210 119 -571 479 -1072 992 -1380 479 -288 1080 -369 1633 -219 213 58 466
176 645 302 234 165 515 460 515 540 0 66 -78 96 -123 49 -12 -13 -58 -68
-102 -122 -257 -317 -651 -554 -1075 -648 -435 -97 -872 -44 -1275 153 -531
259 -899 709 -1046 1278 -119 462 -63 944 160 1387 50 99 77 163 74 176 -7 24
-49 59 -73 59 -10 0 -28 -9 -42 -19z"/>
<path d="M3025 3165 c-14 -13 -25 -36 -25 -50 0 -14 11 -37 25 -50 20 -21 34
-25 85 -25 51 0 65 4 85 25 14 13 25 36 25 50 0 14 -11 37 -25 50 -20 21 -34
25 -85 25 -51 0 -65 -4 -85 -25z"/>
<path d="M2323 3150 c-58 -12 -112 -42 -154 -87 -53 -55 -72 -99 -77 -181 -6
-91 14 -148 75 -213 181 -194 497 -70 498 196 0 86 -35 167 -97 219 -62 54
-166 81 -245 66z m131 -168 c42 -24 68 -78 63 -129 -6 -56 -38 -98 -92 -119
-59 -22 -110 -8 -154 41 -27 31 -31 44 -31 90 0 46 4 59 31 90 49 55 115 65
183 27z"/>
<path d="M3254 2701 c-97 -44 -156 -135 -156 -241 0 -98 46 -177 131 -224 134
-72 283 -28 356 105 24 44 29 66 29 119 -1 75 -18 121 -65 175 -70 79 -201
108 -295 66z m168 -151 c40 -31 53 -73 39 -121 -27 -89 -140 -105 -198 -29
-32 42 -18 121 28 154 33 22 100 21 131 -4z"/>
<path d="M624 2696 c-48 -22 -60 -80 -24 -116 16 -16 33 -20 79 -20 52 0 62 3
80 26 27 34 26 57 -2 89 -27 32 -88 42 -133 21z"/>
<path d="M1602 2414 c-29 -20 -31 -83 -3 -108 45 -41 158 -28 180 20 16 35 14
47 -10 78 -18 23 -27 26 -83 26 -39 0 -69 -6 -84 -16z"/>
<path d="M853 2306 c-92 -30 -176 -106 -220 -201 -24 -52 -28 -72 -28 -150 0
-82 3 -97 32 -156 39 -79 102 -140 181 -177 49 -23 70 -27 152 -27 84 0 102 3
152 28 74 36 139 101 175 175 39 80 45 201 13 285 -33 88 -93 155 -174 197
-61 31 -79 35 -155 37 -51 2 -103 -3 -128 -11z m238 -170 c132 -88 121 -293
-20 -370 -145 -78 -320 24 -321 187 -1 175 194 280 341 183z"/>
<path d="M2110 2207 c-48 -15 -126 -95 -139 -143 -26 -93 -4 -180 60 -241 121
-115 319 -68 378 90 17 43 13 127 -8 172 -23 51 -89 111 -138 124 -47 13 -107
12 -153 -2z m134 -158 c56 -44 21 -139 -53 -139 -74 0 -109 83 -56 135 30 31
73 32 109 4z"/>
<path d="M2816 2119 c-34 -27 -36 -77 -3 -107 17 -16 36 -22 69 -22 62 0 92
25 92 75 0 27 -6 43 -23 56 -32 26 -100 25 -135 -2z"/>
<path d="M3113 1828 c-115 -17 -212 -89 -265 -196 -30 -60 -33 -75 -33 -157 0
-77 4 -98 26 -145 37 -78 87 -131 161 -171 60 -32 68 -34 163 -34 87 0 107 3
157 27 109 51 179 146 201 274 10 55 9 76 -6 132 -19 73 -63 149 -109 188 -79
66 -192 97 -295 82z m167 -176 c63 -38 103 -116 97 -189 -15 -201 -274 -268
-385 -101 -23 36 -27 52 -27 114 0 64 3 77 30 115 68 97 183 121 285 61z"/>
<path d="M1467 1426 c-64 -24 -113 -64 -143 -119 -53 -95 -35 -213 42 -291 50
-49 102 -70 174 -70 143 0 244 101 244 244 0 74 -20 125 -69 175 -64 63 -171
90 -248 61z m122 -150 c67 -35 65 -143 -4 -174 -44 -20 -75 -14 -111 22 -46
46 -46 86 0 132 37 37 70 43 115 20z"/>
<path d="M750 1340 c-30 -30 -27 -83 6 -109 59 -47 154 -13 154 55 0 50 -29
74 -90 74 -37 0 -55 -5 -70 -20z"/>
<path d="M2351 1199 c-147 -29 -245 -146 -245 -294 0 -119 60 -216 169 -273
42 -22 63 -26 130 -26 67 0 88 4 130 26 195 102 230 355 69 497 -67 58 -168
87 -253 70z m115 -158 c58 -27 88 -72 89 -137 0 -89 -60 -149 -150 -149 -58 0
-91 18 -129 69 -30 40 -29 120 3 165 24 34 90 71 126 71 11 0 38 -9 61 -19z"/>
<path d="M3000 943 c-51 -19 -68 -85 -30 -123 16 -16 33 -20 79 -20 52 0 62 3
80 26 34 43 26 86 -20 109 -28 15 -80 18 -109 8z"/>
<path d="M1626 639 c-19 -15 -26 -30 -26 -54 0 -51 37 -75 115 -75 80 0 109
20 109 75 0 55 -29 75 -109 75 -48 0 -68 -5 -89 -21z"/>
</g>
</svg>
