<?xml version="1.0" encoding="utf-8"?>
<!-- Generator: Adobe Illustrator 24.0.1, SVG Export Plug-In . SVG Version: 6.00 Build 0)  -->
<svg version="1.1" id="Capa_1" xmlns="http://www.w3.org/2000/svg" xmlns:xlink="http://www.w3.org/1999/xlink" x="0px" y="0px"
	 viewBox="0 0 97.8 100.5" style="enable-background:new 0 0 97.8 100.5;" xml:space="preserve">
<style type="text/css">
	.st0{clip-path:url(#SVGID_2_);}
	.st1{fill:#5F4A33;stroke:#5F4A33;stroke-miterlimit:10;}
</style>
<g>
	<defs>
		<rect id="SVGID_1_" x="0.1" y="0.5" width="97.6" height="99.5"/>
	</defs>
	<clipPath id="SVGID_2_">
		<use xlink:href="#SVGID_1_"  style="overflow:visible;"/>
	</clipPath>
	<g class="st0">
		<path class="st1" d="M60.7,0.7c-7.9,0.9-15.3,4.8-20.6,10.8c-1.1,1.2-1.3,1.6-1.3,2.1c0,0.7,0.7,1.5,1.4,1.5
			c0.2,0,1.2-0.9,2.6-2.2c2.6-2.6,4.5-4.1,7-5.5C54.6,4.5,60,3.2,65.7,3.5c6.6,0.3,12.4,2.5,17.7,6.8c1.4,1.1,1.9,1.5,2.4,1.5
			c0.7,0,1.4-0.7,1.4-1.4c0-1-4.8-4.7-8.6-6.5C73,1.1,66.7,0,60.7,0.7z"/>
		<path class="st1" d="M59.2,7.2c-0.4,0.2-1.2,0.6-1.7,1.1c-1.8,1.6-2.5,3.8-1.9,6c1.4,5.6,8.6,6.4,11.1,1.2
			c0.7-1.5,0.7-3.5,0.1-5.1c-0.6-1.3-2.2-2.8-3.4-3.2C62.3,6.8,60.3,6.8,59.2,7.2z M63.2,10.4c0.9,0.7,1.3,1.4,1.3,2.6
			c0,0.9-0.1,1.2-0.6,1.8c-1.5,2-4.5,1.6-5.4-0.7c-0.4-1-0.3-1.8,0.3-2.8C59.7,9.7,61.8,9.3,63.2,10.4z"/>
		<path class="st1" d="M89.1,13.7c-0.5,0.2-0.8,0.8-0.8,1.3c0,0.2,0.5,1.1,1.1,2c2.1,3.3,3.7,7,4.5,11c0.4,1.7,0.4,2.6,0.4,6
			s-0.1,4.4-0.4,6c-0.6,2.9-1.3,4.8-2.6,7.6c-1.5,3.1-3.1,5.4-5.6,8c-2.1,2.2-2.3,2.7-1.6,3.5c0.7,0.7,1.5,0.5,2.8-0.7
			c4.3-4.1,7.8-10.1,9.3-16c2.3-9.4,0.7-19-4.4-27C90.6,13.7,90.1,13.3,89.1,13.7z"/>
		<path class="st1" d="M77,14.9c-4.4,0.7-5.9,6.5-2.6,9.6c2.2,2,5.4,1.9,7.4-0.1c1.2-1.2,1.6-2.3,1.6-4c0-1.2-0.1-1.6-0.5-2.4
			C81.8,15.6,79.5,14.5,77,14.9z M78.8,17.8c1.2,0.3,2.1,1.9,1.8,3.2c-0.1,0.3-0.4,0.8-0.7,1.2c-0.5,0.6-0.8,0.7-1.6,0.8
			c-2.9,0.3-4-3.8-1.3-5C77.9,17.5,77.9,17.5,78.8,17.8z"/>
		<path class="st1" d="M35.4,18.3c-8.9,1.2-17.2,5.5-23.6,12.2c-1.7,1.8-1.9,2.1-1.9,2.7c0,0.9,0.6,1.5,1.3,1.5
			c0.5,0,0.9-0.3,2.2-1.8c3.3-3.5,6.7-6.1,10.8-8.1c5-2.5,9.5-3.7,15.3-3.8c5-0.2,8.6,0.3,13,1.9c13.1,4.5,22.8,16,25.1,30.1
			c0.5,3.2,0.5,9.7-0.1,12.7c-0.6,3.1-1.4,5.8-2.6,8.7c-0.6,1.4-1,2.6-1,2.7s0.2,0.4,0.4,0.7c0.5,0.7,1.5,0.7,2,0.1
			c0.8-0.9,2.5-5.3,3.4-8.7c1-3.8,1.1-5.5,1.1-10.1c0-4.7-0.2-6.4-1.1-10.1c-0.7-2.8-1.5-5-2.9-7.9c-6-12.7-18.1-21.3-31.8-22.8
			C42.5,17.9,37.8,18,35.4,18.3z"/>
		<path class="st1" d="M34.8,29.1c-0.9,0.4-1.1,1.6-0.4,2.3c0.4,0.3,0.7,0.4,1.6,0.4c1,0,1.3-0.1,1.6-0.5c0.3-0.3,0.5-0.6,0.5-0.8
			c0-0.5-0.4-1.2-0.9-1.5C36.8,28.8,35.4,28.8,34.8,29.1z"/>
		<path class="st1" d="M48.5,30.9c-0.5,0.6-0.5,1.3,0,1.8c0.3,0.3,0.6,0.4,1.5,0.5c1.4,0.1,2.2-0.2,2.5-0.9c0.2-0.6,0-1.5-0.6-1.7
			c-0.2-0.1-1-0.2-1.7-0.2C49,30.4,48.9,30.5,48.5,30.9z"/>
		<path class="st1" d="M82.3,32c-1.4,0.3-2.7,1.5-3.3,2.9c-1,2.5,0.5,5.8,3.1,6.5c1,0.3,2.7,0.1,3.5-0.3c0.8-0.4,1.8-1.4,2.2-2.4
			c0.5-1.1,0.5-3,0-4.1C86.8,32.6,84.4,31.5,82.3,32z M84.6,35.1c0.5,0.4,0.8,1.4,0.7,2c-0.2,0.8-1.1,1.5-1.9,1.5
			c-0.8,0-1.6-0.6-1.8-1.5c-0.2-0.6,0.4-1.8,1-2.2C83.1,34.7,84.2,34.8,84.6,35.1z"/>
		<path class="st1" d="M23,35.7c-1.3,0.5-2.7,1.8-3.4,3.1c-0.5,1-0.6,1.2-0.6,3c0,1.7,0.1,2.1,0.5,2.9c2.5,4.8,9.2,4.8,11.5-0.1
			c0.5-1,0.5-1.3,0.5-2.9c0-1.5-0.1-1.9-0.5-2.8c-0.6-1.3-1.9-2.6-3.1-3.1C26.6,35.2,24.3,35.2,23,35.7z M26.8,38.5
			c1.3,0.7,2,1.8,2,3.3c0,2.4-2,4-4.5,3.5c-0.8-0.2-1.9-1.1-2.3-1.9c-0.3-0.6-0.4-2.3-0.1-3c0.3-0.7,1.1-1.6,1.8-1.9
			C24.6,38.1,26.1,38.2,26.8,38.5z"/>
		<path class="st1" d="M6.7,37.2c-0.5,0.4-2.5,4.2-3.5,6.7C0.4,51-0.3,59.6,1.3,67.5c2.3,11.1,9.1,20.8,18.9,26.8
			c9.1,5.6,20.6,7.2,31.1,4.3c4.1-1.1,8.9-3.4,12.3-5.9c4.5-3.2,9.8-8.9,9.8-10.5c0-1.3-1.5-1.9-2.3-1c-0.2,0.3-1.1,1.3-1.9,2.4
			c-4.9,6.2-12.4,10.8-20.5,12.6c-8.3,1.9-16.6,0.9-24.3-3c-10.1-5-17.1-13.8-19.9-24.8c-2.3-9-1.2-18.4,3-27c1-1.9,1.5-3.2,1.4-3.4
			c-0.1-0.5-0.9-1.1-1.4-1.1C7.3,36.9,7,37,6.7,37.2z"/>
		<path class="st1" d="M57.7,38.5c-0.3,0.3-0.5,0.7-0.5,1c0,0.3,0.2,0.7,0.5,1c0.4,0.4,0.6,0.5,1.6,0.5c1,0,1.2-0.1,1.6-0.5
			c0.3-0.3,0.5-0.7,0.5-1c0-0.3-0.2-0.7-0.5-1c-0.4-0.4-0.6-0.5-1.6-0.5C58.4,38,58.1,38.1,57.7,38.5z"/>
		<path class="st1" d="M44.4,38.8c-1.1,0.2-2.1,0.8-2.9,1.7c-1,1.1-1.4,1.9-1.5,3.5c-0.1,1.8,0.3,2.9,1.4,4.1
			c3.4,3.8,9.5,1.4,9.5-3.8c0-1.7-0.7-3.2-1.8-4.3C47.9,39,45.9,38.5,44.4,38.8z M46.9,42.1c0.8,0.5,1.3,1.5,1.2,2.5
			c-0.1,1.1-0.7,1.9-1.8,2.3c-1.1,0.4-2.1,0.2-2.9-0.8c-0.5-0.6-0.6-0.9-0.6-1.7c0-0.9,0.1-1.1,0.6-1.7
			C44.3,41.5,45.6,41.3,46.9,42.1z"/>
		<path class="st1" d="M62.1,47.5c-1.8,0.9-3,2.6-3,4.7c0,1.9,0.9,3.4,2.5,4.4c2.6,1.4,5.4,0.5,6.8-2c0.5-0.9,0.6-1.3,0.6-2.3
			c0-1.5-0.3-2.4-1.2-3.4C66.4,47.3,63.9,46.7,62.1,47.5z M65.3,50.5c0.8,0.6,1,1.4,0.7,2.4c-0.5,1.7-2.7,2-3.8,0.6
			c-0.6-0.8-0.3-2.4,0.5-3C63.4,50,64.7,50,65.3,50.5z"/>
		<path class="st1" d="M12,47.6c-0.9,0.4-1.1,1.6-0.5,2.3c0.3,0.3,0.6,0.4,1.5,0.4c1,0,1.2-0.1,1.5-0.5c0.5-0.7,0.5-1.1,0-1.7
			C14,47.4,12.9,47.2,12,47.6z"/>
		<path class="st1" d="M30.6,53.1c-0.6,0.4-0.6,1.6-0.1,2.1c0.9,0.8,3,0.5,3.4-0.4c0.3-0.7,0.3-0.9-0.2-1.5
			c-0.3-0.4-0.5-0.5-1.6-0.5C31.5,52.8,30.9,52.9,30.6,53.1z"/>
		<path class="st1" d="M16.4,55.2c-1.8,0.6-3.4,2.1-4.2,3.9c-0.5,1-0.5,1.4-0.5,2.9c0,1.6,0.1,1.9,0.6,3c0.7,1.5,1.9,2.7,3.4,3.4
			C16.6,69,17,69,18.6,69c1.6,0,1.9-0.1,2.9-0.5c1.4-0.7,2.6-2,3.3-3.4c0.7-1.6,0.9-3.9,0.2-5.5c-0.6-1.7-1.8-3-3.3-3.8
			c-1.2-0.6-1.5-0.7-3-0.7C17.8,55,16.8,55,16.4,55.2z M20.9,58.5c2.5,1.7,2.3,5.7-0.4,7.2c-2.8,1.5-6.1-0.5-6.1-3.6
			C14.4,58.7,18.1,56.6,20.9,58.5z"/>
		<path class="st1" d="M40.3,57.1c-0.9,0.3-2.4,1.8-2.6,2.8c-0.5,1.8-0.1,3.5,1.1,4.7c2.3,2.2,6.1,1.3,7.2-1.7
			c0.3-0.8,0.2-2.5-0.2-3.3c-0.4-1-1.7-2.2-2.6-2.4C42.3,56.8,41.2,56.9,40.3,57.1z M42.9,60.2c1.1,0.9,0.4,2.7-1,2.7
			c-1.4,0-2.1-1.6-1.1-2.6C41.4,59.7,42.2,59.7,42.9,60.2z"/>
		<path class="st1" d="M53.8,58.8c-0.6,0.5-0.7,1.5-0.1,2.1c0.3,0.3,0.7,0.4,1.3,0.4c1.2,0,1.8-0.5,1.8-1.5c0-0.5-0.1-0.8-0.4-1.1
			C55.7,58.3,54.4,58.3,53.8,58.8z"/>
		<path class="st1" d="M59.4,64.5c-2.2,0.3-4,1.7-5,3.8c-0.6,1.2-0.6,1.5-0.6,3.1c0,1.5,0.1,1.9,0.5,2.8c0.7,1.5,1.7,2.5,3.1,3.3
			c1.1,0.6,1.3,0.7,3.1,0.7c1.7,0,2-0.1,3-0.5c2.1-1,3.4-2.8,3.8-5.3c0.2-1.1,0.2-1.5-0.1-2.6c-0.4-1.4-1.2-2.9-2.1-3.7
			C63.5,64.8,61.4,64.2,59.4,64.5z M62.6,67.9c1.2,0.7,2,2.3,1.8,3.7c-0.3,3.9-5.2,5.2-7.3,2c-0.4-0.7-0.5-1-0.5-2.2
			c0-1.2,0.1-1.5,0.6-2.2C58.5,67.2,60.7,66.8,62.6,67.9z"/>
		<path class="st1" d="M28.1,72.3c-1.2,0.5-2.2,1.2-2.7,2.3c-1,1.8-0.7,4.1,0.8,5.7c1,1,1.9,1.4,3.3,1.4c2.7,0,4.6-2,4.6-4.7
			c0-1.4-0.4-2.4-1.3-3.4C31.6,72.3,29.5,71.8,28.1,72.3z M30.4,75.2c1.3,0.7,1.2,2.8-0.1,3.4c-0.8,0.4-1.4,0.3-2.1-0.4
			c-0.9-0.9-0.9-1.7,0-2.6C28.9,74.9,29.5,74.8,30.4,75.2z"/>
		<path class="st1" d="M14.4,74c-0.6,0.6-0.5,1.6,0.1,2.1c1.1,0.9,2.9,0.3,2.9-1.1c0-1-0.6-1.4-1.7-1.4C15,73.6,14.7,73.7,14.4,74z"
			/>
		<path class="st1" d="M44.9,76.7c-2.8,0.6-4.7,2.8-4.7,5.7c0,2.3,1.1,4.2,3.2,5.3c0.8,0.4,1.2,0.5,2.5,0.5c1.3,0,1.7-0.1,2.5-0.5
			c3.7-2,4.4-6.9,1.3-9.7C48.4,77,46.5,76.4,44.9,76.7z M47.1,79.8c1.1,0.5,1.7,1.4,1.7,2.7c0,1.7-1.1,2.9-2.9,2.9
			c-1.1,0-1.7-0.3-2.5-1.3c-0.6-0.8-0.6-2.3,0.1-3.2c0.5-0.7,1.7-1.4,2.4-1.4C46.1,79.4,46.7,79.6,47.1,79.8z"/>
		<path class="st1" d="M57.3,81.7c-1,0.4-1.3,1.7-0.6,2.4c0.3,0.3,0.6,0.4,1.5,0.4c1,0,1.2-0.1,1.5-0.5c0.6-0.8,0.5-1.7-0.4-2.1
			C58.8,81.6,57.8,81.5,57.3,81.7z"/>
		<path class="st1" d="M31.1,87.6c-0.4,0.3-0.5,0.6-0.5,1c0,1,0.7,1.5,2.2,1.5c1.5,0,2.1-0.4,2.1-1.5c0-1.1-0.6-1.5-2.1-1.5
			C31.9,87.2,31.5,87.3,31.1,87.6z"/>
	</g>
</g>
</svg>
