<?xml version="1.0" encoding="utf-8"?>
<!-- Generator: Adobe Illustrator 24.0.1, SVG Export Plug-In . SVG Version: 6.00 Build 0)  -->
<svg version="1.1" id="Capa_1" xmlns="http://www.w3.org/2000/svg" xmlns:xlink="http://www.w3.org/1999/xlink" x="0px" y="0px"
	 viewBox="0 0 478.3 471.9" style="enable-background:new 0 0 478.3 471.9;" xml:space="preserve">
<style type="text/css">
	.st0{fill:#5F4A33;}
</style>
<g transform="translate(0.000000,512.000000) scale(0.100000,-0.100000)">
	<path class="st0" d="M3480.8,5109c-592-97-1172-565-1486-1200l-61-125l-59,40c-133,90-308,163-469,195c-127,26-355,17-476-19
		c-478-142-812-589-912-1220c-22-139-24-497-4-631c84-573,335-1081,687-1391c276-244,554-359,864-357c215,1,385,55,571,178
		c226,151,422,423,524,728c35,104,85,317,85,360c0,24,1,24,148,30c169,6,259,23,423,77c503,167,958,588,1233,1140
		c157,316,224,574,233,900c8,286-27,477-127,686c-59,125-112,205-197,295c-149,158-326,256-548,305
		C3810.8,5122,3590.8,5127,3480.8,5109z M3903.8,4939c35-8,68-18,73-21s-28-45-74-92c-168-176-262-296-365-467
		c-158-261-239-478-309-825c-67-328-180-612-337-847c-72-108-157-221-167-222c-3-1-19,56-36,127c-93,375-287,736-541,1002l-83,88
		l45,97c298,643,854,1094,1450,1179C3618.8,4967,3840.8,4954,3903.8,4939z M4257.8,4766c16-14,8-24-111-146
		c-242-246-411-510-532-831c-48-126-80-244-124-458c-98-469-296-846-611-1162l-109-110l-9,97l-9,97l77,88c229,262,406,587,499,921
		c14,48,38,155,55,238c52,256,108,428,203,618c112,223,234,392,431,593l130,132l46-31C4218.8,4795,4247.8,4774,4257.8,4766z
		 M4431.8,4572c128-191,193-425,193-702c0-890-693-1803-1509-1987c-94-21-331-38-331-23c1,5,21,25,46,44c84,65,300,294,381,404
		c205,276,348,587,418,911c14,66,35,163,47,215c65,301,205,605,399,863c70,94,292,337,308,337C4386.8,4634,4408.8,4606,4431.8,4572z
		 M1137.8,3692c17-511,141-899,425-1331c180-272,266-450,336-694c77-269,104-592,72-866c-9-76-18-142-21-147c-6-10-136-62-142-57
		c-2,3,2,45,9,93c19,132,16,482-6,624c-58,383-180,691-416,1050c-177,270-274,479-339,733c-47,178-62,304-68,538l-6,216l49,11
		c27,5,61,10,75,11l26,1L1137.8,3692z M1472.8,3838c172-50,360-164,514-312c164-158,269-305,383-534c156-315,235-654,235-1012
		c0-444-127-822-369-1104c-102-119-96-129-96,161c0,196-4,276-18,362c-66,399-190,703-434,1064c-47,69-118,194-159,276
		c-154,314-218,580-231,953l-6,184l49-7C1367.8,3865,1426.8,3851,1472.8,3838z M827.8,3597c15-509,144-892,453-1350
		c315-468,440-991,373-1566c-16-135-14-134-176-118c-692,70-1280,871-1319,1800c-27,613,212,1161,606,1394c25,15,48,27,51,27
		S824.8,3700,827.8,3597z"/>
	<path class="st0" d="M2809.8,4369c-17-9-59-41-93-73c-47-44-62-64-62-86c0-32,48-86,77-86c26,0,69,30,136,92c45,42,57,60,57,83
		c-1,34-15,56-47,73C2850.8,4387,2846.8,4387,2809.8,4369z"/>
	<path class="st0" d="M2505.8,4068c-62-52-221-315-221-364c0-33,16-56,49-70c44-18,78,3,119,75c19,33,68,110,108,171
		c89,132,93,167,27,202C2555.8,4100,2539.8,4097,2505.8,4068z"/>
	<path class="st0" d="M696.8,1371c-36-38-28-75,28-150c77-102,114-118,166-74c44,38,37,73-30,160c-32,42-64,78-73,81
		C755.8,1401,717.8,1393,696.8,1371z"/>
	<path class="st0" d="M980.8,1073c-20-16-26-29-26-59c0-36,5-44,60-90c67-55,149-112,229-160c66-38,112-40,140-4c44,55,24,91-86,160
		c-43,26-115,76-161,111c-46,35-94,63-106,63C1017.8,1094,995.8,1085,980.8,1073z"/>
</g>
</svg>
