<?xml version="1.0" standalone="no"?>
<!DOCTYPE svg PUBLIC "-//W3C//DTD SVG 20010904//EN"
 "http://www.w3.org/TR/2001/REC-SVG-20010904/DTD/svg10.dtd">
<svg version="1.0" xmlns="http://www.w3.org/2000/svg"
 width="512.000000pt" height="512.000000pt" viewBox="0 0 512.000000 512.000000"
 preserveAspectRatio="xMidYMid meet">

<g transform="translate(0.000000,512.000000) scale(0.100000,-0.100000)"
fill="#000000" stroke="none">
<path d="M3646 4945 c-592 -97 -1172 -565 -1486 -1200 l-61 -125 -59 40 c-133
90 -308 163 -469 195 -127 26 -355 17 -476 -19 -478 -142 -812 -589 -912
-1220 -22 -139 -24 -497 -4 -631 84 -573 335 -1081 687 -1391 276 -244 554
-359 864 -357 215 1 385 55 571 178 226 151 422 423 524 728 35 104 85 317 85
360 0 24 1 24 148 30 169 6 259 23 423 77 503 167 958 588 1233 1140 157 316
224 574 233 900 8 286 -27 477 -127 686 -59 125 -112 205 -197 295 -149 158
-326 256 -548 305 -99 22 -319 27 -429 9z m423 -170 c35 -8 68 -18 73 -21 5
-3 -28 -45 -74 -92 -168 -176 -262 -296 -365 -467 -158 -261 -239 -478 -309
-825 -67 -328 -180 -612 -337 -847 -72 -108 -157 -221 -167 -222 -3 -1 -19 56
-36 127 -93 375 -287 736 -541 1002 l-83 88 45 97 c298 643 854 1094 1450
1179 59 9 281 -4 344 -19z m354 -173 c16 -14 8 -24 -111 -146 -242 -246 -411
-510 -532 -831 -48 -126 -80 -244 -124 -458 -98 -469 -296 -846 -611 -1162
l-109 -110 -9 97 -9 97 77 88 c229 262 406 587 499 921 14 48 38 155 55 238
52 256 108 428 203 618 112 223 234 392 431 593 l130 132 46 -31 c25 -17 54
-38 64 -46z m174 -194 c128 -191 193 -425 193 -702 0 -890 -693 -1803 -1509
-1987 -94 -21 -331 -38 -331 -23 1 5 21 25 46 44 84 65 300 294 381 404 205
276 348 587 418 911 14 66 35 163 47 215 65 301 205 605 399 863 70 94 292
337 308 337 3 0 25 -28 48 -62z m-3294 -880 c17 -511 141 -899 425 -1331 180
-272 266 -450 336 -694 77 -269 104 -592 72 -866 -9 -76 -18 -142 -21 -147 -6
-10 -136 -62 -142 -57 -2 3 2 45 9 93 19 132 16 482 -6 624 -58 383 -180 691
-416 1050 -177 270 -274 479 -339 733 -47 178 -62 304 -68 538 l-6 216 49 11
c27 5 61 10 75 11 l26 1 6 -182z m335 146 c172 -50 360 -164 514 -312 164
-158 269 -305 383 -534 156 -315 235 -654 235 -1012 0 -444 -127 -822 -369
-1104 -102 -119 -96 -129 -96 161 0 196 -4 276 -18 362 -66 399 -190 703 -434
1064 -47 69 -118 194 -159 276 -154 314 -218 580 -231 953 l-6 184 49 -7 c27
-4 86 -18 132 -31z m-645 -241 c15 -509 144 -892 453 -1350 315 -468 440 -991
373 -1566 -16 -135 -14 -134 -176 -118 -692 70 -1280 871 -1319 1800 -27 613
212 1161 606 1394 25 15 48 27 51 27 3 0 9 -84 12 -187z"/>
<path d="M2975 4205 c-17 -9 -59 -41 -93 -73 -47 -44 -62 -64 -62 -86 0 -32
48 -86 77 -86 26 0 69 30 136 92 45 42 57 60 57 83 -1 34 -15 56 -47 73 -27
15 -31 15 -68 -3z"/>
<path d="M2671 3904 c-62 -52 -221 -315 -221 -364 0 -33 16 -56 49 -70 44 -18
78 3 119 75 19 33 68 110 108 171 89 132 93 167 27 202 -32 18 -48 15 -82 -14z"/>
<path d="M862 1207 c-36 -38 -28 -75 28 -150 77 -102 114 -118 166 -74 44 38
37 73 -30 160 -32 42 -64 78 -73 81 -32 13 -70 5 -91 -17z"/>
<path d="M1146 909 c-20 -16 -26 -29 -26 -59 0 -36 5 -44 60 -90 67 -55 149
-112 229 -160 66 -38 112 -40 140 -4 44 55 24 91 -86 160 -43 26 -115 76 -161
111 -46 35 -94 63 -106 63 -13 0 -35 -9 -50 -21z"/>
</g>
</svg>
