<?xml version="1.0" encoding="utf-8"?>
<!-- Generator: Adobe Illustrator 24.0.1, SVG Export Plug-In . SVG Version: 6.00 Build 0)  -->
<svg version="1.1" id="Capa_1" xmlns="http://www.w3.org/2000/svg" xmlns:xlink="http://www.w3.org/1999/xlink" x="0px" y="0px"
	 viewBox="0 0 50.1 16.8" style="enable-background:new 0 0 50.1 16.8;" xml:space="preserve">
<style type="text/css">
	.st0{fill-rule:evenodd;clip-rule:evenodd;fill:#5F4A33;}
</style>
<path class="st0" d="M0,0.1v16.6h2.3v-8h1.2v8h2.3V0.1H3.4V7H2.3V0.1H0z M11.1,0.1H6.9v16.6h4.2V15h-2V8.6h2V7h-2V1.8h2V0.1z
	 M14.4,7H15c0.3,0,0.5-0.2,0.5-0.5V2.3c0-0.3-0.2-0.5-0.4-0.5h-0.7V7z M16.5,7.7c0.2,0.1,1.3,0.5,1.3,1.8v5.2c0,0.9,0.2,1.7,0.3,2
	h-2.3c-0.2-0.4-0.4-1.2-0.4-2.2v-5c0-0.6-0.1-0.9-0.4-0.9h-0.6v8h-2.3V0.1h3.4c1.5,0,2.3,0.8,2.3,2.3v3.2
	C17.8,7.4,16.6,7.6,16.5,7.7z M20.9,10.5h-2.3v3.7c0,2.3,1.2,2.6,3,2.6c1.9,0,2.9-0.9,2.9-2.9v-3.1c0-2.6-3.4-3.9-3.4-5.4V2.2
	c0-0.4,0.2-0.5,0.5-0.5c0.3,0,0.5,0.1,0.5,0.5v3.5h2.3V2.4c0-1.7-1-2.4-2.8-2.4c-2,0-2.9,0.9-2.9,2.5v2.8c0,2.9,3.4,3.9,3.4,5.6v3.5
	c0,0.4-0.3,0.6-0.5,0.6c-0.3,0-0.6-0.1-0.6-0.6L20.9,10.5L20.9,10.5z M25.2,0.1v16.6h2.3v-8h1.2v8h2.3V0.1h-2.3V7h-1.2V0.1H25.2z
	 M36.3,0.1H32v16.6h4.2V15h-2V8.6h2V7h-2V1.8h2V0.1z M40.6,8.6v8h-2.3v-8l-1.9-8.5h2.3l1,5.6l1.1-5.6h1.7L40.6,8.6z M44.5,0.1
	l-0.9,3.3h-1.4l0.7-3.3H44.5z M46.6,10.5h-2.3v3.7c0,2.3,1.2,2.6,3,2.6c1.9,0,2.9-0.9,2.9-2.9v-3.1c0-2.6-3.4-3.9-3.4-5.4V2.2
	c0-0.4,0.2-0.5,0.5-0.5c0.3,0,0.5,0.1,0.5,0.5v3.5H50V2.4C50,0.6,49,0,47.2,0c-2,0-2.9,0.9-2.9,2.5v2.8c0,2.9,3.4,3.9,3.4,5.6v3.5
	c0,0.4-0.3,0.6-0.5,0.6c-0.3,0-0.6-0.1-0.6-0.6L46.6,10.5L46.6,10.5z M42.7,15.3c0.4,0,0.6,0.3,0.6,0.6c0,0.4-0.3,0.7-0.6,0.7
	c-0.4,0-0.6-0.3-0.6-0.7C42,15.6,42.3,15.3,42.7,15.3v-0.1c-0.4,0-0.8,0.3-0.8,0.8c0,0.4,0.4,0.8,0.8,0.8c0.1,0,0.2,0,0.3-0.1
	c0.1,0,0.2-0.1,0.2-0.2c0.1-0.1,0.1-0.2,0.2-0.3c0-0.1,0.1-0.2,0.1-0.3c0-0.4-0.4-0.8-0.8-0.8V15.3z"/>
<path class="st0" d="M42.5,15.6h0.2c0.1,0,0.2,0,0.2,0.1c0,0.1-0.1,0.1-0.2,0.1h-0.1V16h0.1l0.2,0.4H43L42.8,16
	c0.1,0,0.2-0.1,0.2-0.2c0-0.2-0.1-0.3-0.3-0.3h-0.3v0.9h0.1L42.5,15.6L42.5,15.6z"/>
</svg>
