<svg version="1.1" id="Capa_1" xmlns="http://www.w3.org/2000/svg" x="0" y="0" viewBox="0 0 50.1 16.8" style="enable-background:new 0 0 50.1 16.8" xml:space="preserve"><style>.st0{fill-rule:evenodd;clip-rule:evenodd;fill:#5f4a33}</style><path class="st0" d="M0 .1v16.6h2.3v-8h1.2v8h2.3V.1H3.4V7H2.3V.1H0zm11.1 0H6.9v16.6h4.2V15h-2V8.6h2V7h-2V1.8h2V.1zM14.4 7h.6c.3 0 .5-.2.5-.5V2.3c0-.3-.2-.5-.4-.5h-.7V7zm2.1.7c.2.1 1.3.5 1.3 1.8v5.2c0 .9.2 1.7.3 2h-2.3c-.2-.4-.4-1.2-.4-2.2v-5c0-.6-.1-.9-.4-.9h-.6v8h-2.3V.1h3.4c1.5 0 2.3.8 2.3 2.3v3.2c0 1.8-1.2 2-1.3 2.1zm4.4 2.8h-2.3v3.7c0 2.3 1.2 2.6 3 2.6 1.9 0 2.9-.9 2.9-2.9v-3.1c0-2.6-3.4-3.9-3.4-5.4V2.2c0-.4.2-.5.5-.5s.5.1.5.5v3.5h2.3V2.4c0-1.7-1-2.4-2.8-2.4-2 0-2.9.9-2.9 2.5v2.8c0 2.9 3.4 3.9 3.4 5.6v3.5c0 .4-.3.6-.5.6-.3 0-.6-.1-.6-.6l-.1-3.9zM25.2.1v16.6h2.3v-8h1.2v8H31V.1h-2.3V7h-1.2V.1h-2.3zm11.1 0H32v16.6h4.2V15h-2V8.6h2V7h-2V1.8h2V.1zm4.3 8.5v8h-2.3v-8L36.4.1h2.3l1 5.6L40.8.1h1.7l-1.9 8.5zM44.5.1l-.9 3.3h-1.4l.7-3.3h1.6zm2.1 10.4h-2.3v3.7c0 2.3 1.2 2.6 3 2.6 1.9 0 2.9-.9 2.9-2.9v-3.1c0-2.6-3.4-3.9-3.4-5.4V2.2c0-.4.2-.5.5-.5s.5.1.5.5v3.5H50V2.4C50 .6 49 0 47.2 0c-2 0-2.9.9-2.9 2.5v2.8c0 2.9 3.4 3.9 3.4 5.6v3.5c0 .4-.3.6-.5.6-.3 0-.6-.1-.6-.6v-3.9zm-3.9 4.8c.4 0 .6.3.6.6 0 .4-.3.7-.6.7-.4 0-.6-.3-.6-.7-.1-.3.2-.6.6-.6v-.1c-.4 0-.8.3-.8.8 0 .4.4.8.8.8.1 0 .2 0 .3-.1.1 0 .2-.1.2-.2.1-.1.1-.2.2-.3 0-.1.1-.2.1-.3 0-.4-.4-.8-.8-.8v.2z"/><path class="st0" d="M42.5 15.6h.2c.1 0 .2 0 .2.1s-.1.1-.2.1h-.1v.2h.1l.2.4h.1l-.2-.4c.1 0 .2-.1.2-.2 0-.2-.1-.3-.3-.3h-.3v.9h.1v-.8z"/></svg>