<?xml version="1.0" standalone="no"?>
<!DOCTYPE svg PUBLIC "-//W3C//DTD SVG 20010904//EN"
 "http://www.w3.org/TR/2001/REC-SVG-20010904/DTD/svg10.dtd">
<svg version="1.0" xmlns="http://www.w3.org/2000/svg"
 width="512.000000pt" height="512.000000pt" viewBox="0 0 512.000000 512.000000"
 preserveAspectRatio="xMidYMid meet">

<g transform="translate(0.000000,512.000000) scale(0.100000,-0.100000)"
fill="#000000" stroke="none">
<path d="M1283 4935 c-102 -31 -189 -111 -215 -197 l-11 -38 -147 0 c-223 0
-292 -19 -390 -106 -75 -68 -113 -153 -118 -264 l-4 -87 -57 -6 c-124 -11
-246 -101 -304 -224 l-32 -68 0 -1215 0 -1215 24 -60 c33 -83 133 -183 216
-216 59 -24 66 -24 428 -27 l367 -3 0 -337 c0 -358 8 -448 41 -513 32 -63 95
-126 158 -156 l56 -28 1265 0 1265 0 56 28 c63 30 126 93 158 156 33 65 41
155 41 514 l0 337 348 0 c374 0 411 4 496 54 63 37 141 127 168 194 l23 57 0
1215 0 1215 -32 68 c-58 123 -180 213 -304 224 l-57 6 -4 87 c-5 111 -43 196
-118 264 -98 87 -167 106 -390 106 l-147 0 -12 39 c-20 68 -82 135 -158 173
l-68 33 -891 3 c-862 2 -892 2 -915 -17 -32 -26 -32 -86 0 -112 22 -18 58 -19
894 -19 864 0 871 0 914 -21 29 -14 52 -35 68 -63 l25 -43 0 -511 0 -512
-1360 0 -1360 0 0 512 0 511 25 43 c16 28 39 49 68 63 40 19 60 21 269 21 213
0 227 1 252 21 36 28 36 80 0 108 -25 20 -39 21 -258 20 -161 0 -244 -4 -273
-14z m-243 -540 l0 -155 -245 0 -245 0 0 56 c0 129 63 217 175 245 17 4 94 7
173 8 l142 1 0 -155z m3405 128 c81 -43 124 -119 125 -220 l0 -63 -245 0 -245
0 0 156 0 156 163 -4 c141 -3 167 -6 202 -25z m-3403 -704 l3 -271 28 -24 28
-24 1459 0 1459 0 28 24 28 24 3 271 3 271 352 0 c395 0 398 -1 470 -75 71
-73 67 2 67 -1294 0 -1151 -1 -1167 -21 -1211 -27 -60 -64 -98 -124 -126 -50
-24 -53 -24 -397 -24 l-348 0 0 645 0 645 249 0 c236 0 250 1 275 21 33 26 36
79 6 109 -20 20 -33 20 -2050 20 -2017 0 -2030 0 -2050 -20 -30 -30 -27 -83 6
-109 25 -20 39 -21 275 -21 l249 0 0 -645 0 -645 -347 0 c-328 0 -351 2 -393
21 -60 27 -98 64 -126 124 l-24 50 0 1166 c0 1296 -4 1221 67 1294 72 74 75
75 470 75 l352 0 3 -271z m2878 -1755 l0 -586 -51 44 c-92 78 -149 116 -224
147 -189 79 -411 82 -595 8 -118 -48 -171 -89 -380 -294 l-205 -201 -131 128
c-116 113 -141 133 -225 174 -148 73 -284 92 -436 60 -147 -30 -247 -88 -385
-223 l-88 -85 0 707 0 707 1360 0 1360 0 0 -586z m-427 -500 c116 -30 192 -77
314 -197 l114 -111 -3 -411 -3 -412 -29 -37 c-16 -21 -47 -47 -70 -57 -39 -18
-85 -19 -1015 -19 l-975 0 142 144 c147 148 158 167 132 216 -15 28 -61 40
-96 25 -16 -7 -112 -97 -214 -199 l-185 -186 -130 0 c-151 0 -194 14 -241 76
l-29 37 -3 297 -3 296 133 130 c73 71 153 143 178 160 171 115 390 122 569 17
25 -15 99 -78 163 -141 l118 -115 -95 -98 c-103 -106 -111 -126 -74 -173 15
-19 29 -26 56 -26 34 0 57 21 392 353 382 379 399 393 542 431 73 20 236 20
312 0z"/>
<path d="M4431 3915 c-55 -17 -116 -76 -137 -132 -50 -131 41 -279 180 -291
70 -6 120 12 173 61 168 155 2 433 -216 362z m116 -158 c40 -41 9 -117 -48
-117 -65 0 -93 80 -42 120 28 22 66 21 90 -3z"/>
<path d="M4404 3386 c-113 -53 -155 -180 -98 -295 62 -123 221 -157 328 -69
103 85 110 223 17 318 -71 74 -155 89 -247 46z m142 -152 c30 -29 27 -67 -8
-96 -27 -23 -49 -23 -82 3 -32 25 -35 70 -6 99 27 27 66 25 96 -6z"/>
<path d="M1932 2412 c-72 -26 -141 -87 -177 -157 -26 -52 -30 -69 -30 -144 0
-74 4 -94 28 -143 96 -196 358 -239 513 -84 154 155 112 417 -82 512 -74 36
-177 43 -252 16z m193 -155 c112 -63 112 -231 0 -294 -114 -64 -255 17 -255
147 0 130 141 211 255 147z"/>
</g>
</svg>
