<?xml version="1.0" encoding="utf-8"?>
<!-- Generator: Adobe Illustrator 24.0.1, SVG Export Plug-In . SVG Version: 6.00 Build 0)  -->
<svg version="1.1" id="Capa_1" xmlns="http://www.w3.org/2000/svg" xmlns:xlink="http://www.w3.org/1999/xlink" x="0px" y="0px"
	 viewBox="0 0 48 44.9" style="enable-background:new 0 0 48 44.9;" xml:space="preserve">
<style type="text/css">
	.st0{fill:#5F4A33;}
</style>
<g>
	<g>
		<path class="st0" d="M12,0.1c-1,0.3-1.8,1-2,1.9L9.9,2.3H8.5c-2.1,0-2.7,0.2-3.7,1C4.1,4,3.8,4.8,3.7,5.8l0,0.8L3.2,6.7
			C2,6.8,0.8,7.6,0.3,8.8L0,9.4v11.4v11.4l0.2,0.6c0.3,0.8,1.3,1.7,2,2c0.6,0.2,0.6,0.2,4,0.3l3.4,0v3.2c0,3.4,0.1,4.2,0.4,4.8
			c0.3,0.6,0.9,1.2,1.5,1.5l0.5,0.3H24h11.9l0.5-0.3c0.6-0.3,1.2-0.9,1.5-1.5c0.3-0.6,0.4-1.5,0.4-4.8v-3.2h3.3c3.5,0,3.9,0,4.7-0.5
			c0.6-0.3,1.3-1.2,1.6-1.8l0.2-0.5V20.9V9.4l-0.3-0.6c-0.5-1.2-1.7-2-2.9-2.1l-0.5-0.1l0-0.8c0-1-0.4-1.8-1.1-2.5
			c-0.9-0.8-1.6-1-3.7-1h-1.4L38,2c-0.2-0.6-0.8-1.3-1.5-1.6L35.9,0l-8.4,0c-8.1,0-8.4,0-8.6,0.2c-0.3,0.2-0.3,0.8,0,1.1
			c0.2,0.2,0.5,0.2,8.4,0.2c8.1,0,8.2,0,8.6,0.2c0.3,0.1,0.5,0.3,0.6,0.6l0.2,0.4v4.8v4.8H24H11.2V7.4V2.6l0.2-0.4
			c0.2-0.3,0.4-0.5,0.6-0.6c0.4-0.2,0.6-0.2,2.5-0.2c2,0,2.1,0,2.4-0.2c0.3-0.3,0.3-0.8,0-1C16.8,0,16.6,0,14.6,0
			C13.1,0,12.3,0,12,0.1z M9.7,5.2v1.5H7.4H5.1V6.1c0-1.2,0.6-2,1.6-2.3c0.2,0,0.9-0.1,1.6-0.1l1.3,0V5.2z M41.7,4
			c0.8,0.4,1.2,1.1,1.2,2.1v0.6h-2.3h-2.3V5.2V3.7l1.5,0C41.2,3.8,41.4,3.8,41.7,4z M9.7,10.6l0,2.5l0.3,0.2l0.3,0.2H24h13.7
			l0.3-0.2l0.3-0.2l0-2.5l0-2.5h3.3c3.7,0,3.7,0,4.4,0.7c0.7,0.7,0.6,0,0.6,12.2c0,10.8,0,11-0.2,11.4c-0.3,0.6-0.6,0.9-1.2,1.2
			c-0.5,0.2-0.5,0.2-3.7,0.2h-3.3v-6.1v-6.1h2.3c2.2,0,2.4,0,2.6-0.2c0.3-0.2,0.3-0.7,0.1-1c-0.2-0.2-0.3-0.2-19.3-0.2
			s-19.1,0-19.3,0.2c-0.3,0.3-0.3,0.8,0.1,1c0.2,0.2,0.4,0.2,2.6,0.2h2.3v6.1v6.1H6.5c-3.1,0-3.3,0-3.7-0.2
			c-0.6-0.3-0.9-0.6-1.2-1.2l-0.2-0.5v-11C1.4,8.8,1.3,9.5,2,8.8c0.7-0.7,0.7-0.7,4.4-0.7h3.3L9.7,10.6z M36.8,27.1v5.5l-0.5-0.4
			c-0.9-0.7-1.4-1.1-2.1-1.4c-1.8-0.7-3.9-0.8-5.6-0.1c-1.1,0.5-1.6,0.8-3.6,2.8l-1.9,1.9l-1.2-1.2c-1.1-1.1-1.3-1.3-2.1-1.6
			c-1.4-0.7-2.7-0.9-4.1-0.6c-1.4,0.3-2.3,0.8-3.6,2.1l-0.8,0.8v-6.6v-6.6H24h12.8V27.1z M32.8,31.8c1.1,0.3,1.8,0.7,3,1.9l1.1,1
			l0,3.9l0,3.9l-0.3,0.3c-0.2,0.2-0.4,0.4-0.7,0.5c-0.4,0.2-0.8,0.2-9.5,0.2h-9.2l1.3-1.4c1.4-1.4,1.5-1.6,1.2-2
			c-0.1-0.3-0.6-0.4-0.9-0.2c-0.2,0.1-1.1,0.9-2,1.9L15,43.5h-1.2c-1.4,0-1.8-0.1-2.3-0.7l-0.3-0.3l0-2.8l0-2.8l1.3-1.2
			c0.7-0.7,1.4-1.3,1.7-1.5c1.6-1.1,3.7-1.1,5.3-0.2c0.2,0.1,0.9,0.7,1.5,1.3l1.1,1.1l-0.9,0.9c-1,1-1,1.2-0.7,1.6
			c0.1,0.2,0.3,0.2,0.5,0.2c0.3,0,0.5-0.2,3.7-3.3c3.6-3.6,3.8-3.7,5.1-4.1C30.5,31.6,32.1,31.6,32.8,31.8z"/>
		<path class="st0" d="M41.6,9.7c-0.5,0.2-1.1,0.7-1.3,1.2c-0.5,1.2,0.4,2.6,1.7,2.7c0.7,0.1,1.1-0.1,1.6-0.6
			C45.2,11.7,43.7,9.1,41.6,9.7z M42.7,11.2c0.4,0.4,0.1,1.1-0.5,1.1c-0.6,0-0.9-0.8-0.4-1.1C42.1,11,42.5,11,42.7,11.2z"/>
		<path class="st0" d="M41.4,14.7c-1.1,0.5-1.5,1.7-0.9,2.8c0.6,1.2,2.1,1.5,3.1,0.6c1-0.8,1-2.1,0.2-3C43,14.4,42.2,14.3,41.4,14.7
			z M42.7,16.1c0.3,0.3,0.3,0.6-0.1,0.9c-0.3,0.2-0.5,0.2-0.8,0c-0.3-0.2-0.3-0.7-0.1-0.9C42,15.8,42.4,15.8,42.7,16.1z"/>
		<path class="st0" d="M18.1,23.9c-0.7,0.2-1.3,0.8-1.7,1.5c-0.2,0.5-0.3,0.6-0.3,1.4c0,0.7,0,0.9,0.3,1.3c0.9,1.8,3.4,2.2,4.8,0.8
			c1.4-1.5,1.1-3.9-0.8-4.8C19.8,23.7,18.8,23.6,18.1,23.9z M19.9,25.3c1.1,0.6,1.1,2.2,0,2.8c-1.1,0.6-2.4-0.2-2.4-1.4
			C17.5,25.5,18.9,24.7,19.9,25.3z"/>
	</g>
</g>
</svg>
