<svg version="1.1" id="Capa_1" xmlns="http://www.w3.org/2000/svg" x="0" y="0" viewBox="0 0 48 44.9" style="enable-background:new 0 0 48 44.9" xml:space="preserve"><style>.st0{fill:#5f4a33}</style><path class="st0" d="M12 .1c-1 .3-1.8 1-2 1.9l-.1.3H8.5c-2.1 0-2.7.2-3.7 1-.7.7-1 1.5-1.1 2.5v.8l-.5.1C2 6.8.8 7.6.3 8.8l-.3.6v22.8l.2.6c.3.8 1.3 1.7 2 2 .6.2.6.2 4 .3h3.4v3.2c0 3.4.1 4.2.4 4.8.3.6.9 1.2 1.5 1.5l.5.3h23.9l.5-.3c.6-.3 1.2-.9 1.5-1.5.3-.6.4-1.5.4-4.8v-3.2h3.3c3.5 0 3.9 0 4.7-.5.6-.3 1.3-1.2 1.6-1.8l.2-.5V9.4l-.3-.6c-.5-1.2-1.7-2-2.9-2.1l-.5-.1v-.8c0-1-.4-1.8-1.1-2.5-.9-.8-1.6-1-3.7-1h-1.4L38 2c-.2-.6-.8-1.3-1.5-1.6l-.6-.4h-8.4c-8.1 0-8.4 0-8.6.2-.3.2-.3.8 0 1.1.2.2.5.2 8.4.2 8.1 0 8.2 0 8.6.2.3.1.5.3.6.6l.2.4v9.6H11.2V2.6l.2-.4c.2-.3.4-.5.6-.6.4-.2.6-.2 2.5-.2 2 0 2.1 0 2.4-.2.3-.3.3-.8 0-1-.1-.2-.3-.2-2.3-.2-1.5 0-2.3 0-2.6.1zM9.7 5.2v1.5H5.1v-.6c0-1.2.6-2 1.6-2.3.2 0 .9-.1 1.6-.1h1.3v1.5zm32-1.2c.8.4 1.2 1.1 1.2 2.1v.6h-4.6v-3h1.5c1.4.1 1.6.1 1.9.3zm-32 6.6v2.5l.3.2.3.2h27.4l.3-.2.3-.2v-5h3.3c3.7 0 3.7 0 4.4.7.7.7.6 0 .6 12.2 0 10.8 0 11-.2 11.4-.3.6-.6.9-1.2 1.2-.5.2-.5.2-3.7.2h-3.3V21.6h2.3c2.2 0 2.4 0 2.6-.2.3-.2.3-.7.1-1-.2-.2-.3-.2-19.3-.2s-19.1 0-19.3.2c-.3.3-.3.8.1 1 .2.2.4.2 2.6.2h2.3v12.2H6.5c-3.1 0-3.3 0-3.7-.2-.6-.3-.9-.6-1.2-1.2l-.2-.5v-11c0-12.1-.1-11.4.6-12.1.7-.7.7-.7 4.4-.7h3.3v2.5zm27.1 16.5v5.5l-.5-.4c-.9-.7-1.4-1.1-2.1-1.4-1.8-.7-3.9-.8-5.6-.1-1.1.5-1.6.8-3.6 2.8l-1.9 1.9-1.2-1.2c-1.1-1.1-1.3-1.3-2.1-1.6-1.4-.7-2.7-.9-4.1-.6-1.4.3-2.3.8-3.6 2.1l-.8.8V21.7h25.5v5.4zm-4 4.7c1.1.3 1.8.7 3 1.9l1.1 1v7.8l-.3.3c-.2.2-.4.4-.7.5-.4.2-.8.2-9.5.2h-9.2l1.3-1.4c1.4-1.4 1.5-1.6 1.2-2-.1-.3-.6-.4-.9-.2-.2.1-1.1.9-2 1.9L15 43.5h-1.2c-1.4 0-1.8-.1-2.3-.7l-.3-.3v-5.6l1.3-1.2c.7-.7 1.4-1.3 1.7-1.5 1.6-1.1 3.7-1.1 5.3-.2.2.1.9.7 1.5 1.3l1.1 1.1-.9.9c-1 1-1 1.2-.7 1.6.1.2.3.2.5.2.3 0 .5-.2 3.7-3.3 3.6-3.6 3.8-3.7 5.1-4.1.7-.1 2.3-.1 3 .1z"/><path class="st0" d="M41.6 9.7c-.5.2-1.1.7-1.3 1.2-.5 1.2.4 2.6 1.7 2.7.7.1 1.1-.1 1.6-.6 1.6-1.3.1-3.9-2-3.3zm1.1 1.5c.4.4.1 1.1-.5 1.1s-.9-.8-.4-1.1c.3-.2.7-.2.9 0zM41.4 14.7c-1.1.5-1.5 1.7-.9 2.8.6 1.2 2.1 1.5 3.1.6 1-.8 1-2.1.2-3-.8-.7-1.6-.8-2.4-.4zm1.3 1.4c.3.3.3.6-.1.9-.3.2-.5.2-.8 0-.3-.2-.3-.7-.1-.9.3-.3.7-.3 1 0zM18.1 23.9c-.7.2-1.3.8-1.7 1.5-.2.5-.3.6-.3 1.4 0 .7 0 .9.3 1.3.9 1.8 3.4 2.2 4.8.8 1.4-1.5 1.1-3.9-.8-4.8-.6-.4-1.6-.5-2.3-.2zm1.8 1.4c1.1.6 1.1 2.2 0 2.8-1.1.6-2.4-.2-2.4-1.4s1.4-2 2.4-1.4z"/></svg>