<svg id="instagram" xmlns="http://www.w3.org/2000/svg" xmlns:xlink="http://www.w3.org/1999/xlink" viewBox="0 0 166.38 166.38"><defs><radialGradient id="Degradado_sin_nombre_3" cx="1846.66" cy="-7045.91" r="2731.86" gradientTransform="matrix(.12 -.02 -.01 -.07 -263.69 -285.71)" gradientUnits="userSpaceOnUse"><stop offset="0" stop-color="#ffd578"/><stop offset=".26" stop-color="#ee7137"/><stop offset=".61" stop-color="#bd3282"/><stop offset="1" stop-color="#4a60aa"/></radialGradient><radialGradient id="Degradado_sin_nombre_3-3" cx="1844.16" cy="-7013.18" r="2731.86" xlink:href="#Degradado_sin_nombre_3"/><style>.cls-1{fill:url(#Degradado_sin_nombre_3)}</style></defs><path class="cls-1" d="M83.93 46.91c-1.33 0-2.64.07-3.94.2s-2.57.33-3.83.59-2.49.58-3.7 1L68.91 50l-3.38 1.63-3.18 1.94-3 2.23-2.75 2.5-2.48 2.7-2.23 3-2 3.19-1.63 3.37c-.49 1.15-.92 2.34-1.3 3.55a37.67 37.67 0 0 0-1 3.69c-.26 1.26-.45 2.53-.59 3.83a38.81 38.81 0 0 0 0 7.87A38.12 38.12 0 0 0 47 97c.38 1.2.81 2.39 1.3 3.54l1.63 3.38 2 3.18 2.23 3 2.5 2.74 2.75 2.5 3 2.23 3.18 1.94 3.38 1.63 3.55 1.3 3.7 1A38.53 38.53 0 0 0 80 124c1.31.13 2.63.2 3.94.2a39.37 39.37 0 0 0 3.94-.2 37.65 37.65 0 0 0 3.83-.59l3.7-1 3.55-1.3 3.38-1.63 3.19-1.94 3-2.23 2.75-2.5 2.5-2.74 2.23-3 1.94-3.18 1.63-3.38 1.28-3.51a35.83 35.83 0 0 0 1-3.7l.59-3.83a38.81 38.81 0 0 0 0-7.87 38.08 38.08 0 0 0-.59-3.83 34.38 34.38 0 0 0-1-3.69l-1.31-3.55-1.63-3.38L116 64l-2.23-3-2.5-2.74-2.75-2.5-3-2.23-3.19-1.94L99 50l-3.55-1.3-3.7-1-3.83-.59c-1.31-.13-2.62-.2-3.94-.2zm0 13.34a24.73 24.73 0 0 1 2.6.13l2.52.38 2.44.62 2.33.85L96 63.29l2.08 1.26 2 1.45 1.8 1.63 1.63 1.79 1.45 2 1.26 2.08 1.06 2.22a22.23 22.23 0 0 1 .85 2.33 21.61 21.61 0 0 1 .62 2.43 25.46 25.46 0 0 1 .38 2.52l.13 2.6a24.87 24.87 0 0 1-.13 2.6 23.56 23.56 0 0 1-.38 2.52 24 24 0 0 1-.62 2.43l-.85 2.33-1.06 2.21-1.26 2.09-1.45 1.94-1.63 1.8-1.8 1.63-2 1.45-2.08 1.21-2.21 1.06-2.33.85-2.44.62-2.52.38c-.86.08-1.73.13-2.6.13s-1.74 0-2.6-.13l-2.52-.38c-.83-.17-1.64-.38-2.43-.62l-2.33-.85-2.22-1.06-2.08-1.26-2-1.45-1.72-1.63-1.63-1.8-1.46-1.94-1.26-2.09-1.05-2.21-.85-2.33-.62-2.43-.38-2.52a26.07 26.07 0 0 1 0-5.2 22.82 22.82 0 0 1 .38-2.52c.17-.82.37-1.63.62-2.43l.85-2.33 1.06-2.22 1.26-2.08 1.46-2L66 67.63 67.8 66l2-1.45 2.08-1.26 2.22-1.06a24 24 0 0 1 2.33-.85l2.43-.62a23.56 23.56 0 0 1 2.52-.38 25.15 25.15 0 0 1 2.6-.13zM124.17 35.92h-.92c-.31 0-.61.08-.91.14a8.93 8.93 0 0 0-.89.23c-.29.09-.58.2-.87.32a7.77 7.77 0 0 0-.82.4c-.27.15-.54.31-.79.48s-.5.37-.73.56a8.18 8.18 0 0 0-.68.64q-.32.33-.6.69c-.19.24-.37.5-.54.76s-.32.52-.46.8a8.93 8.93 0 0 0-.37.84c-.11.29-.21.59-.29.88a10.73 10.73 0 0 0-.32 1.83v.65c0 .22 0 .62.05.93a6.89 6.89 0 0 0 .14.91 8.45 8.45 0 0 0 .22.9 8.18 8.18 0 0 0 .32.87 8.09 8.09 0 0 0 .4.84c.15.27.31.53.48.79a7.85 7.85 0 0 0 .56.73 8.07 8.07 0 0 0 .62.68c.23.22.46.42.7.61a6.46 6.46 0 0 0 .75.54 9 9 0 0 0 1.63.84 9.12 9.12 0 0 0 .88.3 8.43 8.43 0 0 0 .9.2 9 9 0 0 0 .91.11h1.57a9.07 9.07 0 0 0 .91-.14 8.93 8.93 0 0 0 .89-.23 9.57 9.57 0 0 0 1.7-.72 9.85 9.85 0 0 0 1.51-1c.24-.2.46-.41.68-.63s.41-.45.6-.69.37-.5.54-.76a8.32 8.32 0 0 0 .83-1.65 7 7 0 0 0 .29-.88 9 9 0 0 0 .21-.9 9.24 9.24 0 0 0 .11-.92v-1.58c0-.31-.07-.61-.13-.92a8.93 8.93 0 0 0-.23-.89 9.25 9.25 0 0 0-.32-.88 9 9 0 0 0-.4-.83c-.14-.27-.31-.53-.48-.79a8 8 0 0 0-.56-.74c-.19-.23-.4-.46-.62-.68s-.45-.42-.69-.61l-.75-.54c-.26-.16-.53-.32-.8-.46s-.56-.26-.84-.38a9.06 9.06 0 0 0-.88-.29 8.82 8.82 0 0 0-.89-.2c-.31-.05-.61-.09-.92-.11s-.43 0-.65 0z"/><path d="M75.93 7.72c-4.21 0-8 0-11.34.06l-9 .25c-2.68.11-5.05.26-7.17.46-1.06.1-2.07.21-3 .33s-1.8.24-2.7.39-1.66.31-2.44.48-1.52.35-2.24.55-1.4.41-2.09.64-1.33.47-2 .72c-1.3.52-2.57 1.1-3.88 1.75-1 .49-1.93 1-2.82 1.53S25.51 16 24.69 16.6a31.62 31.62 0 0 0-2.44 2c-.81.74-1.64 1.55-2.51 2.47-1.09 1.14-2 2.2-2.87 3.24-.42.52-.81 1-1.18 1.56s-.71 1-1 1.56-.64 1.07-.94 1.62-.59 1.14-.86 1.72c-.55 1.18-1.06 2.45-1.58 3.88-.38 1-.72 2.12-1 3.19s-.58 2.26-.82 3.5S9 44 8.78 45.44q-.3 2.45-.48 4.89c-.14 1.8-.25 3.77-.34 6l-.22 7.31-.12 8.91v10.78L7.69 99 8 110.83l.24 4.63.29 3.85q.15 1.55.36 3.09c.13.92.27 1.72.43 2.41.3 1.41.66 2.81 1.08 4.19s.86 2.62 1.37 3.9 1.06 2.47 1.66 3.63 1.25 2.28 2 3.36a38 38 0 0 0 2.19 3.11 35.73 35.73 0 0 0 2.53 2.83 36.56 36.56 0 0 0 2.85 2.55c1 .83 2.05 1.6 3.13 2.33s2 1.28 3 1.85 2 1.07 3.05 1.54 2.1.88 3.21 1.26 2.27.71 3.49 1 2.52.56 3.89.79 2.84.42 4.4.59 3.24.3 5 .42 3.71.21 5.77.28c3.18.12 8 .19 13.56.21h18l17-.24 6.47-.19 4.22-.21c.91-.08 1.8-.16 2.65-.27s1.7-.21 2.52-.35 1.63-.28 2.42-.44 1.55-.35 2.32-.55 1.52-.41 2.27-.65 1.48-.48 2.21-.75 1.47-.57 2.19-.88 1.46-.64 2.19-1c1.12-.54 2-1 2.81-1.43a18.61 18.61 0 0 0 2.15-1.37 22.81 22.81 0 0 0 2.12-1.77c.78-.72 1.66-1.58 2.74-2.67s1.77-1.78 2.46-2.54 1.28-1.43 1.79-2.09a21.87 21.87 0 0 0 1.37-1.94c.41-.65.79-1.33 1.17-2.08.58-1.14 1.1-2.19 1.56-3.2s.86-2 1.23-3 .68-2 .94-3 .51-2.18.72-3.41.37-2.56.52-4 .28-3.15.39-5l.29-6.23.26-7.73.18-8.63.07-9-.16-17.71-.22-7.93-.3-6.81-.36-5.31c-.14-1.48-.28-2.64-.44-3.43s-.35-1.74-.56-2.6-.43-1.67-.67-2.49-.5-1.61-.78-2.4-.56-1.55-.87-2.3-.64-1.48-1-2.19-.7-1.42-1.08-2.1-.78-1.35-1.19-2-.84-1.28-1.29-1.9-.9-1.21-1.39-1.8-1-1.15-1.49-1.7-1.05-1.08-1.59-1.6-1.12-1-1.7-1.5-1.19-.95-1.8-1.4-1.26-.88-1.9-1.3-1.33-.82-2-1.2-1.39-.75-2.11-1.1c-1.18-.57-2.27-1.08-3.35-1.53s-2.13-.85-3.22-1.2-2.25-.64-3.51-.9-2.63-.47-4.18-.65-3.29-.33-5.28-.45-4.22-.22-6.77-.29l-8.66-.2L90 7.81l-14-.08zm7.29 13.33 20.25.11 7.64.15c2.1.06 3.71.13 4.65.21q1.83.15 3.51.39c1.07.14 2.14.33 3.2.55s2 .45 2.91.73 1.82.58 2.67.91 1.66.72 2.45 1.12a25.81 25.81 0 0 1 2.26 1.34 24.42 24.42 0 0 1 2.11 1.56q1 .84 2 1.8a25.77 25.77 0 0 1 1.86 2.08 21.8 21.8 0 0 1 1.6 2.21 23.94 23.94 0 0 1 1.33 2.43 25.67 25.67 0 0 1 1.08 2.72c.33 1 .61 2 .87 3.06s.49 2.31.67 3.48.36 2.57.5 4 .26 2.93.35 4.54c.08 1.3.15 3 .2 5l.15 6.89.1 16.86-.12 16.85-.15 6.87-.2 5c-.14 2.34-.29 4.31-.47 6-.09.86-.19 1.65-.29 2.39s-.22 1.4-.36 2.1-.27 1.26-.44 1.88-.34 1.19-.54 1.78-.42 1.16-.65 1.74-.51 1.2-.79 1.8-.5 1-.78 1.55-.55 1-.86 1.46-.61.93-.94 1.38-.67.87-1 1.29-.73.82-1.12 1.21-.79.77-1.2 1.13-.85.72-1.3 1.05-.91.66-1.39 1-1 .61-1.48.89-1 .55-1.57.81-1.11.5-1.67.73-1.18.46-1.77.66c-1.21.41-2.49.77-3.83 1.09s-2.82.58-4.24.79c-.55.08-1.81.15-3.61.22l-6.87.2-19.47.25H68.09l-8-.09-5.2-.16-3.89-.25c-1.19-.1-2.29-.21-3.33-.33s-2-.27-2.91-.43-1.72-.33-2.57-.53-1.54-.41-2.29-.66-1.43-.51-2.11-.8-1.33-.62-2-1-1.29-.73-1.95-1.14c-.49-.32-1-.63-1.42-1s-.9-.67-1.33-1-.84-.71-1.23-1.09-.77-.75-1.14-1.15-.71-.8-1-1.22-.65-.86-1-1.31-.59-.92-.87-1.4-.54-1-.79-1.48-.49-1.06-.71-1.59-.43-1.11-.63-1.69c-.4-1.17-.74-2.41-1.05-3.73s-.56-2.73-.78-4.23-.39-3.08-.53-4.77c-.11-1.24-.19-3.17-.25-5.62L21 100V77.86l.39-21.15.29-7.45.16-2.46c.06-.66.12-1.15.18-1.44.2-1 .4-1.86.61-2.7s.41-1.57.64-2.35.47-1.43.72-2.08.52-1.25.82-1.86.61-1.16.95-1.71a18.62 18.62 0 0 1 1.12-1.61c.4-.54.83-1.06 1.31-1.59s1-1.07 1.53-1.63 1.32-1.27 2-1.86 1.35-1.08 2.06-1.57A19.11 19.11 0 0 1 36 25.09 21.73 21.73 0 0 1 38.35 24c.82-.32 1.67-.61 2.58-.87s1.92-.5 2.89-.69 2.11-.37 3.27-.52 2.4-.29 3.72-.4c.92-.08 2.5-.15 4.59-.21l7.6-.15L83.22 21z" style="fill:url(#Degradado_sin_nombre_3-3)"/></svg>