<?xml version="1.0" encoding="utf-8"?>
<!-- Generator: Adobe Illustrator 24.0.1, SVG Export Plug-In . SVG Version: 6.00 Build 0)  -->
<svg version="1.1" id="Capa_1" xmlns="http://www.w3.org/2000/svg" xmlns:xlink="http://www.w3.org/1999/xlink" x="0px" y="0px"
	 viewBox="0 0 157.7 114.4" style="enable-background:new 0 0 157.7 114.4;" xml:space="preserve">
<g>
	<path d="M27,52.1c-0.9-0.1-1.9-0.1-2.8-0.2c-4.5-0.4-8.9-1.3-13-3.1C7.4,47,4.1,44.6,2,40.8c-2.8-5.2-2.7-10.4,0.2-15.6
		c2.3-4.2,5.6-7.3,9.6-9.9c1.9-1.2,3.8-2.2,5.9-3c0.9-0.3,1.9-0.6,2.9-0.3c0.2,0.1,0.5,0.2,0.5,0.4c0,0.2-0.1,0.4-0.3,0.6
		c-0.3,0.2-0.6,0.4-0.9,0.6c-2.6,1.5-5.1,3-7.4,5c-3,2.6-5.3,5.7-6.2,9.6c-1.3,6,0.6,11,5.1,15c3.2,2.8,7.1,4.3,11.3,5
		c1.8,0.3,3.6,0.4,5.3,0.6c0.4,0.1,0.6-0.1,0.8-0.5c3.5-7.5,8-14.3,13.3-20.6c3.5-4.2,7.3-8,11.4-11.5C58.6,11.8,64.1,8,70.2,5
		c4.1-2,8.3-3.6,12.8-4.4c3-0.6,6.1-0.8,9.2-0.3c4.6,0.8,7.6,3.7,8.6,8.2c0.6,2.9,0,5.5-1.3,8.1c-1.9,3.7-4.6,6.8-7.5,9.6
		c-6.8,6.5-14.7,11.4-23,15.5c-6.9,3.4-14.1,6.2-21.7,8c-3.5,0.9-7.1,1.5-10.7,1.9c-0.3,0-0.5,0.2-0.6,0.5
		c-1.9,5.1-3.5,10.2-4.5,15.5c-1.3,6.5-1.9,13.1-1.7,19.8c0.1,4.7,0.7,9.3,2.4,13.7c1.3,3.2,3.1,5.9,6.1,7.7
		c2.4,1.4,4.9,1.9,7.6,1.8c5.6-0.3,10.5-2.5,15.2-5.3c7.2-4.3,13.5-9.8,19.5-15.7c7.9-7.9,15.1-16.4,21.5-25.6
		c1.1-1.5,1.4-3.2,1.8-5c0.8-4.6,1.6-9.1,2.7-13.6c1.8-7.9,4.2-15.6,7.1-23.1c0.5-1.3,1-2.6,1.7-3.9c1.4-2.8,3.8-4.6,6.8-5.3
		c0.3-0.1,0.8,0,1,0.2c0.2,0.2,0.1,0.7-0.1,1c-2.5,5.8-4.6,11.8-6.5,17.8c-2.5,7.8-4.7,15.7-6.4,23.8c-0.8,3.7-1.3,7.5-1.9,11.3
		c-0.2,1.2-0.2,2.5-0.1,3.8c0.1-0.2,0.2-0.4,0.3-0.6c2.4-4.2,4.9-8.4,8-12.1c0.7-0.9,1.5-1.8,2.4-2.4c1.7-1.2,3.5-1.2,5.3-0.3
		c1.8,1,2.9,2.5,2.8,4.6c-0.1,3.1-0.4,6.2-0.7,9.3c-0.4,4.5-1,9-0.9,13.5c0,1.9,0.1,3.7,0.8,5.5c0.8,2,2.1,2.6,4.1,2
		c0.7-0.2,1.5-0.6,2.1-1c2.4-1.5,4.3-3.5,6.1-5.6c4.1-4.8,7.5-10.1,10.7-15.6c2.3-4,4.5-8.2,6.7-12.3c0.2-0.3,0.3-0.6,0.5-0.8
		c0.4-0.5,0.9-0.4,1.1,0.2c0.4,0.8,0.3,1.6,0,2.4c-0.3,1-0.7,1.9-1.2,2.9c-3.5,7.4-7.5,14.5-12.4,21.1c-2.3,3.1-4.8,6-7.7,8.4
		c-1.9,1.6-4,2.9-6.5,3.5c-3.2,0.8-5.7-0.3-7.2-3.2c-1.1-2-1.6-4.1-1.9-6.4c-0.8-5.4-0.7-10.9-0.5-16.3c0.1-2.2,0.1-4.4,0.1-6.6
		c0-0.4-0.1-0.8-0.1-1.2c-0.1-0.4-0.3-0.6-0.7-0.3c-0.4,0.4-0.8,0.7-1.2,1.2c-2.6,3.3-4.7,6.9-6.6,10.7c-1.4,2.9-2.7,5.9-4.1,8.9
		c-0.2,0.5-0.4,0.9-0.7,1.3c-0.6,0.7-1.4,0.8-2,0.1c-0.5-0.6-0.9-1.3-1.2-2c-0.9-2.3-1-4.8-1-7.2c0-1.2,0-2.4,0-3.6
		c-0.1,0.1-0.2,0.2-0.3,0.4C95.5,79,87.7,87.8,79,95.8c-4.4,4-8.9,7.8-13.9,11.1c-4.2,2.7-8.5,5.1-13.3,6.5
		c-5.7,1.6-11.3,1.4-16.7-1.1c-5-2.3-8.4-6.4-10.6-11.4c-1.7-3.9-2.7-8-3.1-12.3c-0.4-3.9-0.6-7.9-0.3-11.8
		c0.5-7.7,2.3-15.2,5.1-22.4c0.3-0.7,0.6-1.5,0.9-2.2C27,52.2,27,52.2,27,52.1z M37.4,48.3c0.3,0,0.4,0,0.4,0
		c1.9-0.4,3.8-0.6,5.7-1.1c6.7-1.6,13.2-3.8,19.4-6.7c9.2-4.2,17.9-9.3,25.4-16.1c2.5-2.3,4.7-4.7,6.5-7.6c1.2-2,2.1-4.2,1.9-6.6
		c-0.1-3.1-1.8-5.3-4.8-6C90,3.7,88.1,3.8,86.2,4c-3.6,0.4-7.1,1.5-10.4,3c-7,3.2-13.1,7.7-18.6,13c-6,5.9-11.1,12.5-15.3,19.7
		C40.3,42.6,38.9,45.4,37.4,48.3z"/>
</g>
</svg>
