<svg xmlns="http://www.w3.org/2000/svg" viewBox="0 0 157.7 114.4" style="enable-background:new 0 0 157.7 114.4" xml:space="preserve"><path d="M27 52.1c-.9-.1-1.9-.1-2.8-.2-4.5-.4-8.9-1.3-13-3.1-3.8-1.8-7.1-4.2-9.2-8-2.8-5.2-2.7-10.4.2-15.6 2.3-4.2 5.6-7.3 9.6-9.9 1.9-1.2 3.8-2.2 5.9-3 .9-.3 1.9-.6 2.9-.3.2.1.5.2.5.4s-.1.4-.3.6l-.9.6c-2.6 1.5-5.1 3-7.4 5-3 2.6-5.3 5.7-6.2 9.6-1.3 6 .6 11 5.1 15 3.2 2.8 7.1 4.3 11.3 5 1.8.3 3.6.4 5.3.6.4.1.6-.1.8-.5 3.5-7.5 8-14.3 13.3-20.6 3.5-4.2 7.3-8 11.4-11.5C58.6 11.8 64.1 8 70.2 5 74.3 3 78.5 1.4 83 .6c3-.6 6.1-.8 9.2-.3 4.6.8 7.6 3.7 8.6 8.2.6 2.9 0 5.5-1.3 8.1-1.9 3.7-4.6 6.8-7.5 9.6-6.8 6.5-14.7 11.4-23 15.5-6.9 3.4-14.1 6.2-21.7 8-3.5.9-7.1 1.5-10.7 1.9-.3 0-.5.2-.6.5-1.9 5.1-3.5 10.2-4.5 15.5-1.3 6.5-1.9 13.1-1.7 19.8.1 4.7.7 9.3 2.4 13.7 1.3 3.2 3.1 5.9 6.1 7.7 2.4 1.4 4.9 1.9 7.6 1.8 5.6-.3 10.5-2.5 15.2-5.3 7.2-4.3 13.5-9.8 19.5-15.7 7.9-7.9 15.1-16.4 21.5-25.6 1.1-1.5 1.4-3.2 1.8-5 .8-4.6 1.6-9.1 2.7-13.6 1.8-7.9 4.2-15.6 7.1-23.1.5-1.3 1-2.6 1.7-3.9 1.4-2.8 3.8-4.6 6.8-5.3.3-.1.8 0 1 .2.2.2.1.7-.1 1-2.5 5.8-4.6 11.8-6.5 17.8-2.5 7.8-4.7 15.7-6.4 23.8-.8 3.7-1.3 7.5-1.9 11.3-.2 1.2-.2 2.5-.1 3.8l.3-.6c2.4-4.2 4.9-8.4 8-12.1.7-.9 1.5-1.8 2.4-2.4 1.7-1.2 3.5-1.2 5.3-.3 1.8 1 2.9 2.5 2.8 4.6-.1 3.1-.4 6.2-.7 9.3-.4 4.5-1 9-.9 13.5 0 1.9.1 3.7.8 5.5.8 2 2.1 2.6 4.1 2 .7-.2 1.5-.6 2.1-1 2.4-1.5 4.3-3.5 6.1-5.6 4.1-4.8 7.5-10.1 10.7-15.6 2.3-4 4.5-8.2 6.7-12.3.2-.3.3-.6.5-.8.4-.5.9-.4 1.1.2.4.8.3 1.6 0 2.4-.3 1-.7 1.9-1.2 2.9-3.5 7.4-7.5 14.5-12.4 21.1-2.3 3.1-4.8 6-7.7 8.4-1.9 1.6-4 2.9-6.5 3.5-3.2.8-5.7-.3-7.2-3.2-1.1-2-1.6-4.1-1.9-6.4-.8-5.4-.7-10.9-.5-16.3.1-2.2.1-4.4.1-6.6 0-.4-.1-.8-.1-1.2-.1-.4-.3-.6-.7-.3-.4.4-.8.7-1.2 1.2-2.6 3.3-4.7 6.9-6.6 10.7-1.4 2.9-2.7 5.9-4.1 8.9-.2.5-.4.9-.7 1.3-.6.7-1.4.8-2 .1-.5-.6-.9-1.3-1.2-2-.9-2.3-1-4.8-1-7.2v-3.6c-.1.1-.2.2-.3.4C95.5 79 87.7 87.8 79 95.8c-4.4 4-8.9 7.8-13.9 11.1-4.2 2.7-8.5 5.1-13.3 6.5-5.7 1.6-11.3 1.4-16.7-1.1-5-2.3-8.4-6.4-10.6-11.4-1.7-3.9-2.7-8-3.1-12.3-.4-3.9-.6-7.9-.3-11.8.5-7.7 2.3-15.2 5.1-22.4.3-.7.6-1.5.9-2.2-.1 0-.1 0-.1-.1zm10.4-3.8h.4c1.9-.4 3.8-.6 5.7-1.1 6.7-1.6 13.2-3.8 19.4-6.7 9.2-4.2 17.9-9.3 25.4-16.1 2.5-2.3 4.7-4.7 6.5-7.6 1.2-2 2.1-4.2 1.9-6.6-.1-3.1-1.8-5.3-4.8-6-1.9-.5-3.8-.4-5.7-.2-3.6.4-7.1 1.5-10.4 3-7 3.2-13.1 7.7-18.6 13-6 5.9-11.1 12.5-15.3 19.7-1.6 2.9-3 5.7-4.5 8.6z"/></svg>