<?xml version="1.0" standalone="no"?>
<!DOCTYPE svg PUBLIC "-//W3C//DTD SVG 20010904//EN"
 "http://www.w3.org/TR/2001/REC-SVG-20010904/DTD/svg10.dtd">
<svg version="1.0" xmlns="http://www.w3.org/2000/svg"
 width="512.000000pt" height="512.000000pt" viewBox="0 0 512.000000 512.000000"
 preserveAspectRatio="xMidYMid meet">

<g transform="translate(0.000000,512.000000) scale(0.100000,-0.100000)"
fill="#000000" stroke="none">
<path d="M3552 5034 c-56 -28 -83 -59 -100 -114 -6 -19 -41 -233 -78 -475 -36
-242 -67 -440 -68 -440 -1 0 -58 -56 -128 -124 l-126 -124 -63 23 c-112 39
-210 37 -589 -9 -368 -45 -422 -54 -493 -82 -117 -46 -252 -160 -311 -262 -78
-136 -1219 -2299 -1231 -2334 -8 -24 -15 -80 -15 -124 l0 -80 -158 -247 c-87
-136 -164 -262 -172 -281 -7 -19 -13 -62 -13 -95 1 -144 115 -258 259 -259 33
0 76 6 95 13 19 8 142 84 274 169 l240 155 106 6 105 6 155 81 c84 44 370 195
634 335 264 141 716 380 1005 533 289 153 553 298 588 322 108 77 197 201 236
333 9 30 37 219 62 420 50 400 53 497 17 602 l-19 57 123 123 c68 67 123 128
123 134 0 7 34 17 83 24 45 6 252 38 461 70 353 54 381 60 419 86 77 55 107
156 72 241 -9 21 -70 92 -141 164 l-126 127 31 42 c54 75 63 157 25 234 -23
44 -490 512 -544 544 -78 47 -187 33 -257 -31 l-23 -20 -133 130 c-102 101
-142 133 -172 142 -61 17 -96 13 -153 -15z m270 -221 l138 -138 -166 -348
c-118 -247 -163 -353 -159 -368 9 -28 52 -43 77 -27 10 7 101 186 202 398 149
312 189 388 212 402 33 20 75 23 107 7 31 -16 485 -469 503 -501 31 -60 6
-126 -61 -158 -22 -10 -195 -93 -385 -184 -192 -92 -351 -174 -358 -185 -17
-25 -7 -59 22 -72 19 -9 65 10 302 121 153 73 309 147 345 165 l66 34 142
-143 c123 -125 141 -147 141 -175 0 -34 -45 -91 -72 -91 -7 0 -215 -32 -463
-70 l-450 -69 -278 277 -278 278 71 463 c39 255 75 472 80 482 15 27 40 38 84
39 38 0 47 -7 178 -137z m-12 -1578 l-90 -90 -282 282 -283 283 90 90 90 90
282 -282 283 -283 -90 -90z m-870 449 c71 -21 115 -43 179 -94 l53 -42 -68
-28 c-62 -25 -215 -105 -509 -267 -138 -76 -243 -153 -344 -253 -52 -52 -331
-395 -716 -880 -659 -833 -666 -843 -615 -870 12 -6 32 -9 43 -6 14 4 264 313
647 798 344 435 659 826 702 869 115 117 201 176 463 319 346 189 377 203 443
208 l57 4 84 -85 c121 -123 122 -118 -81 -497 -166 -311 -237 -419 -352 -534
-59 -60 -333 -282 -781 -635 -379 -298 -695 -551 -701 -563 -26 -44 25 -96 67
-69 73 45 1419 1120 1481 1182 95 95 181 210 252 337 135 242 260 480 281 535
l22 60 42 -53 c67 -84 94 -147 111 -256 9 -56 4 -116 -35 -442 -25 -207 -52
-400 -60 -427 -30 -107 -100 -208 -189 -274 -39 -30 -1968 -1059 -2306 -1231
-86 -44 -170 -47 -245 -10 -27 14 -50 30 -52 35 -2 6 16 20 40 33 73 38 262
195 265 219 3 24 -29 63 -52 63 -8 0 -60 -36 -117 -81 -110 -86 -169 -123
-210 -133 -23 -5 -39 8 -142 113 -103 105 -117 124 -132 175 -22 75 -14 129
32 221 103 203 1188 2243 1212 2279 66 94 176 172 284 200 97 26 762 106 832
100 33 -3 85 -12 115 -20z m-2352 -3096 c100 -100 182 -183 182 -184 0 -1 -99
-66 -221 -144 -249 -161 -270 -169 -349 -128 -33 17 -51 35 -68 68 -39 76 -30
105 90 292 58 90 122 189 142 221 20 31 38 57 39 57 1 0 85 -82 185 -182z"/>
<path d="M2612 2677 c-237 -237 -254 -261 -220 -295 35 -35 58 -18 296 221
151 152 232 240 232 253 0 25 -30 54 -56 54 -12 0 -109 -90 -252 -233z"/>
</g>
</svg>
