<?xml version="1.0" encoding="utf-8"?>
<!-- Generator: Adobe Illustrator 24.0.1, SVG Export Plug-In . SVG Version: 6.00 Build 0)  -->
<svg version="1.1" id="Capa_1" xmlns="http://www.w3.org/2000/svg" xmlns:xlink="http://www.w3.org/1999/xlink" x="0px" y="0px"
	 viewBox="0 0 47.5 47.5" style="enable-background:new 0 0 47.5 47.5;" xml:space="preserve">
<style type="text/css">
	.st0{fill:#5F4A33;}
</style>
<g>
	<g>
		<path class="st0" d="M33.3,0.2c-0.5,0.3-0.8,0.6-0.9,1.1c-0.1,0.2-0.4,2.2-0.7,4.5C31.3,8,31,9.9,31,9.9s-0.5,0.5-1.2,1.2
			l-1.2,1.2L28,12c-1.1-0.4-2-0.3-5.5,0.1c-3.5,0.4-4,0.5-4.6,0.8c-1.1,0.4-2.4,1.5-2.9,2.5C14.2,16.6,3.5,37,3.4,37.3
			c-0.1,0.2-0.1,0.8-0.1,1.2v0.8l-1.5,2.3c-0.8,1.3-1.5,2.5-1.6,2.6C0.1,44.3,0,44.7,0,45.1c0,1.4,1.1,2.4,2.4,2.4
			c0.3,0,0.7-0.1,0.9-0.1c0.2-0.1,1.3-0.8,2.6-1.6l2.3-1.5l1-0.1l1-0.1l1.5-0.8c0.8-0.4,3.5-1.8,6-3.1c2.5-1.3,6.7-3.6,9.4-5
			c2.7-1.4,5.2-2.8,5.5-3c1-0.7,1.9-1.9,2.2-3.1c0.1-0.3,0.3-2.1,0.6-3.9c0.5-3.8,0.5-4.7,0.2-5.7L35.3,19l1.2-1.2
			c0.6-0.6,1.2-1.2,1.2-1.3c0-0.1,0.3-0.2,0.8-0.2c0.4-0.1,2.4-0.4,4.3-0.7c3.3-0.5,3.6-0.6,3.9-0.8c0.7-0.5,1-1.5,0.7-2.3
			c-0.1-0.2-0.7-0.9-1.3-1.5l-1.2-1.2l0.3-0.4c0.5-0.7,0.6-1.5,0.2-2.2c-0.2-0.4-4.6-4.8-5.1-5.1c-0.7-0.4-1.8-0.3-2.4,0.3l-0.2,0.2
			l-1.3-1.2c-1-0.9-1.3-1.3-1.6-1.3C34.2-0.1,33.9,0,33.3,0.2z M35.9,2.3l1.3,1.3l-1.6,3.3c-1.1,2.3-1.5,3.3-1.5,3.5
			c0.1,0.3,0.5,0.4,0.7,0.3c0.1-0.1,0.9-1.7,1.9-3.7c1.4-2.9,1.8-3.6,2-3.8c0.3-0.2,0.7-0.2,1-0.1c0.3,0.2,4.6,4.4,4.7,4.7
			c0.3,0.6,0.1,1.2-0.6,1.5c-0.2,0.1-1.8,0.9-3.6,1.7c-1.8,0.9-3.3,1.6-3.4,1.7c-0.2,0.2-0.1,0.6,0.2,0.7c0.2,0.1,0.6-0.1,2.8-1.1
			c1.4-0.7,2.9-1.4,3.2-1.6l0.6-0.3l1.3,1.3c1.2,1.2,1.3,1.4,1.3,1.6c0,0.3-0.4,0.9-0.7,0.9c-0.1,0-2,0.3-4.4,0.7l-4.2,0.6l-2.6-2.6
			L32,10.3l0.7-4.4c0.4-2.4,0.7-4.4,0.8-4.5C33.5,1.1,33.8,1,34.2,1C34.5,1,34.6,1.1,35.9,2.3z M35.7,17.1L34.9,18l-2.7-2.7
			l-2.7-2.7l0.8-0.8l0.8-0.8l2.7,2.7l2.7,2.7L35.7,17.1z M27.6,12.9c0.7,0.2,1.1,0.4,1.7,0.9l0.5,0.4l-0.6,0.3c-0.6,0.2-2,1-4.8,2.5
			c-1.3,0.7-2.3,1.4-3.2,2.4c-0.5,0.5-3.1,3.7-6.7,8.3c-6.2,7.8-6.3,7.9-5.8,8.2c0.1,0.1,0.3,0.1,0.4,0.1c0.1,0,2.5-2.9,6.1-7.5
			c3.2-4.1,6.2-7.8,6.6-8.2c1.1-1.1,1.9-1.7,4.4-3c3.3-1.8,3.5-1.9,4.2-2l0.5,0l0.8,0.8c1.1,1.2,1.1,1.1-0.8,4.7
			c-1.6,2.9-2.2,3.9-3.3,5c-0.6,0.6-3.1,2.7-7.3,6c-3.6,2.8-6.5,5.2-6.6,5.3c-0.2,0.4,0.2,0.9,0.6,0.6c0.7-0.4,13.3-10.5,13.9-11.1
			c0.9-0.9,1.7-2,2.4-3.2c1.3-2.3,2.4-4.5,2.6-5l0.2-0.6l0.4,0.5c0.6,0.8,0.9,1.4,1,2.4c0.1,0.5,0,1.1-0.3,4.2
			c-0.2,1.9-0.5,3.8-0.6,4c-0.3,1-0.9,2-1.8,2.6c-0.4,0.3-18.5,10-21.7,11.6c-0.8,0.4-1.6,0.4-2.3,0.1c-0.3-0.1-0.5-0.3-0.5-0.3
			c0-0.1,0.2-0.2,0.4-0.3c0.7-0.4,2.5-1.8,2.5-2.1s-0.3-0.6-0.5-0.6c-0.1,0-0.6,0.3-1.1,0.8c-1,0.8-1.6,1.2-2,1.3
			c-0.2,0-0.4-0.1-1.3-1.1c-1-1-1.1-1.2-1.2-1.6c-0.2-0.7-0.1-1.2,0.3-2.1c1-1.9,11.2-21.1,11.4-21.4c0.6-0.9,1.7-1.6,2.7-1.9
			c0.9-0.2,7.2-1,7.8-0.9C26.8,12.8,27.3,12.9,27.6,12.9z M5.5,42c0.9,0.9,1.7,1.7,1.7,1.7s-0.9,0.6-2.1,1.4
			c-2.3,1.5-2.5,1.6-3.3,1.2c-0.3-0.2-0.5-0.3-0.6-0.6c-0.4-0.7-0.3-1,0.8-2.7c0.5-0.8,1.1-1.8,1.3-2.1c0.2-0.3,0.4-0.5,0.4-0.5
			C3.7,40.3,4.5,41.1,5.5,42z"/>
		<path class="st0" d="M24.5,22.4c-2.2,2.2-2.4,2.5-2.1,2.8c0.3,0.3,0.5,0.2,2.8-2.1c1.4-1.4,2.2-2.3,2.2-2.4c0-0.2-0.3-0.5-0.5-0.5
			C26.7,20.2,25.8,21,24.5,22.4z"/>
	</g>
</g>
</svg>
