<svg version="1.1" id="Capa_1" xmlns="http://www.w3.org/2000/svg" x="0" y="0" viewBox="0 0 47.5 47.5" style="enable-background:new 0 0 47.5 47.5" xml:space="preserve"><style>.st0{fill:#5f4a33}</style><path class="st0" d="M33.3.2c-.5.3-.8.6-.9 1.1-.1.2-.4 2.2-.7 4.5-.4 2.2-.7 4.1-.7 4.1l-1.2 1.2-1.2 1.2-.6-.3c-1.1-.4-2-.3-5.5.1s-4 .5-4.6.8c-1.1.4-2.4 1.5-2.9 2.5C14.2 16.6 3.5 37 3.4 37.3c-.1.2-.1.8-.1 1.2v.8l-1.5 2.3C1 42.9.3 44.1.2 44.2c-.1.1-.2.5-.2.9 0 1.4 1.1 2.4 2.4 2.4.3 0 .7-.1.9-.1.2-.1 1.3-.8 2.6-1.6l2.3-1.5 1-.1 1-.1 1.5-.8c.8-.4 3.5-1.8 6-3.1s6.7-3.6 9.4-5 5.2-2.8 5.5-3c1-.7 1.9-1.9 2.2-3.1.1-.3.3-2.1.6-3.9.5-3.8.5-4.7.2-5.7l-.3-.5 1.2-1.2c.6-.6 1.2-1.2 1.2-1.3 0-.1.3-.2.8-.2.4-.1 2.4-.4 4.3-.7 3.3-.5 3.6-.6 3.9-.8.7-.5 1-1.5.7-2.3-.1-.2-.7-.9-1.3-1.5l-1.2-1.2.3-.4c.5-.7.6-1.5.2-2.2-.2-.4-4.6-4.8-5.1-5.1-.7-.4-1.8-.3-2.4.3l-.2.2-1.3-1.2C35.4.5 35.1.1 34.8.1c-.6-.2-.9-.1-1.5.1zm2.6 2.1 1.3 1.3-1.6 3.3c-1.1 2.3-1.5 3.3-1.5 3.5.1.3.5.4.7.3.1-.1.9-1.7 1.9-3.7 1.4-2.9 1.8-3.6 2-3.8.3-.2.7-.2 1-.1.3.2 4.6 4.4 4.7 4.7.3.6.1 1.2-.6 1.5-.2.1-1.8.9-3.6 1.7-1.8.9-3.3 1.6-3.4 1.7-.2.2-.1.6.2.7.2.1.6-.1 2.8-1.1 1.4-.7 2.9-1.4 3.2-1.6l.6-.3 1.3 1.3c1.2 1.2 1.3 1.4 1.3 1.6 0 .3-.4.9-.7.9-.1 0-2 .3-4.4.7l-4.2.6-2.6-2.6-2.3-2.6.7-4.4c.4-2.4.7-4.4.8-4.5 0-.3.3-.4.7-.4.3 0 .4.1 1.7 1.3zm-.2 14.8-.8.9-2.7-2.7-2.7-2.7.8-.8.8-.8 2.7 2.7 2.7 2.7-.8.7zm-8.1-4.2c.7.2 1.1.4 1.7.9l.5.4-.6.3c-.6.2-2 1-4.8 2.5-1.3.7-2.3 1.4-3.2 2.4-.5.5-3.1 3.7-6.7 8.3-6.2 7.8-6.3 7.9-5.8 8.2.1.1.3.1.4.1.1 0 2.5-2.9 6.1-7.5 3.2-4.1 6.2-7.8 6.6-8.2 1.1-1.1 1.9-1.7 4.4-3 3.3-1.8 3.5-1.9 4.2-2h.5l.8.8c1.1 1.2 1.1 1.1-.8 4.7-1.6 2.9-2.2 3.9-3.3 5-.6.6-3.1 2.7-7.3 6-3.6 2.8-6.5 5.2-6.6 5.3-.2.4.2.9.6.6.7-.4 13.3-10.5 13.9-11.1.9-.9 1.7-2 2.4-3.2 1.3-2.3 2.4-4.5 2.6-5l.2-.6.4.5c.6.8.9 1.4 1 2.4.1.5 0 1.1-.3 4.2-.2 1.9-.5 3.8-.6 4-.3 1-.9 2-1.8 2.6-.4.3-18.5 10-21.7 11.6-.8.4-1.6.4-2.3.1-.3-.1-.5-.3-.5-.3 0-.1.2-.2.4-.3.7-.4 2.5-1.8 2.5-2.1s-.3-.6-.5-.6c-.1 0-.6.3-1.1.8-1 .8-1.6 1.2-2 1.3-.2 0-.4-.1-1.3-1.1-1-1-1.1-1.2-1.2-1.6-.2-.7-.1-1.2.3-2.1 1-1.9 11.2-21.1 11.4-21.4.6-.9 1.7-1.6 2.7-1.9.9-.2 7.2-1 7.8-.9.2-.2.7-.1 1-.1zM5.5 42l1.7 1.7-2.1 1.4c-2.3 1.5-2.5 1.6-3.3 1.2-.3-.2-.5-.3-.6-.6-.4-.7-.3-1 .8-2.7.5-.8 1.1-1.8 1.3-2.1.2-.3.4-.5.4-.5 0-.1.8.7 1.8 1.6z"/><path class="st0" d="M24.5 22.4c-2.2 2.2-2.4 2.5-2.1 2.8.3.3.5.2 2.8-2.1 1.4-1.4 2.2-2.3 2.2-2.4 0-.2-.3-.5-.5-.5s-1.1.8-2.4 2.2z"/></svg>