<?xml version="1.0" standalone="no"?>
<!DOCTYPE svg PUBLIC "-//W3C//DTD SVG 20010904//EN"
 "http://www.w3.org/TR/2001/REC-SVG-20010904/DTD/svg10.dtd">
<svg version="1.0" xmlns="http://www.w3.org/2000/svg"
 width="512.000000pt" height="512.000000pt" viewBox="0 0 512.000000 512.000000"
 preserveAspectRatio="xMidYMid meet">

<g transform="translate(0.000000,512.000000) scale(0.100000,-0.100000)"
fill="#000000" stroke="none">
<path d="M1229 4220 c-63 -11 -117 -41 -165 -92 -90 -93 -94 -123 -94 -660 l0
-428 -129 0 c-121 0 -132 -2 -182 -28 -34 -17 -65 -44 -84 -71 l-30 -43 -3
-374 -3 -374 -200 0 c-165 0 -207 -3 -235 -16 -45 -21 -92 -79 -100 -122 -6
-30 33 -385 57 -526 20 -116 94 -213 194 -258 l53 -23 4 -83 c4 -71 8 -88 34
-125 38 -53 82 -83 145 -96 70 -15 4068 -15 4138 0 63 13 107 43 145 96 26 37
30 54 34 126 l4 83 47 19 c84 35 173 138 194 225 17 72 67 520 62 556 -7 48
-51 105 -99 128 -28 13 -70 16 -235 16 l-201 0 0 913 c0 1028 4 967 -76 1056
-26 29 -69 62 -102 78 l-57 28 -983 0 -984 0 -24 -28 c-29 -34 -30 -56 -3 -91
l20 -26 725 0 724 0 0 -42 c0 -55 -17 -87 -59 -115 -30 -20 -46 -23 -136 -23
-119 0 -175 -16 -233 -66 -23 -19 -53 -60 -68 -91 -24 -47 -28 -72 -32 -164
l-5 -108 31 -31 c35 -35 59 -38 95 -10 23 18 25 26 29 127 6 166 33 193 191
193 119 0 181 18 241 71 60 53 86 105 94 188 l7 66 170 0 c191 0 217 -8 262
-75 l23 -33 0 -908 0 -909 -174 0 c-155 0 -176 -2 -197 -19 -32 -26 -32 -86 0
-112 22 -18 48 -19 462 -19 356 0 441 -3 445 -13 6 -18 -53 -489 -67 -524 -11
-31 -53 -78 -84 -96 -15 -9 -451 -13 -1713 -17 l-1694 -5 -19 -24 c-25 -30
-24 -76 1 -101 20 -20 33 -20 1645 -20 l1625 0 0 -51 c0 -63 -11 -84 -51 -98
-45 -16 -4053 -16 -4098 0 -40 14 -51 35 -51 98 l0 51 334 0 335 0 20 26 c27
35 26 57 -3 91 l-24 28 -399 5 c-276 3 -404 9 -418 17 -31 18 -73 65 -84 96
-14 35 -73 506 -67 524 4 11 322 13 1814 13 l1809 0 27 21 c36 28 36 80 0 108
-27 21 -29 21 -1130 21 l-1104 0 0 359 0 359 -28 53 c-20 39 -41 62 -77 84
-47 29 -52 30 -197 33 l-148 3 0 432 c0 238 5 450 10 471 11 49 37 85 81 111
30 18 52 20 204 20 l170 0 6 -65 c7 -79 33 -133 92 -187 58 -53 123 -73 241
-73 72 0 98 -4 123 -20 55 -33 58 -44 63 -305 5 -236 5 -241 32 -290 33 -64
70 -98 133 -126 124 -55 270 -4 343 120 27 46 27 46 32 291 5 266 8 277 63
310 38 24 78 25 121 5 63 -30 61 -11 66 -570 5 -493 6 -512 26 -556 47 -101
136 -159 244 -159 111 0 199 56 246 155 23 49 24 58 24 308 0 244 -1 258 -20
277 -25 25 -71 26 -101 1 -24 -19 -24 -20 -27 -270 l-3 -251 -33 -35 c-29 -30
-40 -35 -79 -35 -56 0 -102 34 -117 88 -6 23 -10 223 -11 517 0 341 -4 489
-12 512 -52 139 -207 214 -348 168 -38 -13 -69 -33 -105 -70 -77 -76 -84 -109
-84 -374 0 -196 -2 -219 -20 -248 -23 -38 -51 -55 -96 -56 -41 -1 -78 18 -101
52 -16 23 -19 59 -23 271 -6 272 -7 278 -79 353 -62 66 -100 80 -236 86 -66 4
-130 12 -142 19 -42 23 -63 62 -63 113 l0 49 175 0 c162 0 177 2 195 20 25 25
26 71 1 101 l-19 24 -409 1 c-224 1 -429 -2 -454 -6z m165 -1351 l26 -20 0
-350 0 -349 -365 0 -365 0 0 347 c0 342 0 347 22 370 l21 23 317 0 c306 0 318
-1 344 -21z"/>
</g>
</svg>
