<?xml version="1.0" standalone="no"?>
<!DOCTYPE svg PUBLIC "-//W3C//DTD SVG 20010904//EN"
 "http://www.w3.org/TR/2001/REC-SVG-20010904/DTD/svg10.dtd">
<svg version="1.0" xmlns="http://www.w3.org/2000/svg"
 width="512.000000pt" height="512.000000pt" viewBox="0 0 512.000000 512.000000"
 preserveAspectRatio="xMidYMid meet">

<g transform="translate(0.000000,512.000000) scale(0.100000,-0.100000)"
fill="#000000" stroke="none">
<path d="M1046 5100 c-57 -22 -118 -78 -149 -135 -20 -36 -22 -59 -25 -212 -3
-143 -1 -182 14 -225 20 -61 92 -139 147 -159 l37 -13 0 -116 0 -115 -126
-125 c-69 -69 -132 -139 -140 -157 -28 -65 -10 -134 48 -184 l31 -26 -48 -64
c-90 -122 -160 -286 -190 -442 -22 -115 -21 -513 1 -545 21 -30 83 -31 110 -1
17 19 20 44 25 273 5 217 9 261 28 326 44 149 137 306 258 438 51 54 65 54
333 2 112 -22 218 -40 235 -40 17 0 121 18 230 40 109 22 212 40 229 40 17 0
123 -18 234 -40 112 -22 218 -40 236 -40 18 0 122 18 231 40 109 22 212 40
229 40 17 0 123 -18 234 -40 112 -22 218 -40 236 -40 18 0 122 18 231 40 109
22 219 40 243 40 40 0 49 -5 85 -42 120 -131 213 -287 259 -438 22 -75 22 -77
28 -926 5 -820 6 -853 24 -873 27 -30 89 -29 110 1 24 33 24 1624 1 1745 -30
156 -100 320 -190 442 l-48 64 31 26 c58 50 76 119 48 184 -8 18 -71 88 -140
157 l-126 125 0 115 0 116 37 13 c55 20 127 98 147 159 15 43 17 82 14 225 -3
193 -8 208 -81 285 -72 74 -110 82 -381 82 -214 0 -236 -2 -257 -19 -32 -26
-32 -86 0 -112 21 -17 43 -19 250 -19 317 0 321 -3 321 -240 0 -154 -7 -182
-57 -216 -27 -18 -70 -19 -1483 -19 -1413 0 -1456 1 -1483 19 -50 34 -57 61
-57 218 0 124 3 147 20 175 40 67 -32 63 1143 63 1062 0 1064 0 1091 21 36 28
36 80 0 108 -27 21 -29 21 -1103 21 -1038 -1 -1078 -2 -1125 -20z m2854 -845
l0 -85 -1340 0 -1340 0 0 85 0 85 1340 0 1340 0 0 -85z m165 -355 c86 -86 114
-120 100 -120 -11 0 -63 9 -115 19 l-95 20 -233 -46 -232 -45 -232 45 -233 45
-232 -45 -233 -45 -232 45 -231 45 -233 -45 -234 -45 -233 45 -232 46 -90 -19
c-155 -33 -155 -35 -20 100 l120 120 1385 0 1385 0 120 -120z"/>
<path d="M1285 2971 c-81 -20 -145 -72 -186 -151 l-24 -45 0 -980 c0 -978 0
-980 21 -1025 28 -59 77 -108 139 -136 l50 -24 1275 0 1275 0 50 24 c62 28
111 77 139 136 21 45 21 47 21 1025 l0 980 -27 50 c-31 59 -67 94 -128 126
l-45 24 -1265 2 c-696 0 -1278 -2 -1295 -6z m2545 -159 c74 -37 70 23 70
-1020 0 -1016 3 -965 -56 -1011 l-27 -21 -1257 0 -1257 0 -27 21 c-59 46 -56
-5 -56 1011 0 1043 -4 983 70 1020 33 17 114 18 1270 18 1156 0 1237 -1 1270
-18z"/>
<path d="M2845 2588 c-22 -11 -65 -47 -96 -78 -50 -51 -64 -73 -83 -133 -5
-16 -12 -17 -53 -11 -122 20 -253 -4 -346 -63 -185 -117 -334 -424 -368 -757
-21 -207 14 -340 102 -384 143 -71 506 -31 742 81 121 57 198 110 268 184 102
107 135 201 126 365 -5 91 -3 108 9 108 71 0 224 156 224 229 0 64 -116 190
-206 223 -25 9 -36 22 -49 54 -28 75 -142 184 -206 198 -14 3 -40 -3 -64 -16z
m99 -190 c21 -24 36 -52 36 -68 0 -28 -54 -100 -75 -100 -22 0 -95 74 -95 96
0 33 65 113 92 114 3 0 23 -19 42 -42z m-251 -217 c103 -49 197 -143 249 -248
36 -73 42 -94 46 -167 4 -74 1 -91 -21 -139 -64 -140 -239 -255 -486 -318
-163 -42 -388 -44 -417 -4 -35 48 -25 260 21 437 60 226 202 427 333 469 15 4
68 7 117 6 78 -3 99 -7 158 -36z m480 -12 l41 -41 -46 -44 c-26 -24 -56 -44
-68 -44 -11 0 -37 15 -57 34 l-37 33 45 51 c24 28 52 51 63 52 10 0 37 -18 59
-41z"/>
<path d="M2409 2001 c-55 -54 -64 -96 -29 -131 36 -36 79 -27 133 28 53 54 62
97 27 132 -35 35 -77 26 -131 -29z"/>
<path d="M2714 1785 c-36 -16 -79 -61 -93 -98 -8 -22 -8 -35 4 -56 16 -31 33
-41 72 -41 37 0 123 88 123 124 0 61 -51 95 -106 71z"/>
<path d="M2307 1642 c-53 -54 -62 -97 -27 -132 35 -35 77 -26 131 29 55 54 64
96 29 131 -36 36 -79 27 -133 -28z"/>
<path d="M1419 1382 c-33 -27 -30 -78 5 -109 24 -21 37 -23 126 -23 89 0 102
2 126 23 34 30 36 83 3 109 -32 27 -227 26 -260 0z"/>
<path d="M3441 1382 c-33 -26 -31 -79 3 -109 24 -21 37 -23 126 -23 89 0 102
2 126 23 35 31 38 82 5 109 -33 26 -228 27 -260 0z"/>
<path d="M1428 1066 c-30 -22 -40 -63 -23 -95 19 -38 30 -41 145 -41 116 0
128 4 145 43 16 39 3 80 -31 96 -35 16 -214 14 -236 -3z"/>
<path d="M3453 1068 c-46 -22 -45 -114 2 -132 22 -8 208 -8 230 0 44 17 48 99
7 130 -21 16 -207 18 -239 2z"/>
<path d="M650 2330 c-20 -20 -20 -33 -20 -882 0 -955 -2 -923 66 -1063 69
-141 171 -243 319 -315 149 -73 81 -70 1545 -70 1475 0 1395 -4 1555 75 159
78 272 204 338 377 l32 83 3 287 c3 279 3 287 -17 307 -28 28 -82 28 -107 0
-17 -19 -19 -44 -25 -298 -6 -286 -7 -300 -54 -392 -57 -112 -181 -219 -303
-261 l-67 -23 -1355 0 -1355 0 -65 23 c-152 52 -268 165 -333 325 -22 52 -22
60 -27 928 -5 845 -6 878 -24 898 -25 27 -79 28 -106 1z"/>
</g>
</svg>
