<?xml version="1.0" encoding="utf-8"?>
<!-- Generator: Adobe Illustrator 24.0.1, SVG Export Plug-In . SVG Version: 6.00 Build 0)  -->
<svg version="1.1" id="Capa_1" xmlns="http://www.w3.org/2000/svg" xmlns:xlink="http://www.w3.org/1999/xlink" x="0px" y="0px"
	 viewBox="0 0 36.3 48.3" style="enable-background:new 0 0 36.3 48.3;" xml:space="preserve">
<style type="text/css">
	.st0{fill:#5F4A33;}
</style>
<path class="st0" d="M4,0.3C3.5,0.5,2.8,1,2.5,1.6C2.3,1.9,2.3,2.1,2.3,3.5c0,1.3,0,1.7,0.1,2.1c0.2,0.6,0.9,1.3,1.4,1.5l0.3,0.1
	v1.1v1.1L3,10.6c-0.6,0.6-1.2,1.3-1.3,1.5c-0.3,0.6-0.1,1.3,0.5,1.7l0.2,0.3l-0.5,0.6c-0.8,1.1-1.5,2.7-1.8,4.2
	c-0.2,1.1-0.2,4.8,0,5.1c0.2,0.3,0.8,0.3,1,0c0.2-0.2,0.2-0.4,0.2-2.6c0-2,0.1-2.5,0.3-3.1C2.1,16.9,3,15.4,4,14.2
	c0.5-0.5,0.6-0.5,3.1,0c1.1,0.2,2,0.4,2.2,0.4s1.1-0.2,2.2-0.4c1-0.2,2-0.4,2.2-0.4s1.2,0.2,2.2,0.4c1.1,0.2,2,0.4,2.2,0.4
	s1.1-0.2,2.2-0.4c1-0.2,2-0.4,2.2-0.4s1.2,0.2,2.2,0.4c1.1,0.2,2,0.4,2.2,0.4s1.1-0.2,2.2-0.4c1-0.2,2.1-0.4,2.3-0.4
	c0.4,0,0.5,0,0.8,0.4c1.1,1.2,2,2.7,2.4,4.1C34.9,19,34.9,19,35,27c0,7.7,0.1,8,0.2,8.2c0.3,0.3,0.8,0.3,1,0s0.2-15.3,0-16.4
	c-0.3-1.5-0.9-3-1.8-4.2L34,14.1l0.3-0.2c0.5-0.5,0.7-1.1,0.5-1.7c-0.1-0.2-0.7-0.8-1.3-1.5l-1.2-1.2V8.4V7.3l0.3-0.1
	C33,7,33.8,6.3,34,5.7C34,5.3,34,4.9,34,3.5c0-1.8-0.1-2-0.8-2.7S32.3,0,29.6,0c-2,0-2.2,0-2.4,0.2C27,0.5,27,1.1,27.3,1.3
	c0.2,0.2,0.4,0.2,2.4,0.2c3,0,3,0,3,2.3c0,1.4-0.1,1.7-0.5,2C31.9,6,31.5,6,18.3,6C5,6,4.6,6,4.4,5.8c-0.5-0.3-0.5-0.6-0.5-2
	c0-1.2,0-1.4,0.2-1.6c0.4-0.6-0.3-0.6,10.7-0.6c10,0,10,0,10.3-0.2c0.3-0.3,0.3-0.8,0-1c-0.5-0.3-0.5-0.3-10.6-0.3
	C4.7,0.1,4.4,0.1,4,0.3z M30.8,8.2V9H18.3H5.6V8.2V7.4h12.6h12.6v0.8H30.8z M32.3,11.6c0.8,0.8,1.1,1.1,0.9,1.1
	c-0.1,0-0.6-0.1-1.1-0.2l-0.9-0.2l-2.2,0.4l-2.2,0.4l-2.2-0.4l-2.2-0.4l-2.2,0.4L18,13.1l-2-0.3l-2.2-0.4l-2.2,0.4l-2.2,0.4
	l-2.2-0.4L5,12.3l-0.8,0.2c-1.5,0.3-1.5,0.3-0.2-0.9l1.1-1.1h13h13L32.3,11.6z"/>
<path class="st0" d="M6.2,20.3c-0.8,0.2-1.4,0.7-1.7,1.4l-0.3,0.4v9.2c0,9.2,0,9.2,0.2,9.6c0.3,0.6,0.7,1,1.3,1.3l0.5,0.2h12h12
	l0.5-0.2c0.6-0.3,1-0.7,1.3-1.3c0.2-0.4,0.2-0.4,0.2-9.6v-9.2L32,21.6c-0.3-0.6-0.6-0.9-1.2-1.2l-0.4-0.2H18.5
	C11.9,20.2,6.3,20.3,6.2,20.3z M30.1,21.8c0.7,0.3,0.7-0.2,0.7,9.6c0,9.6,0,9.1-0.5,9.5L30,41.1H18.3H6.3L6,40.9
	c-0.6-0.4-0.5,0-0.5-9.5c0-9.8,0-9.2,0.7-9.6c0.3-0.2,1.1-0.2,11.9-0.2C29,21.6,29.8,21.6,30.1,21.8z"/>
<path class="st0" d="M20.8,23.9c-0.2,0.1-0.6,0.4-0.9,0.7c-0.5,0.5-0.6,0.7-0.8,1.3c0,0.2-0.1,0.2-0.5,0.1c-1.1-0.2-2.4,0-3.3,0.6
	c-1.7,1.1-3.1,4-3.5,7.1c-0.2,1.9,0.1,3.2,1,3.6c1.3,0.7,4.8,0.3,7-0.8c1.1-0.5,1.9-1,2.5-1.7c1-1,1.3-1.9,1.2-3.4c0-0.9,0-1,0.1-1
	c0.7,0,2.1-1.5,2.1-2.2c0-0.6-1.1-1.8-1.9-2.1c-0.2-0.1-0.3-0.2-0.5-0.5c-0.3-0.7-1.3-1.7-1.9-1.9C21.3,23.7,21.1,23.8,20.8,23.9z
	 M21.8,25.7c0.2,0.2,0.3,0.5,0.3,0.6c0,0.3-0.5,0.9-0.7,0.9s-0.9-0.7-0.9-0.9c0-0.3,0.6-1.1,0.9-1.1C21.4,25.3,21.6,25.5,21.8,25.7z
	 M19.4,27.7c1,0.5,1.9,1.3,2.3,2.3c0.3,0.7,0.4,0.9,0.4,1.6c0,0.7,0,0.9-0.2,1.3c-0.6,1.3-2.2,2.4-4.6,3c-1.5,0.4-3.6,0.4-3.9,0
	c-0.3-0.5-0.2-2.4,0.2-4.1c0.6-2.1,1.9-4,3.1-4.4c0.1,0,0.6-0.1,1.1-0.1C18.8,27.4,18.8,27.5,19.4,27.7z M23.9,27.8l0.4,0.4
	l-0.4,0.4c-0.2,0.2-0.5,0.4-0.6,0.4s-0.3-0.1-0.5-0.3l-0.3-0.3l0.4-0.5c0.2-0.3,0.5-0.5,0.6-0.5C23.5,27.5,23.8,27.6,23.9,27.8z"/>
<path class="st0" d="M16.8,29.4c-0.5,0.5-0.6,0.9-0.3,1.2c0.3,0.3,0.7,0.3,1.3-0.3c0.5-0.5,0.6-0.9,0.3-1.2S17.3,28.9,16.8,29.4z"/>
<path class="st0" d="M19.6,31.5c-0.3,0.2-0.7,0.6-0.9,0.9c-0.1,0.2-0.1,0.3,0,0.5c0.2,0.3,0.3,0.4,0.7,0.4c0.3,0,1.2-0.8,1.2-1.2
	C20.6,31.5,20.1,31.2,19.6,31.5z"/>
<path class="st0" d="M15.9,32.8c-0.5,0.5-0.6,0.9-0.3,1.2s0.7,0.2,1.2-0.3s0.6-0.9,0.3-1.2C16.8,32.2,16.3,32.3,15.9,32.8z"/>
<path class="st0" d="M7.4,35.2c-0.3,0.3-0.3,0.7,0,1c0.2,0.2,0.3,0.2,1.2,0.2c0.8,0,1,0,1.2-0.2c0.3-0.3,0.3-0.8,0-1
	C9.7,35,7.7,35,7.4,35.2z"/>
<path class="st0" d="M26.4,35.2c-0.3,0.2-0.3,0.7,0,1c0.2,0.2,0.3,0.2,1.2,0.2c0.8,0,1,0,1.2-0.2c0.3-0.3,0.4-0.8,0-1
	C28.6,35,26.8,35,26.4,35.2z"/>
<path class="st0" d="M7.5,38.2c-0.3,0.2-0.4,0.6-0.2,0.9c0.2,0.4,0.3,0.4,1.4,0.4s1.2,0,1.4-0.4s0-0.8-0.3-0.9
	C9.4,38,7.7,38,7.5,38.2z"/>
<path class="st0" d="M26.5,38.2c-0.4,0.2-0.4,1.1,0,1.2c0.2,0.1,2,0.1,2.2,0c0.4-0.2,0.5-0.9,0.1-1.2C28.6,38.1,26.8,38,26.5,38.2z"
	/>
<path class="st0" d="M0.2,26.3C0,26.5,0,26.6,0,34.6c0,9,0,8.7,0.6,10s1.6,2.3,3,3s0.8,0.7,14.5,0.7c13.9,0,13.1,0,14.6-0.7
	s2.6-1.9,3.2-3.5l0.3-0.8v-2.7c0-2.6,0-2.7-0.2-2.9c-0.3-0.3-0.8-0.3-1,0c-0.2,0.2-0.2,0.4-0.2,2.8c-0.1,2.7-0.1,2.8-0.5,3.7
	c-0.5,1.1-1.7,2.1-2.8,2.5l-0.6,0.2H18.3H5.4l-0.6-0.2c-1.4-0.5-2.5-1.6-3.1-3.1c-0.2-0.5-0.2-0.6-0.3-8.7c0-7.9-0.1-8.3-0.2-8.4
	C1,26.1,0.5,26.1,0.2,26.3z"/>
</svg>
