<?xml version="1.0" standalone="no"?>
<!DOCTYPE svg PUBLIC "-//W3C//DTD SVG 20010904//EN"
 "http://www.w3.org/TR/2001/REC-SVG-20010904/DTD/svg10.dtd">
<svg version="1.0" xmlns="http://www.w3.org/2000/svg"
 width="512.000000pt" height="512.000000pt" viewBox="0 0 512.000000 512.000000"
 preserveAspectRatio="xMidYMid meet">

<g transform="translate(0.000000,512.000000) scale(0.100000,-0.100000)"
fill="#000000" stroke="none">
<path d="M2360 5110 c-354 -44 -688 -188 -960 -415 -297 -248 -514 -606 -594
-981 -14 -65 -28 -136 -31 -156 -6 -36 -8 -38 -44 -38 -58 0 -186 -36 -254
-72 -81 -42 -203 -164 -245 -245 -125 -238 -83 -514 107 -704 58 -58 95 -85
156 -115 l81 -39 273 -1060 c150 -583 283 -1083 295 -1111 29 -63 79 -114 142
-145 l49 -24 1225 0 1225 0 49 24 c62 30 112 81 140 141 12 25 145 525 296
1111 l274 1064 80 39 c62 30 99 57 157 115 190 190 232 466 107 704 -42 81
-164 203 -245 245 -68 36 -196 72 -254 72 -36 0 -38 2 -44 38 -42 267 -159
591 -230 638 -57 38 -145 -11 -145 -80 0 -18 17 -71 39 -117 75 -162 121 -331
142 -517 6 -53 15 -104 20 -114 18 -33 61 -45 176 -50 104 -4 117 -7 186 -41
90 -44 147 -103 190 -195 29 -61 32 -76 32 -163 0 -90 -2 -99 -37 -171 -45
-91 -103 -147 -196 -191 l-67 -32 -1896 0 -1895 0 -76 37 c-91 45 -147 103
-191 196 -29 61 -32 76 -32 163 0 90 2 99 37 171 45 91 104 148 196 191 58 27
79 31 176 35 114 5 157 17 175 50 5 10 14 62 20 116 80 712 591 1268 1296
1408 160 32 433 32 593 0 206 -41 368 -105 551 -217 124 -76 156 -81 202 -36
32 32 38 71 17 116 -12 26 -108 92 -238 162 -149 81 -345 146 -535 179 -109
18 -392 26 -495 14z m-706 -3822 c98 -568 180 -1045 183 -1061 l5 -27 -231 0
-231 0 -30 27 c-28 27 -42 78 -290 1043 -144 558 -263 1023 -266 1033 -5 16
16 17 338 17 l344 0 178 -1032z m806 -28 l0 -1060 -208 0 -208 0 -178 1032
c-98 568 -180 1045 -183 1061 l-5 27 391 0 391 0 0 -1060z m977 1033 c-3 -16
-85 -493 -183 -1061 l-178 -1032 -208 0 -208 0 0 1060 0 1060 391 0 391 0 -5
-27z m889 10 c-3 -10 -122 -475 -266 -1033 -247 -964 -262 -1016 -290 -1042
l-30 -28 -231 0 -231 0 5 28 c3 15 85 492 183 1060 l178 1032 344 0 c322 0
343 -1 338 -17z"/>
<path d="M2611 4706 c-87 -48 -50 -186 49 -186 51 0 100 49 100 99 0 75 -83
124 -149 87z"/>
<path d="M3791 4526 c-87 -48 -50 -186 49 -186 51 0 100 49 100 99 0 75 -83
124 -149 87z"/>
<path d="M2011 4106 c-87 -48 -50 -186 49 -186 51 0 100 49 100 99 0 75 -83
124 -149 87z"/>
<path d="M3121 3726 c-87 -48 -50 -186 49 -186 51 0 100 49 100 99 0 75 -83
124 -149 87z"/>
<path d="M1411 3506 c-87 -48 -50 -186 49 -186 51 0 100 49 100 99 0 75 -83
124 -149 87z"/>
<path d="M2211 3106 c-87 -48 -50 -186 49 -186 51 0 100 49 100 99 0 75 -83
124 -149 87z"/>
<path d="M3611 3106 c-87 -48 -50 -186 49 -186 51 0 100 49 100 99 0 75 -83
124 -149 87z"/>
</g>
</svg>
