<svg id="nav_hover" data-name="nav hover" xmlns="http://www.w3.org/2000/svg" viewBox="0 0 512 383.82"><defs><style>.cls-1{fill:#a8947e;}</style></defs><title>nav-hover</title><path class="cls-1" d="M27,224.07H485c14.9,0,27,13.61,27,30.36v3.15c0,16.76-12.1,30.36-27,30.36H27c-14.9,0-27-13.6-27-30.36v-3.15C0,237.68,12.1,224.07,27,224.07Z" transform="translate(0 -64.04)"/><path class="cls-1" d="M27,384H485c14.9,0,27,13.61,27,30.37v3.15c0,16.75-12.1,30.36-27,30.36H27c-14.9,0-27-13.61-27-30.36v-3.15C0,397.59,12.1,384,27,384Z" transform="translate(0 -64.04)"/><path class="cls-1" d="M27,64H485c14.9,0,27,13.61,27,30.36v3.15c0,16.76-12.1,30.37-27,30.37H27c-14.9,0-27-13.61-27-30.37V94.4C0,77.65,12.1,64,27,64Z" transform="translate(0 -64.04)"/></svg>