<svg width="24" height="18" viewBox="0 0 24 18" fill="none" xmlns="http://www.w3.org/2000/svg">
<path fill-rule="evenodd" clip-rule="evenodd" d="M0 17C0 16.7348 0.114935 16.4804 0.31952 16.2929C0.524105 16.1054 0.801582 16 1.09091 16H22.9091C23.1984 16 23.4759 16.1054 23.6805 16.2929C23.8851 16.4804 24 16.7348 24 17C24 17.2652 23.8851 17.5196 23.6805 17.7071C23.4759 17.8946 23.1984 18 22.9091 18H1.09091C0.801582 18 0.524105 17.8946 0.31952 17.7071C0.114935 17.5196 0 17.2652 0 17ZM0 9C0 8.73478 0.114935 8.48043 0.31952 8.29289C0.524105 8.10536 0.801582 8 1.09091 8H22.9091C23.1984 8 23.4759 8.10536 23.6805 8.29289C23.8851 8.48043 24 8.73478 24 9C24 9.26522 23.8851 9.51957 23.6805 9.70711C23.4759 9.89464 23.1984 10 22.9091 10H1.09091C0.801582 10 0.524105 9.89464 0.31952 9.70711C0.114935 9.51957 0 9.26522 0 9ZM0 1C0 0.734784 0.114935 0.48043 0.31952 0.292893C0.524105 0.105357 0.801582 0 1.09091 0H22.9091C23.1984 0 23.4759 0.105357 23.6805 0.292893C23.8851 0.48043 24 0.734784 24 1C24 1.26522 23.8851 1.51957 23.6805 1.70711C23.4759 1.89464 23.1984 2 22.9091 2H1.09091C0.801582 2 0.524105 1.89464 0.31952 1.70711C0.114935 1.51957 0 1.26522 0 1Z" fill="#A8947E"/>
</svg>
