<svg id="Layer_1" data-name="Layer 1" xmlns="http://www.w3.org/2000/svg" viewBox="0 0 512 512"><defs><style>.cls-1{fill:#5f4a33;}</style></defs><title>menu_14</title><path class="cls-1" d="M27,224.07H485c14.9,0,27,13.61,27,30.36v3.15c0,16.76-12.1,30.36-27,30.36H27c-14.9,0-27-13.6-27-30.36v-3.15C0,237.68,12.1,224.07,27,224.07Z"/><path class="cls-1" d="M27,384H485c14.9,0,27,13.61,27,30.37v3.15c0,16.75-12.1,30.36-27,30.36H27c-14.9,0-27-13.61-27-30.36v-3.15C0,397.59,12.1,384,27,384Z"/><path class="cls-1" d="M27,64H485c14.9,0,27,13.61,27,30.36v3.15c0,16.76-12.1,30.37-27,30.37H27c-14.9,0-27-13.61-27-30.37V94.4C0,77.65,12.1,64,27,64Z"/></svg>