<svg id="nav" xmlns="http://www.w3.org/2000/svg" viewBox="0 0 512 512"><defs><style>.cls-1{fill:#5f4a33;}</style></defs><title>Nav</title><path class="cls-1" d="M27,227.6H485a27,27,0,0,1,27,27v2.8a27,27,0,0,1-27,27H27a27,27,0,0,1-27-27v-2.8A27,27,0,0,1,27,227.6Z"/><path class="cls-1" d="M27,369.8H485a27,27,0,0,1,27,27v2.8a27,27,0,0,1-27,27H27a27,27,0,0,1-27-27v-2.8A27,27,0,0,1,27,369.8Z"/><path class="cls-1" d="M27,85.3H485a27,27,0,0,1,27,27v2.8a27,27,0,0,1-27,27H27a27,27,0,0,1-27-27v-2.8A27,27,0,0,1,27,85.3Z"/></svg>