<svg version="1.1" id="Capa_1" xmlns="http://www.w3.org/2000/svg" x="0" y="0" viewBox="0 0 511.8 511" style="enable-background:new 0 0 511.8 511" xml:space="preserve"><style>.st0{fill:#5f4a33}</style><path class="st0" d="M2313.6 5114.3c-600-54-1047-269-1229-593l-33-58-74-3c-126-5-233-76-290-195-18-36-23-64-23-131-1-73 3-93 27-141 32-66 99-132 165-162 37-17 66-22 134-22h87l37-65c20-36 57-91 81-123s41-62 38-66c-2-5-34-20-69-34l-63-26-50 48c-166 160-452 100-531-112-27-70-29-180-7-235l16-36-58-50c-352-299-521-655-459-966 69-346 383-608 882-738l108-27 22-73c173-566 966-1083 1916-1247 235-40 350-50 608-49 265 0 400 14 610 60 531 119 872 391 946 754 62 306-89 631-439 946l-78 70 17 39c24 58 16 185-16 250-31 63-92 124-155 156-42 20-65 24-140 24-78 0-97-4-147-28-31-15-73-46-93-68l-36-40-69 28c-39 15-70 31-70 35s23 38 51 75c58 78 151 264 170 338l12 51 111 28c458 115 769 357 868 676 32 105 32 280 0 394-63 219-224 448-449 637l-53 44 15 40c36 102 8 244-64 327-62 70-130 101-232 106-77 4-93 1-146-23-33-14-79-46-103-70l-42-43-96 39c-287 117-618 201-957 245-145 18-512 26-650 14zm556-170c163-16 160-14 91-60-203-136-203-381-2-510 151-97 369-97 520 0 138 88 188 242 122 374-16 31-28 56-27 56 15 0 260-91 352-130 434-186 794-476 942-760 81-154 104-334 61-471-92-300-458-524-985-604-151-23-478-31-656-16-863 73-1673 459-1998 952-110 167-154 354-121 512 22 110 97 231 199 322l44 40-6-48c-20-143 76-269 223-295 241-43 512 162 513 387 0 78-17 123-67 179l-36 40 112 16c166 24 155 23 394 25 122 0 268-4 325-9zm-946-164c85-36 71-145-31-234-83-74-200-101-274-64-110 55-21 237 143 293 63 22 116 24 162 5zm1439-20c68-33 101-76 101-131s-33-98-103-132c-49-24-69-28-142-28s-93 4-142 28c-95 47-128 114-89 184 61 107 240 145 375 79zm1006 11c30-16 51-37 67-67 23-44 31-104 14-115-6-3-41 14-78 38s-96 58-130 77c-35 18-63 37-63 42 0 14 81 48 116 48 17 0 50-10 74-23zm-3375-599c1-68 6-140 12-160 9-30 8-38-4-42-39-15-115 22-149 74-23 34-26 48-22 98 6 88 64 151 138 152h25v-122zm-97-718c23-10 42-23 42-29 0-5-35-28-77-52-43-23-102-57-131-76-29-18-57-31-63-28-17 11-9 71 14 115 16 30 37 51 67 67 52 28 91 29 148 3zm520-73 42-42-20-40c-106-215 48-427 292-401 74 7 162 38 215 75l42 30 108-48c59-27 137-59 172-72 54-19 62-25 46-33-157-93-246-219-247-350-1-228 247-337 491-215 162 81 270 254 244 388-6 29-6 51-1 51s73-11 151-24c131-23 253-36 482-52l90-6-100-97c-186-179-448-358-689-471-218-102-503-188-746-226-143-21-493-30-660-15-219 20-485 72-681 134l-45 15-26-79-26-78 83-26c559-170 1155-188 1681-50 507 133 934 381 1310 761l141 142 79 10c43 5 81 8 83 6 10-9-49-135-101-214-155-236-412-443-763-615-336-165-670-265-1075-322-160-22-647-25-785-5-567 85-924 303-1019 621-21 70-21 218-1 296 37 143 124 282 270 433 156 163 345 297 596 423 106 53 302 138 319 139 3 0 25-19 48-43zm296-222 108-69-39-14c-23-8-64-12-102-10-55 4-67 8-87 32-13 15-24 40-24 56 0 35 17 83 28 78 4-2 57-34 116-73zm895-461c24-20 31-34 31-62 0-118-138-231-283-232-63 0-71 3-98 29-35 35-38 75-9 129 54 103 148 160 267 161 52 1 66-3 92-25zm1731-554c41-11 94-61 109-103 14-35 14-84 2-92-8-4-147 72-261 144-13 8-12 11 5 25 40 32 92 41 145 26zm-415-111c372-158 720-419 885-664 100-147 140-267 140-412 0-255-160-460-472-608-246-116-486-164-851-172-343-8-602 21-926 103-702 176-1295 568-1481 978-43 95-44 94 53 83l82-8 84-91c387-414 884-703 1432-832 499-118 1107-92 1621 70l76 24-25 75c-13 41-29 75-35 75-5 0-56-13-112-29-273-80-481-111-787-118-269-6-401 4-619 47-493 99-931 327-1325 693l-80 74 125 7c168 10 373 33 495 57 132 25 125 26 113-18-26-94 25-227 123-318 250-230 612-153 610 131-1 121-80 245-199 314-34 19-62 38-62 41s39 20 88 39c48 18 124 50 169 70l81 38 44-29c102-69 246-96 348-66 166 48 239 213 166 373l-27 59 45 43 45 42 53-21c29-11 85-34 123-50zm-387-144c31-68-11-144-80-146-61-2-103 3-132 15l-29 12 79 49c43 27 93 59 109 72 38 29 39 29 53-2zm-805-515c98-49 174-164 151-227-32-91-191-89-312 4-83 63-118 176-69 220 32 30 45 33 117 30 45-2 80-10 113-27z" transform="matrix(.1 0 0 -.1 0 512)"/><path class="st0" d="M2479.6 4192.3c-74-28-135-91-155-159-21-69-20-94 4-170 71-227 360-368 568-279 141 61 193 215 124 364-37 79-89 138-166 188-118 76-265 98-375 56zm245-173c90-40 164-132 164-203 0-18-10-42-23-58-20-23-34-28-85-32-71-5-130 12-195 56-110 76-143 218-58 251 65 25 119 21 197-14zM4109.6 4123.3c-64-12-162-61-209-104-23-20-55-64-72-97-53-108-36-217 50-311 237-259 739-127 740 194 0 212-250 369-509 318zm223-179c85-32 137-103 122-165-10-40-62-91-118-115-169-74-398 26-371 161 8 42 70 103 124 122 65 23 177 21 243-3z" transform="matrix(.1 0 0 -.1 0 512)"/><path class="st0" d="M1437.6 4080.3c-13-11-42-35-62-52l-38-31 94-104c381-422 929-735 1495-853 215-45 360-59 602-59 328 0 636 44 916 129 63 18 116 34 118 34s-8 36-22 80c-20 62-30 79-42 75-104-41-384-105-570-130-165-23-489-30-645-16-467 44-880 191-1265 452-157 106-283 213-431 367l-125 129-25-21zM802.6 2799.3c-242-53-367-255-273-443 98-196 407-265 622-138 25 14 65 48 90 76 167 185 47 447-232 506-80 17-127 17-207-1zm257-191c70-39 107-104 90-157-47-142-325-180-445-60-64 64-57 141 18 198 54 41 110 55 202 52 68-3 89-8 135-33zM4128.6 1484.3c-206-36-342-182-327-351 9-108 82-198 205-257 65-31 86-36 173-40 76-4 116 0 165 13 119 32 225 121 261 218 21 59 16 157-12 214-50 101-172 181-305 202-73 12-95 12-160 1zm230-196c68-37 95-73 95-127 0-57-32-99-103-134-50-24-68-28-142-27-95 1-138 15-194 64-51 45-62 88-38 143 34 76 128 119 252 114 61-3 86-9 130-33z" transform="matrix(.1 0 0 -.1 0 512)"/></svg>