<?xml version="1.0" encoding="utf-8"?>
<!-- Generator: Adobe Illustrator 24.0.1, SVG Export Plug-In . SVG Version: 6.00 Build 0)  -->
<svg version="1.1" id="Capa_1" xmlns="http://www.w3.org/2000/svg" xmlns:xlink="http://www.w3.org/1999/xlink" x="0px" y="0px"
	 viewBox="0 0 511.8 511" style="enable-background:new 0 0 511.8 511;" xml:space="preserve">
<style type="text/css">
	.st0{fill:#5F4A33;}
</style>
<g transform="translate(0.000000,512.000000) scale(0.100000,-0.100000)">
	<path class="st0" d="M2313.6,5114.3c-600-54-1047-269-1229-593l-33-58l-74-3c-126-5-233-76-290-195c-18-36-23-64-23-131
		c-1-73,3-93,27-141c32-66,99-132,165-162c37-17,66-22,134-22h87l37-65c20-36,57-91,81-123s41-62,38-66c-2-5-34-20-69-34l-63-26
		l-50,48c-166,160-452,100-531-112c-27-70-29-180-7-235l16-36l-58-50c-352-299-521-655-459-966c69-346,383-608,882-738l108-27l22-73
		c173-566,966-1083,1916-1247c235-40,350-50,608-49c265,0,400,14,610,60c531,119,872,391,946,754c62,306-89,631-439,946l-78,70
		l17,39c24,58,16,185-16,250c-31,63-92,124-155,156c-42,20-65,24-140,24c-78,0-97-4-147-28c-31-15-73-46-93-68l-36-40l-69,28
		c-39,15-70,31-70,35s23,38,51,75c58,78,151,264,170,338l12,51l111,28c458,115,769,357,868,676c32,105,32,280,0,394
		c-63,219-224,448-449,637l-53,44l15,40c36,102,8,244-64,327c-62,70-130,101-232,106c-77,4-93,1-146-23c-33-14-79-46-103-70l-42-43
		l-96,39c-287,117-618,201-957,245C2818.6,5118.3,2451.6,5126.3,2313.6,5114.3z M2869.6,4944.3c163-16,160-14,91-60
		c-203-136-203-381-2-510c151-97,369-97,520,0c138,88,188,242,122,374c-16,31-28,56-27,56c15,0,260-91,352-130
		c434-186,794-476,942-760c81-154,104-334,61-471c-92-300-458-524-985-604c-151-23-478-31-656-16c-863,73-1673,459-1998,952
		c-110,167-154,354-121,512c22,110,97,231,199,322l44,40l-6-48c-20-143,76-269,223-295c241-43,512,162,513,387c0,78-17,123-67,179
		l-36,40l112,16c166,24,155,23,394,25C2666.6,4953.3,2812.6,4949.3,2869.6,4944.3z M1923.6,4780.3c85-36,71-145-31-234
		c-83-74-200-101-274-64c-110,55-21,237,143,293C1824.6,4797.3,1877.6,4799.3,1923.6,4780.3z M3362.6,4760.3c68-33,101-76,101-131
		s-33-98-103-132c-49-24-69-28-142-28s-93,4-142,28c-95,47-128,114-89,184C3048.6,4788.3,3227.6,4826.3,3362.6,4760.3z
		 M4368.6,4771.3c30-16,51-37,67-67c23-44,31-104,14-115c-6-3-41,14-78,38s-96,58-130,77c-35,18-63,37-63,42c0,14,81,48,116,48
		C4311.6,4794.3,4344.6,4784.3,4368.6,4771.3z M993.6,4172.3c1-68,6-140,12-160c9-30,8-38-4-42c-39-15-115,22-149,74
		c-23,34-26,48-22,98c6,88,64,151,138,152h25V4172.3z M896.6,3454.3c23-10,42-23,42-29c0-5-35-28-77-52c-43-23-102-57-131-76
		c-29-18-57-31-63-28c-17,11-9,71,14,115c16,30,37,51,67,67C800.6,3479.3,839.6,3480.3,896.6,3454.3z M1416.6,3381.3l42-42l-20-40
		c-106-215,48-427,292-401c74,7,162,38,215,75l42,30l108-48c59-27,137-59,172-72c54-19,62-25,46-33c-157-93-246-219-247-350
		c-1-228,247-337,491-215c162,81,270,254,244,388c-6,29-6,51-1,51s73-11,151-24c131-23,253-36,482-52l90-6l-100-97
		c-186-179-448-358-689-471c-218-102-503-188-746-226c-143-21-493-30-660-15c-219,20-485,72-681,134l-45,15l-26-79l-26-78l83-26
		c559-170,1155-188,1681-50c507,133,934,381,1310,761l141,142l79,10c43,5,81,8,83,6c10-9-49-135-101-214c-155-236-412-443-763-615
		c-336-165-670-265-1075-322c-160-22-647-25-785-5c-567,85-924,303-1019,621c-21,70-21,218-1,296c37,143,124,282,270,433
		c156,163,345,297,596,423c106,53,302,138,319,139C1371.6,3424.3,1393.6,3405.3,1416.6,3381.3z M1712.6,3159.3l108-69l-39-14
		c-23-8-64-12-102-10c-55,4-67,8-87,32c-13,15-24,40-24,56c0,35,17,83,28,78C1600.6,3230.3,1653.6,3198.3,1712.6,3159.3z
		 M2607.6,2698.3c24-20,31-34,31-62c0-118-138-231-283-232c-63,0-71,3-98,29c-35,35-38,75-9,129c54,103,148,160,267,161
		C2567.6,2724.3,2581.6,2720.3,2607.6,2698.3z M4338.6,2144.3c41-11,94-61,109-103c14-35,14-84,2-92c-8-4-147,72-261,144
		c-13,8-12,11,5,25C4233.6,2150.3,4285.6,2159.3,4338.6,2144.3z M3923.6,2033.3c372-158,720-419,885-664c100-147,140-267,140-412
		c0-255-160-460-472-608c-246-116-486-164-851-172c-343-8-602,21-926,103c-702,176-1295,568-1481,978c-43,95-44,94,53,83l82-8l84-91
		c387-414,884-703,1432-832c499-118,1107-92,1621,70l76,24l-25,75c-13,41-29,75-35,75c-5,0-56-13-112-29c-273-80-481-111-787-118
		c-269-6-401,4-619,47c-493,99-931,327-1325,693l-80,74l125,7c168,10,373,33,495,57c132,25,125,26,113-18c-26-94,25-227,123-318
		c250-230,612-153,610,131c-1,121-80,245-199,314c-34,19-62,38-62,41s39,20,88,39c48,18,124,50,169,70l81,38l44-29
		c102-69,246-96,348-66c166,48,239,213,166,373l-27,59l45,43l45,42l53-21C3829.6,2072.3,3885.6,2049.3,3923.6,2033.3z
		 M3536.6,1889.3c31-68-11-144-80-146c-61-2-103,3-132,15l-29,12l79,49c43,27,93,59,109,72
		C3521.6,1920.3,3522.6,1920.3,3536.6,1889.3z M2731.6,1374.3c98-49,174-164,151-227c-32-91-191-89-312,4c-83,63-118,176-69,220
		c32,30,45,33,117,30C2663.6,1399.3,2698.6,1391.3,2731.6,1374.3z"/>
	<path class="st0" d="M2479.6,4192.3c-74-28-135-91-155-159c-21-69-20-94,4-170c71-227,360-368,568-279c141,61,193,215,124,364
		c-37,79-89,138-166,188C2736.6,4212.3,2589.6,4234.3,2479.6,4192.3z M2724.6,4019.3c90-40,164-132,164-203c0-18-10-42-23-58
		c-20-23-34-28-85-32c-71-5-130,12-195,56c-110,76-143,218-58,251C2592.6,4058.3,2646.6,4054.3,2724.6,4019.3z"/>
	<path class="st0" d="M4109.6,4123.3c-64-12-162-61-209-104c-23-20-55-64-72-97c-53-108-36-217,50-311c237-259,739-127,740,194
		C4618.6,4017.3,4368.6,4174.3,4109.6,4123.3z M4332.6,3944.3c85-32,137-103,122-165c-10-40-62-91-118-115c-169-74-398,26-371,161
		c8,42,70,103,124,122C4154.6,3970.3,4266.6,3968.3,4332.6,3944.3z"/>
	<path class="st0" d="M1437.6,4080.3c-13-11-42-35-62-52l-38-31l94-104c381-422,929-735,1495-853c215-45,360-59,602-59
		c328,0,636,44,916,129c63,18,116,34,118,34s-8,36-22,80c-20,62-30,79-42,75c-104-41-384-105-570-130c-165-23-489-30-645-16
		c-467,44-880,191-1265,452c-157,106-283,213-431,367l-125,129L1437.6,4080.3z"/>
	<path class="st0" d="M802.6,2799.3c-242-53-367-255-273-443c98-196,407-265,622-138c25,14,65,48,90,76c167,185,47,447-232,506
		C929.6,2817.3,882.6,2817.3,802.6,2799.3z M1059.6,2608.3c70-39,107-104,90-157c-47-142-325-180-445-60c-64,64-57,141,18,198
		c54,41,110,55,202,52C992.6,2638.3,1013.6,2633.3,1059.6,2608.3z"/>
	<path class="st0" d="M4128.6,1484.3c-206-36-342-182-327-351c9-108,82-198,205-257c65-31,86-36,173-40c76-4,116,0,165,13
		c119,32,225,121,261,218c21,59,16,157-12,214c-50,101-172,181-305,202C4215.6,1495.3,4193.6,1495.3,4128.6,1484.3z M4358.6,1288.3
		c68-37,95-73,95-127c0-57-32-99-103-134c-50-24-68-28-142-27c-95,1-138,15-194,64c-51,45-62,88-38,143c34,76,128,119,252,114
		C4289.6,1318.3,4314.6,1312.3,4358.6,1288.3z"/>
</g>
</svg>
