<svg xmlns="http://www.w3.org/2000/svg" viewBox="0 0 292 240.9" style="enable-background:new 0 0 292 240.9" xml:space="preserve"><path d="m-1.9-3.1 1.9 17v9.6c-.5 2 0 3.9 0 6.1v110.8c0 12.5 9.5 22.7 21 22.7 11.6 0 21-10.2 21-22.7V56.6C42 49.7 47.7 44 54.6 44h4.1c6.9 0 12.5 5.6 12.5 12.5V106h.3c1 3.5 4.3 6.2 8.2 6.2h2c3.9 0 7.1-2.6 8.2-6.2h.6V73.9c0-6.2 3.9-11.3 8.6-11.3s8.6 5.1 8.6 11.3v42.6c0 .8-.1 1.7-.2 2.4v66.5c0 5.3 4.4 9.7 9.7 9.7 5.3 0 9.7-4.4 9.7-9.7V97.9c0-3.8 3.1-6.9 6.9-6.9h1.2c3.8 0 6.9 3.1 6.9 6.9v8.1h.1v43c0 7.8 5.9 14.2 13.1 14.2 7.2 0 13.1-6.4 13.1-14.2V80.4c0-10 8.2-18.2 18.2-18.2h4.3c10 0 18.2 8.2 18.2 18.2v142.3c0 10 8.2 18.2 18.2 18.2h6.1c10 0 18.2-8.2 18.2-18.2V38.9c0-10 8.2-18.2 18.2-18.2h4.2c10 0 18.2 8.2 18.2 18.2V106h.2V1.2c0-.7-.5-1.2-1.2-1.2H2.1c-.7 0-4-3.7-4-3.1z" style="fill:#f3f0ec"/></svg>