<?xml version="1.0" encoding="utf-8"?>
<!-- Generator: Adobe Illustrator 24.0.1, SVG Export Plug-In . SVG Version: 6.00 Build 0)  -->
<svg version="1.1" id="paint" xmlns="http://www.w3.org/2000/svg" xmlns:xlink="http://www.w3.org/1999/xlink" x="0px" y="0px"
	 viewBox="0 0 292 240.9" style="enable-background:new 0 0 292 240.9;" xml:space="preserve">
<style type="text/css">
	.st0{fill:#F3F0EC;}
</style>
<path class="st0" d="M-1.9-3.1l1.9,17c0,0.1,0,9.5,0,9.6c-0.5,2,0,3.9,0,6.1v110.8c0,12.5,9.5,22.7,21,22.7c11.6,0,21-10.2,21-22.7
	v-16.1V106V56.6C42,49.7,47.7,44,54.6,44h4.1c6.9,0,12.5,5.6,12.5,12.5V106h0.3c1,3.5,4.3,6.2,8.2,6.2h2c3.9,0,7.1-2.6,8.2-6.2h0.6
	V73.9c0-6.2,3.9-11.3,8.6-11.3s8.6,5.1,8.6,11.3v42.6c0,0.8-0.1,1.7-0.2,2.4c0,0.1,0,0.1,0,0.2v66.3c0,5.3,4.4,9.7,9.7,9.7h0
	c5.3,0,9.7-4.4,9.7-9.7v-34.8V106v-8.1c0-3.8,3.1-6.9,6.9-6.9h1.2c3.8,0,6.9,3.1,6.9,6.9v8.1h0.1v43c0,7.8,5.9,14.2,13.1,14.2
	c7.2,0,13.1-6.4,13.1-14.2v-43V80.4c0-10,8.2-18.2,18.2-18.2h4.3c10,0,18.2,8.2,18.2,18.2V106v44.1v72.6c0,10,8.2,18.2,18.2,18.2
	h6.1c10,0,18.2-8.2,18.2-18.2V108.6V106V38.9c0-10,8.2-18.2,18.2-18.2h4.2c10,0,18.2,8.2,18.2,18.2V106h0.2V1.2
	c0-0.7-0.5-1.2-1.2-1.2H2.1C1.4,0-1.9-3.7-1.9-3.1z"/>
</svg>
