<svg width="98" height="106" fill="none" xmlns="http://www.w3.org/2000/svg"><g clip-path="url(#a)" fill="#5F4A33"><path d="M45.016.278c-6.713.904-13.047 3.863-18.206 8.528-5.632 5.097-9.748 12.454-11.265 20.16-.265 1.336-.53 2.795-.588 3.206-.114.74-.152.78-.834.78-1.1 0-3.528.74-4.817 1.48-1.536.864-3.85 3.37-4.647 5.035-2.37 4.891-1.574 10.563 2.03 14.468 1.1 1.192 1.801 1.746 2.958 2.363l1.536.801 5.178 21.784c2.844 11.98 5.367 22.256 5.594 22.831.55 1.295 1.498 2.343 2.693 2.98l.93.493H72.04l.93-.493c1.175-.617 2.123-1.665 2.654-2.898.228-.513 2.75-10.789 5.614-22.831l5.196-21.866 1.517-.801c1.176-.617 1.878-1.171 2.978-2.363 3.603-3.905 4.4-9.577 2.029-14.468-.797-1.664-3.11-4.171-4.646-5.035-1.29-.74-3.718-1.48-4.817-1.48-.683 0-.721-.04-.835-.78-.796-5.487-3.015-12.145-4.362-13.111-1.08-.781-2.75.226-2.75 1.644 0 .37.323 1.459.74 2.404 1.422 3.33 2.295 6.802 2.693 10.625.114 1.089.284 2.137.38 2.343.34.678 1.156.924 3.337 1.027 1.972.082 2.219.144 3.528.843 1.706.904 2.787 2.116 3.603 4.007.55 1.254.607 1.562.607 3.35 0 1.85-.038 2.034-.702 3.514-.853 1.87-1.953 3.02-3.717 3.925l-1.27.657H12.851l-1.441-.76c-1.726-.925-2.788-2.117-3.622-4.028-.55-1.253-.607-1.562-.607-3.35 0-1.849.038-2.034.701-3.514.854-1.87 1.973-3.041 3.717-3.925 1.1-.554 1.499-.637 3.338-.719 2.162-.103 2.978-.35 3.319-1.027.095-.206.265-1.275.38-2.384C20.153 19.06 29.843 7.635 43.214 4.758c3.034-.658 8.211-.658 11.246 0 3.906.842 6.979 2.158 10.45 4.46 2.35 1.561 2.958 1.664 3.83.74.607-.658.72-1.46.323-2.385-.228-.534-2.049-1.89-4.514-3.329-2.826-1.664-6.543-3-10.146-3.678C52.337.196 46.97.03 45.016.278zM31.627 78.821c1.859 11.673 3.414 21.475 3.47 21.804l.096.555H26.43l-.57-.555c-.53-.555-.796-1.603-5.499-21.434-2.73-11.467-4.988-21.023-5.044-21.228-.095-.33.303-.35 6.41-.35h6.523l3.376 21.208zm15.286.576v21.783h-7.89l-3.375-21.208c-1.859-11.673-3.414-21.475-3.47-21.804l-.096-.555h14.831v21.784zM65.44 58.168c-.057.329-1.612 10.131-3.47 21.804l-3.376 21.208H50.706V57.613h14.83l-.095.555zm16.86-.205c-.057.205-2.314 9.761-5.045 21.228-4.684 19.81-4.969 20.879-5.5 21.413l-.569.576h-8.761l.095-.576c.056-.308 1.612-10.11 3.47-21.783l3.376-21.208h6.524c6.106 0 6.505.02 6.41.35z"/><path d="M49.776 8.58c-1.65.987-.948 3.823.93 3.823.967 0 1.896-1.007 1.896-2.035 0-1.541-1.574-2.548-2.826-1.788zM72.155 12.28c-1.65.986-.948 3.822.929 3.822.967 0 1.896-1.007 1.896-2.035 0-1.541-1.574-2.548-2.825-1.788zM38.398 20.91c-1.65.987-.949 3.823.929 3.823.967 0 1.896-1.007 1.896-2.035 0-1.541-1.574-2.548-2.825-1.788zM59.448 28.72c-1.65.986-.948 3.822.93 3.822.967 0 1.896-1.007 1.896-2.035 0-1.54-1.574-2.548-2.826-1.788zM27.019 33.24c-1.65.987-.948 3.823.929 3.823.967 0 1.896-1.007 1.896-2.035 0-1.54-1.574-2.548-2.825-1.787zM42.19 41.46c-1.65.987-.948 3.823.93 3.823.967 0 1.896-1.007 1.896-2.034 0-1.542-1.574-2.549-2.825-1.788zM68.741 41.46c-1.65.987-.948 3.823.93 3.823.966 0 1.896-1.007 1.896-2.034 0-1.542-1.574-2.549-2.826-1.788z"/></g><defs><clipPath id="a"><path fill="#fff" transform="translate(.26 .072)" d="M0 0h97.099v105.217H0z"/></clipPath></defs></svg>