<?xml version="1.0" encoding="utf-8"?>
<!-- Generator: Adobe Illustrator 24.0.1, SVG Export Plug-In . SVG Version: 6.00 Build 0)  -->
<svg version="1.1" id="Capa_1" xmlns="http://www.w3.org/2000/svg" xmlns:xlink="http://www.w3.org/1999/xlink" x="0px" y="0px"
	 viewBox="0 0 470.2 471" style="enable-background:new 0 0 470.2 471;" xml:space="preserve">
<style type="text/css">
	.st0{opacity:0.15;}
	.st1{fill:#99693A;}
	.st2{fill:#4C2F19;}
</style>
<g class="st0">
	<path class="st1" d="M199,160.8c-0.1,17.5-13.4,30.8-30.6,30.9c-15.6,0.1-30.5-15-30.4-30.6c0.2-18.9,12.8-32.3,30.3-32.2
		C185.6,129,199.1,143,199,160.8z M159,172.3c0-4.3-1.3-7.1-4.9-7.1c-3.4,0-5.2,2.7-5.2,6.1c0,3.4,2.2,4.4,5.3,4.6
		C157.4,176.2,159.1,174.9,159,172.3z M179.7,152c0.2,3.4,2.3,5,5.2,4.7c3.1-0.3,5.1-2.3,5-5.7c-0.1-3.1-1.9-5.1-5-5
		C181.4,146.2,180,148.8,179.7,152z M149.1,153.9c3.1-0.2,5.3-1.8,5.5-4.7c0.2-3.5-2.5-5.6-5.6-5.8c-3.2-0.3-4.7,2.5-4.7,5.3
		C144.2,151.6,146,153.6,149.1,153.9z M168.9,144c3.4,0,5.4-2,5.4-5.1c0-2.8-1.8-5-5.1-4.9c-3.5,0.1-5.1,2.6-5.2,5.5
		C164,142.3,165.8,144.1,168.9,144z M165,158.9c2.6-0.4,4.8-1.7,4.7-5c-0.1-2.8-1.9-4.2-4.6-4c-3,0.2-5.1,1.9-5.2,5
		C159.9,157.8,162,158.9,165,158.9z M178,169.8c-0.1-3.1-1.6-5-4.8-5c-3.1,0-4.4,2-4.3,4.8c0.1,3.3,2.4,4.8,5.2,4.8
		C176.5,174.5,178.1,172.6,178,169.8z M164.6,188c1.9-1.1,4.2-2.3,4.3-5.5c0.1-2.5-1.2-3.7-3.7-3.6c-3.7,0.2-4.8,2.8-4.9,5.8
		C160.2,186.8,161.9,187.9,164.6,188z M192.7,174.1c-0.7-2.5-1.8-4.7-4.5-4.5c-2.5,0.2-4.5,1.9-4.2,4.6c0.2,2.8,2.6,3.7,5.1,3.7
		C191.3,177.8,192.5,176.3,192.7,174.1z"/>
	<path class="st1" d="M370.6,247.9c0.8-19.7,12.1-31.8,30.1-32c17.2-0.2,31.1,14.4,30.9,31.9c-0.1,17.8-13.8,31.2-31.6,30.9
		C384.7,278.5,370.4,263.5,370.6,247.9z M391.7,257.7c-0.4-2.7-1.8-5.6-5.3-5.5c-3.3,0.1-5.3,3-5.3,6.2c0,3.4,2.5,4.5,5.8,4.6
		C390.4,263.1,391.6,261.4,391.7,257.7z M417.4,233c-3.4,0.4-5,2.9-5.2,5.8c-0.2,3,1.6,5.1,4.9,5c3.3-0.1,5.4-1.9,5.6-5.2
		C423,235.1,420.3,233.9,417.4,233z M382.1,240.9c2.8-0.2,4.9-1.5,4.7-4.8c-0.1-3.1-1.6-5.4-5.2-5.3c-3.4,0.1-4.6,2.4-4.7,5.2
		C376.7,239.3,378.6,240.8,382.1,240.9z M401.8,231c3.1-0.1,5-1.6,5-4.8c0-3.1-1.8-5.2-4.9-5.1c-3.3,0.1-5.1,2.3-5.1,5.6
		C396.8,229.8,398.9,230.9,401.8,231z M406,251.8c-3.2-0.2-4.8,1.8-4.9,4.5c-0.2,3.1,1.9,5,4.8,5.3c3,0.3,4.7-1.7,4.8-4.5
		C410.7,254.1,409.3,252,406,251.8z M396.7,245.9c3.2,0.1,5.3-1.4,5.5-4.5c0.2-2.4-0.9-4.7-4-4.5c-2.9,0.2-5.2,1.2-5.5,4.6
		C392.5,244.3,393.7,246,396.7,245.9z M401.8,269.8c-0.4-2.4-1.6-4-4-3.7c-2.8,0.4-5,1.9-5,5.2c-0.1,2.4,1.2,4.1,3.5,3.9
		C399.3,274.9,401.2,272.8,401.8,269.8z M424.9,261c-0.3-2.4-1.6-4.3-4.4-4c-2.3,0.2-4.3,1.9-4.2,4.1c0.2,2.4,2.4,3.8,5,3.9
		C423.8,264.9,424.8,263.6,424.9,261z"/>
	<path class="st1" d="M125.8,59.6c0-16.2,13.4-29.2,29.9-29.1c17.7,0.1,31.9,14.5,31.8,32.4c-0.1,16.3-13.5,29.7-29.6,29.6
		C139.2,92.3,125.8,78.6,125.8,59.6z M148.8,83c2.8-0.2,5.8-1,5.7-4.6c-0.1-3.2-2.3-5.9-5.7-6c-3.2-0.1-5.1,2.1-5.1,5.5
		C143.8,81.1,145.3,82.9,148.8,83z M167.5,40.8c-3.8,0-5.6,1.5-5.7,4.8c-0.1,3.4,1.6,5.7,4.8,5.8c3.3,0.1,5.1-2.4,5.1-5.6
		C171.7,43,170.3,40.8,167.5,40.8z M134.1,55.8c-3.1-0.2-4.9,1.5-5,4.3c-0.1,3,1.4,5.7,4.9,5.7c3.2,0,5.5-2.1,5.5-5.3
		C139.5,57.6,137.1,56.1,134.1,55.8z M147.6,37.8c-3.9,0-5.5,2-5.5,5c0,3,1.9,5.1,5,5c2.9-0.1,5-1.7,4.9-5
		C151.9,39.6,150.2,37.9,147.6,37.8z M145.8,58.7c0.2,2.4,1,4.2,3.8,4.2c3.4,0,5.5-1.9,5.7-5c0.1-2.4-1.5-4.7-4.2-4.7
		C147.9,53.3,146.3,55.6,145.8,58.7z M169.9,66.4c-0.2-2.1-1.9-3.6-5-3.6c-2.9,0-4.2,1.4-4.2,4.2c0.1,3.5,1.9,5,5.3,5
		C169,71.9,170.1,70.3,169.9,66.4z M168.8,83.2c-0.4-2.3-1.3-4.3-4-4.2c-2.9,0.2-4.5,2.3-4.6,5c0,2.2,1.3,4.5,3.7,4.7
		C167.5,88.9,167.8,85.7,168.8,83.2z M180.3,59.9c-3.1,0.1-4.2,2.2-4.2,4.6c0,2.6,2,3.6,4.4,3.4c2.4-0.1,4.2-1.3,4.2-3.9
		C184.7,61.3,182.8,60,180.3,59.9z"/>
	<path class="st1" d="M343,397.3c0.1,17.7-14.3,32.5-31.7,32.4c-15.1-0.1-28.6-12.7-29.1-25.3c-1-22.4,12.2-37.5,31-37.6
		C329.5,366.7,342.9,380.4,343,397.3z M330.7,395.9c-3.3,0.5-5.6,2.3-5.7,5.7c0,3.2,2.5,4.8,5.2,4.8c3.2,0,5.8-1.8,5.5-5.6
		C335.6,397.9,333.9,396.1,330.7,395.9z M294.4,392.7c-3,0.3-5.7,1.5-5.3,5c0.3,2.9,2.2,5.9,5.2,5.8c3.1-0.1,5.3-2.8,5.4-6.1
		C299.8,394,297.7,392.7,294.4,392.7z M309,377.9c-0.1-3.7-1.3-6-4.6-5.9c-3.2,0.2-5.3,2.3-5.4,5.4c-0.1,3.4,2.5,5.1,5.5,5
		C307.5,382.5,309.3,380.5,309,377.9z M330.8,383.3c0.2-4.5-1.8-6.2-4.7-6.3c-2.8-0.1-5.2,1.2-5.3,4.6c-0.1,3.4,1.6,5.3,5.1,5.3
		C329,386.9,330.7,385.2,330.8,383.3z M310.8,403.7c-3,0.2-5,1.5-4.9,4.8c0.1,3,1.7,5.1,4.8,5.1c3.2,0,4.8-2.4,4.7-5.3
		C315.2,405.9,314.3,403.4,310.8,403.7z M313,386.8c-3,0.1-5.2,1.2-5,4.3c0.2,3,2.4,4.7,5.4,4.7c2.7,0.1,4.4-1.5,4.5-4.2
		C318,388.3,315.9,387,313,386.8z M294.9,417.9c2.6,0.1,5.1-0.3,5-3.8c-0.1-2.9-2.3-4-4.7-4c-2.7,0.1-4.8,1.9-4.9,4.7
		C290.2,417.6,292.4,418.1,294.9,417.9z M323.8,421.1c-0.1-2.4-1.2-4.2-4.1-4.2c-2,0-4,0.7-4,3.3c0,2.7,1.1,5.1,4,5.2
		C322.1,425.5,323.7,424,323.8,421.1z"/>
	<path class="st1" d="M239.9,377c-18.8-0.3-31.8-14.1-31.9-33.2c-0.1-18.1,16.4-29.1,30.5-28.8c17.9,0.3,31.7,15,31.3,33.3
		C269.4,364.3,256,377.2,239.9,377z M236.9,363.1c-0.7-3.6-2.5-6.2-6.2-6.1c-3.2,0.1-4.7,2.7-4.6,5.5c0.1,2.8,1.4,5.5,4.8,5.1
		C233.6,367.4,236.6,366.8,236.9,363.1z M248.9,336c3.3-0.1,4.9-1.9,5.1-5.3c0.2-3.2-1.3-5.4-4.4-5.5c-3.1-0.1-5.5,1.5-5.6,5
		C243.9,333.3,245,335.8,248.9,336z M211.7,345.1c0.1,3,1.4,5.5,4.6,5.5c3,0,5.5-1.8,5.5-5.3c0-3.5-2.6-5.1-5.6-5.1
		C213.3,340.2,211.5,342,211.7,345.1z M234.7,327.4c-0.3-2.8-1.9-5-4.8-5.2c-3-0.3-5.1,1.6-5.3,4.7c-0.1,2.8,1,5.6,4.2,5.7
		C231.8,332.6,234.2,330.9,234.7,327.4z M248.9,356.8c1.8-0.3,4-1.4,3.8-4.6c-0.2-3.2-2.1-5.3-5.5-5.2c-2.5,0.1-4.5,1.4-4.4,4.4
		C243,354.6,244.3,356.9,248.9,356.8z M232.2,347.8c2.6-0.6,5.2-1.6,5.5-4.8c0.3-2.9-1.5-4.8-4.3-5c-3.3-0.2-4.7,2.3-5.2,5
		C227.7,345.6,229.5,347.1,232.2,347.8z M250.8,368.1c0-2.3-0.4-4.2-3.1-4.3c-2.9-0.1-4.7,1.4-4.9,4.3c-0.2,2.8,1,5.3,3.9,5.2
		C249.7,373.3,250.2,370.3,250.8,368.1z M258.6,349.2c-0.4,2.1,1.3,3.3,3.7,3.4c2.7,0.2,4.4-1.2,4.5-4.1c0.1-2.9-1.9-4.3-4.3-4.4
		C259.9,344.1,258.9,346,258.6,349.2z"/>
	<path class="st1" d="M164.7,355.6c17.2-0.1,31,13.7,31.1,31c0.1,18.3-12.8,31.4-30.9,31.5c-15.7,0.1-30.1-14.4-30.1-30
		C134.8,369.1,147.2,355.6,164.7,355.6z M155.9,397.2c-0.3-2.5-1.6-5.2-5.2-5.2c-3.2,0-5,2.6-5.2,5.7c-0.3,3.7,2.4,4.8,5.4,5.1
		C154.3,403.1,155.8,401.2,155.9,397.2z M176.8,377.7c-0.3,3.9,1.5,5.8,4.2,5.8c3.2,0,5.8-1.7,5.8-5.4c0-3.4-1.9-5.2-5.3-5.3
		C177.8,372.8,177.2,375.7,176.8,377.7z M145.1,369.9c-2.3,0.8-3.9,2.7-4.1,5.5c-0.2,3.3,2.2,4.8,5,4.9c2.8,0.1,5.4-1.4,5.4-4.6
		C151.3,372.5,149.1,370.4,145.1,369.9z M171,365.8c-0.1-3.2-1.6-5-4.9-4.9c-3.2,0.1-5,1.9-5.1,5c-0.1,3.2,1.9,4.9,5,5
		C169.3,370.8,170.9,369,171,365.8z M170.4,401c2.5-0.2,4.4-1.5,4.4-4.6c0-3-1.7-5.2-4.7-5.3c-2.8-0.2-4.8,1.9-4.9,4.6
		C165.2,398.6,167,400.5,170.4,401z M166.8,380.9c-0.4-2.8-2-4.5-4.5-4.4c-3,0.1-5.5,1.5-5.4,5.1c0,2.6,1.6,4.1,4.1,4.1
		C163.9,385.6,166.2,384.2,166.8,380.9z M161.5,414.8c2.3-1.1,4.6-2.6,4.4-6c-0.1-2.7-2-3.2-4.2-3c-3.1,0.4-4.8,2.2-4.6,5.3
		C157.2,413.4,158.6,414.7,161.5,414.8z M189.5,400.9c-0.5-2.3-1.4-4.6-4.1-4.8c-2.4-0.2-4.5,1.2-4.7,4.1c-0.2,3.3,2.3,4.2,4.8,4.5
		C188.1,405,188.9,403,189.5,400.9z"/>
	<path class="st1" d="M354.7,109.4c0.6,17.8-13.3,33.7-30.6,33.3c-18.3-0.4-29.6-10-30.6-30c-0.8-16.9,13.9-32.2,30.9-32.7
		C336.5,79.6,353.7,89.6,354.7,109.4z M306.1,105.9c-2.9,0.4-5.4,1.4-5.4,5.1c0,3.4,2.2,5.5,5.2,5.7c3.2,0.2,4.9-2.4,5-5.6
		C311.1,107.8,309.6,106,306.1,105.9z M347.7,114.3c-0.7-2.9-2.2-5.3-5.3-4.9c-3,0.4-5.9,2-5.6,5.8c0.2,3.1,2.3,4.8,5.4,4.6
		C345.5,119.5,347.3,117.5,347.7,114.3z M310.7,89.9c-0.1,4.2,2,5.8,4.9,5.9c2.9,0.1,5.1-1.3,5.2-4.6c0.1-3.4-1.7-5.6-4.8-5.7
		C312.9,85.3,310.9,87.4,310.7,89.9z M342.7,95.3c-0.2-3.2-2.4-4.9-5.2-5c-3-0.2-5.3,1.9-5.4,4.8c-0.1,3.3,2.5,5.2,5.4,5.4
		C340.7,100.6,342.2,98.2,342.7,95.3z M326.8,121.7c-0.2-2.8-1.4-4.9-4.5-4.8c-2.8,0.1-5,1.6-5,4.4c0,2.7,1.1,5.4,4.6,5.5
		C325.1,126.8,326.5,124.8,326.8,121.7z M324.7,109c3.2,0.2,4.8-1.7,4.8-4.5c0-3-2.6-4.3-5.1-4.4c-2.4-0.1-4.6,1.1-4.7,4
		C319.7,107.4,321.7,108.9,324.7,109z M306.9,123.8c-2.8,0.1-4.9,1.3-4.9,4.3c0,2.6,1.8,3.9,4.2,3.7c2.5-0.2,5.2-1.2,5.4-4.1
		C311.8,124.8,309.4,124,306.9,123.8z M331,130c-1.7,0.7-4.2,0.9-4.1,3.8c0.2,2.8,1.9,4.7,4.6,4.9c2.7,0.3,3.8-2,3.9-4.2
		C335.7,131.9,334,130.4,331,130z"/>
	<path class="st1" d="M6.9,332.8c-6.2-6.9-7.7-15.3-6.5-24.1C2.2,295.6,14,284.1,26.9,282c12.5-2,25.2,4.6,31.1,16.2
		c6.3,12.3,3.8,27.3-6.2,37.2C37.2,349.7,16,345.8,6.9,332.8c2.2,0,4.3,0.2,6.5,0c1.9-0.2,3.4-1.2,3.6-3.5c0.1-2.3-1.4-3.3-3.1-4
		C9.8,323.8,7.1,326.8,6.9,332.8z M10.8,318.6c2.9,0,6.2-4.1,5.9-6.8c-0.3-3-2.4-4.6-5.1-4.4c-2.8,0.1-5.7,1.2-5.8,4.9
		C5.9,315.7,8.5,317.3,10.8,318.6z M47.5,321c3.3,0,5.5-1.5,5.3-5.1c-0.2-3-2-5.1-5.1-4.9c-3.4,0.2-5.7,2.2-5.7,5.7
		C42.1,320.1,44.6,321.1,47.5,321z M25.9,292.2c0.3-3.3-1.7-5.1-4.7-5c-3,0.1-5.4,1.9-5.3,5.3c0.1,3.4,2.6,5.1,5.6,5.1
		C24.5,297.5,26.3,295.5,25.9,292.2z M42.9,301.9c3.5-0.1,4.8-2.3,4.9-5.2c0.1-3.4-2.2-4.8-5.1-4.7c-2.9,0.1-5.3,1.8-5.3,4.8
		C37.4,300.1,39.9,301.5,42.9,301.9z M32,323.2c0.2-2.7-1.2-4.9-4.1-4.8c-2.8,0.1-5.1,1.8-5,5.1c0.1,2.8,1.7,5,4.4,5.1
		C30.3,328.7,32.1,326.7,32,323.2z M34.9,306.6c-0.2-3.1-1.8-4.6-4.7-4.7c-2.8-0.1-5.1,0.8-5.2,3.9c-0.1,3.1,1.9,4.9,5,5.1
		C32.9,311,34.6,309.5,34.9,306.6z M36.8,331.8c-2.3,0.1-4.5,0.7-4.5,3.1c0.1,2.5,1.3,5.1,4.2,5.5c2.5,0.3,4-1.6,4.2-4
		C41,333.6,39.4,332.1,36.8,331.8z"/>
	<path class="st1" d="M470.2,434.7c-0.1,17.7-13.6,31-31,30.8c-15.5-0.2-30-14.9-30-30.3c0.1-19,12.9-32.6,30.5-32.4
		C456.9,403,470.3,417,470.2,434.7z M430.4,444.7c-0.3-2.8-1.5-5.5-4.9-5.6c-3.5-0.1-5.4,2.3-5.7,5.7c-0.3,3.6,2,4.8,5.3,5.1
		C428.9,450.3,430,448.1,430.4,444.7z M461.6,425.1c-0.7-3-2.5-5.2-5.7-5.1c-3.6,0.2-5,3.1-5,6.2c0.1,2.7,1.6,4.8,4.8,4.5
		C459.1,430.5,461.1,428.6,461.6,425.1z M440.2,417.9c3.8,0.1,5.5-2,5.4-5.2c-0.1-2.8-2-4.7-4.8-4.7c-3.2,0-5.2,1.7-5.2,5.2
		C435.6,416.6,437.1,418.1,440.2,417.9z M415.6,422.9c0.2,3.1,1.7,5,4.9,4.8c2.9-0.2,5.1-2,5.1-5c0-3.1-1.8-5.2-5.4-5
		C417,417.9,415.7,419.9,415.6,422.9z M436.2,432.8c2.9-0.2,4.7-1.7,4.6-5c-0.1-2.8-1.8-4.2-4.6-4c-3,0.2-5.1,1.9-5.2,4.9
		C430.8,431.8,433.1,432.9,436.2,432.8z M444.7,448.5c2.9-0.5,4.9-2.1,4.7-4.9c-0.2-2.8-2-5-5.2-4.9c-3.2,0.1-4.2,2.5-4.3,5.1
		C439.8,446.8,442.2,447.8,444.7,448.5z M431.7,458c-0.1,2.3,0.9,3.9,3.4,3.9c3.4-0.1,5.1-2.5,5.4-5.4c0.2-2.3-1.6-3.6-3.9-3.4
		C433.6,453.2,431.5,454.6,431.7,458z M458.7,443.7c-2.3,0.3-3.9,2.1-3.7,4.6c0.2,2.5,2.6,3.4,4.8,3.4c2.5,0,4.1-1.7,3.8-4.2
		C463.4,445.1,461.8,443.7,458.7,443.7z"/>
	<path class="st1" d="M3.7,32.5C3.5,16.2,18.5,1.1,34.9,1.1c14.4,0,29.9,11.8,30,30.5c0.1,17.6-14,32.3-31.3,32.4
		C20.6,64,3.7,54.5,3.7,32.5z M10.8,32c0,2.7,2.6,5.8,5,5.9c2.4,0.2,6.1-3.7,5.8-6.4c-0.2-3.1-2.3-4.7-5.3-4.6
		C13.2,27.1,10.8,28.3,10.8,32z M52.9,15.9c-0.6-2.6-2.1-4.9-5.1-4.7c-2.9,0.1-5.7,2-5.5,5.2c0.1,3.1,2.8,5.1,5.8,5
		C50.8,21.4,52.8,19.4,52.9,15.9z M51.4,30.9c-1.7,0.3-4.4,1.6-4.4,4.9c0,3.3,2.3,5.2,5.6,5c3-0.1,5.1-2,5.1-5.1
		C57.7,32.9,56.2,30.7,51.4,30.9z M26.2,6.8c-3.1,0.1-5.2,1.4-5.2,4.7c0,3.1,1.9,5.1,4.8,5.3c3.1,0.2,4.9-1.7,5.1-4.9
		C31,8.7,29.4,7,26.2,6.8z M37,42.9c-0.1-2.9-1.3-5-4.4-5c-3.2,0-4.8,1.8-4.8,5c0,2.9,1.3,4.8,4.4,4.9C35.5,48,36.9,46,37,42.9z
		 M34.9,21c-2.7,0.5-5.1,1.2-5,4.5c0.1,3.3,2.4,4.9,5.2,4.9c2.4,0.1,4.6-1.5,4.7-4.2C39.9,23,37.6,21.7,34.9,21z M21.9,48.7
		c-0.5-2.8-2.3-3.8-4.9-3.9c-3.1-0.1-4.7,1.7-4.9,4.5C12,51.6,13.8,53,16,52.7C18.5,52.4,21.5,52.3,21.9,48.7z M41.6,51
		c-1.9,0.7-4.6,0.8-4.4,3.7c0.2,2.6,1.6,5,4.6,5.1c2.5,0.1,3.9-1.6,4-4.1C45.9,52.9,44.4,51.3,41.6,51z"/>
	<path class="st1" d="M113.1,214.8c0,16.2-13.2,29.3-29.2,29.2c-19.2-0.1-32.3-13.5-32.2-33.1C51.7,195,65,182,81.3,182
		C99.2,182,113.1,196.3,113.1,214.8z M80,229.4c-0.3-2.8-1.9-5.3-5.4-5.3c-3.3,0-5,2-4.9,5.5c0.1,3,1.2,5.4,4.6,5.1
		C77,234.4,80.1,233.9,80,229.4z M87.7,197.1c0,3.6,1.3,5.7,4.6,5.8c3.6,0.1,5.2-2.5,5.3-5.5c0.1-3.2-2.2-5.4-5.4-5.3
		C89.1,192.3,87.4,194.3,87.7,197.1z M67.8,194.8c0.4,2.5,1.5,5.1,4.8,4.8c2.9-0.2,5.4-1.9,5.2-5.4c-0.1-3-1.8-5.1-4.9-5.1
		C69.6,189,68,191.2,67.8,194.8z M65,212.5c0.1-4.1-2.8-5.2-5.5-5.3c-2.7-0.1-4.4,2.1-4.6,4.9c-0.2,3.2,1.9,5.2,4.7,5.3
		C62.6,217.6,64.8,215.6,65,212.5z M90.6,214c-2.7,0.4-4.7,1.8-4.5,4.5c0.2,3,1.7,5.6,5.3,5.3c2.7-0.3,4.7-1.7,4.4-4.9
		C95.5,215.7,93.6,214.2,90.6,214z M75.7,214.8c2.5-0.9,5.2-1.9,5.2-5.5c0-2.5-1.3-4.3-3.8-4.4c-3.4-0.2-5.1,2-5.3,5.3
		C71.6,212.8,73,214.3,75.7,214.8z M94,235.3c0-3.2-1.1-4.8-3.8-4.5c-2.6,0.3-4.2,1.8-4.2,4.5c0,2.9,1.7,5,4.4,4.9
		C93.4,240.1,93.9,237.3,94,235.3z M106,219.8c2.6-0.4,4.7-1.6,4.6-4.3c-0.2-2.9-2.6-4.3-5.2-4.3c-2.6,0.1-3.3,2.5-3.4,4.7
		C101.8,218.6,103.7,219.5,106,219.8z"/>
	<path class="st1" d="M258.4,255.4c0-16.4,15-31.4,31.3-31.4c16.1,0,29.9,14.1,30,30.7c0.1,17.6-14.5,32.6-32,32.2
		C273.9,286.6,258.4,276.4,258.4,255.4z M306.8,263.9c3.3-0.1,5.6-1.7,5.8-4.9c0.2-2.9-1.2-5.2-4.6-5.2c-3.4,0-5.8,1.3-6.1,5
		C301.5,262.3,304,263.3,306.8,263.9z M276,254.3c-0.3-2.8-1.8-4.6-5.1-4.4c-3.1,0.3-5.4,1.6-5.2,5.2c0.2,3.2,2.1,5.6,5.1,5.6
		C274.3,260.7,275.8,257.9,276,254.3z M307.7,239.2c-0.7-2.9-2.3-5.1-5.3-4.8c-3,0.2-5.5,1.9-5.3,5.3c0.2,3.3,2.8,4.9,5.8,4.8
		C305.9,244.4,307.3,242,307.7,239.2z M275.7,235.3c0.1,2.9,2.2,4.5,5.1,4.5c2.9,0,5.1-1.5,5-4.9c-0.1-3.4-1.7-5.3-5.2-5.1
		C277.4,230,275.8,231.7,275.7,235.3z M291.8,266c-0.1-2.9-1.1-5-4.2-5.1c-3.2-0.1-5.2,1.9-5.3,4.7c-0.1,2.6,1.1,5.3,4.6,5.3
		C290.2,270.9,291.7,269.1,291.8,266z M294.8,248.6c-0.7-3-2.8-4.5-5.7-4.4c-2.4,0.1-4.5,1.4-4.3,4.4c0.2,3.2,2.5,4.9,5.3,4.8
		C292.6,253.4,294.5,251.6,294.8,248.6z M271.5,275.8c2.4-0.4,5.1-0.8,5.2-4.1c0-2.8-2.1-3.9-4.7-4c-2.9-0.1-5,1.3-5,4.3
		C266.9,274.7,268.8,275.7,271.5,275.8z M300.6,278.6c-0.3-2.7-1.7-4.6-4.4-4.4c-2.1,0.1-4.5,0.9-4.3,3.8c0.2,2.8,1.7,4.7,4.7,4.8
		C299.4,282.9,300,280.6,300.6,278.6z"/>
	<path class="st1" d="M369.3,181.8c1.1,3.6,1.7,5.9,6,4.7c3.7-1.1,6.4,2.7,5.7,6.8c-2.5,13.7-14.8,24.6-28.8,25.7
		c-13.3,1-24.9-7.7-30.4-20.4c-8.3-19.1,8.3-38,23.6-41.4c1.6-0.4,4.5-1.7,4.9,0c0.4,2,2.2,4,0.7,6.5c-2.5,4.4,2.4,7.8,2.3,12.1
		c0,1.5,2.6,1.2,4.3,0.8c1.1-0.3,3.7-0.6,3.1,1.4c-0.8,2.8-0.9,5,1.7,6.5C365.1,185.9,367.1,184.1,369.3,181.8z M369.9,193.8
		c-3.4,0-5.6,1.8-5.7,4.9c-0.1,3.1,2,5.1,5.4,5.1c3.4,0,5.2-1.7,5.2-5.2C374.8,195.6,373.2,193.8,369.9,193.8z M337.9,186
		c0.2-3.2-1.8-4.9-4.5-4.8c-3.1,0.1-5.9,1.6-5.7,5.4c0.1,3,2,5.2,4.9,5.3C336.1,191.9,337.6,189.2,337.9,186z M346,168.4
		c0-3.3-1.1-5.5-4.5-5.5c-3.1,0-5.2,1.8-5.4,4.8c-0.2,3,1.9,4.9,4.9,5.2C344.1,173.2,345.8,171.4,346,168.4z M358.9,212
		c0.1-3.1-1.8-4.8-4.5-4.8c-2.9,0-5.6,1.5-5.5,5c0.1,3.1,2.2,4.7,5.2,4.8C357.4,217,358.8,215,358.9,212z M355.8,197.1
		c-0.1-2.9-1.1-5-4.3-5.1c-3.2-0.1-5.2,1.9-5.3,4.8c-0.1,2.6,1.5,4.8,4.5,5.1C354.2,202.2,355.3,199.8,355.8,197.1z M350.1,186
		c1.6,0.1,3.4-1.7,3.4-4.5c0-2.8-2.2-4.4-5-4.6c-2.9-0.2-5.2,1.4-5.2,4.1C343.4,183.9,345.4,185.9,350.1,186z M332.6,206.9
		c2.7-0.1,5.1-0.9,5.1-4c0-2.8-2-4-4.7-3.9c-2.8,0.1-4.9,1.8-5,4.5C328,206,330.1,207,332.6,206.9z"/>
	<path class="st1" d="M137.5,319.6c-3.4,1.2-5.4,2.3-3.7,6.6c1.4,3.6-2.3,6.6-6.5,6.1c-13.8-1.5-24.2-10.5-27.9-24.2
		c-2.9-10.6,1.9-23.9,10.9-30.6c17.5-12.9,42.1-5.2,49.4,15.6c1.5,4.3-1.2,7.8-5.4,6.2c-5.2-1.9-7.6,3.7-12.1,3.3
		c-1-0.1-1.4,2.5-0.7,4.4c0.7,1.8,1.6,4.5-2.6,3.3c-1.8-0.5-3.6,0.6-4.5,2.4C132.9,315.7,135.4,317.2,137.5,319.6z M128.4,288.8
		c4.6,0.3,6.2-1.8,6.2-4.7c0.1-3.4-1.8-5.9-5.2-6c-3.3,0-6,2.4-6,5.5C123.4,286.8,126.4,288.5,128.4,288.8z M120.8,326.9
		c3-0.1,5-1.4,5.1-4.7c0.1-3.7-2-5.8-5.3-6c-3.2-0.2-4.7,2.1-4.8,5.2C115.7,324.7,117.2,326.7,120.8,326.9z M110.9,307.8
		c-0.1-3.4-2-5.5-5.1-5.5c-3,0-4.8,2.4-4.9,5.3c-0.1,3.5,2.5,5.1,5.5,5.1C109.1,312.6,111,310.9,110.9,307.8z M148,294.9
		c3.1-0.1,5.6-1.3,5.7-4.4c0-3-1.7-5.4-5-5.6c-3.3-0.2-4.8,2-5.1,4.9C143.3,292.8,145,294.6,148,294.9z M121.1,298
		c-2.8,0.7-5.4,1.6-5.2,5.1c0.2,2.9,1.9,4.7,4.8,4.7c2.6,0,5.1-1,5.1-4.2C125.8,300.4,124,298.7,121.1,298z M140.3,298.3
		c-0.4-2.4-1.1-4.7-4.2-4.5c-3.5,0.2-5,2.7-5,5.6c0,2.5,2,4.3,4.6,4.3C139.1,303.7,139.9,301.1,140.3,298.3z M112,280.8
		c-3.1,0.3-3.3,2.4-3.1,4.7c0.2,2.7,1.3,5.1,4.3,5c2.6-0.2,3.8-2.5,3.6-5C116.5,282.6,114.7,281.1,112,280.8z"/>
	<path class="st1" d="M100.2,368.9c1.4,2.9,2.2,5.5,6.3,3.5c3.1-1.5,6.6,2,6.4,5.6c-0.5,14.1-11.7,26.9-26,29.7
		c-12.4,2.4-26.6-5.1-32-17c-6.6-14.5-3-29.1,9.5-38.8c2.6-2,5.4-3.9,8.6-4.9c1.6-0.5,4.2-2.3,4.9-0.6c0.8,1.8,2.8,3.8,1.5,6.3
		c-1.1,2.2-0.7,4.2,1.3,5.8c0.8,0.6,1.5,1.1,1.4,2.4c-0.4,4.3,1.6,5.3,5.5,3.9c1.3-0.5,3.4-1.2,3.2,1.6c-0.2,2.3,0,4.4,2.4,5.5
		C96.2,373.1,98,370.9,100.2,368.9z M69.9,377.2c-0.3-3.1-2-5.2-5-5.2c-3.1,0-5.6,1.8-5.8,5c-0.2,3.4,2.2,6,5.3,6.2
		C67.9,383.5,69,380.1,69.9,377.2z M103.4,379.9c-3,0.9-6.1,1.8-6.3,5.4c-0.1,3.1,2.1,5,5,5.2c3,0.1,5.5-1.4,5.7-4.9
		C108,382.5,106.1,380.8,103.4,379.9z M88.8,405.6c2.8-0.6,5-2,5.1-5.2c0.1-3.2-2.1-5.1-4.9-5.1c-2.8,0-5.1,1.7-5.1,5
		C83.7,403.6,86,404.7,88.8,405.6z M70.8,363c3.2,0.2,4.8-1.8,4.8-4.5c0-2.7-1.4-5.4-4.6-5.5c-3.2,0-5.4,1.6-5.2,5.2
		C65.8,361.4,67.7,362.9,70.8,363z M88.8,385.6c-0.7-2.6-1.5-5.1-4.8-4.8c-3,0.2-5.1,2-5,5.1c0,2.7,1.9,4.8,4.7,4.8
		C86.8,390.7,88.4,388.5,88.8,385.6z M84,370.8c0.1-3.2-2-4.6-4.6-4.7c-2.6,0-5.2,1.4-5.2,4.3c0.1,3.2,2.5,4.4,5.5,4.5
		C82.6,375,84.1,373.7,84,370.8z M66.1,397.9c2.9-0.2,5.5-1.2,5.5-4.4c0-2.8-2.6-3.6-5-3.6c-2.9-0.1-4.6,1.6-4.7,4.5
		C61.8,397.2,63.6,398,66.1,397.9z"/>
	<path class="st1" d="M372.5,325.7c-2.1,11.2-9.9,17-19.6,21.2c-12.4,5.3-22.5,0.1-31.1-7.7c-8.9-8-11.1-19-8.9-30.7
		c0.5-2.5,5-3.4,7.2-0.8c3.5,4.2,8.3,0.7,12.2,2.9c1.2,0.7,2.6-1.8,2.8-3.9c0.1-1.2,0.6-3.7,3-2c1.9,1.4,3.9,2.1,5.9,0.6
		c2.6-1.9,1.6-4.4,0.7-7.1c3.2-0.2,5.9,0,6.5-4.7c0.4-3.7,4.8-4.4,8.2-2.2c10.2,6.3,17.1,22,13.4,32.7c-0.4-0.9-0.8-1.8-1.3-2.6
		c-1.7-2.8-4-4.6-7.3-2.6c-3.4,2-3,5-1.4,7.7c1.9,3.1,4.6,2.6,7.2,0.7C370.7,326.6,371.6,326.2,372.5,325.7z M329.8,333
		c0,3.6,2.2,6,5.2,5.7c2.7-0.3,5.3-1.2,5.7-4.5c0.3-2.8-3.6-6.5-6.4-6.3C330.8,328.1,330.1,330.7,329.8,333z M361.2,309
		c2.6-0.2,4.4-2.6,4.3-5.8c0-3-2.1-4.5-5.4-4.5c-3.9,0-4.9,2.6-5,5.5C355,307.1,356.8,309.1,361.2,309z M325.9,318.6
		c-0.2-3.5-2.2-4.9-5.5-4.8c-2.9,0.1-4.7,1.7-4.5,4.7c0.1,3.2,2,5.4,5.3,5.3C324,323.6,326.1,321.9,325.9,318.6z M352.9,325
		c1.6,0.1,3.4-1.6,3.5-4.3c0.1-3.5-2.3-4.8-5.5-5c-2.8-0.1-4.3,1.2-4.3,4.1C346.8,323.1,348.3,324.8,352.9,325z M331.7,317.3
		c0,3.1,1.1,4.8,3.9,4.5c3.2-0.3,5.2-2.1,5.3-5.4c0.1-2.9-1.9-4.5-4.3-4.3C333.3,312.3,331.8,314.7,331.7,317.3z M354.6,338.8
		c-0.2-2.2-1.2-3.9-3.6-3.9c-2.8,0-4.8,1.9-4.9,4.5c-0.1,2.5,1.3,5.2,4.2,5.2C353.6,344.5,353.7,341.2,354.6,338.8z"/>
	<path class="st1" d="M259,86.9c0.6,3.2,0.8,5.5,4.9,5.2c4.3-0.3,6.3,3.8,4.7,8c-5.1,13.5-19.8,22.3-33.9,20.3
		c-13.8-1.9-24.2-13.2-25.5-27.9c-1.4-14.7,7.2-27.5,22-32.4c2.5-0.8,5.2-1.4,7.8-1.7c1.7-0.2,4.9-0.9,4.8,0.6
		c0,2.1,1.8,4.4-0.1,6.5c-3.6,4.1,1.5,8.2,0.2,12.4c-0.3,0.9,1.8,1.9,3.6,1.7c2.8-0.4,4.8-0.1,2.8,3.5c-1,1.8-0.2,3.5,1.4,4.8
		C254.3,90,256.4,88,259,86.9z M227.8,84.9c-0.5-3.1-2.7-4.8-5.4-4.7c-2.9,0.1-5.7,1.6-5.4,5.2c0.3,2.8,1.6,5.8,5.2,5.5
		C225.5,90.6,227.3,88.3,227.8,84.9z M261.9,102.9c-0.4-2.7-1.8-4.9-5-4.6c-2.9,0.3-5.7,1.5-5.7,5c0.1,3.3,2.3,5.3,5.4,5.2
		C259.7,108.4,261.9,106.6,261.9,102.9z M233.4,63.1c-2.8,0.6-5.3,2-5.3,5.3c0,2.9,2,5.1,5,5.2c3.3,0.2,5.3-2,5.4-5.2
		C238.6,65.5,236.6,63.7,233.4,63.1z M244.6,114.1c-0.6-2.7-1.8-5.2-5-5c-2.7,0.1-5.4,1.4-5.5,4.5c-0.1,3.2,2,5.2,5.2,5.4
		C242.4,119.1,243.8,116.9,244.6,114.1z M238.6,93.8c-3,0.3-4.9,1.6-4.8,5c0.1,2.8,1.7,4.9,4.5,4.8c3.2-0.1,5.2-2.3,5.1-5.5
		C243.4,95.5,241.9,93.5,238.6,93.8z M243.5,83c-0.5-3.4-2.9-4.6-5.6-4.7c-2.5,0-4.7,1.5-4.4,4.3c0.3,2.8,2.3,5,5.3,5.1
		C241.7,87.8,242.9,85.5,243.5,83z M219.8,105.9c2.8-0.1,4.9-1.2,4.8-4c-0.1-2.7-2.1-4-4.8-4c-2.7,0-4.7,1.1-5,3.8
		C214.7,105.1,217.6,105.4,219.8,105.9z"/>
	<path class="st1" d="M369.8,65.8c-9.4,5.5-24.8,3-32.9-5.7c-9.4-10-12.2-22.2-7.4-34.6c2.9-7.5,9.1-13.8,17-17.2
		c1.8-0.8,5,2.8,4.6,5.6c-0.4,2.8,0,4.9,2.8,6.1c0.9,0.4,1.1,1,1.2,1.9c0.6,4.1,2.5,5.1,6.2,2.7c0.9-0.6,3.1-1.8,3.3,0.8
		c0.3,2.7,0.8,5,3.8,5.5c2.8,0.5,4-1.9,5.4-4.3c2.1,2.5,3.7,5.4,7.6,2.3c0.8-0.7,6-1.4,7,3.3c2.4,12.3-5.3,27.5-16.9,32.6
		c0.4-0.9,0.7-1.8,1.1-2.7c1.5-3,1-5.7-2.2-6.9c-3.2-1.3-6,0.1-7.3,3.2c-1.4,3.2,0.9,4.8,3.4,6C367.7,64.9,368.8,65.3,369.8,65.8z
		 M384.8,41.7c-0.7-2.2-2-4.8-5.1-4.5c-3.2,0.2-5.7,2.3-5.7,5.7c0,3,2.1,5,5.1,4.9C382.2,47.6,384.6,45.9,384.8,41.7z M345.7,41.6
		c0.3-3.8-1.7-5.4-4.7-5.5c-3.2-0.2-5.7,1.7-5.9,4.8c-0.2,3.4,2.4,5.6,5.5,5.9C344.3,47.2,345,43.9,345.7,41.6z M343.5,26.1
		c3.1,0.1,5-1.6,4.8-4.4c-0.2-2.8-1.3-5.7-5-5.7c-3.5,0.1-5.3,2.5-5.3,5.5C338,24.6,340.5,26,343.5,26.1z M361.4,51
		c2.5-0.4,4.4-1.7,4.3-4.7c0-3.1-1.6-5.2-4.7-5.3c-3-0.1-4.7,2.2-4.8,4.7C356.2,48.6,357.9,50.7,361.4,51z M355.1,27.8
		c-3.7,0-6.2,0.9-6.2,4.3c0,3,2.6,4.3,5.1,4.5c2.7,0.2,4.7-1.2,4.9-4.4C359,29.1,357.4,27.7,355.1,27.8z M350.6,56.4
		c-0.5-2.4-2.5-3.3-4.7-3.3c-3.1-0.1-4.9,1.8-5,4.9c0,2.2,1.2,3.9,3.7,3.5C347.3,60.9,350.1,60.1,350.6,56.4z"/>
	<path class="st1" d="M223.8,251.8c-1.1,10-12.3,20.7-23.3,22.1c-22.2,2.9-39.3-14.2-36.6-36.6c0.6-4.8,4.2-6.6,7.7-3
		c3.9,4,8.5,0.6,12.6,2.4c1.2,0.6,2.1-1.9,2.3-3.7c0.1-1.2,0.5-3.7,2.8-2.1c2.1,1.4,4.1,2.3,6.3,0.5c2.5-2,1-4.5,0.5-7.2
		c3.2,0,6,0.2,6.3-4.6c0.3-3.5,5-4.4,8.2-2.3c10.7,6.7,16.2,19.2,14.1,31.7c-0.6-0.8-1.3-1.5-1.8-2.3c-1.8-2.9-4.3-3.8-7.1-1.9
		c-2.5,1.8-3.6,4.4-1.6,7.3c2,2.9,4.5,3,7.2,1C222,252.5,222.9,252.2,223.8,251.8z M186.6,264.9c2.4-0.5,5.3-0.8,5.3-4.4
		c0-3.6-1.9-6.3-5.6-6.4c-3.4-0.1-5,2.6-5,5.7C181.4,262.7,183,264.8,186.6,264.9z M206.8,228.4c-0.2,4.7,1.7,6.9,4.8,7
		c3.1,0.2,4.9-2.3,5-5.2c0.2-3.1-1.3-5.5-4.9-5.5C208.4,224.7,206.9,226.5,206.8,228.4z M172.4,250c3-0.2,5.2-1.7,5.3-4.8
		c0.1-3.3-2.2-5.1-5.3-5.3c-3.3-0.1-5,2.1-5,5C167.4,247.8,169.1,249.9,172.4,250z M192.7,243.4c-0.5-2.8-1.8-5.1-4.7-5.1
		c-3.1,0-4.8,2.3-5.1,5.2c-0.3,2.7,1,4.5,4,4.5C190.1,247.9,191.8,246.1,192.7,243.4z M203.2,251c2.8-0.3,4.7-1.6,4.6-4.7
		c-0.2-3.3-2.3-4.6-5.4-4.5c-2.9,0-4.4,1.9-4.3,4.4C198.1,249.2,199.8,251.2,203.2,251z M205.9,265.5c0-2.4-0.2-4.5-2.9-4.5
		c-3.1,0-5,1.8-5,4.9c0,2.6,1.4,4.7,4.1,4.7C205.3,270.6,205.4,267.6,205.9,265.5z"/>
	<path class="st1" d="M101.7,83.1c9.2,4.6,12.7,23.6,8.5,33.2c-8.5,19.5-32.2,26-49.2,13.3c-3.9-2.9-3.6-7.2,1.1-8.3
		c5.4-1.3,4.5-7.1,8.1-9.6c1.1-0.8-0.5-2.8-2-3.9c-1.9-1.4-3.4-3,0.4-4.2c1.6-0.5,2.6-2.1,2.4-4c-0.2-2.1-1.3-3.5-3.4-3.7
		c-2.9-0.3-2.9-1.3-1.4-3.4c1.1-1.5,0.5-2.6-0.8-3.8c-4.7-4.4-4.3-7.2,1.1-10c11.5-6,26.5-4.1,35.1,4.5c-1-0.1-2-0.1-2.9-0.4
		c-2.7-0.8-4.5,0.1-5.9,2.4c-1.3,2.2-0.8,4.3,0.9,5.9c1.6,1.6,3.7,2.6,5.9,1.4c2.3-1.3,3.6-3.4,2.8-6.3
		C102.1,85.1,101.9,84.1,101.7,83.1z M96.8,119.9c0-3.7-2.2-4.9-4.8-4.8c-3.1,0.1-6.1,1.3-6,5.1c0.1,3.4,2.5,5.5,5.8,5.5
		C95.6,125.7,96.3,122.5,96.8,119.9z M76.5,89c4.5,0.1,6.2-1.8,6.1-4.5c-0.1-3-1.8-5.5-5.2-5.5c-3.3,0-5.5,2-5.3,5.2
		C72.2,87.4,74.7,88.9,76.5,89z M76.9,126.4c0.2-3.4-1.4-5.6-4.3-5.7c-3-0.2-5.4,1.7-5.6,5c-0.2,3.1,1.7,5,4.7,5.2
		C74.7,131,76.4,129.2,76.9,126.4z M88.1,94.8c-3,0.1-5,1.3-5.3,4.6c-0.3,3.6,2.2,4.8,4.8,5c3.1,0.2,4.8-2.1,5.1-5
		C93,96.4,91,95.1,88.1,94.8z M82,112c-0.1-3-1.2-5.2-4.6-5.2c-2.7,0-4.5,1.5-4.4,4.3c0.1,2.9,1.7,5.3,4.8,5.4
		C80.4,116.6,82,114.9,82,112z M99.8,108.9c0.1,3.2,1.7,5,4.9,4.9c2.3,0,4.1-1.2,4-3.5c-0.2-3.2-2.4-5.1-5.6-5.3
		C100.5,104.8,99.7,106.6,99.8,108.9z"/>
	<path class="st1" d="M444.6,126.8c-2.9,15-20,24.8-36,20.6c-14.8-3.9-23.6-15.1-23.8-30.5c0-2.3,0.4-4.7,0.2-7
		c-0.2-2.3,0.3-5.4,1.8-5.5c2.1,0,5.3-0.2,6.7,1.9c3,4.7,8.5,0.8,11.8,3.8c0.1,0.1,0.3-0.1,0.5-0.1c3.2-0.9,1.8-5.6,4.3-6
		c2-0.4,3.8,3.5,6.8,1.9c0.1-0.1,0.4-0.1,0.4-0.2c1.6-3.7,4.5-6.3,6.9-9.3c4.7-5.8,6-7.2,11.4-2.1c8.7,8.4,12.5,18.5,9.4,30.6
		c-0.8-1-1.7-2-2.5-3c-2.1-2.5-4.6-2.8-7-0.7c-2.3,2-2.6,4.8-0.7,7.2c2,2.4,4.7,2.1,7.2,0.5C442.9,128.4,443.2,127,444.6,126.8z
		 M405.3,138c3.6-0.1,6.4-0.6,6.3-4.1c-0.1-3.3-1.8-6-5.7-6.2c-3.9-0.2-4.8,2.7-4.9,5.5C401,136.3,402.7,138.2,405.3,138z
		 M433.6,99.9c-3.5,0.3-4.9,2.2-4.8,5.3c0,3.3,1.4,5.6,4.9,5.6c3.3-0.1,5.1-2.4,5.1-5.6C438.7,101.9,436.5,100.3,433.6,99.9z
		 M398.8,116.8c-0.2-2.7-2.5-4.3-5.2-4.6c-3-0.3-5.2,1.6-5.3,4.6c-0.1,2.8,1.1,5.5,4.3,5.6C395.9,122.6,398.2,120.8,398.8,116.8z
		 M424.4,126c2.6-0.1,4.4-1.6,4.3-4.6c-0.1-3.5-2.5-5.1-5.6-5.1c-2.9,0-4.3,2.2-4.3,5C418.9,124.6,420.9,125.9,424.4,126z
		 M413.7,116.3c-0.6-2.4-1.5-4.6-4.5-4.4c-3.3,0.2-5.3,2.2-5.2,5.5c0.1,2.6,1.8,4.5,4.6,4.2C411.5,121.3,413.2,119.4,413.7,116.3z
		 M421.2,145c2.8-0.6,4.1-2.9,4.3-5.6c0.2-2.2-1.2-4.1-3.5-4.1c-3.1,0-4.9,2.2-5,5.1C417,142.7,418.1,144.7,421.2,145z"/>
	<path class="st1" d="M281.9,192.9c-6.3,8-20.4,11.4-30.9,7.5c-21.6-8.1-27.8-36.3-11.4-52.6c2-2,6.4-0.6,6.8,2.9
		c0.7,5.6,6.9,4.9,8.9,8.9c0.6,1.3,2.9-0.1,4.1-1.5c1.6-2,3.2-3,4.3,0.5c0.6,1.9,2.3,2.8,4.3,2.6c2.1-0.2,3.4-1.5,3.7-3.5
		c0.3-2.3,1.1-2.5,2.8-1.1c1.9,1.6,3.2,1.1,4.9-0.8c2.9-3.2,7.1-2.4,9,1.5c5.5,11.4,3.1,26.4-5.5,34.6c0-1.2,0.1-2.3,0-3.5
		c-0.2-3.4-2.4-5.3-5.5-5c-3.1,0.4-4.9,2.7-4.5,6.1c0.5,3.6,2.9,4.5,6.2,3.8C279.9,193.1,280.9,193,281.9,192.9z M250.7,180.7
		c0-3-1.4-5.3-4.6-5.8c-3.7-0.5-5.6,2-6,5.1c-0.4,3.7,2.5,5,5.6,5.6C249.5,186.4,249.9,183.4,250.7,180.7z M287.8,168.8
		c-0.1-3.8-2.5-5.6-5.4-5.6c-3.2,0-5.1,2.8-5.1,5.7c-0.1,2.8,1.8,5.1,5,5C285.6,173.7,287.3,171.7,287.8,168.8z M241.5,165.7
		c3-0.6,5.2-2.3,5.1-5.3c-0.1-3.2-2.3-5.3-5.5-5.3c-3.5,0-5,2.8-4.9,5.7C236.3,163.8,238.5,165.4,241.5,165.7z M259.9,166.7
		c0-2.9-1.7-4.6-4.2-4.3c-2.6,0.3-5.8,1.3-5.7,4.9c0,3.1,2.5,4.2,5.1,4.3C258,171.6,260,170.1,259.9,166.7z M261.7,178
		c0,3.2,2.1,4.7,5,4.8c2.8,0.1,4.2-1.8,4.1-4.5c0-3.1-1.6-5.2-4.7-5.3C263,172.9,261.9,175.1,261.7,178z M259.9,192.8
		c-0.4-2.5-1.7-3.9-4-3.6c-2.8,0.4-5,1.8-5.1,5.1c-0.1,2.4,1,3.9,3.5,3.7C257.5,197.7,259.3,195.7,259.9,192.8z"/>
	<path class="st1" d="M380.8,449.9c3.7,0,5.5-2.4,5.6-5.6c0.1-2.9-2-5.1-5-5.1c-3.6-0.1-5.4,2.4-5.5,5.7
		C376,447.7,377.4,450,380.8,449.9z"/>
	<path class="st2" d="M365.2,282.1c-4.5-0.2-7-2.5-6.7-6.2c0.3-3.7,3.4-6.9,6.7-6.8c3.5,0.1,6,3.6,5.7,7.9
		C370.6,281,369.2,282.2,365.2,282.1z"/>
	<path class="st2" d="M124.7,361.4c-0.4,2.9-0.7,5.8-5,5.8c-4.6-0.1-7.8-2.3-7.7-5.9c0-3.5,3.2-7,6.5-7.1
		C121.7,354,124.6,357.2,124.7,361.4z"/>
	<path class="st2" d="M45.8,118.1c-0.3,2.9-0.8,6-5.3,5.8c-3.8-0.2-6.9-1.4-7.5-5.7c-0.4-3.6,3-7.3,6.5-7.4
		C43.1,110.8,45.7,113.7,45.8,118.1z"/>
	<path class="st2" d="M48.9,267.3c0,3.7-1.3,6.1-5.6,5.8c-3.6-0.3-6.6-1.4-6.9-5.6c-0.3-3.8,3.1-7.4,6.6-7.4
		C46.4,260,49,263.2,48.9,267.3z"/>
	<path class="st2" d="M266.5,416.4c-0.3,4.2-1.3,6.9-5.7,6.5c-4.3-0.4-7.1-2.6-7-6.1c0.1-3.6,3.3-6.9,6.6-6.9
		C263.8,409.9,266.5,413.2,266.5,416.4z"/>
	<path class="st2" d="M417.3,22.1c-3.4-0.7-6.9-1.3-6.5-6.1c0.3-3.9,3.7-7.2,7.1-6.8c3.3,0.3,5.7,3.8,5.5,7.7
		C423.1,20.5,421.5,22.8,417.3,22.1z"/>
	<path class="st2" d="M249.8,281.5c0,3.5-3.1,6.5-6.7,6.5c-3.9,0-5.7-2.3-5.9-5.9c-0.2-3.4,3.4-7.1,6.4-7
		C246.9,275.2,249.8,278.1,249.8,281.5z"/>
	<path class="st2" d="M134.6,126.3c-0.3,3.4-1.1,6.2-5.5,5.8c-3.7-0.4-6.9-1.3-7.1-5.8c-0.1-3.7,3.2-7.2,6.7-7.2
		C131.9,119.1,134.6,122.4,134.6,126.3z"/>
	<path class="st2" d="M406.7,367.3c0.1-4.5,3.2-7.8,6.4-7.5c3.8,0.3,6.1,2.5,6.1,6.4c0,3.4-3.4,6.7-6.8,6.5
		C408.7,372.4,406.7,370.3,406.7,367.3z"/>
	<path class="st2" d="M168,209.5c0.1,3.6-3,6.8-6.6,6.7c-3.5-0.1-5.6-1.9-5.8-5.5c-0.2-3.5,2.9-7.4,6-7.5
		C164.9,203.1,167.9,206.1,168,209.5z"/>
	<path class="st2" d="M458.9,141.9c-3-0.5-5.2-2.4-5.1-6.2c0.1-3.6,3.5-7.1,6.6-6.7c3.8,0.5,6,2.7,6.1,6.6
		C466.6,138.9,462.9,142,458.9,141.9z"/>
	<path class="st2" d="M159.7,13.5c0-4.5,2.9-7.8,6.2-7.7c3.9,0.1,6.1,2.3,6.3,6.1c0.2,3.4-3.2,6.9-6.6,6.7
		C162,18.5,159.8,16.6,159.7,13.5z"/>
	<path class="st2" d="M96.1,274.5c-0.7,3.2-3.1,4.9-6.7,4.7c-3.7-0.3-6.1-3.3-5.4-6.9c0.7-3.5,2.7-5.7,6.6-5.4
		C93.9,267.3,96.6,270.9,96.1,274.5z"/>
	<path class="st2" d="M214.6,385.5c3.6,0,6.4,2.7,6.3,6.3c0,3.5-3.2,6.8-6.7,6.6c-3.4-0.2-5.6-2.1-5.7-5.7
		C208.4,389.1,211.4,385.5,214.6,385.5z"/>
	<path class="st2" d="M102.9,166.7c-3-0.3-5.4-1.8-5.7-5.4c-0.3-3.7,2.7-6.9,6.3-6.8c3.8,0.1,5.8,2.4,6.1,5.9
		C109.9,163.8,106.8,166.7,102.9,166.7z"/>
	<path class="st2" d="M112.2,421.1c-0.1,4-2.4,6.1-6,6.3c-3.5,0.1-6.1-1.6-6.4-5.5c-0.2-3.6,2.5-7,5.7-6.8
		C109.4,415.2,111.5,417.5,112.2,421.1z"/>
	<path class="st2" d="M309,168.6c-3.5-0.6-6-2.2-6.1-6c-0.1-3.5,2.8-6.6,6-6.6c3.3,0.1,6.9,3.8,6.4,6.9
		C314.9,166.5,312.5,168.3,309,168.6z"/>
	<path class="st2" d="M306.4,37c-0.4,4-2.5,6.2-6.5,6.1c-3.5-0.1-5.6-1.8-5.8-5.4c-0.2-3.6,2.8-6.8,6-6.7
		C304.1,31.1,306,33.4,306.4,37z"/>
	<path class="st2" d="M157.4,338.5c3.8,0.3,5.8,2.4,5.8,6.1c0,4-2.5,6.1-6.4,6c-3.3,0-5.7-1.8-5.9-5.4
		C150.8,341.4,153.7,338.4,157.4,338.5z"/>
	<path class="st2" d="M443.6,389c0.1,3.5-2.7,6.4-6.3,6.2c-3.3-0.1-5.8-1.5-5.9-5.3c-0.2-3.8,2.7-7,6.2-7
		C440.9,383,443.5,385.7,443.6,389z"/>
	<path class="st2" d="M414,73.4c-3.7-0.3-6-2.2-5.7-6c0.3-3.7,2.4-6.3,6.4-6.1c3.7,0.1,5.7,2.6,5.8,6.2
		C420.7,70.8,417.5,73.5,414,73.4z"/>
	<path class="st2" d="M59.1,435.7c0.1,3.4-3,6.9-6.4,6.9c-3.6,0-5.9-1.8-6.1-5.7c-0.1-3.6,2.8-7.1,6-7.2
		C56.1,429.6,59,432.2,59.1,435.7z"/>
	<path class="st2" d="M225.2,152.2c-0.3,3.4-2.5,5.5-6.1,5.5c-3.5,0-6-1.8-6.2-5.7c-0.1-3.6,2.8-6.8,6-6.7
		C221.9,145.3,225.2,148.7,225.2,152.2z"/>
	<path class="st2" d="M374.4,136.3c0.1,3.5-2.6,6.5-6.2,6.4c-3.3-0.1-5.8-1.7-6.1-5.3c-0.3-3.6,2.7-7.2,6.2-7
		C371.9,130.5,374,132.5,374.4,136.3z"/>
	<path class="st2" d="M234.8,216.3c0,3.5-2.8,6.3-6.4,6c-3.3-0.2-5.7-1.6-5.7-5.5c0-3.9,2.8-6.9,6.3-6.8
		C232.3,210.2,234.8,212.9,234.8,216.3z"/>
	<path class="st2" d="M153.5,463.8c-3.6-0.5-6.1-2-5.8-6c0.3-3.8,2.2-6.2,6.3-6.2c3.8,0.1,5.8,2.4,5.8,6
		C159.8,461.7,157.2,463.4,153.5,463.8z"/>
	<path class="st2" d="M371.7,74.7c3.6,0.7,6,2.6,6.2,6.5c0.1,3.4-2.9,6-6.6,5.8c-3.8-0.3-5.8-2.4-5.6-6.2
		C365.9,77.2,367.8,75.1,371.7,74.7z"/>
	<path class="st2" d="M349.9,241c-3.5-0.3-5.9-2.1-6-5.9c-0.1-3.7,2.7-6.7,6.1-6.4c3.9,0.3,6.2,2.8,6.2,6.5
		C356.2,238.8,353.6,240.7,349.9,241z"/>
	<path class="st2" d="M377.7,390.1c0.6-3.2,2.3-5.7,6.2-5.4c3.9,0.3,6,2.8,6.1,6.6c0.1,3.4-3.2,6-6.8,5.6
		C379.3,396.4,377.6,394.2,377.7,390.1z"/>
	<path class="st2" d="M388.6,169.6c3.9,0.5,6.6,3.9,6,7.2c-0.6,3.1-2.5,5-5.8,4.9c-3.4-0.2-6.3-3.7-5.6-6.8
		C383.8,171.7,385.4,169.3,388.6,169.6z"/>
	<path class="st2" d="M318.8,449.9c-0.3,2.9-1.9,5.2-5.5,5.1c-3.6-0.1-6.1-2.1-6.1-5.8c0-3.1,1.7-5.8,5.2-6.2
		C315.4,442.7,318.7,446.2,318.8,449.9z"/>
	<path class="st2" d="M65,160.7c-3-0.4-5.5-1.4-5.6-5c-0.1-3.2,3.1-6.1,6.6-6.1c3.5,0,5.3,2.1,5.3,5.3
		C71.3,158.8,68.5,160.3,65,160.7z"/>
	<path class="st2" d="M323.7,293c-3.1-0.4-5.7-2-5.7-5.8c0-3.1,1.6-5.8,5.2-6.2c3-0.3,6.4,3.1,6.5,6.2
		C329.8,290.4,327.3,293,323.7,293z"/>
	<path class="st2" d="M379.2,357.1c-0.2,3.1-1.7,5.7-5.3,5.6c-3.5,0-6.1-1.8-6.2-5.7c-0.1-3.2,1.3-5.8,4.9-6.3
		C375.9,350.4,379.1,353.5,379.2,357.1z"/>
	<path class="st2" d="M180,114.5c-3.4-0.3-5.9-1.7-5.6-5.2c0.3-3.9,3.2-5.8,6.9-5.9c3.4-0.1,5.2,2.3,5,5.5
		C186.1,112.9,183.3,114.3,180,114.5z"/>
	<path class="st2" d="M214.9,54.5c-0.1,2.9-1.7,5.3-5.3,5.3c-3.5,0-6.1-1.9-6.2-5.7c0-3.2,1.3-5.9,5-6.3
		C211.8,47.5,214.8,50.5,214.9,54.5z"/>
	<path class="st2" d="M83,333.4c-0.1,2.9-2,5.3-5.4,5.1c-3.3-0.1-6.1-2-6-5.9c0.1-3.2,1.3-5.9,5.1-6.1
		C79.9,326.3,82.9,329.4,83,333.4z"/>
	<path class="st2" d="M84.4,44.1c-3.2-0.6-5.8-2.1-5.7-6c0.1-3.3,1.6-5.8,5.2-6.1c3.2-0.3,6.3,3,6.2,6.4
		C90,41.9,88.2,43.8,84.4,44.1z"/>
	<path class="st2" d="M22.1,79.9c-0.2,4.1-2.9,5.6-6.3,5.7c-3.2,0.1-5.8-1.4-5.6-4.9c0.1-3.9,2.9-5.8,6.7-6
		C20.3,74.6,21.7,76.8,22.1,79.9z"/>
	<path class="st2" d="M13.2,240.5c-0.4,3.7-2.6,5.4-6.2,5.5c-3.5,0.1-6-1.6-5.7-5.1C1.5,237,4.4,235,8,235
		C11.1,235.1,13.1,237,13.2,240.5z"/>
	<path class="st2" d="M275.5,68.9c-3.2-0.2-5.7-1.2-5.9-4.8c-0.2-3.3,2.9-6.2,6.4-6.2c3.5-0.1,5.4,2,5.5,5.1
		C281.6,66.8,278.9,68.4,275.5,68.9z"/>
	<path class="st2" d="M405.8,325.9c-2.5-0.1-4.8-1.4-5-4.9c-0.2-3.1,3.3-6.1,6.7-6.1c3.5,0,5.1,2.1,5.3,5.4
		C413,323.4,410.2,325.8,405.8,325.9z"/>
	<path class="st2" d="M380.9,470.8c-0.5-1-1.1-2-1.6-3c-1.2-2.7-0.9-5.3,1.7-7c2.5-1.6,5-1.6,6.9,1.3c0.6,1,1.2,2.1,2.6,1.9
		C388.5,471.2,388.5,471.2,380.9,470.8z"/>
	<path class="st2" d="M182.4,436.8c-3.6,0-5.9-1.3-6.3-4.7c-0.3-3,3.1-6.2,6.5-6.3c3.5-0.1,5.4,1.8,5.5,5.1
		C188.2,434.8,185.6,436.4,182.4,436.8z"/>
	<path class="st2" d="M7.7,397.9c-2.9-0.2-5.3-1.6-5-5.2c0.3-4.1,3.2-5.7,6.9-5.8c3.5,0,5.2,2.5,5,5.6
		C14.4,396.3,11.7,397.9,7.7,397.9z"/>
	<path class="st2" d="M302.9,197.3c2.8,0.1,4.3,1.4,4.3,4.3c0,3-4,7-6.8,6.7c-2.9-0.3-4.7-1.9-4.6-5.1
		C295.9,200.3,299.5,197.2,302.9,197.3z"/>
	<path class="st2" d="M436.8,290.8c0.4-3.7,3.7-6.3,7.1-5.7c2.5,0.4,3.8,1.9,3.7,4.4c-0.2,3.1-4.3,6.9-7.1,6.5
		C437.5,295.5,436.8,293.2,436.8,290.8z"/>
	<path class="st2" d="M24.5,209.9c0.4-4,2.7-5.9,6.6-5.9c2.9,0,4.4,1.7,4,4.4c-0.5,3.6-2.9,6.1-6.5,6.5
		C25.5,215.1,24.7,212.5,24.5,209.9z"/>
	<path class="st2" d="M305.9,70.6c0-4.1,2.8-6.7,6.4-6.6c2.8,0.1,4.7,1.5,4.3,4.3c-0.5,3.5-2.7,6.2-6.4,6.6
		C307.1,75.2,306.1,72.7,305.9,70.6z"/>
	<path class="st2" d="M414.4,207.2c0.1-3.6,2.9-6.1,6.6-5.8c2.5,0.2,4,1.3,4.1,4c0.1,2.9-3.8,7.1-6.6,7
		C415.3,212.2,414.5,209.9,414.4,207.2z"/>
	<path class="st2" d="M380.4,0c2.7,0.1,4.4,1.4,4.4,4.2c-0.1,3.1-4.1,7-6.9,6.7c-2.8-0.3-3.9-2.3-3.9-4.8C373.9,2.6,376.7,0,380.4,0
		z"/>
	<path class="st2" d="M343.3,420.3c0.3-4.1,2.4-6.2,6.3-6.3c2.7-0.1,4.4,1.3,4.3,4.2c0,3.1-3.9,7-6.7,6.8
		C344.4,424.7,343.6,422.6,343.3,420.3z"/>
	<path class="st2" d="M272.9,312.6c2.9-0.1,4.3,1.4,4.2,4.2c-0.1,3-4.2,7.1-6.9,6.7c-2.7-0.4-3.8-2.4-3.8-5
		C266.6,314.5,269,312.7,272.9,312.6z"/>
	<path class="st2" d="M31.7,367.4c0.2-3.5,2.2-5.6,6.3-5.7c2.9-0.1,4.4,1.3,4.5,4c0.1,2.8-4.2,7.2-6.8,6.9
		C33,372.4,31.8,370.5,31.7,367.4z"/>
	<path class="st2" d="M208.9,314.9c-0.3,3.2-1.9,4.9-4.8,4.7c-2.9-0.2-5.9-1.6-5.9-4.9c0-3,2.2-5.1,5.4-5.1
		C207,309.6,208.3,312.1,208.9,314.9z"/>
	<path class="st2" d="M135.2,248.4c3.2,0.5,4.9,2.5,5,5.7c0,2.7-1.6,4.5-4.3,4.4c-2.9-0.1-6-1.3-6.1-4.6
		C129.6,250.9,131.9,249,135.2,248.4z"/>
	<path class="st2" d="M172.9,293.2c-2.8-0.5-5.8-1.6-5.6-5c0.2-2.9,2.6-5.4,5.8-5.1c2.9,0.3,4.6,2.5,4.7,5.6
		C177.9,291.9,176,293.1,172.9,293.2z"/>
	<path class="st2" d="M113.2,64.3c2.9,0.5,4.7,2.3,5,5.3c0.2,3-1.4,5-4.3,4.9c-2.9-0.1-6-1.2-6.1-4.6C107.6,66.8,110,65,113.2,64.3z
		"/>
	<path class="st2" d="M223.8,251.8c-0.9,0.4-1.8,0.7-2.6,1.3c-2.7,2-5.3,2-7.2-1c-1.9-2.9-0.9-5.6,1.6-7.3c2.8-2,5.3-1,7.1,1.9
		c0.5,0.8,1.2,1.5,1.8,2.3C224.3,249.9,224,250.9,223.8,251.8z"/>
	<path class="st2" d="M372.5,325.7c-0.8,0.5-1.7,0.9-2.5,1.4c-2.6,1.9-5.3,2.4-7.2-0.7c-1.6-2.7-2-5.7,1.4-7.7
		c3.4-2,5.6-0.3,7.3,2.6c0.5,0.8,0.9,1.7,1.3,2.6C372.6,324.5,372.6,325.1,372.5,325.7z"/>
	<path class="st2" d="M425.9,166.6c-0.1,3.6-1.7,5.3-4.7,5.1c-2.9-0.2-5.9-1.6-5.9-4.9c0.1-2.7,2.1-5,5.2-5.1
		C424.1,161.6,425.4,164.1,425.9,166.6z"/>
	<path class="st2" d="M318.1,361.9c-3-0.6-6.1-1.7-6-4.9c0.1-2.8,2.2-5.3,5.7-5.2c3.2,0.1,4.7,2.4,4.9,5.3
		C322.9,360.1,321,361.6,318.1,361.9z"/>
	<path class="st2" d="M369.8,65.8c-1-0.5-2.1-0.9-3.1-1.4c-2.6-1.2-4.8-2.8-3.4-6c1.3-3.2,4.1-4.5,7.3-3.2c3.2,1.2,3.7,3.9,2.2,6.9
		c-0.4,0.9-0.8,1.8-1.1,2.7C371,65.1,370.4,65.5,369.8,65.8z"/>
	<path class="st2" d="M276.6,467.9c-2.7-0.4-5.6-1.6-5.6-4.7c0-2.8,2.3-5.3,5.5-5.3c3.3,0,5,2.5,5.1,5.5
		C281.7,466.4,279.9,467.9,276.6,467.9z"/>
	<path class="st2" d="M214.7,20.8c-0.4,3.1-1.7,5.1-4.7,5c-2.9-0.1-5.9-1.5-6-4.6c-0.1-2.9,2.1-5.2,5.3-5.4
		C212.9,15.6,213.8,18.4,214.7,20.8z"/>
	<path class="st2" d="M460.1,243.5c0,3.3-1.5,5.3-4.5,5.1c-2.9-0.2-5.9-1.3-6-4.7c-0.1-2.9,2-5,5-5.3
		C458.1,238.4,459.5,240.8,460.1,243.5z"/>
	<path class="st2" d="M281.9,192.9c-1,0.1-2,0.3-2.9,0.5c-3.3,0.7-5.7-0.3-6.2-3.8c-0.5-3.4,1.3-5.7,4.5-6.1c3.2-0.4,5.3,1.5,5.5,5
		c0.1,1.2,0,2.3,0,3.5C282.5,192.2,282.2,192.5,281.9,192.9z"/>
	<path class="st2" d="M444.6,126.8c-1.4,0.1-1.7,1.5-2.6,2.1c-2.5,1.6-5.2,1.9-7.2-0.5c-2-2.4-1.6-5.2,0.7-7.2
		c2.4-2.1,4.9-1.8,7,0.7c0.8,1,1.7,2,2.5,3C444.8,125.6,444.7,126.2,444.6,126.8z"/>
	<path class="st2" d="M335.5,469.9c0.6,0.3,1.2,0.6,1.8,0.9C336.4,471.2,335.8,470.8,335.5,469.9z"/>
	<path class="st2" d="M378.4,471c0,0-0.1,0-0.1,0C378.3,471,378.4,471,378.4,471z"/>
	<path class="st2" d="M159,172.3c0.2,2.6-1.5,3.9-4.9,3.7c-3-0.2-5.3-1.2-5.3-4.6c0-3.4,1.8-6.1,5.2-6.1
		C157.6,165.2,158.9,168.1,159,172.3z"/>
	<path class="st2" d="M179.7,152c0.3-3.2,1.7-5.8,5.2-6c3-0.1,4.9,1.9,5,5c0.1,3.3-1.9,5.4-5,5.7C182,157,179.9,155.5,179.7,152z"/>
	<path class="st2" d="M149.1,153.9c-3.1-0.4-4.9-2.3-4.8-5.2c0.1-2.8,1.5-5.5,4.7-5.3c3.1,0.3,5.8,2.3,5.6,5.8
		C154.4,152.1,152.2,153.7,149.1,153.9z"/>
	<path class="st2" d="M168.9,144c-3.1,0.1-4.9-1.8-4.8-4.5c0.1-2.9,1.6-5.5,5.2-5.5c3.2-0.1,5.1,2.1,5.1,4.9
		C174.4,142,172.3,144,168.9,144z"/>
	<path class="st2" d="M165,158.9c-3.1,0-5.1-1.1-5.1-4c0-3.1,2.2-4.8,5.2-5c2.7-0.2,4.6,1.2,4.6,4
		C169.8,157.2,167.6,158.5,165,158.9z"/>
	<path class="st2" d="M178,169.8c0.2,2.8-1.4,4.7-4,4.7c-2.8,0-5.1-1.5-5.2-4.8c-0.1-2.9,1.3-4.8,4.3-4.8
		C176.4,164.8,177.8,166.7,178,169.8z"/>
	<path class="st2" d="M164.6,188c-2.7-0.2-4.4-1.2-4.3-3.3c0.2-2.9,1.2-5.6,4.9-5.8c2.5-0.1,3.8,1.1,3.7,3.6
		C168.8,185.7,166.5,187,164.6,188z"/>
	<path class="st2" d="M192.7,174.1c-0.2,2.2-1.4,3.7-3.7,3.7c-2.4,0-4.8-0.8-5.1-3.7c-0.2-2.7,1.8-4.4,4.2-4.6
		C190.9,169.4,192,171.6,192.7,174.1z"/>
	<path class="st2" d="M391.7,257.7c-0.1,3.6-1.3,5.4-4.9,5.3c-3.3-0.1-5.8-1.2-5.8-4.6c0-3.2,2-6,5.3-6.2
		C390,252.1,391.3,255,391.7,257.7z"/>
	<path class="st2" d="M417.4,233c2.9,0.8,5.5,2.1,5.3,5.6c-0.2,3.3-2.3,5.1-5.6,5.2c-3.3,0.1-5.1-2.1-4.9-5
		C412.4,236,414,233.4,417.4,233z"/>
	<path class="st2" d="M382.1,240.9c-3.5-0.1-5.4-1.6-5.2-4.9c0.2-2.9,1.3-5.2,4.7-5.2c3.6-0.1,5.1,2.2,5.2,5.3
		C387,239.4,384.8,240.8,382.1,240.9z"/>
	<path class="st2" d="M401.8,231c-2.9-0.1-4.9-1.3-4.9-4.4c0-3.3,1.8-5.5,5.1-5.6c3.1-0.1,4.8,2,4.9,5.1
		C406.8,229.5,404.9,231,401.8,231z"/>
	<path class="st2" d="M406,251.8c3.3,0.2,4.8,2.3,4.7,5.3c-0.1,2.8-1.8,4.9-4.8,4.5c-3-0.3-5-2.3-4.8-5.3
		C401.2,253.6,402.7,251.6,406,251.8z"/>
	<path class="st2" d="M396.7,245.9c-3,0-4.2-1.6-4-4.4c0.3-3.4,2.6-4.4,5.5-4.6c3.1-0.2,4.2,2.1,4,4.5
		C402,244.5,399.8,246,396.7,245.9z"/>
	<path class="st2" d="M401.8,269.8c-0.6,3-2.5,5.1-5.5,5.4c-2.2,0.2-3.5-1.5-3.5-3.9c0.1-3.3,2.2-4.8,5-5.2
		C400.2,265.8,401.4,267.4,401.8,269.8z"/>
	<path class="st2" d="M424.9,261c0,2.6-1.1,4-3.6,4c-2.6,0-4.8-1.4-5-3.9c-0.2-2.2,1.8-3.9,4.2-4.1
		C423.2,256.7,424.6,258.6,424.9,261z"/>
	<path class="st2" d="M148.8,83c-3.5-0.1-5-1.9-5-5.1c0-3.4,1.9-5.6,5.1-5.5c3.3,0.1,5.5,2.7,5.7,6C154.7,82,151.7,82.8,148.8,83z"
		/>
	<path class="st2" d="M167.5,40.8c2.8,0,4.3,2.1,4.3,5.1c0,3.2-1.8,5.7-5.1,5.6c-3.2-0.1-5-2.4-4.8-5.8
		C161.9,42.4,163.7,40.9,167.5,40.8z"/>
	<path class="st2" d="M134.1,55.8c3,0.2,5.4,1.7,5.4,4.7c0,3.2-2.3,5.2-5.5,5.3c-3.5,0-5-2.6-4.9-5.7
		C129.2,57.4,131,55.6,134.1,55.8z"/>
	<path class="st2" d="M147.6,37.8c2.6,0.1,4.3,1.8,4.4,5c0.1,3.4-2,4.9-4.9,5c-3.1,0.1-5-2.1-5-5C142,39.8,143.7,37.8,147.6,37.8z"
		/>
	<path class="st2" d="M145.8,58.7c0.5-3.1,2.1-5.5,5.4-5.5c2.7,0,4.3,2.3,4.2,4.7c-0.2,3.2-2.3,5-5.7,5
		C146.9,63,146,61.2,145.8,58.7z"/>
	<path class="st2" d="M169.9,66.4c0.1,3.8-0.9,5.5-3.9,5.5c-3.4,0.1-5.2-1.5-5.3-5c-0.1-2.9,1.3-4.2,4.2-4.2
		C168,62.8,169.7,64.4,169.9,66.4z"/>
	<path class="st2" d="M168.8,83.2c-1,2.5-1.3,5.7-4.8,5.5c-2.4-0.2-3.8-2.4-3.7-4.7c0.1-2.7,1.7-4.8,4.6-5
		C167.5,78.9,168.4,80.9,168.8,83.2z"/>
	<path class="st2" d="M180.3,59.9c2.5,0.1,4.4,1.4,4.4,4.1c0,2.6-1.8,3.8-4.2,3.9c-2.4,0.1-4.5-0.8-4.4-3.4
		C176.1,62.1,177.2,59.9,180.3,59.9z"/>
	<path class="st2" d="M330.7,395.9c3.2,0.2,4.9,1.9,5.1,5c0.2,3.8-2.3,5.5-5.5,5.6c-2.8,0-5.3-1.6-5.2-4.8
		C325.1,398.2,327.4,396.5,330.7,395.9z"/>
	<path class="st2" d="M294.4,392.7c3.3,0,5.4,1.3,5.3,4.7c-0.1,3.4-2.3,6-5.4,6.1c-3,0.1-5-2.9-5.2-5.8
		C288.7,394.2,291.4,393,294.4,392.7z"/>
	<path class="st2" d="M309,377.9c0.3,2.6-1.5,4.6-4.5,4.6c-3,0-5.6-1.6-5.5-5c0.1-3.2,2.2-5.2,5.4-5.4
		C307.7,371.9,308.9,374.2,309,377.9z"/>
	<path class="st2" d="M330.8,383.3c-0.1,2-1.8,3.7-5,3.6c-3.4,0-5.2-1.9-5.1-5.3c0.1-3.4,2.5-4.7,5.3-4.6
		C329,377.1,331,378.7,330.8,383.3z"/>
	<path class="st2" d="M310.8,403.7c3.5-0.3,4.4,2.2,4.5,4.7c0.1,2.9-1.5,5.2-4.7,5.3c-3.1,0-4.7-2.1-4.8-5.1
		C305.7,405.3,307.8,403.9,310.8,403.7z"/>
	<path class="st2" d="M313,386.8c2.9,0.2,5,1.5,4.8,4.8c-0.1,2.8-1.8,4.3-4.5,4.2c-3-0.1-5.2-1.8-5.4-4.7
		C307.7,388,310,386.9,313,386.8z"/>
	<path class="st2" d="M294.9,417.9c-2.4,0.2-4.7-0.3-4.6-3.1c0.1-2.8,2.1-4.6,4.9-4.7c2.4,0,4.6,1.1,4.7,4
		C300,417.6,297.5,418,294.9,417.9z"/>
	<path class="st2" d="M323.8,421.1c-0.2,2.9-1.7,4.4-4.1,4.3c-2.9-0.2-4-2.5-4-5.2c0-2.6,2-3.3,4-3.3
		C322.6,416.9,323.7,418.7,323.8,421.1z"/>
	<path class="st2" d="M236.9,363.1c-0.3,3.7-3.3,4.3-6,4.6c-3.4,0.3-4.8-2.3-4.8-5.1c-0.1-2.8,1.4-5.4,4.6-5.5
		C234.4,356.9,236.2,359.5,236.9,363.1z"/>
	<path class="st2" d="M248.9,336c-3.8-0.2-5-2.7-4.9-5.8c0.1-3.5,2.5-5.2,5.6-5c3.1,0.1,4.6,2.3,4.4,5.5
		C253.8,334.1,252.2,335.9,248.9,336z"/>
	<path class="st2" d="M211.7,345.1c-0.2-3.1,1.6-4.9,4.4-4.9c3,0,5.6,1.6,5.6,5.1c0,3.5-2.4,5.2-5.5,5.3
		C213.1,350.6,211.8,348.1,211.7,345.1z"/>
	<path class="st2" d="M234.7,327.4c-0.5,3.6-2.9,5.2-5.9,5.1c-3.2-0.1-4.4-2.8-4.2-5.7c0.1-3.1,2.3-4.9,5.3-4.7
		C232.8,322.4,234.4,324.6,234.7,327.4z"/>
	<path class="st2" d="M248.9,356.8c-4.6,0.1-5.9-2.2-6.1-5.4c-0.1-3,1.9-4.3,4.4-4.4c3.3-0.1,5.3,1.9,5.5,5.2
		C252.9,355.4,250.8,356.5,248.9,356.8z"/>
	<path class="st2" d="M232.2,347.8c-2.7-0.6-4.5-2.1-4-4.8c0.5-2.7,1.9-5.2,5.2-5c2.9,0.2,4.6,2.2,4.3,5
		C237.4,346.2,234.8,347.1,232.2,347.8z"/>
	<path class="st2" d="M250.8,368.1c-0.6,2.2-1.1,5.2-4.1,5.2c-2.9,0-4.1-2.5-3.9-5.2c0.2-2.9,2-4.4,4.9-4.3
		C250.4,363.9,250.8,365.8,250.8,368.1z"/>
	<path class="st2" d="M258.6,349.2c0.3-3.2,1.3-5.1,3.9-5c2.5,0.1,4.5,1.5,4.3,4.4c-0.1,2.8-1.9,4.2-4.5,4.1
		C260,352.5,258.3,351.3,258.6,349.2z"/>
	<path class="st2" d="M155.9,397.2c-0.2,4-1.6,5.9-5,5.5c-3-0.3-5.7-1.4-5.4-5.1c0.2-3.1,2-5.6,5.2-5.7
		C154.3,392,155.6,394.7,155.9,397.2z"/>
	<path class="st2" d="M176.8,377.7c0.4-2,1-4.9,4.7-4.8c3.3,0,5.3,1.9,5.3,5.3c0,3.7-2.6,5.4-5.8,5.4
		C178.3,383.5,176.5,381.6,176.8,377.7z"/>
	<path class="st2" d="M145.1,369.9c4.1,0.5,6.2,2.5,6.3,5.8c0.1,3.2-2.5,4.7-5.4,4.6c-2.8-0.1-5.2-1.6-5-4.9
		C141.1,372.7,142.8,370.7,145.1,369.9z"/>
	<path class="st2" d="M171,365.8c-0.1,3.2-1.7,5.1-4.9,5c-3.1-0.1-5.1-1.8-5-5c0.1-3.1,1.9-4.9,5.1-5
		C169.4,360.8,170.9,362.6,171,365.8z"/>
	<path class="st2" d="M170.4,401c-3.4-0.4-5.2-2.4-5.1-5.3c0.1-2.7,2.1-4.8,4.9-4.6c2.9,0.2,4.7,2.3,4.7,5.3
		C174.9,399.5,173,400.7,170.4,401z"/>
	<path class="st2" d="M166.8,380.9c-0.6,3.3-2.9,4.7-5.9,4.7c-2.5,0-4-1.5-4.1-4.1c-0.1-3.6,2.4-5,5.4-5.1
		C164.8,376.4,166.4,378.2,166.8,380.9z"/>
	<path class="st2" d="M161.5,414.8c-2.8-0.1-4.3-1.4-4.4-3.6c-0.2-3.1,1.6-5,4.6-5.3c2.2-0.3,4,0.3,4.2,3
		C166.1,412.2,163.7,413.7,161.5,414.8z"/>
	<path class="st2" d="M189.5,400.9c-0.6,2.1-1.4,4-3.9,3.7c-2.5-0.3-5-1.2-4.8-4.5c0.1-2.8,2.2-4.2,4.7-4.1
		C188.1,396.3,189,398.6,189.5,400.9z"/>
	<path class="st2" d="M306.1,105.9c3.5,0.2,5,2,4.8,5.2c-0.2,3.2-1.8,5.8-5,5.6c-2.9-0.2-5.1-2.3-5.2-5.7
		C300.7,107.2,303.2,106.3,306.1,105.9z"/>
	<path class="st2" d="M347.7,114.3c-0.4,3.2-2.2,5.2-5.4,5.5c-3.1,0.2-5.2-1.4-5.4-4.6c-0.3-3.8,2.5-5.4,5.6-5.8
		C345.5,109,347,111.5,347.7,114.3z"/>
	<path class="st2" d="M310.7,89.9c0.2-2.5,2.2-4.6,5.2-4.5c3.1,0.1,5,2.3,4.8,5.7c-0.1,3.4-2.3,4.7-5.2,4.6
		C312.7,95.7,310.7,94.1,310.7,89.9z"/>
	<path class="st2" d="M342.7,95.3c-0.6,3-2.1,5.4-5.1,5.2c-3-0.2-5.6-2.1-5.4-5.4c0.1-2.9,2.4-5,5.4-4.8
		C340.4,90.4,342.5,92,342.7,95.3z"/>
	<path class="st2" d="M326.8,121.7c-0.3,3.1-1.8,5.1-5,5.1c-3.4,0-4.5-2.8-4.6-5.5c0-2.8,2.2-4.3,5-4.4
		C325.5,116.9,326.6,118.9,326.8,121.7z"/>
	<path class="st2" d="M324.7,109c-3.1-0.2-5-1.6-5-4.9c0.1-2.9,2.3-4.1,4.7-4c2.5,0.2,5.1,1.4,5.1,4.4
		C329.5,107.3,327.9,109.2,324.7,109z"/>
	<path class="st2" d="M306.9,123.8c2.5,0.2,4.9,1,4.7,3.9c-0.2,2.9-2.9,3.8-5.4,4.1c-2.4,0.2-4.3-1.1-4.2-3.7
		C302,125.1,304,123.8,306.9,123.8z"/>
	<path class="st2" d="M331,130c2.9,0.4,4.7,1.9,4.5,4.6c-0.1,2.2-1.2,4.4-3.9,4.2c-2.8-0.3-4.5-2.1-4.6-4.9
		C326.8,130.9,329.3,130.7,331,130z"/>
	<path class="st2" d="M10.8,318.6c-2.3-1.3-4.9-2.8-4.9-6.3c0-3.7,2.9-4.8,5.8-4.9c2.6-0.1,4.7,1.5,5.1,4.4
		C17,314.5,13.7,318.5,10.8,318.6z"/>
	<path class="st2" d="M47.5,321c-3,0-5.5-0.9-5.5-4.3c0-3.5,2.3-5.5,5.7-5.7c3.1-0.1,4.9,2,5.1,4.9C53,319.5,50.9,321,47.5,321z"/>
	<path class="st2" d="M25.9,292.2c0.4,3.3-1.4,5.3-4.4,5.3c-3,0-5.5-1.6-5.6-5.1c-0.1-3.4,2.3-5.2,5.3-5.3
		C24.2,287,26.2,288.8,25.9,292.2z"/>
	<path class="st2" d="M42.9,301.9c-3-0.4-5.6-1.8-5.6-5.1c0-3,2.4-4.8,5.3-4.8c2.9-0.1,5.3,1.4,5.1,4.7
		C47.7,299.6,46.4,301.8,42.9,301.9z"/>
	<path class="st2" d="M32,323.2c0.1,3.5-1.6,5.5-4.7,5.4c-2.7-0.1-4.4-2.3-4.4-5.1c-0.1-3.3,2.2-5,5-5.1
		C30.8,318.3,32.1,320.5,32,323.2z"/>
	<path class="st2" d="M34.9,306.6c-0.3,2.9-2,4.4-5,4.2c-3-0.2-5.1-2-5-5.1c0.1-3.1,2.4-4.1,5.2-3.9C33.2,302,34.8,303.5,34.9,306.6
		z"/>
	<path class="st2" d="M6.9,332.8c0.2-6,2.9-9,6.9-7.4c1.8,0.7,3.3,1.7,3.1,4c-0.1,2.3-1.7,3.2-3.6,3.5C11.2,333,9.1,332.8,6.9,332.8
		L6.9,332.8z"/>
	<path class="st2" d="M36.8,331.8c2.6,0.3,4.2,1.8,3.9,4.6c-0.2,2.4-1.7,4.3-4.2,4c-2.9-0.3-4.1-2.9-4.2-5.5
		C32.3,332.5,34.5,331.9,36.8,331.8z"/>
	<path class="st2" d="M430.4,444.7c-0.4,3.4-1.5,5.6-5.3,5.2c-3.3-0.3-5.6-1.5-5.3-5.1c0.3-3.4,2.2-5.8,5.7-5.7
		C428.9,439.2,430.1,441.9,430.4,444.7z"/>
	<path class="st2" d="M461.6,425.1c-0.5,3.5-2.5,5.4-5.9,5.7c-3.1,0.2-4.7-1.9-4.8-4.5c-0.1-3.2,1.3-6.1,5-6.2
		C459.1,419.9,460.9,422.1,461.6,425.1z"/>
	<path class="st2" d="M440.2,417.9c-3,0.2-4.6-1.3-4.6-4.7c0-3.6,2-5.2,5.2-5.2c2.8,0,4.7,2,4.8,4.7
		C445.7,415.9,444,418,440.2,417.9z"/>
	<path class="st2" d="M415.6,422.9c0.1-3,1.3-5,4.6-5.2c3.5-0.2,5.3,1.9,5.4,5c0,3-2.1,4.8-5.1,5
		C417.4,427.9,415.8,426.1,415.6,422.9z"/>
	<path class="st2" d="M436.2,432.8c-3.1,0-5.4-1-5.2-4.1c0.1-3,2.2-4.7,5.2-4.9c2.7-0.2,4.4,1.3,4.6,4
		C441,431.1,439.1,432.6,436.2,432.8z"/>
	<path class="st2" d="M444.7,448.5c-2.4-0.7-4.9-1.7-4.8-4.8c0.1-2.6,1-5,4.3-5.1c3.3-0.1,5,2.1,5.2,4.9
		C449.6,446.4,447.5,448.1,444.7,448.5z"/>
	<path class="st2" d="M431.7,458c-0.2-3.4,1.9-4.8,4.9-5c2.3-0.2,4.1,1.1,3.9,3.4c-0.3,3-1.9,5.3-5.4,5.4
		C432.6,462,431.7,460.4,431.7,458z"/>
	<path class="st2" d="M458.7,443.7c3,0,4.6,1.4,4.9,3.8c0.3,2.6-1.3,4.2-3.8,4.2c-2.2,0-4.6-0.9-4.8-3.4
		C454.8,445.8,456.4,444,458.7,443.7z"/>
	<path class="st2" d="M10.8,32c0-3.6,2.4-4.8,5.5-5c3.1-0.2,5.1,1.4,5.3,4.6c0.2,2.7-3.5,6.5-5.8,6.4C13.4,37.7,10.8,34.7,10.8,32z"
		/>
	<path class="st2" d="M52.9,15.9c-0.1,3.5-2.1,5.4-4.9,5.5c-3,0.1-5.6-1.9-5.8-5c-0.1-3.2,2.6-5.1,5.5-5.2
		C50.8,11.1,52.3,13.4,52.9,15.9z"/>
	<path class="st2" d="M51.4,30.9c4.8-0.2,6.3,2,6.3,4.9c0,3.1-2.1,4.9-5.1,5.1c-3.3,0.1-5.6-1.7-5.6-5
		C47.1,32.5,49.7,31.1,51.4,30.9z"/>
	<path class="st2" d="M26.2,6.8c3.2,0.2,4.9,1.9,4.7,5.1c-0.2,3.1-2,5.1-5.1,4.9c-3-0.2-4.9-2.3-4.8-5.3C20.9,8.2,23.1,6.9,26.2,6.8
		z"/>
	<path class="st2" d="M37,42.9c-0.1,3-1.5,5-4.8,5c-3.1-0.1-4.4-2-4.4-4.9c0-3.2,1.6-5,4.8-5C35.7,38,36.8,40,37,42.9z"/>
	<path class="st2" d="M34.9,21c2.7,0.7,5,2,4.9,5.2c-0.1,2.7-2.3,4.3-4.7,4.2c-2.8-0.1-5.1-1.7-5.2-4.9C29.8,22.2,32.2,21.5,34.9,21
		z"/>
	<path class="st2" d="M21.9,48.7c-0.4,3.6-3.4,3.8-5.9,4c-2.2,0.2-4.1-1.1-3.9-3.5c0.2-2.7,1.8-4.6,4.9-4.5
		C19.6,44.9,21.4,45.9,21.9,48.7z"/>
	<path class="st2" d="M41.6,51c2.9,0.3,4.3,1.9,4.2,4.7c-0.1,2.5-1.5,4.2-4,4.1c-3-0.1-4.3-2.5-4.6-5.1C36.9,51.8,39.6,51.7,41.6,51
		z"/>
	<path class="st2" d="M80,229.4c0.1,4.5-3,5.1-5.7,5.3c-3.4,0.3-4.4-2.1-4.6-5.1c-0.2-3.5,1.6-5.5,4.9-5.5
		C78.1,224.1,79.6,226.6,80,229.4z"/>
	<path class="st2" d="M87.7,197.1c-0.3-2.8,1.4-4.9,4.5-5c3.2-0.1,5.5,2,5.4,5.3c-0.1,2.9-1.8,5.5-5.3,5.5
		C89,202.8,87.7,200.7,87.7,197.1z"/>
	<path class="st2" d="M67.8,194.8c0.2-3.6,1.8-5.7,5.2-5.7c3.1,0,4.8,2.1,4.9,5.1c0.1,3.5-2.3,5.1-5.2,5.4
		C69.3,199.8,68.2,197.3,67.8,194.8z"/>
	<path class="st2" d="M65,212.5c-0.2,3.1-2.3,5-5.4,4.9c-2.8-0.1-4.9-2.1-4.7-5.3c0.1-2.8,1.8-5,4.6-4.9
		C62.2,207.3,65,208.4,65,212.5z"/>
	<path class="st2" d="M90.6,214c3,0.2,4.9,1.7,5.2,4.9c0.3,3.2-1.7,4.7-4.4,4.9c-3.6,0.3-5.1-2.3-5.3-5.3
		C85.9,215.8,87.9,214.3,90.6,214z"/>
	<path class="st2" d="M75.7,214.8c-2.7-0.6-4.1-2.1-3.9-4.6c0.2-3.2,1.9-5.4,5.3-5.3c2.5,0.1,3.8,1.9,3.8,4.4
		C80.9,212.9,78.2,213.9,75.7,214.8z"/>
	<path class="st2" d="M94,235.3c-0.1,2-0.6,4.8-3.6,4.9c-2.7,0.1-4.4-2-4.4-4.9c0-2.7,1.6-4.3,4.2-4.5C92.9,230.5,94,232.1,94,235.3
		z"/>
	<path class="st2" d="M106,219.8c-2.3-0.3-4.2-1.2-4.1-3.9c0.1-2.2,0.9-4.6,3.4-4.7c2.6-0.1,5,1.4,5.2,4.3
		C110.7,218.2,108.6,219.4,106,219.8z"/>
	<path class="st2" d="M306.8,263.9c-2.8-0.6-5.2-1.6-4.9-5.1c0.3-3.7,2.7-5.1,6.1-5c3.4,0,4.8,2.4,4.6,5.2
		C312.4,262.2,310,263.8,306.8,263.9z"/>
	<path class="st2" d="M276,254.3c-0.2,3.7-1.7,6.4-5.1,6.4c-3.1,0-4.9-2.3-5.1-5.6c-0.2-3.6,2.1-5,5.2-5.2
		C274.2,249.7,275.7,251.5,276,254.3z"/>
	<path class="st2" d="M307.7,239.2c-0.4,2.9-1.8,5.2-4.8,5.3c-3,0.1-5.6-1.5-5.8-4.8c-0.2-3.4,2.3-5.1,5.3-5.3
		C305.4,234.1,307,236.3,307.7,239.2z"/>
	<path class="st2" d="M275.7,235.3c0.1-3.5,1.7-5.3,4.8-5.4c3.5-0.2,5.2,1.7,5.2,5.1c0.1,3.4-2,4.9-5,4.9
		C277.9,239.8,275.8,238.2,275.7,235.3z"/>
	<path class="st2" d="M291.8,266c-0.2,3.1-1.7,4.9-4.9,4.9c-3.5,0-4.7-2.7-4.6-5.3c0.1-2.8,2.1-4.9,5.3-4.7
		C290.7,261.1,291.7,263.2,291.8,266z"/>
	<path class="st2" d="M294.8,248.6c-0.2,3-2.1,4.8-4.8,4.8c-2.8,0-5-1.6-5.3-4.8c-0.2-3,1.9-4.3,4.3-4.4
		C291.9,244.1,294,245.6,294.8,248.6z"/>
	<path class="st2" d="M271.5,275.8c-2.6-0.1-4.6-1.1-4.5-3.7c0-3,2.1-4.4,5-4.3c2.6,0,4.8,1.1,4.7,4
		C276.6,275,273.8,275.4,271.5,275.8z"/>
	<path class="st2" d="M300.6,278.6c-0.6,2-1.2,4.3-4,4.2c-2.9-0.1-4.5-2-4.7-4.8c-0.2-2.8,2.1-3.7,4.3-3.8
		C298.9,274,300.3,275.9,300.6,278.6z"/>
	<path class="st2" d="M369.9,193.8c3.3,0,4.8,1.8,4.9,4.9c0.1,3.4-1.7,5.2-5.2,5.2c-3.4,0-5.5-2-5.4-5.1
		C364.3,195.7,366.6,193.8,369.9,193.8z"/>
	<path class="st2" d="M337.9,186c-0.3,3.3-1.8,5.9-5.3,5.9c-2.9,0-4.7-2.3-4.9-5.3c-0.2-3.8,2.6-5.4,5.7-5.4
		C336.1,181.1,338.1,182.8,337.9,186z"/>
	<path class="st2" d="M346,168.4c-0.1,3-1.8,4.8-5.1,4.5c-3-0.3-5.1-2.2-4.9-5.2c0.2-2.9,2.3-4.8,5.4-4.8
		C344.8,162.9,346,165.1,346,168.4z"/>
	<path class="st2" d="M358.9,212c-0.1,3.1-1.5,5.1-4.8,5c-3-0.1-5.2-1.7-5.2-4.8c-0.1-3.5,2.6-5,5.5-5
		C357.1,207.1,359.1,208.8,358.9,212z"/>
	<path class="st2" d="M355.8,197.1c-0.6,2.7-1.6,5.1-5.1,4.8c-3-0.3-4.5-2.5-4.5-5.1c0.1-2.9,2.1-4.9,5.3-4.8
		C354.7,192,355.7,194.1,355.8,197.1z"/>
	<path class="st2" d="M350.1,186c-4.7-0.2-6.8-2.1-6.8-4.9c0-2.7,2.3-4.3,5.2-4.1c2.8,0.2,4.9,1.8,5,4.6
		C353.5,184.3,351.7,186.1,350.1,186z"/>
	<path class="st2" d="M332.6,206.9c-2.5,0.1-4.6-0.9-4.5-3.4c0.1-2.7,2.1-4.4,5-4.5c2.6-0.1,4.7,1.2,4.7,3.9
		C337.7,206,335.3,206.8,332.6,206.9z"/>
	<path class="st2" d="M128.4,288.8c-2-0.3-4.9-1.9-4.9-5.1c0-3.1,2.7-5.5,6-5.5c3.5,0,5.3,2.6,5.2,6
		C134.5,287,133,289.1,128.4,288.8z"/>
	<path class="st2" d="M120.8,326.9c-3.6-0.2-5.1-2.2-5-5.6c0.1-3.1,1.6-5.4,4.8-5.2c3.3,0.2,5.4,2.4,5.3,6
		C125.8,325.6,123.8,326.8,120.8,326.9z"/>
	<path class="st2" d="M110.9,307.8c0.1,3.1-1.8,4.8-4.5,4.8c-3,0-5.6-1.6-5.5-5.1c0.1-2.9,1.9-5.3,4.9-5.3
		C108.9,302.3,110.9,304.5,110.9,307.8z"/>
	<path class="st2" d="M148,294.9c-2.9-0.3-4.7-2.1-4.5-5.2c0.2-2.9,1.8-5.1,5.1-4.9c3.4,0.2,5.1,2.6,5,5.6
		C153.6,293.7,151.1,294.8,148,294.9z"/>
	<path class="st2" d="M121.1,298c2.8,0.7,4.7,2.5,4.7,5.5c0,3.2-2.5,4.2-5.1,4.2c-2.9,0-4.6-1.8-4.8-4.7
		C115.7,299.5,118.3,298.7,121.1,298z"/>
	<path class="st2" d="M140.3,298.3c-0.4,2.8-1.2,5.4-4.6,5.4c-2.6,0-4.6-1.8-4.6-4.3c0-3,1.5-5.4,5-5.6
		C139.2,293.6,139.9,295.9,140.3,298.3z"/>
	<path class="st2" d="M112,280.8c2.7,0.3,4.6,1.8,4.8,4.6c0.2,2.6-1,4.9-3.6,5c-3,0.2-4.1-2.2-4.3-5
		C108.7,283.2,108.9,281.1,112,280.8z"/>
	<path class="st2" d="M69.9,377.2c-0.9,2.9-2,6.2-5.4,6c-3.1-0.2-5.5-2.8-5.3-6.2c0.2-3.2,2.6-5.1,5.8-5
		C67.9,372.1,69.5,374.1,69.9,377.2z"/>
	<path class="st2" d="M103.4,379.9c2.7,0.9,4.7,2.6,4.5,5.7c-0.2,3.5-2.7,5-5.7,4.9c-2.9-0.1-5.1-2.1-5-5.2
		C97.2,381.7,100.4,380.8,103.4,379.9z"/>
	<path class="st2" d="M88.8,405.6c-2.7-0.8-5.1-2-5-5.3c0.1-3.3,2.4-5,5.1-5c2.8,0,5,1.9,4.9,5.1C93.8,403.6,91.6,405,88.8,405.6z"
		/>
	<path class="st2" d="M70.8,363c-3.1-0.1-5-1.5-5.1-4.8c-0.1-3.6,2.1-5.2,5.2-5.2c3.3,0,4.6,2.7,4.6,5.5
		C75.6,361.1,74,363.1,70.8,363z"/>
	<path class="st2" d="M88.8,385.6c-0.5,2.9-2,5-5.1,5c-2.8,0-4.7-2.1-4.7-4.8c0-3,2-4.8,5-5.1C87.3,380.6,88.2,383,88.8,385.6z"/>
	<path class="st2" d="M84,370.8c0.1,2.9-1.4,4.3-4.3,4.2c-3-0.1-5.5-1.4-5.5-4.5c0-3,2.6-4.3,5.2-4.3C82,366.1,84.1,367.5,84,370.8z
		"/>
	<path class="st2" d="M66.1,397.9c-2.5,0.2-4.3-0.6-4.2-3.5c0.1-2.9,1.8-4.6,4.7-4.5c2.4,0.1,5,0.8,5,3.6
		C71.6,396.7,68.9,397.7,66.1,397.9z"/>
	<path class="st2" d="M329.8,333c0.3-2.3,1-4.9,4.4-5.1c2.8-0.2,6.7,3.5,6.4,6.3c-0.3,3.3-3,4.2-5.7,4.5
		C332,339,329.8,336.6,329.8,333z"/>
	<path class="st2" d="M361.2,309c-4.4,0.1-6.1-1.8-6-4.8c0.1-2.9,1.1-5.5,5-5.5c3.2,0,5.3,1.5,5.4,4.5
		C365.5,306.4,363.8,308.8,361.2,309z"/>
	<path class="st2" d="M325.9,318.6c0.2,3.4-1.9,5-4.8,5.1c-3.3,0.2-5.1-2.1-5.3-5.3c-0.1-2.9,1.6-4.6,4.5-4.7
		C323.7,313.7,325.7,315.1,325.9,318.6z"/>
	<path class="st2" d="M352.9,325c-4.7-0.3-6.2-2-6.2-5.2c0-2.9,1.4-4.2,4.3-4.1c3.2,0.1,5.6,1.5,5.5,5
		C356.4,323.5,354.6,325.2,352.9,325z"/>
	<path class="st2" d="M331.7,317.3c0.1-2.6,1.7-5,4.8-5.2c2.4-0.1,4.4,1.4,4.3,4.3c-0.1,3.3-2.1,5.1-5.3,5.4
		C332.8,322.1,331.7,320.4,331.7,317.3z"/>
	<path class="st2" d="M354.6,338.8c-0.9,2.4-1,5.7-4.3,5.8c-2.9,0-4.3-2.7-4.2-5.2c0.1-2.6,2.1-4.5,4.9-4.5
		C353.4,334.9,354.4,336.5,354.6,338.8z"/>
	<path class="st2" d="M227.8,84.9c-0.5,3.4-2.3,5.8-5.6,6c-3.5,0.3-4.9-2.7-5.2-5.5c-0.4-3.6,2.5-5.1,5.4-5.2
		C225.1,80.1,227.3,81.8,227.8,84.9z"/>
	<path class="st2" d="M261.9,102.9c-0.1,3.7-2.2,5.5-5.3,5.6c-3.2,0.1-5.4-2-5.4-5.2c-0.1-3.6,2.7-4.8,5.7-5
		C260.2,97.9,261.5,100.2,261.9,102.9z"/>
	<path class="st2" d="M233.4,63.1c3.2,0.6,5.2,2.4,5.1,5.4c-0.1,3.2-2.1,5.4-5.4,5.2c-3-0.2-5-2.3-5-5.2
		C228.1,65.1,230.6,63.6,233.4,63.1z"/>
	<path class="st2" d="M244.6,114.1c-0.8,2.8-2.2,5.1-5.4,4.9c-3.2-0.2-5.3-2.2-5.2-5.4c0.1-3.1,2.8-4.4,5.5-4.5
		C242.8,108.9,243.9,111.4,244.6,114.1z"/>
	<path class="st2" d="M238.6,93.8c3.2-0.3,4.8,1.6,4.9,4.3c0.1,3.2-1.9,5.4-5.1,5.5c-2.9,0.1-4.4-2-4.5-4.8
		C233.7,95.5,235.6,94.1,238.6,93.8z"/>
	<path class="st2" d="M243.5,83c-0.6,2.5-1.8,4.8-4.8,4.7c-3-0.1-4.9-2.3-5.3-5.1c-0.3-2.8,1.8-4.3,4.4-4.3
		C240.7,78.4,243,79.6,243.5,83z"/>
	<path class="st2" d="M219.8,105.9c-2.3-0.5-5.2-0.8-4.9-4.2c0.2-2.7,2.3-3.9,5-3.8c2.7,0,4.7,1.3,4.8,4
		C224.7,104.7,222.7,105.8,219.8,105.9z"/>
	<path class="st2" d="M384.8,41.7c-0.2,4.2-2.6,5.9-5.8,6c-3,0.1-5.1-1.9-5.1-4.9c0.1-3.4,2.6-5.5,5.7-5.7
		C382.8,37,384.1,39.5,384.8,41.7z"/>
	<path class="st2" d="M345.7,41.6c-0.8,2.3-1.5,5.6-5.1,5.2c-3.1-0.3-5.8-2.5-5.5-5.9c0.2-3.1,2.7-5,5.9-4.8
		C344,36.2,346,37.8,345.7,41.6z"/>
	<path class="st2" d="M343.5,26.1c-3-0.1-5.5-1.5-5.4-4.6c0-3,1.8-5.4,5.3-5.5c3.7-0.1,4.9,2.8,5,5.7
		C348.5,24.5,346.6,26.2,343.5,26.1z"/>
	<path class="st2" d="M361.4,51c-3.5-0.4-5.3-2.5-5.2-5.3c0.1-2.5,1.8-4.8,4.8-4.7c3.1,0.1,4.7,2.2,4.7,5.3
		C365.8,49.3,363.9,50.7,361.4,51z"/>
	<path class="st2" d="M355.1,27.8c2.3-0.1,3.9,1.3,3.8,4.5c-0.1,3.1-2.2,4.5-4.9,4.4c-2.5-0.2-5-1.5-5.1-4.5
		C348.9,28.7,351.4,27.8,355.1,27.8z"/>
	<path class="st2" d="M350.6,56.4c-0.5,3.7-3.2,4.5-6,5.1c-2.5,0.5-3.7-1.2-3.7-3.5c0.1-3.1,1.9-5,5-4.9
		C348.1,53.1,350.1,53.9,350.6,56.4z"/>
	<path class="st2" d="M186.6,264.9c-3.5-0.1-5.2-2.3-5.3-5.1c-0.1-3,1.6-5.8,5-5.7c3.7,0.1,5.6,2.8,5.6,6.4
		C191.9,264.1,188.9,264.4,186.6,264.9z"/>
	<path class="st2" d="M206.8,228.4c0.1-1.9,1.6-3.6,4.9-3.6c3.7,0,5.1,2.3,4.9,5.5c-0.2,2.9-2,5.3-5,5.2
		C208.5,235.2,206.6,233.1,206.8,228.4z"/>
	<path class="st2" d="M172.4,250c-3.3-0.1-5-2.2-5-5.1c0-2.9,1.7-5.1,5-5c3.2,0.1,5.4,1.9,5.3,5.3
		C177.6,248.3,175.4,249.8,172.4,250z"/>
	<path class="st2" d="M192.7,243.4c-1,2.7-2.6,4.5-5.7,4.5c-3,0-4.3-1.8-4-4.5c0.3-2.9,2-5.2,5.1-5.2
		C190.9,238.4,192.2,240.6,192.7,243.4z"/>
	<path class="st2" d="M203.2,251c-3.4,0.2-5.1-1.8-5.1-4.8c0-2.5,1.4-4.4,4.3-4.4c3.1,0,5.2,1.2,5.4,4.5
		C208,249.5,206,250.7,203.2,251z"/>
	<path class="st2" d="M205.9,265.5c-0.5,2.1-0.6,5.1-3.9,5.1c-2.7,0-4.1-2.1-4.1-4.7c0-3.1,1.9-4.9,5-4.9
		C205.7,260.9,205.9,263.1,205.9,265.5z"/>
	<path class="st2" d="M96.8,119.9c-0.5,2.6-1.3,5.7-5,5.8c-3.3,0-5.7-2.1-5.8-5.5c-0.1-3.8,2.9-5,6-5.1
		C94.7,115,96.9,116.2,96.8,119.9z"/>
	<path class="st2" d="M101.7,83.1c0.2,1,0.3,1.9,0.6,2.9c0.8,2.9-0.5,5-2.8,6.3c-2.2,1.3-4.3,0.2-5.9-1.4c-1.7-1.6-2.2-3.7-0.9-5.9
		c1.4-2.3,3.2-3.2,5.9-2.4c0.9,0.3,2,0.3,2.9,0.4C101.6,83.1,101.7,83.1,101.7,83.1z"/>
	<path class="st2" d="M76.5,89c-1.8-0.1-4.3-1.6-4.5-4.8c-0.2-3.2,2.1-5.2,5.3-5.2c3.5,0,5.1,2.5,5.2,5.5C82.7,87.1,81,89.1,76.5,89
		z"/>
	<path class="st2" d="M76.9,126.4c-0.5,2.8-2.2,4.6-5.3,4.4c-3-0.2-4.9-2.1-4.7-5.2c0.2-3.3,2.7-5.1,5.6-5
		C75.5,120.8,77.1,123,76.9,126.4z"/>
	<path class="st2" d="M88.1,94.8c2.8,0.3,4.8,1.6,4.6,4.6c-0.3,2.9-2,5.2-5.1,5c-2.6-0.2-5.2-1.4-4.8-5
		C83.1,96.2,85.1,94.9,88.1,94.8z"/>
	<path class="st2" d="M82,112c0.1,2.9-1.6,4.6-4.2,4.5c-3.1-0.1-4.7-2.5-4.8-5.4c-0.1-2.8,1.7-4.3,4.4-4.3
		C80.8,106.8,81.9,109,82,112z"/>
	<path class="st2" d="M99.8,108.9c-0.1-2.3,0.7-4.1,3.3-3.9c3.2,0.3,5.3,2.2,5.6,5.3c0.2,2.3-1.7,3.5-4,3.5
		C101.5,113.9,99.9,112.1,99.8,108.9z"/>
	<path class="st2" d="M405.3,138c-2.6,0.2-4.3-1.8-4.2-4.7c0.1-2.8,1-5.7,4.9-5.5c3.9,0.2,5.6,2.8,5.7,6.2
		C411.8,137.4,408.9,137.9,405.3,138z"/>
	<path class="st2" d="M433.6,99.9c2.9,0.4,5.1,2,5.1,5.3c0,3.2-1.8,5.5-5.1,5.6c-3.5,0.1-4.9-2.3-4.9-5.6
		C428.7,102.1,430,100.2,433.6,99.9z"/>
	<path class="st2" d="M398.8,116.8c-0.5,4.1-2.8,5.8-6.1,5.7c-3.2-0.2-4.5-2.9-4.3-5.6c0.1-3,2.3-4.9,5.3-4.6
		C396.3,112.5,398.5,114.1,398.8,116.8z"/>
	<path class="st2" d="M424.4,126c-3.5,0-5.5-1.4-5.5-4.7c0-2.9,1.4-5.1,4.3-5c3,0,5.5,1.7,5.6,5.1
		C428.8,124.4,426.9,125.8,424.4,126z"/>
	<path class="st2" d="M413.7,116.3c-0.5,3.1-2.2,5-5.2,5.3c-2.8,0.3-4.5-1.6-4.6-4.2c-0.1-3.3,2-5.2,5.2-5.5
		C412.2,111.8,413.1,114,413.7,116.3z"/>
	<path class="st2" d="M421.2,145c-3.1-0.3-4.2-2.4-4.1-4.5c0-2.9,1.9-5.1,5-5.1c2.3,0,3.7,1.9,3.5,4.1
		C425.2,142.1,423.9,144.5,421.2,145z"/>
	<path class="st2" d="M250.7,180.7c-0.8,2.7-1.1,5.7-5,5c-3.1-0.6-6-1.9-5.6-5.6c0.4-3.1,2.3-5.7,6-5.1
		C249.3,175.4,250.7,177.7,250.7,180.7z"/>
	<path class="st2" d="M287.8,168.8c-0.5,2.8-2.2,4.9-5.5,5c-3.2,0.1-5.1-2.1-5-5c0.1-2.9,2-5.7,5.1-5.7
		C285.4,163.2,287.7,165,287.8,168.8z"/>
	<path class="st2" d="M241.5,165.7c-3-0.3-5.2-1.8-5.3-4.8c-0.1-3,1.4-5.7,4.9-5.7c3.2,0,5.4,2.1,5.5,5.3
		C246.7,163.4,244.5,165.1,241.5,165.7z"/>
	<path class="st2" d="M259.9,166.7c0.1,3.3-1.9,4.9-4.9,4.9c-2.5,0-5-1.1-5.1-4.3c-0.1-3.7,3.1-4.6,5.7-4.9
		C258.2,162.1,259.9,163.8,259.9,166.7z"/>
	<path class="st2" d="M261.7,178c0.2-2.9,1.3-5.1,4.4-5c3.1,0.1,4.7,2.2,4.7,5.3c0,2.7-1.4,4.6-4.1,4.5
		C263.8,182.7,261.7,181.2,261.7,178z"/>
	<path class="st2" d="M259.9,192.8c-0.6,2.9-2.3,4.9-5.5,5.1c-2.5,0.2-3.6-1.4-3.5-3.7c0.1-3.2,2.3-4.7,5.1-5.1
		C258.2,188.9,259.5,190.4,259.9,192.8z"/>
	<path class="st2" d="M380.8,449.9c-3.4,0.1-4.8-2.2-4.8-5c0-3.3,1.9-5.8,5.5-5.7c3,0.1,5.1,2.2,5,5.1
		C386.4,447.5,384.5,449.8,380.8,449.9z"/>
</g>
</svg>
