<svg version="1.1" id="Capa_1" xmlns="http://www.w3.org/2000/svg" x="0" y="0" viewBox="0 0 470.2 471" style="enable-background:new 0 0 470.2 471" xml:space="preserve"><style>.st1{fill:#99693a}.st2{fill:#4c2f19}</style><g style="opacity:.15"><path class="st1" d="M199 160.8c-.1 17.5-13.4 30.8-30.6 30.9-15.6.1-30.5-15-30.4-30.6.2-18.9 12.8-32.3 30.3-32.2 17.3.1 30.8 14.1 30.7 31.9zm-40 11.5c0-4.3-1.3-7.1-4.9-7.1-3.4 0-5.2 2.7-5.2 6.1 0 3.4 2.2 4.4 5.3 4.6 3.2.3 4.9-1 4.8-3.6zm20.7-20.3c.2 3.4 2.3 5 5.2 4.7 3.1-.3 5.1-2.3 5-5.7-.1-3.1-1.9-5.1-5-5-3.5.2-4.9 2.8-5.2 6zm-30.6 1.9c3.1-.2 5.3-1.8 5.5-4.7.2-3.5-2.5-5.6-5.6-5.8-3.2-.3-4.7 2.5-4.7 5.3-.1 2.9 1.7 4.9 4.8 5.2zm19.8-9.9c3.4 0 5.4-2 5.4-5.1 0-2.8-1.8-5-5.1-4.9-3.5.1-5.1 2.6-5.2 5.5 0 2.8 1.8 4.6 4.9 4.5zm-3.9 14.9c2.6-.4 4.8-1.7 4.7-5-.1-2.8-1.9-4.2-4.6-4-3 .2-5.1 1.9-5.2 5 0 2.9 2.1 4 5.1 4zm13 10.9c-.1-3.1-1.6-5-4.8-5-3.1 0-4.4 2-4.3 4.8.1 3.3 2.4 4.8 5.2 4.8 2.4.1 4-1.8 3.9-4.6zM164.6 188c1.9-1.1 4.2-2.3 4.3-5.5.1-2.5-1.2-3.7-3.7-3.6-3.7.2-4.8 2.8-4.9 5.8-.1 2.1 1.6 3.2 4.3 3.3zm28.1-13.9c-.7-2.5-1.8-4.7-4.5-4.5-2.5.2-4.5 1.9-4.2 4.6.2 2.8 2.6 3.7 5.1 3.7 2.2-.1 3.4-1.6 3.6-3.8zM370.6 247.9c.8-19.7 12.1-31.8 30.1-32 17.2-.2 31.1 14.4 30.9 31.9-.1 17.8-13.8 31.2-31.6 30.9-15.3-.2-29.6-15.2-29.4-30.8zm21.1 9.8c-.4-2.7-1.8-5.6-5.3-5.5-3.3.1-5.3 3-5.3 6.2 0 3.4 2.5 4.5 5.8 4.6 3.5.1 4.7-1.6 4.8-5.3zm25.7-24.7c-3.4.4-5 2.9-5.2 5.8-.2 3 1.6 5.1 4.9 5 3.3-.1 5.4-1.9 5.6-5.2.3-3.5-2.4-4.7-5.3-5.6zm-35.3 7.9c2.8-.2 4.9-1.5 4.7-4.8-.1-3.1-1.6-5.4-5.2-5.3-3.4.1-4.6 2.4-4.7 5.2-.2 3.3 1.7 4.8 5.2 4.9zm19.7-9.9c3.1-.1 5-1.6 5-4.8 0-3.1-1.8-5.2-4.9-5.1-3.3.1-5.1 2.3-5.1 5.6 0 3.1 2.1 4.2 5 4.3zm4.2 20.8c-3.2-.2-4.8 1.8-4.9 4.5-.2 3.1 1.9 5 4.8 5.3 3 .3 4.7-1.7 4.8-4.5 0-3-1.4-5.1-4.7-5.3zm-9.3-5.9c3.2.1 5.3-1.4 5.5-4.5.2-2.4-.9-4.7-4-4.5-2.9.2-5.2 1.2-5.5 4.6-.2 2.8 1 4.5 4 4.4zm5.1 23.9c-.4-2.4-1.6-4-4-3.7-2.8.4-5 1.9-5 5.2-.1 2.4 1.2 4.1 3.5 3.9 3-.3 4.9-2.4 5.5-5.4zm23.1-8.8c-.3-2.4-1.6-4.3-4.4-4-2.3.2-4.3 1.9-4.2 4.1.2 2.4 2.4 3.8 5 3.9 2.5-.1 3.5-1.4 3.6-4zM125.8 59.6c0-16.2 13.4-29.2 29.9-29.1 17.7.1 31.9 14.5 31.8 32.4-.1 16.3-13.5 29.7-29.6 29.6-18.7-.2-32.1-13.9-32.1-32.9zm23 23.4c2.8-.2 5.8-1 5.7-4.6-.1-3.2-2.3-5.9-5.7-6-3.2-.1-5.1 2.1-5.1 5.5.1 3.2 1.6 5 5.1 5.1zm18.7-42.2c-3.8 0-5.6 1.5-5.7 4.8-.1 3.4 1.6 5.7 4.8 5.8 3.3.1 5.1-2.4 5.1-5.6 0-2.8-1.4-5-4.2-5zm-33.4 15c-3.1-.2-4.9 1.5-5 4.3-.1 3 1.4 5.7 4.9 5.7 3.2 0 5.5-2.1 5.5-5.3 0-2.9-2.4-4.4-5.4-4.7zm13.5-18c-3.9 0-5.5 2-5.5 5s1.9 5.1 5 5c2.9-.1 5-1.7 4.9-5-.1-3.2-1.8-4.9-4.4-5zm-1.8 20.9c.2 2.4 1 4.2 3.8 4.2 3.4 0 5.5-1.9 5.7-5 .1-2.4-1.5-4.7-4.2-4.7-3.2.1-4.8 2.4-5.3 5.5zm24.1 7.7c-.2-2.1-1.9-3.6-5-3.6-2.9 0-4.2 1.4-4.2 4.2.1 3.5 1.9 5 5.3 5 3-.1 4.1-1.7 3.9-5.6zm-1.1 16.8c-.4-2.3-1.3-4.3-4-4.2-2.9.2-4.5 2.3-4.6 5 0 2.2 1.3 4.5 3.7 4.7 3.6.2 3.9-3 4.9-5.5zm11.5-23.3c-3.1.1-4.2 2.2-4.2 4.6 0 2.6 2 3.6 4.4 3.4 2.4-.1 4.2-1.3 4.2-3.9 0-2.7-1.9-4-4.4-4.1zM343 397.3c.1 17.7-14.3 32.5-31.7 32.4-15.1-.1-28.6-12.7-29.1-25.3-1-22.4 12.2-37.5 31-37.6 16.3-.1 29.7 13.6 29.8 30.5zm-12.3-1.4c-3.3.5-5.6 2.3-5.7 5.7 0 3.2 2.5 4.8 5.2 4.8 3.2 0 5.8-1.8 5.5-5.6-.1-2.9-1.8-4.7-5-4.9zm-36.3-3.2c-3 .3-5.7 1.5-5.3 5 .3 2.9 2.2 5.9 5.2 5.8 3.1-.1 5.3-2.8 5.4-6.1.1-3.4-2-4.7-5.3-4.7zm14.6-14.8c-.1-3.7-1.3-6-4.6-5.9-3.2.2-5.3 2.3-5.4 5.4-.1 3.4 2.5 5.1 5.5 5 3 .1 4.8-1.9 4.5-4.5zm21.8 5.4c.2-4.5-1.8-6.2-4.7-6.3-2.8-.1-5.2 1.2-5.3 4.6-.1 3.4 1.6 5.3 5.1 5.3 3.1 0 4.8-1.7 4.9-3.6zm-20 20.4c-3 .2-5 1.5-4.9 4.8.1 3 1.7 5.1 4.8 5.1 3.2 0 4.8-2.4 4.7-5.3-.2-2.4-1.1-4.9-4.6-4.6zm2.2-16.9c-3 .1-5.2 1.2-5 4.3.2 3 2.4 4.7 5.4 4.7 2.7.1 4.4-1.5 4.5-4.2.1-3.3-2-4.6-4.9-4.8zm-18.1 31.1c2.6.1 5.1-.3 5-3.8-.1-2.9-2.3-4-4.7-4-2.7.1-4.8 1.9-4.9 4.7-.1 2.8 2.1 3.3 4.6 3.1zm28.9 3.2c-.1-2.4-1.2-4.2-4.1-4.2-2 0-4 .7-4 3.3 0 2.7 1.1 5.1 4 5.2 2.4.1 4-1.4 4.1-4.3zM239.9 377c-18.8-.3-31.8-14.1-31.9-33.2-.1-18.1 16.4-29.1 30.5-28.8 17.9.3 31.7 15 31.3 33.3-.4 16-13.8 28.9-29.9 28.7zm-3-13.9c-.7-3.6-2.5-6.2-6.2-6.1-3.2.1-4.7 2.7-4.6 5.5.1 2.8 1.4 5.5 4.8 5.1 2.7-.2 5.7-.8 6-4.5zm12-27.1c3.3-.1 4.9-1.9 5.1-5.3.2-3.2-1.3-5.4-4.4-5.5-3.1-.1-5.5 1.5-5.6 5-.1 3.1 1 5.6 4.9 5.8zm-37.2 9.1c.1 3 1.4 5.5 4.6 5.5 3 0 5.5-1.8 5.5-5.3s-2.6-5.1-5.6-5.1c-2.9 0-4.7 1.8-4.5 4.9zm23-17.7c-.3-2.8-1.9-5-4.8-5.2-3-.3-5.1 1.6-5.3 4.7-.1 2.8 1 5.6 4.2 5.7 3 0 5.4-1.7 5.9-5.2zm14.2 29.4c1.8-.3 4-1.4 3.8-4.6-.2-3.2-2.1-5.3-5.5-5.2-2.5.1-4.5 1.4-4.4 4.4.2 3.2 1.5 5.5 6.1 5.4zm-16.7-9c2.6-.6 5.2-1.6 5.5-4.8.3-2.9-1.5-4.8-4.3-5-3.3-.2-4.7 2.3-5.2 5-.5 2.6 1.3 4.1 4 4.8zm18.6 20.3c0-2.3-.4-4.2-3.1-4.3-2.9-.1-4.7 1.4-4.9 4.3-.2 2.8 1 5.3 3.9 5.2 3 0 3.5-3 4.1-5.2zm7.8-18.9c-.4 2.1 1.3 3.3 3.7 3.4 2.7.2 4.4-1.2 4.5-4.1.1-2.9-1.9-4.3-4.3-4.4-2.6 0-3.6 1.9-3.9 5.1zM164.7 355.6c17.2-.1 31 13.7 31.1 31 .1 18.3-12.8 31.4-30.9 31.5-15.7.1-30.1-14.4-30.1-30 0-19 12.4-32.5 29.9-32.5zm-8.8 41.6c-.3-2.5-1.6-5.2-5.2-5.2-3.2 0-5 2.6-5.2 5.7-.3 3.7 2.4 4.8 5.4 5.1 3.4.3 4.9-1.6 5-5.6zm20.9-19.5c-.3 3.9 1.5 5.8 4.2 5.8 3.2 0 5.8-1.7 5.8-5.4 0-3.4-1.9-5.2-5.3-5.3-3.7 0-4.3 2.9-4.7 4.9zm-31.7-7.8c-2.3.8-3.9 2.7-4.1 5.5-.2 3.3 2.2 4.8 5 4.9 2.8.1 5.4-1.4 5.4-4.6-.1-3.2-2.3-5.3-6.3-5.8zm25.9-4.1c-.1-3.2-1.6-5-4.9-4.9-3.2.1-5 1.9-5.1 5-.1 3.2 1.9 4.9 5 5 3.3-.1 4.9-1.9 5-5.1zm-.6 35.2c2.5-.2 4.4-1.5 4.4-4.6 0-3-1.7-5.2-4.7-5.3-2.8-.2-4.8 1.9-4.9 4.6 0 2.9 1.8 4.8 5.2 5.3zm-3.6-20.1c-.4-2.8-2-4.5-4.5-4.4-3 .1-5.5 1.5-5.4 5.1 0 2.6 1.6 4.1 4.1 4.1 2.9-.1 5.2-1.5 5.8-4.8zm-5.3 33.9c2.3-1.1 4.6-2.6 4.4-6-.1-2.7-2-3.2-4.2-3-3.1.4-4.8 2.2-4.6 5.3.1 2.3 1.5 3.6 4.4 3.7zm28-13.9c-.5-2.3-1.4-4.6-4.1-4.8-2.4-.2-4.5 1.2-4.7 4.1-.2 3.3 2.3 4.2 4.8 4.5 2.6.3 3.4-1.7 4-3.8zM354.7 109.4c.6 17.8-13.3 33.7-30.6 33.3-18.3-.4-29.6-10-30.6-30-.8-16.9 13.9-32.2 30.9-32.7 12.1-.4 29.3 9.6 30.3 29.4zm-48.6-3.5c-2.9.4-5.4 1.4-5.4 5.1 0 3.4 2.2 5.5 5.2 5.7 3.2.2 4.9-2.4 5-5.6.2-3.3-1.3-5.1-4.8-5.2zm41.6 8.4c-.7-2.9-2.2-5.3-5.3-4.9-3 .4-5.9 2-5.6 5.8.2 3.1 2.3 4.8 5.4 4.6 3.3-.3 5.1-2.3 5.5-5.5zm-37-24.4c-.1 4.2 2 5.8 4.9 5.9 2.9.1 5.1-1.3 5.2-4.6.1-3.4-1.7-5.6-4.8-5.7-3.1-.2-5.1 1.9-5.3 4.4zm32 5.4c-.2-3.2-2.4-4.9-5.2-5-3-.2-5.3 1.9-5.4 4.8-.1 3.3 2.5 5.2 5.4 5.4 3.2.1 4.7-2.3 5.2-5.2zm-15.9 26.4c-.2-2.8-1.4-4.9-4.5-4.8-2.8.1-5 1.6-5 4.4 0 2.7 1.1 5.4 4.6 5.5 3.2 0 4.6-2 4.9-5.1zm-2.1-12.7c3.2.2 4.8-1.7 4.8-4.5 0-3-2.6-4.3-5.1-4.4-2.4-.1-4.6 1.1-4.7 4 0 3.3 2 4.8 5 4.9zm-17.8 14.8c-2.8.1-4.9 1.3-4.9 4.3 0 2.6 1.8 3.9 4.2 3.7 2.5-.2 5.2-1.2 5.4-4.1.2-2.9-2.2-3.7-4.7-3.9zM331 130c-1.7.7-4.2.9-4.1 3.8.2 2.8 1.9 4.7 4.6 4.9 2.7.3 3.8-2 3.9-4.2.3-2.6-1.4-4.1-4.4-4.5zM6.9 332.8C.7 325.9-.8 317.5.4 308.7 2.2 295.6 14 284.1 26.9 282c12.5-2 25.2 4.6 31.1 16.2 6.3 12.3 3.8 27.3-6.2 37.2-14.6 14.3-35.8 10.4-44.9-2.6 2.2 0 4.3.2 6.5 0 1.9-.2 3.4-1.2 3.6-3.5.1-2.3-1.4-3.3-3.1-4-4.1-1.5-6.8 1.5-7 7.5zm3.9-14.2c2.9 0 6.2-4.1 5.9-6.8-.3-3-2.4-4.6-5.1-4.4-2.8.1-5.7 1.2-5.8 4.9.1 3.4 2.7 5 5 6.3zm36.7 2.4c3.3 0 5.5-1.5 5.3-5.1-.2-3-2-5.1-5.1-4.9-3.4.2-5.7 2.2-5.7 5.7.1 3.4 2.6 4.4 5.5 4.3zm-21.6-28.8c.3-3.3-1.7-5.1-4.7-5-3 .1-5.4 1.9-5.3 5.3.1 3.4 2.6 5.1 5.6 5.1 3-.1 4.8-2.1 4.4-5.4zm17 9.7c3.5-.1 4.8-2.3 4.9-5.2.1-3.4-2.2-4.8-5.1-4.7-2.9.1-5.3 1.8-5.3 4.8 0 3.3 2.5 4.7 5.5 5.1zM32 323.2c.2-2.7-1.2-4.9-4.1-4.8-2.8.1-5.1 1.8-5 5.1.1 2.8 1.7 5 4.4 5.1 3 .1 4.8-1.9 4.7-5.4zm2.9-16.6c-.2-3.1-1.8-4.6-4.7-4.7-2.8-.1-5.1.8-5.2 3.9-.1 3.1 1.9 4.9 5 5.1 2.9.1 4.6-1.4 4.9-4.3zm1.9 25.2c-2.3.1-4.5.7-4.5 3.1.1 2.5 1.3 5.1 4.2 5.5 2.5.3 4-1.6 4.2-4 .3-2.8-1.3-4.3-3.9-4.6zM470.2 434.7c-.1 17.7-13.6 31-31 30.8-15.5-.2-30-14.9-30-30.3.1-19 12.9-32.6 30.5-32.4 17.2.2 30.6 14.2 30.5 31.9zm-39.8 10c-.3-2.8-1.5-5.5-4.9-5.6-3.5-.1-5.4 2.3-5.7 5.7-.3 3.6 2 4.8 5.3 5.1 3.8.4 4.9-1.8 5.3-5.2zm31.2-19.6c-.7-3-2.5-5.2-5.7-5.1-3.6.2-5 3.1-5 6.2.1 2.7 1.6 4.8 4.8 4.5 3.4-.2 5.4-2.1 5.9-5.6zm-21.4-7.2c3.8.1 5.5-2 5.4-5.2-.1-2.8-2-4.7-4.8-4.7-3.2 0-5.2 1.7-5.2 5.2 0 3.4 1.5 4.9 4.6 4.7zm-24.6 5c.2 3.1 1.7 5 4.9 4.8 2.9-.2 5.1-2 5.1-5 0-3.1-1.8-5.2-5.4-5-3.2.2-4.5 2.2-4.6 5.2zm20.6 9.9c2.9-.2 4.7-1.7 4.6-5-.1-2.8-1.8-4.2-4.6-4-3 .2-5.1 1.9-5.2 4.9-.2 3.1 2.1 4.2 5.2 4.1zm8.5 15.7c2.9-.5 4.9-2.1 4.7-4.9-.2-2.8-2-5-5.2-4.9-3.2.1-4.2 2.5-4.3 5.1-.1 3 2.3 4 4.8 4.7zm-13 9.5c-.1 2.3.9 3.9 3.4 3.9 3.4-.1 5.1-2.5 5.4-5.4.2-2.3-1.6-3.6-3.9-3.4-3 .1-5.1 1.5-4.9 4.9zm27-14.3c-2.3.3-3.9 2.1-3.7 4.6.2 2.5 2.6 3.4 4.8 3.4 2.5 0 4.1-1.7 3.8-4.2-.2-2.4-1.8-3.8-4.9-3.8zM3.7 32.5C3.5 16.2 18.5 1.1 34.9 1.1c14.4 0 29.9 11.8 30 30.5.1 17.6-14 32.3-31.3 32.4-13 0-29.9-9.5-29.9-31.5zm7.1-.5c0 2.7 2.6 5.8 5 5.9 2.4.2 6.1-3.7 5.8-6.4-.2-3.1-2.3-4.7-5.3-4.6-3.1.2-5.5 1.4-5.5 5.1zm42.1-16.1c-.6-2.6-2.1-4.9-5.1-4.7-2.9.1-5.7 2-5.5 5.2.1 3.1 2.8 5.1 5.8 5 2.7 0 4.7-2 4.8-5.5zm-1.5 15c-1.7.3-4.4 1.6-4.4 4.9 0 3.3 2.3 5.2 5.6 5 3-.1 5.1-2 5.1-5.1 0-2.8-1.5-5-6.3-4.8zM26.2 6.8c-3.1.1-5.2 1.4-5.2 4.7 0 3.1 1.9 5.1 4.8 5.3 3.1.2 4.9-1.7 5.1-4.9.1-3.2-1.5-4.9-4.7-5.1zM37 42.9c-.1-2.9-1.3-5-4.4-5-3.2 0-4.8 1.8-4.8 5 0 2.9 1.3 4.8 4.4 4.9 3.3.2 4.7-1.8 4.8-4.9zM34.9 21c-2.7.5-5.1 1.2-5 4.5.1 3.3 2.4 4.9 5.2 4.9 2.4.1 4.6-1.5 4.7-4.2.1-3.2-2.2-4.5-4.9-5.2zm-13 27.7c-.5-2.8-2.3-3.8-4.9-3.9-3.1-.1-4.7 1.7-4.9 4.5-.1 2.3 1.7 3.7 3.9 3.4 2.5-.3 5.5-.4 5.9-4zM41.6 51c-1.9.7-4.6.8-4.4 3.7.2 2.6 1.6 5 4.6 5.1 2.5.1 3.9-1.6 4-4.1.1-2.8-1.4-4.4-4.2-4.7zM113.1 214.8c0 16.2-13.2 29.3-29.2 29.2-19.2-.1-32.3-13.5-32.2-33.1C51.7 195 65 182 81.3 182c17.9 0 31.8 14.3 31.8 32.8zM80 229.4c-.3-2.8-1.9-5.3-5.4-5.3-3.3 0-5 2-4.9 5.5.1 3 1.2 5.4 4.6 5.1 2.7-.3 5.8-.8 5.7-5.3zm7.7-32.3c0 3.6 1.3 5.7 4.6 5.8 3.6.1 5.2-2.5 5.3-5.5.1-3.2-2.2-5.4-5.4-5.3-3.1.2-4.8 2.2-4.5 5zm-19.9-2.3c.4 2.5 1.5 5.1 4.8 4.8 2.9-.2 5.4-1.9 5.2-5.4-.1-3-1.8-5.1-4.9-5.1-3.3-.1-4.9 2.1-5.1 5.7zM65 212.5c.1-4.1-2.8-5.2-5.5-5.3-2.7-.1-4.4 2.1-4.6 4.9-.2 3.2 1.9 5.2 4.7 5.3 3 .2 5.2-1.8 5.4-4.9zm25.6 1.5c-2.7.4-4.7 1.8-4.5 4.5.2 3 1.7 5.6 5.3 5.3 2.7-.3 4.7-1.7 4.4-4.9-.3-3.2-2.2-4.7-5.2-4.9zm-14.9.8c2.5-.9 5.2-1.9 5.2-5.5 0-2.5-1.3-4.3-3.8-4.4-3.4-.2-5.1 2-5.3 5.3-.2 2.6 1.2 4.1 3.9 4.6zM94 235.3c0-3.2-1.1-4.8-3.8-4.5-2.6.3-4.2 1.8-4.2 4.5 0 2.9 1.7 5 4.4 4.9 3-.1 3.5-2.9 3.6-4.9zm12-15.5c2.6-.4 4.7-1.6 4.6-4.3-.2-2.9-2.6-4.3-5.2-4.3-2.6.1-3.3 2.5-3.4 4.7-.2 2.7 1.7 3.6 4 3.9zM258.4 255.4c0-16.4 15-31.4 31.3-31.4 16.1 0 29.9 14.1 30 30.7.1 17.6-14.5 32.6-32 32.2-13.8-.3-29.3-10.5-29.3-31.5zm48.4 8.5c3.3-.1 5.6-1.7 5.8-4.9.2-2.9-1.2-5.2-4.6-5.2-3.4 0-5.8 1.3-6.1 5-.4 3.5 2.1 4.5 4.9 5.1zm-30.8-9.6c-.3-2.8-1.8-4.6-5.1-4.4-3.1.3-5.4 1.6-5.2 5.2.2 3.2 2.1 5.6 5.1 5.6 3.5 0 5-2.8 5.2-6.4zm31.7-15.1c-.7-2.9-2.3-5.1-5.3-4.8-3 .2-5.5 1.9-5.3 5.3.2 3.3 2.8 4.9 5.8 4.8 3-.1 4.4-2.5 4.8-5.3zm-32-3.9c.1 2.9 2.2 4.5 5.1 4.5 2.9 0 5.1-1.5 5-4.9-.1-3.4-1.7-5.3-5.2-5.1-3.2.2-4.8 1.9-4.9 5.5zm16.1 30.7c-.1-2.9-1.1-5-4.2-5.1-3.2-.1-5.2 1.9-5.3 4.7-.1 2.6 1.1 5.3 4.6 5.3 3.3 0 4.8-1.8 4.9-4.9zm3-17.4c-.7-3-2.8-4.5-5.7-4.4-2.4.1-4.5 1.4-4.3 4.4.2 3.2 2.5 4.9 5.3 4.8 2.5 0 4.4-1.8 4.7-4.8zm-23.3 27.2c2.4-.4 5.1-.8 5.2-4.1 0-2.8-2.1-3.9-4.7-4-2.9-.1-5 1.3-5 4.3-.1 2.7 1.8 3.7 4.5 3.8zm29.1 2.8c-.3-2.7-1.7-4.6-4.4-4.4-2.1.1-4.5.9-4.3 3.8.2 2.8 1.7 4.7 4.7 4.8 2.8.1 3.4-2.2 4-4.2zM369.3 181.8c1.1 3.6 1.7 5.9 6 4.7 3.7-1.1 6.4 2.7 5.7 6.8-2.5 13.7-14.8 24.6-28.8 25.7-13.3 1-24.9-7.7-30.4-20.4-8.3-19.1 8.3-38 23.6-41.4 1.6-.4 4.5-1.7 4.9 0 .4 2 2.2 4 .7 6.5-2.5 4.4 2.4 7.8 2.3 12.1 0 1.5 2.6 1.2 4.3.8 1.1-.3 3.7-.6 3.1 1.4-.8 2.8-.9 5 1.7 6.5 2.7 1.4 4.7-.4 6.9-2.7zm.6 12c-3.4 0-5.6 1.8-5.7 4.9-.1 3.1 2 5.1 5.4 5.1 3.4 0 5.2-1.7 5.2-5.2 0-3-1.6-4.8-4.9-4.8zm-32-7.8c.2-3.2-1.8-4.9-4.5-4.8-3.1.1-5.9 1.6-5.7 5.4.1 3 2 5.2 4.9 5.3 3.5 0 5-2.7 5.3-5.9zm8.1-17.6c0-3.3-1.1-5.5-4.5-5.5-3.1 0-5.2 1.8-5.4 4.8-.2 3 1.9 4.9 4.9 5.2 3.1.3 4.8-1.5 5-4.5zm12.9 43.6c.1-3.1-1.8-4.8-4.5-4.8-2.9 0-5.6 1.5-5.5 5 .1 3.1 2.2 4.7 5.2 4.8 3.3 0 4.7-2 4.8-5zm-3.1-14.9c-.1-2.9-1.1-5-4.3-5.1-3.2-.1-5.2 1.9-5.3 4.8-.1 2.6 1.5 4.8 4.5 5.1 3.5.3 4.6-2.1 5.1-4.8zm-5.7-11.1c1.6.1 3.4-1.7 3.4-4.5s-2.2-4.4-5-4.6c-2.9-.2-5.2 1.4-5.2 4.1.1 2.9 2.1 4.9 6.8 5zm-17.5 20.9c2.7-.1 5.1-.9 5.1-4 0-2.8-2-4-4.7-3.9-2.8.1-4.9 1.8-5 4.5 0 2.5 2.1 3.5 4.6 3.4zM137.5 319.6c-3.4 1.2-5.4 2.3-3.7 6.6 1.4 3.6-2.3 6.6-6.5 6.1-13.8-1.5-24.2-10.5-27.9-24.2-2.9-10.6 1.9-23.9 10.9-30.6 17.5-12.9 42.1-5.2 49.4 15.6 1.5 4.3-1.2 7.8-5.4 6.2-5.2-1.9-7.6 3.7-12.1 3.3-1-.1-1.4 2.5-.7 4.4.7 1.8 1.6 4.5-2.6 3.3-1.8-.5-3.6.6-4.5 2.4-1.5 3 1 4.5 3.1 6.9zm-9.1-30.8c4.6.3 6.2-1.8 6.2-4.7.1-3.4-1.8-5.9-5.2-6-3.3 0-6 2.4-6 5.5 0 3.2 3 4.9 5 5.2zm-7.6 38.1c3-.1 5-1.4 5.1-4.7.1-3.7-2-5.8-5.3-6-3.2-.2-4.7 2.1-4.8 5.2-.1 3.3 1.4 5.3 5 5.5zm-9.9-19.1c-.1-3.4-2-5.5-5.1-5.5-3 0-4.8 2.4-4.9 5.3-.1 3.5 2.5 5.1 5.5 5.1 2.7-.1 4.6-1.8 4.5-4.9zm37.1-12.9c3.1-.1 5.6-1.3 5.7-4.4 0-3-1.7-5.4-5-5.6-3.3-.2-4.8 2-5.1 4.9-.3 3 1.4 4.8 4.4 5.1zm-26.9 3.1c-2.8.7-5.4 1.6-5.2 5.1.2 2.9 1.9 4.7 4.8 4.7 2.6 0 5.1-1 5.1-4.2s-1.8-4.9-4.7-5.6zm19.2.3c-.4-2.4-1.1-4.7-4.2-4.5-3.5.2-5 2.7-5 5.6 0 2.5 2 4.3 4.6 4.3 3.4 0 4.2-2.6 4.6-5.4zM112 280.8c-3.1.3-3.3 2.4-3.1 4.7.2 2.7 1.3 5.1 4.3 5 2.6-.2 3.8-2.5 3.6-5-.3-2.9-2.1-4.4-4.8-4.7zM100.2 368.9c1.4 2.9 2.2 5.5 6.3 3.5 3.1-1.5 6.6 2 6.4 5.6-.5 14.1-11.7 26.9-26 29.7-12.4 2.4-26.6-5.1-32-17-6.6-14.5-3-29.1 9.5-38.8 2.6-2 5.4-3.9 8.6-4.9 1.6-.5 4.2-2.3 4.9-.6.8 1.8 2.8 3.8 1.5 6.3-1.1 2.2-.7 4.2 1.3 5.8.8.6 1.5 1.1 1.4 2.4-.4 4.3 1.6 5.3 5.5 3.9 1.3-.5 3.4-1.2 3.2 1.6-.2 2.3 0 4.4 2.4 5.5 3 1.2 4.8-1 7-3zm-30.3 8.3c-.3-3.1-2-5.2-5-5.2-3.1 0-5.6 1.8-5.8 5-.2 3.4 2.2 6 5.3 6.2 3.5.3 4.6-3.1 5.5-6zm33.5 2.7c-3 .9-6.1 1.8-6.3 5.4-.1 3.1 2.1 5 5 5.2 3 .1 5.5-1.4 5.7-4.9.2-3.1-1.7-4.8-4.4-5.7zm-14.6 25.7c2.8-.6 5-2 5.1-5.2.1-3.2-2.1-5.1-4.9-5.1-2.8 0-5.1 1.7-5.1 5-.2 3.3 2.1 4.4 4.9 5.3zm-18-42.6c3.2.2 4.8-1.8 4.8-4.5s-1.4-5.4-4.6-5.5c-3.2 0-5.4 1.6-5.2 5.2 0 3.2 1.9 4.7 5 4.8zm18 22.6c-.7-2.6-1.5-5.1-4.8-4.8-3 .2-5.1 2-5 5.1 0 2.7 1.9 4.8 4.7 4.8 3.1 0 4.7-2.2 5.1-5.1zM84 370.8c.1-3.2-2-4.6-4.6-4.7-2.6 0-5.2 1.4-5.2 4.3.1 3.2 2.5 4.4 5.5 4.5 2.9.1 4.4-1.2 4.3-4.1zm-17.9 27.1c2.9-.2 5.5-1.2 5.5-4.4 0-2.8-2.6-3.6-5-3.6-2.9-.1-4.6 1.6-4.7 4.5-.1 2.8 1.7 3.6 4.2 3.5zM372.5 325.7c-2.1 11.2-9.9 17-19.6 21.2-12.4 5.3-22.5.1-31.1-7.7-8.9-8-11.1-19-8.9-30.7.5-2.5 5-3.4 7.2-.8 3.5 4.2 8.3.7 12.2 2.9 1.2.7 2.6-1.8 2.8-3.9.1-1.2.6-3.7 3-2 1.9 1.4 3.9 2.1 5.9.6 2.6-1.9 1.6-4.4.7-7.1 3.2-.2 5.9 0 6.5-4.7.4-3.7 4.8-4.4 8.2-2.2 10.2 6.3 17.1 22 13.4 32.7-.4-.9-.8-1.8-1.3-2.6-1.7-2.8-4-4.6-7.3-2.6-3.4 2-3 5-1.4 7.7 1.9 3.1 4.6 2.6 7.2.7.7-.6 1.6-1 2.5-1.5zm-42.7 7.3c0 3.6 2.2 6 5.2 5.7 2.7-.3 5.3-1.2 5.7-4.5.3-2.8-3.6-6.5-6.4-6.3-3.5.2-4.2 2.8-4.5 5.1zm31.4-24c2.6-.2 4.4-2.6 4.3-5.8 0-3-2.1-4.5-5.4-4.5-3.9 0-4.9 2.6-5 5.5-.1 2.9 1.7 4.9 6.1 4.8zm-35.3 9.6c-.2-3.5-2.2-4.9-5.5-4.8-2.9.1-4.7 1.7-4.5 4.7.1 3.2 2 5.4 5.3 5.3 2.8-.2 4.9-1.9 4.7-5.2zm27 6.4c1.6.1 3.4-1.6 3.5-4.3.1-3.5-2.3-4.8-5.5-5-2.8-.1-4.3 1.2-4.3 4.1.2 3.3 1.7 5 6.3 5.2zm-21.2-7.7c0 3.1 1.1 4.8 3.9 4.5 3.2-.3 5.2-2.1 5.3-5.4.1-2.9-1.9-4.5-4.3-4.3-3.3.2-4.8 2.6-4.9 5.2zm22.9 21.5c-.2-2.2-1.2-3.9-3.6-3.9-2.8 0-4.8 1.9-4.9 4.5-.1 2.5 1.3 5.2 4.2 5.2 3.3-.1 3.4-3.4 4.3-5.8zM259 86.9c.6 3.2.8 5.5 4.9 5.2 4.3-.3 6.3 3.8 4.7 8-5.1 13.5-19.8 22.3-33.9 20.3-13.8-1.9-24.2-13.2-25.5-27.9-1.4-14.7 7.2-27.5 22-32.4 2.5-.8 5.2-1.4 7.8-1.7 1.7-.2 4.9-.9 4.8.6 0 2.1 1.8 4.4-.1 6.5-3.6 4.1 1.5 8.2.2 12.4-.3.9 1.8 1.9 3.6 1.7 2.8-.4 4.8-.1 2.8 3.5-1 1.8-.2 3.5 1.4 4.8 2.6 2.1 4.7.1 7.3-1zm-31.2-2c-.5-3.1-2.7-4.8-5.4-4.7-2.9.1-5.7 1.6-5.4 5.2.3 2.8 1.6 5.8 5.2 5.5 3.3-.3 5.1-2.6 5.6-6zm34.1 18c-.4-2.7-1.8-4.9-5-4.6-2.9.3-5.7 1.5-5.7 5 .1 3.3 2.3 5.3 5.4 5.2 3.1-.1 5.3-1.9 5.3-5.6zm-28.5-39.8c-2.8.6-5.3 2-5.3 5.3 0 2.9 2 5.1 5 5.2 3.3.2 5.3-2 5.4-5.2.1-2.9-1.9-4.7-5.1-5.3zm11.2 51c-.6-2.7-1.8-5.2-5-5-2.7.1-5.4 1.4-5.5 4.5-.1 3.2 2 5.2 5.2 5.4 3.1.1 4.5-2.1 5.3-4.9zm-6-20.3c-3 .3-4.9 1.6-4.8 5 .1 2.8 1.7 4.9 4.5 4.8 3.2-.1 5.2-2.3 5.1-5.5 0-2.6-1.5-4.6-4.8-4.3zm4.9-10.8c-.5-3.4-2.9-4.6-5.6-4.7-2.5 0-4.7 1.5-4.4 4.3.3 2.8 2.3 5 5.3 5.1 2.9.1 4.1-2.2 4.7-4.7zm-23.7 22.9c2.8-.1 4.9-1.2 4.8-4-.1-2.7-2.1-4-4.8-4-2.7 0-4.7 1.1-5 3.8-.1 3.4 2.8 3.7 5 4.2zM369.8 65.8c-9.4 5.5-24.8 3-32.9-5.7-9.4-10-12.2-22.2-7.4-34.6 2.9-7.5 9.1-13.8 17-17.2 1.8-.8 5 2.8 4.6 5.6-.4 2.8 0 4.9 2.8 6.1.9.4 1.1 1 1.2 1.9.6 4.1 2.5 5.1 6.2 2.7.9-.6 3.1-1.8 3.3.8.3 2.7.8 5 3.8 5.5 2.8.5 4-1.9 5.4-4.3 2.1 2.5 3.7 5.4 7.6 2.3.8-.7 6-1.4 7 3.3 2.4 12.3-5.3 27.5-16.9 32.6.4-.9.7-1.8 1.1-2.7 1.5-3 1-5.7-2.2-6.9-3.2-1.3-6 .1-7.3 3.2-1.4 3.2.9 4.8 3.4 6 1.2.5 2.3.9 3.3 1.4zm15-24.1c-.7-2.2-2-4.8-5.1-4.5-3.2.2-5.7 2.3-5.7 5.7 0 3 2.1 5 5.1 4.9 3.1-.2 5.5-1.9 5.7-6.1zm-39.1-.1c.3-3.8-1.7-5.4-4.7-5.5-3.2-.2-5.7 1.7-5.9 4.8-.2 3.4 2.4 5.6 5.5 5.9 3.7.4 4.4-2.9 5.1-5.2zm-2.2-15.5c3.1.1 5-1.6 4.8-4.4-.2-2.8-1.3-5.7-5-5.7-3.5.1-5.3 2.5-5.3 5.5 0 3.1 2.5 4.5 5.5 4.6zM361.4 51c2.5-.4 4.4-1.7 4.3-4.7 0-3.1-1.6-5.2-4.7-5.3-3-.1-4.7 2.2-4.8 4.7 0 2.9 1.7 5 5.2 5.3zm-6.3-23.2c-3.7 0-6.2.9-6.2 4.3 0 3 2.6 4.3 5.1 4.5 2.7.2 4.7-1.2 4.9-4.4.1-3.1-1.5-4.5-3.8-4.4zm-4.5 28.6c-.5-2.4-2.5-3.3-4.7-3.3-3.1-.1-4.9 1.8-5 4.9 0 2.2 1.2 3.9 3.7 3.5 2.7-.6 5.5-1.4 6-5.1zM223.8 251.8c-1.1 10-12.3 20.7-23.3 22.1-22.2 2.9-39.3-14.2-36.6-36.6.6-4.8 4.2-6.6 7.7-3 3.9 4 8.5.6 12.6 2.4 1.2.6 2.1-1.9 2.3-3.7.1-1.2.5-3.7 2.8-2.1 2.1 1.4 4.1 2.3 6.3.5 2.5-2 1-4.5.5-7.2 3.2 0 6 .2 6.3-4.6.3-3.5 5-4.4 8.2-2.3 10.7 6.7 16.2 19.2 14.1 31.7-.6-.8-1.3-1.5-1.8-2.3-1.8-2.9-4.3-3.8-7.1-1.9-2.5 1.8-3.6 4.4-1.6 7.3 2 2.9 4.5 3 7.2 1 .6-.6 1.5-.9 2.4-1.3zm-37.2 13.1c2.4-.5 5.3-.8 5.3-4.4 0-3.6-1.9-6.3-5.6-6.4-3.4-.1-5 2.6-5 5.7.1 2.9 1.7 5 5.3 5.1zm20.2-36.5c-.2 4.7 1.7 6.9 4.8 7 3.1.2 4.9-2.3 5-5.2.2-3.1-1.3-5.5-4.9-5.5-3.3 0-4.8 1.8-4.9 3.7zM172.4 250c3-.2 5.2-1.7 5.3-4.8.1-3.3-2.2-5.1-5.3-5.3-3.3-.1-5 2.1-5 5s1.7 5 5 5.1zm20.3-6.6c-.5-2.8-1.8-5.1-4.7-5.1-3.1 0-4.8 2.3-5.1 5.2-.3 2.7 1 4.5 4 4.5 3.2-.1 4.9-1.9 5.8-4.6zm10.5 7.6c2.8-.3 4.7-1.6 4.6-4.7-.2-3.3-2.3-4.6-5.4-4.5-2.9 0-4.4 1.9-4.3 4.4 0 3 1.7 5 5.1 4.8zm2.7 14.5c0-2.4-.2-4.5-2.9-4.5-3.1 0-5 1.8-5 4.9 0 2.6 1.4 4.7 4.1 4.7 3.2 0 3.3-3 3.8-5.1zM101.7 83.1c9.2 4.6 12.7 23.6 8.5 33.2-8.5 19.5-32.2 26-49.2 13.3-3.9-2.9-3.6-7.2 1.1-8.3 5.4-1.3 4.5-7.1 8.1-9.6 1.1-.8-.5-2.8-2-3.9-1.9-1.4-3.4-3 .4-4.2 1.6-.5 2.6-2.1 2.4-4-.2-2.1-1.3-3.5-3.4-3.7-2.9-.3-2.9-1.3-1.4-3.4 1.1-1.5.5-2.6-.8-3.8-4.7-4.4-4.3-7.2 1.1-10 11.5-6 26.5-4.1 35.1 4.5-1-.1-2-.1-2.9-.4-2.7-.8-4.5.1-5.9 2.4-1.3 2.2-.8 4.3.9 5.9 1.6 1.6 3.7 2.6 5.9 1.4 2.3-1.3 3.6-3.4 2.8-6.3-.3-1.1-.5-2.1-.7-3.1zm-4.9 36.8c0-3.7-2.2-4.9-4.8-4.8-3.1.1-6.1 1.3-6 5.1.1 3.4 2.5 5.5 5.8 5.5 3.8 0 4.5-3.2 5-5.8zM76.5 89c4.5.1 6.2-1.8 6.1-4.5-.1-3-1.8-5.5-5.2-5.5-3.3 0-5.5 2-5.3 5.2.1 3.2 2.6 4.7 4.4 4.8zm.4 37.4c.2-3.4-1.4-5.6-4.3-5.7-3-.2-5.4 1.7-5.6 5-.2 3.1 1.7 5 4.7 5.2 3 .1 4.7-1.7 5.2-4.5zm11.2-31.6c-3 .1-5 1.3-5.3 4.6-.3 3.6 2.2 4.8 4.8 5 3.1.2 4.8-2.1 5.1-5 .3-3-1.7-4.3-4.6-4.6zM82 112c-.1-3-1.2-5.2-4.6-5.2-2.7 0-4.5 1.5-4.4 4.3.1 2.9 1.7 5.3 4.8 5.4 2.6.1 4.2-1.6 4.2-4.5zm17.8-3.1c.1 3.2 1.7 5 4.9 4.9 2.3 0 4.1-1.2 4-3.5-.2-3.2-2.4-5.1-5.6-5.3-2.6-.2-3.4 1.6-3.3 3.9zM444.6 126.8c-2.9 15-20 24.8-36 20.6-14.8-3.9-23.6-15.1-23.8-30.5 0-2.3.4-4.7.2-7s.3-5.4 1.8-5.5c2.1 0 5.3-.2 6.7 1.9 3 4.7 8.5.8 11.8 3.8.1.1.3-.1.5-.1 3.2-.9 1.8-5.6 4.3-6 2-.4 3.8 3.5 6.8 1.9.1-.1.4-.1.4-.2 1.6-3.7 4.5-6.3 6.9-9.3 4.7-5.8 6-7.2 11.4-2.1 8.7 8.4 12.5 18.5 9.4 30.6-.8-1-1.7-2-2.5-3-2.1-2.5-4.6-2.8-7-.7-2.3 2-2.6 4.8-.7 7.2 2 2.4 4.7 2.1 7.2.5.9-.5 1.2-1.9 2.6-2.1zM405.3 138c3.6-.1 6.4-.6 6.3-4.1-.1-3.3-1.8-6-5.7-6.2-3.9-.2-4.8 2.7-4.9 5.5 0 3.1 1.7 5 4.3 4.8zm28.3-38.1c-3.5.3-4.9 2.2-4.8 5.3 0 3.3 1.4 5.6 4.9 5.6 3.3-.1 5.1-2.4 5.1-5.6-.1-3.3-2.3-4.9-5.2-5.3zm-34.8 16.9c-.2-2.7-2.5-4.3-5.2-4.6-3-.3-5.2 1.6-5.3 4.6-.1 2.8 1.1 5.5 4.3 5.6 3.3.2 5.6-1.6 6.2-5.6zm25.6 9.2c2.6-.1 4.4-1.6 4.3-4.6-.1-3.5-2.5-5.1-5.6-5.1-2.9 0-4.3 2.2-4.3 5 .1 3.3 2.1 4.6 5.6 4.7zm-10.7-9.7c-.6-2.4-1.5-4.6-4.5-4.4-3.3.2-5.3 2.2-5.2 5.5.1 2.6 1.8 4.5 4.6 4.2 2.9-.3 4.6-2.2 5.1-5.3zm7.5 28.7c2.8-.6 4.1-2.9 4.3-5.6.2-2.2-1.2-4.1-3.5-4.1-3.1 0-4.9 2.2-5 5.1 0 2.3 1.1 4.3 4.2 4.6zM281.9 192.9c-6.3 8-20.4 11.4-30.9 7.5-21.6-8.1-27.8-36.3-11.4-52.6 2-2 6.4-.6 6.8 2.9.7 5.6 6.9 4.9 8.9 8.9.6 1.3 2.9-.1 4.1-1.5 1.6-2 3.2-3 4.3.5.6 1.9 2.3 2.8 4.3 2.6 2.1-.2 3.4-1.5 3.7-3.5.3-2.3 1.1-2.5 2.8-1.1 1.9 1.6 3.2 1.1 4.9-.8 2.9-3.2 7.1-2.4 9 1.5 5.5 11.4 3.1 26.4-5.5 34.6 0-1.2.1-2.3 0-3.5-.2-3.4-2.4-5.3-5.5-5-3.1.4-4.9 2.7-4.5 6.1.5 3.6 2.9 4.5 6.2 3.8.8-.2 1.8-.3 2.8-.4zm-31.2-12.2c0-3-1.4-5.3-4.6-5.8-3.7-.5-5.6 2-6 5.1-.4 3.7 2.5 5 5.6 5.6 3.8.8 4.2-2.2 5-4.9zm37.1-11.9c-.1-3.8-2.5-5.6-5.4-5.6-3.2 0-5.1 2.8-5.1 5.7-.1 2.8 1.8 5.1 5 5 3.3-.2 5-2.2 5.5-5.1zm-46.3-3.1c3-.6 5.2-2.3 5.1-5.3-.1-3.2-2.3-5.3-5.5-5.3-3.5 0-5 2.8-4.9 5.7.1 3 2.3 4.6 5.3 4.9zm18.4 1c0-2.9-1.7-4.6-4.2-4.3-2.6.3-5.8 1.3-5.7 4.9 0 3.1 2.5 4.2 5.1 4.3 2.9 0 4.9-1.5 4.8-4.9zm1.8 11.3c0 3.2 2.1 4.7 5 4.8 2.8.1 4.2-1.8 4.1-4.5 0-3.1-1.6-5.2-4.7-5.3-3.1-.1-4.2 2.1-4.4 5zm-1.8 14.8c-.4-2.5-1.7-3.9-4-3.6-2.8.4-5 1.8-5.1 5.1-.1 2.4 1 3.9 3.5 3.7 3.2-.3 5-2.3 5.6-5.2zM380.8 449.9c3.7 0 5.5-2.4 5.6-5.6.1-2.9-2-5.1-5-5.1-3.6-.1-5.4 2.4-5.5 5.7.1 2.8 1.5 5.1 4.9 5z"/><path class="st2" d="M365.2 282.1c-4.5-.2-7-2.5-6.7-6.2.3-3.7 3.4-6.9 6.7-6.8 3.5.1 6 3.6 5.7 7.9-.3 4-1.7 5.2-5.7 5.1zM124.7 361.4c-.4 2.9-.7 5.8-5 5.8-4.6-.1-7.8-2.3-7.7-5.9 0-3.5 3.2-7 6.5-7.1 3.2-.2 6.1 3 6.2 7.2zM45.8 118.1c-.3 2.9-.8 6-5.3 5.8-3.8-.2-6.9-1.4-7.5-5.7-.4-3.6 3-7.3 6.5-7.4 3.6 0 6.2 2.9 6.3 7.3zM48.9 267.3c0 3.7-1.3 6.1-5.6 5.8-3.6-.3-6.6-1.4-6.9-5.6-.3-3.8 3.1-7.4 6.6-7.4 3.4-.1 6 3.1 5.9 7.2zM266.5 416.4c-.3 4.2-1.3 6.9-5.7 6.5-4.3-.4-7.1-2.6-7-6.1.1-3.6 3.3-6.9 6.6-6.9 3.4 0 6.1 3.3 6.1 6.5zM417.3 22.1c-3.4-.7-6.9-1.3-6.5-6.1.3-3.9 3.7-7.2 7.1-6.8 3.3.3 5.7 3.8 5.5 7.7-.3 3.6-1.9 5.9-6.1 5.2zM249.8 281.5c0 3.5-3.1 6.5-6.7 6.5-3.9 0-5.7-2.3-5.9-5.9-.2-3.4 3.4-7.1 6.4-7 3.3.1 6.2 3 6.2 6.4zM134.6 126.3c-.3 3.4-1.1 6.2-5.5 5.8-3.7-.4-6.9-1.3-7.1-5.8-.1-3.7 3.2-7.2 6.7-7.2 3.2 0 5.9 3.3 5.9 7.2zM406.7 367.3c.1-4.5 3.2-7.8 6.4-7.5 3.8.3 6.1 2.5 6.1 6.4 0 3.4-3.4 6.7-6.8 6.5-3.7-.3-5.7-2.4-5.7-5.4zM168 209.5c.1 3.6-3 6.8-6.6 6.7-3.5-.1-5.6-1.9-5.8-5.5-.2-3.5 2.9-7.4 6-7.5 3.3-.1 6.3 2.9 6.4 6.3zM458.9 141.9c-3-.5-5.2-2.4-5.1-6.2.1-3.6 3.5-7.1 6.6-6.7 3.8.5 6 2.7 6.1 6.6.1 3.3-3.6 6.4-7.6 6.3zM159.7 13.5c0-4.5 2.9-7.8 6.2-7.7 3.9.1 6.1 2.3 6.3 6.1.2 3.4-3.2 6.9-6.6 6.7-3.6-.1-5.8-2-5.9-5.1zM96.1 274.5c-.7 3.2-3.1 4.9-6.7 4.7-3.7-.3-6.1-3.3-5.4-6.9.7-3.5 2.7-5.7 6.6-5.4 3.3.4 6 4 5.5 7.6zM214.6 385.5c3.6 0 6.4 2.7 6.3 6.3 0 3.5-3.2 6.8-6.7 6.6-3.4-.2-5.6-2.1-5.7-5.7-.1-3.6 2.9-7.2 6.1-7.2zM102.9 166.7c-3-.3-5.4-1.8-5.7-5.4-.3-3.7 2.7-6.9 6.3-6.8 3.8.1 5.8 2.4 6.1 5.9.3 3.4-2.8 6.3-6.7 6.3zM112.2 421.1c-.1 4-2.4 6.1-6 6.3-3.5.1-6.1-1.6-6.4-5.5-.2-3.6 2.5-7 5.7-6.8 3.9.1 6 2.4 6.7 6zM309 168.6c-3.5-.6-6-2.2-6.1-6-.1-3.5 2.8-6.6 6-6.6 3.3.1 6.9 3.8 6.4 6.9-.4 3.6-2.8 5.4-6.3 5.7zM306.4 37c-.4 4-2.5 6.2-6.5 6.1-3.5-.1-5.6-1.8-5.8-5.4-.2-3.6 2.8-6.8 6-6.7 4 .1 5.9 2.4 6.3 6zM157.4 338.5c3.8.3 5.8 2.4 5.8 6.1 0 4-2.5 6.1-6.4 6-3.3 0-5.7-1.8-5.9-5.4-.1-3.8 2.8-6.8 6.5-6.7zM443.6 389c.1 3.5-2.7 6.4-6.3 6.2-3.3-.1-5.8-1.5-5.9-5.3-.2-3.8 2.7-7 6.2-7 3.3.1 5.9 2.8 6 6.1zM414 73.4c-3.7-.3-6-2.2-5.7-6 .3-3.7 2.4-6.3 6.4-6.1 3.7.1 5.7 2.6 5.8 6.2.2 3.3-3 6-6.5 5.9zM59.1 435.7c.1 3.4-3 6.9-6.4 6.9-3.6 0-5.9-1.8-6.1-5.7-.1-3.6 2.8-7.1 6-7.2 3.5-.1 6.4 2.5 6.5 6zM225.2 152.2c-.3 3.4-2.5 5.5-6.1 5.5-3.5 0-6-1.8-6.2-5.7-.1-3.6 2.8-6.8 6-6.7 3 0 6.3 3.4 6.3 6.9zM374.4 136.3c.1 3.5-2.6 6.5-6.2 6.4-3.3-.1-5.8-1.7-6.1-5.3-.3-3.6 2.7-7.2 6.2-7 3.6.1 5.7 2.1 6.1 5.9zM234.8 216.3c0 3.5-2.8 6.3-6.4 6-3.3-.2-5.7-1.6-5.7-5.5s2.8-6.9 6.3-6.8c3.3.2 5.8 2.9 5.8 6.3zM153.5 463.8c-3.6-.5-6.1-2-5.8-6 .3-3.8 2.2-6.2 6.3-6.2 3.8.1 5.8 2.4 5.8 6 0 4.1-2.6 5.8-6.3 6.2zM371.7 74.7c3.6.7 6 2.6 6.2 6.5.1 3.4-2.9 6-6.6 5.8-3.8-.3-5.8-2.4-5.6-6.2.2-3.6 2.1-5.7 6-6.1zM349.9 241c-3.5-.3-5.9-2.1-6-5.9-.1-3.7 2.7-6.7 6.1-6.4 3.9.3 6.2 2.8 6.2 6.5 0 3.6-2.6 5.5-6.3 5.8zM377.7 390.1c.6-3.2 2.3-5.7 6.2-5.4 3.9.3 6 2.8 6.1 6.6.1 3.4-3.2 6-6.8 5.6-3.9-.5-5.6-2.7-5.5-6.8zM388.6 169.6c3.9.5 6.6 3.9 6 7.2-.6 3.1-2.5 5-5.8 4.9-3.4-.2-6.3-3.7-5.6-6.8.6-3.2 2.2-5.6 5.4-5.3zM318.8 449.9c-.3 2.9-1.9 5.2-5.5 5.1-3.6-.1-6.1-2.1-6.1-5.8 0-3.1 1.7-5.8 5.2-6.2 3-.3 6.3 3.2 6.4 6.9zM65 160.7c-3-.4-5.5-1.4-5.6-5-.1-3.2 3.1-6.1 6.6-6.1 3.5 0 5.3 2.1 5.3 5.3 0 3.9-2.8 5.4-6.3 5.8zM323.7 293c-3.1-.4-5.7-2-5.7-5.8 0-3.1 1.6-5.8 5.2-6.2 3-.3 6.4 3.1 6.5 6.2.1 3.2-2.4 5.8-6 5.8zM379.2 357.1c-.2 3.1-1.7 5.7-5.3 5.6-3.5 0-6.1-1.8-6.2-5.7-.1-3.2 1.3-5.8 4.9-6.3 3.3-.3 6.5 2.8 6.6 6.4zM180 114.5c-3.4-.3-5.9-1.7-5.6-5.2.3-3.9 3.2-5.8 6.9-5.9 3.4-.1 5.2 2.3 5 5.5-.2 4-3 5.4-6.3 5.6zM214.9 54.5c-.1 2.9-1.7 5.3-5.3 5.3-3.5 0-6.1-1.9-6.2-5.7 0-3.2 1.3-5.9 5-6.3 3.4-.3 6.4 2.7 6.5 6.7zM83 333.4c-.1 2.9-2 5.3-5.4 5.1-3.3-.1-6.1-2-6-5.9.1-3.2 1.3-5.9 5.1-6.1 3.2-.2 6.2 2.9 6.3 6.9zM84.4 44.1c-3.2-.6-5.8-2.1-5.7-6 .1-3.3 1.6-5.8 5.2-6.1 3.2-.3 6.3 3 6.2 6.4-.1 3.5-1.9 5.4-5.7 5.7zM22.1 79.9c-.2 4.1-2.9 5.6-6.3 5.7-3.2.1-5.8-1.4-5.6-4.9.1-3.9 2.9-5.8 6.7-6 3.4-.1 4.8 2.1 5.2 5.2zM13.2 240.5c-.4 3.7-2.6 5.4-6.2 5.5-3.5.1-6-1.6-5.7-5.1.2-3.9 3.1-5.9 6.7-5.9 3.1.1 5.1 2 5.2 5.5zM275.5 68.9c-3.2-.2-5.7-1.2-5.9-4.8-.2-3.3 2.9-6.2 6.4-6.2 3.5-.1 5.4 2 5.5 5.1.1 3.8-2.6 5.4-6 5.9zM405.8 325.9c-2.5-.1-4.8-1.4-5-4.9-.2-3.1 3.3-6.1 6.7-6.1 3.5 0 5.1 2.1 5.3 5.4.2 3.1-2.6 5.5-7 5.6zM380.9 470.8c-.5-1-1.1-2-1.6-3-1.2-2.7-.9-5.3 1.7-7 2.5-1.6 5-1.6 6.9 1.3.6 1 1.2 2.1 2.6 1.9-2 7.2-2 7.2-9.6 6.8zM182.4 436.8c-3.6 0-5.9-1.3-6.3-4.7-.3-3 3.1-6.2 6.5-6.3 3.5-.1 5.4 1.8 5.5 5.1.1 3.9-2.5 5.5-5.7 5.9zM7.7 397.9c-2.9-.2-5.3-1.6-5-5.2.3-4.1 3.2-5.7 6.9-5.8 3.5 0 5.2 2.5 5 5.6-.2 3.8-2.9 5.4-6.9 5.4zM302.9 197.3c2.8.1 4.3 1.4 4.3 4.3 0 3-4 7-6.8 6.7-2.9-.3-4.7-1.9-4.6-5.1.1-2.9 3.7-6 7.1-5.9zM436.8 290.8c.4-3.7 3.7-6.3 7.1-5.7 2.5.4 3.8 1.9 3.7 4.4-.2 3.1-4.3 6.9-7.1 6.5-3-.5-3.7-2.8-3.7-5.2zM24.5 209.9c.4-4 2.7-5.9 6.6-5.9 2.9 0 4.4 1.7 4 4.4-.5 3.6-2.9 6.1-6.5 6.5-3.1.2-3.9-2.4-4.1-5zM305.9 70.6c0-4.1 2.8-6.7 6.4-6.6 2.8.1 4.7 1.5 4.3 4.3-.5 3.5-2.7 6.2-6.4 6.6-3.1.3-4.1-2.2-4.3-4.3zM414.4 207.2c.1-3.6 2.9-6.1 6.6-5.8 2.5.2 4 1.3 4.1 4 .1 2.9-3.8 7.1-6.6 7-3.2-.2-4-2.5-4.1-5.2zM380.4 0c2.7.1 4.4 1.4 4.4 4.2-.1 3.1-4.1 7-6.9 6.7-2.8-.3-3.9-2.3-3.9-4.8-.1-3.5 2.7-6.1 6.4-6.1zM343.3 420.3c.3-4.1 2.4-6.2 6.3-6.3 2.7-.1 4.4 1.3 4.3 4.2 0 3.1-3.9 7-6.7 6.8-2.8-.3-3.6-2.4-3.9-4.7zM272.9 312.6c2.9-.1 4.3 1.4 4.2 4.2-.1 3-4.2 7.1-6.9 6.7-2.7-.4-3.8-2.4-3.8-5 .2-4 2.6-5.8 6.5-5.9zM31.7 367.4c.2-3.5 2.2-5.6 6.3-5.7 2.9-.1 4.4 1.3 4.5 4 .1 2.8-4.2 7.2-6.8 6.9-2.7-.2-3.9-2.1-4-5.2zM208.9 314.9c-.3 3.2-1.9 4.9-4.8 4.7-2.9-.2-5.9-1.6-5.9-4.9 0-3 2.2-5.1 5.4-5.1 3.4 0 4.7 2.5 5.3 5.3zM135.2 248.4c3.2.5 4.9 2.5 5 5.7 0 2.7-1.6 4.5-4.3 4.4-2.9-.1-6-1.3-6.1-4.6-.2-3 2.1-4.9 5.4-5.5zM172.9 293.2c-2.8-.5-5.8-1.6-5.6-5 .2-2.9 2.6-5.4 5.8-5.1 2.9.3 4.6 2.5 4.7 5.6.1 3.2-1.8 4.4-4.9 4.5zM113.2 64.3c2.9.5 4.7 2.3 5 5.3.2 3-1.4 5-4.3 4.9-2.9-.1-6-1.2-6.1-4.6-.2-3.1 2.2-4.9 5.4-5.6zM223.8 251.8c-.9.4-1.8.7-2.6 1.3-2.7 2-5.3 2-7.2-1-1.9-2.9-.9-5.6 1.6-7.3 2.8-2 5.3-1 7.1 1.9.5.8 1.2 1.5 1.8 2.3-.2.9-.5 1.9-.7 2.8zM372.5 325.7c-.8.5-1.7.9-2.5 1.4-2.6 1.9-5.3 2.4-7.2-.7-1.6-2.7-2-5.7 1.4-7.7s5.6-.3 7.3 2.6c.5.8.9 1.7 1.3 2.6-.2.6-.2 1.2-.3 1.8zM425.9 166.6c-.1 3.6-1.7 5.3-4.7 5.1-2.9-.2-5.9-1.6-5.9-4.9.1-2.7 2.1-5 5.2-5.1 3.6-.1 4.9 2.4 5.4 4.9zM318.1 361.9c-3-.6-6.1-1.7-6-4.9.1-2.8 2.2-5.3 5.7-5.2 3.2.1 4.7 2.4 4.9 5.3.2 3-1.7 4.5-4.6 4.8zM369.8 65.8c-1-.5-2.1-.9-3.1-1.4-2.6-1.2-4.8-2.8-3.4-6 1.3-3.2 4.1-4.5 7.3-3.2 3.2 1.2 3.7 3.9 2.2 6.9-.4.9-.8 1.8-1.1 2.7-.7.3-1.3.7-1.9 1zM276.6 467.9c-2.7-.4-5.6-1.6-5.6-4.7 0-2.8 2.3-5.3 5.5-5.3 3.3 0 5 2.5 5.1 5.5.1 3-1.7 4.5-5 4.5zM214.7 20.8c-.4 3.1-1.7 5.1-4.7 5-2.9-.1-5.9-1.5-6-4.6-.1-2.9 2.1-5.2 5.3-5.4 3.6-.2 4.5 2.6 5.4 5zM460.1 243.5c0 3.3-1.5 5.3-4.5 5.1-2.9-.2-5.9-1.3-6-4.7-.1-2.9 2-5 5-5.3 3.5-.2 4.9 2.2 5.5 4.9zM281.9 192.9c-1 .1-2 .3-2.9.5-3.3.7-5.7-.3-6.2-3.8-.5-3.4 1.3-5.7 4.5-6.1 3.2-.4 5.3 1.5 5.5 5 .1 1.2 0 2.3 0 3.5-.3.2-.6.5-.9.9zM444.6 126.8c-1.4.1-1.7 1.5-2.6 2.1-2.5 1.6-5.2 1.9-7.2-.5s-1.6-5.2.7-7.2c2.4-2.1 4.9-1.8 7 .7.8 1 1.7 2 2.5 3-.2.7-.3 1.3-.4 1.9zM335.5 469.9l1.8.9c-.9.4-1.5 0-1.8-.9zM378.4 471h-.1.1zM159 172.3c.2 2.6-1.5 3.9-4.9 3.7-3-.2-5.3-1.2-5.3-4.6 0-3.4 1.8-6.1 5.2-6.1 3.6-.1 4.9 2.8 5 7zM179.7 152c.3-3.2 1.7-5.8 5.2-6 3-.1 4.9 1.9 5 5 .1 3.3-1.9 5.4-5 5.7-2.9.3-5-1.2-5.2-4.7zM149.1 153.9c-3.1-.4-4.9-2.3-4.8-5.2.1-2.8 1.5-5.5 4.7-5.3 3.1.3 5.8 2.3 5.6 5.8-.2 2.9-2.4 4.5-5.5 4.7zM168.9 144c-3.1.1-4.9-1.8-4.8-4.5.1-2.9 1.6-5.5 5.2-5.5 3.2-.1 5.1 2.1 5.1 4.9 0 3.1-2.1 5.1-5.5 5.1zM165 158.9c-3.1 0-5.1-1.1-5.1-4 0-3.1 2.2-4.8 5.2-5 2.7-.2 4.6 1.2 4.6 4 .1 3.3-2.1 4.6-4.7 5zM178 169.8c.2 2.8-1.4 4.7-4 4.7-2.8 0-5.1-1.5-5.2-4.8-.1-2.9 1.3-4.8 4.3-4.8 3.3-.1 4.7 1.8 4.9 4.9zM164.6 188c-2.7-.2-4.4-1.2-4.3-3.3.2-2.9 1.2-5.6 4.9-5.8 2.5-.1 3.8 1.1 3.7 3.6-.1 3.2-2.4 4.5-4.3 5.5zM192.7 174.1c-.2 2.2-1.4 3.7-3.7 3.7-2.4 0-4.8-.8-5.1-3.7-.2-2.7 1.8-4.4 4.2-4.6 2.8-.1 3.9 2.1 4.6 4.6zM391.7 257.7c-.1 3.6-1.3 5.4-4.9 5.3-3.3-.1-5.8-1.2-5.8-4.6 0-3.2 2-6 5.3-6.2 3.7-.1 5 2.8 5.4 5.5zM417.4 233c2.9.8 5.5 2.1 5.3 5.6-.2 3.3-2.3 5.1-5.6 5.2-3.3.1-5.1-2.1-4.9-5 .2-2.8 1.8-5.4 5.2-5.8zM382.1 240.9c-3.5-.1-5.4-1.6-5.2-4.9.2-2.9 1.3-5.2 4.7-5.2 3.6-.1 5.1 2.2 5.2 5.3.2 3.3-2 4.7-4.7 4.8zM401.8 231c-2.9-.1-4.9-1.3-4.9-4.4 0-3.3 1.8-5.5 5.1-5.6 3.1-.1 4.8 2 4.9 5.1-.1 3.4-2 4.9-5.1 4.9zM406 251.8c3.3.2 4.8 2.3 4.7 5.3-.1 2.8-1.8 4.9-4.8 4.5-3-.3-5-2.3-4.8-5.3.1-2.7 1.6-4.7 4.9-4.5zM396.7 245.9c-3 0-4.2-1.6-4-4.4.3-3.4 2.6-4.4 5.5-4.6 3.1-.2 4.2 2.1 4 4.5-.2 3.1-2.4 4.6-5.5 4.5zM401.8 269.8c-.6 3-2.5 5.1-5.5 5.4-2.2.2-3.5-1.5-3.5-3.9.1-3.3 2.2-4.8 5-5.2 2.4-.3 3.6 1.3 4 3.7zM424.9 261c0 2.6-1.1 4-3.6 4-2.6 0-4.8-1.4-5-3.9-.2-2.2 1.8-3.9 4.2-4.1 2.7-.3 4.1 1.6 4.4 4zM148.8 83c-3.5-.1-5-1.9-5-5.1 0-3.4 1.9-5.6 5.1-5.5 3.3.1 5.5 2.7 5.7 6 .1 3.6-2.9 4.4-5.8 4.6zM167.5 40.8c2.8 0 4.3 2.1 4.3 5.1 0 3.2-1.8 5.7-5.1 5.6-3.2-.1-5-2.4-4.8-5.8 0-3.3 1.8-4.8 5.6-4.9zM134.1 55.8c3 .2 5.4 1.7 5.4 4.7 0 3.2-2.3 5.2-5.5 5.3-3.5 0-5-2.6-4.9-5.7.1-2.7 1.9-4.5 5-4.3zM147.6 37.8c2.6.1 4.3 1.8 4.4 5 .1 3.4-2 4.9-4.9 5-3.1.1-5-2.1-5-5-.1-3 1.6-5 5.5-5zM145.8 58.7c.5-3.1 2.1-5.5 5.4-5.5 2.7 0 4.3 2.3 4.2 4.7-.2 3.2-2.3 5-5.7 5-2.8.1-3.7-1.7-3.9-4.2zM169.9 66.4c.1 3.8-.9 5.5-3.9 5.5-3.4.1-5.2-1.5-5.3-5-.1-2.9 1.3-4.2 4.2-4.2 3.1.1 4.8 1.7 5 3.7zM168.8 83.2c-1 2.5-1.3 5.7-4.8 5.5-2.4-.2-3.8-2.4-3.7-4.7.1-2.7 1.7-4.8 4.6-5 2.6-.1 3.5 1.9 3.9 4.2zM180.3 59.9c2.5.1 4.4 1.4 4.4 4.1 0 2.6-1.8 3.8-4.2 3.9-2.4.1-4.5-.8-4.4-3.4 0-2.4 1.1-4.6 4.2-4.6zM330.7 395.9c3.2.2 4.9 1.9 5.1 5 .2 3.8-2.3 5.5-5.5 5.6-2.8 0-5.3-1.6-5.2-4.8 0-3.5 2.3-5.2 5.6-5.8zM294.4 392.7c3.3 0 5.4 1.3 5.3 4.7-.1 3.4-2.3 6-5.4 6.1-3 .1-5-2.9-5.2-5.8-.4-3.5 2.3-4.7 5.3-5zM309 377.9c.3 2.6-1.5 4.6-4.5 4.6s-5.6-1.6-5.5-5c.1-3.2 2.2-5.2 5.4-5.4 3.3-.2 4.5 2.1 4.6 5.8zM330.8 383.3c-.1 2-1.8 3.7-5 3.6-3.4 0-5.2-1.9-5.1-5.3.1-3.4 2.5-4.7 5.3-4.6 3 .1 5 1.7 4.8 6.3zM310.8 403.7c3.5-.3 4.4 2.2 4.5 4.7.1 2.9-1.5 5.2-4.7 5.3-3.1 0-4.7-2.1-4.8-5.1-.1-3.3 2-4.7 5-4.9zM313 386.8c2.9.2 5 1.5 4.8 4.8-.1 2.8-1.8 4.3-4.5 4.2-3-.1-5.2-1.8-5.4-4.7-.2-3.1 2.1-4.2 5.1-4.3zM294.9 417.9c-2.4.2-4.7-.3-4.6-3.1.1-2.8 2.1-4.6 4.9-4.7 2.4 0 4.6 1.1 4.7 4 .1 3.5-2.4 3.9-5 3.8zM323.8 421.1c-.2 2.9-1.7 4.4-4.1 4.3-2.9-.2-4-2.5-4-5.2 0-2.6 2-3.3 4-3.3 2.9 0 4 1.8 4.1 4.2zM236.9 363.1c-.3 3.7-3.3 4.3-6 4.6-3.4.3-4.8-2.3-4.8-5.1-.1-2.8 1.4-5.4 4.6-5.5 3.7-.2 5.5 2.4 6.2 6zM248.9 336c-3.8-.2-5-2.7-4.9-5.8.1-3.5 2.5-5.2 5.6-5 3.1.1 4.6 2.3 4.4 5.5-.2 3.4-1.8 5.2-5.1 5.3zM211.7 345.1c-.2-3.1 1.6-4.9 4.4-4.9 3 0 5.6 1.6 5.6 5.1 0 3.5-2.4 5.2-5.5 5.3-3.1 0-4.4-2.5-4.5-5.5zM234.7 327.4c-.5 3.6-2.9 5.2-5.9 5.1-3.2-.1-4.4-2.8-4.2-5.7.1-3.1 2.3-4.9 5.3-4.7 2.9.3 4.5 2.5 4.8 5.3zM248.9 356.8c-4.6.1-5.9-2.2-6.1-5.4-.1-3 1.9-4.3 4.4-4.4 3.3-.1 5.3 1.9 5.5 5.2.2 3.2-1.9 4.3-3.8 4.6zM232.2 347.8c-2.7-.6-4.5-2.1-4-4.8.5-2.7 1.9-5.2 5.2-5 2.9.2 4.6 2.2 4.3 5-.3 3.2-2.9 4.1-5.5 4.8zM250.8 368.1c-.6 2.2-1.1 5.2-4.1 5.2-2.9 0-4.1-2.5-3.9-5.2.2-2.9 2-4.4 4.9-4.3 2.7.1 3.1 2 3.1 4.3zM258.6 349.2c.3-3.2 1.3-5.1 3.9-5 2.5.1 4.5 1.5 4.3 4.4-.1 2.8-1.9 4.2-4.5 4.1-2.3-.2-4-1.4-3.7-3.5zM155.9 397.2c-.2 4-1.6 5.9-5 5.5-3-.3-5.7-1.4-5.4-5.1.2-3.1 2-5.6 5.2-5.7 3.6.1 4.9 2.8 5.2 5.3zM176.8 377.7c.4-2 1-4.9 4.7-4.8 3.3 0 5.3 1.9 5.3 5.3 0 3.7-2.6 5.4-5.8 5.4-2.7-.1-4.5-2-4.2-5.9zM145.1 369.9c4.1.5 6.2 2.5 6.3 5.8.1 3.2-2.5 4.7-5.4 4.6-2.8-.1-5.2-1.6-5-4.9.1-2.7 1.8-4.7 4.1-5.5zM171 365.8c-.1 3.2-1.7 5.1-4.9 5-3.1-.1-5.1-1.8-5-5 .1-3.1 1.9-4.9 5.1-5 3.2 0 4.7 1.8 4.8 5zM170.4 401c-3.4-.4-5.2-2.4-5.1-5.3.1-2.7 2.1-4.8 4.9-4.6 2.9.2 4.7 2.3 4.7 5.3 0 3.1-1.9 4.3-4.5 4.6zM166.8 380.9c-.6 3.3-2.9 4.7-5.9 4.7-2.5 0-4-1.5-4.1-4.1-.1-3.6 2.4-5 5.4-5.1 2.6 0 4.2 1.8 4.6 4.5zM161.5 414.8c-2.8-.1-4.3-1.4-4.4-3.6-.2-3.1 1.6-5 4.6-5.3 2.2-.3 4 .3 4.2 3 .2 3.3-2.2 4.8-4.4 5.9zM189.5 400.9c-.6 2.1-1.4 4-3.9 3.7-2.5-.3-5-1.2-4.8-4.5.1-2.8 2.2-4.2 4.7-4.1 2.6.3 3.5 2.6 4 4.9zM306.1 105.9c3.5.2 5 2 4.8 5.2-.2 3.2-1.8 5.8-5 5.6-2.9-.2-5.1-2.3-5.2-5.7 0-3.8 2.5-4.7 5.4-5.1zM347.7 114.3c-.4 3.2-2.2 5.2-5.4 5.5-3.1.2-5.2-1.4-5.4-4.6-.3-3.8 2.5-5.4 5.6-5.8 3-.4 4.5 2.1 5.2 4.9zM310.7 89.9c.2-2.5 2.2-4.6 5.2-4.5 3.1.1 5 2.3 4.8 5.7-.1 3.4-2.3 4.7-5.2 4.6-2.8 0-4.8-1.6-4.8-5.8zM342.7 95.3c-.6 3-2.1 5.4-5.1 5.2-3-.2-5.6-2.1-5.4-5.4.1-2.9 2.4-5 5.4-4.8 2.8.1 4.9 1.7 5.1 5zM326.8 121.7c-.3 3.1-1.8 5.1-5 5.1-3.4 0-4.5-2.8-4.6-5.5 0-2.8 2.2-4.3 5-4.4 3.3 0 4.4 2 4.6 4.8zM324.7 109c-3.1-.2-5-1.6-5-4.9.1-2.9 2.3-4.1 4.7-4 2.5.2 5.1 1.4 5.1 4.4 0 2.8-1.6 4.7-4.8 4.5zM306.9 123.8c2.5.2 4.9 1 4.7 3.9-.2 2.9-2.9 3.8-5.4 4.1-2.4.2-4.3-1.1-4.2-3.7 0-3 2-4.3 4.9-4.3zM331 130c2.9.4 4.7 1.9 4.5 4.6-.1 2.2-1.2 4.4-3.9 4.2-2.8-.3-4.5-2.1-4.6-4.9-.2-3 2.3-3.2 4-3.9zM10.8 318.6c-2.3-1.3-4.9-2.8-4.9-6.3 0-3.7 2.9-4.8 5.8-4.9 2.6-.1 4.7 1.5 5.1 4.4.2 2.7-3.1 6.7-6 6.8zM47.5 321c-3 0-5.5-.9-5.5-4.3 0-3.5 2.3-5.5 5.7-5.7 3.1-.1 4.9 2 5.1 4.9.2 3.6-1.9 5.1-5.3 5.1zM25.9 292.2c.4 3.3-1.4 5.3-4.4 5.3-3 0-5.5-1.6-5.6-5.1-.1-3.4 2.3-5.2 5.3-5.3 3-.1 5 1.7 4.7 5.1zM42.9 301.9c-3-.4-5.6-1.8-5.6-5.1 0-3 2.4-4.8 5.3-4.8 2.9-.1 5.3 1.4 5.1 4.7 0 2.9-1.3 5.1-4.8 5.2zM32 323.2c.1 3.5-1.6 5.5-4.7 5.4-2.7-.1-4.4-2.3-4.4-5.1-.1-3.3 2.2-5 5-5.1 2.9-.1 4.2 2.1 4.1 4.8zM34.9 306.6c-.3 2.9-2 4.4-5 4.2-3-.2-5.1-2-5-5.1.1-3.1 2.4-4.1 5.2-3.9 3.1.2 4.7 1.7 4.8 4.8zM6.9 332.8c.2-6 2.9-9 6.9-7.4 1.8.7 3.3 1.7 3.1 4-.1 2.3-1.7 3.2-3.6 3.5-2.1.1-4.2-.1-6.4-.1zM36.8 331.8c2.6.3 4.2 1.8 3.9 4.6-.2 2.4-1.7 4.3-4.2 4-2.9-.3-4.1-2.9-4.2-5.5 0-2.4 2.2-3 4.5-3.1zM430.4 444.7c-.4 3.4-1.5 5.6-5.3 5.2-3.3-.3-5.6-1.5-5.3-5.1.3-3.4 2.2-5.8 5.7-5.7 3.4.1 4.6 2.8 4.9 5.6zM461.6 425.1c-.5 3.5-2.5 5.4-5.9 5.7-3.1.2-4.7-1.9-4.8-4.5-.1-3.2 1.3-6.1 5-6.2 3.2-.2 5 2 5.7 5zM440.2 417.9c-3 .2-4.6-1.3-4.6-4.7 0-3.6 2-5.2 5.2-5.2 2.8 0 4.7 2 4.8 4.7.1 3.2-1.6 5.3-5.4 5.2zM415.6 422.9c.1-3 1.3-5 4.6-5.2 3.5-.2 5.3 1.9 5.4 5 0 3-2.1 4.8-5.1 5-3.1.2-4.7-1.6-4.9-4.8zM436.2 432.8c-3.1 0-5.4-1-5.2-4.1.1-3 2.2-4.7 5.2-4.9 2.7-.2 4.4 1.3 4.6 4 .2 3.3-1.7 4.8-4.6 5zM444.7 448.5c-2.4-.7-4.9-1.7-4.8-4.8.1-2.6 1-5 4.3-5.1 3.3-.1 5 2.1 5.2 4.9.2 2.9-1.9 4.6-4.7 5zM431.7 458c-.2-3.4 1.9-4.8 4.9-5 2.3-.2 4.1 1.1 3.9 3.4-.3 3-1.9 5.3-5.4 5.4-2.5.2-3.4-1.4-3.4-3.8zM458.7 443.7c3 0 4.6 1.4 4.9 3.8.3 2.6-1.3 4.2-3.8 4.2-2.2 0-4.6-.9-4.8-3.4-.2-2.5 1.4-4.3 3.7-4.6zM10.8 32c0-3.6 2.4-4.8 5.5-5 3.1-.2 5.1 1.4 5.3 4.6.2 2.7-3.5 6.5-5.8 6.4-2.4-.3-5-3.3-5-6zM52.9 15.9c-.1 3.5-2.1 5.4-4.9 5.5-3 .1-5.6-1.9-5.8-5-.1-3.2 2.6-5.1 5.5-5.2 3.1-.1 4.6 2.2 5.2 4.7zM51.4 30.9c4.8-.2 6.3 2 6.3 4.9 0 3.1-2.1 4.9-5.1 5.1-3.3.1-5.6-1.7-5.6-5 .1-3.4 2.7-4.8 4.4-5zM26.2 6.8c3.2.2 4.9 1.9 4.7 5.1-.2 3.1-2 5.1-5.1 4.9-3-.2-4.9-2.3-4.8-5.3-.1-3.3 2.1-4.6 5.2-4.7zM37 42.9c-.1 3-1.5 5-4.8 5-3.1-.1-4.4-2-4.4-4.9 0-3.2 1.6-5 4.8-5 3.1 0 4.2 2 4.4 4.9zM34.9 21c2.7.7 5 2 4.9 5.2-.1 2.7-2.3 4.3-4.7 4.2-2.8-.1-5.1-1.7-5.2-4.9-.1-3.3 2.3-4 5-4.5zM21.9 48.7c-.4 3.6-3.4 3.8-5.9 4-2.2.2-4.1-1.1-3.9-3.5.2-2.7 1.8-4.6 4.9-4.5 2.6.2 4.4 1.2 4.9 4zM41.6 51c2.9.3 4.3 1.9 4.2 4.7-.1 2.5-1.5 4.2-4 4.1-3-.1-4.3-2.5-4.6-5.1-.3-2.9 2.4-3 4.4-3.7zM80 229.4c.1 4.5-3 5.1-5.7 5.3-3.4.3-4.4-2.1-4.6-5.1-.2-3.5 1.6-5.5 4.9-5.5 3.5 0 5 2.5 5.4 5.3zM87.7 197.1c-.3-2.8 1.4-4.9 4.5-5 3.2-.1 5.5 2 5.4 5.3-.1 2.9-1.8 5.5-5.3 5.5-3.3-.1-4.6-2.2-4.6-5.8zM67.8 194.8c.2-3.6 1.8-5.7 5.2-5.7 3.1 0 4.8 2.1 4.9 5.1.1 3.5-2.3 5.1-5.2 5.4-3.4.2-4.5-2.3-4.9-4.8zM65 212.5c-.2 3.1-2.3 5-5.4 4.9-2.8-.1-4.9-2.1-4.7-5.3.1-2.8 1.8-5 4.6-4.9 2.7.1 5.5 1.2 5.5 5.3zM90.6 214c3 .2 4.9 1.7 5.2 4.9.3 3.2-1.7 4.7-4.4 4.9-3.6.3-5.1-2.3-5.3-5.3-.2-2.7 1.8-4.2 4.5-4.5zM75.7 214.8c-2.7-.6-4.1-2.1-3.9-4.6.2-3.2 1.9-5.4 5.3-5.3 2.5.1 3.8 1.9 3.8 4.4 0 3.6-2.7 4.6-5.2 5.5zM94 235.3c-.1 2-.6 4.8-3.6 4.9-2.7.1-4.4-2-4.4-4.9 0-2.7 1.6-4.3 4.2-4.5 2.7-.3 3.8 1.3 3.8 4.5zM106 219.8c-2.3-.3-4.2-1.2-4.1-3.9.1-2.2.9-4.6 3.4-4.7 2.6-.1 5 1.4 5.2 4.3.2 2.7-1.9 3.9-4.5 4.3zM306.8 263.9c-2.8-.6-5.2-1.6-4.9-5.1.3-3.7 2.7-5.1 6.1-5 3.4 0 4.8 2.4 4.6 5.2-.2 3.2-2.6 4.8-5.8 4.9zM276 254.3c-.2 3.7-1.7 6.4-5.1 6.4-3.1 0-4.9-2.3-5.1-5.6-.2-3.6 2.1-5 5.2-5.2 3.2-.2 4.7 1.6 5 4.4zM307.7 239.2c-.4 2.9-1.8 5.2-4.8 5.3-3 .1-5.6-1.5-5.8-4.8-.2-3.4 2.3-5.1 5.3-5.3 3-.3 4.6 1.9 5.3 4.8zM275.7 235.3c.1-3.5 1.7-5.3 4.8-5.4 3.5-.2 5.2 1.7 5.2 5.1.1 3.4-2 4.9-5 4.9-2.8-.1-4.9-1.7-5-4.6zM291.8 266c-.2 3.1-1.7 4.9-4.9 4.9-3.5 0-4.7-2.7-4.6-5.3.1-2.8 2.1-4.9 5.3-4.7 3.1.2 4.1 2.3 4.2 5.1zM294.8 248.6c-.2 3-2.1 4.8-4.8 4.8-2.8 0-5-1.6-5.3-4.8-.2-3 1.9-4.3 4.3-4.4 2.9-.1 5 1.4 5.8 4.4zM271.5 275.8c-2.6-.1-4.6-1.1-4.5-3.7 0-3 2.1-4.4 5-4.3 2.6 0 4.8 1.1 4.7 4-.1 3.2-2.9 3.6-5.2 4zM300.6 278.6c-.6 2-1.2 4.3-4 4.2-2.9-.1-4.5-2-4.7-4.8-.2-2.8 2.1-3.7 4.3-3.8 2.7-.2 4.1 1.7 4.4 4.4zM369.9 193.8c3.3 0 4.8 1.8 4.9 4.9.1 3.4-1.7 5.2-5.2 5.2-3.4 0-5.5-2-5.4-5.1.1-3.1 2.4-5 5.7-5zM337.9 186c-.3 3.3-1.8 5.9-5.3 5.9-2.9 0-4.7-2.3-4.9-5.3-.2-3.8 2.6-5.4 5.7-5.4 2.7-.1 4.7 1.6 4.5 4.8zM346 168.4c-.1 3-1.8 4.8-5.1 4.5-3-.3-5.1-2.2-4.9-5.2.2-2.9 2.3-4.8 5.4-4.8 3.4 0 4.6 2.2 4.6 5.5zM358.9 212c-.1 3.1-1.5 5.1-4.8 5-3-.1-5.2-1.7-5.2-4.8-.1-3.5 2.6-5 5.5-5 2.7-.1 4.7 1.6 4.5 4.8zM355.8 197.1c-.6 2.7-1.6 5.1-5.1 4.8-3-.3-4.5-2.5-4.5-5.1.1-2.9 2.1-4.9 5.3-4.8 3.2 0 4.2 2.1 4.3 5.1zM350.1 186c-4.7-.2-6.8-2.1-6.8-4.9 0-2.7 2.3-4.3 5.2-4.1 2.8.2 4.9 1.8 5 4.6 0 2.7-1.8 4.5-3.4 4.4zM332.6 206.9c-2.5.1-4.6-.9-4.5-3.4.1-2.7 2.1-4.4 5-4.5 2.6-.1 4.7 1.2 4.7 3.9-.1 3.1-2.5 3.9-5.2 4zM128.4 288.8c-2-.3-4.9-1.9-4.9-5.1 0-3.1 2.7-5.5 6-5.5 3.5 0 5.3 2.6 5.2 6-.2 2.8-1.7 4.9-6.3 4.6zM120.8 326.9c-3.6-.2-5.1-2.2-5-5.6.1-3.1 1.6-5.4 4.8-5.2 3.3.2 5.4 2.4 5.3 6-.1 3.5-2.1 4.7-5.1 4.8zM110.9 307.8c.1 3.1-1.8 4.8-4.5 4.8-3 0-5.6-1.6-5.5-5.1.1-2.9 1.9-5.3 4.9-5.3 3.1.1 5.1 2.3 5.1 5.6zM148 294.9c-2.9-.3-4.7-2.1-4.5-5.2.2-2.9 1.8-5.1 5.1-4.9 3.4.2 5.1 2.6 5 5.6 0 3.3-2.5 4.4-5.6 4.5zM121.1 298c2.8.7 4.7 2.5 4.7 5.5 0 3.2-2.5 4.2-5.1 4.2-2.9 0-4.6-1.8-4.8-4.7-.2-3.5 2.4-4.3 5.2-5zM140.3 298.3c-.4 2.8-1.2 5.4-4.6 5.4-2.6 0-4.6-1.8-4.6-4.3 0-3 1.5-5.4 5-5.6 3.1-.2 3.8 2.1 4.2 4.5zM112 280.8c2.7.3 4.6 1.8 4.8 4.6.2 2.6-1 4.9-3.6 5-3 .2-4.1-2.2-4.3-5-.2-2.2 0-4.3 3.1-4.6zM69.9 377.2c-.9 2.9-2 6.2-5.4 6-3.1-.2-5.5-2.8-5.3-6.2.2-3.2 2.6-5.1 5.8-5 2.9.1 4.5 2.1 4.9 5.2zM103.4 379.9c2.7.9 4.7 2.6 4.5 5.7-.2 3.5-2.7 5-5.7 4.9-2.9-.1-5.1-2.1-5-5.2 0-3.6 3.2-4.5 6.2-5.4zM88.8 405.6c-2.7-.8-5.1-2-5-5.3.1-3.3 2.4-5 5.1-5 2.8 0 5 1.9 4.9 5.1 0 3.2-2.2 4.6-5 5.2zM70.8 363c-3.1-.1-5-1.5-5.1-4.8-.1-3.6 2.1-5.2 5.2-5.2 3.3 0 4.6 2.7 4.6 5.5.1 2.6-1.5 4.6-4.7 4.5zM88.8 385.6c-.5 2.9-2 5-5.1 5-2.8 0-4.7-2.1-4.7-4.8 0-3 2-4.8 5-5.1 3.3-.1 4.2 2.3 4.8 4.9zM84 370.8c.1 2.9-1.4 4.3-4.3 4.2-3-.1-5.5-1.4-5.5-4.5 0-3 2.6-4.3 5.2-4.3 2.6-.1 4.7 1.3 4.6 4.6zM66.1 397.9c-2.5.2-4.3-.6-4.2-3.5.1-2.9 1.8-4.6 4.7-4.5 2.4.1 5 .8 5 3.6 0 3.2-2.7 4.2-5.5 4.4zM329.8 333c.3-2.3 1-4.9 4.4-5.1 2.8-.2 6.7 3.5 6.4 6.3-.3 3.3-3 4.2-5.7 4.5-2.9.3-5.1-2.1-5.1-5.7zM361.2 309c-4.4.1-6.1-1.8-6-4.8.1-2.9 1.1-5.5 5-5.5 3.2 0 5.3 1.5 5.4 4.5-.1 3.2-1.8 5.6-4.4 5.8zM325.9 318.6c.2 3.4-1.9 5-4.8 5.1-3.3.2-5.1-2.1-5.3-5.3-.1-2.9 1.6-4.6 4.5-4.7 3.4 0 5.4 1.4 5.6 4.9zM352.9 325c-4.7-.3-6.2-2-6.2-5.2 0-2.9 1.4-4.2 4.3-4.1 3.2.1 5.6 1.5 5.5 5-.1 2.8-1.9 4.5-3.6 4.3zM331.7 317.3c.1-2.6 1.7-5 4.8-5.2 2.4-.1 4.4 1.4 4.3 4.3-.1 3.3-2.1 5.1-5.3 5.4-2.7.3-3.8-1.4-3.8-4.5zM354.6 338.8c-.9 2.4-1 5.7-4.3 5.8-2.9 0-4.3-2.7-4.2-5.2.1-2.6 2.1-4.5 4.9-4.5 2.4 0 3.4 1.6 3.6 3.9zM227.8 84.9c-.5 3.4-2.3 5.8-5.6 6-3.5.3-4.9-2.7-5.2-5.5-.4-3.6 2.5-5.1 5.4-5.2 2.7-.1 4.9 1.6 5.4 4.7zM261.9 102.9c-.1 3.7-2.2 5.5-5.3 5.6-3.2.1-5.4-2-5.4-5.2-.1-3.6 2.7-4.8 5.7-5 3.3-.4 4.6 1.9 5 4.6zM233.4 63.1c3.2.6 5.2 2.4 5.1 5.4-.1 3.2-2.1 5.4-5.4 5.2-3-.2-5-2.3-5-5.2 0-3.4 2.5-4.9 5.3-5.4zM244.6 114.1c-.8 2.8-2.2 5.1-5.4 4.9-3.2-.2-5.3-2.2-5.2-5.4.1-3.1 2.8-4.4 5.5-4.5 3.3-.2 4.4 2.3 5.1 5zM238.6 93.8c3.2-.3 4.8 1.6 4.9 4.3.1 3.2-1.9 5.4-5.1 5.5-2.9.1-4.4-2-4.5-4.8-.2-3.3 1.7-4.7 4.7-5zM243.5 83c-.6 2.5-1.8 4.8-4.8 4.7-3-.1-4.9-2.3-5.3-5.1-.3-2.8 1.8-4.3 4.4-4.3 2.9.1 5.2 1.3 5.7 4.7zM219.8 105.9c-2.3-.5-5.2-.8-4.9-4.2.2-2.7 2.3-3.9 5-3.8 2.7 0 4.7 1.3 4.8 4 0 2.8-2 3.9-4.9 4zM384.8 41.7c-.2 4.2-2.6 5.9-5.8 6-3 .1-5.1-1.9-5.1-4.9.1-3.4 2.6-5.5 5.7-5.7 3.2-.1 4.5 2.4 5.2 4.6zM345.7 41.6c-.8 2.3-1.5 5.6-5.1 5.2-3.1-.3-5.8-2.5-5.5-5.9.2-3.1 2.7-5 5.9-4.8 3 .1 5 1.7 4.7 5.5zM343.5 26.1c-3-.1-5.5-1.5-5.4-4.6 0-3 1.8-5.4 5.3-5.5 3.7-.1 4.9 2.8 5 5.7.1 2.8-1.8 4.5-4.9 4.4zM361.4 51c-3.5-.4-5.3-2.5-5.2-5.3.1-2.5 1.8-4.8 4.8-4.7 3.1.1 4.7 2.2 4.7 5.3.1 3-1.8 4.4-4.3 4.7zM355.1 27.8c2.3-.1 3.9 1.3 3.8 4.5-.1 3.1-2.2 4.5-4.9 4.4-2.5-.2-5-1.5-5.1-4.5 0-3.5 2.5-4.4 6.2-4.4zM350.6 56.4c-.5 3.7-3.2 4.5-6 5.1-2.5.5-3.7-1.2-3.7-3.5.1-3.1 1.9-5 5-4.9 2.2 0 4.2.8 4.7 3.3zM186.6 264.9c-3.5-.1-5.2-2.3-5.3-5.1-.1-3 1.6-5.8 5-5.7 3.7.1 5.6 2.8 5.6 6.4 0 3.6-3 3.9-5.3 4.4zM206.8 228.4c.1-1.9 1.6-3.6 4.9-3.6 3.7 0 5.1 2.3 4.9 5.5-.2 2.9-2 5.3-5 5.2-3.1-.3-5-2.4-4.8-7.1zM172.4 250c-3.3-.1-5-2.2-5-5.1 0-2.9 1.7-5.1 5-5 3.2.1 5.4 1.9 5.3 5.3-.1 3.1-2.3 4.6-5.3 4.8zM192.7 243.4c-1 2.7-2.6 4.5-5.7 4.5-3 0-4.3-1.8-4-4.5.3-2.9 2-5.2 5.1-5.2 2.8.2 4.1 2.4 4.6 5.2zM203.2 251c-3.4.2-5.1-1.8-5.1-4.8 0-2.5 1.4-4.4 4.3-4.4 3.1 0 5.2 1.2 5.4 4.5.2 3.2-1.8 4.4-4.6 4.7zM205.9 265.5c-.5 2.1-.6 5.1-3.9 5.1-2.7 0-4.1-2.1-4.1-4.7 0-3.1 1.9-4.9 5-4.9 2.8-.1 3 2.1 3 4.5zM96.8 119.9c-.5 2.6-1.3 5.7-5 5.8-3.3 0-5.7-2.1-5.8-5.5-.1-3.8 2.9-5 6-5.1 2.7-.1 4.9 1.1 4.8 4.8zM101.7 83.1c.2 1 .3 1.9.6 2.9.8 2.9-.5 5-2.8 6.3-2.2 1.3-4.3.2-5.9-1.4-1.7-1.6-2.2-3.7-.9-5.9 1.4-2.3 3.2-3.2 5.9-2.4.9.3 2 .3 2.9.4.1.1.2.1.2.1zM76.5 89c-1.8-.1-4.3-1.6-4.5-4.8-.2-3.2 2.1-5.2 5.3-5.2 3.5 0 5.1 2.5 5.2 5.5.2 2.6-1.5 4.6-6 4.5zM76.9 126.4c-.5 2.8-2.2 4.6-5.3 4.4-3-.2-4.9-2.1-4.7-5.2.2-3.3 2.7-5.1 5.6-5 3 .2 4.6 2.4 4.4 5.8zM88.1 94.8c2.8.3 4.8 1.6 4.6 4.6-.3 2.9-2 5.2-5.1 5-2.6-.2-5.2-1.4-4.8-5 .3-3.2 2.3-4.5 5.3-4.6zM82 112c.1 2.9-1.6 4.6-4.2 4.5-3.1-.1-4.7-2.5-4.8-5.4-.1-2.8 1.7-4.3 4.4-4.3 3.4 0 4.5 2.2 4.6 5.2zM99.8 108.9c-.1-2.3.7-4.1 3.3-3.9 3.2.3 5.3 2.2 5.6 5.3.2 2.3-1.7 3.5-4 3.5-3.2.1-4.8-1.7-4.9-4.9zM405.3 138c-2.6.2-4.3-1.8-4.2-4.7.1-2.8 1-5.7 4.9-5.5 3.9.2 5.6 2.8 5.7 6.2.1 3.4-2.8 3.9-6.4 4zM433.6 99.9c2.9.4 5.1 2 5.1 5.3 0 3.2-1.8 5.5-5.1 5.6-3.5.1-4.9-2.3-4.9-5.6 0-3.1 1.3-5 4.9-5.3zM398.8 116.8c-.5 4.1-2.8 5.8-6.1 5.7-3.2-.2-4.5-2.9-4.3-5.6.1-3 2.3-4.9 5.3-4.6 2.6.2 4.8 1.8 5.1 4.5zM424.4 126c-3.5 0-5.5-1.4-5.5-4.7 0-2.9 1.4-5.1 4.3-5 3 0 5.5 1.7 5.6 5.1 0 3-1.9 4.4-4.4 4.6zM413.7 116.3c-.5 3.1-2.2 5-5.2 5.3-2.8.3-4.5-1.6-4.6-4.2-.1-3.3 2-5.2 5.2-5.5 3.1-.1 4 2.1 4.6 4.4zM421.2 145c-3.1-.3-4.2-2.4-4.1-4.5 0-2.9 1.9-5.1 5-5.1 2.3 0 3.7 1.9 3.5 4.1-.4 2.6-1.7 5-4.4 5.5zM250.7 180.7c-.8 2.7-1.1 5.7-5 5-3.1-.6-6-1.9-5.6-5.6.4-3.1 2.3-5.7 6-5.1 3.2.4 4.6 2.7 4.6 5.7zM287.8 168.8c-.5 2.8-2.2 4.9-5.5 5-3.2.1-5.1-2.1-5-5 .1-2.9 2-5.7 5.1-5.7 3 .1 5.3 1.9 5.4 5.7zM241.5 165.7c-3-.3-5.2-1.8-5.3-4.8-.1-3 1.4-5.7 4.9-5.7 3.2 0 5.4 2.1 5.5 5.3.1 2.9-2.1 4.6-5.1 5.2zM259.9 166.7c.1 3.3-1.9 4.9-4.9 4.9-2.5 0-5-1.1-5.1-4.3-.1-3.7 3.1-4.6 5.7-4.9 2.6-.3 4.3 1.4 4.3 4.3zM261.7 178c.2-2.9 1.3-5.1 4.4-5 3.1.1 4.7 2.2 4.7 5.3 0 2.7-1.4 4.6-4.1 4.5-2.9-.1-5-1.6-5-4.8zM259.9 192.8c-.6 2.9-2.3 4.9-5.5 5.1-2.5.2-3.6-1.4-3.5-3.7.1-3.2 2.3-4.7 5.1-5.1 2.2-.2 3.5 1.3 3.9 3.7zM380.8 449.9c-3.4.1-4.8-2.2-4.8-5 0-3.3 1.9-5.8 5.5-5.7 3 .1 5.1 2.2 5 5.1-.1 3.2-2 5.5-5.7 5.6z"/></g></svg>