<svg id="Capa_1" data-name="Capa 1" xmlns="http://www.w3.org/2000/svg" viewBox="0 0 470.2 470.96"><defs><style>.cls-1{opacity:0.3;}.cls-2{fill:#99693a;}.cls-3{fill:#4c2f19;}</style></defs><title>pattern-cookies</title><g class="cls-1"><path class="cls-2" d="M199,160.82c-.11,17.45-13.36,30.8-30.65,30.86-15.6,0-30.53-15-30.38-30.59.17-18.86,12.84-32.35,30.27-32.23S199.1,143,199,160.82Zm-40,11.51c0-4.26-1.31-7.13-4.91-7.08-3.4,0-5.21,2.7-5.22,6.11s2.24,4.42,5.25,4.63C157.43,176.23,159.14,174.92,159,172.33ZM179.72,152c.19,3.41,2.31,5,5.22,4.71a5.09,5.09,0,0,0,5-5.66c-.11-3.06-1.93-5.12-5-5C181.4,146.22,180,148.84,179.72,152Zm-30.64,1.88c3.08-.17,5.32-1.77,5.5-4.7.21-3.5-2.45-5.56-5.59-5.81s-4.68,2.49-4.74,5.26S146,153.55,149.08,153.92ZM168.93,144c3.4,0,5.43-2,5.44-5.1a4.67,4.67,0,0,0-5.08-4.94c-3.52.06-5,2.59-5.15,5.54C164,142.26,165.81,144.1,168.93,144ZM165,158.92c2.57-.4,4.77-1.73,4.71-5-.06-2.82-1.93-4.23-4.64-4-3,.24-5.12,1.92-5.16,5C159.9,157.79,162,158.88,165,158.92ZM178,169.79c-.13-3.08-1.6-5-4.82-5-3,0-4.39,2-4.32,4.83.08,3.26,2.4,4.79,5.17,4.79C176.54,174.45,178.11,172.63,178,169.79ZM164.59,188c1.94-1.06,4.24-2.3,4.35-5.48.08-2.5-1.25-3.67-3.71-3.56-3.68.16-4.76,2.82-4.92,5.76C160.2,186.82,161.89,187.85,164.59,188Zm28.08-13.92c-.66-2.48-1.76-4.73-4.52-4.52-2.47.18-4.45,1.88-4.23,4.59s2.64,3.65,5.06,3.66S192.46,176.27,192.67,174.09Z"/><path class="cls-2" d="M370.62,247.91c.79-19.69,12.07-31.78,30.11-31.95,17.18-.17,31.06,14.39,30.93,31.88-.13,17.78-13.84,31.16-31.64,30.89C384.69,278.49,370.43,263.55,370.62,247.91Zm21.12,9.84c-.4-2.74-1.79-5.64-5.33-5.5-3.33.14-5.3,3-5.32,6.18,0,3.41,2.49,4.53,5.8,4.61C390.41,263.12,391.62,261.39,391.74,257.75ZM417.43,233c-3.44.43-5,2.93-5.21,5.81s1.58,5.13,4.88,5,5.35-2,5.59-5.22C423,235.1,420.33,233.85,417.43,233Zm-35.36,7.9c2.78-.15,4.89-1.55,4.74-4.82-.15-3.1-1.63-5.36-5.24-5.3-3.44.06-4.59,2.36-4.74,5.22C376.65,239.28,378.6,240.78,382.07,240.92ZM401.76,231c3.13-.09,5-1.56,5-4.83S405,221,401.91,221.1c-3.29.07-5.1,2.28-5.09,5.56C396.83,229.77,398.88,230.93,401.76,231ZM406,251.79c-3.22-.24-4.76,1.77-4.92,4.45-.17,3.06,1.88,5.05,4.83,5.35s4.71-1.74,4.77-4.54C410.72,254.1,409.28,252,406,251.79Zm-9.31-5.86c3.16.12,5.29-1.42,5.51-4.49.17-2.43-.9-4.7-4-4.53-2.91.15-5.21,1.23-5.46,4.58C392.46,244.32,393.66,246,396.66,245.93Zm5.16,23.92c-.39-2.44-1.6-4-4-3.69-2.8.4-5,1.89-5.05,5.16-.06,2.38,1.25,4.14,3.48,3.9A6.22,6.22,0,0,0,401.82,269.85Zm23-8.89c-.31-2.41-1.62-4.27-4.41-4-2.31.18-4.34,1.89-4.16,4.13.21,2.43,2.36,3.84,5,3.87S424.84,263.56,424.86,261Z"/><path class="cls-2" d="M125.83,59.58a29.38,29.38,0,0,1,29.89-29.1,31.94,31.94,0,0,1,31.77,32.39c-.13,16.33-13.49,29.72-29.56,29.6C139.2,92.34,125.78,78.59,125.83,59.58Zm23,23.44c2.84-.23,5.84-1,5.72-4.63a5.86,5.86,0,0,0-5.66-6c-3.15-.08-5.13,2.1-5.09,5.54C143.83,81.13,145.33,82.94,148.83,83Zm18.64-42.18c-3.81,0-5.55,1.53-5.69,4.83s1.64,5.66,4.82,5.79c3.33.15,5.12-2.39,5.12-5.55C171.73,43,170.27,40.82,167.47,40.84Zm-33.35,15c-3.15-.25-4.92,1.53-5,4.3-.08,3,1.39,5.67,4.9,5.66,3.22,0,5.52-2.08,5.49-5.25C139.47,57.56,137.08,56.08,134.12,55.85Zm13.44-18c-3.87,0-5.53,2-5.52,5s1.86,5.13,5,5c2.91-.09,5-1.67,4.92-5C151.86,39.58,150.2,37.94,147.56,37.81Zm-1.73,20.92c.21,2.42,1,4.23,3.85,4.24,3.39,0,5.5-1.85,5.67-5a4.21,4.21,0,0,0-4.15-4.72C147.92,53.25,146.34,55.64,145.83,58.73Zm24.09,7.72c-.2-2.06-1.88-3.62-5-3.65-2.88,0-4.22,1.35-4.15,4.21.08,3.47,1.87,5,5.29,5C169,71.92,170.05,70.26,169.92,66.45Zm-1.1,16.72c-.37-2.28-1.28-4.3-4-4.15-2.93.15-4.53,2.31-4.58,5-.05,2.2,1.28,4.49,3.7,4.65C167.47,88.89,167.85,85.7,168.82,83.17Zm11.49-23.3c-3.13.06-4.19,2.24-4.22,4.59,0,2.61,2,3.58,4.45,3.44s4.23-1.34,4.2-3.9C184.7,61.26,182.85,60,180.31,59.87Z"/><path class="cls-2" d="M343,397.25c.12,17.72-14.26,32.54-31.69,32.43-15.12-.09-28.56-12.71-29.09-25.31-1-22.44,12.18-37.53,30.95-37.6C329.53,366.72,342.92,380.39,343,397.25Zm-12.32-1.34c-3.27.55-5.64,2.27-5.68,5.75,0,3.22,2.49,4.84,5.24,4.81,3.21,0,5.77-1.76,5.54-5.56C335.61,397.86,333.88,396.11,330.7,395.91Zm-36.29-3.23c-3,.29-5.66,1.52-5.35,5,.27,2.9,2.23,5.88,5.25,5.76s5.29-2.78,5.4-6.15S297.66,392.7,294.41,392.68ZM309,377.9c-.12-3.72-1.26-6-4.62-5.85a5.34,5.34,0,0,0-5.4,5.42c-.09,3.42,2.53,5.08,5.53,5S309.25,380.48,309,377.9Zm21.82,5.36c.19-4.54-1.82-6.2-4.75-6.28s-5.21,1.23-5.3,4.59,1.63,5.26,5.07,5.3C329,386.91,330.66,385.22,330.8,383.26Zm-20,20.47c-3,.18-5,1.52-4.95,4.8.09,3,1.69,5.15,4.83,5.11s4.78-2.4,4.66-5.25C315.21,405.94,314.25,403.39,310.78,403.73ZM313,386.79c-3,.08-5.24,1.23-5,4.29s2.4,4.68,5.39,4.75a4,4,0,0,0,4.47-4.22C318,388.25,315.91,387,313,386.79Zm-18.14,31.12c2.63,0,5.11-.33,5-3.82-.08-2.94-2.34-4-4.73-4a4.72,4.72,0,0,0-4.88,4.68C290.16,417.59,292.41,418.11,294.85,417.91Zm29,3.19c-.08-2.36-1.23-4.19-4.05-4.2-2,0-4,.66-4,3.27s1.1,5.07,4,5.24C322.09,425.54,323.67,424,323.82,421.1Z"/><path class="cls-2" d="M239.94,377c-18.76-.3-31.81-14.08-31.92-33.15-.1-18.07,16.41-29.07,30.46-28.82,17.94.31,31.66,14.95,31.29,33.31A29.49,29.49,0,0,1,239.94,377Zm-3-13.87c-.67-3.61-2.45-6.2-6.21-6.1-3.19.09-4.66,2.69-4.61,5.53s1.44,5.47,4.82,5.14C233.6,367.4,236.65,366.8,236.9,363.1Zm12-27.15c3.31-.06,4.93-1.85,5.1-5.28.16-3.24-1.34-5.36-4.41-5.5s-5.55,1.54-5.62,5C243.88,333.28,245,335.76,248.87,336Zm-37.16,9.14c.13,3,1.37,5.49,4.57,5.45,3,0,5.51-1.78,5.47-5.27s-2.57-5.1-5.61-5.1C213.35,340.16,211.55,342,211.71,345.09Zm23-17.74c-.32-2.78-1.89-5-4.85-5.22a4.57,4.57,0,0,0-5.29,4.66c-.14,2.83,1,5.55,4.25,5.66C231.77,332.55,234.15,330.94,234.67,327.35ZM249,356.8a4.06,4.06,0,0,0,3.76-4.57c-.2-3.24-2.13-5.32-5.47-5.19-2.5.11-4.53,1.44-4.38,4.4C243,354.63,244.31,356.89,249,356.8Zm-16.77-9c2.63-.63,5.2-1.63,5.5-4.78a4.36,4.36,0,0,0-4.34-5.05c-3.29-.24-4.74,2.28-5.2,5S229.51,347.14,232.18,347.78Zm18.64,20.32c0-2.32-.43-4.23-3.06-4.33-2.9-.1-4.74,1.37-4.94,4.31-.19,2.75,1,5.25,3.9,5.22S250.2,370.33,250.82,368.1Zm7.82-18.9c-.36,2.05,1.33,3.28,3.72,3.44,2.68.17,4.44-1.24,4.54-4.07s-1.86-4.28-4.35-4.39S258.92,346,258.64,349.2Z"/><path class="cls-2" d="M164.72,355.57a30.94,30.94,0,0,1,31.14,31c.1,18.26-12.8,31.41-30.87,31.47-15.65.05-30.13-14.37-30.14-30C134.83,369.12,147.24,355.63,164.72,355.57ZM155.9,397.2c-.26-2.49-1.58-5.24-5.19-5.2-3.24,0-5,2.61-5.19,5.66-.28,3.65,2.44,4.77,5.42,5.09C154.3,403.1,155.75,401.19,155.9,397.2Zm20.91-19.5c-.29,3.93,1.47,5.79,4.21,5.82,3.23,0,5.78-1.69,5.79-5.39,0-3.35-1.93-5.23-5.25-5.27C177.81,372.81,177.19,375.67,176.81,377.7Zm-31.75-7.76a5.93,5.93,0,0,0-4.07,5.55c-.17,3.26,2.19,4.84,5,4.89s5.42-1.45,5.36-4.62S149.11,370.43,145.06,369.94Zm25.9-4.15c-.07-3.16-1.57-5-4.87-5s-5,1.94-5.09,5,1.9,4.9,5,5S170.88,369,171,365.79Zm-.53,35.2c2.54-.24,4.42-1.54,4.41-4.56s-1.74-5.17-4.67-5.33a4.55,4.55,0,0,0-4.85,4.6C165.23,398.58,167.05,400.54,170.43,401Zm-3.64-20.08c-.38-2.75-2-4.53-4.55-4.45-3,.11-5.51,1.49-5.44,5.12,0,2.55,1.59,4.1,4,4.06C163.9,385.59,166.21,384.17,166.79,380.91Zm-5.33,33.9c2.27-1.12,4.59-2.57,4.4-6-.15-2.67-2-3.22-4.19-2.95-3.09.37-4.84,2.21-4.64,5.33C157.17,413.42,158.64,414.72,161.46,414.81Zm28-13.88c-.48-2.31-1.42-4.64-4.07-4.81a4.07,4.07,0,0,0-4.65,4.05c-.18,3.26,2.25,4.18,4.79,4.49S188.91,403,189.51,400.93Z"/><path class="cls-2" d="M354.68,109.43c.59,17.76-13.34,33.73-30.58,33.33-18.33-.43-29.61-10-30.57-30C292.72,95.83,307.39,80.53,324.4,80,336.54,79.63,353.74,89.6,354.68,109.43Zm-48.57-3.58c-2.88.44-5.42,1.36-5.4,5.1,0,3.45,2.25,5.55,5.16,5.7,3.2.18,4.88-2.41,5-5.62S309.56,106,306.11,105.85Zm41.6,8.48c-.68-2.86-2.16-5.3-5.27-4.91s-5.85,2-5.55,5.81c.24,3.1,2.33,4.78,5.4,4.55S347.27,117.49,347.71,114.33Zm-37-24.42c-.08,4.2,2,5.78,4.89,5.88s5.07-1.26,5.18-4.65-1.72-5.59-4.83-5.7A4.81,4.81,0,0,0,310.74,89.91Zm32,5.34a5.08,5.08,0,0,0-5.18-5A4.9,4.9,0,0,0,332.15,95c-.15,3.29,2.45,5.23,5.44,5.41S342.19,98.21,342.74,95.25Zm-15.89,26.47c-.21-2.81-1.38-4.85-4.51-4.78-2.78.06-5,1.6-5,4.41,0,2.65,1.11,5.45,4.55,5.47C325.07,126.84,326.55,124.78,326.85,121.72Zm-2.12-12.67c3.19.19,4.8-1.71,4.82-4.46,0-3-2.55-4.26-5.09-4.41s-4.64,1.06-4.7,4C319.69,107.42,321.67,108.86,324.73,109.05Zm-17.86,14.72c-2.84.08-4.89,1.31-4.94,4.29,0,2.57,1.81,3.91,4.25,3.67s5.19-1.16,5.39-4.09S309.36,124,306.87,123.77ZM331,130c-1.72.68-4.22.93-4.05,3.82a4.87,4.87,0,0,0,4.62,4.92c2.72.25,3.78-2,3.93-4.16C335.69,131.92,334,130.43,331,130Z"/><path class="cls-2" d="M6.92,332.79c-6.16-7-7.75-15.31-6.55-24.09C2.17,295.57,14,284.05,26.9,282A30,30,0,0,1,58,298.16a31.76,31.76,0,0,1-6.24,37.18C37.21,349.69,16,345.84,6.93,332.81a60.09,60.09,0,0,0,6.44-.05c1.91-.21,3.45-1.16,3.57-3.45s-1.36-3.28-3.14-4C9.82,323.82,7.11,326.77,6.92,332.79Zm3.87-14.21c2.86-.05,6.22-4.09,5.93-6.83a4.64,4.64,0,0,0-5.06-4.43c-2.83.13-5.71,1.24-5.75,4.91C5.87,315.73,8.46,317.27,10.79,318.58ZM47.55,321c3.34,0,5.49-1.52,5.25-5.06-.19-3-2-5.08-5.08-4.93-3.36.16-5.67,2.21-5.66,5.69S44.55,321.05,47.55,321ZM25.9,292.16c.28-3.32-1.72-5.11-4.65-5s-5.42,1.87-5.33,5.31,2.56,5.1,5.57,5.06S26.26,295.48,25.9,292.16Zm17,9.76c3.48-.12,4.77-2.33,4.89-5.22.14-3.37-2.2-4.81-5.12-4.75s-5.34,1.81-5.34,4.84C37.37,300.09,39.93,301.53,42.94,301.92ZM32,323.19c.18-2.73-1.18-4.93-4.12-4.84s-5.07,1.79-5,5.07c.06,2.82,1.68,5,4.43,5.12C30.32,328.68,32.09,326.69,32,323.19Zm3-16.6c-.16-3.06-1.76-4.6-4.7-4.75s-5.13.8-5.24,3.91,1.94,4.85,5,5.07S34.58,309.48,34.92,306.59Zm1.9,25.22c-2.3.08-4.5.67-4.45,3.11s1.26,5.12,4.17,5.46c2.53.3,4-1.61,4.2-4C41,333.59,39.42,332.12,36.82,331.81Z"/><path class="cls-2" d="M470.2,434.75c-.12,17.66-13.58,31-31.05,30.82-15.47-.18-30-14.94-30-30.34.1-19,12.88-32.63,30.48-32.43C456.88,403,470.31,417,470.2,434.75Zm-39.79,10c-.35-2.79-1.48-5.51-4.89-5.59s-5.42,2.33-5.68,5.68c-.28,3.61,2,4.78,5.27,5.11C428.94,450.31,430,448.11,430.41,444.73Zm31.2-19.64c-.71-3-2.5-5.22-5.71-5.08-3.64.16-5,3.06-5,6.23.07,2.67,1.63,4.78,4.76,4.53C459.09,430.51,461.1,428.6,461.61,425.09Zm-21.43-7.17c3.81.09,5.52-2,5.42-5.2a4.62,4.62,0,0,0-4.77-4.72c-3.18,0-5.17,1.65-5.2,5.23C435.6,416.62,437.14,418.09,440.18,417.92Zm-24.54,5c.16,3.14,1.73,5,4.93,4.81,2.95-.19,5.1-2,5.06-5s-1.84-5.21-5.35-5C417,417.88,415.73,419.88,415.64,422.92Zm20.59,9.93c2.85-.21,4.73-1.71,4.55-5-.15-2.77-1.85-4.2-4.58-4.05-3,.18-5.08,1.94-5.22,4.91S433.15,432.86,436.23,432.85Zm8.44,15.69c2.87-.49,4.91-2.11,4.7-4.91s-1.95-5-5.21-4.91-4.21,2.48-4.28,5.06C439.8,446.82,442.24,447.82,444.67,448.54Zm-13,9.48c-.06,2.34.87,3.94,3.41,3.85,3.41-.12,5.08-2.47,5.36-5.45.22-2.33-1.64-3.64-3.9-3.45C433.65,453.22,431.55,454.62,431.71,458Zm27-14.32a4.2,4.2,0,0,0-3.74,4.65c.19,2.51,2.57,3.42,4.82,3.39a3.55,3.55,0,0,0,3.81-4.22C463.38,445.08,461.76,443.73,458.75,443.7Z"/><path class="cls-2" d="M3.67,32.5C3.53,16.2,18.45,1.11,34.9,1.1a30.51,30.51,0,0,1,30,30.49c.12,17.6-14,32.33-31.29,32.35C20.59,64,3.69,54.49,3.67,32.5ZM10.82,32c0,2.74,2.57,5.79,5,5.95s6.06-3.67,5.85-6.39c-.24-3.14-2.29-4.73-5.34-4.57S10.83,28.33,10.82,32Zm42.07-16c-.57-2.57-2.12-4.86-5.13-4.71s-5.65,2-5.52,5.23a5.35,5.35,0,0,0,5.77,5C50.83,21.37,52.79,19.42,52.89,15.92Zm-1.47,15A4.92,4.92,0,0,0,47,35.81c0,3.29,2.31,5.16,5.6,5,3-.14,5.12-2,5.1-5.06C57.71,32.85,56.25,30.66,51.42,30.89ZM26.16,6.8c-3.11.07-5.23,1.43-5.25,4.7a4.94,4.94,0,0,0,4.85,5.31c3.12.22,4.93-1.72,5.1-4.87S29.39,7,26.16,6.8ZM37,42.93c-.14-2.9-1.26-5-4.38-5s-4.82,1.85-4.79,5c0,2.86,1.33,4.84,4.39,4.9C35.46,48,36.86,46,37,42.93ZM34.88,21c-2.67.51-5.11,1.22-5,4.51s2.36,4.88,5.17,5a4.38,4.38,0,0,0,4.72-4.22C39.91,23,37.61,21.67,34.88,21Zm-13,27.71c-.51-2.76-2.33-3.8-4.92-3.89-3.1-.12-4.7,1.73-4.87,4.46C12,51.6,13.8,53,16,52.72,18.51,52.45,21.49,52.31,21.9,48.69ZM41.57,51c-1.94.66-4.64.81-4.4,3.72.22,2.58,1.56,5,4.57,5.09,2.52.08,3.94-1.63,4-4.15C45.86,52.88,44.44,51.31,41.57,51Z"/><path class="cls-2" d="M113.06,214.76A29.24,29.24,0,0,1,83.84,244c-19.18-.09-32.25-13.54-32.19-33.14C51.69,195,65.05,182,81.29,182,99.24,182,113.1,196.27,113.06,214.76ZM80,229.38c-.34-2.77-1.9-5.32-5.41-5.34-3.28,0-5,2.05-4.85,5.52.14,3,1.23,5.43,4.58,5.13C77,234.44,80.11,233.92,80,229.38Zm7.73-32.24c0,3.58,1.26,5.7,4.59,5.76,3.56,0,5.21-2.53,5.31-5.48.11-3.22-2.2-5.36-5.44-5.25C89.08,192.28,87.4,194.31,87.7,197.14Zm-19.91-2.37c.4,2.54,1.54,5.06,4.8,4.8,3-.24,5.36-1.89,5.25-5.39-.1-3.05-1.79-5.08-4.87-5.12C69.62,189,68,191.2,67.79,194.77ZM65,212.55c.08-4.12-2.78-5.24-5.52-5.33s-4.41,2.06-4.56,4.9a4.72,4.72,0,0,0,4.7,5.32A4.9,4.9,0,0,0,65,212.55ZM90.61,214c-2.71.36-4.66,1.82-4.48,4.48.2,3,1.7,5.62,5.32,5.29,2.74-.25,4.74-1.72,4.41-4.91S93.62,214.16,90.61,214Zm-14.93.88c2.54-.91,5.21-1.9,5.23-5.47,0-2.5-1.33-4.26-3.81-4.37-3.42-.15-5.09,2-5.31,5.26C71.62,212.77,73,214.26,75.68,214.83ZM94,235.29c0-3.18-1.07-4.78-3.81-4.48s-4.21,1.83-4.22,4.54c0,2.9,1.71,5,4.42,4.86C93.38,240.08,93.85,237.26,94,235.29ZM106,219.79c2.57-.42,4.72-1.62,4.56-4.34s-2.59-4.33-5.19-4.26-3.33,2.46-3.44,4.67C101.81,218.57,103.69,219.51,106,219.79Z"/><path class="cls-2" d="M258.44,255.43c0-16.37,15-31.36,31.33-31.38,16.07,0,29.85,14.09,30,30.69.11,17.64-14.46,32.55-32,32.18C273.91,286.63,258.4,276.45,258.44,255.43Zm48.32,8.46c3.28-.06,5.6-1.68,5.84-4.87.23-2.85-1.21-5.18-4.61-5.23s-5.83,1.33-6.15,5C301.55,262.28,304,263.28,306.76,263.89ZM276,254.3c-.27-2.82-1.83-4.65-5.06-4.37s-5.42,1.6-5.2,5.22c.19,3.21,2.06,5.59,5.13,5.56C274.3,260.68,275.79,258,276,254.3Zm31.69-15.14c-.67-2.91-2.29-5.06-5.33-4.85s-5.49,1.94-5.28,5.34,2.82,4.91,5.82,4.82S307.32,242,307.69,239.16Zm-32-3.91c.12,2.94,2.17,4.51,5.1,4.52s5.07-1.48,5-4.87-1.72-5.27-5.24-5.09C277.38,230,275.78,231.72,275.71,235.25ZM291.84,266c-.09-2.87-1.12-5-4.23-5.11a4.72,4.72,0,0,0-5.3,4.72c-.09,2.6,1.07,5.29,4.6,5.26C290.16,270.89,291.68,269.11,291.84,266Zm2.91-17.44a5.31,5.31,0,0,0-5.7-4.42c-2.43.1-4.51,1.43-4.31,4.38A4.88,4.88,0,0,0,290,253.4C292.61,253.38,294.53,251.63,294.75,248.6Zm-23.28,27.23c2.35-.43,5.15-.81,5.19-4.06,0-2.84-2.13-3.93-4.75-4-2.91-.05-5,1.27-5,4.31C266.91,274.74,268.85,275.74,271.47,275.83Zm29.18,2.77c-.35-2.7-1.71-4.57-4.43-4.44-2.14.11-4.46.95-4.27,3.8s1.74,4.7,4.68,4.82C299.4,282.88,300,280.64,300.65,278.6Z"/><path class="cls-2" d="M369.28,181.77c1.1,3.58,1.69,5.94,6,4.69,3.7-1.08,6.43,2.73,5.67,6.79-2.53,13.69-14.83,24.65-28.79,25.67-13.3,1-24.88-7.67-30.41-20.44-8.28-19.13,8.27-38,23.63-41.4,1.62-.36,4.53-1.73,4.9,0,.42,2,2.16,4,.71,6.53-2.54,4.43,2.35,7.81,2.34,12.11,0,1.48,2.59,1.2,4.34.79,1.09-.25,3.66-.59,3.11,1.4-.77,2.78-.93,5,1.65,6.5S367.13,184.11,369.28,181.77Zm.66,12.07c-3.38,0-5.6,1.85-5.69,4.95s2,5.12,5.42,5.12,5.23-1.74,5.17-5.17C374.78,195.6,373.19,193.85,369.94,193.84Zm-32-7.89c.16-3.18-1.83-4.86-4.47-4.81-3.13.05-5.87,1.62-5.69,5.41.14,2.95,2,5.24,4.87,5.29C336.11,191.89,337.62,189.23,337.92,186Zm8-17.59c0-3.26-1.13-5.47-4.53-5.47-3.07,0-5.19,1.82-5.41,4.75s1.89,4.93,4.87,5.22C344.12,173.18,345.81,171.4,346,168.36Zm13,43.59c.12-3.14-1.85-4.83-4.49-4.83-2.93,0-5.63,1.5-5.55,5,.08,3.1,2.23,4.73,5.24,4.81C357.39,217,358.81,215,358.93,212Zm-3.11-14.9c-.08-2.93-1.13-5-4.29-5.12a4.75,4.75,0,0,0-5.28,4.82,4.7,4.7,0,0,0,4.46,5.1C354.19,202.18,355.25,199.79,355.82,197.05Zm-5.71-11c1.62.08,3.41-1.7,3.39-4.49s-2.16-4.41-4.95-4.6-5.2,1.42-5.2,4.14S345.43,185.86,350.11,186ZM332.57,206.9c2.72-.07,5.14-.87,5.13-4,0-2.77-2-4.05-4.68-4-2.83.11-4.85,1.83-4.95,4.54C328,206,330.11,207,332.57,206.9Z"/><path class="cls-2" d="M137.48,319.59c-3.36,1.2-5.42,2.29-3.74,6.55,1.42,3.59-2.28,6.55-6.45,6.09-13.8-1.53-24.18-10.52-27.9-24.2-2.89-10.6,1.87-23.94,10.93-30.63,17.53-12.95,42.08-5.19,49.4,15.61,1.51,4.3-1.2,7.84-5.44,6.25-5.17-1.95-7.6,3.69-12.09,3.34-1-.08-1.39,2.48-.68,4.35s1.58,4.54-2.57,3.34c-1.83-.53-3.59.55-4.5,2.39C132.93,315.69,135.37,317.21,137.48,319.59Zm-9.11-30.8c4.59.32,6.15-1.75,6.24-4.66.11-3.35-1.79-5.94-5.24-5.95a5.69,5.69,0,0,0-6,5.5C123.44,286.85,126.35,288.49,128.37,288.79Zm-7.57,38.14c3-.12,5-1.36,5.09-4.73.11-3.65-2-5.8-5.29-6-3.17-.21-4.68,2.11-4.79,5.19C115.7,324.71,117.16,326.74,120.8,326.93Zm-9.87-19.13c-.07-3.35-2-5.46-5.11-5.5s-4.78,2.39-4.88,5.26c-.12,3.47,2.54,5.06,5.49,5.06C109.08,312.62,111,310.92,110.93,307.8Zm37-12.86c3.14-.11,5.63-1.26,5.66-4.43,0-3-1.68-5.39-5.05-5.6s-4.84,2-5.06,4.86C143.27,292.81,145,294.61,148,294.94Zm-26.84,3c-2.8.72-5.4,1.59-5.22,5.06.15,2.9,1.92,4.71,4.79,4.69,2.62,0,5.09-1,5.11-4.24C125.81,300.41,124,298.67,121.12,298Zm19.22.34c-.4-2.43-1.1-4.66-4.18-4.49-3.48.19-5,2.69-5,5.64a4.32,4.32,0,0,0,4.6,4.26C139.13,303.69,140,301.06,140.34,298.29ZM112,280.81c-3.07.31-3.28,2.41-3.12,4.68.19,2.73,1.3,5.15,4.3,5,2.62-.17,3.84-2.48,3.62-5C116.52,282.57,114.67,281.11,112,280.81Z"/><path class="cls-2" d="M100.2,368.86c1.42,2.9,2.23,5.45,6.35,3.5,3.09-1.46,6.57,2,6.45,5.6-.48,14.12-11.68,26.92-26,29.66-12.45,2.4-26.57-5.11-32-17-6.61-14.52-3.05-29.08,9.52-38.78a29.77,29.77,0,0,1,8.63-4.93c1.64-.55,4.17-2.26,4.91-.58s2.81,3.82,1.52,6.35a4.24,4.24,0,0,0,1.26,5.76c.78.61,1.5,1.13,1.39,2.39-.39,4.35,1.64,5.28,5.5,3.86,1.32-.48,3.44-1.23,3.19,1.62-.2,2.33,0,4.4,2.37,5.47C96.25,373.07,98,370.94,100.2,368.86Zm-30.33,8.39c-.35-3.12-2-5.17-5-5.21s-5.59,1.83-5.76,5a5.75,5.75,0,0,0,5.32,6.18C67.86,383.46,69,380.1,69.87,377.25Zm33.48,2.65c-3,.89-6.13,1.78-6.26,5.45a4.87,4.87,0,0,0,5,5.16c3,.12,5.5-1.44,5.73-4.9C108,382.48,106.1,380.83,103.35,379.9ZM88.76,405.57c2.81-.6,5-2,5.07-5.15a4.71,4.71,0,0,0-5-5.11,4.79,4.79,0,0,0-5.13,4.95C83.66,403.6,86,404.73,88.76,405.57ZM70.83,363c3.2.16,4.78-1.84,4.77-4.53S74.22,353,71,353s-5.37,1.63-5.25,5.2C65.83,361.44,67.73,362.87,70.83,363Zm18,22.67c-.68-2.63-1.49-5.07-4.76-4.82-3,.23-5.07,2-5,5.07a4.6,4.6,0,0,0,4.72,4.79C86.83,390.66,88.36,388.49,88.83,385.63ZM84,370.77c.15-3.25-2-4.65-4.65-4.65s-5.21,1.35-5.16,4.32c0,3.15,2.51,4.41,5.53,4.5S84.06,373.69,84,370.77Zm-17.9,27.09c2.86-.18,5.49-1.15,5.46-4.38,0-2.8-2.62-3.56-5-3.62-2.93-.07-4.58,1.64-4.68,4.54S63.59,398,66.09,397.86Z"/><path class="cls-2" d="M372.46,325.69c-2.09,11.17-9.87,17-19.6,21.16-12.36,5.3-22.48.08-31.1-7.67-8.9-8-11.09-19-8.89-30.7.46-2.51,5-3.4,7.18-.8,3.49,4.24,8.33.72,12.2,2.87,1.23.68,2.62-1.78,2.81-3.9.11-1.23.58-3.71,3-2,1.93,1.4,3.85,2.08,5.92.57,2.59-1.89,1.58-4.4.73-7.08,3.18-.2,5.92,0,6.45-4.67.42-3.71,4.76-4.37,8.21-2.24,10.25,6.34,17.14,22,13.37,32.73-.43-.87-.78-1.79-1.29-2.61-1.72-2.84-3.95-4.56-7.32-2.59s-3,5-1.36,7.68c1.89,3.1,4.58,2.56,7.2.67A27,27,0,0,1,372.46,325.69ZM329.78,333c0,3.64,2.18,6,5.15,5.69,2.67-.3,5.33-1.21,5.65-4.46.28-2.83-3.6-6.54-6.4-6.34C330.75,328.1,330.13,330.65,329.78,333Zm31.38-24c2.62-.17,4.35-2.61,4.3-5.82,0-3-2.13-4.47-5.37-4.48-3.9,0-4.86,2.61-5,5.47S356.76,309.09,361.16,309Zm-35.25,9.6c-.16-3.5-2.22-4.91-5.5-4.8-3,.1-4.66,1.73-4.53,4.68.14,3.19,1.95,5.4,5.25,5.25C324,323.56,326.06,321.93,325.91,318.57ZM353,325c1.62.14,3.41-1.56,3.53-4.34.15-3.47-2.28-4.83-5.48-4.95-2.85-.12-4.3,1.19-4.26,4.12C346.78,323.05,348.28,324.77,353,325Zm-21.29-7.74c0,3.1,1.15,4.75,3.86,4.5,3.15-.29,5.15-2.08,5.29-5.36a3.88,3.88,0,0,0-4.3-4.32C333.34,312.31,331.78,314.67,331.66,317.3Zm22.95,21.47c-.23-2.22-1.23-3.91-3.59-3.9a4.64,4.64,0,0,0-4.93,4.49c-.1,2.49,1.27,5.2,4.18,5.17C353.63,344.49,353.75,341.17,354.61,338.77Z"/><path class="cls-2" d="M259,86.86c.6,3.15.75,5.51,4.86,5.23s6.32,3.81,4.73,8c-5.13,13.47-19.8,22.26-33.85,20.31-13.81-1.93-24.15-13.21-25.54-27.89s7.24-27.48,22-32.42A40.68,40.68,0,0,1,239,58.33c1.69-.21,4.88-.89,4.85.63,0,2.12,1.76,4.39-.12,6.54-3.59,4.09,1.5,8.16.25,12.42-.27.92,1.84,1.94,3.61,1.67,2.77-.43,4.77-.09,2.78,3.54-1,1.82-.24,3.53,1.39,4.84C254.35,90,256.39,88,259,86.86Zm-31.22-2a5.1,5.1,0,0,0-5.43-4.67c-2.91.08-5.75,1.58-5.37,5.15.29,2.83,1.61,5.8,5.15,5.54C225.47,90.64,227.31,88.27,227.79,84.86Zm34.13,18c-.44-2.68-1.75-4.95-5.05-4.64-2.92.28-5.73,1.47-5.66,5a5,5,0,0,0,5.43,5.23C259.72,108.42,261.87,106.62,261.92,102.88Zm-28.53-39.8c-2.83.55-5.29,2-5.28,5.33a5.07,5.07,0,0,0,5,5.24c3.29.17,5.35-2,5.42-5.19C238.59,65.47,236.58,63.7,233.39,63.08Zm11.17,51c-.64-2.69-1.78-5.17-5-5-2.74.12-5.41,1.38-5.54,4.52s2,5.2,5.19,5.38S243.75,116.86,244.56,114.07Zm-5.91-20.23c-3,.25-4.94,1.64-4.77,5,.14,2.84,1.65,4.9,4.5,4.84a5,5,0,0,0,5.13-5.46C243.42,95.48,241.85,93.54,238.65,93.84ZM243.53,83c-.5-3.38-2.86-4.63-5.65-4.67-2.54,0-4.71,1.52-4.37,4.29a5.42,5.42,0,0,0,5.26,5.1C241.74,87.82,242.94,85.5,243.53,83Zm-23.68,22.87c2.81-.09,4.9-1.19,4.82-4s-2.11-4-4.77-4-4.73,1.06-5,3.81C214.67,105.12,217.55,105.37,219.85,105.89Z"/><path class="cls-2" d="M369.81,65.78c-9.45,5.53-24.77,3-32.9-5.7-9.4-10-12.16-22.16-7.37-34.59a31.55,31.55,0,0,1,17-17.24c1.84-.8,5,2.81,4.6,5.6s0,4.93,2.79,6.11a2.11,2.11,0,0,1,1.25,1.93c.62,4.12,2.52,5.1,6.16,2.68.92-.61,3.11-1.81,3.35.75.26,2.74.76,5,3.84,5.53,2.85.45,4-1.91,5.42-4.26,2.1,2.53,3.71,5.43,7.55,2.34.83-.67,6-1.42,7,3.32,2.44,12.28-5.3,27.51-16.86,32.57.38-.91.7-1.83,1.13-2.71,1.52-3,1-5.69-2.18-6.93s-6,.07-7.31,3.22.88,4.82,3.45,6C367.75,64.89,368.78,65.32,369.81,65.78Zm15-24.07c-.73-2.23-2-4.76-5.11-4.54S374,39.42,374,42.84a4.6,4.6,0,0,0,5.07,4.89C382.24,47.59,384.64,45.88,384.84,41.71Zm-39.1-.13c.26-3.76-1.72-5.37-4.7-5.53-3.22-.18-5.69,1.75-5.9,4.84-.23,3.37,2.44,5.57,5.53,5.9C344.28,47.18,345,43.92,345.74,41.58Zm-2.25-15.53c3.11.15,5-1.57,4.84-4.4s-1.28-5.75-5-5.67c-3.46.07-5.25,2.47-5.26,5.49S340.47,26,343.49,26.05Zm17.94,25c2.5-.37,4.36-1.71,4.34-4.74s-1.57-5.17-4.72-5.29a4.58,4.58,0,0,0-4.79,4.73C356.15,48.56,357.92,50.67,361.43,51.05Zm-6.32-23.24c-3.72,0-6.22.92-6.19,4.31,0,3,2.56,4.31,5.07,4.49,2.69.2,4.74-1.22,4.89-4.35S357.42,27.72,355.11,27.81Zm-4.52,28.57c-.5-2.45-2.51-3.27-4.7-3.32-3.14-.06-4.94,1.82-5,4.89,0,2.24,1.23,3.93,3.69,3.48C347.34,60.92,350.12,60.06,350.59,56.38Z"/><path class="cls-2" d="M223.79,251.8c-1,10-12.31,20.69-23.3,22.11-22.25,2.88-39.35-14.19-36.64-36.56.59-4.84,4.24-6.58,7.66-3,3.86,4,8.54.56,12.59,2.38,1.21.56,2.14-1.86,2.26-3.73.08-1.23.52-3.67,2.8-2.14s4.11,2.33,6.31.54c2.49-2,1-4.55.47-7.18,3.21,0,6,.23,6.32-4.59.26-3.47,5-4.36,8.2-2.33a31.11,31.11,0,0,1,14,31.74c-.6-.77-1.28-1.48-1.8-2.3-1.79-2.86-4.27-3.85-7.08-1.9-2.55,1.77-3.55,4.43-1.63,7.33s4.46,3,7.21,1A17.8,17.8,0,0,1,223.79,251.8Zm-37.2,13.12c2.35-.52,5.3-.81,5.28-4.41s-1.9-6.25-5.6-6.36c-3.4-.1-5,2.63-5,5.67C181.36,262.66,183,264.78,186.59,264.92Zm20.2-36.57c-.2,4.74,1.7,6.87,4.85,7s4.88-2.28,5-5.15c.18-3.14-1.27-5.45-5-5.47C208.42,224.75,206.91,226.5,206.79,228.35ZM172.37,250c3-.22,5.21-1.66,5.29-4.76.09-3.32-2.15-5.13-5.34-5.27s-5,2.11-5,5A4.81,4.81,0,0,0,172.37,250Zm20.34-6.57c-.49-2.8-1.82-5.07-4.69-5.1-3.07,0-4.78,2.26-5.06,5.17-.25,2.66,1,4.5,4,4.46S191.75,246.1,192.71,243.43ZM203.24,251c2.77-.33,4.75-1.56,4.58-4.7-.18-3.3-2.27-4.56-5.37-4.55a4,4,0,0,0-4.35,4.42C198.13,249.22,199.79,251.21,203.24,251Zm2.68,14.44c0-2.4-.24-4.54-2.94-4.54a4.64,4.64,0,0,0-5,4.93c0,2.56,1.4,4.71,4.09,4.71C205.33,270.58,205.41,267.58,205.92,265.48Z"/><path class="cls-2" d="M101.73,83.14c9.21,4.62,12.66,23.59,8.45,33.2C101.66,135.8,78,142.33,61,129.6c-3.9-2.92-3.61-7.19,1.09-8.31,5.41-1.3,4.47-7.1,8.08-9.59,1.1-.76-.51-2.84-2-4-1.88-1.4-3.36-3,.39-4.19a3.68,3.68,0,0,0,2.41-4,3.72,3.72,0,0,0-3.36-3.75c-2.86-.3-3-1.35-1.4-3.38,1.13-1.49.5-2.63-.78-3.85-4.67-4.41-4.31-7.18,1.12-10,11.51-6,26.46-4.11,35.09,4.49a16.78,16.78,0,0,1-2.94-.4c-2.67-.85-4.51.14-5.87,2.39A4.49,4.49,0,0,0,93.7,91c1.58,1.57,3.71,2.65,5.87,1.39s3.56-3.45,2.77-6.31C102.07,85.09,101.93,84.11,101.73,83.14Zm-4.9,36.79c0-3.71-2.18-4.89-4.81-4.83-3.13.07-6.11,1.31-6,5.1a5.4,5.4,0,0,0,5.82,5.51C95.58,125.67,96.34,122.53,96.83,119.93ZM76.47,89c4.53.11,6.21-1.84,6.11-4.55-.1-3-1.76-5.51-5.23-5.5-3.29,0-5.52,2-5.35,5.23A5,5,0,0,0,76.47,89Zm.41,37.38c.2-3.36-1.4-5.6-4.33-5.75a5.1,5.1,0,0,0-5.65,5c-.21,3.12,1.7,5,4.71,5.2S76.42,129.17,76.88,126.37ZM88.12,94.83c-3,.09-5,1.33-5.32,4.59-.33,3.55,2.2,4.8,4.83,5,3.06.23,4.81-2.08,5.07-5S91,95.08,88.12,94.83ZM82,112c-.07-3-1.19-5.19-4.58-5.19-2.74,0-4.51,1.51-4.39,4.26s1.72,5.26,4.79,5.4C80.4,116.62,82,114.92,82,112Zm17.84-3.09c.11,3.15,1.66,5,4.91,4.93,2.25,0,4.13-1.19,4-3.5-.22-3.16-2.41-5.09-5.57-5.35C100.51,104.8,99.73,106.62,99.8,108.94Z"/><path class="cls-2" d="M444.6,126.83c-2.9,15-20,24.79-36,20.55-14.85-3.95-23.58-15.11-23.83-30.52,0-2.32.42-4.68.18-7s.26-5.44,1.79-5.46c2.07,0,5.29-.25,6.68,1.94,3,4.69,8.47.78,11.81,3.81.06.06.3-.09.46-.13,3.23-.87,1.81-5.59,4.32-6,2-.36,3.79,3.54,6.82,1.89.15-.08.38-.11.43-.22,1.62-3.67,4.53-6.29,6.94-9.26,4.68-5.77,6-7.23,11.37-2.05C444.29,102.81,448,112.91,445,125c-.83-1-1.66-2-2.5-3-2.08-2.49-4.59-2.83-7-.73s-2.64,4.78-.68,7.16,4.68,2.13,7.16.53C442.92,128.36,443.24,127,444.6,126.83ZM405.31,138c3.6-.09,6.45-.62,6.34-4.1s-1.78-6-5.72-6.16-4.79,2.69-4.86,5.51C401,136.27,402.73,138.22,405.31,138ZM433.58,99.9c-3.53.29-4.88,2.21-4.84,5.31,0,3.25,1.45,5.65,4.9,5.56,3.26-.08,5.11-2.35,5.08-5.56S436.48,100.31,433.58,99.9Zm-34.82,16.88c-.24-2.72-2.46-4.28-5.16-4.57a4.57,4.57,0,0,0-5.32,4.62c-.13,2.76,1.11,5.49,4.33,5.64S398.23,120.84,398.76,116.78ZM424.37,126c2.57-.12,4.39-1.57,4.34-4.58-.06-3.48-2.55-5.1-5.56-5.14s-4.33,2.18-4.3,5C418.89,124.59,420.86,126,424.37,126Zm-10.69-9.62c-.59-2.37-1.53-4.58-4.49-4.37-3.26.22-5.32,2.18-5.25,5.46a4,4,0,0,0,4.57,4.19C411.49,121.34,413.23,119.4,413.68,116.34ZM421.17,145c2.77-.56,4.08-2.87,4.32-5.59a3.52,3.52,0,0,0-3.48-4.06,4.87,4.87,0,0,0-5,5.13A4.2,4.2,0,0,0,421.17,145Z"/><path class="cls-2" d="M281.87,192.87c-6.28,8-20.43,11.42-30.92,7.51-21.64-8.06-27.77-36.26-11.45-52.63,2-2,6.39-.63,6.81,2.87.66,5.61,6.89,4.86,8.9,8.88.62,1.26,2.92-.06,4.09-1.51,1.58-2,3.15-3,4.3.53a3.84,3.84,0,0,0,4.34,2.63,3.93,3.93,0,0,0,3.71-3.49c.34-2.28,1.09-2.5,2.76-1.08,1.93,1.64,3.22,1.09,4.92-.81,2.89-3.23,7.13-2.35,8.95,1.46,5.47,11.42,3.1,26.39-5.49,34.63,0-1.16.06-2.32,0-3.48-.21-3.45-2.37-5.34-5.52-5s-4.94,2.74-4.47,6.1c.5,3.57,2.89,4.48,6.16,3.83C279.91,193.13,280.9,193,281.87,192.87ZM250.69,180.7c0-3-1.37-5.28-4.6-5.75-3.71-.54-5.64,2-6,5.13-.42,3.71,2.51,5,5.61,5.59C249.54,186.41,249.88,183.44,250.69,180.7Zm37.15-11.9c-.14-3.76-2.47-5.63-5.41-5.61-3.15,0-5.07,2.8-5.14,5.71a4.59,4.59,0,0,0,5,4.95C285.6,173.74,287.29,171.65,287.84,168.8Zm-46.34-3.13c3-.57,5.15-2.32,5.05-5.3a5.22,5.22,0,0,0-5.54-5.28c-3.49,0-5,2.75-4.85,5.74S238.53,165.39,241.5,165.67Zm18.39,1c0-2.87-1.74-4.62-4.22-4.32-2.63.31-5.76,1.25-5.7,4.94.05,3.14,2.53,4.23,5.06,4.26C258,171.63,260,170.06,259.89,166.71Zm1.8,11.29c0,3.23,2.08,4.73,5,4.8,2.76.06,4.17-1.82,4.14-4.53,0-3.08-1.61-5.16-4.75-5.28S261.92,175.09,261.69,178Zm-1.82,14.83c-.37-2.45-1.69-4-4-3.65-2.77.37-4.95,1.83-5.06,5.06-.07,2.36,1,3.89,3.49,3.72C257.54,197.75,259.25,195.73,259.87,192.83Z"/><path class="cls-2" d="M380.83,449.89c3.7,0,5.53-2.42,5.63-5.62a4.89,4.89,0,0,0-5-5.13c-3.58-.11-5.44,2.39-5.45,5.73C376,447.73,377.39,450,380.83,449.89Z"/><path class="cls-3" d="M365.16,282.06c-4.47-.2-7-2.53-6.75-6.21s3.38-6.86,6.71-6.76c3.51.1,6,3.57,5.72,7.92C370.57,281.05,369.23,282.24,365.16,282.06Z"/><path class="cls-3" d="M124.69,361.37c-.37,2.88-.7,5.82-5,5.77-4.6-.06-7.8-2.33-7.75-5.92s3.2-7,6.49-7.13S124.63,357.23,124.69,361.37Z"/><path class="cls-3" d="M45.79,118.12c-.28,2.94-.82,6-5.26,5.76-3.78-.2-7-1.38-7.45-5.65-.43-3.58,3-7.27,6.51-7.37S45.68,113.68,45.79,118.12Z"/><path class="cls-3" d="M48.94,267.27c0,3.74-1.31,6.1-5.55,5.76-3.62-.3-6.63-1.42-6.93-5.61-.27-3.79,3.09-7.42,6.59-7.41S49,263.15,48.94,267.27Z"/><path class="cls-3" d="M266.5,416.43c-.3,4.23-1.26,6.87-5.68,6.51s-7.13-2.59-7-6.12,3.3-6.89,6.62-6.9S266.54,413.21,266.5,416.43Z"/><path class="cls-3" d="M417.26,22.09c-3.4-.67-6.88-1.32-6.51-6.13.3-3.87,3.74-7.18,7.14-6.85s5.73,3.79,5.45,7.71C423.08,20.54,421.52,22.82,417.26,22.09Z"/><path class="cls-3" d="M249.82,281.49a6.76,6.76,0,0,1-6.73,6.5c-3.9,0-5.74-2.28-5.92-5.85s3.36-7.12,6.35-7A6.58,6.58,0,0,1,249.82,281.49Z"/><path class="cls-3" d="M134.57,126.34c-.34,3.37-1.14,6.22-5.54,5.78-3.74-.36-6.94-1.34-7.11-5.85-.14-3.73,3.25-7.24,6.71-7.2C131.87,119.1,134.59,122.42,134.57,126.34Z"/><path class="cls-3" d="M406.68,367.32c.14-4.46,3.21-7.83,6.43-7.54,3.8.35,6.06,2.49,6.08,6.42,0,3.38-3.45,6.72-6.83,6.47C408.75,372.4,406.7,370.33,406.68,367.32Z"/><path class="cls-3" d="M168,209.48a6.63,6.63,0,0,1-6.6,6.69c-3.49-.08-5.61-1.88-5.83-5.5s2.9-7.37,6-7.47A6.52,6.52,0,0,1,168,209.48Z"/><path class="cls-3" d="M458.92,141.9c-3-.51-5.19-2.39-5.06-6.19.12-3.57,3.52-7.1,6.58-6.73,3.78.46,6,2.73,6.08,6.58C466.57,138.86,462.89,142,458.92,141.9Z"/><path class="cls-3" d="M159.66,13.47c0-4.46,2.89-7.79,6.2-7.67C169.73,6,172,8.06,172.19,12c.17,3.39-3.18,6.88-6.6,6.72S159.8,16.58,159.66,13.47Z"/><path class="cls-3" d="M96.1,274.51c-.71,3.23-3.06,4.91-6.72,4.66A5.62,5.62,0,0,1,84,272.29c.71-3.46,2.73-5.74,6.59-5.35C93.87,267.28,96.55,270.85,96.1,274.51Z"/><path class="cls-3" d="M214.64,385.5a6.21,6.21,0,0,1,6.35,6.26,6.77,6.77,0,0,1-6.75,6.62c-3.43-.19-5.57-2.06-5.73-5.67S211.41,385.54,214.64,385.5Z"/><path class="cls-3" d="M102.92,166.73c-3-.32-5.4-1.76-5.68-5.36a6.32,6.32,0,0,1,6.29-6.84c3.82.08,5.77,2.36,6.08,5.91C109.9,163.79,106.77,166.72,102.92,166.73Z"/><path class="cls-3" d="M112.16,421.12c-.13,4-2.42,6.13-6,6.25s-6.12-1.57-6.36-5.53c-.22-3.58,2.55-7,5.73-6.85C109.39,415.23,111.54,417.54,112.16,421.12Z"/><path class="cls-3" d="M309,168.65c-3.54-.56-5.95-2.19-6.07-6-.1-3.49,2.84-6.64,6-6.57s6.89,3.78,6.43,6.89C314.86,166.54,312.48,168.31,309,168.65Z"/><path class="cls-3" d="M306.38,37c-.4,4-2.51,6.15-6.48,6.07-3.46-.06-5.64-1.77-5.82-5.37s2.8-6.78,6-6.72C304.15,31.08,306,33.37,306.38,37Z"/><path class="cls-3" d="M157.4,338.47c3.78.26,5.8,2.37,5.76,6.08,0,4-2.54,6.09-6.37,6-3.31,0-5.72-1.75-5.85-5.43A6.32,6.32,0,0,1,157.4,338.47Z"/><path class="cls-3" d="M443.63,389a6,6,0,0,1-6.3,6.22c-3.29-.15-5.78-1.53-5.94-5.31a6.44,6.44,0,0,1,6.21-7A6.13,6.13,0,0,1,443.63,389Z"/><path class="cls-3" d="M414,73.4c-3.68-.33-6-2.2-5.69-6s2.43-6.28,6.41-6.14c3.71.13,5.65,2.61,5.84,6.17C420.75,70.75,417.54,73.51,414,73.4Z"/><path class="cls-3" d="M59.1,435.67c.11,3.39-3,6.9-6.42,6.87s-5.94-1.84-6.09-5.69c-.14-3.62,2.82-7.11,6-7.19A6.22,6.22,0,0,1,59.1,435.67Z"/><path class="cls-3" d="M225.15,152.16a5.73,5.73,0,0,1-6.14,5.52c-3.53,0-6-1.81-6.15-5.75-.11-3.57,2.78-6.8,6-6.73S225.17,148.66,225.15,152.16Z"/><path class="cls-3" d="M374.36,136.25a6.06,6.06,0,0,1-6.2,6.36c-3.33-.1-5.78-1.65-6.12-5.26s2.73-7.16,6.21-7C371.89,130.5,374,132.52,374.36,136.25Z"/><path class="cls-3" d="M234.77,216.26a5.94,5.94,0,0,1-6.43,6c-3.32-.22-5.72-1.64-5.74-5.46s2.76-6.91,6.35-6.78A6.06,6.06,0,0,1,234.77,216.26Z"/><path class="cls-3" d="M153.51,463.83c-3.59-.49-6.07-2.05-5.79-6,.27-3.78,2.16-6.24,6.26-6.16,3.83.08,5.77,2.37,5.8,6C159.82,461.7,157.21,463.41,153.51,463.83Z"/><path class="cls-3" d="M371.67,74.72c3.56.71,6,2.61,6.18,6.54.13,3.43-2.91,6-6.61,5.77s-5.76-2.38-5.56-6.18C365.88,77.22,367.8,75.06,371.67,74.72Z"/><path class="cls-3" d="M349.85,241c-3.53-.33-5.85-2.08-6-5.91s2.73-6.66,6.14-6.39c3.94.3,6.21,2.84,6.21,6.51S353.63,240.71,349.85,241Z"/><path class="cls-3" d="M377.7,390.11c.59-3.16,2.27-5.71,6.15-5.42s6,2.76,6.06,6.6c.08,3.39-3.19,6-6.82,5.57S377.56,394.21,377.7,390.11Z"/><path class="cls-3" d="M388.59,169.6c3.92.48,6.65,3.94,6,7.18s-2.54,5-5.85,4.88-6.33-3.71-5.63-6.83S385.43,169.31,388.59,169.6Z"/><path class="cls-3" d="M318.78,449.91c-.32,2.88-1.86,5.24-5.53,5.15s-6.13-2.1-6.09-5.79c0-3.14,1.66-5.84,5.23-6.23C315.43,442.7,318.72,446.16,318.78,449.91Z"/><path class="cls-3" d="M65,160.73c-3-.35-5.5-1.4-5.62-5-.11-3.18,3.11-6.06,6.63-6.07s5.28,2.1,5.29,5.29C71.29,158.83,68.5,160.26,65,160.73Z"/><path class="cls-3" d="M323.72,293.05c-3.06-.39-5.7-2-5.68-5.79,0-3.15,1.56-5.83,5.16-6.24,3-.34,6.41,3.06,6.48,6.25A5.7,5.7,0,0,1,323.72,293.05Z"/><path class="cls-3" d="M379.21,357.06c-.2,3.15-1.66,5.68-5.29,5.64-3.46,0-6.08-1.83-6.15-5.65-.06-3.25,1.3-5.84,4.94-6.26C375.93,350.42,379.09,353.46,379.21,357.06Z"/><path class="cls-3" d="M180,114.55c-3.38-.31-5.88-1.71-5.63-5.19.29-4,3.25-5.8,6.89-5.86,3.39-.06,5.21,2.34,5,5.55C186.12,112.89,183.33,114.29,180,114.55Z"/><path class="cls-3" d="M214.92,54.52c-.12,2.86-1.73,5.29-5.29,5.27s-6.13-1.92-6.16-5.69c0-3.16,1.29-5.88,5-6.26C211.76,47.51,214.78,50.45,214.92,54.52Z"/><path class="cls-3" d="M83,333.39c-.15,2.88-2,5.27-5.43,5.15s-6.14-2-6-5.88c.09-3.19,1.34-5.9,5.12-6.14C79.93,326.31,82.93,329.35,83,333.39Z"/><path class="cls-3" d="M84.37,44.11c-3.15-.64-5.76-2.07-5.66-6,.09-3.32,1.59-5.77,5.19-6.06,3.21-.26,6.27,3,6.19,6.36S88.17,43.84,84.37,44.11Z"/><path class="cls-3" d="M22.07,79.93c-.23,4.1-2.86,5.61-6.32,5.75-3.19.12-5.78-1.44-5.64-4.9.15-3.91,2.9-5.84,6.67-6C20.34,74.58,21.75,76.81,22.07,79.93Z"/><path class="cls-3" d="M13.2,240.49c-.37,3.7-2.64,5.35-6.25,5.45s-6-1.56-5.74-5.14C1.49,237,4.35,235,8,235,11.12,235.11,13.1,237,13.2,240.49Z"/><path class="cls-3" d="M275.48,68.9c-3.2-.22-5.69-1.19-5.89-4.83-.19-3.26,2.85-6.15,6.44-6.23s5.41,2,5.49,5.14C281.61,66.79,278.91,68.42,275.48,68.9Z"/><path class="cls-3" d="M405.85,325.86c-2.46-.15-4.79-1.42-5-4.94-.16-3.06,3.28-6.11,6.71-6.08s5.12,2.1,5.27,5.35S410.19,325.84,405.85,325.86Z"/><path class="cls-3" d="M380.93,470.76c-.52-1-1.11-2-1.55-3-1.18-2.74-.93-5.32,1.71-7s5-1.63,6.86,1.26c.61,1,1.17,2.06,2.61,1.93C388.51,471.23,388.51,471.23,380.93,470.76Z"/><path class="cls-3" d="M182.37,436.8c-3.57,0-5.9-1.33-6.3-4.74-.35-3,3.08-6.21,6.5-6.31s5.35,1.83,5.46,5.12C188.16,434.78,185.57,436.36,182.37,436.8Z"/><path class="cls-3" d="M7.73,397.9c-2.95-.24-5.28-1.61-5-5.2.33-4.06,3.21-5.75,6.88-5.77,3.46,0,5.19,2.47,5,5.61C14.36,396.3,11.66,397.87,7.73,397.9Z"/><path class="cls-3" d="M302.87,197.3c2.76.08,4.32,1.42,4.3,4.26,0,3-3.95,7-6.8,6.69s-4.7-1.87-4.59-5.1C295.87,200.26,299.48,197.21,302.87,197.3Z"/><path class="cls-3" d="M436.83,290.79a6.37,6.37,0,0,1,7.13-5.74c2.47.38,3.83,1.86,3.69,4.43-.16,3.06-4.31,6.94-7,6.5C437.51,295.49,436.81,293.2,436.83,290.79Z"/><path class="cls-3" d="M24.53,209.85c.38-4,2.74-5.85,6.58-5.9,2.91,0,4.4,1.7,4,4.4a7,7,0,0,1-6.46,6.46C25.52,215.13,24.71,212.51,24.53,209.85Z"/><path class="cls-3" d="M305.87,70.56c0-4.12,2.75-6.7,6.43-6.63,2.82,0,4.66,1.55,4.3,4.26-.46,3.53-2.73,6.2-6.38,6.63C307.08,75.2,306.08,72.74,305.87,70.56Z"/><path class="cls-3" d="M414.44,207.19a5.92,5.92,0,0,1,6.57-5.85c2.46.17,4,1.33,4.1,4,.06,2.95-3.78,7.14-6.6,7C415.33,212.17,414.49,209.94,414.44,207.19Z"/><path class="cls-3" d="M380.39,0c2.74.08,4.41,1.37,4.35,4.23-.06,3.12-4.06,7-6.86,6.73S374,8.67,374,6.12A6.08,6.08,0,0,1,380.39,0Z"/><path class="cls-3" d="M343.33,420.31c.3-4.11,2.43-6.23,6.34-6.34,2.74-.08,4.36,1.29,4.35,4.19,0,3.08-3.86,7-6.73,6.75S343.58,422.61,343.33,420.31Z"/><path class="cls-3" d="M272.89,312.63c2.89-.05,4.29,1.39,4.19,4.24-.1,3-4.19,7.13-6.85,6.71s-3.85-2.43-3.75-5C266.62,314.5,269,312.7,272.89,312.63Z"/><path class="cls-3" d="M31.74,367.42c.24-3.51,2.25-5.57,6.27-5.69,2.87-.1,4.39,1.27,4.49,4s-4.17,7.22-6.79,6.92S31.8,370.52,31.74,367.42Z"/><path class="cls-3" d="M208.86,314.88c-.28,3.16-1.92,4.94-4.83,4.72s-5.87-1.58-5.89-4.88c0-3,2.21-5.09,5.39-5.12C207,309.58,208.26,312.08,208.86,314.88Z"/><path class="cls-3" d="M135.19,248.45c3.19.52,4.92,2.49,4.95,5.73,0,2.74-1.62,4.51-4.32,4.42-2.93-.1-6-1.33-6.11-4.62C129.58,250.92,131.9,249,135.19,248.45Z"/><path class="cls-3" d="M172.91,293.22c-2.78-.53-5.85-1.61-5.59-5a5.39,5.39,0,0,1,5.84-5.09c2.88.25,4.63,2.51,4.68,5.58S176,293.13,172.91,293.22Z"/><path class="cls-3" d="M113.21,64.35a5.45,5.45,0,0,1,5,5.29c.23,3-1.37,5-4.31,4.91s-6-1.22-6.11-4.61C107.63,66.78,110,65,113.21,64.35Z"/><path class="cls-3" d="M223.79,251.8a17.8,17.8,0,0,0-2.58,1.3c-2.75,2-5.25,2-7.21-1s-.92-5.56,1.63-7.33c2.81-2,5.29-1,7.08,1.9.52.82,1.2,1.53,1.8,2.3Z"/><path class="cls-3" d="M372.46,325.69a27,27,0,0,0-2.5,1.44c-2.62,1.89-5.31,2.43-7.2-.67-1.64-2.7-2-5.71,1.36-7.68s5.6-.25,7.32,2.59c.51.82.86,1.74,1.29,2.61Z"/><path class="cls-3" d="M425.93,166.59c-.12,3.58-1.71,5.35-4.68,5.13s-5.95-1.57-5.88-4.86a5.22,5.22,0,0,1,5.23-5.11C424.12,161.63,425.36,164.13,425.93,166.59Z"/><path class="cls-3" d="M318.13,361.9c-3-.59-6.14-1.67-6-4.92a5.26,5.26,0,0,1,5.66-5.19c3.18.14,4.71,2.44,4.9,5.32S321,361.6,318.13,361.9Z"/><path class="cls-3" d="M369.81,65.78c-1-.46-2.06-.89-3.08-1.37-2.57-1.19-4.84-2.76-3.45-6s4.13-4.48,7.31-3.22,3.7,3.9,2.18,6.93c-.43.88-.75,1.8-1.13,2.71Z"/><path class="cls-3" d="M276.64,468c-2.69-.38-5.64-1.57-5.61-4.75a5.33,5.33,0,0,1,5.5-5.27c3.34,0,5,2.51,5.09,5.54S279.91,467.93,276.64,468Z"/><path class="cls-3" d="M214.73,20.83c-.37,3.11-1.72,5.1-4.7,5s-5.92-1.47-6.05-4.62c-.11-2.91,2.08-5.21,5.33-5.38C212.87,15.62,213.81,18.41,214.73,20.83Z"/><path class="cls-3" d="M460.08,243.49c-.05,3.32-1.49,5.28-4.49,5.11s-5.92-1.31-6-4.71a5.15,5.15,0,0,1,5-5.26C458.12,238.36,459.5,240.79,460.08,243.49Z"/><path class="cls-3" d="M281.87,192.87c-1,.15-2,.26-2.92.46-3.27.65-5.66-.26-6.16-3.83-.47-3.36,1.32-5.74,4.47-6.1s5.31,1.53,5.52,5c.07,1.16,0,2.32,0,3.48Z"/><path class="cls-3" d="M444.6,126.83c-1.36.12-1.68,1.53-2.62,2.14-2.48,1.6-5.17,1.88-7.16-.53s-1.57-5.16.68-7.16,4.88-1.76,7,.73c.84,1,1.67,2,2.5,3Z"/><path class="cls-3" d="M335.47,469.89l1.84.9A1.25,1.25,0,0,1,335.47,469.89Z"/><path class="cls-3" d="M378.43,471h0Z"/><path class="cls-3" d="M159,172.33c.19,2.59-1.52,3.9-4.88,3.66-3-.21-5.26-1.24-5.25-4.63s1.82-6.07,5.22-6.11C157.64,165.2,158.94,168.07,159,172.33Z"/><path class="cls-3" d="M179.72,152c.3-3.2,1.68-5.82,5.21-6,3-.11,4.86,1.95,5,5a5.09,5.09,0,0,1-5,5.66C182,157,179.91,155.45,179.72,152Z"/><path class="cls-3" d="M149.08,153.92c-3.11-.37-4.89-2.34-4.83-5.25s1.54-5.52,4.74-5.26,5.8,2.31,5.59,5.81C154.4,152.15,152.16,153.75,149.08,153.92Z"/><path class="cls-3" d="M168.93,144c-3.12.09-4.89-1.75-4.79-4.5.1-2.95,1.63-5.48,5.15-5.54a4.67,4.67,0,0,1,5.08,4.94C174.36,142,172.33,144,168.93,144Z"/><path class="cls-3" d="M165,158.92c-3.06,0-5.13-1.13-5.09-4,0-3.09,2.2-4.77,5.16-5,2.71-.23,4.58,1.18,4.64,4C169.8,157.19,167.6,158.52,165,158.92Z"/><path class="cls-3" d="M178,169.79c.15,2.84-1.42,4.66-4,4.66-2.77,0-5.09-1.53-5.17-4.79-.07-2.86,1.27-4.8,4.32-4.83C176.36,164.8,177.83,166.71,178,169.79Z"/><path class="cls-3" d="M164.59,188c-2.7-.16-4.39-1.19-4.28-3.28.16-2.94,1.24-5.6,4.92-5.76,2.46-.11,3.79,1.06,3.71,3.56C168.83,185.71,166.53,187,164.59,188Z"/><path class="cls-3" d="M192.67,174.09c-.21,2.18-1.37,3.74-3.69,3.73s-4.83-.85-5.06-3.66,1.76-4.41,4.23-4.59C190.91,169.36,192,171.61,192.67,174.09Z"/><path class="cls-3" d="M391.74,257.75c-.12,3.64-1.33,5.37-4.85,5.29-3.31-.08-5.82-1.2-5.8-4.61,0-3.16,2-6,5.32-6.18C390,252.11,391.34,255,391.74,257.75Z"/><path class="cls-3" d="M417.43,233c2.9.83,5.52,2.08,5.26,5.63-.24,3.27-2.33,5.13-5.59,5.22s-5.1-2.09-4.88-5S414,233.45,417.43,233Z"/><path class="cls-3" d="M382.07,240.92c-3.47-.14-5.42-1.64-5.24-4.9.15-2.86,1.3-5.16,4.74-5.22,3.61-.06,5.09,2.2,5.24,5.3C387,239.37,384.85,240.77,382.07,240.92Z"/><path class="cls-3" d="M401.76,231c-2.88-.11-4.93-1.27-4.94-4.38,0-3.28,1.8-5.49,5.09-5.56,3.11-.08,4.84,2,4.86,5.11S404.89,231,401.76,231Z"/><path class="cls-3" d="M406,251.79c3.31.17,4.75,2.31,4.68,5.26s-1.76,4.85-4.77,4.54-5-2.29-4.83-5.35C401.21,253.56,402.75,251.55,406,251.79Z"/><path class="cls-3" d="M396.66,245.93c-3,0-4.2-1.61-4-4.44.25-3.35,2.55-4.43,5.46-4.58,3.13-.17,4.2,2.1,4,4.53C402,244.51,399.82,246.05,396.66,245.93Z"/><path class="cls-3" d="M401.82,269.85a6.22,6.22,0,0,1-5.53,5.37c-2.23.24-3.54-1.52-3.48-3.9.08-3.27,2.25-4.76,5.05-5.16C400.22,265.82,401.43,267.41,401.82,269.85Z"/><path class="cls-3" d="M424.86,261c0,2.6-1.1,4-3.58,4s-4.78-1.44-5-3.87c-.18-2.24,1.85-4,4.16-4.13C423.24,256.69,424.55,258.55,424.86,261Z"/><path class="cls-3" d="M148.83,83c-3.5-.08-5-1.89-5-5.06,0-3.44,1.94-5.62,5.09-5.54a5.86,5.86,0,0,1,5.66,6C154.67,82,151.67,82.79,148.83,83Z"/><path class="cls-3" d="M167.47,40.84c2.8,0,4.26,2.13,4.25,5.07,0,3.16-1.79,5.7-5.12,5.55-3.18-.13-5-2.36-4.82-5.79S163.66,40.87,167.47,40.84Z"/><path class="cls-3" d="M134.12,55.85c3,.23,5.35,1.71,5.39,4.71,0,3.17-2.27,5.24-5.49,5.25-3.51,0-5-2.63-4.9-5.66C129.2,57.38,131,55.6,134.12,55.85Z"/><path class="cls-3" d="M147.56,37.81c2.64.13,4.3,1.77,4.38,5,.08,3.36-2,4.94-4.92,5-3.12.09-5-2.06-5-5S143.69,37.8,147.56,37.81Z"/><path class="cls-3" d="M145.83,58.73c.51-3.09,2.09-5.48,5.37-5.5A4.21,4.21,0,0,1,155.35,58c-.17,3.17-2.28,5-5.67,5C146.87,63,146,61.15,145.83,58.73Z"/><path class="cls-3" d="M169.92,66.45c.13,3.81-.93,5.47-3.91,5.53-3.42.08-5.21-1.5-5.29-5-.07-2.86,1.27-4.24,4.15-4.21C168,62.83,169.72,64.39,169.92,66.45Z"/><path class="cls-3" d="M168.82,83.17c-1,2.53-1.35,5.72-4.85,5.49-2.42-.16-3.75-2.45-3.7-4.65,0-2.68,1.65-4.84,4.58-5C167.54,78.87,168.45,80.89,168.82,83.17Z"/><path class="cls-3" d="M180.31,59.87c2.54.13,4.39,1.39,4.43,4.13,0,2.56-1.79,3.75-4.2,3.9s-4.48-.83-4.45-3.44C176.12,62.11,177.18,59.93,180.31,59.87Z"/><path class="cls-3" d="M330.7,395.91c3.18.2,4.91,1.95,5.1,5,.23,3.8-2.33,5.53-5.54,5.56-2.75,0-5.28-1.59-5.24-4.81C325.06,398.18,327.43,396.46,330.7,395.91Z"/><path class="cls-3" d="M294.41,392.68c3.25,0,5.41,1.33,5.3,4.65s-2.33,6-5.4,6.15-5-2.86-5.25-5.76C288.75,394.2,291.41,393,294.41,392.68Z"/><path class="cls-3" d="M309,377.9c.27,2.58-1.46,4.58-4.49,4.62s-5.62-1.63-5.53-5a5.34,5.34,0,0,1,5.4-5.42C307.72,371.86,308.86,374.18,309,377.9Z"/><path class="cls-3" d="M330.8,383.26c-.14,2-1.78,3.65-5,3.61-3.44,0-5.17-1.91-5.07-5.3s2.47-4.68,5.3-4.59S331,378.72,330.8,383.26Z"/><path class="cls-3" d="M310.78,403.73c3.47-.34,4.43,2.21,4.54,4.66.12,2.85-1.5,5.21-4.66,5.25s-4.74-2.08-4.83-5.11C305.74,405.25,307.77,403.91,310.78,403.73Z"/><path class="cls-3" d="M313,386.79c2.92.18,5,1.46,4.84,4.82a4,4,0,0,1-4.47,4.22c-3-.07-5.18-1.79-5.39-4.75S310,386.87,313,386.79Z"/><path class="cls-3" d="M294.85,417.91c-2.44.2-4.69-.32-4.6-3.13a4.72,4.72,0,0,1,4.88-4.68c2.39-.05,4.65,1,4.73,4C300,417.58,297.48,418,294.85,417.91Z"/><path class="cls-3" d="M323.82,421.1c-.15,2.88-1.73,4.44-4.06,4.31-2.94-.17-4-2.53-4-5.24s2-3.27,4-3.27C322.59,416.91,323.74,418.74,323.82,421.1Z"/><path class="cls-3" d="M236.9,363.1c-.25,3.7-3.3,4.3-6,4.57-3.38.33-4.76-2.32-4.82-5.14s1.42-5.44,4.61-5.53C234.45,356.9,236.23,359.49,236.9,363.1Z"/><path class="cls-3" d="M248.87,336c-3.85-.19-5-2.67-4.93-5.76.07-3.48,2.51-5.16,5.62-5s4.57,2.26,4.41,5.5C253.8,334.1,252.18,335.89,248.87,336Z"/><path class="cls-3" d="M211.71,345.09c-.16-3.14,1.64-4.93,4.43-4.92,3,0,5.57,1.58,5.61,5.1s-2.44,5.24-5.47,5.27C213.08,350.58,211.84,348.08,211.71,345.09Z"/><path class="cls-3" d="M234.67,327.35c-.52,3.59-2.9,5.2-5.89,5.1-3.21-.11-4.39-2.83-4.25-5.66a4.57,4.57,0,0,1,5.29-4.66C232.78,322.4,234.35,324.57,234.67,327.35Z"/><path class="cls-3" d="M249,356.8c-4.64.09-5.94-2.17-6.09-5.36-.15-3,1.88-4.29,4.38-4.4,3.34-.13,5.27,1.95,5.47,5.19A4.06,4.06,0,0,1,249,356.8Z"/><path class="cls-3" d="M232.18,347.78c-2.67-.64-4.5-2.14-4-4.85s1.91-5.22,5.2-5a4.36,4.36,0,0,1,4.34,5.05C237.38,346.15,234.81,347.15,232.18,347.78Z"/><path class="cls-3" d="M250.82,368.1c-.62,2.23-1.11,5.18-4.1,5.2s-4.09-2.47-3.9-5.22c.2-2.94,2-4.41,4.94-4.31C250.39,363.87,250.83,365.78,250.82,368.1Z"/><path class="cls-3" d="M258.64,349.2c.28-3.18,1.3-5.15,3.91-5s4.45,1.48,4.35,4.39-1.86,4.24-4.54,4.07C260,352.48,258.28,351.25,258.64,349.2Z"/><path class="cls-3" d="M155.9,397.2c-.15,4-1.6,5.9-5,5.55-3-.32-5.7-1.44-5.42-5.09.23-3.05,1.95-5.62,5.19-5.66C154.32,392,155.64,394.71,155.9,397.2Z"/><path class="cls-3" d="M176.81,377.7c.38-2,1-4.89,4.75-4.84,3.32,0,5.27,1.92,5.25,5.27,0,3.7-2.56,5.42-5.79,5.39C178.28,383.49,176.52,381.63,176.81,377.7Z"/><path class="cls-3" d="M145.06,369.94c4.05.49,6.24,2.52,6.31,5.82s-2.54,4.67-5.36,4.62-5.19-1.63-5-4.89A5.93,5.93,0,0,1,145.06,369.94Z"/><path class="cls-3" d="M171,365.79c-.08,3.24-1.67,5-4.92,5s-5.11-1.79-5-5,1.91-4.93,5.09-5S170.89,362.63,171,365.79Z"/><path class="cls-3" d="M170.43,401c-3.38-.45-5.2-2.41-5.11-5.29a4.55,4.55,0,0,1,4.85-4.6c2.93.16,4.66,2.3,4.67,5.33S173,400.75,170.43,401Z"/><path class="cls-3" d="M166.79,380.91c-.58,3.26-2.89,4.68-5.94,4.73-2.46,0-4-1.51-4-4.06-.07-3.63,2.44-5,5.44-5.12C164.82,376.38,166.41,378.16,166.79,380.91Z"/><path class="cls-3" d="M161.46,414.81c-2.82-.09-4.29-1.39-4.43-3.62-.2-3.12,1.55-5,4.64-5.33,2.19-.27,4,.28,4.19,2.95C166.05,412.24,163.73,413.69,161.46,414.81Z"/><path class="cls-3" d="M189.51,400.93c-.6,2.1-1.45,4-3.93,3.73s-5-1.23-4.79-4.49a4.07,4.07,0,0,1,4.65-4.05C188.09,396.29,189,398.62,189.51,400.93Z"/><path class="cls-3" d="M306.11,105.85c3.45.16,4.95,2,4.8,5.18s-1.84,5.8-5,5.62c-2.91-.15-5.14-2.25-5.16-5.7C300.69,107.21,303.23,106.29,306.11,105.85Z"/><path class="cls-3" d="M347.71,114.33c-.44,3.16-2.21,5.2-5.42,5.45s-5.16-1.45-5.4-4.55c-.3-3.78,2.52-5.43,5.55-5.81S347,111.47,347.71,114.33Z"/><path class="cls-3" d="M310.74,89.91A4.81,4.81,0,0,1,316,85.44c3.11.11,4.95,2.3,4.83,5.7s-2.31,4.75-5.18,4.65S310.66,94.11,310.74,89.91Z"/><path class="cls-3" d="M342.74,95.25c-.55,3-2.05,5.37-5.15,5.18S332,98.31,332.15,95a4.9,4.9,0,0,1,5.41-4.79A5.08,5.08,0,0,1,342.74,95.25Z"/><path class="cls-3" d="M326.85,121.72c-.3,3.06-1.78,5.12-5,5.1-3.44,0-4.55-2.82-4.55-5.47,0-2.81,2.23-4.35,5-4.41C325.47,116.87,326.64,118.91,326.85,121.72Z"/><path class="cls-3" d="M324.73,109.05c-3.06-.19-5-1.63-5-4.89.06-2.92,2.25-4.13,4.7-4s5.12,1.39,5.09,4.41C329.53,107.34,327.92,109.24,324.73,109.05Z"/><path class="cls-3" d="M306.87,123.77c2.49.21,4.89,1,4.7,3.87s-2.9,3.84-5.39,4.09-4.29-1.1-4.25-3.67C302,125.08,304,123.85,306.87,123.77Z"/><path class="cls-3" d="M331,130c2.94.41,4.68,1.9,4.5,4.58-.15,2.19-1.21,4.41-3.93,4.16a4.87,4.87,0,0,1-4.62-4.92C326.79,131,329.29,130.7,331,130Z"/><path class="cls-3" d="M10.79,318.58c-2.33-1.31-4.92-2.85-4.88-6.35,0-3.67,2.92-4.78,5.75-4.91a4.64,4.64,0,0,1,5.06,4.43C17,314.49,13.65,318.53,10.79,318.58Z"/><path class="cls-3" d="M47.54,321c-3,0-5.47-.95-5.48-4.3s2.3-5.53,5.66-5.69c3.11-.15,4.89,2,5.08,4.93C53,319.5,50.89,321,47.54,321Z"/><path class="cls-3" d="M25.9,292.16c.36,3.32-1.4,5.31-4.41,5.35s-5.47-1.65-5.57-5.06,2.34-5.22,5.33-5.31S26.18,288.84,25.9,292.16Z"/><path class="cls-3" d="M42.94,301.92c-3-.39-5.57-1.83-5.57-5.13,0-3,2.43-4.77,5.34-4.84s5.26,1.38,5.12,4.75C47.71,299.59,46.42,301.8,42.94,301.92Z"/><path class="cls-3" d="M32,323.19c.12,3.5-1.65,5.49-4.7,5.35-2.75-.13-4.37-2.3-4.43-5.12-.06-3.28,2.22-5,5-5.07S32.15,320.46,32,323.19Z"/><path class="cls-3" d="M34.92,306.59c-.34,2.89-2,4.44-5,4.23s-5.08-2-5-5.07,2.43-4.05,5.24-3.91S34.76,303.53,34.92,306.59Z"/><path class="cls-3" d="M6.92,332.79c.19-6,2.9-9,6.88-7.44,1.78.68,3.25,1.69,3.14,4s-1.66,3.24-3.57,3.45a60.09,60.09,0,0,1-6.44.05Z"/><path class="cls-3" d="M36.82,331.81c2.6.31,4.2,1.78,3.92,4.58-.24,2.38-1.67,4.29-4.2,4-2.91-.34-4.12-2.94-4.17-5.46S34.52,331.89,36.82,331.81Z"/><path class="cls-3" d="M430.41,444.73c-.37,3.38-1.47,5.58-5.3,5.2-3.25-.33-5.55-1.5-5.27-5.11.26-3.35,2.19-5.76,5.68-5.68S430.06,441.94,430.41,444.73Z"/><path class="cls-3" d="M461.61,425.09c-.51,3.51-2.52,5.42-5.91,5.68-3.13.25-4.69-1.86-4.76-4.53-.09-3.17,1.32-6.07,5-6.23C459.11,419.87,460.9,422.09,461.61,425.09Z"/><path class="cls-3" d="M440.18,417.92c-3,.17-4.58-1.3-4.55-4.69,0-3.58,2-5.25,5.2-5.23a4.62,4.62,0,0,1,4.77,4.72C445.7,415.94,444,418,440.18,417.92Z"/><path class="cls-3" d="M415.64,422.92c.09-3,1.34-5,4.64-5.2,3.51-.18,5.31,1.88,5.35,5s-2.11,4.79-5.06,5C417.37,428,415.8,426.06,415.64,422.92Z"/><path class="cls-3" d="M436.23,432.85c-3.08,0-5.4-1-5.25-4.12s2.22-4.73,5.22-4.91c2.73-.15,4.43,1.28,4.58,4.05C441,431.14,439.08,432.64,436.23,432.85Z"/><path class="cls-3" d="M444.67,448.54c-2.43-.72-4.87-1.72-4.79-4.76.07-2.58,1-5,4.28-5.06s5,2.12,5.21,4.91S447.54,448.05,444.67,448.54Z"/><path class="cls-3" d="M431.71,458c-.16-3.4,1.94-4.8,4.87-5,2.26-.19,4.12,1.12,3.9,3.45-.28,3-2,5.33-5.36,5.45C432.58,462,431.65,460.36,431.71,458Z"/><path class="cls-3" d="M458.75,443.7c3,0,4.63,1.38,4.89,3.82a3.55,3.55,0,0,1-3.81,4.22c-2.25,0-4.63-.88-4.82-3.39A4.2,4.2,0,0,1,458.75,443.7Z"/><path class="cls-3" d="M10.82,32c0-3.63,2.42-4.84,5.47-5s5.1,1.43,5.34,4.57c.21,2.72-3.48,6.54-5.85,6.39S10.85,34.7,10.82,32Z"/><path class="cls-3" d="M52.89,15.92c-.1,3.5-2.06,5.45-4.88,5.54a5.35,5.35,0,0,1-5.77-5c-.13-3.23,2.58-5.09,5.52-5.23S52.32,13.35,52.89,15.92Z"/><path class="cls-3" d="M51.42,30.89c4.83-.23,6.29,2,6.31,4.88,0,3.08-2.09,4.92-5.1,5.06-3.29.14-5.62-1.73-5.6-5A4.92,4.92,0,0,1,51.42,30.89Z"/><path class="cls-3" d="M26.16,6.8c3.23.2,4.87,1.92,4.7,5.14s-2,5.09-5.1,4.87a4.94,4.94,0,0,1-4.85-5.31C20.93,8.23,23.05,6.87,26.16,6.8Z"/><path class="cls-3" d="M37,42.93c-.1,3-1.5,5-4.78,5-3.06-.06-4.35-2-4.39-4.9,0-3.17,1.56-5,4.79-5S36.82,40,37,42.93Z"/><path class="cls-3" d="M34.88,21c2.73.69,5,2,4.87,5.24A4.38,4.38,0,0,1,35,30.44c-2.81-.07-5.09-1.69-5.17-5S32.21,21.49,34.88,21Z"/><path class="cls-3" d="M21.9,48.69c-.41,3.62-3.39,3.76-5.89,4C13.8,53,12,51.6,12.11,49.26c.17-2.73,1.77-4.58,4.87-4.46C19.57,44.89,21.39,45.93,21.9,48.69Z"/><path class="cls-3" d="M41.57,51c2.87.32,4.29,1.89,4.19,4.66-.08,2.52-1.5,4.23-4,4.15-3-.1-4.35-2.51-4.57-5.09C36.93,51.8,39.63,51.65,41.57,51Z"/><path class="cls-3" d="M80,229.38c.14,4.54-3,5.06-5.68,5.31-3.35.3-4.44-2.09-4.58-5.13-.16-3.47,1.57-5.54,4.85-5.52C78.07,224.06,79.63,226.61,80,229.38Z"/><path class="cls-3" d="M87.7,197.14c-.3-2.83,1.38-4.86,4.46-5,3.24-.11,5.55,2,5.44,5.25-.1,3-1.75,5.53-5.31,5.48C89,202.84,87.68,200.72,87.7,197.14Z"/><path class="cls-3" d="M67.79,194.77C68,191.2,69.62,189,73,189.06c3.08,0,4.77,2.07,4.87,5.12.11,3.5-2.3,5.15-5.25,5.39C69.33,199.83,68.19,197.31,67.79,194.77Z"/><path class="cls-3" d="M65,212.55a4.9,4.9,0,0,1-5.38,4.89,4.72,4.72,0,0,1-4.7-5.32c.15-2.84,1.85-5,4.56-4.9S65,208.43,65,212.55Z"/><path class="cls-3" d="M90.61,214c3,.21,4.93,1.73,5.25,4.86s-1.67,4.66-4.41,4.91c-3.62.33-5.12-2.31-5.32-5.29C86,215.77,87.9,214.31,90.61,214Z"/><path class="cls-3" d="M75.68,214.83c-2.71-.57-4.06-2.06-3.89-4.58C72,207,73.68,204.84,77.1,205c2.48.11,3.82,1.87,3.81,4.37C80.89,212.93,78.22,213.92,75.68,214.83Z"/><path class="cls-3" d="M94,235.29c-.11,2-.58,4.79-3.61,4.92-2.71.13-4.44-2-4.42-4.86,0-2.71,1.62-4.26,4.22-4.54S94,232.11,94,235.29Z"/><path class="cls-3" d="M106,219.79c-2.32-.28-4.2-1.22-4.07-3.93.11-2.21.86-4.6,3.44-4.67s5,1.39,5.19,4.26S108.58,219.37,106,219.79Z"/><path class="cls-3" d="M306.76,263.89c-2.78-.61-5.21-1.61-4.92-5.08.32-3.69,2.74-5.06,6.15-5s4.84,2.38,4.61,5.23C312.36,262.21,310,263.83,306.76,263.89Z"/><path class="cls-3" d="M276,254.3c-.21,3.65-1.7,6.38-5.13,6.41-3.07,0-4.94-2.35-5.13-5.56-.22-3.62,2.11-5,5.2-5.22S275.73,251.48,276,254.3Z"/><path class="cls-3" d="M307.69,239.16c-.37,2.88-1.76,5.21-4.79,5.31s-5.6-1.5-5.82-4.82,2.29-5.12,5.28-5.34S307,236.25,307.69,239.16Z"/><path class="cls-3" d="M275.71,235.25c.07-3.53,1.67-5.27,4.85-5.44,3.52-.18,5.17,1.68,5.24,5.09s-2,4.88-5,4.87S275.83,238.19,275.71,235.25Z"/><path class="cls-3" d="M291.84,266c-.16,3.07-1.68,4.85-4.93,4.87-3.53,0-4.69-2.66-4.6-5.26a4.72,4.72,0,0,1,5.3-4.72C290.72,261.07,291.75,263.17,291.84,266Z"/><path class="cls-3" d="M294.75,248.6c-.22,3-2.14,4.78-4.76,4.8a4.88,4.88,0,0,1-5.25-4.84c-.2-2.95,1.88-4.28,4.31-4.38A5.31,5.31,0,0,1,294.75,248.6Z"/><path class="cls-3" d="M271.47,275.83c-2.62-.09-4.56-1.09-4.54-3.73,0-3,2.07-4.36,5-4.31,2.62,0,4.79,1.14,4.75,4C276.62,275,273.82,275.4,271.47,275.83Z"/><path class="cls-3" d="M300.65,278.6c-.63,2-1.25,4.28-4,4.18-2.94-.12-4.49-2-4.68-4.82s2.13-3.69,4.27-3.8C298.94,274,300.3,275.9,300.65,278.6Z"/><path class="cls-3" d="M369.94,193.84c3.25,0,4.84,1.76,4.9,4.9.06,3.43-1.73,5.18-5.17,5.17s-5.51-2-5.42-5.12S366.56,193.81,369.94,193.84Z"/><path class="cls-3" d="M337.92,186c-.3,3.28-1.81,5.94-5.29,5.89-2.86-.05-4.73-2.34-4.87-5.29-.18-3.79,2.56-5.36,5.69-5.41C336.09,181.09,338.08,182.77,337.92,186Z"/><path class="cls-3" d="M346,168.36c-.15,3-1.84,4.82-5.07,4.5-3-.29-5.09-2.18-4.87-5.22s2.34-4.75,5.41-4.75C344.83,162.89,346,165.1,346,168.36Z"/><path class="cls-3" d="M358.93,212c-.12,3.09-1.54,5.07-4.8,5-3-.08-5.16-1.71-5.24-4.81-.08-3.51,2.62-5,5.55-5C357.08,207.12,359.05,208.81,358.93,212Z"/><path class="cls-3" d="M355.82,197.05c-.57,2.74-1.63,5.13-5.11,4.8a4.7,4.7,0,0,1-4.46-5.1,4.75,4.75,0,0,1,5.28-4.82C354.69,192,355.74,194.12,355.82,197.05Z"/><path class="cls-3" d="M350.11,186c-4.68-.17-6.76-2.13-6.76-4.95s2.29-4.35,5.2-4.14,4.93,1.79,4.95,4.6S351.73,186.11,350.11,186Z"/><path class="cls-3" d="M332.57,206.9c-2.46.07-4.6-.88-4.5-3.44.1-2.71,2.12-4.43,4.95-4.54,2.64-.1,4.68,1.18,4.68,4C337.71,206,335.29,206.83,332.57,206.9Z"/><path class="cls-3" d="M128.37,288.79c-2-.3-4.93-1.94-5-5.11a5.69,5.69,0,0,1,6-5.5c3.45,0,5.35,2.6,5.24,5.95C134.52,287,133,289.11,128.37,288.79Z"/><path class="cls-3" d="M120.8,326.93c-3.64-.19-5.1-2.22-5-5.57.11-3.08,1.62-5.4,4.79-5.19,3.32.23,5.4,2.38,5.29,6C125.8,325.57,123.78,326.81,120.8,326.93Z"/><path class="cls-3" d="M110.93,307.8c.1,3.12-1.85,4.82-4.5,4.82-3,0-5.61-1.59-5.49-5.06.1-2.87,1.89-5.3,4.88-5.26S110.86,304.45,110.93,307.8Z"/><path class="cls-3" d="M148,294.94c-2.94-.33-4.69-2.13-4.45-5.17.22-2.87,1.78-5.06,5.06-4.86s5.07,2.61,5.05,5.6C153.59,293.68,151.1,294.83,148,294.94Z"/><path class="cls-3" d="M121.12,298c2.84.72,4.69,2.46,4.68,5.51,0,3.23-2.49,4.22-5.11,4.24-2.87,0-4.64-1.79-4.79-4.69C115.72,299.54,118.32,298.67,121.12,298Z"/><path class="cls-3" d="M140.34,298.29c-.39,2.77-1.21,5.4-4.57,5.41a4.32,4.32,0,0,1-4.6-4.26c0-2.95,1.51-5.45,5-5.64C139.24,293.63,139.94,295.86,140.34,298.29Z"/><path class="cls-3" d="M112,280.81c2.7.3,4.55,1.76,4.8,4.6.22,2.56-1,4.87-3.62,5-3,.19-4.11-2.23-4.3-5C108.69,283.22,108.9,281.12,112,280.81Z"/><path class="cls-3" d="M69.87,377.25c-.9,2.85-2,6.21-5.45,6a5.75,5.75,0,0,1-5.32-6.18c.17-3.2,2.63-5.07,5.76-5S69.52,374.13,69.87,377.25Z"/><path class="cls-3" d="M103.35,379.9c2.75.93,4.68,2.58,4.46,5.71-.23,3.46-2.69,5-5.73,4.9a4.87,4.87,0,0,1-5-5.16C97.22,381.68,100.37,380.79,103.35,379.9Z"/><path class="cls-3" d="M88.76,405.57c-2.73-.84-5.1-2-5-5.31a4.79,4.79,0,0,1,5.13-4.95,4.71,4.71,0,0,1,5,5.11C93.75,403.6,91.57,405,88.76,405.57Z"/><path class="cls-3" d="M70.83,363c-3.1-.09-5-1.52-5.11-4.78-.12-3.57,2.07-5.24,5.25-5.2s4.61,2.7,4.63,5.45S74,363.12,70.83,363Z"/><path class="cls-3" d="M88.83,385.63c-.47,2.86-2,5-5.07,5A4.6,4.6,0,0,1,79,385.88c0-3,2-4.84,5-5.07C87.34,380.56,88.15,383,88.83,385.63Z"/><path class="cls-3" d="M84,370.77c.07,2.92-1.39,4.26-4.28,4.17s-5.48-1.35-5.53-4.5c-.05-3,2.57-4.33,5.16-4.32S84.14,367.52,84,370.77Z"/><path class="cls-3" d="M66.09,397.86c-2.5.16-4.33-.61-4.22-3.46s1.75-4.61,4.68-4.54c2.38.06,5,.82,5,3.62C71.58,396.71,69,397.68,66.09,397.86Z"/><path class="cls-3" d="M329.78,333c.35-2.32,1-4.87,4.4-5.11,2.8-.2,6.68,3.51,6.4,6.34-.32,3.25-3,4.16-5.65,4.46C332,339,329.8,336.61,329.78,333Z"/><path class="cls-3" d="M361.16,309c-4.4.12-6.13-1.84-6-4.83s1.06-5.48,5-5.47c3.24,0,5.33,1.47,5.37,4.48C365.51,306.36,363.78,308.8,361.16,309Z"/><path class="cls-3" d="M325.91,318.57c.15,3.36-1.91,5-4.78,5.13-3.3.15-5.11-2.06-5.25-5.25-.13-2.95,1.58-4.58,4.53-4.68C323.69,313.66,325.75,315.07,325.91,318.57Z"/><path class="cls-3" d="M353,325c-4.67-.27-6.17-2-6.21-5.17,0-2.93,1.41-4.24,4.26-4.12,3.2.12,5.63,1.48,5.48,4.95C356.36,323.48,354.57,325.18,353,325Z"/><path class="cls-3" d="M331.66,317.3c.12-2.63,1.68-5,4.85-5.18a3.88,3.88,0,0,1,4.3,4.32c-.14,3.28-2.14,5.07-5.29,5.36C332.81,322.05,331.7,320.4,331.66,317.3Z"/><path class="cls-3" d="M354.61,338.77c-.86,2.4-1,5.72-4.34,5.76-2.91,0-4.28-2.68-4.18-5.17a4.64,4.64,0,0,1,4.93-4.49C353.38,334.86,354.38,336.55,354.61,338.77Z"/><path class="cls-3" d="M227.79,84.86c-.48,3.41-2.32,5.78-5.65,6-3.54.26-4.86-2.71-5.15-5.54-.38-3.57,2.46-5.07,5.37-5.15A5.1,5.1,0,0,1,227.79,84.86Z"/><path class="cls-3" d="M261.92,102.88c-.05,3.74-2.2,5.54-5.28,5.62a5,5,0,0,1-5.43-5.23c-.07-3.56,2.74-4.75,5.66-5C260.17,97.93,261.48,100.2,261.92,102.88Z"/><path class="cls-3" d="M233.39,63.08c3.19.62,5.2,2.39,5.13,5.38-.07,3.19-2.13,5.36-5.42,5.19a5.07,5.07,0,0,1-5-5.24C228.1,65.12,230.56,63.63,233.39,63.08Z"/><path class="cls-3" d="M244.56,114.07c-.81,2.79-2.17,5.06-5.36,4.88s-5.31-2.19-5.19-5.38,2.8-4.4,5.54-4.52C242.78,108.9,243.92,111.38,244.56,114.07Z"/><path class="cls-3" d="M238.65,93.84c3.2-.3,4.77,1.64,4.86,4.33a5,5,0,0,1-5.13,5.46c-2.85.06-4.36-2-4.5-4.84C233.71,95.48,235.63,94.09,238.65,93.84Z"/><path class="cls-3" d="M243.53,83c-.59,2.48-1.79,4.8-4.76,4.72a5.42,5.42,0,0,1-5.26-5.1c-.34-2.77,1.83-4.33,4.37-4.29C240.67,78.39,243,79.64,243.53,83Z"/><path class="cls-3" d="M219.85,105.89c-2.3-.52-5.18-.77-4.9-4.21.22-2.75,2.29-3.86,5-3.81s4.7,1.26,4.77,4S222.66,105.8,219.85,105.89Z"/><path class="cls-3" d="M384.84,41.71c-.2,4.17-2.6,5.88-5.79,6A4.6,4.6,0,0,1,374,42.84c.06-3.42,2.56-5.46,5.75-5.67S384.11,39.48,384.84,41.71Z"/><path class="cls-3" d="M345.74,41.58c-.76,2.34-1.46,5.6-5.07,5.21-3.09-.33-5.76-2.53-5.53-5.9.21-3.09,2.68-5,5.9-4.84C344,36.21,346,37.82,345.74,41.58Z"/><path class="cls-3" d="M343.49,26.05c-3-.1-5.46-1.45-5.44-4.58s1.8-5.42,5.26-5.49c3.74-.08,4.87,2.84,5,5.67S346.6,26.2,343.49,26.05Z"/><path class="cls-3" d="M361.43,51.05c-3.51-.38-5.28-2.49-5.17-5.3A4.58,4.58,0,0,1,361.05,41c3.15.12,4.69,2.23,4.72,5.29S363.93,50.68,361.43,51.05Z"/><path class="cls-3" d="M355.11,27.81c2.31-.09,3.92,1.26,3.77,4.45s-2.2,4.55-4.89,4.35c-2.51-.18-5-1.49-5.07-4.49C348.89,28.73,351.39,27.8,355.11,27.81Z"/><path class="cls-3" d="M350.59,56.38c-.47,3.68-3.25,4.54-6,5-2.46.45-3.73-1.24-3.69-3.48.07-3.07,1.87-5,5-4.89C348.08,53.11,350.09,53.93,350.59,56.38Z"/><path class="cls-3" d="M186.59,264.92c-3.55-.14-5.23-2.26-5.29-5.1-.07-3,1.57-5.77,5-5.67,3.7.11,5.57,2.79,5.6,6.36S188.94,264.4,186.59,264.92Z"/><path class="cls-3" d="M206.79,228.35c.12-1.85,1.63-3.6,4.94-3.59,3.68,0,5.13,2.33,5,5.47-.16,2.87-2,5.31-5,5.15S206.59,233.09,206.79,228.35Z"/><path class="cls-3" d="M172.37,250a4.81,4.81,0,0,1-5-5.06c0-2.86,1.73-5.11,5-5s5.43,1.95,5.34,5.27C177.58,248.34,175.36,249.78,172.37,250Z"/><path class="cls-3" d="M192.71,243.43c-1,2.67-2.63,4.49-5.73,4.53s-4.27-1.8-4-4.46c.28-2.91,2-5.21,5.06-5.17C190.89,238.36,192.22,240.63,192.71,243.43Z"/><path class="cls-3" d="M203.24,251c-3.45.17-5.11-1.82-5.14-4.83a4,4,0,0,1,4.35-4.42c3.1,0,5.19,1.25,5.37,4.55C208,249.48,206,250.71,203.24,251Z"/><path class="cls-3" d="M205.92,265.48c-.51,2.1-.59,5.1-3.89,5.1-2.69,0-4.12-2.15-4.09-4.71a4.64,4.64,0,0,1,5-4.93C205.68,260.94,205.93,263.08,205.92,265.48Z"/><path class="cls-3" d="M96.83,119.93c-.49,2.6-1.25,5.74-5,5.78A5.4,5.4,0,0,1,86,120.2c-.09-3.79,2.89-5,6-5.1C94.65,115,96.87,116.22,96.83,119.93Z"/><path class="cls-3" d="M101.73,83.14c.2,1,.34,2,.61,2.9.79,2.86-.48,5-2.77,6.31s-4.29.18-5.87-1.39a4.49,4.49,0,0,1-.89-5.91c1.36-2.25,3.2-3.24,5.87-2.39a16.78,16.78,0,0,0,2.94.4Z"/><path class="cls-3" d="M76.47,89A5,5,0,0,1,72,84.17c-.17-3.22,2.06-5.23,5.35-5.23,3.47,0,5.13,2.53,5.23,5.5C82.68,87.15,81,89.1,76.47,89Z"/><path class="cls-3" d="M76.88,126.37c-.46,2.8-2.17,4.65-5.27,4.43s-4.92-2.08-4.71-5.2a5.1,5.1,0,0,1,5.65-5C75.48,120.77,77.08,123,76.88,126.37Z"/><path class="cls-3" d="M88.12,94.83C91,95.08,93,96.4,92.7,99.44s-2,5.2-5.07,5c-2.63-.19-5.16-1.44-4.83-5C83.11,96.16,85.1,94.92,88.12,94.83Z"/><path class="cls-3" d="M82,112c.07,2.89-1.56,4.59-4.18,4.47-3.07-.14-4.66-2.51-4.79-5.4s1.65-4.26,4.39-4.26C80.77,106.84,81.89,109,82,112Z"/><path class="cls-3" d="M99.8,108.94c-.07-2.32.71-4.14,3.3-3.92,3.16.26,5.35,2.19,5.57,5.35.17,2.31-1.71,3.49-4,3.5C101.46,113.9,99.91,112.09,99.8,108.94Z"/><path class="cls-3" d="M405.31,138c-2.58.18-4.32-1.77-4.24-4.75.07-2.82,1-5.67,4.86-5.51s5.61,2.81,5.72,6.16S408.91,138,405.31,138Z"/><path class="cls-3" d="M433.58,99.9c2.9.41,5.1,2,5.14,5.31s-1.82,5.48-5.08,5.56c-3.45.09-4.86-2.31-4.9-5.56C428.7,102.11,430.05,100.19,433.58,99.9Z"/><path class="cls-3" d="M398.76,116.78c-.53,4.06-2.84,5.84-6.15,5.69s-4.46-2.88-4.33-5.64a4.57,4.57,0,0,1,5.32-4.62C396.3,112.5,398.52,114.06,398.76,116.78Z"/><path class="cls-3" d="M424.37,126c-3.51,0-5.48-1.37-5.52-4.69,0-2.85,1.38-5.08,4.3-5s5.5,1.66,5.56,5.14C428.76,124.39,426.94,125.84,424.37,126Z"/><path class="cls-3" d="M413.68,116.34c-.45,3.06-2.19,5-5.17,5.28a4,4,0,0,1-4.57-4.19c-.07-3.28,2-5.24,5.25-5.46C412.15,111.76,413.09,114,413.68,116.34Z"/><path class="cls-3" d="M421.17,145a4.2,4.2,0,0,1-4.15-4.52,4.87,4.87,0,0,1,5-5.13,3.52,3.52,0,0,1,3.48,4.06C425.25,142.14,423.94,144.45,421.17,145Z"/><path class="cls-3" d="M250.69,180.7c-.81,2.74-1.15,5.71-5,5-3.1-.61-6-1.88-5.61-5.59.35-3.14,2.28-5.67,6-5.13C249.32,175.42,250.71,177.72,250.69,180.7Z"/><path class="cls-3" d="M287.84,168.8c-.55,2.85-2.24,4.94-5.51,5a4.59,4.59,0,0,1-5-4.95c.07-2.91,2-5.68,5.14-5.71C285.37,163.17,287.7,165,287.84,168.8Z"/><path class="cls-3" d="M241.5,165.67c-3-.28-5.22-1.85-5.34-4.84s1.36-5.73,4.85-5.74a5.22,5.22,0,0,1,5.54,5.28C246.65,163.35,244.51,165.1,241.5,165.67Z"/><path class="cls-3" d="M259.9,166.71c.11,3.35-1.92,4.92-4.87,4.88-2.53,0-5-1.12-5.06-4.26-.06-3.69,3.07-4.63,5.7-4.94S259.93,163.84,259.9,166.71Z"/><path class="cls-3" d="M261.69,178c.23-2.91,1.3-5.14,4.42-5s4.71,2.2,4.75,5.28c0,2.71-1.38,4.59-4.14,4.53C263.77,182.73,261.71,181.23,261.69,178Z"/><path class="cls-3" d="M259.87,192.83c-.62,2.9-2.33,4.92-5.53,5.13-2.45.17-3.56-1.36-3.49-3.72.11-3.23,2.29-4.69,5.06-5.06C258.18,188.88,259.5,190.38,259.87,192.83Z"/><path class="cls-3" d="M380.83,449.89c-3.44.07-4.85-2.16-4.84-5,0-3.34,1.87-5.84,5.45-5.73a4.89,4.89,0,0,1,5,5.13C386.36,447.47,384.53,449.85,380.83,449.89Z"/></g></svg>