<?xml version="1.0" encoding="utf-8"?>
<!-- Generator: Adobe Illustrator 24.0.1, SVG Export Plug-In . SVG Version: 6.00 Build 0)  -->
<svg version="1.1" id="Capa_1" xmlns="http://www.w3.org/2000/svg" xmlns:xlink="http://www.w3.org/1999/xlink" x="0px" y="0px"
	 viewBox="0 0 48.1 37.5" style="enable-background:new 0 0 48.1 37.5;" xml:space="preserve">
<style type="text/css">
	.st0{fill:#5F4A33;}
</style>
<g>
	<g>
		<path class="st0" d="M31.8,2.4C24.1,3.8,17.7,5,17.5,5c-0.5,0.3-0.9,0.9-0.9,1.5v0.3l-1.1,0c-1,0-1.2,0.1-1.7,0.3
			c-1.9,0.9-2.8,2.9-2.2,4.9c0.1,0.3,0.2,0.6,0.2,0.6c0,0-0.4,0-0.8,0c-1.2,0-1.7,0.3-2,1c-0.2,0.5-0.2,1,0,1.4
			c0.3,0.7,0.7,1,1.7,1.1l0.7,0.1l1.2,4.6c0.7,2.5,1.2,4.6,1.2,4.7c0,0-1-0.1-2.2-0.3L9.5,25l-0.1-0.5c-0.2-1.7-1.8-2.8-3.5-2.3
			c-0.7,0.2-1.4,0.8-1.7,1.5C4.2,24,4.1,24.2,4,24.2c0,0-0.9-0.1-1.8-0.2c-0.9-0.1-1.7-0.2-1.8-0.2c0,0-0.2,0.1-0.3,0.2
			C0,24.1,0,24.2,0,30.6c0,6.4,0,6.5,0.2,6.7s0.3,0.2,11,0.2c10.1,0,10.8,0,11-0.2c0.2-0.2,0.2-0.3,0.2-2.2l0-2.1l8.8,0l8.8,0
			l0.1-0.2c0.1-0.1,1-3.7,2.2-7.9c1.1-4.2,2.1-7.9,2.2-8.2l0.1-0.5h0.6c0.9,0,1.5-0.3,1.8-1c0.3-0.7,0.1-1.6-0.3-2
			c-0.4-0.3-0.8-0.5-1.9-0.5h-1l-0.2-0.4c-0.3-0.6-1.2-1.4-1.8-1.6c-0.3-0.1-0.8-0.3-1.1-0.3c-0.4-0.1-3.7-0.1-9.4-0.1
			c-7.4,0-8.7,0-8.6-0.1c0.1-0.1,2.1-0.5,5-1c3.9-0.7,4.9-0.9,5.2-1.1c0.4-0.2,0.7-0.8,0.7-1.4c0-0.3,0-0.4,0.2-0.4
			c0.2,0,6-1.1,10.4-1.8c1.5-0.3,2.9-0.5,3-0.5c0.5-0.1,1.1-1,1.2-1.6c0-1.1-0.9-2.1-2.1-2.3C45.9,0,40.5,0.9,31.8,2.4z M46.3,1.3
			c0.4,0.2,0.6,0.5,0.6,0.8c0.1,0.7,0.2,0.6-5.2,1.6c-2.7,0.5-5,0.9-5,0.9c-0.1,0-0.5-1.7-0.4-1.7c0.1-0.1,9.1-1.6,9.4-1.6
			C45.9,1.2,46.2,1.2,46.3,1.3z M35.2,3.2c0.1,0.4,0.2,1.3,0.2,1.4c0,0.1-0.4,0.2-1,0.3c-0.6,0.1-1.2,0.3-1.4,0.4
			c-0.5,0.2-0.8,0.9-0.8,1.3c0,0.2,0,0.4-0.1,0.4c-0.1,0.1-8.6,1.6-8.7,1.6c0,0,0-0.3,0.1-0.7c0.1-0.5,0.1-0.7,0-0.9l-0.2-0.2h-2.7
			c-2.7,0-2.7,0-2.8-0.2c-0.1-0.3,0-0.6,0.3-0.7c0.4-0.1,16.6-2.9,16.8-3C35.1,3,35.2,3.1,35.2,3.2z M22.4,8.3
			c-0.1,0.4-0.4,0.9-0.9,1.3c-0.5,0.4-0.9,0.6-1.6,0.7c-0.7,0.1-0.8,0.2-0.8,0.6c0,0.2,0.1,0.4,0.3,0.5c0.2,0.1,2.5,0.1,10.7,0.1
			c11.8,0,10.9-0.1,11.8,0.8l0.5,0.5l-14.5,0H13.3l-0.2-0.2c-0.3-0.3-0.5-1.1-0.5-1.6c0-0.9,0.6-2,1.3-2.4C14.6,8,14.7,8,18.7,8h3.8
			L22.4,8.3z M45.8,14c0.1,0.1,0.2,0.3,0.2,0.4s-0.1,0.3-0.2,0.4c-0.2,0.2-0.3,0.2-17.8,0.2c-17.5,0-17.6,0-17.8-0.2
			C10,14.8,10,14.6,10,14.5s0.1-0.3,0.2-0.4c0.2-0.2,0.3-0.2,17.8-0.2C45.5,13.8,45.6,13.8,45.8,14z M43.3,16.4
			c0,0.1-0.1,0.4-0.1,0.5l0,0.3H28H12.8L12.8,17c0-0.2-0.1-0.4-0.1-0.5l-0.1-0.2H28h15.4L43.3,16.4z M42.8,18.5c0,0-0.7,2.5-1.5,5.6
			l-1.5,5.6h-8.7h-8.7l0-1.4c0-1.1-0.1-1.4-0.2-1.5c-0.2-0.1-0.2-0.1-3.9-0.6c-1.7-0.2-3.2-0.5-3.2-0.5c0,0-0.5-1.6-1-3.5
			c-0.5-1.9-0.9-3.5-1-3.6c0-0.1,3-0.1,14.8-0.1C36.1,18.5,42.8,18.5,42.8,18.5z M7.5,23.4c0.5,0.3,0.8,0.8,0.8,1.4
			c0,0.5-0.4,1.1-0.8,1.4c-0.5,0.3-0.9,0.3-1.4,0c-1-0.4-1.2-1.6-0.6-2.4C6.1,23.1,6.8,23,7.5,23.4z M2.8,25.2l1.3,0.2l0.3,0.5
			c1,1.9,3.5,2.1,4.7,0.4l0.1-0.2l6,0.8c3.3,0.5,6,0.8,6,0.8c0,0,0,1.4,0,3.1v3.1H11.2H1.1v-4.6v-4.6l0.2,0
			C1.5,25,2.1,25.1,2.8,25.2z M39.5,30.9c0,0-0.1,0.3-0.1,0.5l-0.2,0.5h-8.4h-8.4v-0.5v-0.5h8.6C35.6,30.9,39.5,30.9,39.5,30.9z
			 M21.2,35.8v0.6H11.2H1.1v-0.6v-0.6h10.1h10.1V35.8z"/>
		<path class="st0" d="M26.4,19.4c-3.2,0.6-5.3,2.9-4.9,5.2c0.7,3.6,6.1,5.3,10.2,3.3c1.9-0.9,3-2.8,2.7-4.4
			C33.9,20.7,30.2,18.8,26.4,19.4z M30,20.7c1.4,0.4,2.6,1.3,3.1,2.2c0.9,1.8-0.5,3.7-3.1,4.5c-1,0.3-2.9,0.3-3.8,0
			c-1.5-0.4-2.8-1.3-3.2-2.3c-0.3-0.7-0.3-1.6,0-2.3c0.6-1.1,2.1-2.1,3.9-2.4C27.6,20.4,29.2,20.5,30,20.7z"/>
	</g>
</g>
</svg>
