<svg xmlns="http://www.w3.org/2000/svg" viewBox="0 0 512 512" style="enable-background:new 0 0 512 512" xml:space="preserve"><path d="M256 488.7V512c141.4 0 256-114.6 256-256S397.4 0 256 0 0 114.6 0 256s114.6 256 256 256v-46.6c-57.9 0-110.1-23.4-148.1-61.3-37.9-38-61.3-90.2-61.4-148.1 0-57.9 23.4-110.1 61.3-148.1 38-37.9 90.2-61.3 148.1-61.3S366 70 404 107.9c37.9 38 61.3 90.2 61.3 148.1S441.9 366.1 404 404.1c-38 37.9-90.2 61.3-148.1 61.3v23.3h.1zm23.3-162.9v-23.3c0-5.8 0-10.4.3-13.6.4-5 1-5.6 1.3-6.1s2-2.6 8.8-6c11.6-5.9 25.5-12.4 38-24.7 6.2-6.2 11.8-14 15.6-23.2 3.8-9.3 5.8-19.8 5.8-31-.2-19.2-8.6-38.4-24.3-54.3-15.6-15.8-39.7-27.3-68.8-27.2-28-.2-52.8 9.3-69.3 27.1-16.6 17.7-23.8 41.5-23.8 66h46.5c0-15.9 4.5-27 11.2-34.1 6.8-7 16.9-12.2 35.4-12.4 17.4.1 28.3 6.1 35.9 13.5s10.9 17.3 10.6 21.4c0 6.2-1 10.2-2.2 13.3-1.9 4.6-4.7 7.9-10 11.9-5.2 3.9-12.7 7.8-21.5 12.2-7.2 3.6-13.5 7.6-19 12.8-8.4 7.7-13.7 18.6-15.4 28.1-1.9 9.6-1.6 17.8-1.7 26.5V326h46.6v-.2zm-46.6 23.3v46.5h46.5v-46.5h-46.5z" style="fill:#5f4a33"/></svg>