<svg version="1.1" id="Capa_1" xmlns="http://www.w3.org/2000/svg" x="0" y="0" viewBox="0 0 48.1 37.5" style="enable-background:new 0 0 48.1 37.5" xml:space="preserve"><style>.st0{fill:#5f4a33}</style><path class="st0" d="M31.8 2.4C24.1 3.8 17.7 5 17.5 5c-.5.3-.9.9-.9 1.5v.3h-1.1c-1 0-1.2.1-1.7.3C11.9 8 11 10 11.6 12l.2.6H11c-1.2 0-1.7.3-2 1-.2.5-.2 1 0 1.4.3.7.7 1 1.7 1.1l.7.1 1.2 4.6c.7 2.5 1.2 4.6 1.2 4.7 0 0-1-.1-2.2-.3L9.5 25l-.1-.5c-.2-1.7-1.8-2.8-3.5-2.3-.7.2-1.4.8-1.7 1.5 0 .3-.1.5-.2.5L2.2 24c-.9-.1-1.7-.2-1.8-.2 0 0-.2.1-.3.2-.1.1-.1.2-.1 6.6 0 6.4 0 6.5.2 6.7s.3.2 11 .2c10.1 0 10.8 0 11-.2.2-.2.2-.3.2-2.2V33H40l.1-.2c.1-.1 1-3.7 2.2-7.9 1.1-4.2 2.1-7.9 2.2-8.2l.1-.5h.6c.9 0 1.5-.3 1.8-1 .3-.7.1-1.6-.3-2-.4-.3-.8-.5-1.9-.5h-1l-.2-.4c-.3-.6-1.2-1.4-1.8-1.6-.3-.1-.8-.3-1.1-.3-.4-.1-3.7-.1-9.4-.1-7.4 0-8.7 0-8.6-.1.1-.1 2.1-.5 5-1 3.9-.7 4.9-.9 5.2-1.1.4-.2.7-.8.7-1.4 0-.3 0-.4.2-.4s6-1.1 10.4-1.8c1.5-.3 2.9-.5 3-.5.5-.1 1.1-1 1.2-1.6 0-1.1-.9-2.1-2.1-2.3-.4-.1-5.8.8-14.5 2.3zm14.5-1.1c.4.2.6.5.6.8.1.7.2.6-5.2 1.6-2.7.5-5 .9-5 .9-.1 0-.5-1.7-.4-1.7.1-.1 9.1-1.6 9.4-1.6.2-.1.5-.1.6 0zM35.2 3.2c.1.4.2 1.3.2 1.4 0 .1-.4.2-1 .3-.6.1-1.2.3-1.4.4-.5.2-.8.9-.8 1.3 0 .2 0 .4-.1.4-.1.1-8.6 1.6-8.7 1.6 0 0 0-.3.1-.7.1-.5.1-.7 0-.9l-.2-.2h-2.7c-2.7 0-2.7 0-2.8-.2-.1-.3 0-.6.3-.7.4-.1 16.6-2.9 16.8-3 .2.1.3.2.3.3zM22.4 8.3c-.1.4-.4.9-.9 1.3s-.9.6-1.6.7c-.7.1-.8.2-.8.6 0 .2.1.4.3.5.2.1 2.5.1 10.7.1 11.8 0 10.9-.1 11.8.8l.5.5H13.3l-.2-.2c-.3-.3-.5-1.1-.5-1.6 0-.9.6-2 1.3-2.4.7-.6.8-.6 4.8-.6h3.8l-.1.3zM45.8 14c.1.1.2.3.2.4s-.1.3-.2.4c-.2.2-.3.2-17.8.2s-17.6 0-17.8-.2c-.2 0-.2-.2-.2-.3s.1-.3.2-.4c.2-.2.3-.2 17.8-.2 17.5-.1 17.6-.1 17.8.1zm-2.5 2.4c0 .1-.1.4-.1.5v.3H12.8V17c0-.2-.1-.4-.1-.5l-.1-.2h30.8l-.1.1zm-.5 2.1s-.7 2.5-1.5 5.6l-1.5 5.6H22.4v-1.4c0-1.1-.1-1.4-.2-1.5-.2-.1-.2-.1-3.9-.6-1.7-.2-3.2-.5-3.2-.5s-.5-1.6-1-3.5-.9-3.5-1-3.6c0-.1 3-.1 14.8-.1h14.9zM7.5 23.4c.5.3.8.8.8 1.4 0 .5-.4 1.1-.8 1.4-.5.3-.9.3-1.4 0-1-.4-1.2-1.6-.6-2.4.6-.7 1.3-.8 2-.4zm-4.7 1.8 1.3.2.3.5c1 1.9 3.5 2.1 4.7.4l.1-.2 6 .8c3.3.5 6 .8 6 .8v6.2H1.1v-9.2h.2c.2.3.8.4 1.5.5zm36.7 5.7s-.1.3-.1.5l-.2.5H22.4v-1h17.1zm-18.3 4.9v.6H1.1v-1.2h20.2v.6z"/><path class="st0" d="M26.4 19.4c-3.2.6-5.3 2.9-4.9 5.2.7 3.6 6.1 5.3 10.2 3.3 1.9-.9 3-2.8 2.7-4.4-.5-2.8-4.2-4.7-8-4.1zm3.6 1.3c1.4.4 2.6 1.3 3.1 2.2.9 1.8-.5 3.7-3.1 4.5-1 .3-2.9.3-3.8 0-1.5-.4-2.8-1.3-3.2-2.3-.3-.7-.3-1.6 0-2.3.6-1.1 2.1-2.1 3.9-2.4.7 0 2.3.1 3.1.3z"/></svg>