<svg version="1.1" id="Capa_1" xmlns="http://www.w3.org/2000/svg" x="0" y="0" viewBox="0 0 511.3 439.1" style="enable-background:new 0 0 511.3 439.1" xml:space="preserve"><style>.st0{fill:#5f4a33}</style><path class="st0" d="M1703.7 5116c-77-9-111-31-138-90-19-42-21-66-21-227-1-201 16-293 74-421 35-78 108-184 147-213l28-20-605-1c-479-1-613-4-643-14-57-21-103-61-128-113-24-48-24-51-27-453-2-222-1-419 3-438 12-63 73-93 121-58 18 14 19 33 24 446l5 432 28 24 28 24h1519V1344h-1580v735c0 722 0 735-20 755-40 40-103 21-120-38-6-24-10-286-10-744v-706l-144-4c-160-3-176-9-225-79-20-30-22-42-18-104 14-184 138-346 314-406l68-24h4350l68 23c181 63 309 233 311 414 1 83-11 110-68 152-24 19-45 21-177 24l-149 4v1311c0 1253-1 1314-19 1353-23 49-88 107-140 122-27 9-212 12-637 12l-599 1 28 20c39 29 112 135 147 213 58 128 75 220 75 421 0 171-2 182-25 230-42 83-61 90-280 89-221-1-306-16-428-75-92-45-201-139-249-215-15-24-30-44-33-44s-18 20-33 44c-79 125-253 240-410 271-88 17-321 27-412 17zm410-172c44-11 104-35 133-53 118-71 217-223 247-380 15-79 20-301 8-346l-6-24-176 6c-185 5-250 17-348 62-62 28-140 99-183 165-78 122-117 343-94 537 8 64 6 63 199 58 98-3 164-11 220-25zm1300 18c14-13 17-237 6-316-39-266-160-416-386-477-37-11-120-19-220-22l-160-6 4 128c2 70-2 170-9 222l-12 95 40 81c85 178 218 271 422 296 80 10 305 9 315-1zm1131-993 25-26-3-212-3-212-31-65c-69-146-175-221-342-241-87-10-128-31-153-79-18-32-19-62-19-386 0-343 0-352-21-378-30-38-64-49-105-36-59 20-59 15-64 360-5 295-6 319-24 339-24 27-79 28-104 3-11-11-22-38-26-62-10-61-51-100-108-100-86 0-118 50-118 185 0 126-12 141-133 156-89 11-176 52-243 112-92 83-131 84-222 6-31-27-86-64-121-81-53-27-78-33-152-36-104-5-184 18-262 74l-47 34v670h2251l25-25zm24-1075v-340h-400v510h36c94 0 238 60 317 131 23 21 43 38 45 39 1 0 2-153 2-340zm-1546 281c66-50 141-84 228-102l48-11v-52c0-121 62-223 161-266 42-18 65-21 118-18 36 3 74 8 84 13 16 7 18 1 15-86l-3-94-88-5c-96-5-117-18-117-68 0-58 42-82 144-82h62l12-42c41-149 203-226 337-161 64 32 122 105 139 176l6 27h400v-410h-2300v409l481 3 481 3 19 24c25 30 24 76-1 101-19 19-33 20-500 20h-480v290c0 160 2 290 4 290s28-11 57-24c88-38 152-49 258-43 120 6 210 38 301 107 36 26 66 49 67 49 1 1 31-21 67-48zm1546-1581v-250h-2300v500h2300v-250zm397-445c-15-103-85-197-186-244l-56-26h-4330l-56 26c-101 47-171 141-186 244l-6 45h4826l-6-45z" transform="matrix(.1 0 0 -.1 0 512)"/><path class="st0" d="M1863.7 4839c-44-43-35-65 81-189 58-63 112-117 121-120 51-20 103 17 103 73 0 28-16 48-112 147-124 126-147 136-193 89zM3061.7 4750c-99-101-113-119-113-149 0-55 52-91 103-71 9 3 63 57 121 120 116 124 125 146 81 189-46 47-69 37-192-89zM780.7 3781c-45-48-17-117 47-117 46 0 71 24 71 68 0 64-75 95-118 49zM1783.7 3779c-28-27-31-45-14-78 16-30 28-37 66-37 41 0 77 42 68 80-14 58-78 78-120 35zM1279.7 3548c-27-34-27-64-1-92 45-48 123-16 123 50 0 64-83 92-122 42zM783.7 3249c-34-33-33-77 1-104 15-12 34-21 44-21 34 0 70 39 70 75 0 24-7 39-26 54-35 27-59 26-89-4zM1798.7 3261c-79-40-24-162 58-128 59 25 63 104 6 130-31 14-33 14-64-2zM1283.7 3019c-46-45-19-118 43-118 43 0 72 28 72 70 0 67-68 96-115 48zM778.7 2714c-42-42-8-120 53-120 58 0 91 85 49 123-25 23-78 21-102-3zM1778.7 2714c-27-27-25-66 5-95 29-30 64-32 96-7 28 23 30 73 4 102-24 26-79 26-105 0zM1300.7 2504c-49-20-54-95-7-126 73-48 147 61 79 115-29 23-38 24-72 11zM780.7 2181c-44-46-14-117 48-117 38 0 70 32 70 70 0 63-75 93-118 47zM1779.7 2178c-12-15-21-34-21-44s9-29 21-44c41-52 122-23 122 44s-81 96-122 44zM1278.7 1952c-26-28-26-58 1-92 39-50 122-22 122 42 0 66-78 98-123 50zM780.7 1651c-45-48-17-117 47-117 68 0 97 72 48 118-30 28-68 28-95-1zM1783.7 1649c-14-13-25-31-25-39 0-30 23-65 49-74 76-27 134 77 68 123-31 22-65 18-92-10z" transform="matrix(.1 0 0 -.1 0 512)"/></svg>