<?xml version="1.0" standalone="no"?>
<!DOCTYPE svg PUBLIC "-//W3C//DTD SVG 20010904//EN"
 "http://www.w3.org/TR/2001/REC-SVG-20010904/DTD/svg10.dtd">
<svg version="1.0" xmlns="http://www.w3.org/2000/svg"
 width="512.000000pt" height="512.000000pt" viewBox="0 0 512.000000 512.000000"
 preserveAspectRatio="xMidYMid meet">

<g transform="translate(0.000000,512.000000) scale(0.100000,-0.100000)"
fill="#000000" stroke="none">
<path d="M1705 4752 c-77 -9 -111 -31 -138 -90 -19 -42 -21 -66 -21 -227 -1
-201 16 -293 74 -421 35 -78 108 -184 147 -213 l28 -20 -605 -1 c-479 -1 -613
-4 -643 -14 -57 -21 -103 -61 -128 -113 -24 -48 -24 -51 -27 -453 -2 -222 -1
-419 3 -438 12 -63 73 -93 121 -58 18 14 19 33 24 446 l5 432 28 24 28 24 760
0 759 0 0 -1325 0 -1325 -790 0 -790 0 0 735 c0 722 0 735 -20 755 -40 40
-103 21 -120 -38 -6 -24 -10 -286 -10 -744 l0 -706 -144 -4 c-160 -3 -176 -9
-225 -79 -20 -30 -22 -42 -18 -104 14 -184 138 -346 314 -406 l68 -24 2175 0
2175 0 68 23 c181 63 309 233 311 414 1 83 -11 110 -68 152 -24 19 -45 21
-177 24 l-149 4 0 1311 c0 1253 -1 1314 -19 1353 -23 49 -88 107 -140 122 -27
9 -212 12 -637 12 l-599 1 28 20 c39 29 112 135 147 213 58 128 75 220 75 421
0 171 -2 182 -25 230 -42 83 -61 90 -280 89 -221 -1 -306 -16 -428 -75 -92
-45 -201 -139 -249 -215 -15 -24 -30 -44 -33 -44 -3 0 -18 20 -33 44 -79 125
-253 240 -410 271 -88 17 -321 27 -412 17z m410 -172 c44 -11 104 -35 133 -53
118 -71 217 -223 247 -380 15 -79 20 -301 8 -346 l-6 -24 -176 6 c-185 5 -250
17 -348 62 -62 28 -140 99 -183 165 -78 122 -117 343 -94 537 8 64 6 63 199
58 98 -3 164 -11 220 -25z m1300 18 c14 -13 17 -237 6 -316 -39 -266 -160
-416 -386 -477 -37 -11 -120 -19 -220 -22 l-160 -6 4 128 c2 70 -2 170 -9 222
l-12 95 40 81 c85 178 218 271 422 296 80 10 305 9 315 -1z m1131 -993 l25
-26 -3 -212 -3 -212 -31 -65 c-69 -146 -175 -221 -342 -241 -87 -10 -128 -31
-153 -79 -18 -32 -19 -62 -19 -386 0 -343 0 -352 -21 -378 -30 -38 -64 -49
-105 -36 -59 20 -59 15 -64 360 -5 295 -6 319 -24 339 -24 27 -79 28 -104 3
-11 -11 -22 -38 -26 -62 -10 -61 -51 -100 -108 -100 -86 0 -118 50 -118 185 0
126 -12 141 -133 156 -89 11 -176 52 -243 112 -92 83 -131 84 -222 6 -31 -27
-86 -64 -121 -81 -53 -27 -78 -33 -152 -36 -104 -5 -184 18 -262 74 l-47 34 0
335 0 335 1125 0 1126 0 25 -25z m24 -1075 l0 -340 -200 0 -200 0 0 255 0 255
36 0 c94 0 238 60 317 131 23 21 43 38 45 39 1 0 2 -153 2 -340z m-1546 281
c66 -50 141 -84 228 -102 l48 -11 0 -52 c0 -121 62 -223 161 -266 42 -18 65
-21 118 -18 36 3 74 8 84 13 16 7 18 1 15 -86 l-3 -94 -88 -5 c-96 -5 -117
-18 -117 -68 0 -58 42 -82 144 -82 l62 0 12 -42 c41 -149 203 -226 337 -161
64 32 122 105 139 176 l6 27 200 0 200 0 0 -205 0 -205 -1150 0 -1150 0 0 205
0 204 481 3 481 3 19 24 c25 30 24 76 -1 101 -19 19 -33 20 -500 20 l-480 0 0
290 c0 160 2 290 4 290 2 0 28 -11 57 -24 88 -38 152 -49 258 -43 120 6 210
38 301 107 36 26 66 49 67 49 1 1 31 -21 67 -48z m1546 -1581 l0 -250 -1150 0
-1150 0 0 250 0 250 1150 0 1150 0 0 -250z m397 -445 c-15 -103 -85 -197 -186
-244 l-56 -26 -2165 0 -2165 0 -56 26 c-101 47 -171 141 -186 244 l-6 45 2413
0 2413 0 -6 -45z"/>
<path d="M1865 4475 c-44 -43 -35 -65 81 -189 58 -63 112 -117 121 -120 51
-20 103 17 103 73 0 28 -16 48 -112 147 -124 126 -147 136 -193 89z"/>
<path d="M3063 4386 c-99 -101 -113 -119 -113 -149 0 -55 52 -91 103 -71 9 3
63 57 121 120 116 124 125 146 81 189 -46 47 -69 37 -192 -89z"/>
<path d="M782 3417 c-45 -48 -17 -117 47 -117 46 0 71 24 71 68 0 64 -75 95
-118 49z"/>
<path d="M1785 3415 c-28 -27 -31 -45 -14 -78 16 -30 28 -37 66 -37 41 0 77
42 68 80 -14 58 -78 78 -120 35z"/>
<path d="M1281 3184 c-27 -34 -27 -64 -1 -92 45 -48 123 -16 123 50 0 64 -83
92 -122 42z"/>
<path d="M785 2885 c-34 -33 -33 -77 1 -104 15 -12 34 -21 44 -21 34 0 70 39
70 75 0 24 -7 39 -26 54 -35 27 -59 26 -89 -4z"/>
<path d="M1800 2897 c-79 -40 -24 -162 58 -128 59 25 63 104 6 130 -31 14 -33
14 -64 -2z"/>
<path d="M1285 2655 c-46 -45 -19 -118 43 -118 43 0 72 28 72 70 0 67 -68 96
-115 48z"/>
<path d="M780 2350 c-42 -42 -8 -120 53 -120 58 0 91 85 49 123 -25 23 -78 21
-102 -3z"/>
<path d="M1780 2350 c-27 -27 -25 -66 5 -95 29 -30 64 -32 96 -7 28 23 30 73
4 102 -24 26 -79 26 -105 0z"/>
<path d="M1302 2140 c-49 -20 -54 -95 -7 -126 73 -48 147 61 79 115 -29 23
-38 24 -72 11z"/>
<path d="M782 1817 c-44 -46 -14 -117 48 -117 38 0 70 32 70 70 0 63 -75 93
-118 47z"/>
<path d="M1781 1814 c-12 -15 -21 -34 -21 -44 0 -10 9 -29 21 -44 41 -52 122
-23 122 44 0 67 -81 96 -122 44z"/>
<path d="M1280 1588 c-26 -28 -26 -58 1 -92 39 -50 122 -22 122 42 0 66 -78
98 -123 50z"/>
<path d="M782 1287 c-45 -48 -17 -117 47 -117 68 0 97 72 48 118 -30 28 -68
28 -95 -1z"/>
<path d="M1785 1285 c-14 -13 -25 -31 -25 -39 0 -30 23 -65 49 -74 76 -27 134
77 68 123 -31 22 -65 18 -92 -10z"/>
</g>
</svg>
