<?xml version="1.0" encoding="utf-8"?>
<!-- Generator: Adobe Illustrator 24.0.1, SVG Export Plug-In . SVG Version: 6.00 Build 0)  -->
<svg version="1.1" id="Capa_1" xmlns="http://www.w3.org/2000/svg" xmlns:xlink="http://www.w3.org/1999/xlink" x="0px" y="0px"
	 viewBox="0 0 511.3 439.1" style="enable-background:new 0 0 511.3 439.1;" xml:space="preserve">
<style type="text/css">
	.st0{fill:#5F4A33;}
</style>
<g transform="translate(0.000000,512.000000) scale(0.100000,-0.100000)">
	<path class="st0" d="M1703.7,5116c-77-9-111-31-138-90c-19-42-21-66-21-227c-1-201,16-293,74-421c35-78,108-184,147-213l28-20
		l-605-1c-479-1-613-4-643-14c-57-21-103-61-128-113c-24-48-24-51-27-453c-2-222-1-419,3-438c12-63,73-93,121-58c18,14,19,33,24,446
		l5,432l28,24l28,24h760h759V2669V1344h-790h-790v735c0,722,0,735-20,755c-40,40-103,21-120-38c-6-24-10-286-10-744v-706l-144-4
		c-160-3-176-9-225-79c-20-30-22-42-18-104c14-184,138-346,314-406l68-24h2175h2175l68,23c181,63,309,233,311,414
		c1,83-11,110-68,152c-24,19-45,21-177,24l-149,4v1311c0,1253-1,1314-19,1353c-23,49-88,107-140,122c-27,9-212,12-637,12l-599,1
		l28,20c39,29,112,135,147,213c58,128,75,220,75,421c0,171-2,182-25,230c-42,83-61,90-280,89c-221-1-306-16-428-75
		c-92-45-201-139-249-215c-15-24-30-44-33-44s-18,20-33,44c-79,125-253,240-410,271C2027.7,5116,1794.7,5126,1703.7,5116z
		 M2113.7,4944c44-11,104-35,133-53c118-71,217-223,247-380c15-79,20-301,8-346l-6-24l-176,6c-185,5-250,17-348,62
		c-62,28-140,99-183,165c-78,122-117,343-94,537c8,64,6,63,199,58C1991.7,4966,2057.7,4958,2113.7,4944z M3413.7,4962
		c14-13,17-237,6-316c-39-266-160-416-386-477c-37-11-120-19-220-22l-160-6l4,128c2,70-2,170-9,222l-12,95l40,81
		c85,178,218,271,422,296C3178.7,4973,3403.7,4972,3413.7,4962z M4544.7,3969l25-26l-3-212l-3-212l-31-65c-69-146-175-221-342-241
		c-87-10-128-31-153-79c-18-32-19-62-19-386c0-343,0-352-21-378c-30-38-64-49-105-36c-59,20-59,15-64,360c-5,295-6,319-24,339
		c-24,27-79,28-104,3c-11-11-22-38-26-62c-10-61-51-100-108-100c-86,0-118,50-118,185c0,126-12,141-133,156c-89,11-176,52-243,112
		c-92,83-131,84-222,6c-31-27-86-64-121-81c-53-27-78-33-152-36c-104-5-184,18-262,74l-47,34v335v335h1125h1126L4544.7,3969z
		 M4568.7,2894v-340h-200h-200v255v255h36c94,0,238,60,317,131c23,21,43,38,45,39C4567.7,3234,4568.7,3081,4568.7,2894z
		 M3022.7,3175c66-50,141-84,228-102l48-11v-52c0-121,62-223,161-266c42-18,65-21,118-18c36,3,74,8,84,13c16,7,18,1,15-86l-3-94
		l-88-5c-96-5-117-18-117-68c0-58,42-82,144-82h62l12-42c41-149,203-226,337-161c64,32,122,105,139,176l6,27h200h200v-205v-205
		h-1150h-1150v205v204l481,3l481,3l19,24c25,30,24,76-1,101c-19,19-33,20-500,20h-480v290c0,160,2,290,4,290s28-11,57-24
		c88-38,152-49,258-43c120,6,210,38,301,107c36,26,66,49,67,49C2956.7,3224,2986.7,3202,3022.7,3175z M4568.7,1594v-250h-1150h-1150
		v250v250h1150h1150V1594z M4965.7,1149c-15-103-85-197-186-244l-56-26h-2165h-2165l-56,26c-101,47-171,141-186,244l-6,45h2413h2413
		L4965.7,1149z"/>
	<path class="st0" d="M1863.7,4839c-44-43-35-65,81-189c58-63,112-117,121-120c51-20,103,17,103,73c0,28-16,48-112,147
		C1932.7,4876,1909.7,4886,1863.7,4839z"/>
	<path class="st0" d="M3061.7,4750c-99-101-113-119-113-149c0-55,52-91,103-71c9,3,63,57,121,120c116,124,125,146,81,189
		C3207.7,4886,3184.7,4876,3061.7,4750z"/>
	<path class="st0" d="M780.7,3781c-45-48-17-117,47-117c46,0,71,24,71,68C898.7,3796,823.7,3827,780.7,3781z"/>
	<path class="st0" d="M1783.7,3779c-28-27-31-45-14-78c16-30,28-37,66-37c41,0,77,42,68,80C1889.7,3802,1825.7,3822,1783.7,3779z"/>
	<path class="st0" d="M1279.7,3548c-27-34-27-64-1-92c45-48,123-16,123,50C1401.7,3570,1318.7,3598,1279.7,3548z"/>
	<path class="st0" d="M783.7,3249c-34-33-33-77,1-104c15-12,34-21,44-21c34,0,70,39,70,75c0,24-7,39-26,54
		C837.7,3280,813.7,3279,783.7,3249z"/>
	<path class="st0" d="M1798.7,3261c-79-40-24-162,58-128c59,25,63,104,6,130C1831.7,3277,1829.7,3277,1798.7,3261z"/>
	<path class="st0" d="M1283.7,3019c-46-45-19-118,43-118c43,0,72,28,72,70C1398.7,3038,1330.7,3067,1283.7,3019z"/>
	<path class="st0" d="M778.7,2714c-42-42-8-120,53-120c58,0,91,85,49,123C855.7,2740,802.7,2738,778.7,2714z"/>
	<path class="st0" d="M1778.7,2714c-27-27-25-66,5-95c29-30,64-32,96-7c28,23,30,73,4,102C1859.7,2740,1804.7,2740,1778.7,2714z"/>
	<path class="st0" d="M1300.7,2504c-49-20-54-95-7-126c73-48,147,61,79,115C1343.7,2516,1334.7,2517,1300.7,2504z"/>
	<path class="st0" d="M780.7,2181c-44-46-14-117,48-117c38,0,70,32,70,70C898.7,2197,823.7,2227,780.7,2181z"/>
	<path class="st0" d="M1779.7,2178c-12-15-21-34-21-44s9-29,21-44c41-52,122-23,122,44S1820.7,2230,1779.7,2178z"/>
	<path class="st0" d="M1278.7,1952c-26-28-26-58,1-92c39-50,122-22,122,42C1401.7,1968,1323.7,2000,1278.7,1952z"/>
	<path class="st0" d="M780.7,1651c-45-48-17-117,47-117c68,0,97,72,48,118C845.7,1680,807.7,1680,780.7,1651z"/>
	<path class="st0" d="M1783.7,1649c-14-13-25-31-25-39c0-30,23-65,49-74c76-27,134,77,68,123C1844.7,1681,1810.7,1677,1783.7,1649z"
		/>
</g>
</svg>
