<svg width="30" height="30" viewBox="0 0 30 30" fill="none" xmlns="http://www.w3.org/2000/svg">
<g clip-path="url(#clip0_111_391)">
<path d="M21.5119 20.6251C21.3009 18.7241 20.4503 16.9512 19.0996 15.597C17.7488 14.2429 15.9781 13.3878 14.0776 13.172C12.1772 12.9563 10.2598 13.3926 8.63989 14.4095C7.01996 15.4264 5.79359 16.9635 5.16186 18.7688C3.71424 18.8873 2.36858 19.5612 1.40654 20.6493C0.444498 21.7375 -0.0593334 23.1556 0.00050819 24.6068C0.0603498 26.0581 0.679225 27.4299 1.72759 28.4351C2.77595 29.4404 4.17253 30.0012 5.62498 30.0001H21.5625C22.8057 30.0001 23.998 29.5062 24.877 28.6271C25.7561 27.7481 26.25 26.5558 26.25 25.3126C26.25 24.0694 25.7561 22.8771 24.877 21.998C23.998 21.1189 22.8057 20.6251 21.5625 20.6251H21.5119Z" fill="#A8947E"/>
<path d="M21.1612 3.33387C21.269 3.1726 21.3241 2.98188 21.3189 2.78798C21.3137 2.59409 21.2485 2.40658 21.1323 2.25128C21.0161 2.09599 20.8546 1.98057 20.67 1.92092C20.4855 1.86127 20.2869 1.86034 20.1018 1.91825C18.1605 2.52623 16.4968 3.80157 15.4056 5.51846C14.3143 7.23534 13.8657 9.283 14.1393 11.2989C14.81 11.3641 15.4726 11.4953 16.1175 11.6907C15.8279 10.4568 15.8914 9.16632 16.3005 7.96673C16.7097 6.76714 17.448 5.70684 18.4312 4.907C18.1065 6.15916 18.068 7.4684 18.3186 8.73747C18.5693 10.0065 19.1026 11.2029 19.879 12.2376C20.6553 13.2723 21.6549 14.1188 22.8032 14.7142C23.9516 15.3096 25.2194 15.6387 26.5125 15.677C25.2837 16.531 23.8046 16.9495 22.3106 16.8657C22.6143 17.4601 22.8637 18.0882 23.0493 18.7407C24.4031 18.6831 25.7241 18.3066 26.9049 17.642C28.0856 16.9773 29.0928 16.0432 29.8443 14.9157C29.9521 14.7545 30.0072 14.5638 30.002 14.3699C29.9968 14.176 29.9317 13.9885 29.8155 13.8332C29.6992 13.6779 29.5377 13.5624 29.3532 13.5028C29.1686 13.4431 28.9701 13.4422 28.785 13.5001C27.455 13.9176 26.0284 13.9122 24.7016 13.4848C23.3748 13.0573 22.2133 12.2289 21.3772 11.1136C20.5411 9.99834 20.0714 8.65117 20.0331 7.25779C19.9947 5.86441 20.3895 4.49344 21.1631 3.33387H21.1612Z" fill="#A8947E"/>
</g>
<defs>
<clipPath id="clip0_111_391">
<rect width="30" height="30" fill="white"/>
</clipPath>
</defs>
</svg>
