<?xml version="1.0" encoding="utf-8"?>
<!-- Generator: Adobe Illustrator 24.0.1, SVG Export Plug-In . SVG Version: 6.00 Build 0)  -->
<svg version="1.1" xmlns="http://www.w3.org/2000/svg" xmlns:xlink="http://www.w3.org/1999/xlink" x="0px" y="0px"
	 viewBox="0 0 166.4 166.4" style="enable-background:new 0 0 166.4 166.4;" xml:space="preserve">
<style type="text/css">
	.st0{display:none;}
	.st1{display:inline;}
	.st2{fill:#396DB4;}
	.st3{fill:#FFFFFF;}
	.st4{fill:#020203;}
	.st5{fill:url(#SVGID_1_);}
	.st6{fill:url(#SVGID_2_);}
	.st7{fill:url(#SVGID_3_);}
	.st8{fill:#3E94D1;}
</style>
<g id="facebook" class="st0">
	<g class="st1">
		<path class="st2" d="M166.4,78.4c0,0.4,0,0.8,0,1.2c-0.1,0.2-0.1,0.3,0,0.5c0,2.1,0,4.2,0,6.3c-0.1,0.2-0.1,0.3,0,0.5
			c0,0.4,0,0.8,0,1.2c-0.2,0-0.1,0.2-0.1,0.3c0,0.7-0.1,1.5-0.2,2.2c-0.2,2.2-0.5,4.3-0.8,6.5c-0.5,3-1.2,6-2,8.9
			c-1.9,6.7-4.6,13.1-8.2,19.2c-3.3,5.6-7.2,10.8-11.7,15.6c-3.3,3.5-6.9,6.6-10.8,9.5c-5.1,3.8-10.6,6.9-16.4,9.5
			c-4.6,2-9.4,3.6-14.3,4.7c-1.9,0.4-3.7,0.8-5.6,1.1c0-0.2,0-0.4,0-0.6c0-19,0-38,0-57c0-0.6-0.1-0.5,0.5-0.5c6.1,0,12.3,0,18.4,0
			c0.3,0,0.4-0.1,0.5-0.4c0.4-2.6,0.8-5.2,1.2-7.9c0.8-5.1,1.6-10.2,2.4-15.4c0.1-0.4-0.1-0.4-0.4-0.4c-7.4,0-14.8,0-22.2,0
			c-0.3,0-0.4-0.1-0.4-0.4c0-5.1,0-10.2,0-15.2c0-1.3,0.1-2.5,0.4-3.8c0.7-3.2,2.4-5.8,5.4-7.5c2.2-1.2,4.6-1.7,7.1-1.7
			c3.6-0.1,7.2,0,10.8,0c0.4,0,0.4-0.1,0.4-0.4c0-6.5,0-13.1,0-19.6c0-0.4-0.1-0.5-0.4-0.5c-0.9-0.1-1.7-0.2-2.6-0.4
			c-2.3-0.3-4.7-0.6-7-0.8c-2.1-0.2-4.1-0.3-6.2-0.4c-3.7-0.1-7.4,0.1-11,0.8c-4,0.9-7.7,2.4-11.1,4.8c-4.8,3.5-7.9,8.1-9.8,13.7
			c-1.4,4.2-1.9,8.6-1.9,13.1c0,5.9,0,11.9,0,17.8c0,0.4-0.1,0.5-0.5,0.5c-6.7,0-13.5,0-20.2,0c-0.4,0-0.5,0.1-0.5,0.5
			c0,7.7,0,15.4,0,23.1c0,0.4,0.1,0.5,0.5,0.5c6.7,0,13.4,0,20.1,0c0.6,0,0.5-0.1,0.5,0.5c0,19,0,38,0,57c0,0.2,0,0.4,0,0.6
			c-1.9-0.3-3.8-0.6-5.6-1.1c-5.7-1.3-11.2-3.2-16.4-5.6c-8.4-3.9-16-9.1-22.7-15.5c-3.4-3.2-6.4-6.7-9.2-10.5
			c-4.6-6.2-8.2-12.8-10.9-20c-1.6-4.3-2.9-8.6-3.8-13.1c-0.4-2.1-0.8-4.2-1-6.4c-0.2-1.7-0.4-3.4-0.4-5c0-0.1,0.1-0.3-0.1-0.3
			c0-0.4,0-0.9,0-1.3c0,0,0,0,0.1,0c0,0,0,0-0.1-0.1c0-2,0-4,0-5.9c0.1-0.2,0.1-0.4,0-0.6c0-0.4,0-0.8,0-1.2c0.2,0,0.1-0.2,0.1-0.3
			c0-1.1,0.2-2.2,0.2-3.2c0.2-1.9,0.4-3.7,0.7-5.6C1.7,66,2.5,62.4,3.6,59c3.6-11.9,9.7-22.4,18-31.7c2.3-2.6,4.8-5,7.5-7.3
			c3-2.5,6.1-4.9,9.4-7c6.5-4.2,13.5-7.3,20.9-9.6c3.1-0.9,6.3-1.7,9.6-2.3c1.7-0.3,3.4-0.5,5.2-0.7c1.5-0.2,3-0.3,4.4-0.4
			c0.1,0,0.3,0.1,0.3-0.1c0.4,0,0.9,0,1.3,0c0.1,0.1,0.3,0.1,0.4,0c1.7,0,3.4,0,5,0c0.2,0.1,0.5,0.1,0.7,0c0.4,0,0.9,0,1.3,0
			c0,0.2,0.2,0.1,0.3,0.1c1.1,0,2.2,0.2,3.3,0.2c2.2,0.2,4.4,0.5,6.6,0.9c3.2,0.6,6.4,1.3,9.5,2.3c5.9,1.8,11.5,4.2,16.8,7.2
			c5.8,3.3,11.1,7.2,15.9,11.7c2.9,2.7,5.6,5.6,8,8.7c3.4,4.2,6.3,8.7,8.8,13.5c3.2,6.2,5.7,12.6,7.3,19.4c0.7,3,1.3,6.1,1.6,9.2
			c0.2,1.6,0.4,3.3,0.4,5C166.2,78.2,166.1,78.4,166.4,78.4z"/>
		<path class="st3" d="M70.2,165.4c0-0.2,0-0.4,0-0.6c0-19,0-38,0-57c0-0.6,0.1-0.5-0.5-0.5c-6.7,0-13.4,0-20.1,0
			c-0.4,0-0.5-0.1-0.5-0.5c0-7.7,0-15.4,0-23.1c0-0.4,0.1-0.5,0.5-0.5c6.7,0,13.5,0,20.2,0c0.4,0,0.5-0.1,0.5-0.5
			c0-5.9,0-11.9,0-17.8c0-4.4,0.5-8.8,1.9-13.1c1.9-5.6,5-10.2,9.8-13.7c3.3-2.4,7.1-3.9,11.1-4.8c3.6-0.8,7.3-1,11-0.8
			c2.1,0.1,4.1,0.2,6.2,0.4c2.3,0.2,4.7,0.5,7,0.8c0.9,0.1,1.7,0.3,2.6,0.4c0.3,0,0.4,0.1,0.4,0.5c0,6.5,0,13.1,0,19.6
			c0,0.3-0.1,0.5-0.4,0.4c-3.6,0-7.2,0-10.8,0c-2.5,0-4.9,0.5-7.1,1.7c-3,1.6-4.6,4.2-5.4,7.5c-0.3,1.2-0.4,2.5-0.4,3.8
			c0,5.1,0,10.2,0,15.2c0,0.4,0.1,0.4,0.4,0.4c7.4,0,14.8,0,22.2,0c0.3,0,0.5,0,0.4,0.4c-0.8,5.1-1.6,10.2-2.4,15.4
			c-0.4,2.6-0.8,5.2-1.2,7.9c0,0.3-0.2,0.4-0.5,0.4c-6.1,0-12.3,0-18.4,0c-0.6,0-0.5-0.1-0.5,0.5c0,19,0,38,0,57c0,0.2,0,0.4,0,0.6
			c-1.2,0.2-2.4,0.4-3.6,0.5c-1.4,0.2-2.7,0.3-4.1,0.4c-0.1,0-0.3-0.1-0.2,0.1c-0.3,0-0.6,0-1,0c-0.2-0.1-0.3-0.1-0.5,0
			c-2.5,0-5,0-7.5,0c-0.1-0.1-0.2-0.1-0.3,0c-0.3,0-0.6,0-1,0c0-0.2-0.2-0.1-0.3-0.1c-0.8-0.1-1.5-0.1-2.3-0.2
			C73.8,165.9,72,165.7,70.2,165.4z"/>
		<path class="st4" d="M86.3,0c-0.2,0.1-0.5,0.1-0.7,0C85.8,0,86,0,86.3,0z"/>
		<path class="st4" d="M0,79.9c0.1,0.2,0.1,0.4,0,0.6C0,80.3,0,80.1,0,79.9z"/>
		<path class="st4" d="M166.4,80.1c-0.1-0.2-0.1-0.3,0-0.5C166.4,79.8,166.4,79.9,166.4,80.1z"/>
		<path class="st4" d="M166.4,86.8c-0.1-0.2-0.1-0.3,0-0.5C166.4,86.5,166.4,86.7,166.4,86.8z"/>
		<path class="st4" d="M86.8,166.4c0.2-0.1,0.3-0.1,0.5,0C87.2,166.4,87,166.4,86.8,166.4z"/>
		<path class="st4" d="M80.5,0c-0.1,0.1-0.3,0.1-0.4,0C80.2,0,80.4,0,80.5,0z"/>
		<path class="st4" d="M79,166.4c0.1-0.1,0.2-0.1,0.3,0C79.3,166.4,79.2,166.4,79,166.4z"/>
		<path class="st4" d="M0,86.4C0,86.5,0,86.5,0,86.4C0,86.5,0,86.5,0,86.4C0,86.5,0,86.5,0,86.4z"/>
	</g>
</g>
<g id="instagram" class="st0">
	<g transform="matrix(.114556 0 0 .114556 .402435 43.321453)" class="st1">
		
			<radialGradient id="SVGID_1_" cx="16116.6074" cy="-61884.4023" r="2731.8618" gradientTransform="matrix(0.1154 -1.937020e-02 -1.177926e-02 -7.002420e-02 -2309.4043 -2898.7454)" gradientUnits="userSpaceOnUse">
			<stop  offset="0" style="stop-color:#FFD578"/>
			<stop  offset="0.263" style="stop-color:#EE7137"/>
			<stop  offset="0.609" style="stop-color:#BD3282"/>
			<stop  offset="1" style="stop-color:#4A60AA"/>
		</radialGradient>
		<path class="st5" d="M729.2,31.4c-11.6,0-23.1,0.6-34.4,1.8c-11.3,1.2-22.5,2.9-33.4,5.1c-11,2.3-21.7,5-32.3,8.3l-31,11.4
			l-29.5,14.2l-27.8,16.9l-26,19.5l-24,21.8l-21.8,24l-19.5,26l-17,27.8l-14.3,29.5c-4.3,10.1-8.1,20.4-11.4,31s-6.1,21.3-8.3,32.3
			c-2.3,11-4,22.1-5.1,33.4c-1.2,11.3-1.7,22.8-1.7,34.4s0.6,23.1,1.7,34.4c1.1,11.2,2.9,22.4,5.1,33.4c2.3,11,5,21.7,8.3,32.3
			s7.1,20.9,11.4,31l14.3,29.5l17,27.8l19.5,26l21.8,24l24,21.8l26,19.5l27.8,16.9l29.5,14.2l31,11.4l32.3,8.3
			c11.1,2.3,22.2,4,33.4,5.1c11.4,1.2,22.9,1.7,34.4,1.7c11.6,0,23.1-0.6,34.4-1.7c11.2-1.1,22.4-2.9,33.4-5.1l32.3-8.3l31-11.4
			l29.5-14.2l27.8-16.9l26-19.5l24-21.8l21.8-24l19.5-26l17-27.8l14.3-29.5l11.4-31c3.3-10.5,6.1-21.3,8.3-32.3l5.1-33.4
			c1.2-11.3,1.8-22.8,1.8-34.4s-0.6-23.1-1.8-34.4c-1.1-11.2-2.9-22.4-5.1-33.4c-2.3-11-5-21.7-8.3-32.3l-11.4-31l-14.3-29.5
			l-17-27.8l-19.5-26l-21.8-24l-24-21.8l-26-19.5l-27.8-16.9l-29.5-14.2l-31-11.4L797,38.2l-33.4-5.1
			C752.1,31.9,740.6,31.4,729.2,31.4L729.2,31.4z M729.2,147.8c7.7,0,15.2,0.4,22.7,1.1l22,3.3l21.2,5.4l20.3,7.4l19.3,9.3l18.2,11
			l17,12.7l15.7,14.2l14.2,15.7l12.7,17l11,18.2l9.3,19.3c2.8,6.6,5.3,13.4,7.4,20.3c2.1,6.9,4,14,5.4,21.2c1.5,7.2,2.5,14.6,3.3,22
			l1.1,22.7c0,7.7-0.4,15.2-1.1,22.7s-1.9,14.8-3.3,22c-1.5,7.2-3.3,14.3-5.4,21.2l-7.4,20.3l-9.3,19.3l-11,18.2l-12.7,17L885.6,525
			L870,539.3l-17,12.7l-18.2,11l-19.3,9.3l-20.3,7.4l-21.2,5.4l-22,3.3c-7.5,0.8-15.1,1.1-22.7,1.1c-7.6,0-15.2-0.4-22.7-1.1
			l-22-3.3c-7.2-1.5-14.3-3.3-21.2-5.4l-20.3-7.4l-19.3-9.3l-18.2-11l-17-12.7L572.7,525l-14.2-15.7l-12.7-17l-11-18.2l-9.3-19.3
			l-7.4-20.3l-5.4-21.2l-3.3-22c-0.8-7.5-1.1-15.1-1.1-22.7c0-7.6,0.4-15.2,1.1-22.7c0.7-7.5,1.9-14.8,3.3-22
			c1.5-7.2,3.3-14.2,5.4-21.2l7.4-20.3l9.3-19.3l11-18.2l12.7-17l14.2-15.7l15.7-14.2l17-12.7l18.2-11l19.3-9.3
			c6.7-2.8,13.4-5.3,20.3-7.4l21.2-5.4c7.2-1.5,14.6-2.6,22-3.3C714,148.1,721.6,147.8,729.2,147.8L729.2,147.8z"/>
		
			<radialGradient id="SVGID_2_" cx="16116.6074" cy="-61884.4023" r="2731.8618" gradientTransform="matrix(0.1154 -1.937020e-02 -1.177926e-02 -7.002420e-02 -2309.4043 -2898.7454)" gradientUnits="userSpaceOnUse">
			<stop  offset="0" style="stop-color:#FFD578"/>
			<stop  offset="0.263" style="stop-color:#EE7137"/>
			<stop  offset="0.609" style="stop-color:#BD3282"/>
			<stop  offset="1" style="stop-color:#4A60AA"/>
		</radialGradient>
		<path class="st6" d="M1080.4-64.6c-2.7,0-5.4,0.1-8,0.4c-2.7,0.3-5.3,0.7-7.9,1.2c-2.6,0.5-5.2,1.2-7.8,2
			c-2.6,0.8-5.1,1.7-7.5,2.8c-2.5,1.1-4.9,2.2-7.2,3.5c-2.4,1.3-4.6,2.7-6.9,4.2c-2.2,1.5-4.3,3.2-6.4,4.9c-2,1.7-4,3.6-5.9,5.5
			c-1.9,1.9-3.6,4-5.3,6.1c-1.7,2.1-3.2,4.3-4.7,6.6c-1.4,2.3-2.8,4.6-4,7c-1.2,2.4-2.3,4.9-3.3,7.4c-1,2.5-1.8,5.1-2.5,7.7
			c-0.7,2.6-1.3,5.2-1.8,7.9c-0.5,2.7-0.8,5.3-1,8c-0.1,1.9-0.2,3.8-0.2,5.7c0,2.7,0.1,5.4,0.4,8.1c0.3,2.7,0.7,5.4,1.2,8
			c0.5,2.6,1.2,5.3,2,7.8c0.8,2.6,1.7,5.1,2.8,7.6c1,2.5,2.2,4.9,3.5,7.3c1.3,2.4,2.7,4.7,4.2,6.9c1.5,2.2,3.1,4.4,4.9,6.4
			c1.7,2.1,3.6,4,5.5,5.9c1.9,1.9,3.9,3.7,6,5.3c2.1,1.7,4.3,3.2,6.5,4.7c2.3,1.5,4.6,2.8,7,4c2.4,1.2,4.8,2.3,7.3,3.3
			c2.5,1,5,1.8,7.6,2.5c2.6,0.7,5.2,1.3,7.8,1.8c2.6,0.5,5.3,0.8,8,1c1.9,0.1,3.8,0.2,5.7,0.2c2.7,0,5.4-0.1,8-0.4
			c2.7-0.3,5.3-0.7,7.9-1.2c2.6-0.5,5.2-1.2,7.8-2c2.6-0.8,5.1-1.7,7.5-2.8c2.5-1.1,4.9-2.2,7.2-3.5c2.4-1.3,4.6-2.7,6.9-4.2
			c2.2-1.5,4.3-3.2,6.4-4.9c2-1.7,4-3.6,5.9-5.5c1.9-1.9,3.6-4,5.3-6.1c1.7-2.1,3.2-4.3,4.7-6.6c1.4-2.3,2.8-4.6,4-7
			c1.2-2.4,2.3-4.9,3.3-7.4c1-2.5,1.8-5.1,2.5-7.7c0.7-2.6,1.3-5.2,1.8-7.9c0.5-2.7,0.8-5.3,1-8c0.1-1.9,0.2-3.8,0.2-5.7
			c0-2.7-0.1-5.4-0.4-8.1c-0.3-2.7-0.7-5.4-1.2-8c-0.5-2.6-1.2-5.3-2-7.8c-0.8-2.6-1.7-5.1-2.8-7.6c-1-2.5-2.2-4.9-3.5-7.3
			c-1.3-2.4-2.7-4.7-4.2-6.9c-1.5-2.2-3.1-4.4-4.9-6.4c-1.7-2.1-3.6-4-5.5-5.9c-1.9-1.9-3.9-3.7-6-5.3c-2.1-1.7-4.3-3.2-6.5-4.7
			c-2.3-1.5-4.6-2.8-7-4c-2.4-1.2-4.8-2.3-7.3-3.3c-2.5-1-5-1.8-7.6-2.5c-2.6-0.7-5.2-1.3-7.8-1.8c-2.6-0.5-5.3-0.8-8-1
			C1084.2-64.5,1082.3-64.6,1080.4-64.6L1080.4-64.6z"/>
		
			<radialGradient id="SVGID_3_" cx="16094.8213" cy="-61598.6719" r="2731.8618" gradientTransform="matrix(0.1154 -1.937020e-02 -1.177926e-02 -7.002420e-02 -2309.4043 -2898.7454)" gradientUnits="userSpaceOnUse">
			<stop  offset="0" style="stop-color:#FFD578"/>
			<stop  offset="0.263" style="stop-color:#EE7137"/>
			<stop  offset="0.609" style="stop-color:#BD3282"/>
			<stop  offset="1" style="stop-color:#4A60AA"/>
		</radialGradient>
		<path class="st7" d="M659.3-310.7c-36.7-0.1-69.5,0.1-98.9,0.5l-78.9,2.1c-23.4,1-44,2.3-62.6,4.1c-9.3,0.9-18,1.8-26.3,2.9
			c-7.9,1-15.8,2.2-23.6,3.5c-7.5,1.3-14.5,2.6-21.3,4.1c-6.8,1.5-13.3,3.1-19.5,4.8c-6.1,1.7-12.2,3.5-18.2,5.6
			c-5.9,2-11.6,4.1-17.3,6.3c-11.4,4.5-22.4,9.5-33.8,15.2c-8.8,4.4-16.9,8.8-24.6,13.4c-7.7,4.7-15,9.6-22.2,15
			c-7.4,5.6-14.5,11.5-21.3,17.7c-7.1,6.5-14.4,13.6-21.9,21.6c-9.5,10-17.7,19.2-25,28.3c-3.7,4.6-7.1,9-10.3,13.6
			c-3.2,4.5-6.2,9-9.1,13.7c-2.9,4.6-5.6,9.3-8.2,14.1c-2.6,4.9-5.1,9.9-7.5,15c-4.8,10.3-9.3,21.5-13.8,33.9
			c-3.3,9.2-6.3,18.5-8.9,27.9c-2.7,9.6-5.1,19.7-7.2,30.6c-2.1,10.9-4,22.6-5.6,35.5c-1.8,14.2-3.2,28.4-4.2,42.7
			c-1.2,15.7-2.2,32.9-3,52.1L64,177.1l-1,77.8l-0.3,94l0.9,136.7l2.7,103.6l2.1,40.5l2.6,33.5c0.8,9,1.9,18.1,3.1,27
			c1.1,8,2.4,15,3.7,21c2.7,12.3,5.8,24.5,9.5,36.5c3.5,11.5,7.5,22.9,12,34.1c4.4,11,9.2,21.5,14.5,31.7
			c5.2,10.2,10.9,19.9,17,29.3s12.6,18.4,19.6,27c6.9,8.6,14.3,16.9,22.1,24.7c7.8,7.9,16,15.4,24.7,22.5c8.8,7.2,17.9,14,27.4,20.3
			c8.8,5.9,17.4,11.2,26.2,16.2c8.7,4.9,17.5,9.4,26.6,13.5c9.1,4.1,18.3,7.7,28,11c9.7,3.3,19.8,6.2,30.5,8.8s22,4.9,34,6.9
			c12,2,24.8,3.7,38.4,5.2c13.7,1.5,28.2,2.7,43.9,3.7c15.7,1,32.4,1.8,50.4,2.5c27.8,1,69.9,1.6,118.4,1.8l157.1-0.3l148.7-2.1
			l56.6-1.6l36.8-1.9c7.9-0.6,15.6-1.4,23.1-2.3s14.8-1.9,22-3.1s14.2-2.5,21.1-3.9c6.8-1.4,13.6-3,20.3-4.7
			c6.7-1.7,13.2-3.6,19.7-5.7c6.5-2,12.9-4.2,19.3-6.6c6.4-2.4,12.8-4.9,19.1-7.6c6.4-2.7,12.7-5.6,19.1-8.7
			c9.8-4.7,17.7-8.6,24.6-12.5c6.5-3.6,12.8-7.6,18.8-11.9c5.9-4.3,11.8-9.3,18.5-15.5s14.4-13.7,23.9-23.2
			c8.3-8.3,15.4-15.6,21.4-22.2c6.1-6.6,11.2-12.5,15.7-18.2c4.3-5.4,8.3-11.1,11.9-16.9c3.6-5.7,6.9-11.6,10.2-18.2
			c5.1-9.9,9.6-19.1,13.6-27.9c3.9-8.5,7.5-17.2,10.7-26c3.2-8.7,5.9-17.6,8.3-26.6c2.4-9.3,4.4-19,6.2-29.8
			c1.8-10.7,3.3-22.4,4.6-35.4c1.3-13,2.4-27.4,3.4-43.6l2.6-54.3l2.2-67.6l1.6-75.3l0.6-78.7l-1.4-154.6l-1.9-69.2l-2.6-59.4
			l-3.2-46.3c-1.2-12.9-2.4-23.1-3.8-29.9c-1.5-7.6-3.1-15.1-5-22.7c-1.8-7.3-3.7-14.6-5.9-21.8c-2.1-7-4.3-14-6.8-20.9
			c-2.4-6.8-4.9-13.5-7.6-20.1s-5.5-12.9-8.6-19.2c-3-6.3-6.1-12.4-9.5-18.3c-3.3-6-6.7-11.8-10.3-17.4c-3.6-5.7-7.3-11.2-11.2-16.6
			c-3.9-5.4-7.9-10.6-12.1-15.7c-4.2-5.1-8.5-10-13-14.8c-4.5-4.8-9.1-9.5-13.9-14c-4.8-4.5-9.7-8.9-14.8-13.1
			c-5.1-4.2-10.4-8.3-15.7-12.2c-5.4-3.9-11-7.7-16.6-11.3c-5.7-3.7-11.6-7.2-17.5-10.5c-6-3.4-12.2-6.6-18.4-9.6
			c-10.3-5-19.9-9.5-29.3-13.4c-9.2-3.9-18.6-7.4-28.2-10.4c-9.6-3-19.6-5.6-30.6-7.9c-11-2.2-23-4.1-36.6-5.7
			c-13.6-1.6-28.7-2.9-46.1-3.9c-17.3-1.1-36.8-1.9-59.1-2.6l-75.6-1.7l-95.7-1.1L659.3-310.7L659.3-310.7z M722.9-194.4l176.8,1
			l66.7,1.3c18.4,0.5,32.4,1.1,40.6,1.8c10.7,0.9,20.9,2,30.6,3.4c9.4,1.3,18.7,2.9,27.9,4.8c8.9,1.9,17.4,4,25.5,6.4
			c8.1,2.4,15.8,5.1,23.3,8s14.5,6.2,21.4,9.8c6.8,3.5,13.4,7.4,19.7,11.7c6.3,4.2,12.5,8.7,18.4,13.6c5.9,4.9,11.7,10.1,17.3,15.7
			c5.9,5.9,11.4,11.9,16.4,18.1c5,6.2,9.7,12.6,13.9,19.4c4.3,6.8,8.2,13.9,11.6,21.2c3.5,7.4,6.6,15.3,9.5,23.7
			c2.8,8.4,5.3,17.2,7.6,26.7c2.3,10.1,4.3,20.2,5.9,30.4c1.7,10.8,3.1,22.4,4.4,34.7s2.2,25.5,3.1,39.6c0.7,11.3,1.3,26.2,1.7,43.9
			l1.2,60.1l0.9,147.2l-1.1,147.1l-1.3,59.9l-1.8,43.6c-1.2,20.4-2.5,37.6-4.1,52.5c-0.8,7.5-1.6,14.4-2.6,20.9
			c-0.9,6.1-1.9,12.2-3.1,18.3c-1.1,5.5-2.4,11-3.8,16.5c-1.4,5.2-3,10.4-4.7,15.5c-1.7,5.1-3.7,10.2-5.7,15.2
			c-2.2,5.3-4.5,10.5-6.9,15.7c-2.1,4.6-4.4,9.1-6.8,13.5c-2.4,4.3-4.9,8.6-7.5,12.8c-2.6,4.1-5.4,8.1-8.2,12
			c-2.9,3.9-5.9,7.6-9,11.3c-3.1,3.6-6.4,7.2-9.8,10.6c-3.4,3.4-6.9,6.7-10.5,9.9s-7.4,6.2-11.3,9.2c-3.9,2.9-7.9,5.8-12.1,8.4
			c-4.2,2.7-8.5,5.3-12.9,7.8c-4.4,2.5-9,4.8-13.7,7.1c-4.8,2.3-9.7,4.4-14.6,6.4c-5.1,2.1-10.2,4-15.4,5.7
			c-10.6,3.6-21.7,6.8-33.5,9.5c-12.2,2.8-24.6,5.1-37,6.9c-4.8,0.7-15.8,1.4-31.5,2l-59.9,1.7l-170,2.2l-177.9,0.3l-69.9-0.7
			l-45.4-1.4L442,886c-10.4-0.9-20-1.8-29.1-3s-17.5-2.3-25.4-3.7c-7.5-1.3-15-2.9-22.4-4.7c-6.8-1.6-13.4-3.6-20-5.7
			c-6.4-2.1-12.4-4.4-18.4-7s-11.7-5.4-17.4-8.4c-5.7-3.1-11.3-6.4-17-10c-4.3-2.7-8.5-5.5-12.5-8.4c-4-2.9-7.9-5.9-11.6-8.9
			s-7.3-6.2-10.7-9.5c-3.4-3.2-6.7-6.6-9.9-10.1c-3.2-3.5-6.2-7-9.1-10.7c-2.9-3.7-5.7-7.5-8.3-11.4c-2.7-4-5.2-8-7.6-12.2
			c-2.4-4.2-4.7-8.5-6.9-13c-2.2-4.6-4.3-9.2-6.2-13.9c-1.9-4.8-3.8-9.7-5.5-14.8c-3.5-10.2-6.5-21-9.2-32.5
			c-2.6-11.5-4.9-23.8-6.8-36.9c-1.9-13.1-3.5-26.9-4.7-41.6c-0.9-10.8-1.6-27.7-2.2-49.1l-1.2-75.8l0.4-193.2l3.3-184.6l2.5-65.1
			l1.4-21.5c0.5-5.7,1-10,1.5-12.6c1.7-8.4,3.5-16.2,5.3-23.5c1.7-6.9,3.6-13.8,5.7-20.6c2-6.4,4-12.4,6.3-18.1
			c2.1-5.5,4.5-10.9,7.2-16.2c2.6-5.2,5.3-10.1,8.3-14.9c3-4.8,6.2-9.5,9.7-14.1c3.5-4.6,7.3-9.2,11.4-13.9
			c4.1-4.6,8.6-9.3,13.4-14.2c5.6-5.7,11.5-11.1,17.6-16.3c5.7-4.9,11.7-9.5,17.9-13.7c6.1-4.2,12.4-8,18.9-11.5
			c6.5-3.5,13.3-6.6,20.4-9.4s14.6-5.3,22.5-7.6c8.3-2.3,16.8-4.3,25.2-6c8.9-1.8,18.4-3.3,28.5-4.6c10.1-1.3,20.9-2.5,32.4-3.5
			c8-0.7,21.9-1.3,40.1-1.8l66.3-1.3L722.9-194.4L722.9-194.4z"/>
	</g>
</g>
<g id="twitter">
	<g>
		<g>
			<path class="st8" d="M1,135.5c18.1,1.6,34.2-2.7,48.6-13.3c0.3-0.2,0.4-0.6,0.8-1c-10.2-0.5-18.4-4.6-24.9-12
				c-2.9-3.3-5-7-6.3-11.4c5.5,0.8,11.7,0.5,14.7-0.7C17.1,92.1,8.2,81,7.1,63.8c4.7,2.1,9.5,3.7,14.8,3.6
				c-6.9-5.3-11.7-12-13.7-20.5c-2-8.5-0.7-16.6,3.6-24.5C20.7,33,31,41.4,43.2,47.6c12.1,6.2,25,9.5,38.7,10.3
				c-0.2-1.8-0.4-3.5-0.6-5.2c-0.5-3.5,0-6.9,0.8-10.3c3.1-13.7,14.9-24.3,28.9-25.9c10.7-1.2,19.9,1.9,27.7,9.3
				c0.9,0.8,1.6,1.1,2.8,0.8c6.9-1.6,13.4-4.1,19.8-7.8c-1.3,3.9-3.2,7.3-5.6,10.3c-2.4,3-5.3,5.5-8.4,7.9c3.2,0.1,6.1-0.7,9.1-1.5
				c3-0.9,5.9-1.9,9.1-3c-1,1.3-1.8,2.5-2.6,3.6c-3.8,4.7-8,9-12.9,12.6c-0.7,0.5-1,1-0.9,1.9c0.3,6.9-0.3,13.7-1.5,20.4
				c-1.5,7.9-3.9,15.6-7.2,22.9c-4.8,10.7-11.2,20.3-19.5,28.7c-14.1,14.3-31.1,23.1-50.9,26.4c-3.8,0.6-7.7,0.9-11.6,1.3
				c-1.9,0.2-3.8,0.2-5.7,0.2c-8.8,0.1-17.4-1.1-25.9-3.5c-8.8-2.4-17.2-6.1-25-11C1.6,135.9,1.4,135.8,1,135.5z"/>
		</g>
	</g>
</g>
</svg>
