<svg xmlns="http://www.w3.org/2000/svg" viewBox="0 0 166.4 166.4" style="enable-background:new 0 0 166.4 166.4" xml:space="preserve"><style>.st0{display:none}.st1{display:inline}.st4{fill:#020203}</style><path d="M1 135.5c18.1 1.6 34.2-2.7 48.6-13.3.3-.2.4-.6.8-1-10.2-.5-18.4-4.6-24.9-12-2.9-3.3-5-7-6.3-11.4 5.5.8 11.7.5 14.7-.7C17.1 92.1 8.2 81 7.1 63.8c4.7 2.1 9.5 3.7 14.8 3.6-6.9-5.3-11.7-12-13.7-20.5s-.7-16.6 3.6-24.5C20.7 33 31 41.4 43.2 47.6c12.1 6.2 25 9.5 38.7 10.3-.2-1.8-.4-3.5-.6-5.2-.5-3.5 0-6.9.8-10.3C85.2 28.7 97 18.1 111 16.5c10.7-1.2 19.9 1.9 27.7 9.3.9.8 1.6 1.1 2.8.8 6.9-1.6 13.4-4.1 19.8-7.8-1.3 3.9-3.2 7.3-5.6 10.3-2.4 3-5.3 5.5-8.4 7.9 3.2.1 6.1-.7 9.1-1.5 3-.9 5.9-1.9 9.1-3-1 1.3-1.8 2.5-2.6 3.6-3.8 4.7-8 9-12.9 12.6-.7.5-1 1-.9 1.9.3 6.9-.3 13.7-1.5 20.4-1.5 7.9-3.9 15.6-7.2 22.9-4.8 10.7-11.2 20.3-19.5 28.7-14.1 14.3-31.1 23.1-50.9 26.4-3.8.6-7.7.9-11.6 1.3-1.9.2-3.8.2-5.7.2-8.8.1-17.4-1.1-25.9-3.5-8.8-2.4-17.2-6.1-25-11-.2-.1-.4-.2-.8-.5z" style="fill:#3e94d1" id="twitter"/></svg>