<?xml version="1.0" encoding="utf-8"?>
<!-- Generator: Adobe Illustrator 24.0.1, SVG Export Plug-In . SVG Version: 6.00 Build 0)  -->
<svg version="1.1" id="Capa_1" xmlns="http://www.w3.org/2000/svg" xmlns:xlink="http://www.w3.org/1999/xlink" x="0px" y="0px"
	 viewBox="0 0 510.1 512" style="enable-background:new 0 0 510.1 512;" xml:space="preserve">
<style type="text/css">
	.st0{fill:#5F4A33;}
</style>
<g transform="translate(0.000000,512.000000) scale(0.100000,-0.100000)">
	<path class="st0" d="M4396.2,5105.2c-126-31-307-160-347-249c-63-137,34-300,185-313c72-6,115,10,189,69c33,27,71,52,84,55
		c46,12,99-47,86-96c-3-13-247-224-607-526l-601-505l-12,105c-15,138-29,203-65,306c-59,169-122,272-293,482c-34,41-119,168-189,283
		c-71,116-138,221-150,233c-57,64-163,73-238,21c-14-11-85-115-156-232c-131-212-177-279-263-378c-102-118-120-166-76-207
		c34-32,74-28,108,11c175,204,202,242,349,482c68,110,127,203,133,207c6,3,16,4,23,1c6-2,72-101,145-220s160-249,193-290
		c138-169,168-213,216-308c126-254,151-534,75-845c-23-93-87-274-104-292c-3-4-25-4-49-1l-43,6l-54,106c-60,121-163,280-253,393
		l-62,78v235c0,222-1,236-20,255c-11,11-33,20-50,20s-39-9-50-20c-19-19-20-33-20-251v-232l-65-80c-90-110-182-250-255-389
		c-34-65-67-118-75-118c-7,0-26-3-43-6l-30-6l-42,107c-107,274-132,567-71,820c22,92,15,123-32,139c-46,17-79-2-99-58
		c-27-71-49-213-51-326c-1-70-5-99-13-96c-122,47-291,76-439,76c-182,0-300-25-508-107c-94-37-217-73-396-117c-175-42-269-70-290-85
		c-63-45-91-154-56-221c8-16,87-113,175-217c88-103,176-210,194-238c18-27,64-97,101-154c79-121,205-252,315-330
		c88-62,244-142,340-172l67-22l-54-78c-30-43-73-120-97-170l-44-92l-424-355c-232-195-431-367-440-381c-10-14-18-44-18-67
		c0-42,11-60,98-162l42-50l-104-87c-108-91-126-115-126-168c0-41,20-72,114-179c79-91,112-109,171-94c28,7,250,188,265,216
		c16,31,12,59-15,85c-40,41-64,33-177-60l-103-85l-28,32c-15,18-36,45-47,59l-20,27l366,307c201,169,368,305,370,302c6-6,8-61,6-129
		l-2-57l-102-86c-57-48-107-97-112-109c-14-37,1-76,36-90c39-17,58-12,106,30c22,19,43,34,47,34c3,0,3-46-1-103c-6-93-4-107,15-144
		c30-60,81-96,144-101c47-3,73,5,297,98c179,73,287,112,400,141c124,31,181,52,285,104c72,35,157,85,190,110c82,62,207,187,263,263
		c25,34,48,62,51,62s22-24,41-53c87-130,285-295,455-380c69-34,243-97,269-97c39,0,217-62,421-146c249-103,289-112,359-79
		c47,23,87,81,93,137c3,24-3,140-12,258c-13,164-16,265-10,425c5,173,4,229-10,315c-31,194-101,369-209,528l-54,80l76,27
		c262,93,491,271,637,495c37,58,83,128,101,155c19,28,106,135,194,238c88,104,167,201,175,217c35,67,7,176-55,220
		c-20,14-121,44-289,85c-143,36-273,70-290,77l-31,13l249,209c137,114,254,219,260,233c27,60,12,101-77,207l-50,60l77,75
		c89,88,133,168,157,281C5114.2,4860.2,4766.2,5195.2,4396.2,5105.2z M4673.2,4938.2c188-86,276-313,192-496c-38-82-62-106-284-291
		c-223-187-242-209-216-260c15-29,33-40,69-40c13,0,68,39,136,95l115,96l28-33c15-18,36-45,47-59l20-27l-243-203
		c-133-111-249-209-258-216c-15-12-28-11-100,8c-46,12-86,24-88,25c-2,2,12,16,30,31c92,76,112,100,112,131c0,43-28,72-69,72
		c-27,0-55-18-158-103l-125-104l-118-6c-65-3-119-4-121-3c-1,2,217,187,485,412c566,474,569,477,592,524c55,109,17,236-88,298
		c-37,22-58,27-111,27c-72,0-106-15-189-85c-76-64-151-47-151,34c0,29,8,42,53,81c109,96,187,127,309,121
		C4596.2,4964.2,4635.2,4956.2,4673.2,4938.2z M4021.2,3396.2c103-19,154-35,290-91c64-26,196-65,335-99c324-79,304-73,304-95
		c0-10-70-101-156-202c-96-112-197-245-261-341c-120-183-215-284-344-369c-146-97-250-140-436-179c-105-22-357-37-436-25
		c-38,6-45,11-50,34c-5,24,7,41,99,136c112,117,247,289,310,398l39,68l190,61c105,33,198,68,208,77c37,33,17,107-36,125
		c-10,4-115-26-245-68l-227-74l-130,43c-71,24-156,49-187,56l-57,13l16,36c30,70,82,237,100,326l18,90l95,32c53,18,131,39,175,47
		C3742.2,3414.2,3919.2,3415.2,4021.2,3396.2z M1481.2,3381.2c76-16,232-62,246-74c1-1,12-47,24-101c17-82,70-246,104-327
		c5-13,3-18-8-18c-20,0-198-53-282-84l-70-25l-227,74c-133,44-234,72-245,68c-10-3-26-13-35-21c-23-19-24-84-2-103
		c9-8,100-41,202-74l186-61l44-74c24-41,80-123,124-182c44-58,81-108,82-111c0-3-36-32-82-64c-45-33-114-88-153-123l-71-63l-68,16
		c-99,24-236,86-336,152c-118,79-226,190-309,316c-37,57-83,127-101,154c-18,28-106,135-194,238s-160,197-160,207c0,22-12,18,280,89
		c113,27,241,63,285,79s124,46,179,66c54,20,133,43,175,50C1186.2,3407.2,1364.2,3405.2,1481.2,3381.2z M2682.2,3147.2
		c44-66,106-174,139-241c32-67,64-127,72-133c7-6,55-16,107-22c52-7,138-21,190-32c96-20,340-95,340-104c0-10-79-122-141-200
		c-35-44-112-127-172-187c-87-84-110-113-110-135c0-15,10-81,22-147c15-81,24-179,28-302c6-175,5-183-13-183c-46,0-282,90-424,162
		c-85,43-165,78-178,78c-12,0-59-20-102-45c-104-59-235-116-365-160c-147-49-145-49-145,31c0,36-5,74-11,85c-15,29-57,42-90,29
		c-41-17-53-57-45-150l6-79l-125-172c-78-108-125-180-125-196c0-30,42-73,72-73c38,0,58,20,168,173l105,145l90,22
		c74,18,265,83,337,114c14,6,20-4,38-65c12-40,44-124,71-188l49-115l-42-66c-24-36-90-113-148-171c-165-166-295-237-568-309
		c-96-25-228-72-380-134c-128-53-240-96-248-96s-17,7-20,15c-3,7,2,107,11,220c9,114,15,268,13,343c-6,299-1,401,25,503
		c34,130,76,228,145,334c105,163,242,301,410,414l62,42l51-43c41-36,49-47,45-68c-3-14-9-52-12-86c-6-55-4-63,17-82
		c43-41,111-18,123,40c3,13,12,58,21,100c9,43,14,86,11,95c-3,10-53,64-110,120s-130,135-163,175c-64,79-153,202-153,211
		c0,11,249,86,350,107c54,10,138,24,187,30c58,7,94,17,105,28c9,9,44,71,76,137c65,132,125,230,210,344l56,74l29-34
		C2589.2,3281.2,2638.2,3212.2,2682.2,3147.2z M3804.2,1774.2c114-152,190-334,216-519c7-51,8-158,4-299c-4-162-2-270,10-410
		c19-230,20-251,3-258c-7-3-62,15-122,40c-350,142-414,166-508,188c-57,13-137,36-178,51c-324,115-581,393-712,770
		c-55,157-55,158-11,183l38,23l85-45c159-84,420-180,546-201c38-7,46-15,145-153c110-153,130-173,168-173c30,0,72,43,72,73
		c0,16-46,88-125,196l-125,171l-3,218l-3,217l125-3c69-1,158,1,196,6c39,5,80,10,92,11C3733.2,1861.2,3755.2,1839.2,3804.2,1774.2z
		 M944.2,1274.2c-3-10-8-57-12-105l-7-87l-270-226l-270-227l-47,54c-26,29-46,56-45,61c3,9,639,546,649,547
		C945.2,1291.2,946.2,1283.2,944.2,1274.2z"/>
	<path class="st0" d="M2440.2,2725.2c-228-61-361-303-291-532c46-154,173-263,340-294c117-22,252,20,350,108c63,57,118,163,131,253
		C3012.2,2557.2,2732.2,2803.2,2440.2,2725.2z M2642.2,2575.2c125-42,205-181,178-310c-43-207-294-292-447-151
		c-159,146-109,390,96,463C2518.2,2595.2,2587.2,2594.2,2642.2,2575.2z"/>
</g>
</svg>
