<?xml version="1.0" standalone="no"?>
<!DOCTYPE svg PUBLIC "-//W3C//DTD SVG 20010904//EN"
 "http://www.w3.org/TR/2001/REC-SVG-20010904/DTD/svg10.dtd">
<svg version="1.0" xmlns="http://www.w3.org/2000/svg"
 width="512.000000pt" height="512.000000pt" viewBox="0 0 512.000000 512.000000"
 preserveAspectRatio="xMidYMid meet">

<g transform="translate(0.000000,512.000000) scale(0.100000,-0.100000)"
fill="#000000" stroke="none">
<path d="M4406 5104 c-126 -31 -307 -160 -347 -249 -63 -137 34 -300 185 -313
72 -6 115 10 189 69 33 27 71 52 84 55 46 12 99 -47 86 -96 -3 -13 -247 -224
-607 -526 l-601 -505 -12 105 c-15 138 -29 203 -65 306 -59 169 -122 272 -293
482 -34 41 -119 168 -189 283 -71 116 -138 221 -150 233 -57 64 -163 73 -238
21 -14 -11 -85 -115 -156 -232 -131 -212 -177 -279 -263 -378 -102 -118 -120
-166 -76 -207 34 -32 74 -28 108 11 175 204 202 242 349 482 68 110 127 203
133 207 6 3 16 4 23 1 6 -2 72 -101 145 -220 73 -119 160 -249 193 -290 138
-169 168 -213 216 -308 126 -254 151 -534 75 -845 -23 -93 -87 -274 -104 -292
-3 -4 -25 -4 -49 -1 l-43 6 -54 106 c-60 121 -163 280 -253 393 l-62 78 0 235
c0 222 -1 236 -20 255 -11 11 -33 20 -50 20 -17 0 -39 -9 -50 -20 -19 -19 -20
-33 -20 -251 l0 -232 -65 -80 c-90 -110 -182 -250 -255 -389 -34 -65 -67 -118
-75 -118 -7 0 -26 -3 -43 -6 l-30 -6 -42 107 c-107 274 -132 567 -71 820 22
92 15 123 -32 139 -46 17 -79 -2 -99 -58 -27 -71 -49 -213 -51 -326 -1 -70 -5
-99 -13 -96 -122 47 -291 76 -439 76 -182 0 -300 -25 -508 -107 -94 -37 -217
-73 -396 -117 -175 -42 -269 -70 -290 -85 -63 -45 -91 -154 -56 -221 8 -16 87
-113 175 -217 88 -103 176 -210 194 -238 18 -27 64 -97 101 -154 79 -121 205
-252 315 -330 88 -62 244 -142 340 -172 l67 -22 -54 -78 c-30 -43 -73 -120
-97 -170 l-44 -92 -424 -355 c-232 -195 -431 -367 -440 -381 -10 -14 -18 -44
-18 -67 0 -42 11 -60 98 -162 l42 -50 -104 -87 c-108 -91 -126 -115 -126 -168
0 -41 20 -72 114 -179 79 -91 112 -109 171 -94 28 7 250 188 265 216 16 31 12
59 -15 85 -40 41 -64 33 -177 -60 l-103 -85 -28 32 c-15 18 -36 45 -47 59
l-20 27 366 307 c201 169 368 305 370 302 6 -6 8 -61 6 -129 l-2 -57 -102 -86
c-57 -48 -107 -97 -112 -109 -14 -37 1 -76 36 -90 39 -17 58 -12 106 30 22 19
43 34 47 34 3 0 3 -46 -1 -103 -6 -93 -4 -107 15 -144 30 -60 81 -96 144 -101
47 -3 73 5 297 98 179 73 287 112 400 141 124 31 181 52 285 104 72 35 157 85
190 110 82 62 207 187 263 263 25 34 48 62 51 62 3 0 22 -24 41 -53 87 -130
285 -295 455 -380 69 -34 243 -97 269 -97 39 0 217 -62 421 -146 249 -103 289
-112 359 -79 47 23 87 81 93 137 3 24 -3 140 -12 258 -13 164 -16 265 -10 425
5 173 4 229 -10 315 -31 194 -101 369 -209 528 l-54 80 76 27 c262 93 491 271
637 495 37 58 83 128 101 155 19 28 106 135 194 238 88 104 167 201 175 217
35 67 7 176 -55 220 -20 14 -121 44 -289 85 -143 36 -273 70 -290 77 l-31 13
249 209 c137 114 254 219 260 233 27 60 12 101 -77 207 l-50 60 77 75 c89 88
133 168 157 281 78 369 -270 704 -640 614z m277 -167 c188 -86 276 -313 192
-496 -38 -82 -62 -106 -284 -291 -223 -187 -242 -209 -216 -260 15 -29 33 -40
69 -40 13 0 68 39 136 95 l115 96 28 -33 c15 -18 36 -45 47 -59 l20 -27 -243
-203 c-133 -111 -249 -209 -258 -216 -15 -12 -28 -11 -100 8 -46 12 -86 24
-88 25 -2 2 12 16 30 31 92 76 112 100 112 131 0 43 -28 72 -69 72 -27 0 -55
-18 -158 -103 l-125 -104 -118 -6 c-65 -3 -119 -4 -121 -3 -1 2 217 187 485
412 566 474 569 477 592 524 55 109 17 236 -88 298 -37 22 -58 27 -111 27 -72
0 -106 -15 -189 -85 -76 -64 -151 -47 -151 34 0 29 8 42 53 81 109 96 187 127
309 121 54 -3 93 -11 131 -29z m-652 -1542 c103 -19 154 -35 290 -91 64 -26
196 -65 335 -99 324 -79 304 -73 304 -95 0 -10 -70 -101 -156 -202 -96 -112
-197 -245 -261 -341 -120 -183 -215 -284 -344 -369 -146 -97 -250 -140 -436
-179 -105 -22 -357 -37 -436 -25 -38 6 -45 11 -50 34 -5 24 7 41 99 136 112
117 247 289 310 398 l39 68 190 61 c105 33 198 68 208 77 37 33 17 107 -36
125 -10 4 -115 -26 -245 -68 l-227 -74 -130 43 c-71 24 -156 49 -187 56 l-57
13 16 36 c30 70 82 237 100 326 l18 90 95 32 c53 18 131 39 175 47 107 19 284
20 386 1z m-2540 -15 c76 -16 232 -62 246 -74 1 -1 12 -47 24 -101 17 -82 70
-246 104 -327 5 -13 3 -18 -8 -18 -20 0 -198 -53 -282 -84 l-70 -25 -227 74
c-133 44 -234 72 -245 68 -10 -3 -26 -13 -35 -21 -23 -19 -24 -84 -2 -103 9
-8 100 -41 202 -74 l186 -61 44 -74 c24 -41 80 -123 124 -182 44 -58 81 -108
82 -111 0 -3 -36 -32 -82 -64 -45 -33 -114 -88 -153 -123 l-71 -63 -68 16
c-99 24 -236 86 -336 152 -118 79 -226 190 -309 316 -37 57 -83 127 -101 154
-18 28 -106 135 -194 238 -88 103 -160 197 -160 207 0 22 -12 18 280 89 113
27 241 63 285 79 44 16 124 46 179 66 54 20 133 43 175 50 117 22 295 20 412
-4z m1201 -234 c44 -66 106 -174 139 -241 32 -67 64 -127 72 -133 7 -6 55 -16
107 -22 52 -7 138 -21 190 -32 96 -20 340 -95 340 -104 0 -10 -79 -122 -141
-200 -35 -44 -112 -127 -172 -187 -87 -84 -110 -113 -110 -135 0 -15 10 -81
22 -147 15 -81 24 -179 28 -302 6 -175 5 -183 -13 -183 -46 0 -282 90 -424
162 -85 43 -165 78 -178 78 -12 0 -59 -20 -102 -45 -104 -59 -235 -116 -365
-160 -147 -49 -145 -49 -145 31 0 36 -5 74 -11 85 -15 29 -57 42 -90 29 -41
-17 -53 -57 -45 -150 l6 -79 -125 -172 c-78 -108 -125 -180 -125 -196 0 -30
42 -73 72 -73 38 0 58 20 168 173 l105 145 90 22 c74 18 265 83 337 114 14 6
20 -4 38 -65 12 -40 44 -124 71 -188 l49 -115 -42 -66 c-24 -36 -90 -113 -148
-171 -165 -166 -295 -237 -568 -309 -96 -25 -228 -72 -380 -134 -128 -53 -240
-96 -248 -96 -8 0 -17 7 -20 15 -3 7 2 107 11 220 9 114 15 268 13 343 -6 299
-1 401 25 503 34 130 76 228 145 334 105 163 242 301 410 414 l62 42 51 -43
c41 -36 49 -47 45 -68 -3 -14 -9 -52 -12 -86 -6 -55 -4 -63 17 -82 43 -41 111
-18 123 40 3 13 12 58 21 100 9 43 14 86 11 95 -3 10 -53 64 -110 120 -57 56
-130 135 -163 175 -64 79 -153 202 -153 211 0 11 249 86 350 107 54 10 138 24
187 30 58 7 94 17 105 28 9 9 44 71 76 137 65 132 125 230 210 344 l56 74 29
-34 c16 -19 65 -88 109 -153z m1122 -1373 c114 -152 190 -334 216 -519 7 -51
8 -158 4 -299 -4 -162 -2 -270 10 -410 19 -230 20 -251 3 -258 -7 -3 -62 15
-122 40 -350 142 -414 166 -508 188 -57 13 -137 36 -178 51 -324 115 -581 393
-712 770 -55 157 -55 158 -11 183 l38 23 85 -45 c159 -84 420 -180 546 -201
38 -7 46 -15 145 -153 110 -153 130 -173 168 -173 30 0 72 43 72 73 0 16 -46
88 -125 196 l-125 171 -3 218 -3 217 125 -3 c69 -1 158 1 196 6 39 5 80 10 92
11 16 1 38 -21 87 -86z m-2860 -500 c-3 -10 -8 -57 -12 -105 l-7 -87 -270
-226 -270 -227 -47 54 c-26 29 -46 56 -45 61 3 9 639 546 649 547 3 0 4 -8 2
-17z"/>
<path d="M2450 2724 c-228 -61 -361 -303 -291 -532 46 -154 173 -263 340 -294
117 -22 252 20 350 108 63 57 118 163 131 253 42 297 -238 543 -530 465z m202
-150 c125 -42 205 -181 178 -310 -43 -207 -294 -292 -447 -151 -159 146 -109
390 96 463 49 18 118 17 173 -2z"/>
</g>
</svg>
