<?xml version="1.0" standalone="no"?>
<!DOCTYPE svg PUBLIC "-//W3C//DTD SVG 20010904//EN"
 "http://www.w3.org/TR/2001/REC-SVG-20010904/DTD/svg10.dtd">
<svg version="1.0" xmlns="http://www.w3.org/2000/svg"
 width="512.000000pt" height="512.000000pt" viewBox="0 0 512.000000 512.000000"
 preserveAspectRatio="xMidYMid meet">

<g transform="translate(0.000000,512.000000) scale(0.100000,-0.100000)"
fill="#000000" stroke="none">
<path d="M785 4668 c-133 -73 -157 -256 -53 -399 18 -25 26 -45 20 -47 -64
-21 -122 -106 -122 -177 0 -111 50 -196 235 -400 141 -155 137 -137 37 -164
-85 -23 -133 -90 -117 -163 11 -48 97 -128 187 -172 166 -82 208 -179 223
-507 l7 -156 -53 -17 c-210 -69 -330 -251 -385 -581 -31 -184 -24 -731 13
-967 l5 -37 -320 -3 -320 -3 -43 -30 c-56 -40 -99 -120 -99 -185 0 -64 43
-146 95 -182 59 -41 130 -50 366 -46 193 3 210 4 228 23 31 32 35 67 11 98
l-21 27 -217 0 c-224 0 -274 6 -298 37 -20 26 -17 66 6 91 l21 22 2369 0 2369
0 21 -22 c39 -42 19 -101 -41 -118 -21 -6 -774 -10 -2010 -10 -1902 0 -1977
-1 -1992 -18 -24 -27 -22 -85 4 -108 21 -19 70 -19 1992 -22 1297 -1 1990 1
2027 8 30 5 73 22 95 38 52 36 95 118 95 182 0 65 -43 145 -99 185 l-43 30
-315 3 -316 3 6 52 c37 314 43 755 14 936 -23 142 -55 255 -78 280 -27 29 -82
28 -109 -1 -25 -27 -25 -46 -1 -123 11 -34 22 -82 26 -108 l7 -47 -506 0 -506
0 0 28 c0 47 40 174 77 244 44 84 111 148 189 179 54 22 73 24 239 24 176 0
181 -1 245 -29 93 -40 116 -43 146 -15 27 26 31 64 9 95 -18 27 -103 67 -175
84 -30 7 -61 14 -69 17 -11 3 -13 21 -7 96 18 259 86 389 231 447 122 48 206
117 220 180 15 67 -54 140 -149 156 l-39 6 161 157 c169 164 206 216 218 304
9 61 -10 120 -50 155 -19 16 -40 32 -47 34 -9 3 -5 14 13 39 92 122 101 239
25 325 -41 47 -77 64 -135 64 -122 0 -379 -181 -516 -363 l-36 -48 -39 83
c-108 228 -295 429 -488 527 -49 24 -121 28 -161 7 -129 -68 -153 -255 -50
-397 18 -25 26 -45 20 -47 -64 -21 -122 -106 -122 -177 0 -111 50 -196 235
-400 141 -155 137 -137 37 -164 -85 -23 -133 -90 -117 -163 11 -48 97 -128
187 -172 166 -82 208 -179 223 -507 l7 -156 -53 -17 c-210 -69 -330 -251 -385
-581 -31 -184 -24 -731 13 -967 l6 -38 -498 0 -498 0 7 57 c60 537 41 957 -54
1202 -72 184 -192 294 -372 340 l-73 19 2 89 c3 172 52 322 127 391 22 21 68
48 101 62 78 31 154 79 187 118 73 87 26 182 -108 216 l-46 11 149 142 c195
186 245 268 228 380 -5 36 -16 56 -43 84 -21 20 -43 38 -51 41 -12 3 -9 12 11
39 92 122 101 239 25 325 -68 79 -139 85 -265 23 -132 -66 -177 -121 -138
-171 7 -10 24 -22 39 -27 23 -9 40 -3 122 40 99 52 120 56 138 27 23 -35 -9
-94 -108 -197 -99 -106 -116 -140 -95 -190 11 -28 46 -51 76 -51 8 0 32 9 54
20 22 11 51 20 66 20 24 0 26 -3 20 -30 -10 -54 -63 -117 -211 -251 -158 -143
-194 -188 -202 -248 -10 -71 26 -106 132 -126 l60 -12 -50 -22 c-128 -57 -159
-76 -206 -124 -93 -95 -148 -250 -166 -472 -8 -98 -8 -100 -34 -103 -22 -3
-28 2 -33 25 -14 58 -19 548 -7 664 33 320 123 595 257 787 48 69 57 118 27
144 -46 39 -88 29 -132 -33 l-30 -41 -40 84 c-108 228 -294 429 -488 527 -46
23 -125 28 -158 9z m170 -193 c170 -113 308 -299 389 -524 l27 -74 -30 -71
c-65 -158 -111 -337 -133 -523 -7 -57 -15 -103 -18 -103 -4 0 -17 12 -31 26
-13 14 -55 42 -94 61 -133 68 -140 83 -39 83 67 0 114 31 133 87 14 39 13 43
-12 96 -17 33 -74 106 -145 184 -180 197 -222 259 -222 323 0 42 21 47 74 16
59 -35 108 -34 135 0 42 54 26 101 -79 229 -32 38 -65 86 -75 105 -32 63 -20
140 23 140 8 0 52 -25 97 -55z m2280 0 c170 -113 308 -299 389 -524 l27 -74
-30 -71 c-63 -154 -121 -387 -137 -553 -4 -40 -10 -73 -14 -73 -3 0 -17 12
-31 26 -13 14 -55 42 -94 61 -133 68 -140 83 -39 83 67 0 114 31 133 87 14 39
13 43 -12 96 -17 33 -74 106 -145 184 -180 197 -222 259 -222 323 0 42 21 47
74 16 59 -35 108 -34 135 0 42 54 26 101 -79 229 -32 38 -65 86 -75 105 -32
63 -20 140 23 140 8 0 52 -25 97 -55z m1098 -187 c23 -35 -9 -94 -108 -197
-99 -106 -116 -140 -95 -190 11 -28 46 -51 76 -51 8 0 32 9 54 20 22 11 51 20
66 20 24 0 26 -3 20 -30 -10 -54 -63 -117 -211 -251 -157 -143 -194 -188 -202
-247 -10 -71 28 -107 130 -127 l62 -12 -50 -22 c-128 -57 -159 -76 -206 -124
-93 -95 -148 -250 -166 -472 -8 -98 -8 -100 -35 -103 -23 -3 -27 1 -33 35 -13
78 -21 373 -14 523 28 601 228 1012 589 1209 78 43 106 47 123 19z m-2671
-1967 c74 -29 146 -95 186 -168 32 -61 82 -218 82 -259 l0 -24 -505 0 -505 0
0 28 c0 44 38 168 71 234 36 72 99 143 151 169 79 40 135 49 303 46 137 -3
168 -7 217 -26z m293 -663 c3 -35 5 -124 3 -198 l-3 -135 -532 -3 -533 -2 0
177 c0 98 3 188 6 201 l6 22 523 0 523 0 7 -62z m2280 0 c3 -35 5 -124 3 -198
l-3 -135 -532 -3 -533 -2 0 177 c0 98 3 188 6 201 l6 22 523 0 523 0 7 -62z
m-2296 -540 c0 -29 -6 -93 -12 -143 l-12 -90 -484 -3 c-267 -1 -489 2 -493 6
-9 9 -38 263 -31 275 2 4 236 7 519 7 l514 0 -1 -52z m2280 0 c0 -29 -6 -93
-12 -143 l-12 -90 -484 -3 c-267 -1 -489 2 -493 6 -9 9 -38 263 -31 275 2 4
236 7 519 7 l514 0 -1 -52z"/>
</g>
</svg>
